<svg xmlns="http://www.w3.org/2000/svg" viewBox="0 0 252.9 232.09"><defs><style>.cls-1{fill:#c03a2b;}.cls-2{fill:#e64c3c;}.cls-3{fill:#e4c54c;}.cls-4{fill:#cdbf87;}</style></defs><g id="Calque_2" data-name="Calque 2"><g id="Calque_1-2" data-name="Calque 1"><polygon class="cls-1" points="250.09 179.1 140.28 229.29 140.28 77.18 250.09 27.02 250.09 179.1"/><polygon class="cls-2" points="2.81 179.1 112.63 229.29 112.63 77.18 2.81 27.02 2.81 179.1"/><rect class="cls-1" x="112.63" y="77.18" width="27.65" height="152.08"/><polygon class="cls-3" points="212.49 121.39 174.87 138.58 174.87 86.43 212.49 69.23 212.49 121.39"/><polygon class="cls-3" points="40.41 121.39 78.03 138.58 78.03 86.43 40.41 69.23 40.41 121.39"/><path d="M174.86,141.4a2.87,2.87,0,0,1-1.52-.45,2.8,2.8,0,0,1-1.29-2.36V86.44a2.82,2.82,0,0,1,1.64-2.56l37.65-17.2a2.8,2.8,0,0,1,4,2.55v52.15a2.79,2.79,0,0,1-1.64,2.55L176,141.14A2.88,2.88,0,0,1,174.86,141.4Zm2.81-53.15v46l32-14.63v-46Zm34.83,33.13h0Z"/><path class="cls-4" d="M126.45,72.65c0-40.12-15.57-57.46-52.22-69.84V27Z"/><path d="M126.45,75.46a2.78,2.78,0,0,1-1.85-.69L72.38,29.14a2.79,2.79,0,0,1-1-2.11V2.81A2.81,2.81,0,0,1,75.13.15c39.46,13.33,54.13,33,54.13,72.5a2.81,2.81,0,0,1-2.81,2.81ZM77,25.75l46.46,40.6C122.07,34.75,109.28,18.48,77,6.77Z"/><path class="cls-4" d="M126.45,77.2V72.65a30.26,30.26,0,0,0-13.76-25.52C87.52,31,58.45,20.91,26.94,14.61L2.81,27,112.62,77.2Z"/><path class="cls-4" d="M126.45,77.2V72.65a30.26,30.26,0,0,1,13.76-25.52C165.38,31,194.46,20.91,226,14.61L250.09,27,140.28,77.2Z"/><path d="M174.86,161.46a2.81,2.81,0,0,1-1.17-5.36l37.65-17.2a2.81,2.81,0,1,1,2.33,5.11L176,161.21A2.87,2.87,0,0,1,174.86,161.46Z"/><path d="M174.86,181.53a2.81,2.81,0,0,1-1.17-5.36L211.34,159a2.8,2.8,0,1,1,2.33,5.1L176,181.28A2.87,2.87,0,0,1,174.86,181.53Z"/><path d="M78,141.4a2.84,2.84,0,0,1-1.17-.26l-37.64-17.2a2.82,2.82,0,0,1-1.64-2.56V69.24a2.8,2.8,0,0,1,4-2.55l37.65,17.2a2.81,2.81,0,0,1,1.64,2.56v52.14A2.79,2.79,0,0,1,79.56,141,2.87,2.87,0,0,1,78,141.4ZM43.2,119.58l32,14.63v-46l-32-14.64Z"/><path d="M78,161.46a2.82,2.82,0,0,1-1.16-.25L39.23,144a2.81,2.81,0,1,1,2.33-5.11l37.65,17.2A2.81,2.81,0,0,1,78,161.46Z"/><path d="M78,181.53a2.82,2.82,0,0,1-1.16-.25L39.23,164.07a2.8,2.8,0,1,1,2.33-5.1l37.65,17.2A2.81,2.81,0,0,1,78,181.53Z"/><path d="M140.28,232.09a2.8,2.8,0,0,1-2.81-2.81V77.2a2.82,2.82,0,0,1,1.64-2.56L248.92,24.47a2.81,2.81,0,0,1,4,2.56V179.11a2.82,2.82,0,0,1-1.64,2.56L141.45,231.84A2.8,2.8,0,0,1,140.28,232.09ZM143.09,79V224.91L247.28,177.3V31.4Zm107,100.11h0Z"/><path d="M112.62,232.09a2.8,2.8,0,0,1-1.17-.25L1.64,181.67A2.82,2.82,0,0,1,0,179.11V27a2.81,2.81,0,0,1,4-2.56L113.79,74.64a2.82,2.82,0,0,1,1.64,2.56V229.29a2.83,2.83,0,0,1-1.29,2.36A2.86,2.86,0,0,1,112.62,232.09ZM5.62,177.3l104.19,47.61V79L5.62,31.4Z"/><path d="M140.28,232.09H112.62a2.81,2.81,0,0,1-2.81-2.81V77.2a2.81,2.81,0,0,1,2.81-2.81h27.66a2.8,2.8,0,0,1,2.81,2.81V229.28A2.8,2.8,0,0,1,140.28,232.09Zm-24.85-5.62h22V80h-22V226.47Z"/><path d="M126.45,80H112.62a2.81,2.81,0,0,1-1.17-.26L1.64,29.58A2.81,2.81,0,0,1,0,27.09a2.84,2.84,0,0,1,1.52-2.57L25.66,12.1a2.76,2.76,0,0,1,1.83-.25c34.62,6.92,63,17.69,86.72,32.91a32.89,32.89,0,0,1,15,27.89V77.2A2.81,2.81,0,0,1,126.45,80Zm-13.22-5.62h10.41V72.65a27.33,27.33,0,0,0-12.46-23.16C88.27,34.8,60.84,24.34,27.35,17.55L9.24,26.87Z"/><path d="M140.28,80H126.45a2.81,2.81,0,0,1-2.81-2.81V72.65a32.92,32.92,0,0,1,15-27.89c23.73-15.22,52.1-26,86.71-32.91a2.78,2.78,0,0,1,1.84.25l24.13,12.42a2.81,2.81,0,0,1-.11,5.06L141.45,79.75A2.81,2.81,0,0,1,140.28,80Zm-11-5.62h10.41l104-47.52-18.11-9.32c-33.48,6.79-60.91,17.24-83.82,31.94a27.31,27.31,0,0,0-12.47,23.16Z"/></g></g></svg>