<svg width="502" height="837" viewBox="0 0 502 837" fill="none" xmlns="http://www.w3.org/2000/svg">
<g opacity="0.2">
<path d="M410.672 316.809C412.274 322.788 412.131 330.481 410.02 341.239C404.149 369.863 373.14 405.911 340.336 443.988C322.332 464.939 303.702 486.574 289.206 507.188C261.567 539.021 248.667 583.892 236.148 627.328C227.016 659.062 218.358 689.035 204.488 714.168L204.457 714.22C193.536 733.23 180.979 744.121 166.096 747.507C137.054 754.127 103.419 731.014 64.4752 704.206L60.7287 701.64C31.7484 681.796 -6.46622 657.373 -63.1268 622.367L-67.8009 619.362C-117.137 587.683 -178.543 548.229 -225.4 488.362C-328.276 370.869 -308.43 238.597 -262.542 186.22C-207.641 129.708 -137.356 114.488 6.20945 127.97C155.928 142.256 291.28 226.491 342.51 262.049C360.397 277.426 374.932 286.175 385.544 292.535C398.961 300.637 407.748 305.895 410.672 316.809ZM199.513 711.717C213.081 687.137 221.636 657.45 230.717 626.031C243.37 582.086 256.465 536.603 284.731 504.086C299.216 483.433 317.951 461.683 336.028 440.669C368.341 403.111 398.87 367.622 404.487 340.399C409.675 313.593 402.808 309.455 382.418 297.157C371.638 290.67 356.839 281.777 338.836 266.302C288.177 231.193 153.837 147.547 5.45369 133.377C-136.04 120.07 -205.098 134.832 -258.443 189.767C-302.942 240.61 -321.977 369.697 -221.048 484.96C-174.626 544.212 -113.652 583.395 -64.6853 614.871L-60.022 617.836C-3.30869 652.871 34.9587 677.323 64.0024 697.237L67.7489 699.802C105.595 725.873 138.291 748.334 164.834 742.297C178.101 739.258 189.413 729.26 199.513 711.717Z" fill="#A7CEFC"/>
<path d="M374.828 335.144C377.043 343.41 376.616 352.899 374.931 366.253L374.911 366.516C368.974 392.878 344.621 419.014 318.87 446.643C301.253 465.513 283.093 485.044 268.487 506.59C243.851 538.048 227.659 573.652 211.996 608.04C201.498 631.151 191.561 652.994 179.458 672.967L179.197 673.338C142.424 717.252 116.338 699.814 68.9572 668.214C63.8076 664.777 58.3835 661.155 52.612 657.412C42.4969 649.715 31.3285 641.612 19.4843 633.002C-33.1808 594.775 -105.301 542.366 -174.587 459.738C-251.721 356.721 -242.2 258.611 -198.578 207.013C-152.711 154.727 -81.5889 151.195 41.966 163.03C167.855 178.54 263.863 242.697 315.433 277.175L321.184 281.009C356.185 307.541 370.527 319.094 374.828 335.144ZM369.356 365.596C373.898 329.157 369.214 324.435 317.805 285.355L312.212 281.607C261.032 247.412 165.743 183.751 41.2835 168.374C-80.1999 156.715 -150.041 159.99 -194.217 210.36C-236.441 260.293 -245.368 355.75 -170.046 456.371C-101.279 538.407 -29.4541 590.551 22.9581 628.674C34.8023 637.284 45.9708 645.387 56.0224 653.015C61.6358 656.672 67.0598 660.293 72.2514 663.718C119.685 695.348 141.381 709.833 174.743 670.145C186.617 650.492 196.429 628.854 206.854 605.977C222.61 571.264 238.959 535.403 263.897 503.562C278.628 481.811 296.965 462.103 314.718 443.068C339.874 416.072 363.663 390.517 369.356 365.596Z" fill="#A7CEFC"/>
<path d="M344.99 350.708C347.817 361.261 346.495 372.109 343.048 386.106C335.666 409.931 313.484 433.422 290.048 458.28C276.096 473.028 261.705 488.323 249.149 504.761C228.871 528.473 213.051 554.386 197.71 579.398C185.126 599.929 173.272 619.319 160.054 635.633L159.845 635.861C123.757 671.421 97.2159 651.782 49.012 616.102L48.4524 615.693L40.2033 608.915C-6.63106 570.287 -70.788 517.378 -128.584 436.832C-192.224 340.521 -174.295 263.553 -139.674 226.881C-102.756 187.702 -41.569 178.489 71.5148 195.065C150.692 207.996 228.131 242.982 301.671 299.011C328.384 321.14 340.947 335.621 344.99 350.708ZM155.693 632.286C168.629 616.262 180.4 597.067 192.817 576.752C208.241 551.547 224.238 525.456 244.684 501.528C257.291 484.947 271.839 469.567 285.896 454.704C308.925 430.342 330.647 407.32 337.617 384.809C345.539 352.926 341.536 339.162 298.028 303.212C225.238 247.8 148.663 213.184 70.4749 200.418C-40.4523 184.168 -100.161 192.856 -135.606 230.479C-171.522 268.53 -181.859 346.13 -123.946 433.826C-66.5954 513.717 -2.77636 566.373 43.8675 604.794L52.4546 611.825C100.996 647.759 123.219 664.211 155.693 632.286Z" fill="#A7CEFC"/>
<path d="M317.12 362.218C320.281 374.015 319.009 386.225 314.01 400.81L313.989 400.902C305.631 423.096 284.552 444.829 262.283 467.826C251.952 478.464 241.319 489.484 231.446 500.989C216.69 516.77 203.599 533.394 190.989 549.46C175.49 569.181 160.835 587.859 145.447 601.615C112.085 627.37 86.292 609.682 47.6736 577.54C10.2856 543.778 -44.3182 490.76 -87.2927 419.36C-122.994 349.752 -125.06 291 -93.1969 253.778C-58.881 213.619 9.73848 202.93 95.0842 224.444C194.094 244.404 263.718 299.245 282.671 315.584C302.136 333.161 313.142 347.372 317.12 362.218ZM308.682 399.228C317.977 371.965 315.888 353.087 278.807 319.63C260.149 303.556 191.434 249.417 93.6656 229.727C10.4462 208.761 -56.065 218.756 -88.8673 257.176C-119.217 292.66 -116.859 349.312 -82.2739 416.768C-39.7243 487.422 14.4674 540.077 51.5488 573.534C91.2765 606.626 113.164 619.813 141.902 597.619C156.736 584.312 171.224 565.851 186.588 546.295C199.302 530.116 212.413 513.4 227.284 497.546C237.147 486.001 247.906 474.947 258.267 464.257C280.055 441.647 300.706 420.33 308.682 399.228Z" fill="#A7CEFC"/>
<path d="M291.333 371.407C294.688 383.926 293.282 396.645 287.504 411.01L287.296 411.409C251.085 470.182 154.57 554.058 135.613 570.276L135.152 570.572C106.18 587.022 82.9771 573.628 50.3072 543.204C20.8515 514.197 -20.4116 466.981 -49.951 406.602C-75.3234 350.526 -74.0847 303.103 -46.4769 272.998C-15.7991 239.576 42.3272 231.7 113 251.339C180.34 267.27 235.205 302.628 264.065 330.418C278.867 345.03 287.774 358.126 291.333 371.407ZM282.363 408.947C293.306 381.458 287.246 361.192 260.021 334.297C231.7 307.008 177.774 272.301 111.434 256.575C43.8248 237.792 -13.5998 245.266 -42.2937 276.522C-68.3772 304.928 -69.3023 350.332 -44.815 404.28C-15.6058 463.93 25.2441 510.612 54.3513 539.325C85.5945 568.454 106.257 580.593 132.193 566.075C186.649 519.487 254.623 453.838 282.363 408.947Z" fill="#A7CEFC"/>
<path d="M267.611 380.086C271.202 393.488 269.651 406.332 262.981 417.538C236.764 462.236 171.396 518.972 129.083 541.879C119.105 546.444 108.228 546.65 96.7059 542.598C61.1905 530.095 18.9831 476.165 -16.1898 398.287C-33.1592 353.592 -29.4552 315.873 -5.76194 291.978C21.0864 264.915 69.1673 259.171 126.098 276.214C198.429 298.85 250.452 335.184 265.364 373.377C266.281 375.626 267.02 377.879 267.611 380.086ZM-16.4938 379.188C-15.0101 384.725 -13.1788 390.384 -10.958 396.154C23.5545 472.574 64.5891 525.486 98.7455 537.45C108.878 541.014 118.241 540.87 126.616 537.035C168.059 514.577 232.382 458.808 258.13 414.881C265.008 403.276 265.703 389.585 260.131 375.338C245.795 338.625 195.03 303.459 124.321 281.334C70.328 265.182 23.2114 270.495 -1.72514 295.627C-20.8113 314.89 -25.8798 344.159 -16.4938 379.188Z" fill="#A7CEFC"/>
<path d="M244.193 385.027C247.526 397.466 246.264 409.545 240.411 420.273C219.663 458.517 166.067 503.112 125.741 515.637L125.657 515.66C88.1452 525.926 41.2968 474.486 14.3444 393.374C4.05544 358.5 9.33382 329.175 29.3076 310.706C52.1974 289.521 90.7239 285.391 135.045 299.362C189.036 316.848 228.919 346.157 241.764 377.808C242.735 380.257 243.559 382.66 244.193 385.027ZM124.176 510.466C163.284 498.266 215.301 454.998 235.436 417.822C241.621 406.488 241.984 393.403 236.522 379.901C224.243 349.689 185.606 321.509 133.142 304.516C90.8849 291.196 54.3947 294.867 33.0937 314.595C14.7506 331.594 9.93329 358.947 19.6632 391.734C45.2661 468.649 90.2205 519.736 124.176 510.466Z" fill="#A7CEFC"/>
<path d="M221.84 389.081C224.754 399.955 223.872 410.599 219.127 420.256C202.609 454.141 159.492 486.638 124.931 491.297C91.6166 495.235 55.2083 451.362 42.0264 391.59C36.6339 365.253 42.6811 343.162 58.9937 329.329C77.6906 313.482 107.343 310.482 140.304 321.175C178.931 333.876 208.401 356.385 219.145 381.374C220.285 383.95 221.152 386.513 221.84 389.081ZM49.7781 399.533C63.8196 451.936 95.5644 489.318 124.342 485.907C156.603 481.564 198.537 449.857 214.079 418.039C219.187 407.553 219.147 395.651 213.966 383.536C203.808 359.895 175.544 338.525 138.39 326.29C107.398 316.23 79.7931 318.81 62.6333 333.343C47.931 345.797 42.5666 366.071 47.5055 390.38C48.2386 393.452 48.9718 396.524 49.7781 399.533Z" fill="#A7CEFC"/>
<path d="M200.38 392.596C202.724 401.343 202.208 409.997 198.83 418.041C187.09 445.915 154.508 468.536 126.193 468.468C98.1401 468.201 72.3358 434.69 67.4457 392.263C65.4089 373.413 71.2522 357.612 83.9103 347.77C98.2421 336.618 119.628 334.501 142.585 341.939C168.817 350.521 188.828 366.104 197.453 384.693C198.688 387.287 199.67 389.948 200.38 392.596ZM126.36 463.048C152.069 463.126 182.881 441.624 193.637 416.121C197.461 407.054 197.012 396.982 192.348 386.964C184.416 369.952 165.113 354.997 140.703 347.002C119.62 340.18 100.219 341.981 87.4035 351.908C76.304 360.516 71.2178 374.609 73.0537 391.534C77.525 430.719 101.46 462.796 126.36 463.048Z" fill="#A7CEFC"/>
<path d="M179.556 395.809C181.18 401.868 181.112 408.165 178.963 414.246C171.938 434.535 149.408 449.173 128.784 446.915C108.233 444.594 91.2241 421.241 90.8864 394.797C90.7183 382.585 95.5754 372.339 104.481 365.953C114.297 358.936 128.12 357.469 142.356 361.911C161.911 368.068 175.664 381.284 179.556 395.809ZM173.677 412.652C179.741 395.158 164.904 374.706 140.538 367.043C128.07 363.159 116.095 364.303 107.797 370.268C100.398 375.562 96.372 384.21 96.5083 394.624C96.8305 418.492 111.65 439.55 129.551 441.549C147.672 443.531 167.458 430.575 173.677 412.652Z" fill="#A7CEFC"/>
<path d="M159.208 399.283C160.09 402.574 160.152 405.997 159.258 409.376C156.196 420.948 144.06 428.544 132.16 426.271C120.406 424.044 111.724 411.62 112.833 398.636C113.363 392.387 116.359 387.112 121.331 383.844C126.565 380.377 133.528 379.501 140.403 381.486C150.121 384.344 157.068 391.298 159.208 399.283ZM119.145 406.578C121.091 413.84 126.581 419.723 133.41 421.033C142.365 422.719 151.537 416.993 153.817 408.211C156.151 399.458 149.334 389.801 138.659 386.727C133.342 385.184 128.321 385.755 124.427 388.347C120.91 390.666 118.778 394.462 118.385 399.04C118.222 401.621 118.5 404.17 119.145 406.578Z" fill="#A7CEFC"/>
</g>
</svg>
