<svg width="592" height="326" viewBox="0 0 592 326" fill="none" xmlns="http://www.w3.org/2000/svg">
<g opacity="0.3">
<path d="M590.604 281.585H572.694C572.526 281.585 572.365 281.491 572.247 281.325C572.128 281.159 572.061 280.933 572.061 280.697V234.923C572.061 234.688 572.128 234.462 572.247 234.296C572.365 234.129 572.526 234.036 572.694 234.036C572.86 234.04 573.019 234.135 573.137 234.301C573.255 234.466 573.323 234.689 573.326 234.923V279.81H590.604C590.772 279.81 590.933 279.904 591.051 280.07C591.17 280.236 591.237 280.462 591.237 280.697C591.237 280.933 591.17 281.159 591.051 281.325C590.933 281.491 590.772 281.585 590.604 281.585Z" fill="white"/>
<path d="M572.694 223.156C572.526 223.156 572.365 223.062 572.247 222.896C572.128 222.729 572.061 222.503 572.061 222.268V117.976H555.833C555.666 117.976 555.505 117.883 555.386 117.716C555.267 117.55 555.201 117.324 555.201 117.089V88.3889H547.928C547.76 88.3889 547.599 88.2954 547.481 88.129C547.362 87.9626 547.295 87.7369 547.295 87.5015V76.4085C547.295 76.1731 547.362 75.9474 547.481 75.781C547.599 75.6145 547.76 75.5211 547.928 75.5211H555.201V60.2926H496.903V155.533C496.903 155.768 496.837 155.994 496.718 156.16C496.599 156.327 496.439 156.42 496.271 156.42H476.248C476.08 156.42 475.919 156.327 475.801 156.16C475.682 155.994 475.616 155.768 475.616 155.533V87.6612H455.087C454.919 87.6612 454.758 87.5677 454.64 87.4013C454.521 87.2349 454.454 87.0092 454.454 86.7738C454.454 86.5384 454.521 86.3127 454.64 86.1463C454.758 85.9799 454.919 85.8864 455.087 85.8864H476.248C476.416 85.8864 476.577 85.9799 476.695 86.1463C476.814 86.3127 476.88 86.5384 476.88 86.7738V154.645H495.638V59.4051C495.638 59.1698 495.705 58.9441 495.824 58.7776C495.942 58.6112 496.103 58.5177 496.271 58.5177H555.833C556.001 58.5177 556.162 58.6112 556.28 58.7776C556.399 58.9441 556.466 59.1698 556.466 59.4051V76.4085C556.466 76.6439 556.399 76.8696 556.28 77.036C556.162 77.2024 556.001 77.2959 555.833 77.2959H548.56V86.614H555.833C556 86.6186 556.159 86.7135 556.277 86.879C556.395 87.0444 556.462 87.2675 556.466 87.5015V116.201H572.694C572.862 116.201 573.022 116.295 573.141 116.461C573.26 116.628 573.326 116.853 573.326 117.089V222.286C573.32 222.517 573.251 222.735 573.133 222.897C573.016 223.059 572.858 223.151 572.694 223.156Z" fill="white"/>
<path d="M482.92 326C482.634 326 482.359 325.919 482.156 325.776C481.954 325.632 481.84 325.438 481.84 325.235V235.283H454.127C453.84 235.283 453.566 235.202 453.363 235.059C453.161 234.915 453.047 234.72 453.047 234.517V209.764H440.627C440.34 209.764 440.065 209.683 439.863 209.54C439.66 209.396 439.547 209.201 439.547 208.998V199.431C439.547 199.228 439.66 199.033 439.863 198.89C440.065 198.746 440.34 198.665 440.627 198.665H453.047V185.531H353.491V267.675C353.491 267.878 353.377 268.073 353.174 268.217C352.972 268.36 352.697 268.441 352.411 268.441H318.217C317.931 268.441 317.656 268.36 317.454 268.217C317.251 268.073 317.137 267.878 317.137 267.675V209.136H282.08C281.794 209.136 281.519 209.056 281.316 208.912C281.114 208.769 281 208.574 281 208.371C281 208.168 281.114 207.973 281.316 207.83C281.519 207.686 281.794 207.605 282.08 207.605H318.217C318.504 207.605 318.779 207.686 318.981 207.83C319.184 207.973 319.297 208.168 319.297 208.371V266.91H351.331V184.765C351.331 184.562 351.445 184.368 351.647 184.224C351.85 184.081 352.124 184 352.411 184H454.127C454.413 184 454.688 184.081 454.89 184.224C455.093 184.368 455.207 184.562 455.207 184.765V199.431C455.207 199.634 455.093 199.828 454.89 199.972C454.688 200.116 454.413 200.196 454.127 200.196H441.707V208.233H454.127C454.411 208.237 454.683 208.319 454.884 208.462C455.086 208.604 455.201 208.797 455.207 208.998V233.752H482.92C483.206 233.752 483.481 233.833 483.684 233.976C483.886 234.12 484 234.314 484 234.517V325.25C483.989 325.449 483.871 325.638 483.67 325.777C483.469 325.916 483.201 325.996 482.92 326Z" fill="white"/>
<path d="M419.329 161.55H399.306C399.138 161.55 398.978 161.456 398.859 161.29C398.74 161.123 398.674 160.897 398.674 160.662V65.4931H376.602C376.435 65.4885 376.276 65.3936 376.158 65.2281C376.04 65.0627 375.973 64.8396 375.969 64.6056V1.77488H251.482V67.126C251.482 67.3613 251.415 67.587 251.296 67.7535C251.178 67.9199 251.017 68.0134 250.849 68.0134H235.671C235.503 68.0134 235.342 67.9199 235.224 67.7535C235.105 67.587 235.038 67.3613 235.038 67.126V20.2336C235.038 19.9983 235.105 19.7725 235.224 19.6061C235.342 19.4397 235.503 19.3462 235.671 19.3462H240.439V4.95192H221.391V19.4527H227.778C227.945 19.4572 228.104 19.5522 228.222 19.7176C228.34 19.8831 228.407 20.1062 228.411 20.3401V128.608C228.407 128.842 228.34 129.065 228.222 129.23C228.104 129.396 227.945 129.491 227.778 129.495H213.865C213.697 129.495 213.536 129.402 213.417 129.235C213.299 129.069 213.232 128.843 213.232 128.608C213.232 128.372 213.299 128.147 213.417 127.98C213.536 127.814 213.697 127.72 213.865 127.72H227.158V21.2276H220.771C220.603 21.2276 220.442 21.1341 220.324 20.9676C220.205 20.8012 220.138 20.5755 220.138 20.3401V4.06448C220.138 3.82911 220.205 3.60339 220.324 3.43696C220.442 3.27053 220.603 3.17704 220.771 3.17704H241.122C241.29 3.17704 241.451 3.27053 241.57 3.43696C241.688 3.60339 241.755 3.82911 241.755 4.06448V20.2336C241.755 20.469 241.688 20.6947 241.57 20.8611C241.451 21.0276 241.29 21.1211 241.122 21.1211H236.354V66.2385H250.267V0.88744C250.271 0.653499 250.338 0.430414 250.456 0.264962C250.574 0.0995093 250.733 0.00454382 250.9 0H376.653C376.82 0 376.981 0.0934972 377.1 0.259924C377.218 0.426352 377.285 0.652076 377.285 0.88744V63.7182H399.357C399.525 63.7182 399.685 63.8117 399.804 63.9781C399.923 64.1445 399.989 64.3703 399.989 64.6056V159.775H418.709V86.7739C418.709 86.5385 418.776 86.3128 418.894 86.1464C419.013 85.9799 419.174 85.8864 419.342 85.8864H446.081C446.249 85.8864 446.409 85.9799 446.528 86.1464C446.647 86.3128 446.713 86.5385 446.713 86.7739C446.713 87.0092 446.647 87.235 446.528 87.4014C446.409 87.5678 446.249 87.6613 446.081 87.6613H419.974V160.662C419.974 160.78 419.957 160.897 419.925 161.006C419.892 161.115 419.844 161.213 419.784 161.296C419.724 161.379 419.653 161.444 419.575 161.487C419.497 161.531 419.413 161.552 419.329 161.55Z" fill="white"/>
<path d="M126.652 131.767H114.219C114.051 131.767 113.89 131.674 113.772 131.507C113.653 131.341 113.586 131.115 113.586 130.88V95.7018H86.1515C85.9837 95.7018 85.8229 95.6083 85.7043 95.4419C85.5857 95.2755 85.519 95.0498 85.519 94.8144C85.519 94.579 85.5857 94.3533 85.7043 94.1869C85.8229 94.0204 85.9837 93.927 86.1515 93.927H114.219C114.387 93.927 114.547 94.0204 114.666 94.1869C114.785 94.3533 114.851 94.579 114.851 94.8144V129.992H126.02V33.1373C126.023 32.9034 126.091 32.6803 126.209 32.5148C126.327 32.3494 126.486 32.2544 126.652 32.2499H175.577C175.745 32.2499 175.906 32.3434 176.025 32.5098C176.143 32.6762 176.21 32.902 176.21 33.1373V66.0081H186.329C186.496 66.0081 186.657 66.1016 186.776 66.268C186.894 66.4344 186.961 66.6602 186.961 66.8955V91.6018H197.94C198.108 91.6018 198.269 91.6953 198.387 91.8618C198.506 92.0282 198.573 92.2539 198.573 92.4893V127.667H207.098C207.265 127.667 207.426 127.761 207.545 127.927C207.664 128.094 207.73 128.319 207.73 128.555C207.73 128.79 207.664 129.016 207.545 129.182C207.426 129.349 207.265 129.442 207.098 129.442H197.94C197.772 129.442 197.611 129.349 197.493 129.182C197.374 129.016 197.308 128.79 197.308 128.555V93.3767H186.354C186.187 93.3722 186.028 93.2772 185.91 93.1118C185.792 92.9463 185.725 92.7232 185.722 92.4893V67.783H175.603C175.435 67.783 175.274 67.6895 175.155 67.523C175.037 67.3566 174.97 67.1309 174.97 66.8955V34.0248H127.285V130.862C127.287 130.98 127.271 131.098 127.24 131.207C127.209 131.317 127.163 131.417 127.104 131.501C127.045 131.586 126.975 131.652 126.897 131.698C126.82 131.744 126.737 131.767 126.652 131.767Z" fill="white"/>
<path d="M208.133 257.838H195.7C195.532 257.838 195.371 257.745 195.253 257.578C195.134 257.412 195.067 257.186 195.067 256.951V221.773H167.632C167.465 221.773 167.304 221.679 167.185 221.513C167.067 221.346 167 221.12 167 220.885C167 220.65 167.067 220.424 167.185 220.258C167.304 220.091 167.465 219.998 167.632 219.998H195.7C195.867 219.998 196.028 220.091 196.147 220.258C196.266 220.424 196.332 220.65 196.332 220.885V256.063H207.501V159.208C207.504 158.974 207.572 158.751 207.69 158.586C207.808 158.42 207.967 158.325 208.133 158.321H257.058C257.226 158.321 257.387 158.414 257.505 158.58C257.624 158.747 257.691 158.973 257.691 159.208V192.079H267.81C267.977 192.079 268.138 192.172 268.257 192.339C268.375 192.505 268.442 192.731 268.442 192.966V217.673H279.421C279.589 217.673 279.75 217.766 279.868 217.932C279.987 218.099 280.053 218.325 280.053 218.56V253.738H288.579C288.746 253.738 288.907 253.832 289.026 253.998C289.144 254.164 289.211 254.39 289.211 254.626C289.211 254.861 289.144 255.087 289.026 255.253C288.907 255.419 288.746 255.513 288.579 255.513H279.421C279.253 255.513 279.092 255.419 278.974 255.253C278.855 255.087 278.789 254.861 278.789 254.626V219.447H267.835C267.668 219.443 267.509 219.348 267.391 219.182C267.273 219.017 267.206 218.794 267.202 218.56V193.854H257.084C256.916 193.854 256.755 193.76 256.636 193.594C256.518 193.427 256.451 193.202 256.451 192.966V160.095H208.766V256.933C208.767 257.051 208.752 257.168 208.721 257.278C208.69 257.388 208.644 257.488 208.585 257.572C208.526 257.656 208.456 257.723 208.378 257.769C208.301 257.815 208.217 257.838 208.133 257.838Z" fill="white"/>
<path d="M34.621 286.501H15.5469C15.3791 286.501 15.2183 286.408 15.0997 286.241C14.9811 286.075 14.9144 285.849 14.9144 285.614C14.9177 285.38 14.9853 285.157 15.1032 284.991C15.2212 284.826 15.3801 284.731 15.5469 284.726H33.9886V152.977C33.9886 152.742 34.0552 152.516 34.1738 152.349C34.2924 152.183 34.4533 152.089 34.621 152.089H62.1824V94.8141C62.1824 94.5787 62.249 94.353 62.3676 94.1866C62.4862 94.0201 62.6471 93.9266 62.8148 93.9266H77.1963C77.364 93.9266 77.5249 94.0201 77.6435 94.1866C77.7621 94.353 77.8287 94.5787 77.8287 94.8141C77.8287 95.0494 77.7621 95.2752 77.6435 95.4416C77.5249 95.608 77.364 95.7015 77.1963 95.7015H63.4472V152.977C63.4472 153.212 63.3806 153.438 63.262 153.604C63.1434 153.771 62.9825 153.864 62.8148 153.864H35.2534V285.614C35.2534 285.849 35.1868 286.075 35.0682 286.241C34.9496 286.408 34.7887 286.501 34.621 286.501Z" fill="white"/>
<path d="M366.774 159.384C366.606 159.384 366.445 159.291 366.327 159.124C366.208 158.958 366.142 158.732 366.142 158.497V31.877H272.845V117.888C272.845 118.123 272.779 118.349 272.66 118.515C272.541 118.682 272.38 118.775 272.213 118.775C272.045 118.775 271.884 118.682 271.766 118.515C271.647 118.349 271.58 118.123 271.58 117.888V30.9186C271.58 30.6832 271.647 30.4575 271.766 30.2911C271.884 30.1246 272.045 30.0311 272.213 30.0311H366.774C366.942 30.0311 367.103 30.1246 367.221 30.2911C367.34 30.4575 367.406 30.6832 367.406 30.9186V158.426C367.412 158.548 367.399 158.67 367.37 158.785C367.34 158.899 367.295 159.005 367.236 159.094C367.177 159.184 367.105 159.256 367.026 159.306C366.947 159.355 366.861 159.382 366.774 159.384Z" fill="white"/>
<path d="M272.213 166.626C272.045 166.626 271.884 166.532 271.766 166.366C271.647 166.199 271.58 165.974 271.58 165.738V127.312C271.58 127.077 271.647 126.851 271.766 126.685C271.884 126.518 272.045 126.425 272.213 126.425C272.38 126.425 272.541 126.518 272.66 126.685C272.779 126.851 272.845 127.077 272.845 127.312V165.667C272.852 165.79 272.841 165.913 272.812 166.029C272.784 166.145 272.738 166.251 272.679 166.341C272.619 166.431 272.547 166.503 272.467 166.552C272.387 166.601 272.3 166.626 272.213 166.626Z" fill="white"/>
<path d="M366.028 58.8194H307.667C307.499 58.8194 307.338 58.7259 307.22 58.5595C307.101 58.3931 307.034 58.1674 307.034 57.932V49.6433C307.034 49.4079 307.101 49.1822 307.22 49.0158C307.338 48.8494 307.499 48.7559 307.667 48.7559H366.028C366.195 48.7559 366.356 48.8494 366.475 49.0158C366.593 49.1822 366.66 49.4079 366.66 49.6433V57.932C366.66 58.1674 366.593 58.3931 366.475 58.5595C366.356 58.7259 366.195 58.8194 366.028 58.8194ZM308.299 57.0446H365.395V50.5307H308.299V57.0446Z" fill="white"/>
<path d="M366.028 80.5969H307.667C307.5 80.5924 307.341 80.4974 307.223 80.332C307.105 80.1665 307.038 79.9434 307.034 79.7095V71.4031C307.038 71.1691 307.105 70.946 307.223 70.7806C307.341 70.6151 307.5 70.5202 307.667 70.5156H366.028C366.195 70.5156 366.356 70.6091 366.475 70.7755C366.593 70.942 366.66 71.1677 366.66 71.4031V79.7095C366.66 79.9449 366.593 80.1706 366.475 80.337C366.356 80.5034 366.195 80.5969 366.028 80.5969ZM308.299 78.8221H365.395V72.2905H308.299V78.8221Z" fill="white"/>
<path d="M366.028 102.357H307.667C307.499 102.357 307.338 102.264 307.22 102.097C307.101 101.931 307.034 101.705 307.034 101.47V93.1811C307.034 92.9458 307.101 92.7201 307.22 92.5536C307.338 92.3872 307.499 92.2937 307.667 92.2937H366.028C366.195 92.2937 366.356 92.3872 366.475 92.5536C366.593 92.7201 366.66 92.9458 366.66 93.1811V101.47C366.66 101.705 366.593 101.931 366.475 102.097C366.356 102.264 366.195 102.357 366.028 102.357ZM308.299 100.582H365.395V94.0686H308.299V100.582Z" fill="white"/>
<path d="M366.028 124.135H307.667C307.5 124.13 307.341 124.035 307.223 123.87C307.105 123.705 307.038 123.481 307.034 123.248V114.888C307.034 114.652 307.101 114.427 307.22 114.26C307.338 114.094 307.499 114 307.667 114H366.028C366.195 114 366.356 114.094 366.475 114.26C366.593 114.427 366.66 114.652 366.66 114.888V123.176C366.667 123.299 366.656 123.422 366.627 123.538C366.599 123.654 366.553 123.76 366.494 123.85C366.434 123.941 366.362 124.012 366.282 124.061C366.202 124.11 366.115 124.135 366.028 124.135ZM308.299 122.36H365.395V115.846H308.299V122.36Z" fill="white"/>
<path d="M366.028 145.895H307.667C307.499 145.895 307.338 145.801 307.22 145.635C307.101 145.468 307.034 145.243 307.034 145.007V136.719C307.034 136.483 307.101 136.258 307.22 136.091C307.338 135.925 307.499 135.831 307.667 135.831H366.028C366.195 135.831 366.356 135.925 366.475 136.091C366.593 136.258 366.66 136.483 366.66 136.719V145.061C366.65 145.287 366.58 145.499 366.462 145.654C366.344 145.809 366.189 145.895 366.028 145.895ZM308.299 144.12H365.395V137.606H308.299V144.12Z" fill="white"/>
<path d="M191.692 153.154H151.52C151.352 153.154 151.191 153.061 151.072 152.894C150.954 152.728 150.887 152.502 150.887 152.267C150.887 152.032 150.954 151.806 151.072 151.639C151.191 151.473 151.352 151.38 151.52 151.38H191.034V139.736H74.1226V151.433H141.704C141.872 151.433 142.033 151.526 142.151 151.693C142.27 151.859 142.337 152.085 142.337 152.32C142.337 152.556 142.27 152.781 142.151 152.948C142.033 153.114 141.872 153.208 141.704 153.208H73.4016C73.2339 153.208 73.073 153.114 72.9544 152.948C72.8358 152.781 72.7692 152.556 72.7692 152.32V138.849C72.7692 138.614 72.8358 138.388 72.9544 138.221C73.073 138.055 73.2339 137.961 73.4016 137.961H191.603C191.771 137.961 191.932 138.055 192.05 138.221C192.169 138.388 192.235 138.614 192.235 138.849V152.32C192.228 152.526 192.17 152.722 192.07 152.875C191.971 153.027 191.837 153.126 191.692 153.154Z" fill="white"/>
<path d="M78.828 245.572C78.6613 245.568 78.5023 245.473 78.3844 245.307C78.2665 245.142 78.1988 244.919 78.1956 244.685V152.285C78.1988 152.051 78.2665 151.828 78.3844 151.662C78.5023 151.497 78.6613 151.402 78.828 151.397C78.9957 151.397 79.1566 151.491 79.2752 151.657C79.3938 151.824 79.4604 152.049 79.4604 152.285V244.685C79.4604 244.92 79.3938 245.146 79.2752 245.312C79.1566 245.479 78.9957 245.572 78.828 245.572Z" fill="white"/>
<path d="M187.594 176.103C187.426 176.103 187.265 176.01 187.147 175.844C187.028 175.677 186.961 175.451 186.961 175.216V152.977C186.961 152.741 187.028 152.516 187.147 152.349C187.265 152.183 187.426 152.089 187.594 152.089C187.761 152.089 187.922 152.183 188.041 152.349C188.16 152.516 188.226 152.741 188.226 152.977V175.234C188.223 175.466 188.155 175.687 188.037 175.85C187.918 176.012 187.759 176.104 187.594 176.103Z" fill="white"/>
<path d="M542.987 308.259H534.256C534.134 308.259 534.017 308.189 533.931 308.064C533.844 307.939 533.796 307.769 533.796 307.592V301.118H524.972C524.851 301.118 524.734 301.048 524.647 300.923C524.561 300.798 524.513 300.628 524.513 300.451V188.526H473.557V243.414C473.557 243.591 473.509 243.76 473.422 243.886C473.336 244.011 473.219 244.081 473.097 244.081H465.46C465.338 244.081 465.221 244.011 465.135 243.886C465.048 243.76 465 243.591 465 243.414C465 243.237 465.048 243.067 465.135 242.942C465.221 242.817 465.338 242.746 465.46 242.746H472.638V187.858C472.638 187.681 472.686 187.511 472.772 187.386C472.859 187.261 472.976 187.191 473.097 187.191H524.972C525.094 187.191 525.211 187.261 525.297 187.386C525.384 187.511 525.432 187.681 525.432 187.858V299.783H534.256C534.377 299.787 534.492 299.858 534.578 299.983C534.664 300.107 534.713 300.275 534.715 300.451V306.925H542.528V263.983C542.528 263.806 542.576 263.637 542.662 263.511C542.748 263.386 542.865 263.316 542.987 263.316H549.54C549.662 263.316 549.779 263.386 549.865 263.511C549.952 263.637 550 263.806 550 263.983C550 264.16 549.952 264.33 549.865 264.455C549.779 264.58 549.662 264.651 549.54 264.651H543.447V307.592C543.447 307.769 543.398 307.939 543.312 308.064C543.226 308.189 543.109 308.259 542.987 308.259Z" fill="white"/>
<path d="M64.358 301.25H1.30455C1.13682 301.25 0.975958 301.157 0.857354 300.99C0.73875 300.824 0.672119 300.598 0.672119 300.363C0.675357 300.129 0.743027 299.906 0.860936 299.74C0.978846 299.575 1.13783 299.48 1.30455 299.475H64.4212C64.589 299.475 64.7498 299.569 64.8684 299.735C64.987 299.902 65.0537 300.128 65.0537 300.363C65.0541 300.487 65.0359 300.61 65.0002 300.724C64.9646 300.838 64.9123 300.94 64.8467 301.024C64.7811 301.108 64.7037 301.171 64.6195 301.21C64.5353 301.249 64.4462 301.263 64.358 301.25Z" fill="white"/>
<path d="M82.3948 301.25H73.4016C73.2339 301.25 73.073 301.157 72.9544 300.99C72.8358 300.824 72.7692 300.598 72.7692 300.363C72.7724 300.129 72.8401 299.906 72.958 299.74C73.0759 299.575 73.2349 299.48 73.4016 299.475H82.4201C82.5878 299.475 82.7487 299.569 82.8673 299.735C82.9859 299.902 83.0525 300.128 83.0525 300.363C83.0526 300.482 83.0354 300.601 83.0021 300.711C82.9687 300.821 82.9198 300.92 82.8584 301.003C82.797 301.086 82.7242 301.151 82.6446 301.193C82.5649 301.236 82.4799 301.255 82.3948 301.25Z" fill="white"/>
</g>
</svg>
