<svg width="49" height="40" viewBox="0 0 49 40" fill="none" xmlns="http://www.w3.org/2000/svg">
<path d="M28.9283 11.2758L48.0217 22.3007C48.1397 22.3689 48.2378 22.467 48.3059 22.5852C48.3741 22.7035 48.41 22.8376 48.41 22.9741C48.41 23.1106 48.3741 23.2448 48.3059 23.363C48.2378 23.4812 48.1397 23.5793 48.0217 23.6475L21.0868 39.1362C20.7654 39.3211 20.4021 39.4203 20.0315 39.4245C19.6609 39.4287 19.2955 39.3376 18.97 39.16L0.403002 29.0245C0.282435 28.9584 0.181587 28.8613 0.110784 28.7432C0.0399817 28.6251 0.00176931 28.4903 5.9977e-05 28.3526C-0.00164935 28.2149 0.0332058 28.0791 0.101056 27.9593C0.168907 27.8395 0.267314 27.74 0.386202 27.6708L29.1915 10.9658" fill="#CB9BEA"/>
<path opacity="0.32" d="M25.3624 33.5782L17.6288 38.4278L16.317 37.711L24.724 32.7954L25.3624 33.5782Z" fill="url(#paint0_linear_14_559)"/>
<path opacity="0.32" d="M38.4931 25.1639C37.5523 24.405 36.4855 23.8172 35.5447 23.0597L27.8432 27.8714L30.5508 31.0068L39.1147 25.7111C38.9033 25.5217 38.7087 25.3379 38.4931 25.1639Z" fill="url(#paint1_linear_14_559)"/>
<path opacity="0.32" d="M19.7316 18.1077L3.19183 28.4325L6.61067 32.3914L24.5868 21.2739C22.7304 20.0141 21.3388 19.6648 19.7316 18.1077Z" fill="url(#paint2_linear_14_559)"/>
<path d="M21.5894 19.2242L24.241 20.5036C24.3411 20.5517 24.4262 20.6261 24.4872 20.719C24.5482 20.8118 24.5828 20.9196 24.5872 21.0306C24.5917 21.1417 24.5659 21.2519 24.5125 21.3494C24.4592 21.4468 24.3803 21.5279 24.2844 21.5838L17.997 25.2592C17.861 25.3389 17.6996 25.3628 17.5464 25.3259C17.3932 25.2891 17.2602 25.1943 17.1752 25.0614L15.6478 22.6766" fill="#56403D"/>
<path d="M8.39144 12.3391L29.547 0.12737C29.6922 0.0437257 29.8567 -0.00019962 30.0242 6.81981e-07C30.1916 0.000200984 30.3561 0.0445198 30.501 0.128511C30.646 0.212502 30.7663 0.333212 30.85 0.478531C30.9337 0.623849 30.9778 0.788666 30.9779 0.956447V13.6605C30.9779 13.8001 30.9413 13.9372 30.8718 14.0581C30.8022 14.179 30.7022 14.2794 30.5816 14.3493L8.03164 27.3957C7.95333 27.441 7.86444 27.4648 7.77402 27.4645C7.68359 27.4643 7.59483 27.4401 7.51677 27.3943C7.4387 27.3486 7.37411 27.283 7.32954 27.2041C7.28498 27.1253 7.26203 27.036 7.26303 26.9454V14.2946C7.26311 13.8981 7.36744 13.5085 7.56554 13.1652C7.76363 12.8219 8.04849 12.537 8.39144 12.3391Z" fill="#68E1FD"/>
<path d="M29.5443 1.08556L9.03406 12.9129C8.81497 13.0391 8.63296 13.221 8.50638 13.4402C8.3798 13.6594 8.31312 13.9082 8.31305 14.1614V23.6853C8.31295 23.7766 8.33684 23.8664 8.38232 23.9455C8.4278 24.0247 8.49327 24.0904 8.57215 24.1362C8.65103 24.182 8.74055 24.2062 8.8317 24.2063C8.92286 24.2064 9.01244 24.1825 9.09146 24.137L30.0105 12.1076C30.0886 12.0628 30.1536 11.998 30.1988 11.9199C30.244 11.8419 30.2679 11.7532 30.2681 11.6629V1.50641C30.2687 1.42124 30.2469 1.33742 30.2047 1.26345C30.1626 1.18948 30.1017 1.12801 30.0282 1.08526C29.9547 1.04252 29.8712 1.02003 29.7862 1.02008C29.7012 1.02013 29.6177 1.04272 29.5443 1.08556Z" fill="white"/>
<path d="M21.4477 18.6303C21.5009 18.3534 21.3477 18.091 21.1055 18.0443C20.8633 17.9976 20.6238 18.1842 20.5706 18.4611C20.5174 18.738 20.6706 19.0004 20.9128 19.0471C21.155 19.0939 21.3945 18.9073 21.4477 18.6303Z" fill="#AB643C"/>
<path d="M9.86796 13.4475C9.99143 13.4475 10.0915 13.3388 10.0915 13.2048C10.0915 13.0708 9.99143 12.9621 9.86796 12.9621C9.7445 12.9621 9.64441 13.0708 9.64441 13.2048C9.64441 13.3388 9.7445 13.4475 9.86796 13.4475Z" fill="#659FE4"/>
<path d="M10.5807 13.0926C10.7041 13.0926 10.8042 12.9839 10.8042 12.8499C10.8042 12.7158 10.7041 12.6072 10.5807 12.6072C10.4572 12.6072 10.3571 12.7158 10.3571 12.8499C10.3571 12.9839 10.4572 13.0926 10.5807 13.0926Z" fill="#C5E9FF"/>
<path d="M21.63 16.9783L25.4758 33.2596C25.5682 33.651 24.9662 33.8207 24.8738 33.4265L21.028 17.1438C20.9356 16.7524 21.5376 16.5827 21.63 16.9769V16.9783Z" fill="#F2F2F2"/>
<path d="M18.0207 18.9016L21.8665 35.183C21.9589 35.5743 21.3569 35.7441 21.2645 35.3499L17.4173 19.0714C17.3249 18.68 17.9269 18.5102 18.0193 18.9044L18.0207 18.9016Z" fill="#F2F2F2"/>
<path d="M22.0304 19.5455L18.4212 21.567C18.0697 21.7634 17.7547 21.2233 18.1061 21.0269L21.714 19.0068C22.0654 18.8104 22.3804 19.3505 22.029 19.5469L22.0304 19.5455Z" fill="#F2F2F2"/>
<path d="M22.4071 21.8097L18.9462 23.747C18.5948 23.9434 18.2798 23.4033 18.6312 23.2069L22.0921 21.2696C22.4435 21.0732 22.7585 21.6133 22.4071 21.8097Z" fill="#F2F2F2"/>
<path d="M22.8255 23.6432L19.3689 25.5777C19.0175 25.7741 18.7025 25.234 19.0539 25.0376L22.5105 23.1031C22.8619 22.9067 23.1769 23.4468 22.8255 23.6432Z" fill="#F2F2F2"/>
<path d="M23.3633 25.614L19.9389 27.5317C19.5874 27.7281 19.2724 27.188 19.6238 26.9916L23.0539 25.0739C23.4053 24.8775 23.7203 25.4176 23.3689 25.614H23.3633Z" fill="#F2F2F2"/>
<path d="M23.8406 27.4182L20.4091 29.3387C20.0577 29.5351 19.7427 28.995 20.0941 28.7986L23.5256 26.8781C23.877 26.6817 24.192 27.2218 23.8406 27.4182Z" fill="#F2F2F2"/>
<path d="M24.3643 29.5169L20.7564 31.5369C20.405 31.7333 20.09 31.1932 20.4414 30.9968L24.0492 28.9768C24.4007 28.7804 24.7157 29.3205 24.3643 29.5169Z" fill="#F2F2F2"/>
<path d="M34.653 15.8936C34.8001 16.0261 34.9726 16.1274 35.1599 16.1915C35.3471 16.2555 35.5454 16.281 35.7428 16.2663C36.3878 16.2018 35.7428 15.6793 35.7428 15.6793" fill="#BC5500"/>
<path d="M34.0398 14.2722C34.0398 14.2722 34.4511 14.624 34.5211 14.5904C34.591 14.5567 34.6526 14.1698 34.6526 14.1698L34.5267 14.0297" fill="#B7977E"/>
<path d="M36.4766 12.2169L36.0834 12.0432L35.6329 12.4845L36.4766 12.2169Z" fill="#B7977E"/>
<path d="M36.2434 13.8949L34.6516 14.1614C34.652 14.1656 34.652 14.1699 34.6516 14.1741V14.1909C34.6563 14.2131 34.6591 14.2356 34.66 14.2582H34.674C34.6837 14.259 34.6932 14.2619 34.7018 14.2666C34.7104 14.2713 34.7179 14.2778 34.7238 14.2856C34.7297 14.2934 34.734 14.3024 34.7362 14.3119C34.7385 14.3214 34.7387 14.3314 34.7369 14.341C34.7461 14.3508 34.7523 14.3629 34.755 14.376C34.7577 14.3891 34.7568 14.4027 34.7523 14.4153C34.7478 14.4278 34.74 14.439 34.7296 14.4474C34.7192 14.4558 34.7068 14.4612 34.6935 14.463C34.5727 14.4761 34.4504 14.4627 34.3351 14.4238C34.3253 14.4206 34.3163 14.4152 34.309 14.4079C34.3017 14.4005 34.2963 14.3916 34.2931 14.3817L34.2217 14.3606C34.2087 14.3731 34.1914 14.38 34.1734 14.38C34.1555 14.38 34.1382 14.3731 34.1251 14.3606C34.1118 14.3602 34.099 14.3553 34.0888 14.3466C34.0786 14.338 34.0717 14.3261 34.0691 14.3129V14.3045C34.0638 14.2974 34.06 14.2893 34.0579 14.2807L34.0663 14.2919C34.0582 14.2823 34.0529 14.2707 34.0509 14.2582H34.0439C34.0439 14.2582 34.0439 16.0819 35.269 16.0819C36.5878 16.0959 36.2434 13.8949 36.2434 13.8949Z" fill="#BC5500"/>
<path d="M34.0398 14.2653L33.8466 12.3659L36.0838 12.0432L36.2448 13.895L34.0398 14.2653Z" fill="#B7977E"/>
<path d="M33.7656 19.1825L33.7527 19.0938C33.7531 19.1237 33.7574 19.1535 33.7656 19.1825Z" fill="#06489E"/>
<path d="M40.681 19.0938L40.666 19.1938C40.6756 19.1612 40.6806 19.1276 40.681 19.0938Z" fill="#06489E"/>
<path d="M37.2233 17.959C35.3109 17.959 33.7596 18.4668 33.7596 19.0939H40.6869C40.6799 18.4682 39.1287 17.959 37.2233 17.959Z" fill="#68E1FD"/>
<path d="M37.2234 20.2286C39.0336 20.2286 40.519 19.7741 40.673 19.1934L40.687 19.0938H33.7527L33.7639 19.1821C33.9012 19.7671 35.3936 20.2286 37.2234 20.2286Z" fill="#68E1FD"/>
<path opacity="0.58" d="M37.2233 17.959C35.3109 17.959 33.7596 18.4668 33.7596 19.0939L33.7708 19.1823C33.9108 19.7672 35.4005 20.2288 37.2233 20.2288C39.0461 20.2288 40.5189 19.7743 40.6729 19.1935L40.6869 19.0939C40.6799 18.4682 39.1287 17.959 37.2233 17.959Z" fill="#173743"/>
<path d="M38.944 14.4968C38.944 14.4968 40.8746 15.316 40.974 15.2305C41.0813 15.1512 41.1946 15.0804 41.3128 15.0186V14.6188L39.1834 13.8178L38.944 13.9735V14.4968Z" fill="#653200"/>
<path d="M38.9439 13.9734L38.8879 12.6478L39.4227 12.4626L41.9455 13.4754L41.3113 14.6187L40.9165 14.7969L38.9439 13.9734Z" fill="#D9E021"/>
<path d="M39.7015 14.6931L39.1064 21.0479H39.5082C39.5082 21.0479 40.3483 14.7436 40.2545 14.773" fill="#653200"/>
<path d="M38.8879 12.6478L41.1027 13.6452L40.9165 14.7969L38.9439 13.9734L38.8879 12.6478Z" fill="#BFBF10"/>
<path d="M39.2226 12.7994V13.7225L39.3545 12.8584L39.2226 12.7994Z" fill="#77740E"/>
<path d="M39.8983 13.1037L39.8525 13.8564L39.9941 13.1458L39.8983 13.1037Z" fill="#77740E"/>
<path d="M40.5008 13.3745V14.0613L40.6284 13.4319L40.5008 13.3745Z" fill="#77740E"/>
<path d="M35.8863 20.6258L35.3417 15.7958L35.8863 15.72L36.5303 20.7983" fill="#ED7306"/>
<path d="M34.4332 14.439C34.4332 14.439 34.4332 16.2627 35.6582 16.2627C36.9813 16.2627 36.6382 14.0645 36.6382 14.0645L34.4332 14.439Z" fill="#ED7306"/>
<path d="M34.4331 14.4392L34.2399 12.5384L36.4772 12.2171L36.6382 14.0688L34.4331 14.4392Z" fill="#DBC2AD"/>
<path d="M34.4321 14.4391L34.0398 14.2723C34.0398 14.2723 34.1347 14.7839 34.2353 14.8947C34.3358 15.0054 34.4321 14.4391 34.4321 14.4391Z" fill="#BC5500"/>
<path d="M37.2233 20.2286C35.4033 20.2286 33.9081 19.7671 33.7709 19.1821C33.8619 19.8835 34.4835 24.6981 34.5073 24.7261C34.5073 24.7261 34.8251 26.0841 37.2233 26.0827C39.2631 26.0827 39.8455 25.0558 39.8455 25.0558L40.6729 19.1934C40.5119 19.7727 39.0265 20.2286 37.2233 20.2286Z" fill="#68E1FD"/>
<path d="M36.0306 12.2815L36.2234 13.5553L36.1466 12.2646L36.0306 12.2815Z" fill="#B7977E"/>
<path d="M35.5539 12.3489L35.6321 13.9412L35.2521 12.3938L35.5539 12.3489Z" fill="#B7977E"/>
<path d="M34.7689 12.4626L34.8401 13.7181L34.6124 12.485L34.7689 12.4626Z" fill="#B7977E"/>
<path d="M18.0741 14.1319C18.0741 14.1319 17.4552 14.3676 16.954 14.2512C16.4528 14.1347 16.6152 13.1078 16.8742 12.9339C17.1332 12.7599 17.1458 12.1497 17.1458 12.1497C17.1458 12.1497 17.0226 11.7976 17.1696 11.7597C17.3166 11.7218 17.577 11.698 17.6134 11.8088C17.6498 11.9196 17.8361 13.6634 17.8361 13.6634" fill="#173743"/>
<path d="M16.6837 13.1767C16.6454 13.274 16.6391 13.381 16.6655 13.4821L16.8922 13.5326C16.8922 13.5326 16.7522 13.6727 16.9215 13.8492C16.9215 13.8492 16.9019 13.6376 16.9887 13.59C17.0754 13.5424 17.0544 13.7819 17.0544 13.7819C17.0544 13.7819 17.4742 13.9136 17.5147 13.7287V13.3322L16.6837 13.1767Z" fill="#ED7306"/>
<path opacity="0.62" d="M18.5065 9.0005V13.8515C18.5065 13.8515 18.6367 14.2822 18.8075 14.1321C18.9783 13.982 18.8565 13.0673 19.0763 13.2693C19.2961 13.4713 19.1743 14.1798 19.3689 13.9357C19.5635 13.6916 19.5089 12.9832 19.6573 13.0561C19.8057 13.129 19.4697 14.7676 19.8463 14.473C20.2229 14.1784 20.0619 13.1066 20.1431 12.9228C20.2243 12.7391 20.3209 13.7182 20.5408 13.5092C20.7606 13.3002 20.727 12.0152 20.8376 12.6072C20.9482 13.1992 21.084 13.8697 21.175 13.4293C21.266 12.9888 20.9832 7.51349 20.9832 7.51349L18.5065 9.0005Z" fill="#68E1FD"/>
<path d="M20.6864 9.99072C21.0658 10.0342 21.5264 10.6921 21.5404 10.8633L21.2352 10.8002L21.1722 10.7609C21.046 10.4832 20.8825 10.2241 20.6864 9.99072Z" fill="#FBB5AD"/>
<path d="M18.4632 9.1266L18.8034 9.26688C18.8193 9.27479 18.8368 9.27891 18.8545 9.27891C18.8722 9.27891 18.8897 9.27479 18.9056 9.26688L21.3542 7.86405C21.3732 7.85332 21.3887 7.8374 21.399 7.81815C21.4093 7.7989 21.4139 7.77711 21.4123 7.75534C21.4107 7.73357 21.4029 7.7127 21.3899 7.69519C21.3769 7.67767 21.3592 7.66423 21.3388 7.65643L20.9888 7.51614C20.9728 7.50975 20.9555 7.50707 20.9383 7.50828C20.9211 7.50949 20.9044 7.51458 20.8894 7.52316L18.4506 8.92599C18.4334 8.93707 18.4194 8.95255 18.4102 8.97084C18.401 8.98913 18.3968 9.00955 18.3981 9.03001C18.3993 9.05046 18.4061 9.0702 18.4175 9.08718C18.429 9.10417 18.4447 9.11777 18.4632 9.1266Z" fill="#173743"/>
<path d="M19.9011 8.53894L21.5419 12.0544L21.7715 11.9591L20.0915 8.36218" fill="#173743"/>
<path d="M16.8167 12.7137C16.8211 12.7018 16.8267 12.6905 16.8335 12.68C16.8065 12.6545 16.7856 12.6232 16.7723 12.5885C16.7589 12.5537 16.7536 12.5165 16.7565 12.4794C16.7592 12.4557 16.7666 12.4327 16.7784 12.412C16.7902 12.3912 16.8061 12.3731 16.8251 12.3587C16.8079 12.3384 16.7974 12.3132 16.795 12.2867C16.7926 12.2601 16.7985 12.2335 16.8119 12.2104C16.8252 12.1874 16.8454 12.169 16.8696 12.1579C16.8938 12.1468 16.9208 12.1434 16.9469 12.1483C17.1331 12.1862 17.2563 12.4289 17.3571 12.5762C17.4313 12.6842 17.4971 12.7936 17.5657 12.9072C17.5769 12.7459 17.5993 12.5832 17.6119 12.4303C17.6245 12.2774 17.8597 12.269 17.8583 12.4303C17.8448 12.6735 17.8699 12.9174 17.9326 13.1527C17.9571 13.1646 17.9794 13.1808 17.9983 13.2004C18.6933 13.9312 19.5639 14.4707 20.5268 14.7674C20.5749 14.7835 20.6164 14.8149 20.645 14.857C20.6735 14.8991 20.6873 14.9494 20.6845 15.0001C20.6816 15.0509 20.6621 15.0993 20.6291 15.1378C20.596 15.1764 20.5512 15.203 20.5016 15.2135C20.4985 15.2602 20.4811 15.3048 20.4518 15.3412C20.4225 15.3776 20.3826 15.404 20.3378 15.4169C20.3308 15.4527 20.3163 15.4865 20.2953 15.5163C20.2743 15.546 20.2473 15.5709 20.216 15.5895L20.3784 15.661C20.643 15.7718 20.5268 16.2109 20.258 16.0973C19.2491 15.6764 18.363 15.0065 17.6819 14.1502C17.6035 14.0758 17.5265 14.0001 17.4509 13.9229C17.3319 13.8023 16.7509 13.2215 16.8993 12.976C16.8489 12.889 16.7747 12.8245 16.8167 12.7137Z" fill="#FBB5AD"/>
<path d="M20.7648 10.4958C20.7793 10.4857 20.7954 10.4781 20.8124 10.4734L20.8306 10.4579C20.9356 10.3766 21.0994 10.4818 21.1946 10.5351C21.3184 10.5995 21.4353 10.6766 21.5432 10.7651C21.592 10.8313 21.6267 10.9067 21.6454 10.9868C21.6846 11.0836 21.7266 11.179 21.7714 11.2674C21.8651 11.464 21.9708 11.6547 22.0878 11.8383C22.3169 12.1961 22.5871 12.5256 22.8929 12.8203C23.0329 12.9606 22.8173 13.1738 22.6758 13.0363L22.5736 12.9353C22.5527 12.9487 22.5284 12.9558 22.5036 12.9558C22.4788 12.9558 22.4546 12.9487 22.4336 12.9353C22.4084 12.9181 22.3845 12.8988 22.3622 12.8778L22.3286 12.8498C22.3196 12.8733 22.3049 12.8943 22.2858 12.9107C22.2667 12.9271 22.2438 12.9384 22.2192 12.9437C22.1946 12.949 22.169 12.9481 22.1449 12.941C22.1207 12.9339 22.0987 12.9208 22.0808 12.9031L21.9758 12.795C21.9427 12.7821 21.9156 12.7571 21.9002 12.7249C21.9002 12.7249 21.8848 12.9353 21.8806 12.9283C21.714 12.7516 21.5166 12.2634 21.35 11.9744C21.3513 11.9606 21.3478 11.9467 21.3402 11.9351C21.21 11.7261 21.2282 11.6012 21.2128 11.3628C21.2133 11.2249 21.2011 11.0873 21.1764 10.9517L20.9034 10.7413C20.8376 10.6908 20.7634 10.615 20.7802 10.5407C20.7729 10.5266 20.7677 10.5115 20.7648 10.4958Z" fill="#FBB5AD"/>
<path d="M19.7525 14.3425C20.7214 14.6231 20.8866 14.5178 21.3458 14.5038C21.805 14.4898 22.2908 13.8459 22.2908 13.8459C22.2908 13.8459 22.407 12.4066 23.261 13.5331C23.8994 14.3748 24.1444 16.8087 24.227 17.9871C23.9092 18.241 23.4864 18.335 23.0902 18.3939C22.8278 18.4375 22.5623 18.4595 22.2964 18.4598C22.1327 18.4585 21.9711 18.4232 21.8218 18.356L21.3682 16.2447C20.6379 16.2843 19.9156 16.0768 19.3171 15.6555L19.7525 14.3425Z" fill="#FE9881"/>
<path d="M21.8302 12.6141C21.8302 12.6141 21.2072 13.8121 21.8218 14.1446C22.4364 14.477 22.9208 13.9229 22.9712 13.7798C23.0216 13.6367 23.0146 12.5257 21.8302 12.6141Z" fill="#FBB5AD"/>
<path d="M21.784 12.4331C22.1004 12.2045 22.484 12.1989 22.855 12.283C23.169 12.34 23.4582 12.4917 23.6838 12.7179C23.7635 12.6636 23.8564 12.6321 23.9526 12.6267C24.0688 12.6181 24.1848 12.6465 24.2839 12.708C24.383 12.7695 24.4601 12.8609 24.5042 12.969C24.5403 13.0701 24.5414 13.1804 24.5074 13.2821C24.4734 13.3839 24.4062 13.4713 24.3166 13.5301C24.176 13.6039 24.0119 13.6191 23.8602 13.5722V13.6003C23.8392 13.8261 24.0534 13.9412 24.1402 14.132C24.1814 14.2194 24.1931 14.3178 24.1738 14.4125C24.1528 14.5065 24.0548 14.6089 24.0576 14.7043C24.0738 14.7786 24.1084 14.8477 24.1584 14.9049C24.2024 14.9701 24.2386 15.0403 24.2662 15.1139C23.8182 15.3552 23.2582 15.3538 22.7724 15.2542C22.2367 15.1606 21.7456 14.8959 21.3724 14.4995C21.394 14.4502 21.426 14.4062 21.4662 14.3704C21.55 14.3141 21.6396 14.2671 21.7336 14.2302C21.8666 14.153 21.7336 13.9215 21.7336 13.7953C21.742 13.5806 21.8988 13.4909 22.0752 13.4165C22.2026 13.3632 22.2152 13.2846 22.2152 13.1528C22.2265 13.0492 22.205 12.9446 22.1536 12.854C22.1151 12.8592 22.0759 12.8508 22.043 12.8301C21.9763 12.7899 21.9048 12.7583 21.8302 12.7361C21.7933 12.7228 21.763 12.6955 21.7457 12.6602C21.7285 12.6248 21.7256 12.5842 21.7378 12.5468C21.7351 12.5254 21.7379 12.5038 21.746 12.4839C21.7541 12.464 21.7672 12.4465 21.784 12.4331Z" fill="#56403D"/>
<path d="M22.2572 12.9128C22.055 12.8694 21.8593 12.8001 21.6748 12.7066C21.6748 12.687 21.616 11.9421 22.9348 12.2002C24.2536 12.4583 23.6348 14.0421 23.6348 14.0421" fill="#56403D"/>
<path d="M23.6978 29.3837C23.8196 29.3416 23.996 29.3093 24.0814 29.2013C24.1505 29.0725 24.1784 28.9256 24.1612 28.7804C24.1612 28.6467 24.1612 28.513 24.1612 28.3792C24.1687 28.3733 24.1748 28.3659 24.1792 28.3574C24.1835 28.349 24.186 28.3396 24.1864 28.3301C24.1938 28.2213 24.1938 28.1121 24.1864 28.0033L24.7352 27.95C24.7352 27.95 24.9788 28.8899 24.9634 28.9965C24.948 29.1031 24.4258 29.8171 24.1612 29.8648C23.8966 29.9125 23.1588 29.6811 23.0972 29.5843V29.5744C23.2946 29.5169 23.5032 29.4538 23.6978 29.3837Z" fill="#FBB5AD"/>
<path d="M19.908 27.4253C20.0886 27.3903 20.8376 27.5109 20.8376 27.5109C20.8376 27.5109 20.9426 26.8993 20.9286 26.8684L21.7084 26.9231C21.7084 26.9231 21.8064 28.0608 21.8064 28.2095C21.8064 28.4901 21.4662 28.5715 21.3864 28.5602C21.3328 28.5421 21.2804 28.5205 21.2296 28.4957C21.2582 28.3539 21.2732 28.2097 21.2744 28.065C21.2744 27.9991 21.2562 27.9528 21.1946 27.9247C21.0798 27.8799 20.8656 27.943 20.748 27.9654C20.608 27.9921 20.468 28.0243 20.328 28.0496C20.0214 27.8869 19.768 27.7312 19.74 27.668C19.6938 27.5165 19.6294 27.48 19.908 27.4253Z" fill="#FBB5AD"/>
<path d="M19.6462 27.4744L19.6644 27.4534C19.7246 27.3959 19.8814 27.4001 19.9542 27.3987C20.2517 27.4007 20.5479 27.4389 20.8362 27.5123C20.8362 27.5123 20.1362 27.4155 20.1012 27.5432C20.0898 27.594 20.0902 27.6469 20.1026 27.6975C20.115 27.7481 20.139 27.7952 20.1726 27.835C20.468 28.0973 20.9286 27.8083 21.217 27.6835L21.7504 27.4534L21.784 27.8883C21.784 27.8883 21.8204 28.4256 21.784 28.4873C21.7476 28.549 21.4312 28.7145 21.364 28.6823C21.2968 28.65 21.084 28.5238 21.084 28.5238L21.126 27.9977C21.126 27.9977 20.685 28.1885 20.4764 28.138C20.3266 28.0931 19.4628 27.7213 19.6462 27.4744Z" fill="#56403D"/>
<path d="M24.4539 29.0162C24.4539 29.0162 24.1739 29.9154 24.0633 29.9729C23.9527 30.0304 22.8565 29.6783 23.0217 29.4693C23.1267 29.329 23.7917 29.336 23.8505 29.3192C23.8505 29.3192 23.5005 29.4342 23.5005 29.4903C23.5005 29.5464 23.9415 29.7498 23.9639 29.7092C23.9863 29.6685 24.4665 28.8801 24.4665 28.8801L24.9173 28.7216L25.2883 29.5478L24.9733 29.6881C24.9733 29.6881 24.8767 29.9392 24.8445 29.9392C24.737 29.7923 24.6406 29.6376 24.5561 29.4763C24.5354 29.5903 24.4987 29.7009 24.4469 29.8045C24.4021 29.8368 24.0353 30.1384 23.8687 29.907L24.1767 29.5591" fill="#56403D"/>
<path d="M22.162 27.2302C21.462 27.3621 20.734 27.2415 20.2132 26.7673C20.202 25.61 20.0942 24.5649 20.1278 23.4089C20.1824 21.5207 20.4568 19.669 21.7798 18.196L24.1864 17.8256C25.1665 19.6872 25.3625 28.2066 25.3625 28.2066C25.3625 28.2066 24.1458 28.9936 23.2036 28.6148L22.8424 21.5165C22.8424 21.5165 22.2054 22.2726 22.0892 22.6963C22.0052 23.0007 22.1774 25.805 22.162 27.2302Z" fill="#999A1C"/>
<path d="M15.1157 10.7148C15.1157 10.7148 15.3957 11.8932 14.1539 12.1555C14.1539 12.1555 15.2641 12.2747 15.2417 13.3718C15.2417 13.3718 15.1017 12.3266 16.1714 12.1555C16.1714 12.1555 15.1031 12.0433 15.1157 10.7148Z" fill="#F9AB2F"/>
<path d="M12.5173 14.1964C12.5173 14.1964 12.8855 15.7634 11.2363 16.1141C11.2363 16.1141 12.7147 16.2712 12.6853 17.733C12.6853 17.733 12.5019 16.3413 13.9216 16.1141C13.9216 16.1141 12.4935 15.964 12.5173 14.1964Z" fill="#F9AB2F"/>
<path d="M25.5361 6.08386C25.5361 6.08386 25.8161 7.24541 24.5869 7.50494C24.5869 7.50494 25.6817 7.62137 25.6607 8.70436C25.6607 8.70436 25.5207 7.67328 26.5777 7.50494C26.5833 7.50634 25.5193 7.39832 25.5361 6.08386Z" fill="#F9AB2F"/>
<defs>
<linearGradient id="paint0_linear_14_559" x1="16.9834" y1="38.3647" x2="23.6157" y2="33.7058" gradientUnits="userSpaceOnUse">
<stop stop-color="white" stop-opacity="0"/>
<stop offset="0.98" stop-color="#0800BF"/>
</linearGradient>
<linearGradient id="paint1_linear_14_559" x1="29.6072" y1="29.517" x2="36.4834" y2="24.686" gradientUnits="userSpaceOnUse">
<stop stop-color="white" stop-opacity="0"/>
<stop offset="0.98" stop-color="#0800BF"/>
</linearGradient>
<linearGradient id="paint2_linear_14_559" x1="5.57466" y1="30.7192" x2="14.2579" y2="24.6179" gradientUnits="userSpaceOnUse">
<stop stop-color="white" stop-opacity="0"/>
<stop offset="0.98" stop-color="#0800BF"/>
</linearGradient>
</defs>
</svg>
