<?xml version="1.0" encoding="UTF-8"?>
<svg id="Calque_2" data-name="Calque 2" xmlns="http://www.w3.org/2000/svg" viewBox="0 0 1024 930">
  <defs>
    <style>
      .cls-1 {
        fill: #f98468;
      }

      .cls-2 {
        fill: #fc5859;
      }

      .cls-3 {
        fill: #fcfcfc;
      }

      .cls-4 {
        fill: #e3eef8;
      }

      .cls-5 {
        fill: #fccae1;
      }

      .cls-6 {
        fill: #fbdfbf;
      }

      .cls-7 {
        fill: #fc9fa3;
      }

      .cls-8 {
        fill: #ef4347;
      }

      .cls-9 {
        fill: #eff3fb;
      }

      .cls-10 {
        fill: #beddf5;
      }

      .cls-11 {
        fill: #df6d6b;
      }

      .cls-12 {
        fill: #d6dfe5;
      }

      .cls-13 {
        fill: #6da5e8;
      }

      .cls-14 {
        fill: #3a2611;
      }

      .cls-15 {
        fill: #575c59;
      }

      .cls-16 {
        fill: #5f94de;
      }
    </style>
  </defs>
  <g id="Calque_1-2" data-name="Calque 1">
    <g>
      <path class="cls-3" d="M.12,118.06C.12,79.92,.16,41.78,.05,3.64,.04,.78,.47,0,3.58,0,342.5,.1,681.43,.1,1020.36,0c3.17,0,3.5,.87,3.5,3.66-.09,58.46-.07,116.92-.07,175.38-4.72-1.14-8-4.72-12-7.08-3.23-7.57-8.74-14.08-10.3-22.41,1.69-4.59,6.33-6.03,9.65-8.83,2.22-1.87,3.02-3.09,.73-5.4-3.97-4-7.78-8.17-11.65-12.27-2.22-2.35-3.86-.79-5.39,.84-3.3,3.51-6.49,7.1-9.78,10.61-7.21,7.68-7.24,7.63-16.62,3.05-3.36-1.64-5-4.01-4.88-7.86,.19-5.82,0-11.65,.06-17.47,.03-2.45-.07-4.72-2.89-5.66-2.93-.98-5.37,.02-7.04,2.31-1.34,1.84-2.72,3.41-5,3.74-3.87,.55-4.68,3.2-4.7,6.45-.03,4.33-.31,8.68,.07,12.97,.36,4.04-1.29,6.11-4.87,7.48-4.82,1.85-9.25,4.47-13.43,7.52-4.19-.1-6.88-2.94-9.8-5.36-7.13-5.91-14.12-12.02-21.43-17.71-10.72-8.36-22.5-15.11-34-22.3-11.38-7.12-22.51-14.65-34.6-20.49-28.52-13.8-58.14-24.65-89.03-31.9-.96-.22-1.98-.14-2.98-.19,.49-4.92,.98-9.84,1.47-14.76,1.8,.27,3.59,.54,5.38,.82,9.21,1.48,10.94-.44,8.41-9.3-1.7-6.26-6.81-2.9-10.41-3.56-2.68-.49-3.97,1.15-3.58,3.92-1.28,2.1-.85,4.46-1,6.73-2.49,3.01-3.05,6.87-4.48,10.34-2.63,6.37-3.17,6.54-8.31,1.72-.85-.79-1.59-1.73-2.53-2.38-1.52-1.05-3.15-1.98-4.98-.53-1.62-.33-3.25-1-4.85-.94-11.01,.44-21.66-2.54-32.53-3.48-17.47-1.52-34.99-2.24-52.47-3.43-13.72-.93-27.47,1.06-41.19,1.58-17.23,.65-34.41,1.03-51.54,3.22-12.94,1.65-26.06,2.11-38.9,4.3-27.89,4.75-55.34,11.49-82.38,19.87-16.51,5.12-31.69,13.34-47.3,20.56-2.43,1.12-4.71,2.62-4.74,5.82-4.03,.28-7.76,1.82-11.64,2.73-8.83,2.07-13.17,7.77-13.61,16.67-8.05-3.08-15.94-1.84-23.77,.91,2.49-8.77,3.28-17.69,1.09-26.57-3.14-12.72-12.95-19.84-25.58-19.07-13.65,.84-22.02,8.76-23.54,22.45-.44,3.95-.65,7.94-.74,11.92-.26,12.47-.4,24.93-.58,37.4-5.57-.58-10-4.62-11.52-10.36-.55-2.08-.13-4.74-3.01-5.6-.74-10.44-1.38-20.89-2.24-31.32-1.17-14.21-12.1-24.76-25.33-24.65-13.67,.12-24.19,10.21-24.41,25.02-.31,20.61-1.11,41.26,.71,61.86,.18,2.08-.48,3.53-2.05,4.74-10.7,8.26-15.09,20.27-19.3,32.4-1.1,3.17-.26,5.56,2.48,7.31,3.92,2.51,7.91,4.98,12.54,5.88,4.83,.93,6.61,3.29,6.56,8.5-.29,27.47-.13,54.95-.16,82.43,0,1.63,.42,3.35-.68,4.84-5.34,1.63-10.34,4.12-15.54,6.1-13.48,5.14-25.4,13.06-37.82,20.15-5.23,2.98-9.9,7.1-15.88,8.74-3.9-9.47-6.69-19.48-12.88-27.85-3.37-4.55-4.12-9.47-4.1-14.98,.12-54.97,.02-109.94,.13-164.9,0-4.55-.97-6.49-6.06-6.45-33.64,.23-67.29,.16-100.94,.19Z"/>
      <path class="cls-10" d="M.12,803.84c0-61.65,0-123.29,0-184.94,6.4,.05,12.5,2.9,18.99,2,1,.29,1.98,1.5,3,.04,1.13,.2,2.29,.31,3.4,.6,6.83,1.8,13.66,3.65,20.48,5.48,.68,1.26,1.92,1.78,3.11,2.38,10.82,5.46,21.2,11.46,30.73,19.16,15.42,12.47,29.78,25.84,41.58,41.83,1.17,1.58,2.33,3.3,4.56,3.58,.05,1.17,.26,2.25,.97,3.28,3.49,5.03,6.16,10.55,9.87,15.5,3.65,4.88,5.82,10.85,9.32,15.86,3.29,4.71,3.88,10.49,7.69,15.16,3.29,4.03,5.1,9.56,7.18,14.65,8.3,20.31,14.96,41.09,19.27,62.6,1.32,6.59,2.53,13.2,3.79,19.79,.08,7.64,1.23,15.2,1.11,22.88-.35,22.34-6.71,42.12-23.32,57.87-.99,.94-2.91,1.77-2.15,3.51,.63,1.42,2.39,.73,3.65,.75,33.95,.5,67.91,.39,101.86,.66,65.93,.52,131.87,.72,197.82-.41,61.29-1.05,122.62-.24,183.93-.21,4.8,0,9.59,1.79,14.36,.84,6.79-1.35,13.6-.69,20.39-.85,2.84-.07,5.63-.21,8.34-1.08,1.56,.13,1.24,1.75,2,2.52,.28,.83,.56,1.67,.85,2.5-229.42,0-458.85,0-688.27-.04-1.93,0-5.31,1.51-4.5-2.96,9.99,0,19.98,.02,29.97,.03,10.16,0,20.31,0,30.47,0,9.99,0,19.98,.12,29.97-.03,9.83-.16,19.73,.74,29.47-1.12-5.33-2-10.32-4.18-15.26-6.56-20.51-9.88-37.06-24.97-52.56-41.1-13.9-14.46-25.92-30.59-36.78-47.47-5.54-8.61-10.21-17.79-15.27-26.71Zm150.81-59.27l-1.39-.1c-1.81,10.01-3.92,19.99-5.37,30.05-1.86,12.92-3.32,25.92-6.39,38.62-2.49,10.29-5.68,20.41-8.52,30.62-.91,3.27-3.75,4.88-6.34,5.73-2.8,.91-3.54-2.59-4.6-4.39-4.56-7.72-8.87-15.58-13.14-23.46-7.01-12.96-13.71-26.09-20.91-38.94-9.93-17.73-20.01-35.38-30.46-52.8-2.99-4.99-5.29-10.61-9.88-14.85-.71,1.11-.31,1.85,.09,2.55,3.84,6.77,7.63,13.56,11.54,20.29,6.92,11.9,14.13,23.62,20.82,35.65,13.74,24.73,27.1,49.67,40.9,74.36,2.54,4.54,.16,4.7-2.98,4.93-11.23,.81-22.14-.98-32.84-4.32-12.27-3.83-23.5-9.98-35.03-15.46-1.49-.71-2.89-2.05-5.02-1.57,.79,1.78,2.18,2.49,3.46,3.08,10.52,4.87,21.06,9.7,31.65,14.43,12.6,5.63,25.81,6.87,39.36,5,2.95-.41,4.57,.48,5.93,3.12,9.12,17.74,15.64,36.57,23.39,54.89,1.94,4.59,2.9,9.88,7.25,13.61,.73-1.51,.23-2.37-.14-3.29-3.46-8.45-6.78-16.95-10.36-25.35-5.96-14-10.89-28.45-18.62-41.65-1.17-1.99-1.22-3.12,1.38-3.94,3-.94,4.52-3.35,5.89-6.27,2.56-5.48,3.7-11.34,5.51-17.01,3.79-11.83,6.41-23.9,8.15-36.24,1.36-9.65,2.24-19.36,3.75-28.99,.96-6.1,1.95-12.2,2.92-18.3Zm-114.57-41.99c.62,4.23,2.88,6.46,4.97,8.78-.18-3.39-1.84-5.95-4.97-8.78Zm-1.01-2.08c.11-.27,.38-.61,.3-.8-.08-.2-.5-.25-.77-.37-.12,.27-.38,.6-.3,.8,.08,.2,.5,.26,.77,.38Zm4.31,129.07c-.27-.12-.54-.23-.81-.35-.12,.27-.38,.6-.3,.79,.08,.19,.5,.25,.77,.37,.12-.27,.23-.54,.35-.81Z"/>
      <path class="cls-9" d="M1023.79,606.9v46.99c-2.54,.38-3.88-1.45-5.44-2.93-8.78-8.33-18.58-15.41-28.13-22.8-3.4-2.63-6.9-2.94-10.29,.23-5.2,4.88-10.8,9.37-15.6,14.61-13.09,14.29-22.86,30.8-30.17,48.65-5.62,13.73-10.9,27.6-14.96,41.96-3.82,13.53-6.28,27.09-5.2,41.08,.23,3.01-.91,7.05,2.89,9.17-.5,3.26-3.8,3.89-5.65,5.9-9.37,10.14-18.94,20.08-28.44,30.1,.29-13.62,.67-27.24,.84-40.87,.47-37.56-1.94-74.77-14.01-110.75,5.79-3.27,4.29-8.78,4.13-13.8-.1-3.13-.84-6.25-.84-9.37,0-17.08-.1-34.14-2-51.17-1.72-15.45-4.37-30.74-6.58-46.11-1.29-9-4.3-17.7-4.52-26.87,8.64,4.84,17.93,8.28,26.89,12.44,13.5,6.28,26.73,13.17,39.96,20.02,15.87,8.21,32.12,15.7,47.4,25.08,13.22,8.12,27.7,14.08,40.04,23.79,2.64,2.08,5.79,4.49,9.66,4.65Z"/>
      <path class="cls-10" d="M882.81,819.86c9.5-10.01,19.07-19.96,28.44-30.1,1.85-2,5.15-2.63,5.65-5.9,.76-.29,1.66-.42,2.25-.91,6.32-5.32,13.19-10.02,18.16-16.84,5.3-7.27,11.15-7.9,18.19-2.5,1.74,1.34,3.6,3.26,6.25,1.65,1.18-.71,2.71-2.48,3.66-.36,.95,2.11-1.3,2.45-2.8,3.18-5.09,2.48-10.11,4.72-11.64,11.34-2.19,9.47-5.19,18.76-7.93,28.1-1.87,6.37-1.68,12.93-.95,19.29,.42,3.7-.16,7.8,1.93,11.92,1.14-1.55,2.12-2.51,2.65-3.68,3.79-8.36,9.26-15.73,13.85-23.61,1.96-3.37,4.24-6.69,8.17-7.42,2.8-.52,4.42-1.87,5.98-3.89,5.64-7.28,13.01-12.71,20-18.54,2.39-2,4.79-2.21,7.67-.18,2.96,2.08,6.41,3.53,9.77,4.97,2,.86,4.19,.94,6.16-.53,2.3-1.71,.73-3.63,.29-5.42-.87-3.54-1.59-7.16-2.95-10.51-1.63-4.01-.18-6.63,2.74-9.13,1.91-1.63,3.16-2.78,3.57,1.04,.22,2.04,.39,4.29,1.9,6.01v62.98c-8,16.26-17.33,31.8-27.12,47.98h27.12v26.99c-8.44,8.16-18.7,13.81-28.79,19.7,.19,.43,.38,.86,.57,1.29h28.23c.92,3.44-1.32,3.02-3.5,3.02-62.48-.03-124.96-.02-187.44-.02h-62.98c0-.82,0-1.65,0-2.47,.75-.16,1.5-.32,2.24-.49,21.92,0,43.85-.02,65.76-.96,2.87,1.86,6.05,.54,9.07,.9,.15,.08,.29,.21,.44,.23,15.07,1.82,30.18,1.07,45.27,.53,3.45-.12,3.66-2.96,2.45-5.56-1.61-3.45-3.99-6.44-6.21-9.53-3.62-5.02-6.63-10.61-6.73-16.87-.32-18.77-2-37.55-.42-56.33,.54-6.46-.47-12.99,1.08-19.38Zm68.66,79.34c12.94-13.29,20.37-29.7,26.6-46.8-8.42,15.86-15.74,32.33-26.6,46.8Zm28.38-50.93c4.3-8.37,7.79-17.03,9.99-26.17,.23-.94,1.58-2.41-.21-2.93-1.98-.57-1.96,1.51-2.2,2.6-1.4,6.31-3.47,12.4-5.55,18.5-.88,2.59-2.66,4.92-2.02,8.01Zm-46.73,68.58c7.87-3.2,15.74-11.03,17.16-16.92-6.2,6.2-11.3,11.97-17.16,16.92Zm-13.84,5.51c.1,.51,.2,1.02,.3,1.52,3.51-1.1,7.04-2.15,10.53-3.32,.76-.25,1.61-.98,1.21-1.88-.55-1.24-1.63-.7-2.54-.32-3.17,1.33-6.34,2.67-9.51,4.01Z"/>
      <path class="cls-3" d="M1023.79,606.9c-3.88-.16-7.02-2.57-9.66-4.65-12.34-9.71-26.82-15.67-40.04-23.79-15.28-9.38-31.52-16.87-47.4-25.08-13.23-6.85-26.46-13.74-39.96-20.02-8.95-4.16-18.24-7.6-26.89-12.44-2.98-9.07-3.35-18.55-3.87-27.92-1.02-18.1,.36-36.13,3.03-54.05,5.55-.35,11.07,.45,16.66,.33,15.54-.33,31.01-1.43,46.49-2.39,.16,3.32,.56,6.64,.44,9.95-.45,12.55-1.27,25.03-10.83,34.76-2.42,2.47-.37,3.84,1.34,5.16,7.58,5.86,17.49,4.05,24.78-4.03,4.39-4.86,5.43-10.81,6.24-17.57,2.76,3.36-.21,8.25,4.22,9.76,3.79,1.29,6.96-1.06,10.43-2.72,.79,4.87-1.3,9.11-1.22,13.54,.04,2.27,.5,3.92,3.27,3.89,15.88-.19,27.22-17.2,21.14-31.74,3.81,.57,7.22-1.06,10.76-1.99,10.35,1.68,20.71,3.36,31.06,5.03v145.95Z"/>
      <path class="cls-4" d="M1023.79,767.85c-1.51-1.72-1.68-3.97-1.9-6.01-.41-3.83-1.66-2.67-3.57-1.04-2.93,2.5-4.37,5.12-2.74,9.13,1.36,3.35,2.09,6.97,2.95,10.51,.44,1.79,2.01,3.71-.29,5.42-1.97,1.46-4.16,1.38-6.16,.53-3.36-1.44-6.81-2.89-9.77-4.97-2.88-2.03-5.27-1.82-7.67,.18-6.98,5.84-14.36,11.26-20,18.54-1.56,2.02-3.18,3.36-5.98,3.89-3.93,.73-6.2,4.05-8.17,7.42-4.59,7.89-10.06,15.25-13.85,23.61-.53,1.17-1.51,2.13-2.65,3.68-2.09-4.12-1.51-8.22-1.93-11.92-.73-6.36-.92-12.92,.95-19.29,2.75-9.34,5.74-18.63,7.93-28.1,1.53-6.62,6.55-8.86,11.64-11.34,1.5-.73,3.75-1.07,2.8-3.18-.95-2.12-2.48-.35-3.66,.36-2.65,1.61-4.51-.31-6.25-1.65-7.04-5.41-12.89-4.77-18.19,2.5-4.97,6.82-11.84,11.52-18.16,16.84-.59,.5-1.49,.62-2.25,.91-3.8-2.12-2.66-6.16-2.89-9.17-1.08-13.99,1.38-27.55,5.2-41.08,4.06-14.36,9.33-28.23,14.96-41.96,7.31-17.85,17.08-34.36,30.17-48.65,4.8-5.24,10.4-9.74,15.6-14.61,3.39-3.18,6.88-2.87,10.29-.23,9.55,7.39,19.34,14.47,28.13,22.8,1.56,1.48,2.9,3.31,5.44,2.93v56.98c-5.99,2.8-11.98,5.61-17.98,8.4-2.74,1.27-3.44,3.09-2.38,6.06,1.73,4.82,3.02,9.81,4.62,14.68,.37,1.14,.58,2.56,2.56,2.44,3.13-.19,2.6,1.1,.8,2.6-2.05,1.71-2.31,3.81,.38,4.46,3.22,.78,2.54,1.71,1.48,3.96-1.07,2.27-1.16,5.94,1.29,6.59,2.48,.66,4.35-2.3,5.17-4.97,.09-.31,.05-.66,.05-.99,.05-2.67,1.7-3.36,4.01-3.24v16.99Zm-24.98-38.98c.07-5.21-.5-5.78-5.22-3.27-8.34,4.43-16.13,9.77-23.56,15.61-4.25,3.35-8.2,7.03-10.86,11.91-1.24,2.28-1.7,4.05,.46,6.17,2.17,2.13,3.33,.75,4.94-.58,8.93-7.34,18.39-13.95,27.95-20.44,3.07-2.08,6.89-4.48,6.28-9.4Z"/>
      <path class="cls-3" d="M.12,494.94v-204.93c6.16,2.78,12.58,3.65,19.3,3.02,5.11-.48,10.14-1.33,15.18-2.31,12.2-2.37,24.25-4.29,36.81-.99,23.43,6.15,38.07,20.42,43.48,44.06,.69,3,.31,5.65-2.78,7.22-7.78,2.7-13.09,8.76-19.03,13.97-6.81,4.18-12.68,9.53-18.47,14.97-9.79,9.22-18.4,19.49-26.92,29.87-12.26,14.92-21.67,31.51-29.72,48.99-6.92,15.02-11.48,30.92-17.85,46.13Z"/>
      <path class="cls-3" d="M19.12,620.9c-6.5,.9-12.6-1.95-18.99-2v-98.97c3.77-4.03,3.31-9.45,4.55-14.27,9.13-35.57,23.48-68.66,45.23-98.49,12.98-17.81,28.53-33,45.2-47.19,1.05-.36,2.16-1.53,3.2-.57,1.32,1.21-.38,1.99-.85,2.9-.45,.87-1.04,1.7-1.67,2.46-7.55,9.07-12.68,19.22-14.94,30.93-.82,4.26-.89,8.98-3.93,12.63-3.71,4.44-6.79,9.3-9.95,14.13-11.42,17.43-19.66,36.24-25.61,56.15-7.17,23.94-12.12,48.35-16.45,72.94-2.18,12.39-3.16,24.88-4.59,37.33-.58,5.05-1.48,10.33-.87,15.29,.7,5.7,.77,11.17-.3,16.73Z"/>
      <path class="cls-3" d="M.12,803.84c5.06,8.92,9.73,18.09,15.27,26.71,10.86,16.88,22.88,33.01,36.78,47.47,15.51,16.13,32.05,31.22,52.56,41.1,4.93,2.38,9.93,4.56,15.26,6.56-9.74,1.86-19.65,.96-29.47,1.12-9.99,.16-19.98,.04-29.97,.03-10.16,0-20.31,0-30.47,0-9.99,0-19.98-.02-29.97-.03,0-40.99,0-81.97,0-122.96Z"/>
      <path class="cls-10" d="M112.12,341c3.08-1.58,3.46-4.23,2.78-7.22-5.42-23.64-20.06-37.91-43.48-44.06-12.55-3.29-24.61-1.38-36.81,.99-5.04,.98-10.07,1.83-15.18,2.31-6.72,.63-13.14-.24-19.3-3.02v-4c10.51,3.9,20.95,3.75,31.36-.43,2.92-1.17,5.13-3.08,5.98-6.15,.5-1.79,.99-3.17,3.23-2.61,2.1,1.3,4.45,1.25,6.78,1.18,6.33-.19,12.58,.71,18.8,1.64,12.16,1.81,23.2,6.53,33.6,14.09,.09-1.35,.19-2.11,.19-2.87,.02-53.96-.02-107.92,.14-161.88,.01-4.2-1.49-4.92-5.2-4.9-22.82,.13-45.63,.05-68.45,.09-1.64,0-3.29,.32-4.91,.6-1.39,.23-2.52,.8-2.55,2.52-.07,4.46-.29,8.92-.27,13.38,.06,14.29,.91,28.57-.47,42.86-.48,4.93-.08,9.97,.13,14.95,.14,3.29,1.68,4.85,5.42,4.63,5.62-.33,11.19,1.26,16.78,1.52,5.81,.27,6.11,3.67,5.27,7.72-1.57,7.53-.19,15.26-1.81,22.77-1.57-.02-1.96-1.55-2.95-2.31-2.41-1.88-4.7,.07-6.94,.5-1.69,.32-.38,1.83-.18,2.82-5.63-.04-11.27-.08-16.9-.12-.85-3.82,2.78-6.56,2.84-10.38-3.09,.71-2.78,3.38-3.77,5.13-2.26,4-6.35,5.77-11.12,4.17-3.42-1.14-2.86-4.44-2.96-7.16-.1-2.64-.2-5.31,.85-7.87,.46-1.12,.9-2.7,2.07-2.49,5.71,1.05,12.27-3.71,17.23,2.46,.86,1.06,1.37-.09,1.97-.46,3.78-2.32,7.64-1.85,11.32,.04,2.11,1.08,4.31,3.05,5.97,.18,1.59-2.75-1.59-3.89-3-5.54-.81-.95-2.03-.98-3.21-1.1-11.72-1.13-23.44-2.17-35.23-1.94v-8c2.49-.02,5.02-.29,7.47,0,4.95,.59,6.65-1.14,6.58-6.33-.27-20.78-.07-41.56-.11-62.35-.02-11.81,1.27-10.12-10.45-10.25-1.16-.01-2.33-.04-3.49-.05v-6c33.65-.03,67.29,.05,100.94-.19,5.09-.04,6.07,1.9,6.06,6.45-.11,54.97-.01,109.94-.13,164.9-.01,5.51,.74,10.43,4.1,14.98,6.19,8.37,8.98,18.38,12.88,27.85,.47,6.39,3.75,12.32,3.15,18.89,.08,5.2-.12,10.45,2.96,15.06,1.25,5.9,6.3,9.93,12.88,9.96,14.07,.07,28.15-.02,42.23,0,2.91,0,5.52-.86,8.03-2.18,1.95,1.31,4.17,.89,6.3,.89,20.58,.02,41.16,.21,61.73-.14,5.33-.09,6.86,1.62,5.87,6.46-11.4-.44-22.78,.05-34.21-.75-11.48-.8-23.11,.4-34.67,.79-.73,.02-1.45,.62-2.17,.95-7.49,.03-15-.25-22.47,.16-13.22,.72-26.4,1.93-39.62,2.72-1.82,.11-5.11,1.53-5.4-1.49-.26-2.64,3.46-.41,5.08-2.51-5.25-1.83-5.94-7.06-8.53-10.94-.29-4.18-1.26-8.18-3.02-11.99,.03-2.06,.21-4.14-1.05-5.98,.22-2.82-1.59-4.92-2.63-7.28-.54-1.22-1.28-1.83-2.65-.86-1.52,1.08-2.82,4.05-4.65,2.73-2.06-1.49,1.98-3.38,.99-5.56Z"/>
      <path class="cls-9" d="M1023.79,460.95c-10.35-1.68-20.71-3.36-31.06-5.03,10.64-7.25,10.48-19.01,10.6-29.53,.18-15.66-5.18-30.54-10.55-45.2-1.25-3.4-3.95-6.23-3.96-10.1,6.04-7.51,11.63-15.3,16.2-23.85,13.66-25.56,18.08-52.22,10.19-80.46-.42-1.5-.36-2.9-.27-4.41,.62-10.77,2.48-21.48,1.31-32.32,2.91-.01,5.02,2.02,7.54,2.99v17.99c-3.62-.49-6.8,.16-5.77,4.7,.69,3.04,1.89,6.42,5.77,7.3v197.94Z"/>
      <path class="cls-6" d="M1023.79,233.02c-2.52-.97-4.63-3-7.54-2.99-2.12-2.29-4.33-4.45-5.42-7.57-.91-2.59-3.07-4.56-5.46-5.57-7.61-3.2-15.41-5.91-22.34-10.6-2.36-1.6-6.74,.22-7.98-2.64-1.16-2.67-.35-6.19-.4-9.33,0-.5-.04-1,0-1.49,.16-2.1-.77-3.19-2.9-2.91-10.37,1.38-21.31,.92-29.62,9.05-1.9-15.06,9.73-32.99,28.86-29.76,1.8,.3,3.65,.36,5.42,.75,3.14,.7,5.94,.25,8.39-1.9,2.4,0,4.8,0,7.2,0-4.86,2.85-2.19,4.72,.27,6.66,2.01,1.58,4.23,2.57,6.78,2.82-1.02,1.27-2.01,2.57-3.08,3.81-1.08,1.25-1.73,2.54-.28,3.86,1.41,1.28,2.71,.61,3.91-.5,2.22-2.04,4.26-4.17,4.15-7.49,.07-2.46,.14-4.91,.21-7.37,2.89-.37,5.09,1.86,7.82,2.1,4,2.37,7.28,5.95,12,7.08v53.98Zm-59.36-60.98c-2.03,0-3.52-.02-5,0-.96,.02-2.19-.11-2.18,1.29,0,.87,.89,1.35,1.73,1.52,4.62,.94,9.41,1.04,13.82,3.03,.75,.34,1.94-.1,2.86-.4,.92-.3,1.98-.74,1.95-1.95-.03-1.25-1.16-1.42-2.1-1.73-3.77-1.28-7.61-2.13-11.09-1.77Z"/>
      <path class="cls-8" d="M17.17,235.98c5.63,.04,11.27,.08,16.9,.12,3.36-.01,6.66,1.37,10.05,.43,1.06,.61,2.05,1.41,1.76,2.73-1.6,7.41-.15,14.91-.7,22.33-.4,5.35,.29,11.13-4.49,15.22-2.24-.56-2.74,.82-3.23,2.61-.85,3.07-3.06,4.97-5.98,6.15-10.4,4.18-20.85,4.33-31.36,.43v-17.99c1.68,.47,3.7-.44,5.06,1.42,.62,.84,1.36,2.31,2.72,1.36,1.82-1.28,1.16-2.99-.53-4.99,6.53,1.4,6.55-2.57,6.5-6.35-.04-3.08-.01-5.88,5.77-5.52-4.38-1.33-7.41,.02-10.32-1.54,5.47-4.33,11.68,2.13,17.85-2.26-7.57-.15-13.94-2.36-20.44-.28-.27-2.22,3.74-4.48-.65-5.81,.18-2.7-2.15-2.55-3.92-3.81-.09,2.75-.21,4.83,2.97,4.77,.87,2.76-2.27,4.34-2.05,6.91-.99,.04-1.98,.07-2.97,.11,0-5,0-10,0-15,5.68-.35,11.36-.69,17.04-1.04Zm15.77,31.52l2.09-.02c0-3.21,.04-6.43,0-9.64-.08-5.98-.82-12.08,4.93-16.37,1.78-1.33,.72-2.05-.96-2.5-3.79-1.01-5.54,1.21-6.79,4.15-.51,1.2-1.03,2.12-2.48,1.87-1.45-.25-2.41-1.09-2.59-2.61-.12-1.02,.79-2.32-.83-2.92-2.12,5.06-.61,7.86,4.36,7.65,2.43-.1,2.29,1.18,2.28,2.75-.02,5.87,0,11.75,0,17.62Z"/>
      <path class="cls-4" d="M95.09,359.98c-16.67,14.19-32.21,29.38-45.2,47.19-21.74,29.83-36.09,62.92-45.23,98.49-1.24,4.82-.77,10.24-4.55,14.27v-24.99c6.37-15.21,10.93-31.12,17.85-46.13,8.05-17.48,17.46-34.07,29.72-48.99,8.52-10.37,17.13-20.65,26.92-29.87,5.79-5.45,11.66-10.79,18.47-14.97,2.32,1.01,1.99,3.07,2,5.01Z"/>
      <path class="cls-3" d="M.12,124.06c1.16,.02,2.33,.04,3.49,.05,11.72,.13,10.43-1.57,10.45,10.25,.04,20.78-.16,41.57,.11,62.35,.07,5.18-1.63,6.91-6.58,6.33-2.46-.29-4.98-.02-7.47,0V124.06Z"/>
      <path class="cls-10" d="M1023.79,750.86c-2.31-.12-3.95,.57-4.01,3.24,0,.33,.04,.69-.05,.99-.82,2.67-2.69,5.62-5.17,4.97-2.45-.65-2.36-4.32-1.29-6.59,1.06-2.25,1.74-3.18-1.48-3.96-2.68-.65-2.42-2.76-.38-4.46,1.8-1.5,2.33-2.79-.8-2.6-1.98,.12-2.19-1.3-2.56-2.44-1.59-4.88-2.88-9.86-4.62-14.68-1.06-2.96-.36-4.78,2.38-6.06,6-2.79,11.99-5.6,17.98-8.4v39.99Z"/>
      <path class="cls-4" d="M1023.79,878.82h-27.12c9.78-16.18,19.12-31.72,27.12-47.98v47.98Z"/>
      <path class="cls-9" d="M17.17,235.98c-5.68,.35-11.36,.69-17.04,1.04,0-8.66,0-17.33,0-25.99,11.79-.23,23.52,.8,35.23,1.94,1.18,.11,2.41,.15,3.21,1.1,1.4,1.65,4.59,2.79,3,5.54-1.66,2.87-3.86,.9-5.97-.18-3.69-1.89-7.54-2.36-11.32-.04-.6,.37-1.12,1.52-1.97,.46-4.96-6.17-11.52-1.41-17.23-2.46-1.17-.21-1.61,1.37-2.07,2.49-1.05,2.56-.95,5.23-.85,7.87,.1,2.72-.46,6.01,2.96,7.16,4.77,1.6,8.86-.18,11.12-4.17,.99-1.75,.68-4.43,3.77-5.13-.06,3.82-3.68,6.56-2.84,10.38Z"/>
      <path class="cls-9" d="M1023.79,926.8h-28.23c-.19-.43-.38-.86-.57-1.29,10.09-5.89,20.35-11.55,28.79-19.7v20.99Z"/>
      <path class="cls-12" d="M692.9,929.8c-.28-.83-.56-1.67-.85-2.5,12.75,1.01,25.53-.18,38.26,.54,5.29,.3,8.58-1.9,10.89-6,2.53-4.47,6.51-6.68,11.06-8.65,.4,4.81,.76,9.24,1.13,13.66-.51,0-1.01-.02-1.52-.03-.17-1.4,.21-3.32-1.81-3.46-1.55-.11-2.66,1.13-3.27,2.6-.86,2.09,.58,2.56,2.11,2.96-.01,.29-.02,.58-.03,.87h-55.98Z"/>
      <path class="cls-7" d="M3.1,251.91c-.22-2.57,2.91-4.15,2.05-6.91l-.05,.05c.35-.35,.7-.69,1.04-1.04l-.04,.04c4.4,1.32,.38,3.59,.65,5.81,6.5-2.08,12.87,.13,20.44,.28-6.17,4.39-12.39-2.07-17.85,2.26,2.91,1.56,5.94,.2,10.32,1.54-5.79-.35-5.82,2.44-5.77,5.52,.05,3.78,.03,7.74-6.5,6.35,1.69,2,2.35,3.71,.53,4.99-1.36,.95-2.1-.52-2.72-1.36-1.36-1.86-3.38-.95-5.06-1.42v-6c1.35,.05,2.44,1.34,3.91,.84,.73,0,1.45,0,2.18,0,2.56,.66,4.61-.05,5.8-2.45,2.07-4.18,.72-5.4-6.01-5.6-.97-.96-1.94-1.93-2.92-2.89Z"/>
      <path class="cls-13" d="M1023.79,263.01c-3.87-.88-5.08-4.26-5.77-7.3-1.03-4.54,2.15-5.18,5.77-4.7v12Z"/>
      <path class="cls-10" d="M748.88,929.8c0-.29,.02-.58,.03-.87,.99-.7,1.98-1.4,2.97-2.11,.51,0,1.01,.02,1.52,.03,4.31,.34,8.62,.68,12.94,1.02,1.19,.1,1.5,.91,1.54,1.93h-18.99Z"/>
      <path class="cls-1" d="M6.22,262.85c-.73,0-1.45,0-2.18,0,.15-2.79,.89-6.05-3.91-4.84v-3c2.05-.95,3.74,.82,5.68,.75,.14,2.36,.28,4.72,.41,7.08Z"/>
      <path class="cls-8" d="M.12,258.01c4.8-1.21,4.07,2.05,3.91,4.84-1.47,.5-2.56-.8-3.91-.85v-4Z"/>
      <path class="cls-5" d="M5.8,255.76c-1.93,.07-3.63-1.7-5.68-.75v-3c.99-.04,1.98-.07,2.97-.11,.97,.96,1.94,1.93,2.92,2.89-.07,.32-.14,.64-.21,.96Z"/>
      <path class="cls-12" d="M767.87,929.8c-.04-1.02-.35-1.83-1.55-1.93,.42-1.02-.99-2.64,.39-3.07,1.76-.54,1.44,2.44,3.15,2.53,0,.82,0,1.65,0,2.47h-2Z"/>
      <path class="cls-2" d="M267.12,381.01c1-4.85-.53-6.55-5.87-6.46-20.57,.35-41.15,.16-61.73,.14-2.12,0-4.34,.43-6.3-.89,0,0-.11-.44-.1-.45,.29-.47,.58-.93,.87-1.39,8.93-9.57,18.23-18.67,28.97-26.29,9.41-6.68,19.99-11.11,29.97-16.7,1.17-.02,2.33-.07,3.17-1.07,2.81-.98,5.6-2.03,8.43-2.92,2.35-.74,3.52-1.98,3.46-4.66-.21-9.12-.21-18.25-.29-27.37,.12-1.28,.24-2.55,.36-3.83,.04-4.01,.08-8.02,.12-12.04,1.16-5.99,1.59-12.11,3.65-17.93,5.84-16.44,15.44-30.62,26.2-44.12,5.65-5.83,11.27-11.68,16.98-17.45,1.61-1.63,1.12-3.37,.66-5.1-3.52-13.14-6.9-26.29-12.49-38.8-3.56-7.96-7.99-15.63-8.58-24.77-.33-5.05,1.18-8.75,4.88-11.76,3.09-2.51,6.32-4.84,9.49-7.26,7.83-2.75,15.72-3.99,23.77-.91,4.63,3.37,8.43,7.43,10.76,12.75,6.46,14.74,10.94,30.17,15.47,45.56,1.06,3.62,3.3,6.47,4.71,9.81,.41,.96,1.31,1.74,2.38,1.1,2.93-1.78,6.8-3.16,7.58-6.7,3.04-13.76,5.61-27.62,8.35-41.44,.37-1.27,.84-2.52,1.1-3.81,2.23-10.71,4.77-21.34,8.19-31.76,1.32-4.01,3.01-5.52,7.49-4.54,10.67,2.33,21.4,4.42,32.02,6.99,3.56,.86,4.38,2.17,3.66,5.82-2.32,11.69-4.19,23.47-6.23,35.21-1.98,10.72-3.91,21.46-5.98,32.17-.45,2.35-.25,3.79,2.47,4.19,7.52,1.09,14.85,3.27,22.47,3.77,12.49,2.66,24.43,7.24,36.67,10.77,4.68,2.41,9.37,4.83,14.05,7.24,1.84,1.38,3.69,2.74,5.52,4.13,8.48,6.45,17.42,12.38,24.32,20.69-12.13-.47-24.24-1.17-36.4-1.05-14.82,.15-29.64-.13-44.46-.23-1.04-12.56-3.58-24.78-8.4-36.46-.96-2.32-2.34-4.97-5.07-4.88-3.01,.09-3.58,3.38-4.13,5.59-2.92,11.74-3.45,23.79-4.23,35.81-11.76,.12-23.52,.23-35.29,.35-3.62,.04-6.79,.78-6.72,5.33,.19,12.89-.6,25.8,.51,38.68-4.79,5.57-7.24,12.52-10.19,18.98-8.63,18.88-17.2,37.79-26.19,56.5-5.67,11.8-11.77,23.4-17.48,35.18-7.14,14.74-14.35,29.45-21.42,44.22-8.13,16.96-14.86,34.29-19.94,52.35-4.5,15.98-7.86,32.08-9.55,48.64-.83,8.08-1.31,16.17-2.11,24.23-.63,6.33-1.09,12.53,.36,18.77-3.96,2.59-3.81,3.43,1.13,6.46,.82,3.54,1.35,7.17,2.5,10.59,4.78,14.25,10.25,28.11,17.27,41.57,9.13,17.52,21.22,32.49,34.82,46.29,13.85,14.06,29.67,26.01,45.88,37.22,26.77,18.52,56.05,32.13,87,42.18,24.29,7.89,48.75,12.69,74.61,8.8,27.08-4.07,43.49-20.37,53.35-44.25,4.4-10.67,5.35-22.54,6.2-34.05,1.26-16.93-.23-33.89-3.13-50.54-5.02-28.84-12.77-57.08-21.26-85.07-5.53-18.23-12.04-36.16-17.95-54.27-7.26-22.23-15.65-44.09-21.71-66.71-.82-3.05-.16-4.11,2.65-4.92,9.23-2.67,18.41-5.51,27.6-8.28,6.23,6.89,9.3,15.62,13.55,23.63,15.02,28.33,25.74,58.39,34.82,89.05,9.46,31.93,17.18,64.27,22.76,97.11,4.68,27.56,8.63,55.22,8.01,83.27-.56,25.4-5.21,49.93-17.5,72.51-8.52,15.65-20.16,28.41-35.81,37.28-23.67,13.41-49.38,15.76-75.85,13.99-20.18-1.35-39.83-5.58-59.19-11.19-19.51-5.65-38.58-12.57-57.21-20.67-20.76-9.02-41.17-18.76-60.99-29.68-2.18-1.2-3.79-.31-5.55,.64,.05-3.51-3.43-3.23-5.23-4.58-7.8-5.86-16.75-10.03-24.39-16.19-.72-.58-1.79-1.34-2.72-.69-.99,.69-.28,1.76-.09,2.72,.54,2.75,1.27,5.52,1.36,8.3,.33,10.55,8.44,21.78,21.27,20.48-3.04,4.63-7.84,8.36-7.54,14.7-8.4-1.07-16.79-2.16-24.6-5.78-7.11-3.29-10.87-8.39-10.95-16.63-.13-12.78-1.25-25.54-.86-38.33,.06-2.11-.4-3.85-2.03-5.35-6.1-5.61-12.12-11.3-18.17-16.95-2.31-2.29-4.62-4.59-6.93-6.89-1.45-1.88-2.64-4.01-4.89-5.14-1.03-1.29-2.02-2.63-3.11-3.88-9.48-10.88-18.84-21.81-26.85-33.91-7.79-11.77-14.38-24.24-22.05-36.07-6.72-13.42-12.52-27.19-16.19-41.79,30.43,1.71,60.88,.11,91.32,.64,3.92,.07,5.77-.66,3.47-4.99-1.31-2.46-2.04-5.24-1.87-8.18,.16-2.81-1.54-3.76-4.11-3.68-28.29,.94-56.58-.19-84.86-.2-3.11,0-6.55,1.59-9.56-.68-.19-1.15-.29-2.32-.58-3.44-6.59-25.62-8.87-51.7-7.94-78.07,.6-16.97,3.36-33.66,7.29-50.18,2.58-10.84,7.09-21.11,9.1-32.1,1.42-1.24,1.03-3.56,2.78-4.59,1.82,.09,3.64,.26,5.46,.26,23.61,.03,47.22,.04,70.83,.05q7.45,0,6.8-7.83c-.02-1.31-.05-2.63-.07-3.94Z"/>
      <path class="cls-9" d="M483.86,188.86c-12.24-3.53-24.17-8.1-36.67-10.77,.1-5.3-.13-10.58,.51-15.91,1.34-11.25-8.21-22.85-19.46-24.21,2.04-11.74,3.91-23.52,6.23-35.21,.73-3.65-.09-4.96-3.66-5.82-10.63-2.57-21.35-4.66-32.02-6.99-4.48-.98-6.17,.52-7.49,4.54-3.43,10.42-5.96,21.04-8.19,31.76-.27,1.29-.73,2.54-1.1,3.81-3.72,.34-6.88,2.33-10.33,3.45-3.24,1.05-5.1,2.89-4.87,6.51,.09,1.43,.25,3.58-1.75,3.44-2.08-.15-1.24-2.38-1.24-3.7-.04-11.96,.37-23.93-.13-35.86-.21-5.12,.59-11.32-5.7-14.31,.04-3.2,2.32-4.7,4.74-5.82,15.6-7.22,30.79-15.43,47.3-20.56,27.03-8.39,54.49-15.13,82.38-19.87,12.84-2.19,25.96-2.65,38.9-4.3,17.13-2.18,34.32-2.57,51.54-3.22,13.72-.52,27.47-2.52,41.19-1.58,17.48,1.19,34.99,1.91,52.47,3.43,10.88,.94,21.53,3.93,32.53,3.48,1.6-.06,3.23,.61,4.85,.94-3.29,6.11-1.24,10.54,4.35,13.87,.42,.25,.77,.63,1.19,.88,1.13,.68,2.62,1.31,2.24,2.87-.49,2.01-2.41,1.12-3.76,1.37-2.58-.35-4.41,.48-5.67,2.94-1.12,2.19-2.7,4.15-4.02,6.24-4.41,6.95-9.49,13.51-12.45,21.31-5.59,7.38-9.4,15.89-14.63,23.45-4.34,6.27-4.94,12.75-3.96,19.81-.1,4.5-3.43,7.34-5.48,10.86-6.06,10.47-12.72,20.55-19.23,30.73-1.73,2.71-4.64,5.23-4.11,9.92,2.97-1.96,5.2-3.84,6.59-6.49,4.76-9.11,11.05-17.27,16.22-26.08,3.49-5.96,8.25-11.17,10.74-17.71,2.7-1.09,4.42-3.39,6.41-5.32,4.35-4.23,8.8-8.38,12.84-12.89,4.01-4.47,4.61-10.79,7.79-15.76,6.33-7.38,10.35-16.06,14.05-24.92,1.24-2.32,2.83-4.53,3.61-7,.78-2.45,.17-6.22,2.06-7.3,2.48-1.42,4.25,2.33,6.57,3.43,2.2,1.04,4.13,1.26,5.74-.87,1.63-2.16,.9-4-.87-5.67-1.68-1.59-3.15-3.49-5.03-4.78-2.52-1.73-2.55-3.57-1.16-5.89,.99,.06,2.02-.03,2.98,.19,30.89,7.25,60.5,18.09,89.03,31.9,12.09,5.85,23.22,13.38,34.6,20.49,11.51,7.2,23.29,13.95,34,22.3,7.3,5.7,14.29,11.8,21.43,17.71,2.92,2.42,5.61,5.26,9.8,5.36-3.22,3.76-5.4,8.58-10.61,10.28-10.59-1.12-21.18-.11-31.78-.19-1.11,0-2.26,.46-3.34,.84-7.08,2.51-6.91,8.82-7.09,14.51-.79,25.3,.73,50.58,.96,75.87,.05,5.69,3.2,9.86,7.94,12.85-4.94,12.54-9.55,25.19-10.8,38.74-1.92,20.79,2.54,40.78,8.45,60.41,3.73,12.41,9.35,24.15,17.15,34.68,4.67,9.05,11.54,15.89,20.64,20.48,3.94,6.61,4.61,13.96,4.88,21.4-15.49,.96-30.96,2.06-46.49,2.39-5.59,.12-11.11-.68-16.66-.33,.45-6.92,1.97-13.76,2.51-20.6,.7-8.94,5.69-13.27,13.11-16.18,1.08-.42,2.15-.88,3.26-1.22,3.28-.99,4.43-3.27,3.9-6.49-.62-3.75-1.35-7.48-2-11.22-2.37-13.67-4.39-27.42-7.21-40.99-1.51-7.3-4.43-14.26-10.45-19.4-8.57-7.31-18.23-12.46-28.93-16.04-7.58-2.54-16.22-3.79-20.48-12.17-.22-.44-1.17-.51-1.79-.75-.3-2.7,.42-5.23,.96-7.85,1.96-9.41,3.68-18.88,2.56-28.58,.14-4.41,.93-8.71,2.33-12.9v-.28c.29-.74,.58-1.47,.88-2.21,.38-.05,.56-.27,.53-.65-.05-.26,.07-.42,.34-.49,4.1-7.89,8.1-15.83,10.17-24.54,.37-1.55,.06-3.31-.2-4.94-1.85-11.46-9.87-17.89-19.05-23.43-10.67-6.44-22.44-6.87-34.26-5.91-16.36,1.33-29.72,17.07-27.96,32.24-4.18,7.8-1.37,16.28-2.26,24.4-.18,1.67,.68,3.78,3.38,2.72,3.12,1.45,5.67-2.2,8.66-1.07,11.29,4.27,22.61,2.49,33.95,.36,.66,1.52,1.62,2.97,1.92,4.56,1.61,8.37,1.44,16.88,1.04,25.3-.18,3.78-2.97,6.67-7.24,6.81-3.29,.1-5.05,1.29-4.74,4.77-3.38,.5-6.71,.65-10.17,.33-2.41-.22-1.11-3.86-3.52-3-2.58,.92-5.64,.85-7.5,3.38-2.08,.43-3.89-.63-5.83-1.01-.16-.12-.32-.24-.47-.36,.12,.16,.24,.32,.36,.48,.32,2.1,2.04,2.47,3.66,2.95-.22,.98-.44,1.96-.67,2.93-9.65,2.36-19.41,3.98-29.24,5.48-28.37,4.32-55.71,13.38-83.8,19.01-7.84,1.57-15.66,4.43-23.92,2.66-1.73-.16-3.74,.38-3.93-2.51-.26-3.79-1.24-7.49-1.23-11.36,.04-17.64-3.15-34.99-5.33-52.41-.48-3.86,.63-4.7,3.54-6.02,19.76-8.91,40.84-13.9,61.23-20.95,3.82-1.32,7.94-1.98,11.86-4.95-1.21-.15-1.67-.35-2.05-.24-24.57,6.53-48.67,14.52-72.1,24.36-3.76,1.58-5.95,2.44-8.36-1.76,.35,4-.87,7.64-.18,10.99,4.03,19.34,3.97,39.25,8.33,58.54,.4,1.75,1.61,4.44-1.72,5.29-1.91-2.07-5.99-1.3-6.62-5.05-1.57-2.52-3.25-4.98-4.68-7.58-2.28-4.13-4.36-8.39-10.7-5.38,.7-2.76,1.2-4.83,1.75-6.88,.56-2.09,1.16-4.17,1.74-6.26-1.46,.67-1.99,1.65-2.57,2.6-1.99,3.24-4.42,6.28-5.87,9.73-1.6,3.79-6.14,2.47-8.03,5.48-.46,.72-1.58,1.9-2.93,.81,.29-2.61,2.87-3.55,3.99-5.54,.73-.31,.83-.69,.12-1.15-.09-.3-.26-.56-.5-.77-.64-11.61,8.06-19.63,11.69-29.65-2.74,1.24-3.81,3.71-5.34,5.82-4.74,6.49-6.69,14.43-11.12,21.07-1.78-1.63-4.04-1.03-6.1-1.32,.36-4.98-4.53-5.34-6.93-7.89-2.89-5.75-7.73-10.09-10.6-16.42-2.77,4.23,.44,7.91-1.26,11.24-.37-.25-.73-.49-1.1-.74-.51-4.88-.54-9.88-1.64-14.63-2.21-9.56-5.6-18.84-7.2-28.56,4.41,1.68,6.76,5.66,9.84,8.83,4.05,4.17,6.49,9.71,10.85,13.54,5.31-7,4.21-14.77,4.23-22.36,1.9-3.3,.77-6.82,.79-10.26,.03-7.32-.02-14.65,.13-21.97,.05-2.39-.46-3.45-3.15-3.88-10.2-1.62-20.36-.96-30.53-.04-.22-2.67,2.23-3.1,3.71-4.18,7.59-5.52,10.18-9.83,5.35-18.74-3.7-6.82-8.74-10.82-16.02-11.87-7.09-1.02-10.75,4.28-14.07,9.28-2.3,3.46-5.1,6.02-8.89,7.65-5.67,2.43-10.38,6.4-15.4,9.86Z"/>
      <path class="cls-13" d="M308.97,109.88c-3.17,2.41-6.4,4.74-9.49,7.26-3.7,3.01-5.21,6.71-4.88,11.76,.59,9.15,5.02,16.81,8.58,24.77,5.59,12.51,8.97,25.67,12.49,38.8,.46,1.73,.96,3.47-.66,5.1-5.71,5.77-11.33,11.63-16.98,17.45-9.5-5.42-19.08-10.71-28.5-16.28-11.21-6.63-22.55-13.09-33.32-20.37-10.45-7.07-10.15-7.47-20.22-1.31-9.23,5.65-15.91,12.21-14.25,24.7,.78,5.93,3.03,9.96,7.14,13.45,9.96,8.46,19.85,17.02,30.12,25.08,5.02,3.94,9.1,9.15,15.17,11.72-.12,12.77-.33,25.55-.29,38.32,0,2.83-1.43,3.87-3.68,4.45-13.2,3.42-25.65,8.83-38.12,14.2-2.77,.45-5.15,2.03-7.77,2.78-3.73,1.08-6.83,4.44-11.2,3.23,.03-5.98,.06-11.97,.1-17.95,1.09-1.49,.68-3.21,.68-4.84,.03-27.48-.13-54.95,.16-82.43,.05-5.21-1.73-7.57-6.56-8.5-4.63-.89-8.62-3.37-12.54-5.88-2.74-1.75-3.58-4.14-2.48-7.31,4.21-12.13,8.6-24.14,19.3-32.4,1.57-1.21,2.23-2.67,2.05-4.74-1.81-20.6-1.01-41.25-.71-61.86,.22-14.81,10.75-24.9,24.41-25.02,13.23-.11,24.16,10.43,25.33,24.65,.86,10.43,1.5,20.88,2.24,31.32-.06,12.45-.12,24.9-.17,37.35,0,1.32-.18,2.77,.98,3.71,4.43,3.62,8.9,7.18,13.72,11.06v-36.17c.19-12.47,.33-24.93,.58-37.4,.08-3.98,.3-7.97,.74-11.92,1.52-13.69,9.89-21.61,23.54-22.45,12.63-.77,22.44,6.35,25.58,19.07,2.19,8.89,1.4,17.8-1.09,26.57Z"/>
      <path class="cls-16" d="M915.14,157.31c5.21-1.7,7.39-6.52,10.61-10.28,4.18-3.04,8.61-5.67,13.43-7.52,3.57-1.37,5.23-3.44,4.87-7.48-.39-4.29-.1-8.65-.07-12.97,.02-3.25,.82-5.9,4.7-6.45,2.27-.32,3.65-1.9,5-3.74,1.67-2.3,4.12-3.29,7.04-2.31,2.82,.95,2.92,3.21,2.89,5.66-.06,5.82,.12,11.65-.06,17.47-.12,3.85,1.52,6.22,4.88,7.86,9.38,4.58,9.41,4.64,16.62-3.05,3.29-3.51,6.49-7.11,9.78-10.61,1.53-1.63,3.18-3.19,5.39-.84,3.87,4.11,7.68,8.27,11.65,12.27,2.29,2.31,1.5,3.52-.73,5.4-3.32,2.8-7.96,4.24-9.65,8.83-2.24,3.71-5.56,7.19-6.38,11.19-.59,2.87,4.6,4.07,6.31,6.88,.08,.14,.11,.31,.17,.46-2.67,1.62-4.86,.34-7.1-1.08-3.47-2.21-6.89-3.13-9.69,1.07-2.45,2.16-5.25,2.6-8.39,1.9-1.77-.4-3.62-.45-5.42-.75-19.14-3.23-30.76,14.7-28.86,29.76-.95,3.61-3.12,5.93-6.3,8.14-8.34,5.83-17.34,10.88-24.24,18.6-2.52,1.52-4.71,3.25-6.7,5.59-2.74,3.23-5.32,6.81-9.16,9.01-6.7-17.35-8.05-34.63-.05-52.09,4.23-9.24,10.52-17.2,15.19-26.14,1.8-1.26,3.39-2.7,4.26-4.79Z"/>
      <path class="cls-13" d="M357.99,89.57c6.28,2.99,5.49,9.2,5.7,14.31,.5,11.93,.09,23.9,.13,35.86,0,1.32-.84,3.55,1.24,3.7,2,.14,1.84-2.01,1.75-3.44-.23-3.61,1.63-5.45,4.87-6.51,3.45-1.12,6.61-3.12,10.33-3.45-2.75,13.82-5.32,27.68-8.35,41.44-.78,3.55-4.65,4.92-7.58,6.7-1.07,.65-1.97-.13-2.38-1.1-1.41-3.34-3.64-6.2-4.71-9.81-4.53-15.39-9.01-30.82-15.47-45.56-2.33-5.32-6.13-9.38-10.76-12.75,.44-8.9,4.78-14.6,13.61-16.67,3.88-.91,7.61-2.45,11.64-2.73Z"/>
      <path class="cls-9" d="M193.22,297.06c-.03,5.98-.06,11.97-.1,17.95-.98,.15-2.03,.12-2.92,.47-20,7.93-38.64,18.35-56.08,30.93-2.24,1.62-4.09,3.91-6.98,4.53,.6-6.57-2.69-12.49-3.15-18.89,5.97-1.65,10.65-5.76,15.88-8.74,12.42-7.09,24.34-15.01,37.82-20.15,5.19-1.98,10.2-4.47,15.54-6.1Z"/>
      <path class="cls-9" d="M259.62,136.01v36.17c-4.82-3.88-9.29-7.44-13.72-11.06-1.16-.95-.99-2.39-.98-3.71,.05-12.45,.11-24.9,.17-37.35,2.88,.85,2.46,3.52,3.01,5.6,1.52,5.74,5.95,9.78,11.52,10.36Z"/>
      <path class="cls-10" d="M717.9,61.06c1.35-.24,3.27,.64,3.76-1.37,.38-1.56-1.11-2.19-2.24-2.87-.42-.25-.77-.63-1.19-.88-5.58-3.33-7.64-7.76-4.35-13.87,1.83-1.45,3.46-.52,4.98,.53,.94,.65,1.69,1.59,2.53,2.38,5.13,4.82,5.68,4.65,8.31-1.72,1.43-3.47,1.99-7.33,4.48-10.34,.4,.46,.8,.93,1.2,1.39-.49,4.92-.98,9.84-1.47,14.76-1.4,2.31-1.36,4.16,1.16,5.89,1.88,1.29,3.35,3.18,5.03,4.78,1.77,1.68,2.5,3.52,.87,5.67-1.61,2.13-3.54,1.91-5.74,.87-2.32-1.1-4.09-4.84-6.57-3.43-1.89,1.08-1.28,4.85-2.06,7.3-.78,2.47-2.37,4.68-3.61,7-3.76-4.71-7.2-9.52-5.09-16.09Z"/>
      <path class="cls-9" d="M1001.59,168.08c-.05-.15-.08-.32-.17-.46-1.71-2.81-6.9-4.01-6.31-6.88,.82-4,4.13-7.48,6.38-11.19,1.56,8.33,7.08,14.84,10.3,22.41-2.73-.24-4.93-2.47-7.83-2.1-.79-.59-1.58-1.18-2.38-1.78Z"/>
      <path class="cls-1" d="M735.38,34.31c-.4-.46-.8-.92-1.2-1.39,.16-2.27-.27-4.63,1-6.73,4.66-.12,9.32-.24,13.99-.36,2.54,8.86,.81,10.78-8.41,9.3-1.79-.29-3.59-.55-5.38-.82Z"/>
      <path class="cls-7" d="M749.17,25.84c-4.66,.12-9.32,.24-13.99,.36-.4-2.76,.89-4.4,3.58-3.92,3.6,.66,8.71-2.7,10.41,3.56Z"/>
      <path class="cls-9" d="M315.67,788.63c-.3-6.34,4.51-10.07,7.54-14.7,3.75-2.88,6.62-6.62,9.81-10.04,1.76-.95,3.37-1.84,5.55-.64,19.83,10.92,40.24,20.66,60.99,29.68,18.64,8.1,37.7,15.02,57.21,20.67,19.36,5.61,39.01,9.84,59.19,11.19,26.47,1.77,52.18-.58,75.85-13.99,15.65-8.86,27.29-21.62,35.81-37.28,12.29-22.58,16.94-47.11,17.5-72.51,.62-28.05-3.33-55.71-8.01-83.27-5.58-32.84-13.3-65.18-22.76-97.11-9.08-30.66-19.8-60.72-34.82-89.05-4.25-8.01-7.33-16.74-13.55-23.63-.7-1.02-1.4-2.04-2.1-3.05-3.86-5.71-6.53-12.36-12.74-16.24-.56-2.4-2.31-3.96-3.87-5.69-10.6-11.79-24.55-19.2-37.11-28.42-1.74-1.28-3.85-2.05-4.31-4.5,3.38-.22,5.37,2.2,7.67,4.03,5.12,4.07,11.55,5.67,16.82,9.59,.05-1.49-.17-2.48-.69-3.27-4.09-6.06-9.47-11.02-14.23-16.51-4.52-5.2-9.66-10.07-11.1-17.28-.22-1.1-.89-2.52,.53-3.04,1.46-.54,1.77,1.08,2.37,2,7.19,11.03,17.05,19.77,25.53,29.69,.71,.84,1.9,2.24,2.86,1.16,2.62-2.95,7.34-3.53,8.33-8.46,.96-4.81,3.46-9.18,6.29-13.26,1.5,1.27,3.08,2.45,4.48,3.82,7.79,7.64,17.35,13.22,24.81,21.25-1.03,7.71-1.23,15.48-1.77,23.22-.49,7.11,1.29,15.17-7.8,20.54,7.4-.72,10.33-4.31,10.71-12.1,.48-9.92,1.12-19.81,2.23-29.68,.67,.04,1.34,.09,2,.13,13.65,11.56,28.97,20.43,45.23,27.64,14.99,6.64,30.51,11.34,47.22,10.53,1.68-.08,3.41-.2,3.58,2.3,.22,3.14,.91,6.26,.88,9.39-.35,35.78,.53,71.55-.62,107.34-.85,26.57-1.48,53.16-2.17,79.74-.56,21.43-.26,42.87,1.87,64.24,.75,7.54,3.57,13.73,10.1,17.92,1.1,1.83,2.36,3.46,2.88,5.7,4.92,20.84,10.22,41.6,14.18,62.65,7.81,41.44,14.35,83.07,18.71,125.02,.52,5-.77,9-4.14,12.66-7.07,7.69-14.07,15.44-20.88,23.35-4.03,4.68-9.08,8.57-11.69,14.41-2.72,.87-5.5,1.01-8.34,1.08-6.8,.16-13.6-.5-20.39,.85-4.77,.95-9.56-.84-14.36-.84-61.31-.03-122.64-.85-183.93,.21-65.95,1.13-131.89,.93-197.82,.41-33.95-.27-67.91-.16-101.86-.66-1.25-.02-3.02,.67-3.65-.75-.77-1.74,1.16-2.57,2.15-3.51,16.61-15.74,22.97-35.52,23.32-57.87,.12-7.68-1.02-15.24-1.11-22.88,2.04,.01,2.88-1.45,3.49-3.02,.91-2.39,2.6-3.28,5.04-2.96,.09,4.15,.25,8.31,.27,12.46,.08,15.48-.18,30.96,.3,46.42,.28,8.71,3.78,16.37,12.29,20.17,9.57,4.28,19.18,4.94,28.48-1.29,10.52-7.04,13.47-17.63,14.04-29.31,.42-8.46,.46-16.94,.67-25.41,2.49-.07,5.34-1.65,6.79,2.16,.48,1.27,2.35,.67,3.61,.78,.55,10.94-.75,21.95,.95,32.85,1.58,10.15,6.07,18.79,16.4,21.83,10.55,3.11,21.21,3.51,29.96-5.55,6.16-6.39,8.72-14.05,8.77-22.6,.13-22.95-.02-45.9,.07-68.84,.04-9.96-.54-19.93,.46-29.87Zm240.2-404.25c-1.62-10.37-3.19-20.66-4.11-31.03-.17-1.89-1.74-3.42-3.5-3.9-1.9-.51-2.17,1.62-2.94,2.8-.73,1.11-1.53,2.18-2.13,3.36-2.04,4.05-4.21,9-2.86,12.78,2.38,6.65,7.75,11.84,12.64,17.04,.54,.58,1.14,1.35,2.09,.99,1-.38,.71-1.36,.8-2.05Z"/>
      <path class="cls-15" d="M690.05,924.78c2.61-5.84,7.66-9.73,11.69-14.41,6.81-7.91,13.82-15.66,20.88-23.35,3.37-3.66,4.66-7.66,4.14-12.66-4.36-41.96-10.91-83.59-18.71-125.02-3.97-21.05-9.26-41.81-14.18-62.65-.53-2.24-1.79-3.87-2.88-5.7,1.71,.57,3.45,1.09,5.14,1.73,11.86,4.54,24.16,6.66,36.82,6.85,6.92,.71,10.25-1.97,9.34-8.45-1.46-10.37-2.24-20.77-2.92-31.2-.23-11.29-.43-22.58-.68-33.87-.47-21.44-1.02-42.87-1.44-64.31-.47-23.92-.85-47.83-1.26-71.75,17.43,.27,34.83,2.01,52.28,1.18,.13,1.65,.36,3.3,.37,4.95,.4,47.4-1.33,94.83,2.16,142.16,1.43,19.36,4.06,38.63,7.87,57.71,.64,3.2,1.96,4.34,5.4,3.94,12.94-1.5,25.5-4.5,37.84-8.56,9.79-3.22,18.8-8.12,27.75-13.12,12.08,35.98,14.48,73.19,14.01,110.75-.17,13.62-.55,27.24-.84,40.87-1.56,6.39-.54,12.92-1.08,19.38-1.58,18.77,.1,37.55,.42,56.33,.11,6.26,3.12,11.84,6.73,16.87,2.23,3.09,4.6,6.08,6.21,9.53,1.22,2.61,1,5.44-2.45,5.56-15.09,.54-30.2,1.29-45.27-.53-.15-.02-.3-.15-.44-.23-4.05-14.11-7.12-28.43-8.64-43.05-.54-6.11-.78-12.27-1.66-18.33-6.08-42.11-14.6-83.72-25.91-124.74-6.71-24.33-13.9-48.52-20.88-72.77-3.27-21.01-9.11-41.56-10.57-63.55-7.18,6.02-13.33,11.4-10.19,21.21,.44,1.38,.18,2.97,.26,4.47,.48,8.96,.03,17.97,1.53,26.87,.16,1.33,.32,2.65,.48,3.98-.58,1.44,.06,2.72,.52,4.02,1.17,7.71,2.18,15.45,3.54,23.13,3.71,21.07,4.28,42.38,3.54,63.63-1.18,33.85-6.44,67.4-8.53,101.22-1.52,24.75-3.47,49.43,1.68,73.99-.75,.16-1.5,.32-2.24,.49-1.71-.09-1.4-3.07-3.15-2.53-1.37,.42,.03,2.05-.39,3.07-4.31-.34-8.62-.68-12.93-1.02-.37-4.42-.73-8.85-1.13-13.66-4.55,1.97-8.53,4.18-11.06,8.65-2.32,4.1-5.6,6.3-10.89,6-12.73-.72-25.51,.47-38.26-.54-.76-.77-.44-2.39-2-2.52Z"/>
      <path class="cls-9" d="M179.05,577.93c3.67,14.6,9.47,28.37,16.19,41.79-1.72,3.47-1.69,7.27-2.17,11-1.66,13.02-.64,26.1-1.17,39.15-2.87,.35-3.57-1.58-4.28-3.8-2.6-8.04-5.36-16.03-7.98-24.07-1.26-3.88-3.76-6.97-6.14-10.14-1.47-1.95-3.61-2.64-5.77-1.6-2.37,1.14-4.8,2.46-6.67,4.26-11.1,10.64-19.6,23.12-26.41,36.91-3.6,7.29-6.45,14.77-8.66,22.55-2.23-.28-3.4-2-4.56-3.58-11.8-16-26.15-29.37-41.58-41.83-9.53-7.7-19.92-13.7-30.73-19.16-1.19-.6-2.43-1.12-3.11-2.39,1.8-1.6,1.17-3.75,1.06-5.64-.78-13.97,1.15-27.8,2.19-41.67,.87-11.51,2.51-22.96,3.86-34.43,1.41-11.97,2.31-24.03,4.46-35.86,3.54-19.51,7.86-38.89,15.7-57.25,.92-2.16,1.74-4.79,4.74-5.25,1.03,9.66,2,19.32,3.09,28.97,2.09,18.51,8.36,35.85,15.03,53.07-.11,.48-.1,1.06-.36,1.43-7.39,10.57-3.82,22.43,9.16,25.87,9.61,2.54,18.88,5.96,28.18,9.42,14.9,5.54,30.67,7.96,45.94,12.24Z"/>
      <path class="cls-4" d="M125.98,693.98c2.21-7.78,5.05-15.26,8.66-22.55,6.81-13.79,15.31-26.27,26.41-36.91,1.87-1.8,4.31-3.12,6.67-4.26,2.16-1.04,4.3-.35,5.77,1.6,2.39,3.17,4.88,6.26,6.14,10.14,2.62,8.03,5.38,16.02,7.98,24.07,.72,2.22,1.41,4.15,4.29,3.8,.08,1.33,.22,2.65,.22,3.98,.04,19.44-.02,38.88,.11,58.32,.12,17.59,.56,35.19,.63,52.78,.07,16.63-.17,33.26-.27,49.9-2.45-.32-4.13,.58-5.04,2.96-.6,1.57-1.44,3.03-3.49,3.02-1.26-6.6-2.47-13.21-3.79-19.79-4.31-21.52-10.97-42.29-19.27-62.6-2.08-5.09-3.89-10.61-7.18-14.65-3.81-4.67-4.41-10.45-7.69-15.16-3.5-5.01-5.66-10.99-9.32-15.86-3.71-4.95-6.38-10.47-9.87-15.5-.71-1.03-.92-2.11-.97-3.28Z"/>
      <path class="cls-3" d="M78.01,446.92c-3,.45-3.81,3.09-4.74,5.25-7.84,18.36-12.16,37.74-15.7,57.25-2.15,11.83-3.05,23.9-4.46,35.86-1.35,11.47-2.99,22.92-3.86,34.43-1.04,13.86-2.97,27.7-2.19,41.67,.11,1.89,.74,4.04-1.06,5.64-6.83-1.83-13.65-3.67-20.48-5.48-1.11-.29-2.26-.41-3.4-.6-.26-11.13,1.06-22.15,1.88-33.22,1.28-17.34,3.52-34.51,6.93-51.53,2.95-14.75,6.63-29.31,10.51-43.87,5.67-21.29,13.21-41.56,24.35-60.47,3.02-5.12,5.31-11.12,11.34-13.9,.15,9.66-.61,19.35,.87,28.97Z"/>
      <path class="cls-9" d="M77.14,417.95c-6.03,2.78-8.33,8.78-11.34,13.9-11.14,18.91-18.68,39.18-24.35,60.47-3.88,14.56-7.55,29.12-10.51,43.87-3.41,17.02-5.65,34.2-6.93,51.53-.82,11.07-2.14,22.1-1.88,33.22-1.02,1.46-2,.25-3-.04,1.06-5.56,1-11.03,.3-16.73-.61-4.96,.29-10.25,.87-15.29,1.43-12.45,2.41-24.94,4.59-37.33,4.33-24.59,9.29-49,16.45-72.94,5.96-19.91,14.2-38.72,25.61-56.15,3.17-4.84,6.24-9.69,9.95-14.13,3.05-3.64,3.11-8.36,3.93-12.63,2.26-11.71,7.39-21.86,14.94-30.93,.63-.76,1.22-1.59,1.67-2.46,.47-.91,2.17-1.69,.85-2.9-1.04-.95-2.15,.22-3.2,.57,0-1.93,.32-4-2-5.01,5.93-5.21,11.24-11.28,19.03-13.97,1,2.18-3.04,4.07-.99,5.56,1.83,1.32,3.12-1.65,4.65-2.73,1.37-.97,2.11-.36,2.65,.86,1.04,2.37,2.84,4.46,2.63,7.28-.75,.29-1.7,.38-2.23,.9-7.03,6.95-14.06,13.89-20.94,20.98-2.08,2.15-3.39,4.87-2.8,8.1-6.08,7.93-10.55,16.68-14.37,25.91-1.38,3.33-.66,7.38-3.57,10.09Zm31.71-68.99c-.07-.1-.12-.26-.21-.29-.08-.02-.2,.1-.3,.15,.12,.15,.24,.31,.36,.46,.05-.11,.1-.22,.15-.33Z"/>
      <path class="cls-4" d="M150.93,744.57c-.97,6.1-1.96,12.2-2.92,18.3-1.52,9.63-2.39,19.34-3.75,28.99-1.74,12.34-4.36,24.4-8.15,36.24-1.82,5.67-2.95,11.53-5.51,17.01-1.37,2.92-2.89,5.32-5.89,6.27-2.6,.81-2.55,1.94-1.38,3.94,7.73,13.2,12.67,27.66,18.62,41.65,3.57,8.4,6.9,16.9,10.36,25.35,.38,.92,.87,1.78,.14,3.29-4.35-3.73-5.31-9.02-7.25-13.61-7.75-18.32-14.26-37.15-23.39-54.89-1.36-2.64-2.98-3.53-5.93-3.12-13.55,1.88-26.76,.64-39.36-5-10.58-4.73-21.13-9.56-31.65-14.43-1.28-.59-2.67-1.3-3.46-3.08,2.13-.48,3.53,.86,5.02,1.57,11.53,5.48,22.76,11.64,35.03,15.46,10.7,3.34,21.6,5.13,32.84,4.32,3.14-.23,5.52-.39,2.98-4.93-13.81-24.69-27.16-49.63-40.9-74.36-6.68-12.02-13.9-23.75-20.82-35.65-3.91-6.73-7.7-13.52-11.54-20.29-.4-.7-.8-1.44-.09-2.55,4.59,4.24,6.89,9.86,9.88,14.85,10.45,17.42,20.53,35.08,30.46,52.8,7.2,12.85,13.9,25.98,20.91,38.94,4.26,7.88,8.58,15.75,13.14,23.46,1.06,1.79,1.81,5.3,4.6,4.39,2.59-.85,5.43-2.46,6.34-5.73,2.84-10.21,6.03-20.33,8.52-30.62,3.07-12.7,4.53-25.69,6.39-38.62,1.45-10.07,3.56-20.04,5.37-30.05l1.39,.1Z"/>
      <path class="cls-4" d="M36.37,702.58c3.13,2.82,4.8,5.39,4.97,8.78-2.09-2.32-4.35-4.55-4.97-8.78Z"/>
      <path class="cls-4" d="M35.36,700.5c-.27-.12-.69-.18-.77-.38-.08-.2,.19-.53,.3-.8,.27,.12,.69,.18,.77,.37,.08,.2-.19,.53-.3,.8Z"/>
      <path class="cls-4" d="M39.67,829.57c-.11,.27-.23,.54-.35,.81-.27-.12-.69-.17-.77-.37-.08-.19,.19-.52,.3-.79,.27,.12,.54,.23,.81,.35Z"/>
      <path class="cls-6" d="M869.63,668.24c-8.95,5-17.96,9.9-27.75,13.12-12.33,4.06-24.9,7.07-37.84,8.56-3.44,.4-4.76-.74-5.4-3.94-3.8-19.08-6.44-38.35-7.87-57.71-3.49-47.33-1.76-94.77-2.16-142.16-.01-1.65-.24-3.3-.37-4.95,.16-.98,.44-1.95,.44-2.93-.04-19.57,.85-39.11,1.95-58.65,1.33-23.66,3.74-47.2,6.68-70.69,1.37-2.75,1.69-5.69,1.5-8.72,.78-3.69,1.55-7.38,2.33-11.08,.31,.92,.77,1.82,.89,2.77,1.48,11.42,3.83,22.69,9.42,32.81,3.15,5.7,5.08,11.5,5.19,17.83,.12,6.65,1.77,12.92,4.58,18.73,3.4,7.05,7.53,13.83,16.56,14.84,4.13,3.71,6.02,2.74,8.06-4.12,2.69-3.32,6.25-5.96,7.96-10.05,3.54-.94,6.65-2.83,9.75-4.66,2.55-1.5,2.62-3.36,.33-5.51-3.58-3.36-7.96-2.5-12.16-2.71q-4.22-9.04-10.85-8.09c.57-3.23-1.34-5.04-3.92-6.1-2.74-1.13-5.58-2.18-8.48-2.66-4.02-.66-6.68-3.04-8.57-6.19-4.8-7.98-7.93-16.67-10.1-25.71-1.86-7.72-2.75-15.59-3.45-23.49,.46-1.14,1.16-1.99,2.52-1.91,2.11,.12,4.53-.19,4.22-2.7-.29-2.35-3.12-.57-4.58-1.46,.18-.58,.21-1.1-.49-1.36-.05-1.92-.1-3.83-.16-5.75,1.97-2.93-.31-7.19,3.04-9.69,.61,.24,1.56,.31,1.78,.75,4.26,8.38,12.89,9.63,20.48,12.17,10.71,3.58,20.36,8.73,28.93,16.04,6.02,5.14,8.93,12.09,10.45,19.4,2.81,13.58,4.84,27.32,7.21,40.99,.65,3.74,1.38,7.47,2,11.22,.53,3.22-.62,5.5-3.9,6.49-1.11,.33-2.18,.79-3.26,1.22-7.42,2.91-12.41,7.24-13.11,16.18-.54,6.85-2.06,13.68-2.51,20.6-2.67,17.93-4.05,35.95-3.03,54.05,.53,9.37,.89,18.85,3.87,27.92,.22,9.17,3.22,17.87,4.52,26.87,2.21,15.37,4.86,30.66,6.58,46.11,1.89,17.02,1.99,34.08,2,51.17,0,3.12,.75,6.24,.84,9.37,.16,5.02,1.66,10.53-4.13,13.8Z"/>
      <path class="cls-9" d="M771.36,660.86c-.16-1.33-.32-2.65-.48-3.98,1.44-.1,2.93,.27,4.08-1.21,2.01-2.6,2.52-1.07,4.05,.95,2.76,3.65,6.72,6.37,8.49,10.88,.15,.38,1.54,.26,2.35,.38,6.97,24.25,14.17,48.45,20.88,72.77,11.31,41.01,19.83,82.63,25.91,124.74,.88,6.06,1.12,12.22,1.65,18.33-3.09,.72-3.45,2.89-3.48,5.67-.13,12.26,.22,24.47,3.05,36.48-21.91,.95-43.83,.97-65.76,.96-5.15-24.56-3.2-49.25-1.68-73.99,2.08-33.81,7.35-67.36,8.53-101.22,.74-21.25,.17-42.55-3.54-63.63-1.35-7.68-2.37-15.42-3.54-23.13,1.07-.14,2.01-.47,1.83-1.81-.17-1.34-1.1-1.96-2.35-2.21Z"/>
      <path class="cls-12" d="M837.87,925.88c-2.84-12.01-3.18-24.22-3.05-36.48,.03-2.78,.39-4.96,3.48-5.67,1.51,14.62,4.58,28.94,8.64,43.05-3.02-.36-6.2,.96-9.07-.9Z"/>
      <path class="cls-4" d="M951.46,899.2c10.86-14.47,18.18-30.95,26.6-46.8-6.23,17.1-13.66,33.52-26.6,46.8Z"/>
      <path class="cls-4" d="M979.85,848.28c-.64-3.08,1.14-5.41,2.02-8.01,2.08-6.1,4.15-12.19,5.55-18.5,.24-1.08,.23-3.17,2.2-2.6,1.79,.52,.44,1.99,.21,2.93-2.2,9.14-5.69,17.81-9.99,26.17Z"/>
      <path class="cls-4" d="M933.12,916.86c5.85-4.96,10.96-10.72,17.16-16.92-1.41,5.89-9.29,13.72-17.16,16.92Z"/>
      <path class="cls-4" d="M919.27,922.37c3.17-1.34,6.33-2.68,9.51-4.01,.91-.38,1.99-.92,2.54,.32,.4,.91-.45,1.63-1.21,1.88-3.49,1.17-7.01,2.23-10.53,3.32-.1-.51-.2-1.02-.3-1.52Z"/>
      <path class="cls-16" d="M922.15,436.9c-.27-7.44-.94-14.79-4.87-21.4,9.58,3.62,17.85,.07,25.9-4.69,.81,1.62,1.61,3.25,2.44,4.87,8.71,17.01,15.55,35.63,36.35,42.22,6.09,14.54-5.25,31.55-21.14,31.74-2.77,.03-3.23-1.62-3.27-3.89-.08-4.43,2-8.67,1.22-13.54-3.48,1.67-6.65,4.02-10.43,2.72-4.43-1.51-1.46-6.4-4.22-9.76-.82,6.76-1.86,12.71-6.24,17.57-7.29,8.08-17.2,9.89-24.78,4.03-1.71-1.32-3.76-2.7-1.34-5.16,9.57-9.73,10.38-22.21,10.83-34.76,.12-3.31-.28-6.63-.44-9.95Z"/>
      <path class="cls-6" d="M981.97,457.91c-20.8-6.6-27.64-25.22-36.35-42.22-.83-1.61-1.62-3.24-2.43-4.87,1.74-1.28,3.41-2.65,5.21-3.83,9.91-6.48,19.06-13.85,27.43-22.26,4.44-4.46,7.95-9.78,12.98-13.65,0,3.88,2.72,6.7,3.96,10.1,5.37,14.66,10.73,29.54,10.55,45.2-.12,10.53,.04,22.28-10.6,29.53-3.54,.93-6.94,2.57-10.76,1.99Z"/>
      <path class="cls-10" d="M998.8,728.87c.62,4.92-3.21,7.32-6.28,9.4-9.57,6.49-19.02,13.1-27.95,20.44-1.62,1.33-2.77,2.71-4.94,.58-2.16-2.12-1.7-3.89-.46-6.17,2.66-4.88,6.6-8.56,10.86-11.91,7.42-5.84,15.21-11.19,23.56-15.61,4.72-2.51,5.29-1.94,5.22,3.27Z"/>
      <path class="cls-3" d="M40.69,276.82c4.79-4.1,4.1-9.87,4.49-15.22,.55-7.43-.9-14.92,.7-22.33,.28-1.32-.7-2.12-1.76-2.73,0-.48,0-.96,.01-1.44,1.62-7.5,.24-15.23,1.81-22.77,.85-4.06,.54-7.45-5.27-7.72-5.59-.26-11.16-1.85-16.78-1.52-3.74,.22-5.28-1.34-5.42-4.63-.21-4.98-.61-10.01-.13-14.95,1.38-14.29,.53-28.57,.47-42.86-.02-4.46,.2-8.92,.27-13.38,.03-1.72,1.16-2.29,2.55-2.52,1.63-.28,3.27-.59,4.91-.6,22.82-.04,45.63,.05,68.45-.09,3.71-.02,5.22,.7,5.2,4.9-.16,53.96-.12,107.92-.14,161.88,0,.76-.1,1.52-.19,2.87-10.4-7.56-21.44-12.28-33.6-14.09-6.22-.93-12.47-1.83-18.8-1.64-2.33,.07-4.68,.12-6.78-1.18Z"/>
      <path class="cls-12" d="M77.14,417.95c2.91-2.71,2.19-6.75,3.57-10.09,3.83-9.23,8.3-17.98,14.37-25.91,.69-.69,1.41-1.35,2.06-2.07,7.48-8.27,15.7-15.68,24.96-21.93,1.76,3.81,2.73,7.81,3.02,11.99-1.92,1.3-3.92,2.51-5.76,3.93-7.11,5.47-14.06,11.1-19.12,18.71-5.71,8.61-7.54,18.29-8.17,28.32-.14,2.17-2.55,5.12-.06,6.29,2.07,.97,3.63-2.33,5.15-3.92,9.9-10.46,20.74-19.51,34.03-25.55,16.87-7.67,34.87-8.58,52.88-9.74,0,1.49,.01,2.98,.02,4.48-1.75,1.03-1.37,3.36-2.78,4.59-18.46,.38-35.82,4.7-52.72,12.44-22.28,10.2-38.47,41.22-33.7,62.65,3.86,17.33,8.02,34.47,15.22,50.75l-13.99,6.07c-6.67-17.22-12.94-34.56-15.03-53.07-1.09-9.65-2.06-19.31-3.09-28.97-1.48-9.62-.72-19.31-.87-28.97Z"/>
      <path class="cls-9" d="M193.12,373.36s.11,.44,.11,.44c-2.52,1.32-5.13,2.18-8.03,2.18-14.08-.03-28.15,.07-42.23,0-6.58-.03-11.63-4.06-12.88-9.97,2.67-.18,4.59-1.95,6.53-3.4,15-11.14,30.55-21.42,47.01-30.28,2.86-1.54,5.85-3.12,9.26-3.31,.11,14.28,.21,28.57,.32,42.85-.03,.5-.06,.99-.09,1.49Z"/>
      <path class="cls-9" d="M184.07,387.98c-18.01,1.16-36.01,2.07-52.88,9.74-13.29,6.04-24.13,15.1-34.03,25.55-1.51,1.6-3.08,4.89-5.15,3.92-2.49-1.17-.08-4.12,.06-6.29,.62-10.04,2.45-19.72,8.17-28.32,5.05-7.61,12.01-13.24,19.12-18.71,1.84-1.42,3.84-2.62,5.76-3.93,2.59,3.88,3.28,9.11,8.53,10.94-1.62,2.1-5.34-.13-5.08,2.51,.3,3.02,3.59,1.6,5.4,1.49,13.21-.78,26.4-2,39.62-2.72,7.47-.41,14.98-.13,22.47-.16,0,.98,0,1.96,0,2.93-4.42-.67-8.17,1.3-11.98,3.04Z"/>
      <path class="cls-12" d="M192.89,329.02c-3.41,.19-6.4,1.77-9.26,3.31-16.46,8.86-32.01,19.14-47.01,30.28-1.95,1.45-3.87,3.21-6.53,3.4-3.08-4.61-2.87-9.86-2.96-15.06,2.9-.62,4.74-2.91,6.98-4.53,17.45-12.58,36.08-23,56.08-30.93,.9-.36,1.94-.32,2.92-.47,4.37,1.21,7.47-2.16,11.2-3.23,2.62-.76,5-2.33,7.77-2.78-.21,2.49,.22,4.75,2.34,6.39-5.35,3.58-11.14,6.51-17.22,8.31-3.33,.99-4.29,2.38-4.31,5.31Z"/>
      <path class="cls-4" d="M196.06,384.94c0-.98,0-1.96,0-2.93,.72-.33,1.44-.93,2.17-.95,11.56-.39,23.19-1.6,34.67-.79,11.43,.8,22.82,.31,34.21,.75,.02,1.31,.05,2.63,.07,3.94-10.52,.33-21.03,.81-31.55,.96-11.64,.17-23.28,.06-34.91,.02-1.59,0-3.37,.55-4.67-.99Z"/>
      <path class="cls-4" d="M122.1,357.95c-9.26,6.24-17.48,13.66-24.96,21.93-.65,.72-1.37,1.38-2.06,2.07-.59-3.22,.72-5.95,2.8-8.1,6.87-7.1,13.91-14.04,20.94-20.98,.53-.52,1.48-.61,2.23-.9,1.25,1.83,1.07,3.92,1.05,5.98Z"/>
      <path class="cls-9" d="M44.13,235.09c0,.48,0,.96-.01,1.44-3.4,.93-6.7-.45-10.05-.43-.2-.99-1.52-2.5,.18-2.82,2.25-.43,4.54-2.38,6.94-.5,.98,.77,1.37,2.29,2.95,2.31Z"/>
      <path class="cls-2" d="M988.81,371.08c-5.03,3.87-8.54,9.19-12.98,13.65-8.38,8.41-17.52,15.78-27.43,22.26-1.8,1.18-3.47,2.55-5.21,3.83-8.06,4.76-16.33,8.31-25.91,4.69-9.1-4.6-15.97-11.43-20.64-20.49,2.98-2.53,.19-5.6,.78-8.42,1.69-8.1-.4-15.93-3.21-23.35-4.84-12.81-7.76-25.89-8.49-39.58-.48-8.94,.33-17.83,.09-26.74-.32-11.87,2.69-22.95,7.81-33.56,3.99-8.27,9.21-15.37,15.78-22.02,6.85-6.93,13.19-14.3,20.87-20.43,2.77-2.21,6.79-3.25,8.54-8.02-7.7,3.71-13.89,7.93-19.02,13.63-3.18,3.54-5.86,3.32-8.21-.82,6.9-7.73,15.89-12.78,24.24-18.6,3.18-2.22,5.35-4.53,6.3-8.14,8.31-8.12,19.25-7.67,29.62-9.05,2.13-.28,3.05,.81,2.9,2.91-.04,.49,0,.99,0,1.49,.05,3.14-.75,6.66,.4,9.33,1.24,2.85,5.62,1.04,7.98,2.64,6.93,4.69,14.73,7.4,22.34,10.6,2.39,1.01,4.56,2.98,5.46,5.57,1.09,3.11,3.3,5.27,5.42,7.57,1.17,10.84-.69,21.55-1.31,32.32-.09,1.51-.15,2.91,.27,4.41,7.89,28.24,3.47,54.9-10.19,80.46-4.57,8.55-10.16,16.34-16.2,23.85Zm-90.38-63.65c4.41-3.43,9.24-6.25,13.36-9.96,7.14-6.42,15.39-10.54,24.43-13.7,6.03-2.1,12.25-.79,18.13-2.52,3-.89,3.6-.53,3,2.87-2.58,14.66-8.51,28.22-13.24,42.18-2.46,7.26-6.5,12.58-14.97,12.8-.8,.02-1.62,.41-2.36,.76-1.87,.89-5.58,.7-5.23,2.79,.48,2.87,3.96,1.34,5.97,1.22,4.13-.25,5.36,1.09,5.39,5.3,.08,10.03-2.43,18.93-9.92,26.46,9-1.29,15.59-9.32,15.83-18.67,.16-6.32-1.53-13.08,4.8-17.83,.9-.67,1.06-2.38,1.46-3.65,1.05-3.32,1.7-6.81,3.1-9.97,8.66-19.41,13.88-39.65,15.9-60.82,.31-3.23-.18-6.99,2.14-10.07-.34,10.79,2.49,20.83,6.77,30.4,4.3,9.6,9.73,18.65,14.32,28.16-.77-6.54-2.87-12.59-6.06-18.21-5.71-10.05-9.67-20.8-11.85-32.08-1.21-6.28-3.12-12.7-2.21-19.11,.71-5.01,.33-9.95,.6-14.91,.05-.93,.2-2.25-1.18-2.33-1.16-.07-1.63,.99-1.76,2.03-.71,6.08-1.76,12.14-1.99,18.24-.35,9.14-1.94,18.09-3.29,27.09-.4,2.69-1.62,4.31-4.96,4.15-11.55-.55-22.25,2.41-32.33,8.09-9.51,5.36-17.28,12.59-23.87,21.26Z"/>
      <path class="cls-7" d="M1001.59,168.08c.79,.59,1.58,1.18,2.38,1.78-.07,2.45-.14,4.91-.21,7.36-1.57,.11-3.14,.22-4.71,.33-2.55-.25-4.77-1.23-6.78-2.82-2.46-1.94-5.13-3.81-.27-6.66-2.4,0-4.8,0-7.2,0,2.8-4.2,6.21-3.28,9.69-1.07,2.24,1.42,4.43,2.7,7.1,1.08Z"/>
      <path class="cls-7" d="M964.43,172.04c3.48-.36,7.31,.5,11.09,1.77,.93,.31,2.06,.48,2.1,1.73,.03,1.21-1.03,1.65-1.95,1.95-.92,.3-2.11,.74-2.86,.4-4.41-2-9.2-2.1-13.82-3.03-.84-.17-1.72-.66-1.73-1.52-.02-1.4,1.22-1.27,2.18-1.29,1.48-.03,2.97,0,5,0Z"/>
      <path class="cls-3" d="M999.04,177.55c1.57-.11,3.14-.22,4.71-.33,.11,3.33-1.94,5.45-4.15,7.49-1.2,1.1-2.5,1.78-3.91,.5-1.45-1.32-.8-2.61,.28-3.86,1.07-1.23,2.05-2.53,3.08-3.81Z"/>
      <path class="cls-7" d="M32.93,267.5c0-5.87,0-11.75,0-17.62,0-1.58,.15-2.85-2.28-2.75-4.97,.21-6.48-2.6-4.36-7.65,1.63,.6,.71,1.9,.83,2.92,.18,1.52,1.14,2.36,2.59,2.61,1.44,.24,1.97-.68,2.48-1.87,1.25-2.95,3-5.16,6.79-4.15,1.68,.45,2.74,1.17,.96,2.5-5.75,4.29-5.01,10.39-4.93,16.37,.04,3.21,0,6.42,0,9.64l-2.09,.02Z"/>
      <path class="cls-7" d="M5.14,245c-3.17,.06-3.06-2.02-2.97-4.77,1.77,1.26,4.1,1.11,3.92,3.81,0,0,.04-.04,.04-.04-.35,.35-.7,.69-1.04,1.04l.05-.05Z"/>
      <path class="cls-15" d="M751.87,926.82c-.99,.7-1.98,1.4-2.97,2.11-1.53-.4-2.97-.87-2.11-2.96,.61-1.48,1.72-2.71,3.27-2.6,2.01,.14,1.63,2.06,1.81,3.46Z"/>
      <path class="cls-8" d="M5.8,255.76c.07-.32,.14-.64,.21-.96,6.73,.19,8.07,1.42,6.01,5.6-1.19,2.4-3.24,3.12-5.8,2.45-.14-2.36-.28-4.72-.41-7.08Z"/>
      <path class="cls-8" d="M5.09,245.04c.35-.35,.7-.69,1.04-1.04-.35,.35-.7,.69-1.04,1.04Z"/>
      <path class="cls-8" d="M563.88,404.9c.7,1.02,1.4,2.04,2.1,3.05-9.2,2.77-18.37,5.61-27.6,8.28-2.8,.81-3.46,1.87-2.65,4.92,6.06,22.63,14.45,44.49,21.71,66.71,5.92,18.11,12.43,36.04,17.95,54.27,8.49,27.99,16.24,56.23,21.26,85.07,2.9,16.65,4.39,33.61,3.13,50.54-.86,11.52-1.8,23.38-6.2,34.05-9.86,23.88-26.27,40.18-53.35,44.25-25.86,3.89-50.32-.91-74.61-8.8-30.95-10.05-60.23-23.66-87-42.18-16.21-11.21-32.03-23.17-45.88-37.22-13.6-13.8-25.68-28.77-34.82-46.29-7.02-13.46-12.48-27.32-17.27-41.57-1.15-3.42-1.69-7.06-2.5-10.59,15.67,.08,31.35,.15,47.02,.23,.85,.48,1.71,.96,2.56,1.43,.22,.58,.44,1.14,1.24,.98l-.16,.02c8.57,11.29,19.13,20.53,30.33,29.07,2.03,1.55,3.81,.13,5.3-1.2,16.31-14.66,32.53-29.32,41.58-50.1,3.37-7.74,7.55-14.99,8.41-23.71,1.17-11.91-4.1-23.35-14.72-28.71-10.25-5.18-21.03-3.78-30.11,1.85-8.39,5.2-14.31,4.47-22.13-.86-9.4-6.41-26.74-5.31-34.8,4.48-9.13,11.09-9.04,23.08-4.62,35.66,3.14,8.96,8.35,16.91,13.16,25.04-14.73,.21-29.47,.46-44.18-.63-1.45-6.23-.99-12.44-.36-18.77,.8-8.06,1.28-16.15,2.11-24.23,1.69-16.56,5.06-32.66,9.55-48.64,5.09-18.07,11.82-35.4,19.94-52.35,7.08-14.77,14.28-29.48,21.42-44.22,5.71-11.78,11.81-23.38,17.48-35.18,8.99-18.71,17.56-37.62,26.19-56.5,2.96-6.47,5.4-13.42,10.19-18.98,.47,10.63-.13,21.25-.28,31.88-.42,29.11-.28,58.24-.35,87.35-.02,6.56,.01,6.57,6.71,6.57,42.43,0,84.86,0,127.29,0,1.99,0,3.97,.21,5.96,.32,1.26,6.42,5.37,11.66,7.42,17.71,1.88,5.55,5.12,6.12,10.04,4.45,7.79-2.65,15.68-4.98,23.53-7.45Z"/>
      <path class="cls-7" d="M522.89,390.2c-1.99-.11-3.97-.32-5.96-.32-42.43-.02-84.86,0-127.29,0-6.69,0-6.72,0-6.71-6.57,.07-29.12-.07-58.24,.35-87.35,.15-10.63,.75-21.25,.28-31.88-1.11-12.88-.32-25.79-.51-38.68-.07-4.55,3.11-5.29,6.72-5.33,11.76-.12,23.52-.24,35.29-.35,7.28-.02,14.55-.04,21.83-.05,14.82,.1,29.64,.38,44.46,.23,12.16-.12,24.27,.59,36.4,1.05,.69,.3,1.37,.6,2.06,.9,1.7,3.09,4.47,5.56,5.24,9.18-2.9-.82-5.85-1.18-8.85-.95-18.45,1.42-36.98,2.2-55.24,5.36-3.35,.58-7.97-.89-10.06,3.67-2.3-.19-4.68-.08-6.88-.64-6.18-1.56-12.46-1.88-18.72-1.36-7.88,.65-14.63,4.14-17.86,11.49-3.04,6.92-2.53,14,2.43,20.54,4.43,5.83,10.31,8.55,17.14,9.92,3.89,2.21,8.74,2.32,12.18,5.53-8.96,2.23-14.91,8.6-20.09,15.52-5.16,6.9-6.34,15.34-3.22,23.13,4.98,12.44,17.47,13.6,27.89,5.48,4.04-3.15,7.95-7.43,13.59-4.29,5.61,3.13,10.82,7.02,16.13,10.68,6.34,4.38,11.94,9.84,19.14,12.94,.54,1.61,1.7,2.2,3.32,2.02h-.08c.46,2.44,2.57,3.22,4.31,4.5,12.56,9.23,26.51,16.63,37.11,28.42,1.56,1.74,3.31,3.3,3.87,5.69-9.31,2.54-18.85,.66-28.25,1.53Z"/>
      <path class="cls-13" d="M192.59,834.84c.1-16.63,.33-33.27,.27-49.9-.07-17.59-.51-35.19-.63-52.78-.13-19.44-.07-38.88-.11-58.32,0-1.33-.14-2.65-.22-3.98,.52-13.04-.49-26.13,1.17-39.15,.48-3.73,.45-7.53,2.17-11,7.67,11.82,14.26,24.3,22.05,36.07,8.01,12.09,17.37,23.03,26.85,33.91,1.09,1.25,2.07,2.58,3.11,3.88-.22,29.28-.46,58.57,.79,87.84,.35,8.12-.82,16.29,.81,24.36-1.11,17.37-.87,34.74-.2,52.12-.21,8.47-.25,16.95-.67,25.41-.58,11.68-3.52,22.26-14.04,29.31-9.3,6.23-18.91,5.57-28.48,1.29-8.51-3.8-12.02-11.46-12.29-20.17-.49-15.46-.22-30.95-.3-46.42-.02-4.15-.18-8.31-.27-12.46Z"/>
      <path class="cls-9" d="M110.11,522.89c-7.21-16.28-11.36-33.42-15.22-50.75-4.77-21.42,11.42-52.44,33.7-62.65,16.9-7.74,34.25-12.06,52.72-12.44-2.02,10.99-6.52,21.26-9.1,32.1-3.93,16.52-6.69,33.21-7.29,50.18-.93,26.37,1.35,52.44,7.94,78.07,.29,1.12,.39,2.29,.58,3.44-12.29,.01-23.73-3.89-35.17-7.74-11.99-4.03-12.15-4.31-12.17-16.65-.02-12.5-2.64-14.87-14.98-13.55-.33,.04-.66,0-1,0Z"/>
      <path class="cls-13" d="M315.67,788.63c-1,9.94-.42,19.91-.46,29.87-.09,22.95,.06,45.9-.07,68.84-.05,8.56-2.61,16.22-8.77,22.6-8.75,9.07-19.41,8.66-29.96,5.55-10.33-3.04-14.82-11.68-16.4-21.83-1.7-10.9-.4-21.9-.95-32.85,.03-18.99,.06-37.97,.09-56.96,1.22-1.64,.71-3.54,.69-5.31-.17-10.25-.52-20.5-.64-30.75-.21-17.62-.29-35.23-.42-52.85,.1-3.12,.2-6.24,.3-9.36,6.05,5.66,12.07,11.34,18.17,16.95,1.63,1.5,2.09,3.25,2.03,5.35-.39,12.79,.73,25.56,.86,38.33,.08,8.24,3.85,13.33,10.95,16.63,7.81,3.62,16.2,4.71,24.6,5.78Z"/>
      <path class="cls-16" d="M254.18,252.02c-6.07-2.58-10.15-7.78-15.18-11.72-10.28-8.06-20.17-16.62-30.12-25.08-4.11-3.49-6.36-7.53-7.14-13.45-1.65-12.5,5.03-19.06,14.25-24.7,10.06-6.16,9.77-5.76,20.22,1.31,10.77,7.29,22.11,13.74,33.32,20.37,9.41,5.57,18.99,10.86,28.5,16.28-10.77,13.5-20.36,27.68-26.2,44.12-2.07,5.82-2.5,11.94-3.65,17.93-3-1.82-3.41-5.12-4.61-7.98-1.18-2.84-1.76-6.16-5.42-7.12-1.29-3.33-1.54-7.07-3.96-9.95Z"/>
      <path class="cls-10" d="M110.11,522.89c.33,0,.67,.04,1,0,12.34-1.32,14.96,1.05,14.98,13.55,.02,12.35,.18,12.62,12.17,16.65,11.44,3.84,22.88,7.75,35.17,7.74,3.02,2.27,6.45,.68,9.57,.68,28.29,0,56.58,1.14,84.86,.2,2.58-.09,4.28,.87,4.11,3.68-.17,2.94,.56,5.72,1.87,8.18,2.3,4.32,.45,5.06-3.47,4.99-30.44-.53-60.89,1.07-91.32-.64-15.26-4.28-31.04-6.7-45.94-12.24-9.3-3.46-18.57-6.88-28.18-9.42-12.98-3.44-16.55-15.3-9.16-25.87,.26-.38,.25-.95,.36-1.43,4.66-2.02,9.32-4.05,13.99-6.07Z"/>
      <path class="cls-13" d="M192.89,329.02c.02-2.94,.98-4.32,4.31-5.31,6.08-1.81,11.87-4.73,17.22-8.32,10.22-3.78,20.26-8.03,30.39-12.04,11.63-4.6,9.1-5.09,9.38,5.56,.02,.66,.02,1.33,.03,1.99-.44,6.02-.87,12.04-1.31,18.06-9.97,5.59-20.55,10.01-29.97,16.7-10.74,7.63-20.04,16.73-28.97,26.29-.26-.05-.52-.08-.78-.09-.11-14.28-.21-28.57-.32-42.85Z"/>
      <path class="cls-13" d="M483.86,188.86c5.02-3.46,9.74-7.43,15.4-9.86,3.79-1.63,6.59-4.18,8.89-7.65,3.32-5,6.98-10.3,14.07-9.28,7.28,1.05,12.31,5.04,16.02,11.87,4.83,8.91,2.24,13.22-5.35,18.74-1.48,1.08-3.94,1.51-3.71,4.18-2.15,1.75-4.52,2.81-7.32,1.95-4.26-1.3-8.74-1.35-13.08-2.32-3.3-.74-7.2-2.56-10.86-.38-4.68-2.41-9.37-4.83-14.05-7.24Z"/>
      <path class="cls-16" d="M497.91,196.1c3.66-2.17,7.56-.36,10.86,.38,4.34,.98,8.82,1.02,13.08,2.32,2.8,.86,5.17-.2,7.32-1.95,10.18-.92,20.33-1.58,30.53,.04,2.69,.43,3.2,1.48,3.15,3.88-.15,7.32-.1,14.65-.13,21.97-3.45-.07-7.01,2.24-10.21,.68-3.58-1.74-7.03-1.37-10.63-1.19-4.03-.14-8.05-.27-12.08-.41-.69-.3-1.37-.6-2.06-.9-6.9-8.31-15.84-14.24-24.32-20.69-1.83-1.39-3.68-2.75-5.52-4.13Z"/>
      <path class="cls-12" d="M258.76,714.94c.13,17.62,.21,35.23,.42,52.85,.12,10.25,.47,20.5,.64,30.75,.03,1.78,.53,3.68-.69,5.31-2.35-.55-4.72-1.89-6.53,1.24-.71,1.22-2.45,.65-3.76,.66-1.63-8.07-.46-16.24-.81-24.36-1.25-29.27-1.01-58.55-.79-87.84,2.25,1.12,3.43,3.26,4.89,5.14-.94,17.91,1.1,35.76,.94,53.65,0,1.04-.54,2.73,1.05,2.87,1.79,.16,1.9-1.56,1.87-2.86-.1-4.4,1.13-8.65,.22-13.23-1.37-6.92,1.37-14.06-.13-21.13-.4-1.88,.32-3.31,2.67-3.06Z"/>
      <path class="cls-13" d="M428.24,137.97c11.25,1.37,20.8,12.97,19.46,24.21-.63,5.33-.4,10.61-.51,15.91-7.61-.51-14.95-2.68-22.47-3.77-2.71-.39-2.92-1.84-2.47-4.19,2.07-10.71,4-21.44,5.98-32.17Z"/>
      <path class="cls-8" d="M446.89,219.65c-7.28,.02-14.55,.04-21.83,.05,.78-12.01,1.31-24.07,4.23-35.81,.55-2.21,1.13-5.5,4.13-5.59,2.72-.09,4.11,2.56,5.07,4.88,4.82,11.68,7.36,23.9,8.4,36.46Z"/>
      <path class="cls-10" d="M196.06,384.94c1.3,1.54,3.08,.98,4.67,.99,11.64,.04,23.28,.15,34.91-.02,10.52-.15,21.03-.63,31.55-.96q.65,7.84-6.8,7.83c-23.61-.02-47.22-.02-70.83-.05-1.82,0-3.64-.17-5.46-.26,0-1.49-.01-2.98-.02-4.48,3.81-1.74,7.56-3.71,11.98-3.04Z"/>
      <path class="cls-5" d="M254.23,310.9c0-.66-.01-1.33-.03-1.99-.28-10.65,2.25-10.16-9.38-5.56-10.13,4-20.17,8.26-30.39,12.04-2.12-1.64-2.55-3.9-2.33-6.39,12.47-5.37,24.92-10.78,38.12-14.2,2.24-.58,3.68-1.62,3.68-4.45-.03-12.77,.17-25.55,.29-38.32,2.42,2.88,2.66,6.62,3.96,9.95-.04,8.6,.07,17.2-.19,25.8-.13,4.46,1.5,4.74,4.94,3,1.59-.81,3.43-1.12,5.16-1.66-.12,1.28-.24,2.55-.36,3.83-10.18,3.89-10.62,4.51-10.8,15.06,0,.33-.05,.66-.08,.99-.86,.64-1.14,2.06-2.59,1.9Z"/>
      <path class="cls-8" d="M333.02,763.89c-3.19,3.42-6.06,7.16-9.81,10.04-12.83,1.3-20.93-9.93-21.27-20.48-.09-2.78-.81-5.55-1.36-8.3-.19-.96-.9-2.03,.09-2.72,.93-.65,2,.11,2.72,.69,7.63,6.16,16.58,10.33,24.39,16.19,1.8,1.35,5.28,1.08,5.23,4.58Z"/>
      <path class="cls-13" d="M256.81,309c.03-.33,.08-.66,.08-.99,.18-10.56,.61-11.17,10.8-15.06,.08,9.12,.08,18.25,.29,27.37,.06,2.68-1.11,3.92-3.46,4.66-2.84,.89-5.62,1.94-8.43,2.92,.24-6.3,.48-12.6,.72-18.9Z"/>
      <path class="cls-16" d="M325.17,569.62c-15.67-.08-31.35-.15-47.02-.23-4.94-3.04-5.09-3.87-1.13-6.47,14.71,1.09,29.45,.84,44.18,.63,.59,.46,1.17,.93,1.76,1.39,.74,1.56,1.47,3.11,2.21,4.67Z"/>
      <path class="cls-10" d="M258.76,714.94c-2.34-.25-3.07,1.18-2.67,3.06,1.5,7.07-1.24,14.21,.13,21.13,.91,4.58-.32,8.83-.22,13.23,.03,1.31-.08,3.02-1.87,2.86-1.59-.14-1.06-1.84-1.05-2.87,.15-17.89-1.88-35.75-.94-53.65,2.31,2.3,4.62,4.59,6.93,6.89-.1,3.12-.2,6.24-.3,9.36Z"/>
      <path class="cls-13" d="M268.05,289.11c-1.73,.54-3.56,.86-5.16,1.66-3.44,1.74-5.08,1.45-4.94-3,.26-8.59,.15-17.2,.19-25.8,3.66,.96,4.24,4.28,5.42,7.11,1.2,2.86,1.61,6.17,4.61,7.98-.04,4.01-.08,8.02-.12,12.04Z"/>
      <path class="cls-12" d="M256.81,309c-.24,6.3-.48,12.6-.72,18.9-.84,1-2,1.05-3.17,1.07,.43-6.02,.87-12.04,1.31-18.06,1.45,.16,1.72-1.27,2.59-1.91Z"/>
      <path class="cls-10" d="M193.21,371.87c.26,.01,.52,.04,.78,.09-.29,.46-.58,.93-.87,1.39,.03-.49,.06-.99,.09-1.49Z"/>
      <path class="cls-6" d="M732.94,689.55c-12.66-.19-24.97-2.3-36.82-6.85-1.69-.65-3.42-1.16-5.14-1.73-6.53-4.19-9.35-10.38-10.1-17.92-2.13-21.38-2.43-42.81-1.87-64.24,.69-26.58,1.32-53.17,2.17-79.74,1.15-35.79,.27-71.57,.62-107.34,.03-3.13-.66-6.25-.88-9.39-.18-2.49-1.9-2.38-3.58-2.3-16.7,.81-32.23-3.89-47.22-10.53-16.27-7.2-31.59-16.08-45.23-27.64,.61-5.4,1.07-11.04,2.64-16.02,3.58-11.29,6.51-22.79,10.42-34.01,1.64-4.71,2.7-5.23,6.34-2.81,.63,3.75,4.71,2.98,6.62,5.05,.66,6.16,1.9,6.79,6.99,3.53,1.1-.7,2.49-1.07,2.95-2.52,8.26,1.78,16.08-1.09,23.92-2.66,28.09-5.63,55.43-14.69,83.8-19.01,9.83-1.5,19.59-3.12,29.24-5.48-.6,5.6-3.46,10.43-6.57,14.69-3.41,4.68-4.19,9.85-5.42,15.07-2.47,5.46-3.46,11.23-3.66,17.18-.31,3.44-.61,6.87-.92,10.31-2.07,18.12-3.93,36.23-4.7,54.49-1.13,26.78-.68,53.53-.57,80.3,.42,23.92,.79,47.83,1.26,71.75,.42,21.44,.97,42.87,1.44,64.31,.25,11.29,.46,22.58,.68,33.87-.39,.28-1.04,.5-1.13,.86-2.33,9.37-1.08,19-1.69,28.48-.27,4.19,1.78,8.23-3.6,10.31Z"/>
      <path class="cls-11" d="M604.29,309.04c-3.65-2.42-4.7-1.9-6.34,2.81-3.9,11.21-6.84,22.71-10.42,34.01-1.58,4.98-2.04,10.63-2.64,16.02-.67-.05-1.34-.09-2-.13-1.12-.66-2.25-1.32-3.37-1.97-7.46-8.03-17.01-13.61-24.81-21.25-1.4-1.37-2.98-2.55-4.48-3.82-6.09-5.01-12.18-10.03-18.28-15.05-4.51-7.15-10.32-12.89-17.92-16.73-7.58-8.13-16.8-14.48-24.36-22.66-3.9-4.22-6.84-4.3-11.91-1.53-4.34,2.36-8.57,5.12-13.79,5.2-.11-1.62-1.33-2.32-2.61-2.57-4.32-.87-8.65-2.06-13.01-2.18-3.77-.1-7.59-2.96-11.38-.14-6.83-1.37-12.71-4.09-17.14-9.92-4.97-6.53-5.47-13.61-2.43-20.54,3.23-7.36,9.98-10.85,17.86-11.49,6.27-.51,12.54-.2,18.72,1.36,2.21,.56,4.58,.45,6.88,.64,16.79,6.07,33.13,13.25,49.42,20.53,11.93,5.33,23.7,11.04,35.54,16.58,.37,.25,.73,.49,1.1,.74,.66,.37,1.32,.74,1.98,1.11,.2,2.06,1.63,3.09,3.27,4.03,4.54,2.61,9.04,5.29,13.56,7.94,2.07,.29,4.33-.31,6.1,1.32,.75,2.37,3.48,1.33,4.77,2.77,.24,.21,.4,.47,.49,.77-.04,.38-.08,.77-.12,1.15-1.12,1.99-3.69,2.93-3.99,5.54,1.35,1.08,2.47-.09,2.93-.81,1.89-3.01,6.44-1.69,8.03-5.48,1.45-3.46,3.89-6.5,5.87-9.73,.58-.95,1.11-1.93,2.57-2.6-.58,2.09-1.18,4.17-1.74,6.26-.55,2.05-1.05,4.12-1.75,6.88,6.34-3.01,8.42,1.25,10.7,5.38,1.43,2.6,3.11,5.06,4.68,7.58Zm-15.64-11.58c-.2-.16-.4-.46-.58-.45-.24,.01-.47,.27-.71,.42,.21,.16,.42,.45,.63,.46,.22,0,.45-.26,.67-.42Z"/>
      <path class="cls-1" d="M745.81,317.71c1.22-5.22,2.01-10.39,5.42-15.07,3.11-4.27,5.98-9.09,6.57-14.69,.22-.98,.44-1.96,.66-2.93,.71-.37,1.42-.75,2.14-1.12,.64-.09,1.39,0,1.91-.29,4.2-2.42,7.09-1.77,8.45,3.26,.5,1.87,1.87,3.03,3.9,3.2,2.22,1.57,4.64,1.61,6.69,.07,1.23-.92,2.06-2.66,.34-4.21l.04-3.68c-.31-3.47,1.44-4.67,4.74-4.77,4.27-.13,7.06-3.03,7.24-6.81,.4-8.43,.57-16.93-1.04-25.3-.3-1.58-1.27-3.04-1.92-4.56,.01-2.53-1.54-4.33-3.68-4.62-2.54-.34-5.26,.13-7.84,.57-8.26,1.41-16.45,.8-24.64-.57-.43-3.7-.78-7.42-3.07-10.58,.17,3.47,1.67,6.7,1.13,10.2-2.46,1.15-6.91,.72-4.5,5.71-2.7,1.06-3.57-1.05-3.38-2.72,.9-8.12-1.92-16.6,2.26-24.4,2.11-.64,2.55-2.26,2.75-4.24,.24-2.38,1.06-4.55,3.58-5.53,.68,.86,1.36,1.72,2.04,2.58-2.43,5.71-3.67,11.36,.88,16.39,.78-3.3,1.51-6.86,2.48-10.36,.69-2.49,2.05-3.61,5.11-4.2,9.44-1.81,17.09,1.78,24.85,6.21,9.15,5.22,18.56,9.99,27.85,14.96,1.9,3.44,3.18,6.96,1.54,10.9l-.1,.35c.02,.38-.16,.6-.54,.65-.29,.74-.59,1.47-.88,2.21,0,0,0,.28,0,.29-4.18-.28-7.18,.78-6.69,5.84-2.18,3.51-3.92,7.31-6.96,10.26-1.26,1.23-4.24,1.05-3.92,3.25,.35,2.45,3.5,1.04,4.95,2.33,.2,.18,.24,.55,.53,1.27-4.7-.31-5.31,3.32-6.26,6.51-.57,1.9-2.47,4.05-.02,5.85,3.08,2.27,1.41-3.35,3.9-2.43,1.04,1.98-.1,4.7,1.95,6.42,2.88,3.54,1.81,7.47,.96,11.27-1.15,5.14-3,10.17-1.89,15.58-1.82,2.5-.51,5.62-1.64,8.26-.78,.33-.69,1.01-.67,1.67-5.56,1.08-11.21,1.22-16.84,1.33-12.96,.25-25.95,.52-38.35-4.3Z"/>
      <path class="cls-1" d="M911.59,225.72c2.35,4.14,5.02,4.36,8.21,.82,5.13-5.7,11.32-9.92,19.02-13.63-1.75,4.77-5.77,5.81-8.54,8.02-7.68,6.12-14.03,13.49-20.87,20.43-6.57,6.65-11.78,13.75-15.78,22.02-5.13,10.61-8.13,21.69-7.81,33.56,.24,8.91-.57,17.8-.09,26.74,.73,13.69,3.65,26.77,8.49,39.58,2.8,7.42,4.9,15.25,3.21,23.35-.59,2.82,2.2,5.89-.78,8.42-7.8-10.53-13.42-22.27-17.15-34.68-5.91-19.64-10.36-39.63-8.45-60.41,1.25-13.56,5.85-26.2,10.8-38.75,1.24-1.07,1.19-2.61,1.5-4.03,3.67-5.95,8.1-11.35,12.4-16.83,3.83-2.2,6.41-5.78,9.16-9.01,1.99-2.34,4.18-4.07,6.7-5.59Z"/>
      <path class="cls-5" d="M545.85,276.2c-11.84-5.54-23.6-11.25-35.54-16.58-16.29-7.28-32.63-14.45-49.42-20.53,2.09-4.55,6.71-3.09,10.06-3.67,18.26-3.16,36.79-3.94,55.24-5.36,3-.23,5.96,.13,8.85,.95,0,0,.48-.02,.48-.02,0,0,.48,.02,.48,.02,.31,.34,.63,.67,.94,1.01,0,.33,.02,.65,.07,.98,1.6,9.73,4.99,19,7.2,28.56,1.1,4.75,1.12,9.74,1.64,14.63Z"/>
      <path class="cls-6" d="M818.3,241.1c1.64-3.94,.37-7.46-1.54-10.9-.53-2.79,4.14-1.35,3.5-4.45-.64-3.07-.43-6.34-1.79-9.22-4.8-10.18-11.67-18.63-22.36-22.79-11.85-4.6-23.96-6.74-35.58,1.1-3.11,2.7-5.7,5.77-6.98,9.78-2.52,.98-3.34,3.16-3.58,5.53-.2,1.98-.64,3.6-2.75,4.24-1.76-15.17,11.6-30.91,27.96-32.24,11.82-.96,23.59-.53,34.26,5.91,9.18,5.54,17.21,11.98,19.05,23.43,.26,1.62,.57,3.39,.2,4.94-2.07,8.71-6.07,16.65-10.17,24.54,0,0-.23,.13-.23,.13Z"/>
      <path class="cls-13" d="M677.17,134.82c-.98-7.06-.38-13.54,3.96-19.81,5.23-7.56,9.04-16.07,14.63-23.45,6.47,.91,8.93,6.83,13.18,10.51-3.18,4.98-3.79,11.29-7.79,15.76-4.04,4.51-8.49,8.67-12.84,12.89-1.99,1.93-3.71,4.23-6.41,5.32-1.65-.13-3.36-.02-4.73-1.23Z"/>
      <path class="cls-10" d="M883.33,257.15c-.31,1.41-.25,2.96-1.5,4.03-4.74-2.99-7.89-7.16-7.94-12.85-.23-25.29-1.76-50.57-.96-75.87,.18-5.69,.01-12,7.09-14.51,1.08-.38,2.23-.85,3.34-.84,10.59,.08,21.19-.93,31.78,.19-.87,2.09-2.46,3.53-4.26,4.79-.57-.31-1.2-.96-1.69-.87-7.41,1.31-14.96,.12-22.34,1.11-6.45,.86-7.97,3.19-8.03,9.84-.06,6.8-.52,13.59-.73,20.37-.54,17.62-.31,35.28-.12,52.91,.05,4.48,1.19,8.89,5.36,11.69Z"/>
      <path class="cls-7" d="M620.84,315.09c-.46,1.45-1.85,1.82-2.95,2.52-5.09,3.26-6.33,2.63-6.99-3.53,3.32-.85,2.11-3.54,1.72-5.29-4.36-19.29-4.3-39.2-8.33-58.54-.7-3.34,.53-6.99,.18-10.99,2.41,4.19,4.59,3.34,8.36,1.76,23.43-9.84,47.53-17.83,72.1-24.36,.38-.1,.85,.09,2.05,.24-3.93,2.97-8.04,3.63-11.86,4.95-20.38,7.05-41.47,12.03-61.23,20.95-2.91,1.31-4.02,2.16-3.54,6.02,2.18,17.42,5.38,34.77,5.33,52.41,0,3.87,.97,7.56,1.23,11.36,.2,2.89,2.2,2.35,3.93,2.51Z"/>
      <path class="cls-12" d="M708.94,102.06c-4.26-3.68-6.72-9.6-13.18-10.51,2.95-7.81,8.04-14.36,12.45-21.32,1.33-2.09,2.9-4.05,4.02-6.24,1.26-2.46,3.09-3.28,5.67-2.94-2.1,6.57,1.33,11.38,5.09,16.09-3.7,8.86-7.72,17.54-14.05,24.92Z"/>
      <path class="cls-4" d="M536.01,231.02s-.48-.02-.48-.02c0,0-.48,.02-.48,.02-.77-3.62-3.54-6.09-5.24-9.18,4.02,.14,8.05,.27,12.07,.41,6.29,4.32,12.73,8.38,20.05,10.78-.01,7.59,1.08,15.37-4.23,22.36-4.36-3.83-6.8-9.37-10.85-13.54-3.08-3.17-5.43-7.14-9.84-8.83-.04-.32-.07-.65-.07-.98-.31-.34-.63-.67-.94-1.01Z"/>
      <path class="cls-10" d="M803.31,310.75c-1.11-5.41,.74-10.43,1.89-15.58,.85-3.8,1.93-7.74-.96-11.27,1.94-3.47,2.97-7.21,3.68-11.13,.89-4.94,.62-10.23,3.86-14.56,.95-.02,1.96,.16,2.67-.73,1.13,9.7-.6,19.17-2.56,28.58-.55,2.62-1.26,5.15-.96,7.85-3.35,2.5-1.07,6.76-3.04,9.69-3.77,.94-3.2,4.67-4.59,7.14Z"/>
      <path class="cls-14" d="M754.79,236.18c8.18,1.37,16.37,1.98,24.64,.57,2.58-.44,5.3-.92,7.84-.57,2.14,.29,3.69,2.08,3.68,4.62-11.34,2.13-22.66,3.91-33.95-.36-2.99-1.13-5.54,2.52-8.66,1.07-2.4-4.98,2.05-4.56,4.5-5.71,.65,.13,1.29,.25,1.94,.38Z"/>
      <path class="cls-10" d="M677.17,134.82c1.37,1.2,3.08,1.1,4.73,1.23-2.5,6.54-7.25,11.75-10.74,17.71-5.16,8.81-11.46,16.97-16.22,26.08-1.39,2.65-3.61,4.53-6.59,6.49-.53-4.69,2.38-7.21,4.11-9.92,6.51-10.18,13.18-20.26,19.23-30.73,2.04-3.53,5.37-6.37,5.48-10.86Z"/>
      <path class="cls-10" d="M561.93,233.01c-7.33-2.4-13.76-6.45-20.05-10.78,3.6-.18,7.06-.54,10.63,1.2,3.2,1.56,6.76-.75,10.21-.68-.03,3.44,1.1,6.97-.79,10.26Z"/>
      <path class="cls-11" d="M781.94,282.23c-.01,1.23-.03,2.45-.04,3.68-1.71,2.46-3.79,4.29-7.03,4.13-2.04-.17-3.4-1.33-3.9-3.2-1.36-5.03-4.25-5.68-8.45-3.26-.52,.3-1.27,.21-1.91,.29,.13-.3,.18-.61,.14-.94,1.86-2.53,4.92-2.47,7.5-3.38,2.41-.86,1.11,2.78,3.52,3,3.46,.31,6.79,.17,10.17-.33Z"/>
      <path class="cls-7" d="M576.61,294.1c-1.29-1.43-4.02-.4-4.77-2.77,4.43-6.64,6.37-14.58,11.12-21.07,1.54-2.1,2.6-4.58,5.34-5.82-3.62,10.02-12.33,18.04-11.69,29.65Z"/>
      <path class="cls-5" d="M548.92,278.05c-.66-.37-1.32-.74-1.98-1.11,1.7-3.33-1.51-7.01,1.26-11.24,2.87,6.34,7.71,10.68,10.6,16.42-3.3-1.36-6.59-2.72-9.89-4.07Z"/>
      <path class="cls-14" d="M814.46,257.48c-.71,.89-1.72,.71-2.67,.73-1.92-2.3,.56-5.55-1.7-7.78-.49-5.06,2.51-6.12,6.69-5.84-1.4,4.18-2.19,8.48-2.33,12.89Z"/>
      <path class="cls-7" d="M548.92,278.05c3.3,1.36,6.6,2.72,9.89,4.07,2.4,2.55,7.29,2.91,6.93,7.89-4.52-2.65-9.02-5.33-13.56-7.94-1.64-.94-3.06-1.96-3.27-4.03Z"/>
      <path class="cls-6" d="M760.75,282.95c.03,.32-.02,.64-.14,.94-.71,.37-1.43,.75-2.14,1.12-1.63-.48-3.34-.85-3.66-2.95l.12-.12c1.93,.39,3.75,1.44,5.83,1.01Z"/>
      <path class="cls-14" d="M816.78,244.3c.29-.74,.59-1.47,.88-2.21-.29,.74-.59,1.47-.88,2.21Z"/>
      <path class="cls-14" d="M818.3,241.1s.23-.13,.23-.13c-.27,.07-.39,.23-.34,.49,.01,0,.11-.36,.11-.36Z"/>
      <path class="cls-6" d="M754.81,282.05c-.12-.16-.24-.32-.36-.48,.16,.12,.32,.24,.47,.36,0,0-.12,.12-.12,.12Z"/>
      <path class="cls-7" d="M576.99,296.03c.04-.38,.08-.77,.12-1.15,.71,.46,.61,.84-.12,1.15Z"/>
      <path class="cls-9" d="M883.33,257.15c-4.18-2.8-5.32-7.21-5.36-11.69-.19-17.64-.42-35.29,.12-52.91,.21-6.78,.67-13.57,.73-20.37,.06-6.65,1.58-8.98,8.03-9.84,7.38-.99,14.93,.2,22.34-1.11,.5-.09,1.13,.56,1.69,.87-4.67,8.94-10.96,16.9-15.19,26.14-8,17.45-6.65,34.73,.05,52.09-4.31,5.49-8.74,10.88-12.4,16.83Z"/>
      <path class="cls-5" d="M463.99,283.93c5.22-.07,9.45-2.83,13.79-5.2,5.07-2.76,8.01-2.69,11.91,1.53,7.55,8.18,16.78,14.52,24.36,22.66,2.9,5.79,8.55,9.64,11.06,15.67,1.78,4.27,4.03,4.22,6.86,1.05,6.09,5.02,12.18,10.03,18.28,15.05-2.83,4.07-5.33,8.44-6.29,13.25-.98,4.93-5.71,5.51-8.33,8.46-.95,1.08-2.14-.33-2.86-1.16-8.48-9.92-18.35-18.66-25.53-29.69-.6-.92-.9-2.54-2.37-2-1.42,.53-.75,1.95-.53,3.04,1.43,7.21,6.58,12.08,11.1,17.28,4.76,5.49,10.14,10.45,14.23,16.51,.53,.78,.74,1.78,.69,3.27-5.27-3.92-11.71-5.52-16.82-9.59-2.3-1.83-4.3-4.25-7.67-4.03,0,0,.08,0,.08,0-.14-2.27-1.8-2.03-3.32-2.02-7.2-3.1-12.8-8.57-19.14-12.94-5.31-3.67-10.51-7.55-16.13-10.68-5.63-3.14-9.55,1.14-13.59,4.29-10.42,8.13-22.91,6.96-27.89-5.48-3.12-7.79-1.94-16.22,3.22-23.13,5.17-6.92,11.13-13.29,20.08-15.52,4.96,.21,9.94,.96,14.81-.65Z"/>
      <path class="cls-2" d="M522.89,390.2c9.4-.87,18.94,1.01,28.25-1.53,6.21,3.87,8.88,10.52,12.74,16.24-7.85,2.47-15.75,4.8-23.53,7.45-4.92,1.67-8.16,1.1-10.04-4.45-2.05-6.05-6.16-11.29-7.42-17.71Z"/>
      <path class="cls-4" d="M248.85,805.77c1.31-.01,3.05,.56,3.76-.66,1.81-3.13,4.19-1.79,6.53-1.24-.03,18.99-.06,37.97-.09,56.96-1.26-.11-3.13,.49-3.61-.78-1.45-3.81-4.3-2.23-6.79-2.16-.67-17.38-.91-34.75,.2-52.12Z"/>
      <path class="cls-5" d="M555.87,384.38c-.09,.69,.2,1.67-.8,2.05-.96,.36-1.55-.41-2.09-.99-4.89-5.21-10.26-10.4-12.64-17.04-1.35-3.78,.81-8.73,2.86-12.78,.59-1.18,1.4-2.25,2.13-3.36,.78-1.18,1.04-3.32,2.94-2.8,1.76,.47,3.33,2.01,3.5,3.9,.92,10.38,2.48,20.66,4.11,31.03Z"/>
      <path class="cls-7" d="M579.52,359.77c1.12,.66,2.25,1.32,3.37,1.97-1.11,9.87-1.75,19.76-2.23,29.68-.38,7.8-3.31,11.38-10.71,12.1,9.09-5.37,7.31-13.43,7.8-20.54,.54-7.74,.74-15.51,1.77-23.22Z"/>
      <path class="cls-13" d="M735.97,479.98c-.12-26.77-.56-53.52,.57-80.3,.77-18.26,2.63-36.37,4.7-54.49,.98-.03,2.01-.24,2.95-.05,15.83,3.22,31.74,4.85,47.88,2.85,1.77-.22,3.68-.41,5.27,.89-2.95,23.5-5.35,47.03-6.68,70.69-1.1,19.54-1.99,39.07-1.95,58.65,0,.98-.29,1.95-.44,2.93-17.46,.84-34.85-.91-52.28-1.18Z"/>
      <path class="cls-4" d="M789.86,667.88c-.81-.11-2.21,0-2.35-.38-1.77-4.51-5.73-7.23-8.49-10.88-1.53-2.02-2.04-3.55-4.05-.95-1.14,1.48-2.63,1.11-4.08,1.21-1.5-8.9-1.05-17.91-1.53-26.87-.08-1.49,.18-3.09-.26-4.47-3.14-9.81,3.01-15.19,10.19-21.21,1.46,21.99,7.3,42.54,10.57,63.55Z"/>
      <path class="cls-7" d="M732.94,689.55c5.38-2.08,3.34-6.12,3.6-10.31,.6-9.49-.64-19.12,1.69-28.48,.09-.36,.74-.57,1.13-.86,.68,10.43,1.46,20.83,2.92,31.2,.91,6.47-2.41,9.15-9.34,8.45Z"/>
      <path class="cls-4" d="M771.36,660.86c1.25,.24,2.18,.87,2.35,2.21,.18,1.34-.76,1.67-1.83,1.81-.46-1.3-1.1-2.58-.52-4.02Z"/>
      <path class="cls-10" d="M108.85,348.96c-.05,.11-.1,.22-.15,.33-.12-.15-.24-.31-.36-.46,.1-.06,.23-.18,.3-.15,.09,.03,.14,.19,.21,.29Z"/>
      <path class="cls-16" d="M745.81,317.71c12.4,4.82,25.39,4.55,38.35,4.3,5.63-.11,11.28-.26,16.84-1.33,2.52,2.76-.58,5.63,.16,8.42-.78,3.69-1.55,7.38-2.33,11.07-19.27,2.29-38.63,5.52-56.68-5.29,.2-5.94,1.19-11.72,3.66-17.18Z"/>
      <path class="cls-10" d="M801.16,329.1c-.75-2.79,2.36-5.66-.16-8.42-.02-.66-.1-1.34,.68-1.67,2.06,.3,2.67-2.45,4.7-2.22,.69,7.9,1.59,15.77,3.45,23.49,2.17,9.04,5.31,17.73,10.1,25.71,1.89,3.15,4.55,5.53,8.57,6.19,2.9,.47,5.75,1.53,8.48,2.66,2.58,1.06,4.49,2.86,3.92,6.1,2.74,3.41,4.43,7.14,5.22,11.58,.56,3.16,1.84,6.87,6.21,7.37,.5,.67,1,1.34,1.5,2.02-1.72,4.09-5.27,6.73-7.96,10.05-2.69,1.37-5.38,2.75-8.06,4.12-9.03-1.01-13.15-7.79-16.56-14.84-2.8-5.81-4.46-12.07-4.58-18.73-.11-6.32-2.04-12.12-5.19-17.83-5.59-10.12-7.94-21.39-9.42-32.81-.12-.95-.59-1.85-.89-2.77Zm38.75,65.61c.16-4.87-3.52-8.13-5.18-12.22-1.1-2.72-3.12-5.47-6.98-3.01-.97,.62-1.85-.18-2.73-.67-3.76-2.1-4.39-.11-3.94,3.12,.78,5.6,2.11,11.04,4.77,16.09,1.59,3.01,3.25,5.92,7.47,4.88,4.29-1.05,6.45-3.81,6.58-8.19Zm7.91,5.84c-.26-.38-.43-.98-.78-1.11-.93-.35-1.51,.42-2.1,.97-2.57,2.35-5.25,4.58-8.7,5.49-1.46,.38-3.43,.46-2.89,2.46,.55,2.01,2.61,1.98,4.16,1.18,3.69-1.9,6.71-4.72,9.68-7.57,.32-.31,.4-.88,.63-1.42Z"/>
      <path class="cls-10" d="M742.15,334.88c18.05,10.81,37.41,7.58,56.68,5.29,.18,3.03-.14,5.97-1.5,8.72-1.58-1.31-3.49-1.12-5.26-.9-16.14,2-32.05,.36-47.88-2.85-.94-.19-1.97,.02-2.95,.05,.31-3.44,.61-6.87,.92-10.31Z"/>
      <path class="cls-13" d="M853.82,401.9c-.5-.67-1-1.34-1.51-2.02-.14-1.7-.85-3.08-2.14-4.2-3.71-3.21-2.63-5.31,1.57-6.66,4.2,.21,8.58-.65,12.16,2.71,2.3,2.15,2.22,4.01-.33,5.51-3.1,1.82-6.21,3.72-9.75,4.66Z"/>
      <path class="cls-13" d="M806.37,316.79c-2.02-.22-2.64,2.52-4.7,2.22,1.12-2.64-.18-5.76,1.64-8.26,1.38-2.48,.81-6.2,4.59-7.15,.05,1.91,.1,3.83,.15,5.74-.19,.58-.21,1.1,.49,1.37,1.46,.89,4.29-.9,4.58,1.46,.31,2.51-2.11,2.82-4.22,2.7-1.36-.08-2.06,.77-2.52,1.91Z"/>
      <path class="cls-12" d="M851.74,389.03c-4.2,1.35-5.27,3.45-1.57,6.66,1.29,1.12,2.01,2.5,2.14,4.2-4.37-.49-5.64-4.2-6.2-7.37-.79-4.44-2.48-8.17-5.22-11.58q6.63-.95,10.85,8.09Z"/>
      <path class="cls-9" d="M837.79,416.07c2.69-1.37,5.38-2.75,8.06-4.12-2.05,6.87-3.94,7.83-8.06,4.12Z"/>
      <path class="cls-10" d="M808.54,310.71c-.7-.27-.68-.79-.49-1.37,.69,.27,.67,.79,.49,1.37Z"/>
      <path class="cls-8" d="M898.43,307.43c6.58-8.68,14.36-15.9,23.87-21.26,10.09-5.69,20.79-8.65,32.33-8.09,3.34,.16,4.55-1.45,4.96-4.15,1.35-9,2.95-17.95,3.29-27.09,.23-6.1,1.28-12.16,1.99-18.24,.12-1.05,.6-2.1,1.76-2.03,1.37,.08,1.23,1.39,1.18,2.33-.27,4.96,.12,9.9-.6,14.91-.91,6.41,.99,12.83,2.21,19.11,2.18,11.28,6.14,22.03,11.85,32.08,3.2,5.63,5.3,11.67,6.06,18.21-4.6-9.51-10.03-18.56-14.32-28.16-4.29-9.57-7.11-19.61-6.77-30.4-2.33,3.08-1.83,6.83-2.14,10.07-2.02,21.17-7.24,41.41-15.9,60.82-1.41,3.16-2.06,6.65-3.1,9.97-.4,1.26-.56,2.97-1.46,3.65-6.33,4.75-4.64,11.51-4.8,17.83-.23,9.34-6.83,17.38-15.83,18.67,7.5-7.53,10.01-16.43,9.92-26.46-.03-4.21-1.27-5.54-5.39-5.3-2.01,.12-5.5,1.65-5.97-1.22-.35-2.1,3.36-1.91,5.23-2.79,.74-.35,1.57-.74,2.36-.76,8.47-.22,12.52-5.54,14.97-12.8,4.72-13.96,10.65-27.52,13.24-42.18,.6-3.39,0-3.75-3-2.87-5.88,1.74-12.1,.42-18.13,2.52-9.05,3.16-17.3,7.28-24.43,13.7-4.12,3.71-8.95,6.53-13.36,9.96Z"/>
      <path class="cls-3" d="M322.97,564.95c-.59-.46-1.18-.93-1.76-1.39-4.81-8.13-10.02-16.08-13.16-25.04-4.41-12.58-4.51-24.58,4.62-35.66,8.06-9.79,25.41-10.89,34.8-4.48,7.82,5.33,13.74,6.06,22.13,.86,9.09-5.63,19.86-7.03,30.11-1.85,10.61,5.36,15.88,16.8,14.72,28.71-.85,8.72-5.03,15.97-8.41,23.71-9.05,20.78-25.27,35.45-41.58,50.1-1.49,1.34-3.26,2.75-5.3,1.2-11.2-8.54-21.76-17.77-30.33-29.07,3.16-.06,6.34,.08,9.47-.22,7.25-.68,14.33-2.46,19.26-8.15,10.08-11.63,15.29-25.76,19.3-40.35,.85-3.07,.4-6.3-3.49-7.05-3.59-.7-4.47,2.38-5.15,4.89-2.71,9.97-6.76,19.44-10.88,28.85-4.36,9.97-11.77,15.87-23.39,14.99-3.64-.27-7.32-.06-10.98-.06Zm23.05-37.96c-.04-3.17-1.46-5.16-4.81-4.98-3.96,.21-6.08,2.57-6.12,6.47-.04,3.57,2.63,5.24,5.55,5.12,3.71-.14,5.26-3.01,5.38-6.61Z"/>
      <path class="cls-10" d="M322.97,564.95c3.66,0,7.34-.21,10.98,.06,11.62,.88,19.03-5.03,23.39-14.99,4.11-9.41,8.17-18.88,10.88-28.85,.68-2.5,1.56-5.58,5.15-4.89,3.9,.76,4.34,3.98,3.49,7.05-4.01,14.59-9.23,28.72-19.3,40.35-4.93,5.69-12,7.47-19.26,8.15-3.14,.3-6.32,.16-9.47,.22,0,0,.16-.02,.16-.02-.41-.33-.83-.65-1.24-.98-.85-.48-1.71-.96-2.56-1.43-.73-1.56-1.47-3.11-2.21-4.67Z"/>
      <path class="cls-3" d="M327.74,571.06c.41,.33,.83,.65,1.24,.98-.8,.16-1.02-.41-1.24-.98Z"/>
      <path class="cls-1" d="M463.99,283.93c-4.88,1.6-9.86,.86-14.81,.65-3.43-3.22-8.29-3.32-12.18-5.54,3.79-2.82,7.6,.04,11.38,.14,4.35,.12,8.69,1.31,13.01,2.18,1.28,.26,2.5,.95,2.61,2.57Z"/>
      <path class="cls-9" d="M502.6,348.03c1.53-.01,3.19-.25,3.32,2.02-1.63,.18-2.78-.42-3.32-2.02Z"/>
      <path class="cls-7" d="M531.95,319.66c-2.83,3.17-5.09,3.22-6.86-1.05-2.51-6.03-8.16-9.89-11.06-15.67,7.6,3.84,13.42,9.58,17.92,16.73Z"/>
      <path class="cls-9" d="M588.66,297.47c-.22,.16-.45,.42-.67,.42-.21,0-.42-.29-.63-.46,.24-.15,.47-.41,.71-.42,.19,0,.39,.29,.59,.46Z"/>
      <path class="cls-14" d="M760.53,194.84c11.62-7.84,23.73-5.7,35.58-1.1,10.69,4.15,17.56,12.61,22.36,22.79,1.36,2.88,1.15,6.16,1.79,9.22,.64,3.1-4.03,1.66-3.5,4.45-9.3-4.97-18.7-9.74-27.85-14.96-7.76-4.43-15.4-8.02-24.85-6.21-3.06,.59-4.41,1.71-5.11,4.2-.97,3.5-1.7,7.07-2.48,10.36-4.55-5.03-3.31-10.68-.88-16.39,4.06-1.62,7.25-3.7,5.21-8.95-.4-1.02-.2-2.27-.27-3.41Z"/>
      <path class="cls-4" d="M810.09,250.43c2.25,2.22-.23,5.48,1.7,7.78-3.24,4.33-2.97,9.62-3.86,14.56-.71,3.92-1.74,7.65-3.68,11.13-2.04-1.71-.91-4.43-1.94-6.42-2.5-.92-.82,4.69-3.9,2.43-2.45-1.8-.55-3.95,.02-5.85,.96-3.19,1.57-6.82,6.26-6.51-.29-.72-.32-1.09-.53-1.27-1.45-1.3-4.6,.12-4.95-2.33-.32-2.2,2.66-2.02,3.92-3.25,3.04-2.95,4.78-6.75,6.96-10.26Z"/>
      <path class="cls-15" d="M760.53,194.84c.08,1.14-.12,2.39,.27,3.41,2.04,5.25-1.15,7.33-5.21,8.95-.68-.86-1.36-1.71-2.04-2.58,1.27-4.01,3.86-7.08,6.97-9.78Z"/>
      <path class="cls-2" d="M774.86,290.05c3.24,.15,5.33-1.67,7.03-4.13,1.72,1.55,.89,3.28-.34,4.2-2.05,1.54-4.47,1.5-6.69-.07Z"/>
      <path class="cls-11" d="M754.79,236.18c-.65-.13-1.29-.25-1.94-.38,.54-3.5-.95-6.73-1.13-10.2,2.29,3.15,2.64,6.88,3.07,10.58Z"/>
      <path class="cls-9" d="M536.01,231.02c.31,.34,.63,.67,.94,1.01-.31-.34-.63-.67-.94-1.01Z"/>
      <path class="cls-6" d="M839.91,394.71c-.14,4.38-2.3,7.14-6.58,8.19-4.22,1.04-5.88-1.87-7.47-4.88-2.67-5.04-3.99-10.49-4.77-16.09-.45-3.23,.18-5.22,3.94-3.12,.88,.49,1.76,1.28,2.73,.67,3.85-2.45,5.87,.29,6.98,3.01,1.66,4.09,5.34,7.35,5.18,12.22Z"/>
      <path class="cls-12" d="M847.82,400.55c-.23,.54-.3,1.11-.63,1.42-2.97,2.85-6,5.67-9.68,7.57-1.55,.8-3.61,.83-4.16-1.18-.54-2,1.43-2.08,2.89-2.46,3.45-.9,6.13-3.14,8.7-5.49,.6-.54,1.17-1.32,2.1-.97,.35,.13,.53,.72,.78,1.11Z"/>
      <path class="cls-10" d="M346.02,526.99c-.11,3.6-1.67,6.46-5.38,6.61-2.92,.11-5.59-1.56-5.55-5.12,.04-3.9,2.16-6.25,6.12-6.47,3.35-.18,4.77,1.81,4.81,4.98Z"/>
    </g>
  </g>
</svg>