<svg width="52" height="33" viewBox="0 0 52 33" fill="none" xmlns="http://www.w3.org/2000/svg">
<path d="M50.0612 29.7399H0.0940435C0.0691016 29.7399 0.0451812 29.7309 0.0275446 29.7148C0.00990805 29.6987 0 29.6768 0 29.6541C0 29.6313 0.00990805 29.6095 0.0275446 29.5934C0.0451812 29.5773 0.0691016 29.5682 0.0940435 29.5682H50.0612C50.0862 29.5682 50.1101 29.5773 50.1277 29.5934C50.1453 29.6095 50.1553 29.6313 50.1553 29.6541C50.1553 29.6768 50.1453 29.6987 50.1277 29.7148C50.1101 29.7309 50.0862 29.7399 50.0612 29.7399Z" fill="#D1D3D4"/>
<path d="M45.707 1.67869V24.5372C45.707 24.9615 45.5213 25.3684 45.1908 25.6684C44.8603 25.9684 44.412 26.1369 43.9446 26.1369H6.83318C6.36576 26.1369 5.9175 25.9684 5.58699 25.6684C5.25648 25.3684 5.0708 24.9615 5.0708 24.5372V1.67869C5.0708 1.25442 5.25648 0.847525 5.58699 0.547522C5.9175 0.247519 6.36576 0.0789795 6.83318 0.0789795H43.9446C44.412 0.0789795 44.8603 0.247519 45.1908 0.547522C45.5213 0.847525 45.707 1.25442 45.707 1.67869Z" fill="white"/>
<path d="M43.9447 26.2065H6.83327C6.34469 26.2061 5.87612 26.0303 5.52976 25.7175C5.1834 25.4047 4.98735 24.9803 4.98438 24.5368V1.67824C4.98487 1.23328 5.17983 0.806678 5.52645 0.492044C5.87308 0.177411 6.34306 0.000451964 6.83327 0H43.9447C44.4349 0.000451964 44.9049 0.177411 45.2515 0.492044C45.5981 0.806678 45.7931 1.23328 45.7936 1.67824V24.5368C45.7906 24.9803 45.5946 25.4047 45.2482 25.7175C44.9018 26.0303 44.4333 26.2061 43.9447 26.2065ZM6.83327 0.157069C6.38896 0.15752 5.96299 0.317932 5.64881 0.603109C5.33464 0.888286 5.15791 1.27494 5.15741 1.67824V24.5368C5.15791 24.9401 5.33464 25.3267 5.64881 25.6119C5.96299 25.8971 6.38896 26.0575 6.83327 26.058H43.9447C44.389 26.0575 44.815 25.8971 45.1291 25.6119C45.4433 25.3267 45.62 24.9401 45.6205 24.5368V1.67824C45.6205 1.2748 45.444 0.887884 45.1297 0.602609C44.8154 0.317334 44.3892 0.157069 43.9447 0.157069H6.83327Z" fill="#231F20"/>
<path d="M45.707 1.67869V21.9763H5.0802V1.67869C5.08019 1.25589 5.26458 0.850289 5.59306 0.55053C5.92154 0.250771 6.36739 0.0812356 6.83317 0.0789795H43.9446C44.412 0.0789795 44.8603 0.247519 45.1908 0.547522C45.5213 0.847525 45.707 1.25442 45.707 1.67869Z" fill="#231F20"/>
<path d="M6.73724 1.97705H43.5534V20.4599H6.73724V1.97705Z" fill="white"/>
<path d="M43.5552 20.5384H6.73719C6.71457 20.538 6.69304 20.5295 6.67722 20.5148C6.6614 20.5001 6.65254 20.4804 6.65255 20.4599V1.97703C6.6523 1.9668 6.6543 1.95663 6.65844 1.94711C6.66258 1.93759 6.66878 1.92892 6.67666 1.9216C6.68455 1.91428 6.69396 1.90847 6.70436 1.90451C6.71475 1.90054 6.72591 1.8985 6.73719 1.8985H43.5552C43.5781 1.8985 43.6002 1.90677 43.6164 1.9215C43.6326 1.93623 43.6417 1.9562 43.6417 1.97703V20.4599C43.6412 20.4806 43.632 20.5003 43.6158 20.5149C43.5997 20.5296 43.578 20.538 43.5552 20.5384ZM6.83311 20.3813H43.4687V2.05386H6.83311V20.3813Z" fill="#231F20"/>
<path d="M25.388 24.9005C25.202 24.9005 25.0202 24.8504 24.8655 24.7566C24.7109 24.6628 24.5903 24.5295 24.5192 24.3735C24.448 24.2176 24.4294 24.0459 24.4656 23.8803C24.5019 23.7147 24.5915 23.5626 24.723 23.4433C24.8545 23.3239 25.0221 23.2426 25.2045 23.2096C25.387 23.1767 25.5761 23.1936 25.7479 23.2582C25.9197 23.3228 26.0666 23.4322 26.1699 23.5726C26.2733 23.713 26.3284 23.878 26.3284 24.0469C26.3284 24.2733 26.2294 24.4904 26.053 24.6505C25.8766 24.8106 25.6374 24.9005 25.388 24.9005ZM25.388 23.364C25.2392 23.364 25.0937 23.404 24.97 23.4791C24.8463 23.5541 24.7499 23.6607 24.6929 23.7855C24.636 23.9103 24.6211 24.0476 24.6501 24.1801C24.6791 24.3126 24.7508 24.4342 24.856 24.5298C24.9612 24.6253 25.0953 24.6903 25.2412 24.7167C25.3872 24.743 25.5384 24.7295 25.6759 24.6778C25.8134 24.6261 25.9309 24.5386 26.0136 24.4263C26.0962 24.314 26.1404 24.1819 26.1404 24.0469C26.1394 23.8663 26.0597 23.6935 25.9187 23.5662C25.7777 23.4389 25.5869 23.3674 25.388 23.3674V23.364Z" fill="#D1D3D4"/>
<path d="M30.188 29.0287C29.7968 28.508 29.7328 26.1263 29.7328 26.1263H21.0451C21.0451 26.1263 20.9792 28.5046 20.588 29.0287C20.1968 29.5528 18.6658 30.3945 18.6658 30.6984C18.6658 31.0023 18.8934 31.1081 20.0012 31.1081H30.7748C31.8826 31.1081 32.1102 30.9989 32.1102 30.6984C32.1102 30.3979 30.5792 29.5494 30.188 29.0287Z" fill="white"/>
<path d="M30.7748 31.1953H19.9993C19.0175 31.1953 18.5792 31.1236 18.5792 30.707C18.5792 30.5192 18.9309 30.2529 19.5046 29.8346C19.9146 29.5358 20.3397 29.2285 20.5146 28.9929C20.8908 28.4978 20.9566 26.1588 20.9566 26.1349C20.9576 26.1147 20.9672 26.0956 20.9833 26.0816C20.9994 26.0676 21.0209 26.0598 21.0432 26.0598H29.7309C29.7532 26.0598 29.7747 26.0676 29.7908 26.0816C29.8069 26.0956 29.8164 26.1147 29.8174 26.1349C29.8174 26.1588 29.8851 28.4978 30.2575 28.9929C30.4343 29.2285 30.8575 29.5358 31.2676 29.8346C31.8431 30.2529 32.1948 30.5175 32.1948 30.707C32.1967 31.115 31.7585 31.1953 30.7748 31.1953ZM21.1278 26.2066C21.1128 26.6266 21.0244 28.5883 20.6595 29.0731C20.4714 29.3258 20.035 29.6417 19.6137 29.9473C19.2507 30.2136 18.7523 30.5755 18.7523 30.6984C18.7523 30.8982 18.8388 31.0297 20.0012 31.0297H30.7748C31.9372 31.0297 32.0256 30.8982 32.0256 30.6984C32.0256 30.5755 31.5271 30.2136 31.1622 29.9473C30.7428 29.6417 30.3083 29.3258 30.1184 29.0731C29.7535 28.5883 29.6632 26.6266 29.6481 26.2066H21.1278Z" fill="#231F20"/>
<path d="M29.5787 28.7052H21.1994C21.1744 28.7052 21.1505 28.6962 21.1329 28.6801C21.1153 28.664 21.1053 28.6422 21.1053 28.6194C21.1053 28.5966 21.1153 28.5748 21.1329 28.5587C21.1505 28.5426 21.1744 28.5336 21.1994 28.5336H29.5787C29.6036 28.5336 29.6275 28.5426 29.6452 28.5587C29.6628 28.5748 29.6727 28.5966 29.6727 28.6194C29.6727 28.6422 29.6628 28.664 29.6452 28.6801C29.6275 28.6962 29.6036 28.7052 29.5787 28.7052Z" fill="#D1D3D4"/>
<path d="M21.1992 18.3464C21.1862 18.3463 21.1733 18.3438 21.1614 18.3392C21.1494 18.3345 21.1386 18.3277 21.1296 18.3191C21.1208 18.3112 21.1138 18.3017 21.109 18.2913C21.1043 18.2809 21.1018 18.2698 21.1018 18.2585C21.1018 18.2472 21.1043 18.2361 21.109 18.2257C21.1138 18.2153 21.1208 18.2058 21.1296 18.1979L38.4035 3.65544C38.4123 3.64744 38.4227 3.64109 38.4341 3.63675C38.4456 3.63242 38.4579 3.63019 38.4703 3.63019C38.4827 3.63019 38.495 3.63242 38.5065 3.63675C38.5179 3.64109 38.5283 3.64744 38.5371 3.65544C38.5461 3.6631 38.5532 3.67236 38.5581 3.68264C38.563 3.69291 38.5656 3.70399 38.5656 3.71519C38.5656 3.72639 38.563 3.73747 38.5581 3.74775C38.5532 3.75803 38.5461 3.76728 38.5371 3.77495L21.2613 18.3225C21.2449 18.3376 21.2226 18.3462 21.1992 18.3464Z" fill="#D1D3D4"/>
<path d="M10.5141 17.3203C10.4948 17.3205 10.4759 17.3153 10.4599 17.3054C10.444 17.2955 10.4318 17.2813 10.4251 17.2649C10.4183 17.2485 10.4172 17.2306 10.422 17.2136C10.4269 17.1967 10.4373 17.1815 10.452 17.1701L21.1372 8.924C21.1466 8.91671 21.1575 8.91117 21.1692 8.9077C21.181 8.90423 21.1933 8.90289 21.2057 8.90376C21.218 8.90463 21.23 8.9077 21.241 8.91278C21.252 8.91786 21.2618 8.92487 21.2698 8.93339C21.2778 8.94191 21.2839 8.95178 21.2878 8.96244C21.2916 8.9731 21.2931 8.98433 21.2921 8.99551C21.2911 9.00669 21.2878 9.01758 21.2822 9.02757C21.2766 9.03757 21.2689 9.04646 21.2595 9.05375L10.5743 17.2998C10.5575 17.313 10.5362 17.3203 10.5141 17.3203Z" fill="#D1D3D4"/>
<path d="M33.4323 17.3202C33.4132 17.3201 33.3946 17.3146 33.3789 17.3046C33.3633 17.2945 33.3514 17.2804 33.3449 17.2641C33.3384 17.2477 33.3375 17.23 33.3423 17.2132C33.3472 17.1964 33.3576 17.1813 33.3722 17.17L39.2781 12.6201C39.2873 12.6127 39.298 12.607 39.3097 12.6035C39.3213 12.5999 39.3336 12.5984 39.3459 12.5992C39.3582 12.6 39.3701 12.603 39.3811 12.6081C39.3921 12.6131 39.4018 12.6201 39.4098 12.6287C39.4257 12.6462 39.4334 12.6687 39.4313 12.6914C39.4292 12.714 39.4174 12.735 39.3985 12.7499L33.4944 17.2998C33.477 17.3129 33.455 17.3201 33.4323 17.3202Z" fill="#D1D3D4"/>
<path d="M12.0413 8.73103C12.0272 8.73074 12.0133 8.72769 12.0007 8.72209C11.988 8.71649 11.9768 8.70848 11.9679 8.6986C11.9523 8.68112 11.945 8.65876 11.9474 8.63638C11.9499 8.61401 11.962 8.59342 11.9811 8.57909L18.6074 3.65192C18.6167 3.64347 18.6278 3.63688 18.6401 3.63257C18.6523 3.62827 18.6655 3.62635 18.6786 3.62693C18.6917 3.62752 18.7046 3.6306 18.7163 3.63597C18.7281 3.64135 18.7384 3.6489 18.7468 3.65814C18.7551 3.66738 18.7612 3.6781 18.7647 3.68961C18.7682 3.70112 18.7689 3.71317 18.767 3.72497C18.765 3.73677 18.7603 3.74807 18.7532 3.75813C18.7462 3.76819 18.7368 3.7768 18.7259 3.78338L12.0996 8.71055C12.0834 8.72333 12.0627 8.73058 12.0413 8.73103Z" fill="#D1D3D4"/>
<path d="M30.3158 9.12883C30.3158 9.12883 29.2343 7.95423 28.83 7.77326C28.0343 7.41815 26.5936 8.37422 26.6801 8.49373C26.7666 8.61324 27.9497 8.50739 28.1115 8.50739C28.2732 8.50739 28.7905 8.97347 28.7905 8.97347C28.7905 8.97347 29.3829 9.65637 29.6368 10.0405" fill="white"/>
<path d="M29.6368 10.1258C29.6208 10.126 29.6051 10.1223 29.5912 10.1151C29.5773 10.1079 29.5658 10.0974 29.5578 10.0849C29.3076 9.71439 28.7227 9.0332 28.7152 9.02637C28.5425 8.85174 28.3383 8.7051 28.1114 8.59272C28.0776 8.59272 27.9948 8.59272 27.8876 8.60467C26.966 8.66101 26.6782 8.64565 26.6011 8.5398C26.5428 8.45956 26.6312 8.36907 26.6613 8.34005C26.9453 8.04811 28.1471 7.37374 28.8713 7.69641C29.2888 7.8825 30.344 9.02466 30.3873 9.07417C30.3953 9.08262 30.4014 9.09246 30.4052 9.10309C30.4091 9.11373 30.4105 9.12495 30.4094 9.13609C30.4084 9.14723 30.4049 9.15807 30.3991 9.16796C30.3934 9.17785 30.3855 9.1866 30.376 9.19368C30.3566 9.20813 30.3319 9.21515 30.3069 9.21324C30.2819 9.21132 30.2588 9.20063 30.2424 9.18344C29.9471 8.86076 29.1139 7.98835 28.7866 7.84836C28.4594 7.70836 28.0587 7.80567 27.7634 7.90982C27.4043 8.03245 27.0757 8.21875 26.7967 8.45785C27.1561 8.47156 27.5161 8.46357 27.8744 8.43395C27.9891 8.43395 28.0757 8.422 28.1114 8.422C28.2995 8.422 28.6945 8.76345 28.8638 8.91369C28.8957 8.94954 29.4713 9.61708 29.7252 9.99609C29.7317 10.0057 29.736 10.0164 29.7379 10.0276C29.7398 10.0387 29.7392 10.0501 29.7363 10.061C29.7333 10.072 29.728 10.0823 29.7206 10.0914C29.7132 10.1005 29.7039 10.1081 29.6932 10.1139C29.6764 10.1234 29.6565 10.1276 29.6368 10.1258Z" fill="#231F20"/>
<path d="M25.9204 7.60551L26.1242 7.33693L28.7763 8.99455C28.8174 9.02023 28.8455 9.05967 28.8546 9.1042C28.8636 9.14872 28.8528 9.19469 28.8245 9.23199C28.7963 9.26928 28.7528 9.29484 28.7037 9.30306C28.6547 9.31127 28.604 9.30146 28.563 9.27578L25.9108 7.61816L25.9204 7.60551Z" fill="white"/>
<path d="M28.6738 9.37809C28.6181 9.37782 28.5637 9.36236 28.5177 9.3337L25.8657 7.67595C25.8458 7.66289 25.8321 7.6434 25.8276 7.62148C25.823 7.59956 25.8279 7.57689 25.8413 7.55815L26.0463 7.29352C26.053 7.28405 26.0618 7.27596 26.0722 7.26978C26.0825 7.26361 26.0942 7.25948 26.1065 7.25767C26.1185 7.25522 26.1309 7.25517 26.1429 7.25753C26.1549 7.25989 26.1662 7.2646 26.176 7.27133L28.8281 8.92908C28.8731 8.95668 28.9081 8.99586 28.9284 9.04161C28.9488 9.08736 28.9536 9.13758 28.9423 9.18583C28.9309 9.23409 28.904 9.27817 28.8649 9.31242C28.8258 9.34668 28.7763 9.36955 28.7227 9.37809H28.6738ZM26.0406 7.58376L28.6155 9.19371C28.6246 9.19982 28.635 9.20406 28.646 9.20613C28.6571 9.20819 28.6685 9.20803 28.6795 9.20566C28.6906 9.20409 28.7012 9.20038 28.7106 9.19479C28.72 9.18919 28.728 9.18184 28.734 9.17322C28.7405 9.16494 28.7451 9.15558 28.7476 9.14568C28.75 9.13577 28.7503 9.12553 28.7484 9.11552C28.7465 9.10552 28.7424 9.09597 28.7364 9.08741C28.7303 9.07885 28.7225 9.07146 28.7133 9.06566L26.1478 7.46425L26.0406 7.58376Z" fill="#231F20"/>
<path d="M25.83 6.31702L25.8488 6.56628C25.7705 6.20587 25.5377 5.88841 25.2018 5.68362L25.166 5.86459C25.048 5.73546 24.969 5.58075 24.9365 5.41558C24.9196 5.32339 24.8858 5.20047 24.7823 5.20047C24.6789 5.20047 24.5754 5.40193 24.4569 5.35412C24.425 5.33541 24.4006 5.30787 24.3873 5.27559C24.3046 5.12194 24.2293 4.96487 24.1635 4.80609C23.9926 4.84318 23.8319 4.91175 23.6914 5.00755C23.622 4.92414 23.5219 4.86617 23.4093 4.84422C23.2968 4.82228 23.1792 4.83784 23.0782 4.88804C23.0455 4.90192 23.0174 4.92348 22.997 4.95049C22.9765 4.9775 22.9643 5.00898 22.9616 5.04169C22.9616 5.06901 22.9729 5.09462 22.9729 5.12193C22.9673 5.15532 22.9509 5.18644 22.9258 5.21136C22.9007 5.23628 22.868 5.25388 22.8319 5.26193C22.7585 5.28242 22.6814 5.28413 22.6118 5.30632C22.5238 5.3414 22.4529 5.40456 22.4127 5.48384C22.3725 5.56312 22.3657 5.65303 22.3936 5.73655C22.4262 5.81813 22.4811 5.89085 22.5532 5.94789C22.6252 6.00492 22.7121 6.04441 22.8055 6.06264C22.766 6.26922 22.9729 6.45189 23.193 6.51506C23.2707 6.53202 23.3463 6.55604 23.4187 6.58677C23.5142 6.65038 23.6002 6.72499 23.6745 6.80871C23.769 6.8922 23.8845 6.95355 24.011 6.98746C24.1375 7.02137 24.2712 7.02682 24.4005 7.00334C24.4007 7.07022 24.4202 7.13589 24.4571 7.19379C24.494 7.25169 24.5469 7.2998 24.6107 7.33332C24.6744 7.36683 24.7468 7.38459 24.8205 7.3848C24.8941 7.38502 24.9666 7.36769 25.0306 7.33455C25.045 7.37157 25.0686 7.40504 25.0997 7.43232C25.1308 7.45959 25.1685 7.47992 25.2097 7.49168C25.251 7.50344 25.2947 7.50632 25.3374 7.50009C25.3801 7.49385 25.4206 7.47868 25.4557 7.45576C25.3315 7.54966 25.7209 7.66064 25.7848 7.64698C25.9581 7.57897 26.0998 7.45821 26.1854 7.30553C26.366 6.9931 26.0933 6.53213 25.83 6.31702Z" fill="white"/>
<path d="M25.7773 7.73061C25.628 7.72292 25.4861 7.66933 25.3748 7.57866C25.3132 7.59382 25.2483 7.59382 25.1867 7.57866C25.1106 7.55532 25.0446 7.51044 24.9986 7.45062C24.9302 7.47186 24.8575 7.47973 24.7855 7.47371C24.7134 7.46768 24.6436 7.4479 24.5805 7.41566C24.5175 7.38342 24.4626 7.33945 24.4196 7.28663C24.3766 7.23381 24.3464 7.17333 24.3309 7.10916C24.2014 7.11946 24.071 7.10419 23.9486 7.06441C23.8262 7.02463 23.7147 6.96127 23.6218 6.87868C23.5936 6.85307 23.5673 6.82576 23.541 6.80015C23.4978 6.74899 23.4457 6.70458 23.3867 6.66869C23.3416 6.64929 23.2943 6.63441 23.2457 6.6243L23.1761 6.60552C23.0573 6.57671 22.9507 6.51655 22.8697 6.43266C22.7886 6.34878 22.7368 6.24494 22.7209 6.13432C22.6229 6.10681 22.5336 6.0581 22.4609 5.99238C22.3882 5.92666 22.3341 5.84589 22.3033 5.75701C22.2679 5.65268 22.2766 5.54012 22.3278 5.4413C22.3789 5.34249 22.4688 5.26452 22.5798 5.22264C22.6228 5.21012 22.6668 5.20098 22.7115 5.19532C22.7426 5.19127 22.7733 5.18557 22.8037 5.17825C22.845 5.1663 22.8789 5.13898 22.8789 5.11849C22.8798 5.10998 22.8798 5.1014 22.8789 5.09289C22.8639 5.03696 22.8711 4.97803 22.8994 4.92648C22.9276 4.87494 22.975 4.83411 23.0331 4.81119C23.1405 4.75725 23.2641 4.73579 23.3858 4.74991C23.5076 4.76403 23.6212 4.813 23.7102 4.88972C23.8437 4.8114 23.9905 4.75371 24.1447 4.71899C24.1671 4.71389 24.1909 4.71646 24.2113 4.72623C24.2318 4.73599 24.2476 4.75226 24.2557 4.77192C24.3205 4.92938 24.3939 5.08379 24.4758 5.23459C24.4816 5.2491 24.4906 5.26244 24.5021 5.27386C24.5232 5.25722 24.5433 5.23955 24.5623 5.22093C24.5885 5.18892 24.6221 5.16253 24.6608 5.14364C24.6994 5.12476 24.7422 5.11384 24.7861 5.11167C24.9742 5.11167 25.0174 5.31995 25.0344 5.39849C25.0515 5.4849 25.0832 5.5684 25.1284 5.64604C25.1381 5.62764 25.1548 5.61307 25.1754 5.60506C25.189 5.59834 25.2042 5.59482 25.2196 5.59482C25.2351 5.59482 25.2503 5.59834 25.2638 5.60506C25.5132 5.76192 25.7093 5.97894 25.83 6.23163C25.8535 6.23223 25.876 6.24005 25.8939 6.25383C26.1648 6.4826 26.4676 6.98624 26.2701 7.34818C26.1718 7.52141 26.0073 7.65617 25.8074 7.72719L25.7773 7.73061ZM25.5403 7.48818C25.6112 7.52485 25.689 7.54917 25.7698 7.55988C25.9104 7.49634 26.026 7.39499 26.1008 7.26965C26.2156 7.06819 26.1008 6.78478 25.9485 6.57138C25.9473 6.591 25.9386 6.60964 25.9238 6.624C25.909 6.63836 25.8891 6.64753 25.8676 6.64991C25.8437 6.65293 25.8195 6.64754 25.7999 6.63483C25.7803 6.62212 25.7669 6.60308 25.7623 6.58162C25.6984 6.28887 25.5258 6.02489 25.2732 5.83384L25.2638 5.87823C25.2611 5.89436 25.2533 5.90943 25.2412 5.92156C25.2292 5.9337 25.2135 5.94237 25.1961 5.94652C25.1789 5.95067 25.1608 5.95031 25.1438 5.94547C25.1268 5.94063 25.1117 5.93153 25.1002 5.9192C24.9676 5.77904 24.8787 5.6093 24.8425 5.42751C24.8143 5.28239 24.7805 5.27898 24.7786 5.28239C24.7767 5.28581 24.7184 5.31654 24.6902 5.34215C24.63 5.39678 24.5378 5.47873 24.4156 5.42751C24.3632 5.40178 24.3225 5.36005 24.3008 5.30971C24.2294 5.17825 24.1635 5.04338 24.1127 4.90509C23.9828 4.94351 23.8608 5.0012 23.7516 5.07581C23.7418 5.08255 23.7305 5.08739 23.7186 5.09003C23.7066 5.09267 23.6942 5.09306 23.682 5.09118C23.6696 5.08991 23.6576 5.08619 23.6469 5.0803C23.6361 5.0744 23.627 5.06647 23.62 5.05703C23.5655 4.98945 23.4856 4.94238 23.3955 4.92475C23.3053 4.90713 23.2112 4.92018 23.1309 4.96143C23.0877 4.98533 23.0595 5.01606 23.0595 5.03825V5.06215C23.0613 5.08204 23.0613 5.10203 23.0595 5.12191C23.0552 5.17398 23.0328 5.22349 22.9957 5.26335C22.9585 5.30322 22.9084 5.33139 22.8526 5.34385C22.8137 5.3537 22.7741 5.36111 22.7341 5.36605C22.7002 5.37024 22.6669 5.3771 22.6344 5.38654C22.5696 5.41442 22.518 5.46252 22.489 5.52207C22.46 5.58161 22.4555 5.64863 22.4764 5.71092C22.5039 5.77833 22.5499 5.83823 22.6102 5.88486C22.6705 5.93149 22.7429 5.9633 22.8206 5.97725C22.8439 5.98216 22.8643 5.99497 22.8776 6.01305C22.8908 6.03113 22.896 6.05313 22.8921 6.07456C22.862 6.22992 23.0312 6.37845 23.2137 6.43138L23.2758 6.44675C23.3409 6.46039 23.4041 6.48102 23.4638 6.50821C23.5429 6.55345 23.6124 6.61129 23.6689 6.67893C23.6933 6.70284 23.7159 6.72674 23.7403 6.74893C23.824 6.82192 23.9258 6.87555 24.0371 6.90526C24.1484 6.93498 24.266 6.93992 24.3798 6.91966C24.3936 6.91731 24.4077 6.91762 24.4213 6.92056C24.4349 6.9235 24.4477 6.92901 24.4588 6.93673C24.4695 6.94498 24.4782 6.95516 24.4844 6.96662C24.4905 6.97808 24.494 6.99058 24.4946 7.00331C24.4955 7.05512 24.5111 7.10585 24.5397 7.15067C24.5683 7.19549 24.6091 7.23292 24.6582 7.2594C24.7081 7.28421 24.764 7.29721 24.8209 7.29721C24.8778 7.29721 24.9337 7.28421 24.9836 7.2594C24.9964 7.25355 25.0106 7.2505 25.025 7.2505C25.0393 7.2505 25.0535 7.25355 25.0663 7.2594C25.0797 7.26418 25.0916 7.27178 25.1011 7.28158C25.1106 7.29138 25.1174 7.30309 25.1209 7.31574C25.1315 7.33849 25.1473 7.35888 25.1674 7.37552C25.1875 7.39215 25.2114 7.40463 25.2373 7.4121C25.2632 7.41956 25.2906 7.42183 25.3176 7.41876C25.3446 7.41568 25.3705 7.40733 25.3936 7.39428C25.4129 7.37982 25.4377 7.37281 25.4627 7.37472C25.4876 7.37663 25.5108 7.38733 25.5272 7.40452C25.5373 7.41615 25.5439 7.43003 25.5462 7.44473C25.5485 7.45943 25.5465 7.47443 25.5403 7.48818Z" fill="#231F20"/>
<path d="M28.9805 8.93072C28.9805 8.93072 27.44 9.0895 27.4212 8.88292C27.4024 8.67634 28.6795 8.50732 28.6795 8.50732" fill="white"/>
<path d="M27.9968 9.0742C27.788 9.09365 27.5772 9.06304 27.3855 8.98542C27.3529 8.96179 27.332 8.92742 27.3272 8.88982C27.3103 8.70031 27.7617 8.54836 28.6664 8.42373C28.691 8.42076 28.7159 8.42657 28.7359 8.43995C28.7559 8.45332 28.7694 8.47321 28.7736 8.49544C28.7768 8.51804 28.7701 8.54089 28.755 8.55908C28.7399 8.57728 28.7175 8.58937 28.6927 8.59275C28.151 8.66446 27.6488 8.78567 27.5341 8.86762C27.7015 8.92738 28.3823 8.90689 28.9711 8.84713C28.996 8.84464 29.021 8.85125 29.0406 8.8655C29.0602 8.87975 29.0727 8.90047 29.0754 8.92311C29.0782 8.94575 29.0709 8.96845 29.0552 8.98622C29.0395 9.00399 29.0167 9.01537 28.9917 9.01786C28.6613 9.0518 28.3293 9.0706 27.9968 9.0742Z" fill="#231F20"/>
<path d="M47.7402 16.6577C47.7402 16.6577 50.1026 17.6718 50.2963 17.9365C50.49 18.2011 50.4844 19.4627 50.0612 19.2391C49.5459 18.9693 47.1854 17.6667 47.1854 17.6667L47.7402 16.6577Z" fill="white"/>
<path d="M50.1553 19.3519C50.1055 19.3512 50.0567 19.3382 50.0143 19.3144C49.5046 19.0463 47.161 17.7522 47.1384 17.7403C47.1179 17.7295 47.1027 17.712 47.096 17.6913C47.0894 17.6706 47.0918 17.6484 47.1027 17.6293L47.6557 16.6203C47.6609 16.6103 47.6683 16.6013 47.6774 16.5938C47.6865 16.5864 47.6971 16.5807 47.7087 16.577C47.7202 16.5734 47.7325 16.5719 47.7447 16.5725C47.7569 16.5732 47.7688 16.5761 47.7798 16.581C48.1786 16.7518 50.176 17.6191 50.3754 17.8888C50.5485 18.121 50.5861 19.0293 50.3321 19.2768C50.3102 19.3 50.2832 19.3187 50.2527 19.3317C50.2222 19.3446 50.189 19.3515 50.1553 19.3519ZM47.3096 17.6344C47.714 17.8581 49.6513 18.9268 50.1083 19.171C50.1572 19.1966 50.1742 19.1846 50.1948 19.171C50.3735 19.0002 50.3641 18.1893 50.2193 17.9929C50.0745 17.7966 48.692 17.1752 47.7742 16.7808L47.3096 17.6344Z" fill="#231F20"/>
<path d="M35.8569 20.1065C35.8569 20.1065 36.5114 22.9987 36.7747 23.5211C37.0381 24.0435 39.1841 29.5819 39.1352 29.8977C39.0863 30.2135 38.6105 31.5555 38.6105 31.5555C38.6105 31.5555 39.9647 32.2606 40.7509 30.2409C40.7509 30.2409 39.3045 23.3777 39.3045 23.1882V19.1163L35.8569 20.1065Z" fill="white"/>
<path d="M39.1616 31.7603C38.9534 31.762 38.7479 31.7168 38.5635 31.6288C38.5447 31.6194 38.5302 31.6044 38.5223 31.5864C38.5144 31.5683 38.5137 31.5483 38.5203 31.5298C38.5203 31.5161 38.9999 30.193 39.0412 29.8874C39.0826 29.5818 36.9497 24.0639 36.6883 23.55C36.4268 23.0361 35.793 20.2431 35.7648 20.1236C35.7604 20.1028 35.7645 20.0813 35.7762 20.0631C35.788 20.0449 35.8067 20.0312 35.8287 20.0245L39.2764 19.0343C39.2907 19.0306 39.3058 19.0299 39.3204 19.0323C39.3351 19.0346 39.349 19.04 39.361 19.048C39.3729 19.0557 39.3825 19.066 39.3891 19.0779C39.3957 19.0898 39.3989 19.103 39.3986 19.1163V23.1881C39.408 23.3793 40.4444 28.3321 40.8431 30.2237C40.8469 30.2383 40.8469 30.2535 40.8431 30.2681C40.5441 31.0347 40.1303 31.5127 39.6093 31.6886C39.466 31.7366 39.3144 31.7609 39.1616 31.7603ZM38.7253 31.511C38.9865 31.6079 39.278 31.6134 39.5434 31.5264C40.0024 31.371 40.3767 30.9357 40.6532 30.234C40.4839 29.4298 39.2105 23.3793 39.2105 23.1881V19.2324L35.966 20.1645C36.0714 20.6221 36.6281 23.0242 36.8594 23.4783C37.1171 23.9905 39.2782 29.5511 39.2275 29.9096C39.1842 30.1913 38.8268 31.2242 38.7253 31.511Z" fill="#231F20"/>
<path d="M41.6725 20.6511C41.6725 20.6511 41.8493 24.1271 42.1427 24.5778C42.4361 25.0285 47.0706 28.0128 47.0706 28.0128L47.6348 26.5719C47.6348 26.5719 44.4787 24.0998 44.4167 23.62C44.3546 23.1403 43.6361 19.7719 43.6361 19.7719L41.6725 20.6511Z" fill="white"/>
<path d="M47.0707 28.0931C47.0512 28.093 47.0322 28.0877 47.0161 28.0777C46.5403 27.7704 42.3572 25.0661 42.0619 24.6171C41.7666 24.1681 41.5955 21.0131 41.5785 20.6562C41.5777 20.6396 41.582 20.6232 41.591 20.6087C41.6 20.5942 41.6132 20.5823 41.6293 20.5743L43.5873 19.6899C43.6001 19.6841 43.6143 19.681 43.6287 19.681C43.643 19.681 43.6572 19.6841 43.6701 19.6899C43.683 19.6957 43.6943 19.7041 43.7031 19.7144C43.7119 19.7248 43.718 19.7369 43.7208 19.7497C43.7509 19.888 44.4412 23.1267 44.5033 23.6047C44.5447 23.9308 46.4801 25.5544 47.6876 26.507C47.7023 26.5182 47.7128 26.5332 47.7179 26.55C47.7229 26.5668 47.7222 26.5845 47.7158 26.6009L47.1515 28.0419C47.1468 28.0544 47.1389 28.0657 47.1285 28.0749C47.118 28.0841 47.1053 28.0909 47.0914 28.0948C47.0844 28.0951 47.0774 28.0945 47.0707 28.0931ZM41.7685 20.7023C41.8212 21.7028 41.998 24.1852 42.2237 24.5283C42.4494 24.8715 45.6713 26.9987 47.0236 27.8728L47.5164 26.5941C47.0236 26.2066 44.3791 24.1049 44.319 23.6252C44.2644 23.2018 43.687 20.4787 43.5666 19.8931L41.7685 20.7023Z" fill="#231F20"/>
<path d="M40.7509 30.2408C40.7509 30.2408 41.1083 31.115 41.1083 31.2993C41.1083 31.4837 40.6155 31.8866 40.3823 31.8593C40.149 31.832 40.1791 31.5554 40.1791 31.5554C40.1288 31.7326 40.038 31.8982 39.9126 32.0414C39.7872 32.1847 39.63 32.3024 39.4512 32.3869C38.84 32.6788 37.356 32.6788 37.4425 32.3869C37.529 32.0949 38.7722 30.9903 38.7722 30.9903C38.7722 30.9903 39.8481 31.4223 40.7509 30.2408Z" fill="#231F20"/>
<path d="M38.1835 32.6891C37.9239 32.7091 37.6634 32.6629 37.4311 32.5559C37.3986 32.5348 37.3739 32.5052 37.3601 32.4711C37.3464 32.437 37.3442 32.3999 37.354 32.3647C37.4462 32.0608 38.5803 31.045 38.7082 30.9306C38.7218 30.9189 38.7388 30.9111 38.7571 30.9081C38.7755 30.905 38.7945 30.9069 38.8117 30.9136C38.853 30.9289 39.8292 31.2994 40.6756 30.1914C40.6854 30.1787 40.6988 30.1686 40.7143 30.1623C40.7299 30.156 40.7471 30.1537 40.764 30.1555C40.7807 30.1578 40.7965 30.1641 40.8097 30.1736C40.8229 30.1832 40.8331 30.1958 40.8392 30.2102C40.8769 30.3024 41.2041 31.1048 41.2041 31.2994C41.2041 31.4701 40.9747 31.6596 40.9051 31.716C40.8355 31.7723 40.5759 31.9669 40.3728 31.943C40.3323 31.9396 40.293 31.9285 40.2573 31.9106C40.2217 31.8927 40.1906 31.8683 40.1659 31.8389C40.0221 32.1068 39.7874 32.3258 39.4963 32.4637C39.0809 32.6214 38.6336 32.6981 38.1835 32.6891ZM38.7966 31.0894C38.3208 31.5162 37.591 32.2196 37.5327 32.4108C37.5327 32.4108 37.5552 32.4364 37.6192 32.4569C37.9766 32.5781 38.9621 32.5235 39.4079 32.3118C39.5742 32.2326 39.7206 32.1227 39.8375 31.9893C39.9544 31.8558 40.0393 31.7017 40.0869 31.5367C40.0904 31.5141 40.1036 31.4936 40.1238 31.4798C40.1439 31.4661 40.1692 31.4601 40.1941 31.4633C40.219 31.4665 40.2416 31.4785 40.2568 31.4967C40.2719 31.515 40.2785 31.538 40.275 31.5606C40.275 31.5606 40.2581 31.7552 40.3972 31.7723C40.5452 31.7504 40.6809 31.6843 40.7828 31.5845C40.8917 31.5123 40.9738 31.4116 41.0179 31.296C40.948 30.9955 40.8505 30.7008 40.7264 30.415C39.9364 31.3352 39.0374 31.1577 38.7966 31.0894Z" fill="#231F20"/>
<path d="M37.3034 9.51298C37.3034 9.51298 32.4 11.6453 32.2871 11.4729C32.1743 11.3005 30.395 8.76178 30.395 8.76178L29.1479 9.64785C29.1479 9.64785 30.963 13.0863 32.0972 13.4636C33.2313 13.8409 37.3034 12.0978 37.3034 12.0978V9.51298Z" fill="#68E1FD"/>
<path d="M36.5848 17.3665C36.5848 17.3665 35.1365 22.1861 35.097 24.6565C35.097 24.6565 42.1164 28.1684 45.897 22.4149L41.7497 14.8619L36.5848 17.3665Z" fill="#68E1FD"/>
<path d="M36.9911 9.6052C37.0175 9.48398 41.0877 9.02815 42.0958 9.81861C43.4538 10.8822 41.7497 14.8687 41.7497 14.8687C41.7497 14.8687 39.7842 17.614 38.3096 17.0062C36.835 16.3984 36.7071 15.8589 36.7071 15.8589C36.4742 13.7727 36.5698 11.667 36.9911 9.6052Z" fill="#68E1FD"/>
<path d="M42.0957 9.81848C43.3803 10.7626 44.5408 14.3291 45.0336 14.7542C45.4417 15.1093 47.9715 16.6424 47.9715 16.6424L47.3095 17.9365C47.3095 17.9365 44.6066 17.0129 43.6418 16.021C43.1208 15.4849 42.9346 14.773 42.7013 14.3291C42.0656 13.0589 42.0957 9.81848 42.0957 9.81848Z" fill="#68E1FD"/>
<path d="M36.6263 15.5738C36.602 15.5738 36.5786 15.5653 36.5611 15.55C36.5435 15.5347 36.5332 15.5139 36.5322 15.4918C36.5322 15.3399 36.3742 11.758 36.9328 9.98078C36.9362 9.96957 36.9419 9.95906 36.9497 9.94987C36.9575 9.94067 36.9673 9.93295 36.9783 9.92717C36.9894 9.92138 37.0017 9.91763 37.0144 9.91614C37.027 9.91465 37.0399 9.91544 37.0523 9.91846C37.0646 9.92149 37.0762 9.92669 37.0863 9.93378C37.0965 9.94087 37.105 9.94969 37.1113 9.95976C37.1177 9.96983 37.1218 9.98094 37.1235 9.99245C37.1251 10.004 37.1243 10.0157 37.1209 10.0269C36.568 11.7785 36.7241 15.4474 36.7259 15.4901C36.7265 15.5013 36.7245 15.5125 36.7202 15.5231C36.716 15.5336 36.7095 15.5433 36.7011 15.5515C36.6927 15.5597 36.6826 15.5664 36.6714 15.5711C36.6602 15.5758 36.648 15.5785 36.6357 15.5789L36.6263 15.5738Z" fill="#231F20"/>
<path d="M41.048 9.402C41.048 9.402 40.6417 11.128 39.8856 12.1234C39.1295 13.1187 38.0537 12.7414 37.9859 12.1234C37.9182 11.5054 38.5051 9.24493 38.5051 9.24493L37.6173 9.45322C37.6173 9.45322 37.4292 11.1605 36.6035 11.7119C36.2424 12.6492 36.6035 16.1218 36.6035 16.1218C36.6035 16.1218 34.9107 20.7741 35.8512 21.8036C37.732 23.8523 41.7439 21.4741 41.8831 15.4867L42.3872 13.3116C42.3872 13.3116 41.1514 11.2083 41.7439 9.40029L41.048 9.402Z" fill="white"/>
<path d="M37.4764 22.6111C37.1501 22.6092 36.8284 22.5405 36.5353 22.4101C36.2422 22.2798 35.9853 22.0911 35.7836 21.8582C34.8338 20.8253 36.378 16.4701 36.5059 16.1132C36.4758 15.8128 36.1579 12.6031 36.5059 11.6829C36.5119 11.6671 36.5231 11.6535 36.5379 11.6436C37.3184 11.1314 37.514 9.46173 37.5159 9.44466C37.5174 9.4273 37.525 9.41082 37.5375 9.39762C37.55 9.38442 37.5668 9.37518 37.5855 9.37125L38.4714 9.16125C38.4873 9.15797 38.5038 9.15827 38.5196 9.16214C38.5353 9.16601 38.5498 9.17333 38.5617 9.18345C38.5732 9.19374 38.5816 9.20648 38.5862 9.22051C38.5908 9.23453 38.5914 9.24938 38.588 9.26369C38.588 9.28588 38.0049 11.519 38.0708 12.1148C38.0903 12.238 38.1505 12.353 38.2435 12.4444C38.3366 12.5359 38.458 12.5996 38.5918 12.627C39.0112 12.7243 39.4607 12.5177 39.7993 12.0738C40.5347 11.1041 40.9429 9.39856 40.9466 9.38149C40.951 9.36237 40.9626 9.34525 40.9795 9.33309C40.9963 9.32093 41.0173 9.3145 41.0388 9.31491H41.7404C41.755 9.31463 41.7695 9.31759 41.7826 9.32354C41.7957 9.32949 41.807 9.33825 41.8156 9.34905C41.8248 9.35945 41.831 9.37177 41.8336 9.38488C41.8362 9.398 41.8352 9.4115 41.8306 9.42417C41.2551 11.1775 42.4551 13.2502 42.4682 13.2723C42.4758 13.2905 42.4758 13.3105 42.4682 13.3287L41.9642 15.5037C41.872 19.5346 40.0419 21.9145 38.2702 22.4779C38.0157 22.5624 37.7474 22.6075 37.4764 22.6111ZM36.6846 11.7631C36.3479 12.7089 36.694 16.0808 36.6977 16.1149C36.7006 16.1262 36.7006 16.1379 36.6977 16.1491C36.6827 16.1952 35.0313 20.7587 35.936 21.7489C36.1979 22.0562 36.5629 22.2779 36.9758 22.3805C37.3887 22.483 37.8272 22.4609 38.225 22.3174C39.9366 21.7728 41.7027 19.4492 41.7987 15.4884L42.299 13.327C42.1504 13.0675 41.1404 11.1912 41.6294 9.48905H41.1272C41.0425 9.8305 40.6495 11.2748 39.9667 12.1729C39.5905 12.685 39.0564 12.9121 38.5579 12.7943C38.3868 12.7584 38.2319 12.6759 38.1139 12.5578C37.9959 12.4397 37.9205 12.2917 37.8977 12.1336C37.8376 11.5907 38.2551 9.86977 38.383 9.36442L37.7078 9.52319C37.6626 9.83221 37.4332 11.2373 36.6846 11.7631Z" fill="#231F20"/>
<path d="M40.6757 4.9358C41.1061 4.90486 41.5355 5.00651 41.8945 5.22433C42.0629 5.33502 42.2031 5.47735 42.3056 5.64162C42.408 5.8059 42.4702 5.98827 42.4881 6.17633C42.5059 6.3644 42.479 6.55375 42.409 6.7315C42.339 6.90926 42.2277 7.07125 42.0826 7.20646C41.9478 7.31713 41.7867 7.39799 41.6118 7.44271C41.4369 7.48744 41.253 7.49481 41.0744 7.46426C40.6935 7.39662 40.3447 7.22417 40.0755 6.97035C39.8063 6.71652 39.6297 6.39362 39.5697 6.04552C39.5039 5.41554 39.9986 4.97165 40.6757 4.9358Z" fill="white"/>
<path d="M41.2813 7.5666C41.2069 7.56678 41.1326 7.56107 41.0593 7.54953C40.6584 7.47839 40.2914 7.29679 40.0084 7.02947C39.7253 6.76214 39.5399 6.4221 39.4775 6.05567C39.4584 5.91085 39.4727 5.76401 39.5193 5.62443C39.5659 5.48485 39.6439 5.35556 39.7483 5.24472C39.8654 5.12541 40.008 5.02894 40.1674 4.96114C40.3268 4.89335 40.4997 4.85566 40.6756 4.85034C41.1278 4.81784 41.5787 4.92558 41.9546 5.15594C42.1358 5.27449 42.2861 5.42765 42.3949 5.60464C42.5038 5.78163 42.5686 5.97813 42.5847 6.1803C42.6033 6.37909 42.5737 6.57917 42.498 6.76647C42.4223 6.95376 42.3023 7.12373 42.1465 7.26441C41.9131 7.4645 41.6022 7.57306 41.2813 7.5666ZM40.6756 4.93571V5.01936C40.5244 5.02442 40.376 5.05729 40.2392 5.11599C40.1025 5.17468 39.9803 5.25797 39.88 5.36082C39.7937 5.4549 39.7295 5.56401 39.6913 5.68145C39.6531 5.79889 39.6418 5.92217 39.6581 6.04372C39.7147 6.3731 39.8818 6.67864 40.1365 6.91876C40.3913 7.15887 40.7214 7.32189 41.0819 7.38563C41.2451 7.41231 41.4129 7.40496 41.5726 7.36414C41.7322 7.32333 41.8796 7.25011 42.0035 7.15003C42.1387 7.02627 42.2424 6.87718 42.3073 6.7132C42.3723 6.54923 42.397 6.37434 42.3797 6.20079C42.3664 6.02259 42.3099 5.84926 42.2143 5.69315C42.1188 5.53703 41.9864 5.40199 41.8267 5.29765C41.4922 5.09222 41.0917 4.99426 40.6888 5.01936L40.6756 4.93571Z" fill="#231F20"/>
<path d="M37.9916 6.09828C38.2922 5.8066 38.6946 5.61832 39.1307 5.56542C39.5669 5.51251 40.0097 5.59824 40.3841 5.80804C41.3433 6.33559 41.8417 7.99846 40.5816 8.51576C40.5128 8.53585 40.449 8.56772 40.3935 8.60966C40.3506 8.66072 40.3187 8.71863 40.2994 8.78039C40.0023 9.46329 39.1465 9.55036 38.4976 9.25842C38.2814 9.15532 38.0799 9.02861 37.8976 8.88112C36.9985 8.16748 37.1828 6.83923 37.9916 6.09828Z" fill="white"/>
<path d="M39.2255 9.48563C38.9604 9.48404 38.6993 9.42554 38.4638 9.3149C38.2395 9.21034 38.0309 9.08009 37.8431 8.92736C37.6489 8.77501 37.4921 8.58732 37.3829 8.37644C37.2737 8.16556 37.2145 7.93621 37.2093 7.70325C37.1986 7.39418 37.2565 7.08632 37.3796 6.79801C37.5027 6.50969 37.6885 6.2468 37.9259 6.02501C38.2416 5.72104 38.6629 5.52493 39.1191 5.46959C39.5753 5.41426 40.0386 5.50307 40.4312 5.72111C40.7486 5.91645 41.0063 6.18157 41.1803 6.49176C41.3543 6.80194 41.4389 7.14708 41.4262 7.49496C41.419 7.72679 41.3393 7.95198 41.1964 8.14424C41.0536 8.33651 40.8534 8.48791 40.6193 8.58078L40.5854 8.59444C40.5426 8.60724 40.503 8.62754 40.4688 8.65419C40.4414 8.68715 40.4204 8.7241 40.4067 8.76346L40.3954 8.79248C40.3373 8.93136 40.2474 9.05748 40.1317 9.16254C40.0159 9.26759 39.877 9.3492 39.724 9.40197C39.5648 9.45695 39.3959 9.48529 39.2255 9.48563ZM39.3892 5.62892C39.1411 5.6293 38.8956 5.67482 38.6672 5.76279C38.4388 5.85076 38.2321 5.9794 38.0594 6.1411C37.8408 6.34642 37.6697 6.58932 37.556 6.85553C37.4423 7.12174 37.3883 7.4059 37.3973 7.6913C37.4013 7.90071 37.4535 8.10705 37.5507 8.29701C37.6479 8.48697 37.7879 8.65634 37.9616 8.79419C38.138 8.9373 38.3332 9.06002 38.5428 9.15954C38.7121 9.24055 38.8978 9.28943 39.0886 9.30323C39.2793 9.31702 39.4712 9.29544 39.6525 9.23978C39.7811 9.1954 39.8978 9.12681 39.9951 9.03854C40.0923 8.95026 40.1679 8.84429 40.2168 8.72761L40.228 8.702C40.2481 8.63917 40.2828 8.58096 40.3296 8.53127C40.381 8.48702 40.4418 8.45274 40.5083 8.43054L40.5384 8.41859C40.7416 8.33898 40.9153 8.20794 41.0387 8.04113C41.1621 7.87431 41.23 7.67878 41.2343 7.47789C41.2439 7.16126 41.1664 6.84745 41.0087 6.56485C40.8511 6.28226 40.6183 6.0398 40.3315 5.8594C40.0461 5.70681 39.7204 5.62717 39.3892 5.62892Z" fill="#231F20"/>
<path d="M38.7404 9.44978L38.6426 10.4502C38.6426 10.4502 38.7404 10.9197 39.4946 10.8224C40.2488 10.7251 40.4049 10.2761 40.4049 10.2761L40.514 8.39811C40.514 8.39811 39.4194 7.7391 39.694 6.67889C39.5229 6.91508 39.2759 7.09778 38.9866 7.20223C38.6972 7.30668 38.3795 7.32782 38.0764 7.26278C38.015 7.75529 37.9867 8.25075 37.9918 8.74639C38.0256 9.27735 38.7404 9.44978 38.7404 9.44978Z" fill="white"/>
<path d="M39.3009 10.9214C38.6539 10.9214 38.5485 10.4724 38.5485 10.4673C38.5476 10.4594 38.5476 10.4513 38.5485 10.4434L38.6388 9.50952C38.4413 9.44636 37.9297 9.23465 37.8996 8.75662C37.893 8.25589 37.9207 7.75527 37.9824 7.25764C37.984 7.24572 37.9883 7.23424 37.9951 7.22394C38.0019 7.21364 38.011 7.20477 38.0219 7.19789C38.0328 7.19113 38.045 7.18643 38.058 7.18408C38.0709 7.18174 38.0842 7.18179 38.0971 7.18423C38.3808 7.24478 38.6782 7.22504 38.9492 7.12768C39.2202 7.03033 39.4519 6.86001 39.6131 6.63961C39.6243 6.62154 39.6423 6.60778 39.6639 6.60091C39.6854 6.59403 39.709 6.5945 39.7302 6.60223C39.7514 6.60997 39.7687 6.62444 39.779 6.64294C39.7893 6.66144 39.7919 6.68271 39.7861 6.70278C39.5285 7.693 40.5234 8.3059 40.5648 8.33151C40.5783 8.33973 40.5891 8.35097 40.5964 8.36413C40.6036 8.3773 40.607 8.39193 40.6062 8.40663L40.499 10.2846C40.4999 10.2914 40.4999 10.2983 40.499 10.3051C40.499 10.3256 40.3109 10.8088 39.5115 10.9112C39.4417 10.9195 39.3713 10.9229 39.3009 10.9214ZM38.7366 10.4451C38.7554 10.5049 38.8833 10.8156 39.489 10.7388C40.1191 10.6585 40.294 10.3171 40.3203 10.259L40.4238 8.44419C40.2357 8.31615 39.5303 7.77665 39.5642 6.96399C39.3851 7.12964 39.1643 7.2532 38.9208 7.324C38.6773 7.39479 38.4185 7.41069 38.1667 7.37032C38.1104 7.82715 38.0859 8.28675 38.0934 8.74638C38.1235 9.20392 38.7648 9.36611 38.7724 9.36782C38.7935 9.37294 38.8121 9.38461 38.8248 9.40082C38.8375 9.41703 38.8436 9.43676 38.8419 9.4566L38.7366 10.4451Z" fill="#231F20"/>
<path d="M40.1697 8.31794C40.2206 8.20829 40.3111 8.11763 40.4263 8.06084C40.5415 8.00406 40.6745 7.98455 40.8036 8.00551C41.1177 8.07893 41.0801 8.40672 40.9578 8.60988C40.9208 8.67157 40.8706 8.72597 40.8102 8.76993C40.7498 8.81389 40.6805 8.84653 40.6061 8.86597C40.4552 8.90448 40.2936 8.8873 40.1566 8.81817" fill="white"/>
<path d="M40.4462 8.97348C40.3285 8.97321 40.2128 8.94621 40.1095 8.89495C40.0908 8.88226 40.0778 8.86379 40.073 8.84302C40.0682 8.82225 40.0719 8.8006 40.0835 8.78215C40.095 8.7637 40.1136 8.74971 40.1357 8.74281C40.1578 8.73592 40.1819 8.73659 40.2035 8.74471C40.2599 8.77401 40.322 8.79285 40.3864 8.80012C40.4508 8.80739 40.5162 8.80295 40.5787 8.78706C40.6412 8.77117 40.6996 8.74415 40.7505 8.70756C40.8013 8.67098 40.8437 8.62557 40.875 8.57398C40.9122 8.51885 40.9365 8.45732 40.9462 8.39326C40.9559 8.3292 40.9509 8.26401 40.9314 8.2018C40.9172 8.17423 40.896 8.15011 40.8695 8.13142C40.843 8.11272 40.812 8.09998 40.7791 8.09424C40.6735 8.0779 40.5648 8.09426 40.4707 8.14071C40.3765 8.18715 40.3023 8.26098 40.26 8.35033C40.2517 8.37297 40.2339 8.39171 40.2105 8.40244C40.187 8.41317 40.1598 8.41499 40.1349 8.40752C40.1099 8.40005 40.0893 8.38389 40.0775 8.3626C40.0657 8.34131 40.0637 8.31663 40.0719 8.29399C40.1303 8.16277 40.2376 8.05432 40.3751 7.98755C40.5126 7.92078 40.6715 7.89993 40.8242 7.92864C40.8849 7.94043 40.9416 7.96516 40.9897 8.00078C41.0378 8.03641 41.0758 8.0819 41.1007 8.13351C41.1322 8.21955 41.1429 8.31071 41.1322 8.40084C41.1215 8.49096 41.0896 8.57795 41.0386 8.65593C40.98 8.75262 40.894 8.83335 40.7896 8.88977C40.6851 8.9462 40.5659 8.97628 40.4443 8.9769L40.4462 8.97348Z" fill="#231F20"/>
<path d="M38.9536 7.83649C38.9536 7.83649 38.494 8.31073 38.5784 8.41309C38.6628 8.51545 38.9198 8.48474 38.9198 8.48474" fill="white"/>
<path d="M38.8287 8.57566C38.767 8.58092 38.7048 8.57335 38.6468 8.55353C38.5888 8.53371 38.5365 8.50216 38.4939 8.46127C38.4657 8.42371 38.3735 8.30591 38.8833 7.77836C38.892 7.77036 38.9024 7.76401 38.9139 7.75968C38.9253 7.75534 38.9376 7.75311 38.95 7.75311C38.9624 7.75311 38.9747 7.75534 38.9862 7.75968C38.9977 7.76401 39.008 7.77036 39.0168 7.77836C39.0255 7.78615 39.0325 7.79545 39.0373 7.80571C39.042 7.81597 39.0445 7.82699 39.0445 7.83812C39.0445 7.84925 39.042 7.86026 39.0373 7.87052C39.0325 7.88079 39.0255 7.89008 39.0168 7.89787C38.8678 8.03954 38.7441 8.20139 38.65 8.37761C38.7269 8.40813 38.8118 8.41763 38.8945 8.40493C38.9193 8.40294 38.944 8.4096 38.9636 8.42355C38.9832 8.43751 38.9961 8.45771 38.9999 8.48005C39.0025 8.50263 38.9954 8.52527 38.9799 8.54314C38.9645 8.561 38.9419 8.57267 38.9171 8.57566C38.8877 8.57714 38.8581 8.57714 38.8287 8.57566Z" fill="#231F20"/>
<path d="M39.4023 7.60582C39.4164 7.50197 39.3879 7.41332 39.3386 7.4078C39.2893 7.40229 39.2379 7.48199 39.2238 7.58584C39.2097 7.68968 39.2382 7.77834 39.2875 7.78385C39.3368 7.78937 39.3882 7.70966 39.4023 7.60582Z" fill="#231F20"/>
<path d="M38.4761 7.64708C38.4902 7.54324 38.4617 7.45459 38.4124 7.44907C38.3631 7.44355 38.3117 7.52326 38.2976 7.6271C38.2835 7.73095 38.3121 7.8196 38.3613 7.82511C38.4106 7.83063 38.462 7.75092 38.4761 7.64708Z" fill="#231F20"/>
<path d="M38.7403 9.44973C39.0632 9.50347 39.3967 9.45023 39.68 9.29968C39.68 9.29968 39.4244 9.9817 38.6876 9.9817L38.7403 9.44973Z" fill="#231F20"/>
<path d="M38.6876 10.0763C38.6746 10.0762 38.6617 10.0738 38.6497 10.0691C38.6377 10.0644 38.6269 10.0576 38.618 10.0489C38.609 10.0404 38.6022 10.0301 38.5979 10.0189C38.5937 10.0077 38.5922 9.99585 38.5935 9.98407L38.6462 9.44287C38.6471 9.43032 38.6512 9.41813 38.658 9.40719C38.6649 9.39625 38.6743 9.38686 38.6857 9.3797C38.6972 9.37276 38.7102 9.36811 38.7238 9.36605C38.7374 9.36399 38.7514 9.36457 38.7647 9.36775C39.0651 9.413 39.3736 9.36232 39.6374 9.22434C39.6541 9.21624 39.673 9.21289 39.6918 9.21472C39.7106 9.21655 39.7284 9.22347 39.7428 9.23458C39.7567 9.2459 39.7667 9.2606 39.7717 9.27693C39.7767 9.29327 39.7765 9.31057 39.771 9.32678C39.771 9.32678 39.4832 10.0728 38.6876 10.0763ZM38.8249 9.54872L38.791 9.90041C38.9341 9.88099 39.0704 9.83253 39.1899 9.75863C39.3094 9.68473 39.409 9.5873 39.4813 9.4736C39.2715 9.5431 39.0471 9.56878 38.8249 9.54872Z" fill="#231F20"/>
<path d="M38.9115 9.02806C38.7534 9.02327 38.5986 8.98652 38.4582 8.92051C38.4471 8.91576 38.4372 8.90906 38.429 8.9008C38.4208 8.89254 38.4146 8.88289 38.4105 8.8724C38.4065 8.86191 38.4048 8.8508 38.4056 8.83971C38.4063 8.82863 38.4095 8.81779 38.4149 8.80783C38.4202 8.79758 38.4276 8.78837 38.4368 8.78075C38.446 8.77313 38.4568 8.76724 38.4685 8.76343C38.4802 8.75962 38.4927 8.75796 38.5051 8.75855C38.5175 8.75913 38.5297 8.76196 38.5409 8.76685C38.6273 8.81665 38.7258 8.84643 38.8278 8.85358C38.9298 8.86072 39.0321 8.84501 39.1259 8.80783C39.4118 8.661 39.4588 8.23589 39.4588 8.23077C39.4607 8.20768 39.4723 8.18613 39.4912 8.17057C39.5101 8.15501 39.5349 8.14661 39.5604 8.14712C39.5727 8.14818 39.5848 8.15146 39.5957 8.15677C39.6067 8.16208 39.6164 8.16931 39.6243 8.17804C39.6321 8.18677 39.638 8.19683 39.6416 8.20764C39.6451 8.21845 39.6463 8.2298 39.645 8.24102C39.645 8.2615 39.5867 8.75319 39.2181 8.94953C39.1252 8.99962 39.0195 9.0267 38.9115 9.02806Z" fill="#231F20"/>
<path d="M36.6036 16.1218C36.6036 16.1218 38.5634 16.4138 40.1565 15.6421L36.6036 16.1218Z" fill="white"/>
<path d="M37.5139 16.2635C37.2043 16.2656 36.895 16.2468 36.5885 16.2072C36.5762 16.2053 36.5645 16.2013 36.554 16.1953C36.5435 16.1893 36.5344 16.1814 36.5272 16.1722C36.52 16.163 36.5149 16.1526 36.5122 16.1416C36.5095 16.1306 36.5092 16.1192 36.5114 16.1081C36.5132 16.0971 36.5174 16.0865 36.5239 16.0769C36.5303 16.0674 36.5387 16.0591 36.5487 16.0526C36.5587 16.0461 36.57 16.0414 36.582 16.039C36.594 16.0365 36.6065 16.0362 36.6186 16.0381C36.6374 16.0381 38.5672 16.3147 40.1132 15.5669C40.124 15.5616 40.1357 15.5582 40.1479 15.557C40.1601 15.5558 40.1724 15.5568 40.1841 15.56C40.1959 15.5632 40.2068 15.5685 40.2163 15.5755C40.2257 15.5826 40.2335 15.5913 40.2393 15.6011C40.2452 15.6109 40.249 15.6218 40.2503 15.6329C40.2516 15.6441 40.2505 15.6554 40.247 15.6662C40.2435 15.677 40.2377 15.6871 40.2299 15.6958C40.2221 15.7046 40.2125 15.7118 40.2016 15.7172C39.3669 16.0921 38.4451 16.2795 37.5139 16.2635Z" fill="#231F20"/>
<path d="M47.2456 26.2561C47.2754 26.5274 47.2139 26.8006 47.0691 27.0395C46.9244 27.2785 46.7033 27.472 46.435 27.5946C46.435 27.5946 45.8161 29.7048 46.2469 29.6536C47.1384 29.5443 47.6312 28.0965 47.6312 28.0965L47.981 28.1392C48.1503 28.0812 48.6168 27.2856 48.6168 27.2856L47.2456 26.2561Z" fill="#231F20"/>
<path d="M46.2299 29.739C46.2032 29.739 46.1768 29.7338 46.1524 29.7238C46.1281 29.7138 46.1064 29.6992 46.0888 29.681C45.8311 29.4146 46.2186 27.9993 46.3427 27.5725C46.3467 27.5607 46.3532 27.5498 46.3619 27.5404C46.3706 27.531 46.3814 27.5234 46.3935 27.5179C46.6438 27.4035 46.8499 27.2227 46.9843 26.9994C47.1187 26.7762 47.175 26.5211 47.1459 26.2681C47.1429 26.2512 47.1458 26.2339 47.1543 26.2186C47.1627 26.2033 47.1762 26.1908 47.1929 26.1828C47.2093 26.1745 47.2282 26.1708 47.247 26.1723C47.2658 26.1739 47.2836 26.1805 47.2982 26.1913L48.6656 27.2259C48.6822 27.2385 48.6935 27.2559 48.6976 27.2752C48.7017 27.2945 48.6984 27.3145 48.6882 27.3318C48.5433 27.5776 48.186 28.1564 48.0017 28.2195C47.9869 28.2231 47.9713 28.2231 47.9565 28.2195L47.6838 28.1854C47.5709 28.4842 47.0838 29.6315 46.2487 29.7322L46.2299 29.739ZM46.5195 27.6527C46.2412 28.6156 46.1114 29.4897 46.2355 29.57C47.0593 29.4693 47.539 28.0864 47.5521 28.0727C47.5583 28.053 47.5722 28.036 47.5913 28.025C47.6104 28.0139 47.6333 28.0097 47.6556 28.013L47.9734 28.0522C48.1836 27.8259 48.3635 27.5777 48.5095 27.313L47.3565 26.4406C47.35 26.6923 47.2688 26.9377 47.1215 27.151C46.9742 27.3643 46.7662 27.5377 46.5195 27.6527Z" fill="#231F20"/>
<path d="M49.3014 16.7756C49.2637 16.5975 49.2134 16.4219 49.1509 16.2497C49.1146 16.1354 49.1076 16.0152 49.1302 15.898C49.1394 15.8505 49.1667 15.8075 49.2072 15.7763C49.2478 15.7451 49.299 15.7278 49.3522 15.7273C49.5553 15.7068 50.6688 16.207 51.0055 16.2224L50.9039 16.5519C50.9039 16.5519 50.475 16.4546 50.2964 16.5639C50.1725 16.6718 50.0917 16.8142 50.0669 16.9685L49.3014 16.7756Z" fill="white"/>
<path d="M50.0669 17.0574H50.0406L49.277 16.8542C49.2603 16.85 49.2452 16.8417 49.2332 16.8303C49.2213 16.8189 49.213 16.8047 49.2093 16.7894C49.1739 16.6158 49.1255 16.4447 49.0644 16.2772C49.0201 16.1485 49.0104 16.0121 49.0362 15.8794C49.0498 15.8139 49.0876 15.7545 49.1433 15.7111C49.1991 15.6676 49.2694 15.6427 49.3428 15.6404C49.4575 15.6284 49.7039 15.7155 50.1271 15.8674C50.4108 15.9842 50.7071 16.074 51.0111 16.1355C51.0252 16.1357 51.0389 16.139 51.0513 16.1449C51.0637 16.1508 51.0744 16.1593 51.0826 16.1696C51.0906 16.1802 51.096 16.1923 51.0983 16.205C51.1005 16.2177 51.0997 16.2307 51.0958 16.243L50.9942 16.5742C50.9872 16.5956 50.9713 16.6136 50.9499 16.6245C50.9284 16.6353 50.9032 16.6381 50.8795 16.6323C50.7068 16.5834 50.5218 16.5834 50.3491 16.6323C50.2475 16.7247 50.1815 16.8445 50.161 16.9737C50.159 16.9855 50.1543 16.9968 50.1472 17.0068C50.1401 17.0168 50.1307 17.0254 50.1196 17.0318C50.1051 17.0448 50.0868 17.0537 50.0669 17.0574ZM49.3823 16.7074L49.9973 16.8645C50.0314 16.7199 50.1182 16.59 50.2437 16.4957C50.4309 16.4233 50.6391 16.4089 50.8362 16.4547L50.887 16.296C50.6045 16.2243 50.3274 16.1359 50.0575 16.0313C49.8333 15.94 49.6004 15.8674 49.3616 15.8145C49.2431 15.8265 49.2243 15.8965 49.2224 15.9118C49.2027 16.0129 49.2079 16.1167 49.2375 16.2157C49.298 16.3764 49.3464 16.5407 49.3823 16.7074Z" fill="#231F20"/>
<path d="M49.0607 17.2965C48.8606 17.5831 48.6005 17.8314 48.2952 18.0272C48.0018 18.1894 47.6802 18.9628 47.4958 19.4647C47.4754 19.5209 47.4677 19.5802 47.4732 19.6391C47.4787 19.698 47.4973 19.7553 47.5279 19.8074C47.5585 19.8596 47.6004 19.9056 47.6511 19.9427C47.7019 19.9797 47.7604 20.0071 47.8231 20.023L49.2751 20.3952C49.3396 20.4116 49.4071 20.4157 49.4734 20.4071C49.5396 20.3985 49.6032 20.3775 49.66 20.3454C49.7168 20.3132 49.7656 20.2707 49.8033 20.2205C49.841 20.1703 49.8668 20.1135 49.8789 20.0537C49.9767 19.5416 50.1121 18.7818 50.0839 18.5957C50.0425 18.3123 49.7491 17.9521 49.8488 17.5014L49.0607 17.2965Z" fill="white"/>
<path d="M49.4047 20.4958C49.352 20.4956 49.2996 20.4893 49.2486 20.4771L47.7966 20.0981C47.7216 20.0794 47.6516 20.0469 47.591 20.0025C47.5305 19.9582 47.4808 19.9029 47.4449 19.8403C47.4078 19.778 47.3853 19.7095 47.3788 19.639C47.3723 19.5684 47.382 19.4975 47.4073 19.4305C47.7157 18.5769 47.9997 18.0835 48.2461 17.9469C48.539 17.7583 48.7883 17.5193 48.9797 17.2435C48.9904 17.2278 49.0065 17.2158 49.0256 17.2093C49.0447 17.2028 49.0655 17.2022 49.085 17.2077L49.875 17.4091C49.8976 17.4151 49.917 17.4286 49.9292 17.447C49.9414 17.4653 49.9455 17.4871 49.9408 17.5081C49.905 17.7584 49.9494 18.0126 50.0687 18.2406C50.1184 18.3505 50.155 18.465 50.1778 18.582C50.2003 18.734 50.1308 19.2325 49.9709 20.0639C49.9479 20.1847 49.8787 20.2942 49.7754 20.3732C49.6722 20.4522 49.5416 20.4956 49.4066 20.4958H49.4047ZM49.1019 17.3955C48.903 17.6719 48.6476 17.9112 48.3496 18.1006C48.1502 18.2098 47.8737 18.7169 47.5972 19.492C47.5806 19.5369 47.5742 19.5844 47.5784 19.6317C47.5826 19.6789 47.5973 19.7249 47.6217 19.7668C47.646 19.8086 47.6796 19.8454 47.7204 19.8748C47.7612 19.9042 47.8083 19.9256 47.8587 19.9376L49.3107 20.3098C49.3628 20.3249 49.4179 20.3296 49.4722 20.3234C49.5265 20.3172 49.5786 20.3004 49.625 20.2741C49.6714 20.2477 49.7108 20.2126 49.7407 20.1709C49.7706 20.1293 49.7901 20.0823 49.7978 20.0332C49.9085 19.5621 49.9771 19.0836 50.0029 18.6025C49.981 18.5006 49.9476 18.4011 49.9032 18.3054C49.7861 18.0712 49.7351 17.8142 49.7546 17.5576L49.1019 17.3955Z" fill="#231F20"/>
<path d="M49.8017 18.7817L48.3346 18.4061C48.1849 18.5274 48.0766 18.6849 48.0224 18.8603C47.9114 19.1778 47.6462 19.5022 47.7685 19.6763C47.8907 19.8505 48.2011 19.8812 48.6562 20.0178C49.1114 20.1544 49.3409 20.2175 49.5327 20.1475C49.7246 20.0775 49.8036 18.9849 49.8017 18.7817Z" fill="#68E1FD"/>
<path d="M49.0249 19.8573C49.0039 19.8572 48.9834 19.8507 48.9668 19.839C48.9501 19.8273 48.9382 19.8109 48.9328 19.7924C48.7447 19.0497 49.309 17.4313 49.3353 17.363C49.3388 17.3519 49.3446 17.3416 49.3526 17.3327C49.3606 17.3238 49.3704 17.3164 49.3816 17.311C49.3927 17.3056 49.405 17.3023 49.4176 17.3013C49.4302 17.3004 49.4429 17.3017 49.4549 17.3052C49.4669 17.3088 49.478 17.3145 49.4876 17.3221C49.4971 17.3296 49.5048 17.3388 49.5104 17.3492C49.5159 17.3595 49.519 17.3707 49.5196 17.3822C49.5203 17.3937 49.5183 17.4051 49.514 17.4159C49.514 17.4313 48.9328 19.0566 49.1171 19.7514C49.1228 19.7734 49.1186 19.7965 49.1056 19.8157C49.0925 19.8349 49.0717 19.8486 49.0475 19.8539L49.0249 19.8573Z" fill="#231F20"/>
<path d="M49.189 16.7515L50.0627 16.9754L49.8952 17.5136L49.0216 17.2897L49.189 16.7515Z" fill="white"/>
<path d="M49.9051 17.5967H49.8788L49.0004 17.3662C48.9763 17.3593 48.9556 17.3447 48.9421 17.3252C48.9327 17.3045 48.9327 17.2812 48.9421 17.2604L49.1095 16.7209C49.1128 16.71 49.1184 16.6997 49.126 16.6908C49.1337 16.6819 49.1432 16.6744 49.154 16.6689C49.1649 16.6633 49.1769 16.6598 49.1892 16.6584C49.2016 16.6571 49.2141 16.658 49.2261 16.6611L50.0932 16.8882C50.1172 16.8946 50.1375 16.9092 50.1498 16.929C50.1621 16.9487 50.1654 16.9721 50.159 16.994L49.9916 17.5335C49.9884 17.5444 49.9827 17.5546 49.975 17.5634C49.9672 17.5722 49.9575 17.5795 49.9465 17.5848C49.9338 17.5913 49.9197 17.5954 49.9051 17.5967ZM49.1528 17.2279L49.8449 17.3987L49.9615 17.0231L49.2694 16.8523L49.1528 17.2279Z" fill="#231F20"/>
<path d="M50.2964 16.5674C50.2964 16.5674 50.4462 16.9258 50.7179 16.9361L50.2964 16.5674Z" fill="white"/>
<path d="M50.7193 17.0245C50.3885 17.0125 50.2193 16.6168 50.2137 16.5997C50.2076 16.589 50.2042 16.5773 50.2035 16.5653C50.2028 16.5533 50.2049 16.5413 50.2097 16.5301C50.2145 16.5189 50.2218 16.5087 50.2312 16.5003C50.2406 16.4918 50.2519 16.4853 50.2642 16.4811C50.2766 16.4768 50.2899 16.475 50.3031 16.4757C50.3163 16.4765 50.3292 16.4797 50.3409 16.4853C50.3526 16.4909 50.3629 16.4986 50.3711 16.508C50.3793 16.5175 50.3852 16.5283 50.3885 16.54C50.4242 16.6253 50.5557 16.8471 50.7268 16.8539C50.7517 16.8539 50.7756 16.8629 50.7932 16.8789C50.8109 16.8949 50.8208 16.9166 50.8208 16.9392C50.8208 16.9618 50.8109 16.9835 50.7932 16.9995C50.7756 17.0155 50.7517 17.0245 50.7268 17.0245H50.7193Z" fill="#231F20"/>
<path d="M50.9087 16.5577L51.0114 16.2277L51.4099 16.3298L51.3072 16.6599L50.9087 16.5577Z" fill="white"/>
<path d="M51.3022 16.7428H51.2777L50.8774 16.6404C50.8654 16.6375 50.8541 16.6324 50.8443 16.6254C50.8345 16.6185 50.8262 16.6099 50.8201 16.6C50.814 16.5902 50.8101 16.5793 50.8086 16.5681C50.8072 16.5569 50.8082 16.5455 50.8116 16.5346L50.915 16.2054C50.9182 16.1945 50.9239 16.1843 50.9316 16.1755C50.9394 16.1667 50.9491 16.1595 50.9601 16.1542C50.983 16.1457 51.0086 16.1457 51.0315 16.1542L51.4319 16.2583C51.4436 16.2612 51.4546 16.2663 51.4643 16.2731C51.4739 16.28 51.4819 16.2885 51.4878 16.2982C51.4938 16.3079 51.4975 16.3185 51.4989 16.3295C51.5003 16.3406 51.4992 16.3517 51.4958 16.3623L51.3943 16.6933C51.3859 16.7144 51.3701 16.7325 51.3492 16.7445C51.3336 16.7473 51.3175 16.7467 51.3022 16.7428ZM51.0184 16.4954L51.2383 16.5517L51.289 16.3811L51.071 16.3248L51.0184 16.4954Z" fill="#231F20"/>
<path d="M47.7402 17.9725C47.8324 18.0886 47.9283 18.179 48.0148 18.302C48.1264 18.4541 48.257 18.5939 48.4042 18.7185C48.7333 19.0293 48.8932 18.6383 48.7804 18.36C48.6675 18.0817 48.344 17.8478 48.2819 17.5354" fill="white"/>
<path d="M48.6261 18.9183C48.5699 18.9142 48.5152 18.8996 48.4653 18.8755C48.4155 18.8515 48.3717 18.8184 48.3365 18.7784L48.28 18.7254C48.1487 18.6118 48.0326 18.4846 47.934 18.3464C47.8881 18.2807 47.8372 18.2179 47.7816 18.1586C47.7421 18.1142 47.7007 18.0698 47.6631 18.022C47.6488 18.0036 47.643 17.9808 47.6469 17.9585C47.6507 17.9362 47.664 17.9161 47.6838 17.9025C47.6939 17.896 47.7053 17.8913 47.7175 17.8888C47.7296 17.8863 47.7421 17.886 47.7543 17.8879C47.7666 17.8898 47.7783 17.8939 47.7888 17.8999C47.7993 17.9059 47.8083 17.9138 47.8155 17.923C47.8512 17.9674 47.8888 18.0084 47.9264 18.0494C47.9891 18.115 48.0457 18.1853 48.0957 18.2593C48.1872 18.3841 48.2945 18.4987 48.4155 18.6008L48.4719 18.6537C48.5471 18.7254 48.6148 18.7562 48.6506 18.7357C48.6931 18.6866 48.72 18.6278 48.7283 18.5658C48.7365 18.5038 48.7259 18.4409 48.6976 18.384C48.6414 18.261 48.5661 18.146 48.4738 18.0425C48.3412 17.9001 48.2466 17.7318 48.1973 17.5508C48.1928 17.5282 48.1984 17.5049 48.2128 17.486C48.2273 17.4671 48.2494 17.4542 48.2744 17.4501C48.2993 17.446 48.325 17.4511 48.3458 17.4642C48.3667 17.4774 48.3809 17.4975 48.3854 17.5201C48.4317 17.6758 48.5152 17.8203 48.6299 17.9435C48.7341 18.0613 48.8184 18.1925 48.88 18.3328C48.9534 18.5257 48.9214 18.7937 48.754 18.8859C48.7158 18.9078 48.6713 18.9191 48.6261 18.9183Z" fill="#231F20"/>
<path d="M12.8163 28.0692H6.67148L6.61505 27.0995H12.8727L12.8163 28.0692Z" fill="white"/>
<path d="M12.8162 28.1545H6.6714C6.64727 28.155 6.62391 28.1468 6.60632 28.1318C6.58874 28.1168 6.57834 28.0962 6.57736 28.0743L6.52093 27.1028C6.52012 27.0912 6.52205 27.0796 6.52659 27.0687C6.53114 27.0578 6.53818 27.0479 6.54726 27.0397C6.55595 27.0313 6.56646 27.0248 6.57813 27.0203C6.58979 27.0159 6.60234 27.0138 6.61497 27.0141H12.8726C12.8853 27.0138 12.8978 27.0159 12.9095 27.0203C12.9211 27.0248 12.9317 27.0313 12.9403 27.0397C12.9579 27.0568 12.9674 27.0795 12.9667 27.1028L12.9102 28.0743C12.9088 28.096 12.8983 28.1164 12.8808 28.1313C12.8633 28.1463 12.8402 28.1546 12.8162 28.1545ZM6.7598 27.9838H12.7259L12.7729 27.1848H6.71466L6.7598 27.9838Z" fill="#231F20"/>
<path d="M12.2971 32.2094H7.19053L6.96106 28.0693H12.5266L12.2971 32.2094Z" fill="white"/>
<path d="M12.2972 32.2947H7.19063C7.16632 32.2947 7.14295 32.2862 7.12542 32.2709C7.10789 32.2557 7.09755 32.2348 7.09658 32.2128L6.86712 28.0744C6.86618 28.0627 6.86806 28.0511 6.8726 28.0401C6.87715 28.0292 6.88426 28.0194 6.89345 28.0112C6.90196 28.0026 6.9124 27.9957 6.92407 27.9909C6.93575 27.9862 6.94839 27.9838 6.96116 27.9839H12.5266C12.5394 27.9838 12.5521 27.9862 12.5637 27.9909C12.5754 27.9957 12.5858 28.0026 12.5944 28.0112C12.6035 28.0194 12.6107 28.0292 12.6152 28.0401C12.6198 28.0511 12.6216 28.0627 12.6207 28.0744L12.3912 32.2196C12.3885 32.2404 12.3773 32.2596 12.36 32.2734C12.3426 32.2873 12.3203 32.2949 12.2972 32.2947ZM7.27903 32.124H12.2069L12.427 28.1546H7.05896L7.27903 32.124Z" fill="#231F20"/>
<path d="M9.74289 31.2225C9.23151 31.2241 8.72634 31.1209 8.26502 30.9206C7.80369 30.7203 7.3981 30.4281 7.07847 30.0658C6.75884 29.7035 6.5334 29.2803 6.41896 28.8279C6.30452 28.3755 6.30403 27.9055 6.41751 27.4529C6.42023 27.4417 6.42535 27.4311 6.43259 27.4217C6.43982 27.4123 6.44903 27.4042 6.45969 27.398C6.47034 27.3919 6.48223 27.3876 6.49468 27.3856C6.50713 27.3836 6.5199 27.3839 6.53225 27.3863C6.5446 27.3888 6.55629 27.3934 6.56666 27.4C6.57703 27.4066 6.58587 27.4149 6.59268 27.4246C6.5995 27.4343 6.60414 27.4451 6.60636 27.4564C6.60857 27.4677 6.60832 27.4793 6.6056 27.4905C6.55457 27.6996 6.52809 27.9131 6.5266 28.1273C6.52555 28.5389 6.62025 28.9462 6.80452 29.3223C6.98879 29.6985 7.25846 30.0351 7.59591 30.3101C7.93336 30.5851 8.33098 30.7924 8.76275 30.9184C9.19452 31.0443 9.65073 31.0861 10.1015 31.041C10.5523 30.9959 10.9875 30.8649 11.3787 30.6566C11.7699 30.4483 12.1082 30.1674 12.3716 29.8323C12.6349 29.4971 12.8174 29.1153 12.907 28.7118C12.9966 28.3082 12.9913 27.892 12.8915 27.4905C12.8887 27.4795 12.8883 27.4681 12.8904 27.457C12.8925 27.4459 12.897 27.4352 12.9037 27.4257C12.9103 27.4162 12.919 27.408 12.9292 27.4015C12.9393 27.395 12.9508 27.3904 12.9629 27.388C12.9873 27.3834 13.0128 27.3876 13.0338 27.3997C13.0549 27.4118 13.07 27.4309 13.0758 27.4529C13.1299 27.6743 13.1577 27.9004 13.1585 28.1273C13.1575 28.9488 12.7972 29.7363 12.1567 30.3168C11.5162 30.8972 10.648 31.223 9.74289 31.2225Z" fill="#231F20"/>
<path d="M19.8658 6.3255C19.8658 6.3255 19.5347 7.26449 18.6658 7.58375C18.6658 7.58375 19.7623 7.6879 20.0012 8.61836C20.0012 8.61836 20.2288 7.58375 21.0977 7.32084C20.795 7.31665 20.504 7.21382 20.2779 7.0311C20.0517 6.84838 19.9054 6.59795 19.8658 6.3255Z" fill="#D1D3D4"/>
<path d="M23.2118 12.7312C23.2118 12.7312 22.8808 13.6702 22.0118 13.9895C22.0118 13.9895 23.1084 14.0936 23.3454 15.0223C23.3454 15.0223 23.573 13.9895 24.4438 13.7265C24.141 13.7227 23.8498 13.62 23.6235 13.4372C23.3973 13.2544 23.2511 13.0038 23.2118 12.7312Z" fill="#D1D3D4"/>
<path d="M33.2105 3.83966C33.2105 3.83966 32.9321 4.62842 32.2042 4.89646C32.2042 4.89646 33.124 4.98353 33.3327 5.76375C33.3327 5.76375 33.5208 4.89646 34.2525 4.67622C33.9967 4.67483 33.7501 4.58928 33.5585 4.43545C33.3669 4.28162 33.2433 4.06994 33.2105 3.83966Z" fill="#D1D3D4"/>
<path d="M27.4117 15.4371C27.4117 15.4371 27.1822 16.0825 26.586 16.3027C26.586 16.3027 27.3383 16.3744 27.5039 17.0129C27.5039 17.0129 27.66 16.3027 28.2562 16.1217C28.0483 16.1188 27.8485 16.048 27.6934 15.9222C27.5384 15.7965 27.4383 15.6243 27.4117 15.4371Z" fill="#D1D3D4"/>
</svg>
