<svg width="549" height="539" viewBox="0 0 549 539" fill="none" xmlns="http://www.w3.org/2000/svg">
<g clip-path="url(#clip0_139373_148)">
<path fill-rule="evenodd" clip-rule="evenodd" d="M319.456 97.3601C347.352 106.858 375.404 107.576 403.182 117.439C444.527 132.12 512.473 124.562 521.034 168.936C530.054 215.693 457.924 234.648 433.606 275.14C417.967 301.181 426.984 338.473 406.136 360.256C383.831 383.562 349.9 385.298 319.456 394.413C274.734 407.802 226.039 451.673 186.662 425.963C148.032 400.741 159.39 337.63 160.079 290.353C160.587 255.513 186.824 227.898 190.054 193.215C194.832 141.907 142.667 72.5253 183.159 42.5307C223.793 12.4311 271.992 81.2007 319.456 97.3601Z" fill="#183953"/>
<mask id="mask0_139373_148" style="mask-type:alpha" maskUnits="userSpaceOnUse" x="-10" y="68" width="492" height="453">
<path fill-rule="evenodd" clip-rule="evenodd" d="M246.525 68.0597C281.07 69.4977 301.338 110.063 333.572 123.002C373.875 139.18 427.612 120.753 457.741 152.843C487.045 184.055 481.014 235.572 480.12 279.089C479.238 321.952 470.921 363.812 452.613 402.269C433.491 442.434 410.958 484.475 372.544 505.056C334.526 525.425 288.32 522.27 246.525 512.685C209.172 504.119 184.277 469.349 149.085 453.812C107.541 435.471 51.8369 448.306 21.7383 413.446C-8.06929 378.924 -19.075 321.789 -1.7761 279.089C16.1236 234.905 76.7395 231.082 109.379 197.115C131.187 174.42 132.459 137.115 155.341 115.583C180.959 91.4765 211.934 66.6198 246.525 68.0597Z" fill="#C4C4C4"/>
</mask>
<g mask="url(#mask0_139373_148)">
<path fill-rule="evenodd" clip-rule="evenodd" d="M267.537 66.2371C302.081 67.6751 322.35 108.241 354.584 121.18C394.887 137.358 448.623 118.931 478.752 151.02C508.056 182.232 502.026 233.75 501.131 277.266C500.25 320.13 491.932 361.99 473.624 400.446C454.503 440.612 431.969 482.653 393.556 503.234C355.538 523.603 309.331 520.447 267.537 510.863C230.184 502.297 205.289 467.526 170.096 451.989C128.553 433.649 72.8484 446.483 42.7497 411.623C12.9422 377.101 1.93645 319.966 19.2354 277.266C37.135 233.083 97.751 229.259 130.391 195.292C152.199 172.597 153.47 135.292 176.352 113.76C201.97 89.6538 232.946 64.7971 267.537 66.2371Z" fill="#2F80ED"/>
</g>
<circle cx="539" cy="64" r="4" transform="rotate(90 539 64)" fill="#183953"/>
<circle cx="515" cy="64" r="4" transform="rotate(90 515 64)" fill="#183953"/>
<circle cx="491" cy="64" r="4" transform="rotate(90 491 64)" fill="#183953"/>
<circle cx="467" cy="64" r="4" transform="rotate(90 467 64)" fill="#183953"/>
<circle cx="443" cy="64" r="4" transform="rotate(90 443 64)" fill="#183953"/>
<circle cx="419" cy="64" r="4" transform="rotate(90 419 64)" fill="#183953"/>
<circle cx="395" cy="64" r="4" transform="rotate(90 395 64)" fill="#183953"/>
<circle cx="371" cy="64" r="4" transform="rotate(90 371 64)" fill="#183953"/>
<circle cx="539" cy="88" r="4" transform="rotate(90 539 88)" fill="#183953"/>
<circle cx="515" cy="88" r="4" transform="rotate(90 515 88)" fill="#183953"/>
<circle cx="491" cy="88" r="4" transform="rotate(90 491 88)" fill="#183953"/>
<circle cx="467" cy="88" r="4" transform="rotate(90 467 88)" fill="#183953"/>
<circle cx="443" cy="88" r="4" transform="rotate(90 443 88)" fill="#183953"/>
<circle cx="419" cy="88" r="4" transform="rotate(90 419 88)" fill="#183953"/>
<circle cx="395" cy="88" r="4" transform="rotate(90 395 88)" fill="#183953"/>
<circle cx="371" cy="88" r="4" transform="rotate(90 371 88)" fill="#183953"/>
<circle cx="539" cy="112" r="4" transform="rotate(90 539 112)" fill="#183953"/>
<circle cx="515" cy="112" r="4" transform="rotate(90 515 112)" fill="#183953"/>
<circle cx="491" cy="112" r="4" transform="rotate(90 491 112)" fill="#183953"/>
<circle cx="467" cy="112" r="4" transform="rotate(90 467 112)" fill="#183953"/>
<circle cx="443" cy="112" r="4" transform="rotate(90 443 112)" fill="#183953"/>
<circle cx="419" cy="112" r="4" transform="rotate(90 419 112)" fill="#183953"/>
<circle cx="395" cy="112" r="4" transform="rotate(90 395 112)" fill="#183953"/>
<circle cx="371" cy="112" r="4" transform="rotate(90 371 112)" fill="#183953"/>
<circle cx="539" cy="136" r="4" transform="rotate(90 539 136)" fill="#183953"/>
<circle cx="515" cy="136" r="4" transform="rotate(90 515 136)" fill="#183953"/>
<circle cx="491" cy="136" r="4" transform="rotate(90 491 136)" fill="#183953"/>
<circle cx="467" cy="136" r="4" transform="rotate(90 467 136)" fill="#183953"/>
<circle cx="443" cy="136" r="4" transform="rotate(90 443 136)" fill="#183953"/>
<circle cx="419" cy="136" r="4" transform="rotate(90 419 136)" fill="#183953"/>
<circle cx="395" cy="136" r="4" transform="rotate(90 395 136)" fill="#183953"/>
<circle cx="371" cy="136" r="4" transform="rotate(90 371 136)" fill="#183953"/>
<circle cx="10" cy="256" r="4" fill="#183953"/>
<circle cx="10" cy="280" r="4" fill="#183953"/>
<circle cx="10" cy="304" r="4" fill="#183953"/>
<circle cx="10" cy="328" r="4" fill="#183953"/>
<circle cx="10" cy="352" r="4" fill="#183953"/>
<circle cx="10" cy="376" r="4" fill="#183953"/>
<circle cx="10" cy="400" r="4" fill="#183953"/>
<circle cx="10" cy="424" r="4" fill="#183953"/>
<circle cx="34" cy="256" r="4" fill="#183953"/>
<circle cx="34" cy="280" r="4" fill="#183953"/>
<circle cx="34" cy="304" r="4" fill="#183953"/>
<circle cx="34" cy="328" r="4" fill="#183953"/>
<circle cx="34" cy="352" r="4" fill="#183953"/>
<circle cx="34" cy="376" r="4" fill="#183953"/>
<circle cx="34" cy="400" r="4" fill="#183953"/>
<circle cx="34" cy="424" r="4" fill="#183953"/>
<circle cx="58" cy="256" r="4" fill="#183953"/>
<circle cx="58" cy="280" r="4" fill="#183953"/>
<circle cx="58" cy="304" r="4" fill="#183953"/>
<circle cx="58" cy="328" r="4" fill="#183953"/>
<circle cx="58" cy="352" r="4" fill="#183953"/>
<circle cx="58" cy="376" r="4" fill="#183953"/>
<circle cx="58" cy="400" r="4" fill="#183953"/>
<circle cx="58" cy="424" r="4" fill="#183953"/>
<g filter="url(#filter0_d_139373_148)">
<rect x="82" y="364" width="199.816" height="109.069" rx="24" fill="url(#paint0_linear_139373_148)" shape-rendering="crispEdges"/>
<path d="M110.908 403.035L114.388 413.745H125.649L116.539 420.364L120.019 431.074L110.908 424.455L101.797 431.074L105.277 420.364L96.1667 413.745H107.428L110.908 403.035Z" fill="#F2C94C"/>
<path d="M151.288 410.535L147.968 404.835H145.768V410.535H143.948V396.595H148.448C149.501 396.595 150.388 396.775 151.108 397.135C151.841 397.495 152.388 397.981 152.748 398.595C153.108 399.208 153.288 399.908 153.288 400.695C153.288 401.655 153.008 402.501 152.448 403.235C151.901 403.968 151.075 404.455 149.968 404.695L153.468 410.535H151.288ZM145.768 403.375H148.448C149.435 403.375 150.175 403.135 150.668 402.655C151.161 402.161 151.408 401.508 151.408 400.695C151.408 399.868 151.161 399.228 150.668 398.775C150.188 398.321 149.448 398.095 148.448 398.095H145.768V403.375ZM166.116 404.635C166.116 404.981 166.096 405.348 166.056 405.735H157.296C157.363 406.815 157.729 407.661 158.396 408.275C159.076 408.875 159.896 409.175 160.856 409.175C161.643 409.175 162.296 408.995 162.816 408.635C163.349 408.261 163.723 407.768 163.936 407.155H165.896C165.603 408.208 165.016 409.068 164.136 409.735C163.256 410.388 162.163 410.715 160.856 410.715C159.816 410.715 158.883 410.481 158.056 410.015C157.243 409.548 156.603 408.888 156.136 408.035C155.669 407.168 155.436 406.168 155.436 405.035C155.436 403.901 155.663 402.908 156.116 402.055C156.569 401.201 157.203 400.548 158.016 400.095C158.843 399.628 159.789 399.395 160.856 399.395C161.896 399.395 162.816 399.621 163.616 400.075C164.416 400.528 165.029 401.155 165.456 401.955C165.896 402.741 166.116 403.635 166.116 404.635ZM164.236 404.255C164.236 403.561 164.083 402.968 163.776 402.475C163.469 401.968 163.049 401.588 162.516 401.335C161.996 401.068 161.416 400.935 160.776 400.935C159.856 400.935 159.069 401.228 158.416 401.815C157.776 402.401 157.409 403.215 157.316 404.255H164.236ZM172.398 410.715C171.558 410.715 170.805 410.575 170.138 410.295C169.472 410.001 168.945 409.601 168.558 409.095C168.172 408.575 167.958 407.981 167.918 407.315H169.798C169.852 407.861 170.105 408.308 170.558 408.655C171.025 409.001 171.632 409.175 172.378 409.175C173.072 409.175 173.618 409.021 174.018 408.715C174.418 408.408 174.618 408.021 174.618 407.555C174.618 407.075 174.405 406.721 173.978 406.495C173.552 406.255 172.892 406.021 171.998 405.795C171.185 405.581 170.518 405.368 169.998 405.155C169.492 404.928 169.052 404.601 168.678 404.175C168.318 403.735 168.138 403.161 168.138 402.455C168.138 401.895 168.305 401.381 168.638 400.915C168.972 400.448 169.445 400.081 170.058 399.815C170.672 399.535 171.372 399.395 172.158 399.395C173.372 399.395 174.352 399.701 175.098 400.315C175.845 400.928 176.245 401.768 176.298 402.835H174.478C174.438 402.261 174.205 401.801 173.778 401.455C173.365 401.108 172.805 400.935 172.098 400.935C171.445 400.935 170.925 401.075 170.538 401.355C170.152 401.635 169.958 402.001 169.958 402.455C169.958 402.815 170.072 403.115 170.298 403.355C170.538 403.581 170.832 403.768 171.178 403.915C171.538 404.048 172.032 404.201 172.658 404.375C173.445 404.588 174.085 404.801 174.578 405.015C175.072 405.215 175.492 405.521 175.838 405.935C176.198 406.348 176.385 406.888 176.398 407.555C176.398 408.155 176.232 408.695 175.898 409.175C175.565 409.655 175.092 410.035 174.478 410.315C173.878 410.581 173.185 410.715 172.398 410.715ZM188.968 404.635C188.968 404.981 188.948 405.348 188.908 405.735H180.148C180.214 406.815 180.581 407.661 181.248 408.275C181.928 408.875 182.748 409.175 183.708 409.175C184.494 409.175 185.148 408.995 185.668 408.635C186.201 408.261 186.574 407.768 186.788 407.155H188.748C188.454 408.208 187.868 409.068 186.988 409.735C186.108 410.388 185.014 410.715 183.708 410.715C182.668 410.715 181.734 410.481 180.908 410.015C180.094 409.548 179.454 408.888 178.988 408.035C178.521 407.168 178.288 406.168 178.288 405.035C178.288 403.901 178.514 402.908 178.968 402.055C179.421 401.201 180.054 400.548 180.868 400.095C181.694 399.628 182.641 399.395 183.708 399.395C184.748 399.395 185.668 399.621 186.468 400.075C187.268 400.528 187.881 401.155 188.308 401.955C188.748 402.741 188.968 403.635 188.968 404.635ZM187.088 404.255C187.088 403.561 186.934 402.968 186.628 402.475C186.321 401.968 185.901 401.588 185.368 401.335C184.848 401.068 184.268 400.935 183.628 400.935C182.708 400.935 181.921 401.228 181.268 401.815C180.628 402.401 180.261 403.215 180.168 404.255H187.088ZM190.69 405.015C190.69 403.895 190.917 402.915 191.37 402.075C191.823 401.221 192.443 400.561 193.23 400.095C194.03 399.628 194.917 399.395 195.89 399.395C196.85 399.395 197.683 399.601 198.39 400.015C199.097 400.428 199.623 400.948 199.97 401.575V399.575H201.81V410.535H199.97V408.495C199.61 409.135 199.07 409.668 198.35 410.095C197.643 410.508 196.817 410.715 195.87 410.715C194.897 410.715 194.017 410.475 193.23 409.995C192.443 409.515 191.823 408.841 191.37 407.975C190.917 407.108 190.69 406.121 190.69 405.015ZM199.97 405.035C199.97 404.208 199.803 403.488 199.47 402.875C199.137 402.261 198.683 401.795 198.11 401.475C197.55 401.141 196.93 400.975 196.25 400.975C195.57 400.975 194.95 401.135 194.39 401.455C193.83 401.775 193.383 402.241 193.05 402.855C192.717 403.468 192.55 404.188 192.55 405.015C192.55 405.855 192.717 406.588 193.05 407.215C193.383 407.828 193.83 408.301 194.39 408.635C194.95 408.955 195.57 409.115 196.25 409.115C196.93 409.115 197.55 408.955 198.11 408.635C198.683 408.301 199.137 407.828 199.47 407.215C199.803 406.588 199.97 405.861 199.97 405.035ZM214.606 399.575V410.535H212.786V408.915C212.439 409.475 211.952 409.915 211.326 410.235C210.712 410.541 210.032 410.695 209.286 410.695C208.432 410.695 207.666 410.521 206.986 410.175C206.306 409.815 205.766 409.281 205.366 408.575C204.979 407.868 204.786 407.008 204.786 405.995V399.575H206.586V405.755C206.586 406.835 206.859 407.668 207.406 408.255C207.952 408.828 208.699 409.115 209.646 409.115C210.619 409.115 211.386 408.815 211.946 408.215C212.506 407.615 212.786 406.741 212.786 405.595V399.575H214.606ZM143.268 435.015C143.268 433.895 143.495 432.915 143.948 432.075C144.401 431.221 145.021 430.561 145.808 430.095C146.608 429.628 147.501 429.395 148.488 429.395C149.341 429.395 150.135 429.595 150.868 429.995C151.601 430.381 152.161 430.895 152.548 431.535V425.735H154.388V440.535H152.548V438.475C152.188 439.128 151.655 439.668 150.948 440.095C150.241 440.508 149.415 440.715 148.468 440.715C147.495 440.715 146.608 440.475 145.808 439.995C145.021 439.515 144.401 438.841 143.948 437.975C143.495 437.108 143.268 436.121 143.268 435.015ZM152.548 435.035C152.548 434.208 152.381 433.488 152.048 432.875C151.715 432.261 151.261 431.795 150.688 431.475C150.128 431.141 149.508 430.975 148.828 430.975C148.148 430.975 147.528 431.135 146.968 431.455C146.408 431.775 145.961 432.241 145.628 432.855C145.295 433.468 145.128 434.188 145.128 435.015C145.128 435.855 145.295 436.588 145.628 437.215C145.961 437.828 146.408 438.301 146.968 438.635C147.528 438.955 148.148 439.115 148.828 439.115C149.508 439.115 150.128 438.955 150.688 438.635C151.261 438.301 151.715 437.828 152.048 437.215C152.381 436.588 152.548 435.861 152.548 435.035ZM167.464 434.635C167.464 434.981 167.444 435.348 167.404 435.735H158.644C158.71 436.815 159.077 437.661 159.744 438.275C160.424 438.875 161.244 439.175 162.204 439.175C162.99 439.175 163.644 438.995 164.164 438.635C164.697 438.261 165.07 437.768 165.284 437.155H167.244C166.95 438.208 166.364 439.068 165.484 439.735C164.604 440.388 163.51 440.715 162.204 440.715C161.164 440.715 160.23 440.481 159.404 440.015C158.59 439.548 157.95 438.888 157.484 438.035C157.017 437.168 156.784 436.168 156.784 435.035C156.784 433.901 157.01 432.908 157.464 432.055C157.917 431.201 158.55 430.548 159.364 430.095C160.19 429.628 161.137 429.395 162.204 429.395C163.244 429.395 164.164 429.621 164.964 430.075C165.764 430.528 166.377 431.155 166.804 431.955C167.244 432.741 167.464 433.635 167.464 434.635ZM165.584 434.255C165.584 433.561 165.43 432.968 165.124 432.475C164.817 431.968 164.397 431.588 163.864 431.335C163.344 431.068 162.764 430.935 162.124 430.935C161.204 430.935 160.417 431.228 159.764 431.815C159.124 432.401 158.757 433.215 158.664 434.255H165.584ZM180.538 429.375C181.871 429.375 182.951 429.781 183.778 430.595C184.605 431.395 185.018 432.555 185.018 434.075V440.535H183.218V434.335C183.218 433.241 182.945 432.408 182.398 431.835C181.851 431.248 181.105 430.955 180.158 430.955C179.198 430.955 178.431 431.255 177.858 431.855C177.298 432.455 177.018 433.328 177.018 434.475V440.535H175.198V429.575H177.018V431.135C177.378 430.575 177.865 430.141 178.478 429.835C179.105 429.528 179.791 429.375 180.538 429.375ZM197.991 434.635C197.991 434.981 197.971 435.348 197.931 435.735H189.171C189.238 436.815 189.604 437.661 190.271 438.275C190.951 438.875 191.771 439.175 192.731 439.175C193.518 439.175 194.171 438.995 194.691 438.635C195.224 438.261 195.598 437.768 195.811 437.155H197.771C197.478 438.208 196.891 439.068 196.011 439.735C195.131 440.388 194.038 440.715 192.731 440.715C191.691 440.715 190.758 440.481 189.931 440.015C189.118 439.548 188.478 438.888 188.011 438.035C187.544 437.168 187.311 436.168 187.311 435.035C187.311 433.901 187.538 432.908 187.991 432.055C188.444 431.201 189.078 430.548 189.891 430.095C190.718 429.628 191.664 429.395 192.731 429.395C193.771 429.395 194.691 429.621 195.491 430.075C196.291 430.528 196.904 431.155 197.331 431.955C197.771 432.741 197.991 433.635 197.991 434.635ZM196.111 434.255C196.111 433.561 195.958 432.968 195.651 432.475C195.344 431.968 194.924 431.588 194.391 431.335C193.871 431.068 193.291 430.935 192.651 430.935C191.731 430.935 190.944 431.228 190.291 431.815C189.651 432.401 189.284 433.215 189.191 434.255H196.111ZM210.113 429.575V440.535H208.293V438.915C207.947 439.475 207.46 439.915 206.833 440.235C206.22 440.541 205.54 440.695 204.793 440.695C203.94 440.695 203.173 440.521 202.493 440.175C201.813 439.815 201.273 439.281 200.873 438.575C200.487 437.868 200.293 437.008 200.293 435.995V429.575H202.093V435.755C202.093 436.835 202.367 437.668 202.913 438.255C203.46 438.828 204.207 439.115 205.153 439.115C206.127 439.115 206.893 438.815 207.453 438.215C208.013 437.615 208.293 436.741 208.293 435.595V429.575H210.113ZM215.006 431.355C215.326 430.728 215.78 430.241 216.366 429.895C216.966 429.548 217.693 429.375 218.546 429.375V431.255H218.066C216.026 431.255 215.006 432.361 215.006 434.575V440.535H213.186V429.575H215.006V431.355ZM225.427 440.715C224.401 440.715 223.467 440.481 222.627 440.015C221.801 439.548 221.147 438.888 220.667 438.035C220.201 437.168 219.967 436.168 219.967 435.035C219.967 433.915 220.207 432.928 220.687 432.075C221.181 431.208 221.847 430.548 222.687 430.095C223.527 429.628 224.467 429.395 225.507 429.395C226.547 429.395 227.487 429.628 228.327 430.095C229.167 430.548 229.827 431.201 230.307 432.055C230.801 432.908 231.047 433.901 231.047 435.035C231.047 436.168 230.794 437.168 230.287 438.035C229.794 438.888 229.121 439.548 228.267 440.015C227.414 440.481 226.467 440.715 225.427 440.715ZM225.427 439.115C226.081 439.115 226.694 438.961 227.267 438.655C227.841 438.348 228.301 437.888 228.647 437.275C229.007 436.661 229.187 435.915 229.187 435.035C229.187 434.155 229.014 433.408 228.667 432.795C228.321 432.181 227.867 431.728 227.307 431.435C226.747 431.128 226.141 430.975 225.487 430.975C224.821 430.975 224.207 431.128 223.647 431.435C223.101 431.728 222.661 432.181 222.327 432.795C221.994 433.408 221.827 434.155 221.827 435.035C221.827 435.928 221.987 436.681 222.307 437.295C222.641 437.908 223.081 438.368 223.627 438.675C224.174 438.968 224.774 439.115 225.427 439.115ZM238.78 429.375C240.114 429.375 241.194 429.781 242.02 430.595C242.847 431.395 243.26 432.555 243.26 434.075V440.535H241.46V434.335C241.46 433.241 241.187 432.408 240.64 431.835C240.094 431.248 239.347 430.955 238.4 430.955C237.44 430.955 236.674 431.255 236.1 431.855C235.54 432.455 235.26 433.328 235.26 434.475V440.535H233.44V429.575H235.26V431.135C235.62 430.575 236.107 430.141 236.72 429.835C237.347 429.528 238.034 429.375 238.78 429.375ZM256.233 434.635C256.233 434.981 256.213 435.348 256.173 435.735H247.413C247.48 436.815 247.847 437.661 248.513 438.275C249.193 438.875 250.013 439.175 250.973 439.175C251.76 439.175 252.413 438.995 252.933 438.635C253.467 438.261 253.84 437.768 254.053 437.155H256.013C255.72 438.208 255.133 439.068 254.253 439.735C253.373 440.388 252.28 440.715 250.973 440.715C249.933 440.715 249 440.481 248.173 440.015C247.36 439.548 246.72 438.888 246.253 438.035C245.787 437.168 245.553 436.168 245.553 435.035C245.553 433.901 245.78 432.908 246.233 432.055C246.687 431.201 247.32 430.548 248.133 430.095C248.96 429.628 249.907 429.395 250.973 429.395C252.013 429.395 252.933 429.621 253.733 430.075C254.533 430.528 255.147 431.155 255.573 431.955C256.013 432.741 256.233 433.635 256.233 434.635ZM254.353 434.255C254.353 433.561 254.2 432.968 253.893 432.475C253.587 431.968 253.167 431.588 252.633 431.335C252.113 431.068 251.533 430.935 250.893 430.935C249.973 430.935 249.187 431.228 248.533 431.815C247.893 432.401 247.527 433.215 247.433 434.255H254.353ZM262.516 440.715C261.676 440.715 260.922 440.575 260.256 440.295C259.589 440.001 259.062 439.601 258.676 439.095C258.289 438.575 258.076 437.981 258.036 437.315H259.916C259.969 437.861 260.222 438.308 260.676 438.655C261.142 439.001 261.749 439.175 262.496 439.175C263.189 439.175 263.736 439.021 264.136 438.715C264.536 438.408 264.736 438.021 264.736 437.555C264.736 437.075 264.522 436.721 264.096 436.495C263.669 436.255 263.009 436.021 262.116 435.795C261.302 435.581 260.636 435.368 260.116 435.155C259.609 434.928 259.169 434.601 258.796 434.175C258.436 433.735 258.256 433.161 258.256 432.455C258.256 431.895 258.422 431.381 258.756 430.915C259.089 430.448 259.562 430.081 260.176 429.815C260.789 429.535 261.489 429.395 262.276 429.395C263.489 429.395 264.469 429.701 265.216 430.315C265.962 430.928 266.362 431.768 266.416 432.835H264.596C264.556 432.261 264.322 431.801 263.896 431.455C263.482 431.108 262.922 430.935 262.216 430.935C261.562 430.935 261.042 431.075 260.656 431.355C260.269 431.635 260.076 432.001 260.076 432.455C260.076 432.815 260.189 433.115 260.416 433.355C260.656 433.581 260.949 433.768 261.296 433.915C261.656 434.048 262.149 434.201 262.776 434.375C263.562 434.588 264.202 434.801 264.696 435.015C265.189 435.215 265.609 435.521 265.956 435.935C266.316 436.348 266.502 436.888 266.516 437.555C266.516 438.155 266.349 438.695 266.016 439.175C265.682 439.655 265.209 440.035 264.596 440.315C263.996 440.581 263.302 440.715 262.516 440.715Z" fill="#F2F2F2"/>
</g>
<g filter="url(#filter1_d_139373_148)">
<rect x="282" y="224" width="229" height="112" rx="24" fill="url(#paint1_linear_139373_148)" shape-rendering="crispEdges"/>
<g filter="url(#filter2_d_139373_148)">
<rect x="306" y="248" width="64" height="64" rx="24" fill="#DC0155"/>
<path d="M346 273.5C346 269.09 342.41 265.5 338 265.5C333.59 265.5 330 269.09 330 273.5C330 277.91 333.59 281.5 338 281.5C342.41 281.5 346 277.91 346 273.5ZM333 273.5C333 270.74 335.24 268.5 338 268.5C340.76 268.5 343 270.74 343 273.5C343 276.26 340.76 278.5 338 278.5C335.24 278.5 333 276.26 333 273.5ZM340.4 283.5H335.6C330.36 283.5 326.1 287.76 326.1 293C326.1 293.83 326.77 294.5 327.6 294.5H348.4C349.23 294.5 349.9 293.83 349.9 293C349.9 287.76 345.64 283.5 340.4 283.5ZM329.27 291.5C329.95 288.64 332.53 286.5 335.6 286.5H340.4C343.47 286.5 346.05 288.64 346.73 291.5H329.27Z" fill="#F4F3F8"/>
</g>
<path d="M394.88 270L391.56 264.3H389.36V270H387.54V256.06H392.04C393.093 256.06 393.98 256.24 394.7 256.6C395.433 256.96 395.98 257.447 396.34 258.06C396.7 258.673 396.88 259.373 396.88 260.16C396.88 261.12 396.6 261.967 396.04 262.7C395.493 263.433 394.667 263.92 393.56 264.16L397.06 270H394.88ZM389.36 262.84H392.04C393.027 262.84 393.767 262.6 394.26 262.12C394.753 261.627 395 260.973 395 260.16C395 259.333 394.753 258.693 394.26 258.24C393.78 257.787 393.04 257.56 392.04 257.56H389.36V262.84ZM409.708 264.1C409.708 264.447 409.688 264.813 409.648 265.2H400.888C400.955 266.28 401.321 267.127 401.988 267.74C402.668 268.34 403.488 268.64 404.448 268.64C405.235 268.64 405.888 268.46 406.408 268.1C406.941 267.727 407.315 267.233 407.528 266.62H409.488C409.195 267.673 408.608 268.533 407.728 269.2C406.848 269.853 405.755 270.18 404.448 270.18C403.408 270.18 402.475 269.947 401.648 269.48C400.835 269.013 400.195 268.353 399.728 267.5C399.261 266.633 399.028 265.633 399.028 264.5C399.028 263.367 399.255 262.373 399.708 261.52C400.161 260.667 400.795 260.013 401.608 259.56C402.435 259.093 403.381 258.86 404.448 258.86C405.488 258.86 406.408 259.087 407.208 259.54C408.008 259.993 408.621 260.62 409.048 261.42C409.488 262.207 409.708 263.1 409.708 264.1ZM407.828 263.72C407.828 263.027 407.675 262.433 407.368 261.94C407.061 261.433 406.641 261.053 406.108 260.8C405.588 260.533 405.008 260.4 404.368 260.4C403.448 260.4 402.661 260.693 402.008 261.28C401.368 261.867 401.001 262.68 400.908 263.72H407.828ZM413.93 255.2V270H412.11V255.2H413.93ZM416.352 264.48C416.352 263.36 416.579 262.38 417.032 261.54C417.486 260.687 418.106 260.027 418.892 259.56C419.692 259.093 420.579 258.86 421.552 258.86C422.512 258.86 423.346 259.067 424.052 259.48C424.759 259.893 425.286 260.413 425.632 261.04V259.04H427.472V270H425.632V267.96C425.272 268.6 424.732 269.133 424.012 269.56C423.306 269.973 422.479 270.18 421.532 270.18C420.559 270.18 419.679 269.94 418.892 269.46C418.106 268.98 417.486 268.307 417.032 267.44C416.579 266.573 416.352 265.587 416.352 264.48ZM425.632 264.5C425.632 263.673 425.466 262.953 425.132 262.34C424.799 261.727 424.346 261.26 423.772 260.94C423.212 260.607 422.592 260.44 421.912 260.44C421.232 260.44 420.612 260.6 420.052 260.92C419.492 261.24 419.046 261.707 418.712 262.32C418.379 262.933 418.212 263.653 418.212 264.48C418.212 265.32 418.379 266.053 418.712 266.68C419.046 267.293 419.492 267.767 420.052 268.1C420.612 268.42 421.232 268.58 421.912 268.58C422.592 268.58 423.212 268.42 423.772 268.1C424.346 267.767 424.799 267.293 425.132 266.68C425.466 266.053 425.632 265.327 425.632 264.5ZM432.768 260.54V267C432.768 267.533 432.881 267.913 433.108 268.14C433.334 268.353 433.728 268.46 434.288 268.46H435.628V270H433.988C432.974 270 432.214 269.767 431.708 269.3C431.201 268.833 430.948 268.067 430.948 267V260.54H429.528V259.04H430.948V256.28H432.768V259.04H435.628V260.54H432.768ZM438.773 257.26C438.426 257.26 438.133 257.14 437.893 256.9C437.653 256.66 437.533 256.367 437.533 256.02C437.533 255.673 437.653 255.38 437.893 255.14C438.133 254.9 438.426 254.78 438.773 254.78C439.106 254.78 439.386 254.9 439.613 255.14C439.853 255.38 439.973 255.673 439.973 256.02C439.973 256.367 439.853 256.66 439.613 256.9C439.386 257.14 439.106 257.26 438.773 257.26ZM439.653 259.04V270H437.833V259.04H439.653ZM447.535 270.18C446.508 270.18 445.575 269.947 444.735 269.48C443.908 269.013 443.255 268.353 442.775 267.5C442.308 266.633 442.075 265.633 442.075 264.5C442.075 263.38 442.315 262.393 442.795 261.54C443.288 260.673 443.955 260.013 444.795 259.56C445.635 259.093 446.575 258.86 447.615 258.86C448.655 258.86 449.595 259.093 450.435 259.56C451.275 260.013 451.935 260.667 452.415 261.52C452.908 262.373 453.155 263.367 453.155 264.5C453.155 265.633 452.902 266.633 452.395 267.5C451.902 268.353 451.228 269.013 450.375 269.48C449.522 269.947 448.575 270.18 447.535 270.18ZM447.535 268.58C448.188 268.58 448.802 268.427 449.375 268.12C449.948 267.813 450.408 267.353 450.755 266.74C451.115 266.127 451.295 265.38 451.295 264.5C451.295 263.62 451.122 262.873 450.775 262.26C450.428 261.647 449.975 261.193 449.415 260.9C448.855 260.593 448.248 260.44 447.595 260.44C446.928 260.44 446.315 260.593 445.755 260.9C445.208 261.193 444.768 261.647 444.435 262.26C444.102 262.873 443.935 263.62 443.935 264.5C443.935 265.393 444.095 266.147 444.415 266.76C444.748 267.373 445.188 267.833 445.735 268.14C446.282 268.433 446.882 268.58 447.535 268.58ZM460.888 258.84C462.221 258.84 463.301 259.247 464.128 260.06C464.954 260.86 465.368 262.02 465.368 263.54V270H463.568V263.8C463.568 262.707 463.294 261.873 462.748 261.3C462.201 260.713 461.454 260.42 460.508 260.42C459.548 260.42 458.781 260.72 458.208 261.32C457.648 261.92 457.368 262.793 457.368 263.94V270H455.548V259.04H457.368V260.6C457.728 260.04 458.214 259.607 458.828 259.3C459.454 258.993 460.141 258.84 460.888 258.84ZM472.221 270.18C471.381 270.18 470.627 270.04 469.961 269.76C469.294 269.467 468.767 269.067 468.381 268.56C467.994 268.04 467.781 267.447 467.741 266.78H469.621C469.674 267.327 469.927 267.773 470.381 268.12C470.847 268.467 471.454 268.64 472.201 268.64C472.894 268.64 473.441 268.487 473.841 268.18C474.241 267.873 474.441 267.487 474.441 267.02C474.441 266.54 474.227 266.187 473.801 265.96C473.374 265.72 472.714 265.487 471.821 265.26C471.007 265.047 470.341 264.833 469.821 264.62C469.314 264.393 468.874 264.067 468.501 263.64C468.141 263.2 467.961 262.627 467.961 261.92C467.961 261.36 468.127 260.847 468.461 260.38C468.794 259.913 469.267 259.547 469.881 259.28C470.494 259 471.194 258.86 471.981 258.86C473.194 258.86 474.174 259.167 474.921 259.78C475.667 260.393 476.067 261.233 476.121 262.3H474.301C474.261 261.727 474.027 261.267 473.601 260.92C473.187 260.573 472.627 260.4 471.921 260.4C471.267 260.4 470.747 260.54 470.361 260.82C469.974 261.1 469.781 261.467 469.781 261.92C469.781 262.28 469.894 262.58 470.121 262.82C470.361 263.047 470.654 263.233 471.001 263.38C471.361 263.513 471.854 263.667 472.481 263.84C473.267 264.053 473.907 264.267 474.401 264.48C474.894 264.68 475.314 264.987 475.661 265.4C476.021 265.813 476.207 266.353 476.221 267.02C476.221 267.62 476.054 268.16 475.721 268.64C475.387 269.12 474.914 269.5 474.301 269.78C473.701 270.047 473.007 270.18 472.221 270.18ZM392.98 288.84C393.807 288.84 394.553 289.02 395.22 289.38C395.887 289.727 396.407 290.253 396.78 290.96C397.167 291.667 397.36 292.527 397.36 293.54V300H395.56V293.8C395.56 292.707 395.287 291.873 394.74 291.3C394.193 290.713 393.447 290.42 392.5 290.42C391.54 290.42 390.773 290.72 390.2 291.32C389.64 291.92 389.36 292.793 389.36 293.94V300H387.54V285.2H389.36V290.6C389.72 290.04 390.213 289.607 390.84 289.3C391.48 288.993 392.193 288.84 392.98 288.84ZM410.053 289.04V300H408.233V298.38C407.886 298.94 407.4 299.38 406.773 299.7C406.16 300.007 405.48 300.16 404.733 300.16C403.88 300.16 403.113 299.987 402.433 299.64C401.753 299.28 401.213 298.747 400.813 298.04C400.426 297.333 400.233 296.473 400.233 295.46V289.04H402.033V295.22C402.033 296.3 402.306 297.133 402.853 297.72C403.4 298.293 404.146 298.58 405.093 298.58C406.066 298.58 406.833 298.28 407.393 297.68C407.953 297.08 408.233 296.207 408.233 295.06V289.04H410.053ZM426.306 288.84C427.159 288.84 427.919 289.02 428.586 289.38C429.253 289.727 429.779 290.253 430.166 290.96C430.553 291.667 430.746 292.527 430.746 293.54V300H428.946V293.8C428.946 292.707 428.673 291.873 428.126 291.3C427.593 290.713 426.866 290.42 425.946 290.42C424.999 290.42 424.246 290.727 423.686 291.34C423.126 291.94 422.846 292.813 422.846 293.96V300H421.046V293.8C421.046 292.707 420.773 291.873 420.226 291.3C419.693 290.713 418.966 290.42 418.046 290.42C417.099 290.42 416.346 290.727 415.786 291.34C415.226 291.94 414.946 292.813 414.946 293.96V300H413.126V289.04H414.946V290.62C415.306 290.047 415.786 289.607 416.386 289.3C416.999 288.993 417.673 288.84 418.406 288.84C419.326 288.84 420.139 289.047 420.846 289.46C421.553 289.873 422.079 290.48 422.426 291.28C422.733 290.507 423.239 289.907 423.946 289.48C424.653 289.053 425.439 288.84 426.306 288.84ZM433.051 294.48C433.051 293.36 433.278 292.38 433.731 291.54C434.185 290.687 434.805 290.027 435.591 289.56C436.391 289.093 437.278 288.86 438.251 288.86C439.211 288.86 440.045 289.067 440.751 289.48C441.458 289.893 441.985 290.413 442.331 291.04V289.04H444.171V300H442.331V297.96C441.971 298.6 441.431 299.133 440.711 299.56C440.005 299.973 439.178 300.18 438.231 300.18C437.258 300.18 436.378 299.94 435.591 299.46C434.805 298.98 434.185 298.307 433.731 297.44C433.278 296.573 433.051 295.587 433.051 294.48ZM442.331 294.5C442.331 293.673 442.165 292.953 441.831 292.34C441.498 291.727 441.045 291.26 440.471 290.94C439.911 290.607 439.291 290.44 438.611 290.44C437.931 290.44 437.311 290.6 436.751 290.92C436.191 291.24 435.745 291.707 435.411 292.32C435.078 292.933 434.911 293.653 434.911 294.48C434.911 295.32 435.078 296.053 435.411 296.68C435.745 297.293 436.191 297.767 436.751 298.1C437.311 298.42 437.931 298.58 438.611 298.58C439.291 298.58 439.911 298.42 440.471 298.1C441.045 297.767 441.498 297.293 441.831 296.68C442.165 296.053 442.331 295.327 442.331 294.5ZM448.187 287.26C447.84 287.26 447.547 287.14 447.307 286.9C447.067 286.66 446.947 286.367 446.947 286.02C446.947 285.673 447.067 285.38 447.307 285.14C447.547 284.9 447.84 284.78 448.187 284.78C448.52 284.78 448.8 284.9 449.027 285.14C449.267 285.38 449.387 285.673 449.387 286.02C449.387 286.367 449.267 286.66 449.027 286.9C448.8 287.14 448.52 287.26 448.187 287.26ZM449.067 289.04V300H447.247V289.04H449.067ZM457.509 288.84C458.842 288.84 459.922 289.247 460.749 290.06C461.576 290.86 461.989 292.02 461.989 293.54V300H460.189V293.8C460.189 292.707 459.916 291.873 459.369 291.3C458.822 290.713 458.076 290.42 457.129 290.42C456.169 290.42 455.402 290.72 454.829 291.32C454.269 291.92 453.989 292.793 453.989 293.94V300H452.169V289.04H453.989V290.6C454.349 290.04 454.836 289.607 455.449 289.3C456.076 288.993 456.762 288.84 457.509 288.84ZM474.962 294.1C474.962 294.447 474.942 294.813 474.902 295.2H466.142C466.209 296.28 466.575 297.127 467.242 297.74C467.922 298.34 468.742 298.64 469.702 298.64C470.489 298.64 471.142 298.46 471.662 298.1C472.195 297.727 472.569 297.233 472.782 296.62H474.742C474.449 297.673 473.862 298.533 472.982 299.2C472.102 299.853 471.009 300.18 469.702 300.18C468.662 300.18 467.729 299.947 466.902 299.48C466.089 299.013 465.449 298.353 464.982 297.5C464.515 296.633 464.282 295.633 464.282 294.5C464.282 293.367 464.509 292.373 464.962 291.52C465.415 290.667 466.049 290.013 466.862 289.56C467.689 289.093 468.635 288.86 469.702 288.86C470.742 288.86 471.662 289.087 472.462 289.54C473.262 289.993 473.875 290.62 474.302 291.42C474.742 292.207 474.962 293.1 474.962 294.1ZM473.082 293.72C473.082 293.027 472.929 292.433 472.622 291.94C472.315 291.433 471.895 291.053 471.362 290.8C470.842 290.533 470.262 290.4 469.622 290.4C468.702 290.4 467.915 290.693 467.262 291.28C466.622 291.867 466.255 292.68 466.162 293.72H473.082ZM481.244 300.18C480.404 300.18 479.651 300.04 478.984 299.76C478.318 299.467 477.791 299.067 477.404 298.56C477.018 298.04 476.804 297.447 476.764 296.78H478.644C478.698 297.327 478.951 297.773 479.404 298.12C479.871 298.467 480.478 298.64 481.224 298.64C481.918 298.64 482.464 298.487 482.864 298.18C483.264 297.873 483.464 297.487 483.464 297.02C483.464 296.54 483.251 296.187 482.824 295.96C482.398 295.72 481.738 295.487 480.844 295.26C480.031 295.047 479.364 294.833 478.844 294.62C478.338 294.393 477.898 294.067 477.524 293.64C477.164 293.2 476.984 292.627 476.984 291.92C476.984 291.36 477.151 290.847 477.484 290.38C477.818 289.913 478.291 289.547 478.904 289.28C479.518 289 480.218 288.86 481.004 288.86C482.218 288.86 483.198 289.167 483.944 289.78C484.691 290.393 485.091 291.233 485.144 292.3H483.324C483.284 291.727 483.051 291.267 482.624 290.92C482.211 290.573 481.651 290.4 480.944 290.4C480.291 290.4 479.771 290.54 479.384 290.82C478.998 291.1 478.804 291.467 478.804 291.92C478.804 292.28 478.918 292.58 479.144 292.82C479.384 293.047 479.678 293.233 480.024 293.38C480.384 293.513 480.878 293.667 481.504 293.84C482.291 294.053 482.931 294.267 483.424 294.48C483.918 294.68 484.338 294.987 484.684 295.4C485.044 295.813 485.231 296.353 485.244 297.02C485.244 297.62 485.078 298.16 484.744 298.64C484.411 299.12 483.938 299.5 483.324 299.78C482.724 300.047 482.031 300.18 481.244 300.18Z" fill="#F2F2F2"/>
</g>
<g filter="url(#filter3_d_139373_148)">
<rect x="91" y="84" width="177" height="112" rx="24" fill="url(#paint2_linear_139373_148)" shape-rendering="crispEdges"/>
<g filter="url(#filter4_d_139373_148)">
<rect x="115" y="108" width="64" height="64" rx="24" fill="#2F80ED"/>
<path d="M133.667 138.667H141.667C142.02 138.667 142.359 138.526 142.609 138.276C142.86 138.026 143 137.687 143 137.333V129.333C143 128.98 142.86 128.641 142.609 128.391C142.359 128.14 142.02 128 141.667 128H133.667C133.313 128 132.974 128.14 132.724 128.391C132.474 128.641 132.333 128.98 132.333 129.333V137.333C132.333 137.687 132.474 138.026 132.724 138.276C132.974 138.526 133.313 138.667 133.667 138.667ZM135 130.667H140.333V136H135V130.667ZM160.333 132H147C146.646 132 146.307 132.14 146.057 132.391C145.807 132.641 145.667 132.98 145.667 133.333C145.667 133.687 145.807 134.026 146.057 134.276C146.307 134.526 146.646 134.667 147 134.667H160.333C160.687 134.667 161.026 134.526 161.276 134.276C161.526 134.026 161.667 133.687 161.667 133.333C161.667 132.98 161.526 132.641 161.276 132.391C161.026 132.14 160.687 132 160.333 132ZM160.333 145.333H147C146.646 145.333 146.307 145.474 146.057 145.724C145.807 145.974 145.667 146.313 145.667 146.667C145.667 147.02 145.807 147.359 146.057 147.609C146.307 147.86 146.646 148 147 148H160.333C160.687 148 161.026 147.86 161.276 147.609C161.526 147.359 161.667 147.02 161.667 146.667C161.667 146.313 161.526 145.974 161.276 145.724C161.026 145.474 160.687 145.333 160.333 145.333ZM136.256 150.667H136.272C136.622 150.666 136.957 150.527 137.205 150.281L142.6 144.948C142.738 144.829 142.851 144.683 142.93 144.518C143.01 144.354 143.055 144.175 143.062 143.992C143.07 143.81 143.04 143.628 142.974 143.458C142.909 143.287 142.809 143.132 142.68 143.002C142.552 142.872 142.399 142.769 142.229 142.701C142.06 142.633 141.879 142.6 141.696 142.605C141.513 142.609 141.334 142.651 141.168 142.728C141.003 142.805 140.855 142.915 140.733 143.052L136.295 147.437L134.625 145.704C134.504 145.578 134.358 145.477 134.197 145.408C134.037 145.338 133.864 145.301 133.689 145.298C133.335 145.292 132.994 145.427 132.739 145.673C132.485 145.919 132.339 146.255 132.333 146.609C132.327 146.963 132.462 147.304 132.708 147.559L135.313 150.267C135.436 150.392 135.583 150.492 135.745 150.561C135.907 150.629 136.08 150.665 136.256 150.667Z" fill="#F4F3F8"/>
</g>
<path d="M200.88 133.06C202.4 133.06 203.713 133.347 204.82 133.92C205.94 134.48 206.793 135.287 207.38 136.34C207.98 137.393 208.28 138.633 208.28 140.06C208.28 141.487 207.98 142.727 207.38 143.78C206.793 144.82 205.94 145.62 204.82 146.18C203.713 146.727 202.4 147 200.88 147H196.54V133.06H200.88ZM200.88 145.5C202.68 145.5 204.053 145.027 205 144.08C205.947 143.12 206.42 141.78 206.42 140.06C206.42 138.327 205.94 136.973 204.98 136C204.033 135.027 202.667 134.54 200.88 134.54H198.36V145.5H200.88ZM210.001 141.48C210.001 140.36 210.227 139.38 210.681 138.54C211.134 137.687 211.754 137.027 212.541 136.56C213.341 136.093 214.227 135.86 215.201 135.86C216.161 135.86 216.994 136.067 217.701 136.48C218.407 136.893 218.934 137.413 219.281 138.04V136.04H221.121V147H219.281V144.96C218.921 145.6 218.381 146.133 217.661 146.56C216.954 146.973 216.127 147.18 215.181 147.18C214.207 147.18 213.327 146.94 212.541 146.46C211.754 145.98 211.134 145.307 210.681 144.44C210.227 143.573 210.001 142.587 210.001 141.48ZM219.281 141.5C219.281 140.673 219.114 139.953 218.781 139.34C218.447 138.727 217.994 138.26 217.421 137.94C216.861 137.607 216.241 137.44 215.561 137.44C214.881 137.44 214.261 137.6 213.701 137.92C213.141 138.24 212.694 138.707 212.361 139.32C212.027 139.933 211.861 140.653 211.861 141.48C211.861 142.32 212.027 143.053 212.361 143.68C212.694 144.293 213.141 144.767 213.701 145.1C214.261 145.42 214.881 145.58 215.561 145.58C216.241 145.58 216.861 145.42 217.421 145.1C217.994 144.767 218.447 144.293 218.781 143.68C219.114 143.053 219.281 142.327 219.281 141.5ZM226.416 137.54V144C226.416 144.533 226.53 144.913 226.756 145.14C226.983 145.353 227.376 145.46 227.936 145.46H229.276V147H227.636C226.623 147 225.863 146.767 225.356 146.3C224.85 145.833 224.596 145.067 224.596 144V137.54H223.176V136.04H224.596V133.28H226.416V136.04H229.276V137.54H226.416ZM230.801 141.48C230.801 140.36 231.028 139.38 231.481 138.54C231.935 137.687 232.555 137.027 233.341 136.56C234.141 136.093 235.028 135.86 236.001 135.86C236.961 135.86 237.795 136.067 238.501 136.48C239.208 136.893 239.735 137.413 240.081 138.04V136.04H241.921V147H240.081V144.96C239.721 145.6 239.181 146.133 238.461 146.56C237.755 146.973 236.928 147.18 235.981 147.18C235.008 147.18 234.128 146.94 233.341 146.46C232.555 145.98 231.935 145.307 231.481 144.44C231.028 143.573 230.801 142.587 230.801 141.48ZM240.081 141.5C240.081 140.673 239.915 139.953 239.581 139.34C239.248 138.727 238.795 138.26 238.221 137.94C237.661 137.607 237.041 137.44 236.361 137.44C235.681 137.44 235.061 137.6 234.501 137.92C233.941 138.24 233.495 138.707 233.161 139.32C232.828 139.933 232.661 140.653 232.661 141.48C232.661 142.32 232.828 143.053 233.161 143.68C233.495 144.293 233.941 144.767 234.501 145.1C235.061 145.42 235.681 145.58 236.361 145.58C237.041 145.58 237.661 145.42 238.221 145.1C238.795 144.767 239.248 144.293 239.581 143.68C239.915 143.053 240.081 142.327 240.081 141.5Z" fill="#F2F2F2"/>
</g>
</g>
<defs>
<filter id="filter0_d_139373_148" x="32" y="338" width="299.816" height="209.069" filterUnits="userSpaceOnUse" color-interpolation-filters="sRGB">
<feFlood flood-opacity="0" result="BackgroundImageFix"/>
<feColorMatrix in="SourceAlpha" type="matrix" values="0 0 0 0 0 0 0 0 0 0 0 0 0 0 0 0 0 0 127 0" result="hardAlpha"/>
<feOffset dy="24"/>
<feGaussianBlur stdDeviation="25"/>
<feComposite in2="hardAlpha" operator="out"/>
<feColorMatrix type="matrix" values="0 0 0 0 0 0 0 0 0 0 0 0 0 0 0 0 0 0 0.15 0"/>
<feBlend mode="normal" in2="BackgroundImageFix" result="effect1_dropShadow_139373_148"/>
<feBlend mode="normal" in="SourceGraphic" in2="effect1_dropShadow_139373_148" result="shape"/>
</filter>
<filter id="filter1_d_139373_148" x="232" y="198" width="329" height="212" filterUnits="userSpaceOnUse" color-interpolation-filters="sRGB">
<feFlood flood-opacity="0" result="BackgroundImageFix"/>
<feColorMatrix in="SourceAlpha" type="matrix" values="0 0 0 0 0 0 0 0 0 0 0 0 0 0 0 0 0 0 127 0" result="hardAlpha"/>
<feOffset dy="24"/>
<feGaussianBlur stdDeviation="25"/>
<feComposite in2="hardAlpha" operator="out"/>
<feColorMatrix type="matrix" values="0 0 0 0 0 0 0 0 0 0 0 0 0 0 0 0 0 0 0.15 0"/>
<feBlend mode="normal" in2="BackgroundImageFix" result="effect1_dropShadow_139373_148"/>
<feBlend mode="normal" in="SourceGraphic" in2="effect1_dropShadow_139373_148" result="shape"/>
</filter>
<filter id="filter2_d_139373_148" x="256" y="222" width="164" height="164" filterUnits="userSpaceOnUse" color-interpolation-filters="sRGB">
<feFlood flood-opacity="0" result="BackgroundImageFix"/>
<feColorMatrix in="SourceAlpha" type="matrix" values="0 0 0 0 0 0 0 0 0 0 0 0 0 0 0 0 0 0 127 0" result="hardAlpha"/>
<feOffset dy="24"/>
<feGaussianBlur stdDeviation="25"/>
<feComposite in2="hardAlpha" operator="out"/>
<feColorMatrix type="matrix" values="0 0 0 0 0.0509804 0 0 0 0 0.0470588 0 0 0 0 0.219608 0 0 0 0.15 0"/>
<feBlend mode="normal" in2="BackgroundImageFix" result="effect1_dropShadow_139373_148"/>
<feBlend mode="normal" in="SourceGraphic" in2="effect1_dropShadow_139373_148" result="shape"/>
</filter>
<filter id="filter3_d_139373_148" x="41" y="58" width="277" height="212" filterUnits="userSpaceOnUse" color-interpolation-filters="sRGB">
<feFlood flood-opacity="0" result="BackgroundImageFix"/>
<feColorMatrix in="SourceAlpha" type="matrix" values="0 0 0 0 0 0 0 0 0 0 0 0 0 0 0 0 0 0 127 0" result="hardAlpha"/>
<feOffset dy="24"/>
<feGaussianBlur stdDeviation="25"/>
<feComposite in2="hardAlpha" operator="out"/>
<feColorMatrix type="matrix" values="0 0 0 0 0 0 0 0 0 0 0 0 0 0 0 0 0 0 0.15 0"/>
<feBlend mode="normal" in2="BackgroundImageFix" result="effect1_dropShadow_139373_148"/>
<feBlend mode="normal" in="SourceGraphic" in2="effect1_dropShadow_139373_148" result="shape"/>
</filter>
<filter id="filter4_d_139373_148" x="65" y="82" width="164" height="164" filterUnits="userSpaceOnUse" color-interpolation-filters="sRGB">
<feFlood flood-opacity="0" result="BackgroundImageFix"/>
<feColorMatrix in="SourceAlpha" type="matrix" values="0 0 0 0 0 0 0 0 0 0 0 0 0 0 0 0 0 0 127 0" result="hardAlpha"/>
<feOffset dy="24"/>
<feGaussianBlur stdDeviation="25"/>
<feComposite in2="hardAlpha" operator="out"/>
<feColorMatrix type="matrix" values="0 0 0 0 0.0509804 0 0 0 0 0.0470588 0 0 0 0 0.219608 0 0 0 0.15 0"/>
<feBlend mode="normal" in2="BackgroundImageFix" result="effect1_dropShadow_139373_148"/>
<feBlend mode="normal" in="SourceGraphic" in2="effect1_dropShadow_139373_148" result="shape"/>
</filter>
<linearGradient id="paint0_linear_139373_148" x1="-262.789" y1="-101.204" x2="-81.4709" y2="564.085" gradientUnits="userSpaceOnUse">
<stop stop-color="white" stop-opacity="0"/>
<stop offset="1" stop-color="#14101D"/>
</linearGradient>
<linearGradient id="paint1_linear_139373_148" x1="-113.147" y1="-253.704" x2="55.9869" y2="438.904" gradientUnits="userSpaceOnUse">
<stop stop-color="white" stop-opacity="0"/>
<stop offset="1" stop-color="#14101D"/>
</linearGradient>
<linearGradient id="paint2_linear_139373_148" x1="-214.419" y1="-393.704" x2="-3.59183" y2="273.597" gradientUnits="userSpaceOnUse">
<stop stop-color="white" stop-opacity="0"/>
<stop offset="1" stop-color="#14101D"/>
</linearGradient>
<clipPath id="clip0_139373_148">
<rect width="549" height="539" fill="white"/>
</clipPath>
</defs>
</svg>
