<svg width="315" height="25" viewBox="0 0 315 25" fill="none" xmlns="http://www.w3.org/2000/svg">
<path d="M293.764 12.7513C293.336 12.7713 292.903 12.7851 292.484 12.8152C292.211 12.8339 292.095 12.7788 291.913 12.75C291.852 12.74 291.787 12.7199 291.731 12.7224C291.307 12.7425 290.883 12.765 290.459 12.7876C290.33 12.8365 290.247 12.9016 290.048 12.9254C289.854 12.948 289.625 12.948 289.408 12.9592C289.123 12.973 288.837 12.9868 288.552 12.9993C288.409 13.0056 288.292 13.0294 288.245 13.0745C288.236 13.082 288.331 13.1008 288.383 13.1121C288.556 13.1497 288.725 13.1923 288.915 13.2211C289.097 13.2487 289.322 13.2036 289.516 13.2387C289.953 13.3176 289.958 13.3163 290.291 13.3013C290.576 13.2875 290.862 13.2725 291.147 13.2625C291.203 13.26 291.268 13.2787 291.329 13.2888C291.51 13.3163 291.627 13.379 291.896 13.3552C292.099 13.3364 292.324 13.3326 292.536 13.3226C292.713 13.3589 292.877 13.4003 293.068 13.4291C293.245 13.4567 293.297 13.478 293.202 13.5143C293.115 13.5481 292.994 13.5619 292.834 13.5644C292.691 13.5657 292.549 13.5769 292.406 13.5832C292.332 13.587 292.263 13.5895 292.194 13.5932C291.921 13.607 291.921 13.607 291.424 13.5268C291.229 13.4955 291.009 13.5394 290.823 13.5093C290.697 13.4892 290.589 13.4592 290.468 13.4379C290.416 13.4291 290.334 13.4279 290.269 13.4304C290.053 13.4391 289.836 13.4454 289.629 13.4617C289.482 13.473 289.395 13.508 289.413 13.5431C289.417 13.5569 289.521 13.577 289.581 13.5782C289.72 13.5807 289.867 13.5632 290.001 13.5719C290.131 13.5807 290.265 13.6058 290.36 13.6333C290.555 13.691 290.775 13.6396 290.961 13.6546C291.156 13.6709 291.316 13.7211 291.502 13.7511C291.549 13.7586 291.64 13.7461 291.714 13.7423C291.926 13.7336 292.138 13.7261 292.35 13.7173C292.527 13.7536 292.717 13.7862 292.877 13.8275C293.167 13.9027 293.479 13.9315 293.855 13.8952C294.067 13.8752 294.275 13.8827 294.443 13.9315C294.616 13.9817 294.815 13.9766 295.036 13.9666C295.239 13.9566 295.447 13.929 295.654 13.9641C296.104 14.0418 296.109 14.0456 296.641 14.0155C296.801 14.0067 296.922 14.0042 297.043 14.033C297.155 14.0593 297.277 14.0819 297.393 14.107C297.605 14.0982 297.822 14.0894 298.034 14.0794C298.306 14.0656 298.457 14.0831 298.522 14.1533C298.561 14.1959 298.579 14.2348 298.674 14.2636C298.786 14.2987 298.907 14.2974 299.072 14.2874C299.227 14.2786 299.34 14.2648 299.405 14.2197C299.431 14.2009 299.483 14.1834 299.53 14.1683C299.569 14.1571 299.63 14.1395 299.664 14.142C299.729 14.1471 299.816 14.1608 299.837 14.1771C300.049 14.3287 300.049 14.33 300.266 14.3738C300.504 14.4227 300.75 14.4665 300.966 14.5217C301.161 14.5705 301.356 14.5493 301.568 14.5493C301.728 14.5493 301.832 14.5818 301.819 14.6144C301.81 14.6332 301.749 14.6608 301.697 14.6633C301.273 14.6883 300.845 14.7096 300.417 14.7272C300.365 14.7297 300.3 14.7071 300.24 14.6958C300.119 14.6733 300.01 14.6382 299.881 14.6307C299.751 14.6232 299.599 14.642 299.457 14.6482C299.314 14.6545 299.163 14.6708 299.033 14.6608C298.903 14.6507 298.799 14.6144 298.678 14.5906C298.622 14.5793 298.544 14.563 298.496 14.5668C298.181 14.5969 297.947 14.5555 297.722 14.5004C297.675 14.4891 297.592 14.4816 297.532 14.4841C297.03 14.5054 296.533 14.5304 296.031 14.5543C295.828 14.5643 295.663 14.5204 295.62 14.4465C295.598 14.4052 295.555 14.3638 295.555 14.3225C295.555 14.2473 295.317 14.2059 295.144 14.2147C294.859 14.2272 294.569 14.2373 294.288 14.256C294.058 14.2711 293.864 14.2561 293.708 14.2109C293.526 14.1596 293.319 14.1696 293.111 14.1834C292.955 14.1934 292.912 14.2348 292.921 14.3387C292.929 14.4227 292.856 14.449 292.575 14.4628C292.22 14.4803 291.861 14.4979 291.502 14.5117C291.446 14.5142 291.381 14.4929 291.324 14.4816C291.203 14.459 291.095 14.4227 290.965 14.4152C290.836 14.4064 290.684 14.4252 290.542 14.4327C290.399 14.439 290.247 14.4565 290.118 14.4478C289.988 14.439 289.88 14.4014 289.763 14.3776C289.707 14.3663 289.637 14.35 289.581 14.3525C289.296 14.3626 289.01 14.3776 288.725 14.3914C288.405 14.4064 288.405 14.4064 287.95 14.3287C287.743 14.2936 287.535 14.3212 287.332 14.3312C287.116 14.3413 286.912 14.3463 286.744 14.2962C286.631 14.2636 286.506 14.2435 286.372 14.2498C286.013 14.2648 285.658 14.2836 285.299 14.2987C285.238 14.3012 285.156 14.2949 285.109 14.2836C284.879 14.231 284.654 14.1896 284.334 14.216C284.057 14.2385 283.759 14.2398 283.482 14.2611C283.331 14.2723 283.261 14.3124 283.292 14.3438C283.309 14.3601 283.4 14.3789 283.46 14.3789C283.599 14.3801 283.75 14.3613 283.88 14.3688C284.148 14.3839 284.282 14.4891 284.633 14.4603C284.84 14.4427 285.057 14.4365 285.273 14.4315C285.329 14.4302 285.39 14.454 285.45 14.4666C285.623 14.5004 285.775 14.5442 286.026 14.5217C286.233 14.5041 286.454 14.4991 286.666 14.4891C287.003 14.4728 287.003 14.4741 287.44 14.5505C287.648 14.5868 287.855 14.558 288.059 14.5493C288.21 14.543 288.353 14.5305 288.474 14.548C288.66 14.5743 288.794 14.6344 289.023 14.6307C289.24 14.6269 289.451 14.6094 289.668 14.6031C289.802 14.5994 289.927 14.6194 290.035 14.6532C290.148 14.6871 290.269 14.7021 290.416 14.6946C290.628 14.6846 290.844 14.672 291.061 14.6658C291.121 14.6645 291.19 14.6758 291.247 14.6858C291.368 14.7084 291.484 14.7347 291.601 14.7585C291.813 14.751 292.03 14.7485 292.237 14.7334C292.397 14.7222 292.51 14.7272 292.639 14.7522C292.804 14.7861 292.938 14.8462 293.206 14.8174C293.34 14.8036 293.496 14.8074 293.63 14.7948C293.794 14.7785 293.907 14.7848 294.024 14.8224C294.244 14.8938 294.521 14.8951 294.807 14.8675C295.118 14.8374 295.352 14.8725 295.585 14.9276C295.832 14.9853 295.832 14.984 296.022 15.1231C296.078 15.1632 296.238 15.182 296.372 15.1745C296.597 15.1619 296.792 15.1682 296.957 15.2158C297.13 15.2672 297.337 15.2609 297.549 15.2471C297.83 15.2283 298.111 15.2121 298.341 15.2847C298.453 15.3198 298.574 15.3286 298.726 15.3198C299.154 15.2973 299.587 15.2835 300.006 15.2559C300.261 15.2384 300.408 15.2785 300.581 15.3123C300.815 15.3587 301.07 15.4 301.07 15.499C301.07 15.5153 301.131 15.5341 301.183 15.5466C301.295 15.5729 301.416 15.5955 301.533 15.6205C301.706 15.6581 301.875 15.6894 302.113 15.6694C302.32 15.6531 302.541 15.6481 302.753 15.6368C302.965 15.6255 303.16 15.6193 303.35 15.6669C303.57 15.7208 303.804 15.7721 304.055 15.8122C304.232 15.841 304.466 15.7922 304.656 15.831C304.773 15.8548 304.885 15.8824 305.011 15.9024C305.063 15.9112 305.145 15.9049 305.214 15.9024C305.357 15.8974 305.504 15.8937 305.642 15.8811C305.803 15.8674 305.924 15.8699 306.045 15.8987C306.157 15.925 306.27 15.9613 306.399 15.9688C306.594 15.9801 306.81 15.93 307.005 15.9876C307.104 16.0165 307.23 16.044 307.36 16.0528C307.49 16.0616 307.641 16.0428 307.779 16.044C307.84 16.044 307.913 16.0641 307.948 16.0804C307.97 16.0891 307.939 16.1129 307.909 16.1255C307.87 16.1405 307.814 16.1605 307.758 16.1631C307.329 16.1856 306.901 16.2044 306.473 16.2257C306.218 16.2382 306.218 16.2382 305.703 16.1593C305.582 16.1405 305.448 16.1443 305.296 16.153C305.093 16.1643 304.885 16.1856 304.674 16.1631C304.397 16.0779 304.055 16.0703 303.692 16.1029C303.54 16.1167 303.402 16.1167 303.289 16.0929C303.051 16.0453 302.8 16.0014 302.589 15.945C302.424 15.9012 302.346 15.8974 302.277 15.9576C302.255 15.9764 302.234 15.9964 302.238 16.0139C302.264 16.0766 302.312 16.138 302.338 16.2006C302.346 16.2182 302.312 16.2382 302.29 16.257C302.221 16.3097 302.13 16.3059 301.979 16.262C301.827 16.2182 301.646 16.1894 301.403 16.2094C301.196 16.227 300.971 16.2245 300.763 16.2432C300.443 16.2708 300.218 16.2307 299.989 16.1768C299.941 16.1656 299.859 16.1593 299.798 16.1618C299.154 16.1906 298.514 16.2232 297.869 16.252C297.731 16.2583 297.605 16.2395 297.497 16.2057C297.385 16.1718 297.259 16.1543 297.121 16.1605C296.55 16.1869 295.979 16.2107 295.408 16.2432C295.174 16.257 294.988 16.2407 294.828 16.1969C294.707 16.1643 294.595 16.1543 294.443 16.158C294.279 16.1618 294.162 16.1743 294.08 16.2107C294.002 16.2458 294.058 16.267 294.231 16.2946C294.417 16.3247 294.59 16.3635 294.768 16.3986C294.91 16.3936 295.053 16.3836 295.192 16.3848C295.252 16.3848 295.308 16.4074 295.369 16.4199C295.542 16.4562 295.702 16.4926 295.949 16.4725C296.156 16.455 296.377 16.4512 296.589 16.44C296.883 16.4262 296.883 16.4262 297.359 16.5051C297.48 16.5252 297.61 16.5239 297.765 16.5126C297.899 16.5038 298.038 16.5214 298.133 16.559C298.172 16.574 298.159 16.5991 298.077 16.6818C298.077 16.7432 298.168 16.7156 298.198 16.6755C298.246 16.6179 298.155 16.5991 297.982 16.6304C297.861 16.653 297.8 16.6855 297.83 16.7118C297.848 16.7256 297.93 16.7432 298.077 16.6818C298.458 16.6066 298.747 16.5978 299.024 16.5778C299.189 16.5665 299.292 16.5715 299.422 16.6041C299.578 16.6429 299.734 16.6843 299.989 16.6642C300.266 16.6417 300.56 16.6392 300.841 16.6204C301.1 16.6028 301.235 16.658 301.399 16.6905C301.598 16.7294 301.819 16.6855 302 16.7081C302.191 16.7306 302.325 16.7858 302.545 16.7958C302.865 16.762 303.069 16.8246 303.311 16.866C303.501 16.8973 303.726 16.8697 303.929 16.8559C304.159 16.8409 304.349 16.8547 304.509 16.8998C304.691 16.9512 304.894 16.9399 305.102 16.9286C305.586 16.9035 305.603 16.8998 305.885 16.9687C306.088 17.0188 306.283 16.9963 306.486 16.99C306.663 17.0238 306.836 17.0602 307.022 17.0902C307.07 17.0977 307.161 17.0852 307.234 17.0815C307.446 17.0714 307.663 17.0614 307.874 17.0514C308.017 17.0451 308.169 17.0263 308.298 17.0339C308.428 17.0426 308.536 17.079 308.653 17.1028C308.77 17.1266 308.891 17.1504 309.004 17.1754C309.177 17.213 309.341 17.2444 309.583 17.2256C309.791 17.2093 310.007 17.2043 310.223 17.193C310.496 17.1792 310.487 17.183 310.993 17.2581C311.266 17.2995 311.547 17.2494 311.824 17.2444C311.962 17.2418 312.096 17.2556 312.191 17.292C312.23 17.307 312.217 17.3321 312.23 17.3534C311.517 17.3872 310.799 17.416 310.093 17.4573C309.821 17.4736 309.678 17.4285 309.531 17.3909C309.289 17.3308 308.969 17.4185 308.74 17.3408C308.601 17.2945 308.402 17.2682 308.164 17.2907C308.026 17.3032 307.879 17.302 307.736 17.3133C307.373 17.3408 307.04 17.3421 306.75 17.2556C306.65 17.2256 306.508 17.2093 306.404 17.1805C306.283 17.1491 306.166 17.1316 306.023 17.1378C305.379 17.1679 304.738 17.198 304.098 17.2306C304.042 17.2331 303.986 17.2519 303.938 17.2656C303.817 17.3007 303.856 17.3283 304.051 17.3509C304.115 17.3584 304.167 17.3746 304.228 17.3872C304.345 17.411 304.453 17.4486 304.583 17.4573C304.712 17.4661 304.864 17.4486 305.007 17.4423C305.149 17.4361 305.301 17.4173 305.431 17.4248C305.56 17.4335 305.668 17.4699 305.789 17.4924C305.846 17.5037 305.915 17.5225 305.971 17.5213C306.257 17.5137 306.538 17.5 306.823 17.4887C307.001 17.5225 307.152 17.5714 307.364 17.5826C307.498 17.5902 307.641 17.5764 307.779 17.5789C307.84 17.5801 307.918 17.5989 307.948 17.6152C307.965 17.6252 307.909 17.6503 307.866 17.6628C307.701 17.7104 307.477 17.7017 307.273 17.7167C307.053 17.733 306.854 17.728 306.685 17.6791C306.572 17.6465 306.447 17.629 306.309 17.6353C305.949 17.6516 305.595 17.6704 305.236 17.6841C305.175 17.6866 305.102 17.6754 305.045 17.6666C304.591 17.5902 304.591 17.5877 304.271 17.604C303.8 17.6278 303.8 17.6277 303.484 17.5613C303.423 17.5488 303.358 17.525 303.307 17.5263C302.805 17.5463 302.307 17.5664 301.81 17.5952C301.646 17.6039 301.533 17.604 301.412 17.5714C301.308 17.5438 301.187 17.5125 301.057 17.505C300.923 17.4974 300.776 17.5162 300.633 17.5225C300.491 17.5288 300.339 17.5451 300.214 17.535C300.084 17.525 299.971 17.4899 299.859 17.4649C299.742 17.4386 299.617 17.4398 299.457 17.4498C298.964 17.4786 298.959 17.4749 298.47 17.3972C298.414 17.3884 298.341 17.3784 298.28 17.3809C297.921 17.396 297.566 17.4148 297.207 17.4298C297.069 17.4361 296.935 17.4198 296.84 17.3834C296.801 17.3684 296.814 17.3433 296.788 17.2945C296.758 17.2832 296.792 17.3032 296.801 17.322C296.866 17.3195 296.944 17.322 296.991 17.312C297.112 17.2882 297.173 17.2569 297.142 17.2306C297.125 17.2168 297.043 17.1992 296.991 17.1992C296.896 17.1992 296.814 17.2268 296.788 17.2945C296.515 17.3358 296.225 17.3446 295.944 17.3646C295.78 17.3772 295.676 17.3709 295.546 17.3383C295.391 17.2982 295.231 17.2594 294.975 17.2794C294.698 17.302 294.404 17.3057 294.119 17.3233C293.79 17.3433 293.647 17.2306 293.371 17.2331C293.085 17.2356 292.8 17.2569 292.514 17.2719C292.263 17.2844 292.263 17.2844 291.744 17.203C291.554 17.1729 291.329 17.2168 291.143 17.1855C291.017 17.1654 290.909 17.1353 290.788 17.114C290.736 17.1053 290.654 17.1053 290.589 17.1078C290.23 17.1228 289.867 17.1328 289.521 17.1604C289.127 17.193 288.829 17.1579 288.547 17.084C288.193 17.0978 287.834 17.1053 287.483 17.1291C287.228 17.1466 287.081 17.1053 286.908 17.0714C286.847 17.0602 286.796 17.0414 286.731 17.0364C286.666 17.0313 286.588 17.0414 286.519 17.0451C286.233 17.0589 285.939 17.0652 285.662 17.0877C285.32 17.1166 285.191 17.0138 284.927 17.0013C284.749 17.0627 284.654 17.1466 284.304 17.1529C284.018 17.1579 283.733 17.1779 283.447 17.1917C283.305 17.198 283.162 17.2055 283.019 17.2118C282.79 17.2231 282.682 17.2719 282.729 17.3471C282.755 17.3884 282.777 17.4298 282.799 17.4711C282.842 17.5451 282.734 17.6077 282.552 17.6165C282.05 17.6403 281.553 17.6653 281.051 17.6866C280.917 17.6929 280.787 17.6716 280.679 17.6378C280.567 17.6039 280.441 17.5889 280.303 17.5952C279.801 17.619 279.303 17.644 278.802 17.6653C278.745 17.6679 278.672 17.6553 278.616 17.6453C278.495 17.6227 278.378 17.5964 278.261 17.5726C277.976 17.5839 277.694 17.5914 277.413 17.6064C276.959 17.629 276.959 17.6303 276.626 17.5613C276.565 17.5488 276.505 17.525 276.449 17.5263C276.232 17.5313 276.02 17.5438 275.804 17.5551C275.168 17.5877 275.168 17.5877 274.982 17.5501C274.813 17.515 274.662 17.4724 274.407 17.4924C274.13 17.515 273.836 17.5225 273.55 17.535C273.338 17.5438 273.126 17.5538 272.914 17.5563C272.858 17.5576 272.798 17.5338 272.737 17.5213C272.564 17.4824 272.395 17.4511 272.157 17.4724C272.019 17.4849 271.872 17.4874 271.729 17.4937C271.357 17.5112 271.357 17.5112 270.747 17.436C270.687 17.4285 270.613 17.4198 270.553 17.4235C270.051 17.4461 269.553 17.4711 269.052 17.4924C268.991 17.4949 268.918 17.4874 268.857 17.4811C268.174 17.4085 268.174 17.4085 267.447 17.4436C267.17 17.4561 267.161 17.4611 266.872 17.3947C266.742 17.3659 266.634 17.3521 266.482 17.3609C265.911 17.3909 265.336 17.411 264.769 17.4461C264.514 17.4611 264.367 17.4235 264.194 17.3897C264.133 17.3784 264.069 17.3534 264.017 17.3546C263.446 17.3784 262.875 17.4072 262.304 17.431C262.252 17.4335 262.187 17.4085 262.126 17.3972C262.009 17.3747 261.897 17.3408 261.767 17.3333C261.633 17.3258 261.486 17.3446 261.339 17.3509C260.98 17.3671 260.98 17.3659 260.565 17.292C260.508 17.2819 260.435 17.2682 260.379 17.2707C259.808 17.2957 259.232 17.317 258.666 17.3534C258.341 17.3734 258.121 17.3371 257.891 17.2844C257.844 17.2732 257.762 17.2682 257.701 17.2707C257.057 17.2995 256.416 17.3321 255.772 17.3609C255.638 17.3671 255.508 17.3458 255.4 17.3133C255.227 17.2619 255.024 17.2681 254.807 17.2794C254.31 17.3057 254.305 17.3045 254.011 17.2444C253.951 17.2318 253.899 17.2155 253.834 17.2093C253.773 17.203 253.696 17.2068 253.631 17.2093C253.345 17.2218 253.06 17.2356 252.774 17.2494C252.489 17.2631 252.199 17.2707 251.918 17.292C251.572 17.3183 251.407 17.2368 251.165 17.1992C250.81 17.2155 250.447 17.2256 250.097 17.2519C249.828 17.2719 249.703 17.2168 249.526 17.188C249.465 17.1779 249.4 17.1566 249.344 17.1591C248.699 17.1867 248.055 17.2168 247.415 17.2506C247.259 17.2581 247.155 17.2481 247.025 17.218C246.736 17.1504 246.723 17.1529 246.238 17.1779C246.026 17.1892 245.823 17.1992 245.641 17.1479C245.481 17.1015 245.287 17.0902 245.057 17.1053C244.776 17.1241 244.486 17.1341 244.201 17.1466C243.915 17.1604 243.63 17.1792 243.344 17.1855C243.115 17.1917 242.977 17.1328 242.795 17.1028C242.739 17.094 242.661 17.0927 242.596 17.0952C242.31 17.1065 242.016 17.1153 241.74 17.1366C241.402 17.1629 241.216 17.094 240.978 17.0539C240.926 17.0451 240.84 17.0501 240.775 17.0539C240.273 17.0765 239.776 17.1015 239.274 17.1253C239.096 17.0915 238.915 17.0589 238.737 17.0251C238.452 17.0376 238.166 17.0514 237.881 17.0639C237.665 17.0739 237.444 17.0777 237.241 17.0965C236.977 17.1216 236.847 17.0627 236.67 17.0339C236.609 17.0238 236.544 17.0025 236.488 17.005C236.129 17.0188 235.77 17.0339 235.415 17.0552C235.078 17.0765 234.944 16.9637 234.667 16.9649C234.382 16.9662 234.087 16.9825 233.811 17.005C233.49 17.0313 233.265 16.9912 233.036 16.9374C232.989 16.9261 232.906 16.9198 232.846 16.9223C232.487 16.9374 232.132 16.9562 231.773 16.9712C231.713 16.9737 231.639 16.9674 231.579 16.9599C230.895 16.886 230.895 16.8848 230.597 16.8998C230.385 16.9098 230.168 16.9223 229.952 16.9286C229.892 16.9311 229.818 16.9198 229.762 16.9098C229.312 16.8334 229.312 16.8321 228.987 16.8472C228.702 16.8609 228.416 16.8747 228.131 16.8885C227.954 16.8547 227.772 16.8221 227.595 16.7883C227.24 16.8046 226.876 16.8171 226.526 16.8396C226.362 16.8497 226.254 16.8459 226.128 16.8146C225.972 16.777 225.817 16.7331 225.557 16.7544C225.28 16.777 224.986 16.7795 224.705 16.7983C224.368 16.8208 224.229 16.7068 223.957 16.7081C223.671 16.7093 223.377 16.7256 223.1 16.7482C222.78 16.7745 222.555 16.7344 222.326 16.6805C222.278 16.6692 222.196 16.663 222.136 16.6655C221.348 16.7018 220.565 16.7381 219.778 16.777C219.294 16.8008 219.294 16.8021 218.372 16.7331C218.307 16.7281 218.238 16.7231 218.173 16.7256C217.888 16.7369 217.594 16.7457 217.317 16.767C216.979 16.7933 216.793 16.7256 216.555 16.6843C216.504 16.6755 216.421 16.6805 216.352 16.683C216.136 16.6918 215.924 16.7031 215.708 16.7131C215.422 16.7269 215.137 16.7407 214.851 16.7544C214.674 16.7219 214.492 16.688 214.315 16.6555C213.96 16.6717 213.597 16.6805 213.246 16.7068C212.978 16.7269 212.853 16.6743 212.675 16.6442C212.615 16.6342 212.55 16.6129 212.494 16.6141C211.849 16.6417 211.205 16.6705 210.564 16.7056C210.301 16.7206 210.179 16.6642 210.002 16.6354C209.942 16.6266 209.872 16.6104 209.816 16.6129C209.388 16.6304 208.96 16.6517 208.531 16.673C208.289 16.6855 208.289 16.6855 207.761 16.6078C207.701 16.5991 207.632 16.5903 207.571 16.5928C206.213 16.6555 204.859 16.7219 203.501 16.7845C203.362 16.7908 203.237 16.772 203.129 16.7382C203.016 16.7043 202.891 16.6868 202.752 16.6931C202.181 16.7194 201.606 16.7432 201.039 16.7758C200.806 16.7895 200.62 16.7732 200.46 16.7294C200.339 16.6968 200.226 16.6843 200.075 16.6918C199.789 16.7068 199.504 16.7194 199.218 16.7331C198.933 16.7469 198.647 16.7607 198.362 16.7745C198.076 16.7883 197.786 16.7958 197.505 16.8171C197.159 16.8434 196.991 16.7657 196.753 16.7269C196.324 16.7457 195.896 16.7645 195.472 16.7845C194.901 16.8108 194.33 16.8396 193.759 16.8647C193.707 16.8672 193.642 16.8447 193.582 16.8334C193.405 16.8021 193.275 16.7582 193.011 16.772C191.73 16.8384 190.441 16.8948 189.157 16.9599C188.889 16.9737 188.772 16.9198 188.59 16.891C188.53 16.8822 188.46 16.8647 188.404 16.8672C187.69 16.8985 186.977 16.9336 186.263 16.9674C185.973 16.9812 185.973 16.9812 185.489 16.9035C185.432 16.8948 185.359 16.8835 185.298 16.886C184.368 16.9286 183.443 16.9737 182.513 17.0176C182.374 17.0238 182.249 17.0063 182.136 16.9725C182.028 16.9386 181.898 16.9198 181.764 16.9261C180.908 16.9662 180.047 17.005 179.195 17.0489C178.965 17.0614 178.775 17.0501 178.611 17.005C178.494 16.9725 178.377 16.9587 178.23 16.9662C176.945 17.0276 175.661 17.0865 174.376 17.1516C174.129 17.1642 173.956 17.1404 173.801 17.099C173.675 17.0664 173.567 17.0602 173.411 17.0652C173.247 17.0714 173.148 17.0852 173.057 17.1228C172.94 17.1717 172.866 17.2331 172.589 17.2368C172.304 17.2406 172.014 17.2556 171.733 17.2769C171.465 17.2982 171.339 17.2418 171.171 17.208C171.045 17.1842 170.928 17.1804 170.768 17.1917C170.621 17.2017 170.53 17.223 170.444 17.2631C170.254 17.3483 170.236 17.3483 170.003 17.2945C169.877 17.2656 169.765 17.2431 169.626 17.2481C169.055 17.2732 168.484 17.3007 167.913 17.3295C167.585 17.3458 167.58 17.3483 167.334 17.2857C167.213 17.2544 167.096 17.2393 166.953 17.2468C165.383 17.322 163.813 17.3947 162.243 17.4736C162 17.4862 161.836 17.4599 161.663 17.4223C161.607 17.4097 161.55 17.3922 161.486 17.3872C161.421 17.3822 161.347 17.3872 161.278 17.3897C160.136 17.4436 158.99 17.4949 157.852 17.5551C157.592 17.5689 157.454 17.5288 157.277 17.4962C157.216 17.4849 157.164 17.4674 157.099 17.4624C157.034 17.4586 156.957 17.4674 156.887 17.4711C155.745 17.525 154.599 17.5764 153.461 17.6365C153.189 17.6503 153.072 17.5977 152.895 17.5701C152.834 17.5601 152.769 17.5413 152.713 17.5438C152.354 17.5576 151.999 17.5764 151.64 17.5927C150.784 17.634 149.927 17.6729 149.071 17.7155C148.742 17.7318 148.599 17.6202 148.322 17.6252C147.963 17.6315 147.609 17.6566 147.25 17.6741C146.964 17.6879 146.679 17.7004 146.393 17.7155C146.112 17.7292 146.112 17.7292 145.411 17.6566C145.351 17.6503 145.277 17.6415 145.217 17.644C144.217 17.6904 143.214 17.7368 142.219 17.7869C141.99 17.7982 141.799 17.7919 141.635 17.7455C141.518 17.713 141.397 17.6967 141.254 17.7042C139.753 17.7756 138.257 17.847 136.756 17.9172C136.699 17.9197 136.626 17.9072 136.57 17.8971C136.449 17.8746 136.332 17.8483 136.215 17.8245C136.128 17.8533 136.016 17.8796 135.96 17.9122C135.882 17.956 135.778 17.9686 135.614 17.9761C135.449 17.9836 135.346 17.9811 135.216 17.9485C135.06 17.9084 134.9 17.8771 134.645 17.8896C133.075 17.9685 131.504 18.04 129.934 18.1177C129.675 18.1302 129.554 18.0751 129.372 18.0462C129.311 18.0375 129.242 18.0237 129.186 18.0262C128.541 18.055 127.901 18.0863 127.257 18.1164C125.47 18.2016 123.684 18.2831 121.901 18.3733C121.577 18.3896 121.356 18.3582 121.127 18.3043C121.08 18.2931 120.997 18.2868 120.937 18.2893C118.437 18.4071 115.936 18.5261 113.44 18.6451C113.306 18.6514 113.177 18.6314 113.068 18.5988C112.956 18.565 112.831 18.5487 112.692 18.5549C111.55 18.6088 110.408 18.6627 109.266 18.7178C108.981 18.7316 108.976 18.7328 108.682 18.6727C108.622 18.6602 108.557 18.6364 108.509 18.6389C108.41 18.6452 108.315 18.6765 108.245 18.7191C108.176 18.7642 108.068 18.7767 107.908 18.7855C107.744 18.7942 107.635 18.7905 107.51 18.7604C107.35 18.7228 107.203 18.6865 106.943 18.699C103.66 18.8594 100.377 19.0135 97.0937 19.1726C96.8299 19.1852 96.7087 19.1325 96.527 19.1037C96.4665 19.095 96.406 19.0824 96.3411 19.0799C96.2719 19.0774 96.1983 19.0849 96.1291 19.0887C90.7739 19.343 85.4188 19.5986 80.0637 19.853C79.7436 19.868 79.7479 19.868 79.3975 19.9833C79.3542 19.9971 79.298 20.0159 79.2374 20.0184C77.598 20.0986 75.9543 20.1763 74.3105 20.2539C73.5968 20.2878 72.8831 20.3229 72.1693 20.3554C71.9141 20.3667 71.9141 20.3667 71.3042 20.502C71.2523 20.5133 71.1917 20.5283 71.1311 20.5308C68.2762 20.6674 65.4212 20.804 62.562 20.9381C62.337 20.9481 62.1554 20.9706 62.0516 21.0308C61.978 21.0734 61.8829 21.0984 61.7401 21.1059C59.7417 21.2012 57.7433 21.2977 55.7405 21.3904C55.5026 21.4016 55.3598 21.4367 55.243 21.4894C55.204 21.5069 55.1694 21.5269 55.1132 21.5395C55.0613 21.5507 54.9834 21.5545 54.9186 21.5583C53.2056 21.6397 51.4927 21.7237 49.7754 21.8013C49.5202 21.8126 49.4163 21.859 49.2909 21.9078C49.2476 21.9241 49.2173 21.9467 49.1611 21.958C49.1048 21.968 49.0227 21.968 48.9535 21.9705C47.526 22.0381 46.0986 22.1071 44.6711 22.1747C44.3942 22.1685 44.3337 22.2411 44.1996 22.285C44.152 22.3 44.1174 22.3201 44.0612 22.3301C44.0007 22.3401 43.9227 22.3389 43.8492 22.3414C42.7072 22.3952 41.5652 22.4529 40.4189 22.503C40.1551 22.5143 40.1031 22.5782 39.9604 22.622C39.9128 22.6358 39.8653 22.6571 39.8091 22.6609C39.0953 22.6972 38.3816 22.731 37.6679 22.7636C37.43 22.7749 37.43 22.7736 37.0104 22.8977C36.9628 22.9115 36.9065 22.9265 36.8459 22.9303C35.7775 22.9829 34.7048 23.033 33.632 23.0844C33.4936 23.0906 33.3984 23.1207 33.3292 23.1633C33.26 23.2059 33.1605 23.2335 33.0221 23.2397C32.1656 23.2811 31.3091 23.3237 30.4526 23.3613C30.2147 23.3713 30.059 23.4026 29.9552 23.459C29.8773 23.5016 29.7822 23.5229 29.6308 23.5304C28.7743 23.5705 27.9178 23.6144 27.057 23.6494C26.8061 23.6595 26.6763 23.7021 26.5725 23.7547C26.4903 23.7973 26.3951 23.8123 26.2351 23.8198C24.6649 23.8925 23.0904 23.9652 21.5245 24.0454C21.2606 24.0592 21.1265 24.0153 20.9535 23.984C20.7069 23.9401 20.4777 23.8925 20.4777 23.7948C20.4777 23.7797 20.4042 23.7622 20.3522 23.7497C19.9673 23.6557 19.9673 23.6557 19.9067 23.5555C19.8721 23.4941 19.8332 23.4314 19.8029 23.3688C19.7466 23.266 19.6082 23.2397 19.2102 23.2585C19.0675 23.2648 18.9247 23.2736 18.782 23.2786C18.57 23.2873 18.41 23.246 18.3711 23.1708C18.3494 23.1295 18.3235 23.0881 18.3019 23.0468C18.5182 23.0367 18.5138 23.0355 18.8944 22.8839C19.0545 22.82 19.0546 22.82 18.7474 22.7561C18.6307 22.7323 18.5182 22.706 18.3927 22.6834C18.3365 22.6734 18.263 22.6671 18.2024 22.6696C17.8434 22.6847 17.4887 22.7022 17.134 22.7198C16.563 22.7473 16.5629 22.7473 15.9833 22.6195C15.9357 22.6095 15.8622 22.5907 15.8708 22.5807C15.9184 22.5343 16.0352 22.5143 16.1823 22.5092C16.3985 22.5017 16.6105 22.4892 16.8224 22.4792C16.9652 22.4729 17.1079 22.4654 17.2507 22.4591C17.3848 22.4115 17.5233 22.3652 17.6487 22.3163C17.8477 22.2411 17.8476 22.2386 17.5751 22.186C17.4021 22.1509 17.2161 22.1196 17.0387 22.087C16.8268 22.097 16.6105 22.1083 16.3985 22.1171C16.1303 22.1284 16.0222 22.1045 15.953 22.0231C15.8924 21.9517 15.966 21.8903 16.1736 21.8753C16.3856 21.8602 16.5846 21.8502 16.6928 21.7863C16.7966 21.7249 16.9782 21.7011 17.2032 21.6961C17.3459 21.6923 17.4886 21.6836 17.6314 21.676C17.8174 21.666 17.9169 21.6021 17.878 21.5307C17.8564 21.4843 17.8131 21.4455 17.6444 21.4355C16.896 21.3916 16.8873 21.3929 16.5153 21.3077C16.4807 21.3002 16.4548 21.2776 16.4678 21.2663C16.4894 21.2475 16.537 21.22 16.5889 21.2162C17.0864 21.1886 17.5838 21.1636 18.0813 21.1448C18.2457 21.1385 18.3668 21.1297 18.423 21.0834C18.5009 21.0195 18.4663 20.9606 18.3149 20.9167C18.2673 20.903 18.1894 20.8854 18.1375 20.8867C17.5665 20.9092 16.9998 20.938 16.4288 20.9606C16.3769 20.9631 16.2818 20.9418 16.2602 20.9255C16.2169 20.8955 16.2818 20.8554 16.4332 20.8416C16.6322 20.8228 16.8355 20.8215 16.9696 20.7589C17.1556 20.6699 17.3848 20.5885 17.5924 20.5033C17.627 20.4883 17.6833 20.4594 17.6704 20.4569C17.5622 20.4293 17.4368 20.408 17.3243 20.3817C17.134 20.3379 17.1339 20.2765 17.1772 20.2176C17.2118 20.17 17.3416 20.1512 17.5016 20.1512C17.5708 20.1512 17.6573 20.1512 17.7136 20.1399C17.8606 20.1124 17.9082 20.0773 17.8347 20.051C17.7914 20.0359 17.7136 20.0146 17.6617 20.0171C16.736 20.0585 15.8059 20.0986 14.8846 20.1499C14.612 20.165 14.4867 20.1174 14.3223 20.0835C14.1969 20.0572 14.08 20.0472 13.9243 20.066C13.7772 20.0835 13.6345 20.0735 13.5437 20.0322C13.4701 19.9983 13.5999 19.9695 13.9503 19.9369C14.0151 19.9307 14.0886 19.9269 14.1362 19.9144C14.638 19.7791 14.638 19.7778 14.984 19.7603C15.3214 19.744 15.3215 19.7427 15.4989 19.6701C15.5811 19.6362 15.6718 19.6024 15.7497 19.5673C15.78 19.5535 15.8319 19.5285 15.8146 19.521C15.7195 19.4821 15.5897 19.4734 15.4383 19.4821C15.1009 19.5034 14.7029 19.4859 14.5256 19.6049C14.4564 19.65 14.3482 19.6626 14.1925 19.6701C12.6266 19.7427 11.0607 19.8204 9.49047 19.8906C9.23526 19.9019 9.11853 19.9482 9.01904 19.9996C8.93253 20.0422 8.83734 20.0547 8.67297 20.0622C8.50859 20.0698 8.37876 20.0735 8.2836 20.0322C8.22736 20.0071 8.27496 19.972 8.40473 19.9369C8.59073 19.8868 8.55611 19.8242 8.49555 19.7653C8.45229 19.7265 8.3182 19.6989 8.17545 19.7014C7.9635 19.7064 7.76025 19.7202 7.58289 19.6701C7.47908 19.6413 7.34928 19.6212 7.23249 19.5961C7.00756 19.5448 6.78261 19.4921 6.46684 19.526C6.25056 19.5134 6.09916 19.4683 5.92613 19.4333C5.63631 19.3756 5.61036 19.3668 5.81799 19.3055C6.05158 19.2365 5.86986 19.1463 5.99963 19.0787C6.13806 19.006 6.32845 18.9421 6.49715 18.8744C6.54041 18.8569 6.57935 18.8406 6.62261 18.8231C6.52312 18.798 6.4323 18.7667 6.3155 18.7492C6.16411 18.7266 6.08624 18.699 6.09489 18.6213C6.06461 18.6101 6.0775 18.6389 6.11211 18.6464C6.15104 18.6539 6.24627 18.6477 6.29386 18.6389C6.41497 18.6151 6.47547 18.5838 6.44519 18.5574C6.42789 18.5437 6.34576 18.5261 6.29386 18.5261C6.19869 18.5261 6.11652 18.5537 6.09056 18.6213C5.60609 18.6727 5.10423 18.6978 4.60246 18.7178C4.55055 18.7203 4.4857 18.6953 4.42514 18.6827C4.22616 18.6401 4.22614 18.6414 3.64217 18.6289C3.58161 18.6276 3.49947 18.6101 3.46919 18.5925C3.34374 18.5161 3.3481 18.4321 3.28754 18.3507C3.40001 18.2981 3.51239 18.2467 3.62918 18.1953C3.86277 18.0913 4.16563 17.9999 4.34731 17.8859C4.30838 17.8245 4.25646 17.7631 4.44679 17.713C4.9875 17.6503 4.98321 17.6503 5.13028 17.5902C5.54987 17.4198 5.96511 17.2481 6.402 17.0802C6.51879 17.0364 6.51881 17.0126 6.31117 16.9938C6.24629 16.9888 6.17699 16.9875 6.10778 16.99C5.89149 16.9988 5.67521 17.0213 5.46326 17.0163C5.2513 17.0125 5.09558 16.9574 4.92255 16.9236C4.7452 16.8885 4.56785 16.8522 4.3905 16.8158C4.1872 16.8196 3.98393 16.8547 3.78062 16.7983C3.6249 16.7544 3.43026 16.7231 3.2529 16.6868C3.387 16.5916 3.63793 16.5189 3.83258 16.4349C4.00993 16.3585 4.01416 16.3598 4.48998 16.3009C4.71492 16.2733 4.79278 16.1317 4.60246 16.0904C4.3732 16.0403 4.13101 15.9939 3.89742 15.9463C3.69412 15.95 3.48653 15.9839 3.29187 15.9275C3.14048 15.8849 2.96741 15.8561 2.71653 15.8724C2.29261 15.8999 1.86006 15.9137 1.43182 15.9363C1.28475 15.9438 1.12465 15.9388 1.05977 15.8962C1.01651 15.8661 1.14196 15.8248 1.28471 15.816C1.50099 15.8035 1.69562 15.7884 1.80377 15.7258C1.90758 15.6631 2.09789 15.6443 2.32282 15.6356C2.38338 15.633 2.45264 15.618 2.48292 15.603C2.63865 15.5303 2.81169 15.4677 3.14476 15.4702C3.28318 15.4451 3.35667 15.4138 3.31342 15.3837C3.28746 15.3674 3.19667 15.3461 3.14476 15.3486C2.78573 15.3612 2.42672 15.3737 2.07634 15.3962C1.91196 15.4063 1.78645 15.4088 1.68263 15.3712C1.6091 15.3461 1.64803 15.3123 1.78645 15.276C1.90756 15.2446 1.94221 15.2083 1.93356 15.1657C1.91193 15.0667 1.78213 15.0379 1.36687 15.0442C1.0684 15.0492 0.994859 15.0329 0.929974 14.9477C0.912672 14.9276 0.869491 14.9001 0.899771 14.8863C1.08577 14.8011 1.2069 14.6958 1.55728 14.6557C1.6957 14.6407 1.84271 14.6407 1.92923 14.6081C2.01574 14.5756 2.09364 14.538 2.18448 14.5066C2.29695 14.4691 2.37473 14.434 2.32282 14.4102C2.23631 14.3676 2.09794 14.3638 1.93789 14.3789C1.79947 14.3914 1.6524 14.3926 1.50965 14.4001C1.25444 14.4139 1.04685 14.3814 1.01657 14.3262C0.934385 14.1809 0.847846 14.0368 0.77431 13.8915C0.765659 13.8739 0.787228 13.8513 0.821833 13.8363C0.942952 13.7837 1.07277 13.7336 1.19822 13.6822C1.34529 13.6233 1.57891 13.6346 1.77789 13.6233C2.05906 13.607 2.05896 13.6083 2.4353 13.488C2.58237 13.4404 2.83759 13.4592 2.98899 13.4166C3.03657 13.4028 3.11011 13.3802 3.09713 13.3677C3.07983 13.3514 2.99336 13.3389 2.92848 13.3314C2.86792 13.3239 2.7944 13.3201 2.72952 13.3239C1.94225 13.3602 1.15932 13.399 0.372053 13.4341C0.237958 13.4404 0.0908811 13.4128 0.0432988 13.374C-0.00428342 13.3376 0.00865132 13.2938 0 13.2524C0.125444 13.2011 0.268136 13.1535 0.376277 13.0983C0.458465 13.0557 0.553646 13.0369 0.718021 13.0344C0.934304 13.0307 1.14628 13.0156 1.38852 13.0044C1.83839 12.8214 2.27958 12.6297 2.76405 12.4468C2.9587 12.3729 2.9112 12.2977 2.95013 12.2187C2.98906 12.1461 3.27886 12.1574 3.47352 12.1361C3.62924 12.1185 3.68108 12.0784 3.62052 12.0509C3.58592 12.0346 3.5081 12.0158 3.44754 12.0158C3.30479 12.0158 3.16205 12.027 3.0193 12.0333C2.87655 12.0396 2.71219 12.0358 2.5954 12.0571C2.48293 12.0772 2.40935 12.1198 2.33581 12.1561C2.25363 12.1962 2.14556 12.21 1.98119 12.2125C1.76923 12.215 1.55728 12.2263 1.34533 12.235C1.11174 12.1862 0.869453 12.1386 0.644519 12.0872C0.601262 12.0772 0.592565 12.0484 0.59689 12.0296C0.605542 11.9807 0.540674 11.9506 0.397927 11.9268C0.276808 11.9068 0.17731 11.878 0.0648426 11.8529C0.151356 11.8191 0.246554 11.7865 0.315765 11.7501C0.467163 11.6737 0.657513 11.6186 0.986263 11.6211C1.11603 11.5722 1.21982 11.5121 1.38852 11.4783C1.54857 11.4457 1.8211 11.4783 1.94222 11.4043C2.00278 11.368 2.09367 11.3266 2.21046 11.3116C2.39646 11.2878 2.63869 11.3003 2.74684 11.2302C2.81172 11.1901 2.90685 11.1537 3.03229 11.1437C3.17504 11.1324 3.32207 11.1299 3.42589 11.1061C3.48212 11.0936 3.54269 11.0736 3.54269 11.056C3.54269 11.0447 3.45624 11.0272 3.39568 11.0197C3.33945 11.0109 3.26583 11.0046 3.20095 11.0072C2.98466 11.0147 2.77271 11.0284 2.55643 11.036C2.49587 11.0385 2.42668 11.0297 2.36179 11.0222C2.17146 11.0021 2.18442 10.9771 2.33581 10.932C2.48721 10.8881 2.59541 10.8317 2.72086 10.7804C2.85928 10.7716 3.03228 10.7754 3.12744 10.7515C3.28749 10.7127 3.39993 10.6563 3.5297 10.6075C3.67245 10.5999 3.81951 10.5974 3.95361 10.5837C4.00984 10.5786 4.03581 10.5511 4.0834 10.5348C4.16991 10.5035 4.24351 10.4584 4.3603 10.4433C4.55063 10.4208 4.78421 10.4295 4.89668 10.3606C4.96156 10.3205 5.06101 10.2779 5.18213 10.2754C5.51953 10.2704 5.66228 10.2015 5.83531 10.1363C5.96508 10.0875 6.24193 10.1125 6.38468 10.0637C6.47984 10.0324 6.54909 9.9935 6.64426 9.96343C6.68319 9.9509 6.76535 9.94465 6.83023 9.94089C7.18494 9.92209 7.54395 9.90831 7.89866 9.88826C7.95489 9.8845 8.00684 9.86571 8.0501 9.85068C8.14094 9.8181 8.19711 9.77299 8.30957 9.75169C8.42204 9.73039 8.58207 9.73039 8.72049 9.72413C9.16603 9.70533 9.20067 9.71034 9.40398 9.60384C9.56835 9.51738 9.97069 9.57878 10.1048 9.48356C10.1826 9.42843 10.3253 9.38332 10.5805 9.37706C10.9396 9.36829 11.2943 9.34448 11.6533 9.32819C11.9734 9.31316 11.9691 9.31315 12.3151 9.19663C12.4709 9.144 12.7002 9.15153 12.9035 9.1415C13.1198 9.13148 13.3187 9.11645 13.4225 9.0538C13.5263 8.99241 13.7167 8.97235 13.9373 8.96358C14.1406 8.95481 14.3699 8.96108 14.5299 8.91096C14.9192 8.79068 14.9149 8.78942 15.1874 8.77689C15.6157 8.75684 16.0439 8.7368 16.4721 8.7155C16.7576 8.70171 17.0561 8.69921 17.3243 8.67165C17.5189 8.6516 17.6054 8.58143 17.7309 8.53257C18.0856 8.51377 18.4403 8.49497 18.795 8.47743C19.2924 8.45237 19.7942 8.42983 20.296 8.40602C20.5122 8.35841 20.5426 8.25316 20.9059 8.24815C21.1222 8.24564 21.3342 8.22935 21.5505 8.21933C21.9095 8.20179 22.2642 8.17923 22.6232 8.17046C22.8957 8.1642 22.9432 8.09653 23.086 8.05393C23.1336 8.0389 23.1769 8.0176 23.2331 8.01385C23.7954 7.97876 24.375 7.97125 24.9244 7.91987C24.9806 7.91486 25.0325 7.88855 25.0455 7.86975C25.0542 7.85973 24.9806 7.84094 24.9331 7.83217C24.8768 7.82215 24.8033 7.81212 24.7428 7.81463C22.9563 7.89858 21.1698 7.98378 19.3833 8.06773C19.1324 8.08026 19.1324 8.079 18.5225 8.21682C18.4706 8.2281 18.41 8.24063 18.3451 8.24438C18.0596 8.25942 17.7698 8.2682 17.4886 8.287C17.2594 8.30203 17.0691 8.28698 16.9047 8.24188C16.7879 8.2093 16.6667 8.19928 16.5197 8.20179C16.3553 8.20555 16.2472 8.21933 16.1521 8.25316C16.0266 8.29952 15.9617 8.35966 15.6978 8.37219C14.4823 8.42606 13.2667 8.48621 12.0556 8.54384C11.8869 8.5263 11.8047 8.49999 11.8479 8.46867C11.8739 8.44987 11.9258 8.42482 11.9777 8.42231C12.4752 8.396 12.9769 8.37345 13.4744 8.34839C13.5436 8.34463 13.6387 8.34712 13.6777 8.33459C13.868 8.27821 13.9373 8.18675 14.2963 8.18048C14.504 8.17672 14.7159 8.15794 14.9149 8.14039C14.9711 8.13538 15.023 8.10907 15.036 8.09027C15.0403 8.08025 14.9711 8.06145 14.9192 8.05268C14.7289 8.01634 14.5083 8.06021 14.318 8.03515C14.2531 8.02638 14.1622 8.01385 14.1492 7.99881C14.1406 7.98503 14.2141 7.96247 14.266 7.94869C14.3136 7.93616 14.3784 7.92489 14.4433 7.92113C15.0143 7.89231 15.5854 7.86224 16.1564 7.83968C16.39 7.83091 16.5543 7.79959 16.6581 7.74195C16.736 7.69935 16.8311 7.6768 16.9782 7.67054C17.9774 7.62418 18.9766 7.57281 19.9802 7.53021C20.2311 7.52018 20.3609 7.47884 20.4647 7.42496C20.5469 7.38236 20.6421 7.36733 20.8021 7.35981C22.2339 7.29465 23.657 7.22199 25.0888 7.15934C25.3527 7.14806 25.4306 7.09418 25.5647 7.04782C25.6123 7.03154 25.6425 7.01149 25.703 7.00147C25.7636 6.99144 25.8414 6.99268 25.915 6.99018C27.057 6.9363 28.199 6.87868 29.3453 6.82856C29.6135 6.81728 29.6653 6.75462 29.8038 6.71077C29.8513 6.69699 29.8946 6.67444 29.9509 6.67068C30.8073 6.62808 31.6638 6.58799 32.5203 6.54664C33.0913 6.51908 33.6622 6.49151 34.2332 6.4652C34.5144 6.45267 34.5144 6.45141 34.8951 6.33238C34.9383 6.31859 34.9989 6.3023 35.0552 6.29855C36.6989 6.21836 38.3383 6.14194 39.982 6.063C40.1205 6.05674 40.2199 6.02791 40.2891 5.98531C40.3584 5.94271 40.4579 5.91389 40.592 5.90762C41.8767 5.84498 43.1614 5.78359 44.4505 5.7247C44.6841 5.71467 44.8484 5.6846 44.9522 5.62822C45.0301 5.58562 45.1252 5.56307 45.2723 5.55681C46.557 5.49667 47.8418 5.43276 49.1309 5.37512C49.3774 5.36384 49.4985 5.32125 49.6196 5.27113C49.6629 5.25359 49.6975 5.22477 49.7494 5.22226C50.3896 5.18718 51.0255 5.15084 51.67 5.12704C51.9382 5.11701 52.029 5.06439 52.1372 5.01427C52.2237 4.97417 52.3232 4.9604 52.4876 4.95538C52.8466 4.94411 53.2013 4.92282 53.5517 4.90152C53.6036 4.89776 53.6685 4.87019 53.6728 4.85265C53.6815 4.82007 53.5819 4.79751 53.4176 4.78624C51.7046 4.86768 49.9874 4.94912 48.2744 5.03056C47.9932 5.04434 47.9932 5.04435 47.6126 5.16338C47.5693 5.17716 47.5087 5.19345 47.4481 5.19721C45.8044 5.27615 44.165 5.35383 42.5213 5.43277C42.3828 5.43903 42.2834 5.46785 42.2141 5.51045C42.1449 5.55305 42.0454 5.58187 41.9113 5.58813C40.3411 5.66331 38.7709 5.73974 37.1963 5.81116C36.9628 5.82118 36.7984 5.84999 36.6946 5.90762C36.6167 5.95022 36.5216 5.97279 36.3745 5.97905C34.8735 6.04922 33.3768 6.12313 31.8714 6.19079C31.72 6.19706 31.6076 6.16072 31.6163 6.12689C31.6206 6.10935 31.6854 6.08055 31.7373 6.07804C32.5203 6.03669 33.2989 5.99409 34.0862 5.96276C34.3501 5.95274 34.4279 5.89761 34.562 5.85125C34.6052 5.83496 34.6399 5.81366 34.6961 5.80489C34.7567 5.79487 34.8345 5.79612 34.9081 5.79362C36.7638 5.70466 38.6195 5.61445 40.4796 5.5305C40.7477 5.51797 40.7996 5.45657 40.938 5.41271C40.9856 5.39768 41.0289 5.37513 41.0851 5.37263C41.6561 5.34256 42.2271 5.31624 42.798 5.28993C43.7973 5.24232 44.7965 5.1947 45.8 5.14709C46.0898 5.13331 46.0899 5.1333 46.4619 5.01552C46.5051 5.00174 46.5657 4.98421 46.622 4.98171C49.2649 4.85516 51.908 4.72861 54.5509 4.60331C54.6894 4.59705 54.7888 4.56823 54.858 4.52563C54.9272 4.48428 55.0267 4.45421 55.1608 4.44669C58.7338 4.27629 62.3025 4.10588 65.8755 3.93799C66.1091 3.92671 66.2734 3.9004 66.3772 3.84151C66.4508 3.79891 66.5502 3.77636 66.6973 3.76884C70.625 3.58215 74.5527 3.39546 78.4847 3.20752C81.1277 3.08223 83.7707 2.95442 86.4137 2.83163C86.6559 2.82036 86.7857 2.78151 86.9068 2.73014C86.9457 2.7126 86.9847 2.68378 87.0366 2.68127C87.6032 2.64995 88.1699 2.62113 88.7365 2.59232C88.9139 2.62615 89.0912 2.65873 89.2686 2.69256C89.4027 2.64495 89.5325 2.59608 89.6666 2.54847C90.5231 2.51213 91.3666 2.45575 92.2317 2.43821C92.2879 2.43695 92.3484 2.46076 92.409 2.47329C92.8113 2.55223 93.0406 2.54596 93.2958 2.44071C93.3866 2.40313 93.4645 2.3693 93.6029 2.36303C94.0311 2.34048 94.4638 2.32544 94.8877 2.29913C95.117 2.28535 95.3072 2.29787 95.4716 2.34298C95.5884 2.37556 95.7096 2.38935 95.8523 2.38183C96.6396 2.34424 97.4225 2.3079 98.2098 2.26781C98.266 2.2653 98.3179 2.24399 98.3611 2.22896C98.452 2.19638 98.5299 2.16131 98.6164 2.12748C98.7332 2.14878 98.863 2.16507 98.9581 2.19263C99.0792 2.22521 99.1917 2.2252 99.356 2.21643C102.496 2.06482 105.641 1.91698 108.782 1.76412C109.05 1.75159 109.167 1.80422 109.348 1.83178C109.409 1.8418 109.469 1.85433 109.534 1.85683C109.604 1.85934 109.677 1.85183 109.746 1.84807C112.104 1.7353 114.461 1.62378 116.819 1.51102C117.13 1.49598 117.13 1.49598 117.593 1.57367C117.649 1.58369 117.723 1.59497 117.783 1.59121C118.856 1.54234 119.929 1.48972 120.997 1.43961C121.136 1.43334 121.253 1.45338 121.378 1.4822C121.625 1.53858 121.642 1.53859 121.823 1.45589C121.91 1.41705 122.001 1.39324 122.144 1.38196C122.299 1.36943 122.425 1.3732 122.546 1.39576C122.719 1.42708 122.844 1.4797 123.108 1.46591C124.25 1.40702 125.397 1.35816 126.534 1.29802C126.794 1.28424 126.932 1.32684 127.105 1.35816C127.166 1.36944 127.222 1.38698 127.287 1.39074C127.352 1.3945 127.43 1.38572 127.499 1.38196C128.926 1.3143 130.358 1.24791 131.781 1.17523C132.049 1.16145 132.166 1.21532 132.348 1.24288C132.408 1.25291 132.478 1.27046 132.534 1.26795C133.39 1.22911 134.251 1.18775 135.108 1.1464C135.415 1.13137 135.415 1.13262 135.882 1.20905C135.938 1.21908 136.012 1.2291 136.072 1.22659C137.072 1.18024 138.075 1.13262 139.074 1.08501C139.381 1.06998 139.381 1.06998 140.268 1.13513C140.333 1.14014 140.402 1.14767 140.467 1.14517C141.609 1.09129 142.755 1.03866 143.897 0.981021C144.127 0.969744 144.317 0.979765 144.481 1.02487C144.598 1.05745 144.719 1.07124 144.862 1.06372C146.147 1.00233 147.436 0.943439 148.716 0.878286C148.963 0.865756 149.123 0.89331 149.296 0.929646C149.352 0.942175 149.408 0.95972 149.473 0.964732C149.538 0.969744 149.612 0.964728 149.681 0.960969C150.966 0.899575 152.255 0.841941 153.535 0.775535C153.794 0.761752 153.933 0.80435 154.106 0.835674C154.167 0.846951 154.231 0.869505 154.283 0.868252C154.785 0.846952 155.287 0.828164 155.784 0.79684C156.052 0.779299 156.169 0.836925 156.351 0.86449C156.411 0.87326 156.481 0.892064 156.537 0.889558C157.61 0.840693 158.683 0.789325 159.751 0.736701C159.902 0.729183 160.015 0.74045 160.136 0.773026C160.296 0.81688 160.482 0.834422 160.716 0.820639C161.213 0.791821 161.715 0.77178 162.217 0.747974C162.511 0.734191 162.511 0.734195 163.41 0.799349C163.475 0.804361 163.545 0.811873 163.609 0.809367C164.466 0.769273 165.327 0.730433 166.179 0.68658C166.408 0.674051 166.598 0.685324 166.763 0.73043C166.88 0.763007 166.996 0.776797 167.143 0.769279C167.931 0.731691 168.714 0.694099 169.501 0.65651C169.786 0.642728 170.072 0.618916 170.357 0.618916C170.565 0.620169 170.717 0.680308 170.903 0.710379C170.954 0.719149 171.041 0.709137 171.11 0.706632C172.109 0.659019 173.113 0.615162 174.108 0.561285C174.367 0.547502 174.506 0.5901 174.679 0.621424C174.739 0.632701 174.804 0.655255 174.856 0.654002C175.215 0.64022 175.57 0.621423 175.929 0.605135C176.357 0.585088 176.79 0.570052 177.214 0.542487C177.56 0.519934 177.689 0.628937 177.966 0.632696C178.178 0.636455 178.394 0.615159 178.606 0.605135C179.035 0.585088 179.463 0.562537 179.891 0.544996C180.043 0.538731 180.159 0.518675 180.207 0.473569C180.216 0.464798 180.142 0.446012 180.095 0.434735C179.519 0.306934 179.519 0.306928 178.94 0.334493C178.58 0.352034 178.226 0.369579 177.867 0.384614C177.806 0.38712 177.737 0.377097 177.676 0.369579C177.503 0.348279 177.521 0.323222 177.668 0.278116C177.815 0.23301 177.927 0.177885 178.053 0.126514C178.23 0.159091 178.403 0.191656 178.581 0.224232C178.723 0.217968 178.866 0.210461 179.009 0.204196C179.723 0.171619 180.436 0.137787 181.15 0.107716C181.202 0.105211 181.267 0.130273 181.327 0.142803C181.5 0.179138 181.656 0.210454 181.907 0.196671C182.547 0.160336 183.192 0.134024 183.832 0.1027C184.113 0.0889172 184.113 0.0889185 184.606 0.166602C184.662 0.175372 184.736 0.185396 184.796 0.182891C185.441 0.154073 186.081 0.122752 186.726 0.0926816C186.864 0.0864168 186.998 0.102705 187.098 0.13904C187.137 0.154076 187.128 0.17913 187.292 0.384614C187.803 0.551257 188.153 0.533724 188.508 0.518689C188.659 0.512424 188.793 0.506153 188.893 0.481094C188.945 0.467311 189.01 0.447261 189.01 0.430973C189.01 0.418443 188.915 0.398392 188.854 0.395886C188.426 0.370827 188.019 0.423459 187.599 0.434735C187.405 0.439747 187.236 0.395893 187.202 0.324475C187.193 0.304428 187.18 0.283129 187.167 0.263081C187.154 0.243034 187.145 0.221735 187.132 0.201688C186.964 0.195423 186.864 0.217973 186.791 0.260573C186.73 0.295656 186.644 0.33575 186.527 0.354544C186.41 0.374592 186.25 0.37084 186.107 0.377104C185.969 0.383369 185.817 0.399656 185.688 0.390885C185.558 0.380861 185.454 0.34452 185.333 0.321966C185.277 0.31069 185.207 0.294408 185.151 0.296914C184.654 0.318214 184.161 0.339506 183.668 0.367071C183.408 0.382106 183.278 0.32949 183.114 0.296914C182.984 0.271854 182.854 0.278111 182.833 0.335747C182.776 0.473572 182.975 0.531205 183.417 0.504893C183.78 0.48234 184.109 0.478592 184.394 0.563793C184.433 0.57507 184.524 0.58008 184.58 0.577574C184.935 0.562538 185.285 0.543742 185.64 0.528707C185.705 0.526201 185.774 0.531205 185.835 0.536216C186.717 0.603876 186.717 0.605136 187.016 0.5901C187.158 0.582583 187.297 0.576317 187.284 0.385868C187.556 0.181637 187.989 0.167857 188.408 0.137786C188.681 0.118992 188.798 0.174124 188.975 0.202942C189.036 0.212966 189.101 0.233009 189.157 0.230503C190.087 0.189156 191.012 0.145296 191.938 0.0989372C192.094 0.0914195 192.206 0.0989384 192.327 0.131515C192.483 0.172863 192.656 0.19918 192.903 0.184145C193.396 0.154074 193.898 0.135284 194.399 0.110225C194.655 0.0976953 194.655 0.0976824 195.169 0.175365C195.226 0.184136 195.299 0.19416 195.36 0.191654C195.861 0.170354 196.359 0.14405 196.856 0.121497C196.995 0.115232 197.12 0.132772 197.228 0.166602C197.337 0.200431 197.466 0.217971 197.6 0.211706C198.102 0.189153 198.6 0.164102 199.097 0.141549C199.158 0.139043 199.231 0.147813 199.287 0.156583C199.815 0.234267 199.815 0.234254 200.057 0.221724C200.412 0.20293 200.775 0.194169 201.126 0.16911C201.468 0.144051 201.645 0.216716 201.878 0.25681C202.519 0.227993 203.163 0.204193 203.799 0.16911C204.059 0.154074 204.197 0.195418 204.37 0.227995C204.431 0.239272 204.491 0.26308 204.547 0.261827C204.764 0.256815 204.976 0.243035 205.188 0.233012C205.4 0.222988 205.616 0.212966 205.828 0.202942C206.07 0.239278 206.23 0.324477 206.576 0.295659C206.784 0.278118 207.004 0.274359 207.216 0.264336C207.428 0.254312 207.645 0.24429 207.857 0.234266C207.999 0.228001 208.146 0.224237 208.285 0.21296C208.54 0.194166 208.665 0.255568 208.847 0.283133C208.908 0.291904 208.977 0.306929 209.033 0.304423C209.461 0.286882 209.894 0.271848 210.314 0.24303C210.638 0.220477 210.859 0.25807 211.088 0.310694C211.135 0.321971 211.218 0.328235 211.278 0.325729C211.78 0.304429 212.277 0.278109 212.775 0.255556C212.909 0.249292 213.039 0.269338 213.147 0.301915C213.259 0.335745 213.385 0.352045 213.523 0.345781C214.021 0.323227 214.522 0.298161 215.02 0.275608C215.08 0.273102 215.154 0.283127 215.21 0.293151C215.695 0.370834 215.695 0.372088 215.98 0.357053C216.049 0.353294 216.123 0.350778 216.192 0.347019C216.547 0.329478 216.915 0.323222 217.261 0.293151C217.659 0.259321 217.948 0.301924 218.23 0.373342C218.584 0.358306 218.948 0.349534 219.294 0.324475C219.553 0.305681 219.692 0.35329 219.865 0.384614C219.925 0.395891 219.99 0.418444 220.042 0.415938C220.544 0.394638 221.045 0.37585 221.539 0.344526C221.807 0.326985 221.924 0.383357 222.105 0.412175C222.166 0.422199 222.231 0.43975 222.287 0.437244C222.572 0.42722 222.858 0.412177 223.144 0.398395C223.477 0.382106 223.476 0.383358 223.918 0.459788C224.125 0.496124 224.333 0.467305 224.536 0.458534C224.753 0.44851 224.956 0.440995 225.129 0.492366C225.237 0.524943 225.367 0.544991 225.501 0.539979C225.786 0.528702 226.076 0.517431 226.357 0.498637C226.582 0.483602 226.777 0.49362 226.941 0.539979C227.058 0.572556 227.179 0.588854 227.322 0.581336C227.962 0.551265 228.607 0.51993 229.247 0.491112C229.303 0.488606 229.381 0.499887 229.433 0.511164C229.554 0.533717 229.671 0.55877 229.788 0.583829C230.069 0.572553 230.359 0.567554 230.635 0.550012C230.93 0.532471 231.198 0.526205 231.427 0.595117C231.475 0.610152 231.544 0.631441 231.6 0.630188C231.816 0.625176 232.028 0.61265 232.24 0.602627C232.452 0.592603 232.669 0.582581 232.88 0.572557C233.127 0.603881 233.283 0.694092 233.629 0.665274C233.837 0.647733 234.057 0.643974 234.269 0.633951C234.481 0.623927 234.697 0.612652 234.909 0.603881C234.978 0.601375 235.056 0.595107 235.117 0.600118C235.182 0.60513 235.238 0.622675 235.294 0.635205C235.467 0.67154 235.627 0.70788 235.874 0.68658C236.082 0.669039 236.302 0.665279 236.514 0.654002C236.804 0.64022 236.804 0.640222 237.284 0.719158C237.479 0.751735 237.699 0.709136 237.885 0.736701C238.011 0.755495 238.119 0.786813 238.24 0.808113C238.292 0.816883 238.374 0.820637 238.435 0.818131C238.72 0.806854 239.01 0.795583 239.291 0.776789C239.52 0.761754 239.711 0.776787 239.871 0.821893C239.988 0.85447 240.104 0.86826 240.251 0.860742C240.965 0.82566 241.679 0.795579 242.388 0.756737C242.631 0.742955 242.825 0.764261 242.959 0.809367C243.189 0.88705 243.513 0.795586 243.751 0.858234C243.898 0.897076 244.045 0.942184 244.313 0.92339C244.806 0.890813 245.308 0.873262 245.806 0.850709C245.983 0.884539 246.16 0.918376 246.342 0.952205C246.627 0.938423 246.913 0.924632 247.198 0.912102C247.41 0.902079 247.627 0.890803 247.839 0.882033C247.908 0.879527 247.981 0.874514 248.046 0.880779C248.111 0.887043 248.163 0.903335 248.224 0.915865C248.522 0.97726 248.522 0.978519 249.015 0.95346C249.227 0.942183 249.431 0.934665 249.608 0.984783C249.772 1.03114 249.967 1.03991 250.192 1.02613C250.616 1.00107 251.044 0.982273 251.477 0.964732C251.611 0.958467 251.736 0.979768 251.849 1.01234C252.017 1.06372 252.225 1.05871 252.437 1.04492C252.718 1.02738 252.995 1.00984 253.233 1.08001C253.28 1.09504 253.354 1.11633 253.406 1.11508C253.76 1.10506 254.12 1.09754 254.466 1.07374C254.812 1.04993 254.98 1.12761 255.218 1.1652C255.573 1.14891 255.932 1.13262 256.287 1.11633C256.356 1.11258 256.438 1.10131 256.499 1.10757C256.754 1.13388 256.901 1.22785 257.251 1.19903C257.455 1.18275 257.675 1.17774 257.887 1.17398C257.943 1.17273 258.017 1.19402 258.056 1.21031C258.078 1.21908 258.056 1.24288 258.03 1.25541C257.952 1.29049 257.857 1.32308 257.788 1.35942C257.779 1.36443 257.861 1.38697 257.909 1.39699C258.026 1.41955 258.16 1.4158 258.315 1.40577C258.449 1.397 258.588 1.41454 258.683 1.45213C258.722 1.46717 258.709 1.49222 258.627 1.57492C258.627 1.63631 258.718 1.60874 258.748 1.56865C258.796 1.51101 258.705 1.49222 258.532 1.52354C258.411 1.5461 258.35 1.57868 258.38 1.60499C258.398 1.61877 258.48 1.63631 258.627 1.57492C259.007 1.49974 259.293 1.48597 259.579 1.47218C259.652 1.46843 259.739 1.45589 259.79 1.4634C259.976 1.49348 260.15 1.52982 260.331 1.56365C260.539 1.55613 260.733 1.53733 260.937 1.58619C261.222 1.6551 261.235 1.64884 261.512 1.63506C261.655 1.62754 261.798 1.62129 261.94 1.61502C262.083 1.60876 262.195 1.62755 262.321 1.65636C262.576 1.71525 262.598 1.71525 262.766 1.63506C262.866 1.58619 262.935 1.56991 263.061 1.59246C263.476 1.66889 263.48 1.6739 263.835 1.65135C264.129 1.63255 264.406 1.62754 264.622 1.69896C264.769 1.74908 264.817 1.7378 264.934 1.68518C265.245 1.5461 265.388 1.5486 265.972 1.64884C266.244 1.69645 266.526 1.64509 266.802 1.63882C267.036 1.63381 267.2 1.66387 267.218 1.74281C267.231 1.79168 267.27 1.82676 267.425 1.84305C267.486 1.84932 267.559 1.85809 267.62 1.85558C267.979 1.84054 268.334 1.823 268.693 1.80546C268.874 1.79669 268.974 1.73781 268.939 1.66013C268.9 1.57743 268.969 1.54735 269.229 1.52354C269.385 1.50976 269.51 1.51228 269.636 1.53483C269.774 1.55989 269.735 1.58244 269.614 1.62755C269.324 1.73781 269.359 1.80546 269.731 1.88189C269.861 1.9082 269.964 1.93202 269.995 1.97086C270.012 1.9909 269.995 2.01721 270.034 2.03225C270.246 2.1162 270.54 2.17008 270.868 2.21018C271.184 2.17635 271.401 2.23272 271.643 2.27782C271.833 2.31291 272.058 2.28284 272.261 2.27031C272.491 2.25653 272.681 2.26655 272.845 2.31291C272.962 2.34549 273.083 2.36052 273.226 2.35425C273.511 2.34047 273.801 2.3317 274.082 2.31166C274.325 2.29411 274.506 2.31918 274.658 2.36178C274.848 2.41565 275.06 2.37931 275.259 2.38683C275.527 2.3956 275.661 2.50711 276.012 2.47704C276.219 2.4595 276.436 2.45324 276.652 2.44822C276.708 2.44697 276.777 2.46827 276.825 2.48331C277.054 2.55222 277.322 2.54846 277.617 2.52841C277.82 2.51463 278.019 2.50211 278.218 2.54972C278.546 2.62991 278.91 2.70008 279.256 2.774C279.304 2.83164 279.269 2.89929 279.515 2.93312C279.645 2.95066 279.766 2.97698 279.866 3.0058C279.987 3.03963 280.099 3.0484 280.255 3.03963C280.536 3.02209 280.831 3.01832 281.107 2.99576C281.363 2.97572 281.523 3.01708 281.678 3.05592C281.804 3.08724 281.921 3.10227 282.072 3.07972C282.228 3.05842 282.34 3.07219 282.466 3.10602C282.643 3.15238 282.656 3.14738 283.244 3.16116C283.305 3.16241 283.378 3.1812 283.413 3.19749C283.43 3.20626 283.391 3.23133 283.361 3.24386C283.322 3.2589 283.261 3.27643 283.205 3.28019C282.565 3.31276 281.921 3.34158 281.28 3.37416C281.215 3.37792 281.146 3.3867 281.099 3.39923C281.047 3.41301 280.982 3.43179 280.982 3.44933C280.982 3.46186 281.068 3.4769 281.129 3.48567C281.319 3.51449 281.544 3.47064 281.73 3.50322C281.856 3.52452 281.959 3.55458 282.085 3.57463C282.137 3.5834 282.219 3.58215 282.284 3.57964C282.5 3.57087 282.712 3.55835 282.928 3.55083C282.989 3.54958 283.058 3.56211 283.114 3.57213C283.53 3.64731 283.53 3.64731 283.889 3.63102C284.031 3.62475 284.183 3.60596 284.317 3.61348C284.447 3.62099 284.559 3.65482 284.676 3.67612C284.918 3.72123 285.147 3.76508 285.165 3.86281C285.173 3.9004 285.316 3.93297 285.459 3.93548C285.597 3.93798 285.744 3.92421 285.887 3.9167C286.225 3.90166 286.225 3.90166 286.661 3.97809C286.783 3.99939 286.912 4.00189 287.068 3.98936C287.129 3.98435 287.202 3.98937 287.267 3.99563C287.479 4.01443 287.479 4.03823 287.341 4.08333C287.146 4.14974 287.163 4.15601 287.708 4.21239C287.916 4.23369 288.076 4.27379 288.249 4.30887C288.53 4.36525 288.526 4.36524 288.34 4.43917C288.297 4.45546 288.258 4.473 288.214 4.49054C288.089 4.53941 287.989 4.59203 287.73 4.59704C287.444 4.60205 287.159 4.62211 286.873 4.63589C286.597 4.64967 286.523 4.67973 286.549 4.76493C286.579 4.86767 286.635 4.87895 287.133 4.8777C287.276 4.8777 287.401 4.88772 287.509 4.92155C287.457 4.96165 287.362 4.99297 287.224 5.00049C286.869 5.01928 286.51 5.03557 286.155 5.05186C285.87 5.06565 285.584 5.07942 285.299 5.09321C285.122 5.10198 285.009 5.16714 285.057 5.23981C285.083 5.28115 285.104 5.3225 285.126 5.36385C285.173 5.44654 285.264 5.46785 285.554 5.46409C285.628 5.46284 285.697 5.4528 285.766 5.45531C286.047 5.46408 286.181 5.56807 286.519 5.54677C286.8 5.52923 287.094 5.52548 287.371 5.50292C287.626 5.48288 287.769 5.52799 287.946 5.56182C288.007 5.5731 288.072 5.59689 288.124 5.59564C288.483 5.58186 288.842 5.56809 289.192 5.54428C289.356 5.53426 289.456 5.54177 289.586 5.57184C289.897 5.64451 289.906 5.64075 290.369 5.6182C290.706 5.60066 290.71 5.60316 291.143 5.67959C291.264 5.70089 291.394 5.70089 291.549 5.69087C291.753 5.67834 291.965 5.65829 292.177 5.67709C292.242 5.6821 292.324 5.69714 292.345 5.71343C292.358 5.7247 292.298 5.75227 292.246 5.76104C291.865 5.82619 291.42 5.81492 291.004 5.84123C290.875 5.84875 290.745 5.82494 290.637 5.79111C290.524 5.75728 290.403 5.7435 290.256 5.74977C289.971 5.76355 289.681 5.77232 289.4 5.79236C289.157 5.8099 288.989 5.78108 288.82 5.74224C288.764 5.72971 288.699 5.7059 288.643 5.70716C288.002 5.73221 287.358 5.75728 286.722 5.79236C286.467 5.8074 286.32 5.76731 286.147 5.73348C286.086 5.7222 286.026 5.69839 285.969 5.69965C285.753 5.70466 285.541 5.71844 285.325 5.72846C284.538 5.76605 283.755 5.80364 282.967 5.83872C282.915 5.84123 282.851 5.81491 282.79 5.80364C282.673 5.78108 282.552 5.75978 282.431 5.73848C282.215 5.7485 282.003 5.76103 281.786 5.76855C281.631 5.77356 281.492 5.79111 281.471 5.83872C281.458 5.87005 281.6 5.89886 281.752 5.89635C281.899 5.89385 282.046 5.87881 282.167 5.8951C282.768 5.97529 282.768 5.97654 283.145 5.96025C283.473 5.94522 283.439 5.93268 283.729 6.0016C283.854 6.03167 283.967 6.04922 284.109 6.0417C284.464 6.02416 284.823 6.00661 285.182 5.99158C285.238 5.98907 285.312 6.00161 285.368 6.01163C285.792 6.08681 285.792 6.08931 286.142 6.07051C286.601 6.04796 286.618 6.0417 286.925 6.11813C287.137 6.17075 287.332 6.13441 287.535 6.13191C287.769 6.18077 288.024 6.22463 288.236 6.27976C288.487 6.34492 288.751 6.33363 289.036 6.31483C289.248 6.30105 289.456 6.29604 289.629 6.34741C289.793 6.39502 289.992 6.40004 290.217 6.38752C290.42 6.37624 290.628 6.35243 290.84 6.37999C290.896 6.38751 290.983 6.40631 290.978 6.41758C290.974 6.43513 290.918 6.46019 290.862 6.46771C290.464 6.51908 290.027 6.51782 289.607 6.54163C289.551 6.54538 289.477 6.5316 289.421 6.52157C289.3 6.49902 289.183 6.47271 289.066 6.44891C288.855 6.45643 288.638 6.45893 288.431 6.47396C288.271 6.48524 288.149 6.484 288.033 6.45393C287.924 6.42636 287.808 6.39252 287.678 6.38375C287.548 6.37498 287.397 6.39378 287.254 6.4013C287.111 6.40881 286.947 6.40505 286.835 6.42509C286.722 6.44514 286.653 6.489 286.579 6.52408C286.497 6.56292 286.385 6.57546 286.22 6.57922C286.069 6.58298 285.948 6.57796 285.835 6.54288C285.788 6.52784 285.723 6.51656 285.658 6.50654C285.597 6.49777 285.528 6.48398 285.472 6.48649C284.827 6.51531 284.187 6.54664 283.543 6.57671C283.223 6.59175 283.227 6.59174 282.561 6.51781C282.5 6.51155 282.427 6.50278 282.366 6.50529C282.007 6.52032 281.652 6.53787 281.293 6.55541C280.93 6.57295 280.934 6.57044 280.316 6.49151C280.203 6.47647 280.039 6.49652 279.905 6.49401C279.624 6.48775 279.485 6.3825 279.156 6.40255C278.875 6.42009 278.581 6.42385 278.3 6.4464C278.045 6.46645 277.898 6.4226 277.725 6.38877C277.664 6.37749 277.599 6.35243 277.547 6.35494C276.903 6.3825 276.263 6.41383 275.406 6.41758C275.194 6.41758 275.289 6.4439 275.428 6.45267C275.627 6.46645 275.692 6.44014 275.583 6.39002C275.506 6.35494 275.393 6.33739 275.302 6.34616C275.255 6.35117 275.194 6.37498 275.406 6.41758C275.631 6.4652 275.618 6.4915 275.657 6.50654C275.752 6.54288 275.886 6.55791 276.025 6.5529C276.241 6.54413 276.453 6.5316 276.669 6.52408C276.73 6.52158 276.803 6.53035 276.86 6.54037C277.335 6.61805 277.34 6.62307 277.846 6.593C278.006 6.58423 278.123 6.58423 278.248 6.60804C278.421 6.64061 278.547 6.69573 278.81 6.67819C279.161 6.65439 279.52 6.64062 279.879 6.62683C279.935 6.62433 279.996 6.64688 280.06 6.6569C280.238 6.68697 280.368 6.74336 280.631 6.71955C280.835 6.70076 281.055 6.69573 281.272 6.69197C281.328 6.69072 281.414 6.71077 281.44 6.72706C281.492 6.75588 281.427 6.78972 281.28 6.81352C281.22 6.82355 281.138 6.82104 281.068 6.82479C280.783 6.83858 280.497 6.85361 280.212 6.86488C280.06 6.87115 279.918 6.88995 279.9 6.93631C279.887 6.96763 280.043 6.99519 280.19 6.99269C280.407 6.98893 280.623 6.9789 280.83 6.96262C281.198 6.93505 281.518 6.94257 281.817 7.0215C282.029 7.07663 282.016 7.05659 282.241 7.21948C282.297 7.26083 282.466 7.26458 282.613 7.26207C282.967 7.25581 283.132 7.27461 283.101 7.31345C283.062 7.36106 282.937 7.37609 282.777 7.38235C282.491 7.39238 282.206 7.40867 281.921 7.42246C281.851 7.42621 281.773 7.43373 281.709 7.43122C281.644 7.42871 281.583 7.41368 281.527 7.4024C281.406 7.3786 281.302 7.34226 281.172 7.33349C281.042 7.32471 280.891 7.34351 280.748 7.35103C280.606 7.35729 280.454 7.37609 280.324 7.36732C280.195 7.35855 280.086 7.32097 279.97 7.29841C279.913 7.28714 279.844 7.26959 279.788 7.27084C279.503 7.28086 279.217 7.29716 278.932 7.30969C278.581 7.32597 278.581 7.32598 278.157 7.24829C278.036 7.22574 277.911 7.227 277.751 7.23702C277.405 7.25707 277.4 7.2533 276.769 7.18063C276.708 7.17311 276.635 7.16434 276.574 7.1681C275.929 7.19692 275.289 7.22824 274.649 7.25831C274.1 7.28462 274.1 7.28463 273.797 7.40993C273.572 7.50265 273.568 7.50264 273.788 7.54524C273.966 7.58033 274.126 7.63169 274.32 7.65049C274.502 7.66803 274.727 7.61165 274.926 7.66928C275.025 7.6981 275.155 7.72943 275.281 7.73444C275.48 7.7407 275.692 7.70436 275.882 7.75949C275.977 7.78706 276.12 7.81589 276.241 7.81714C276.453 7.81964 276.669 7.79959 276.881 7.79082C276.946 7.78831 277.02 7.78831 277.08 7.79458C277.145 7.8021 277.201 7.81714 277.257 7.82967C277.43 7.87227 277.617 7.89231 277.841 7.87101C278.209 7.83592 278.538 7.85347 278.823 7.93365C278.862 7.94493 278.957 7.94619 279.018 7.94118C279.174 7.92865 279.308 7.92739 279.425 7.9512C279.472 7.96122 279.541 7.97875 279.533 7.99003C279.52 8.00883 279.468 8.03389 279.412 8.04015C279.005 8.08275 278.568 8.08777 278.149 8.11032C278.092 8.11283 278.023 8.09653 277.967 8.08526C277.846 8.0627 277.742 8.02512 277.612 8.01635C277.482 8.00758 277.331 8.02387 277.188 8.03013C277.046 8.0364 276.894 8.0552 276.764 8.04768C276.635 8.03891 276.513 8.00758 276.41 7.98001C276.289 7.94869 276.172 7.94494 276.012 7.95747C275.804 7.97376 275.588 7.97626 275.376 7.98503C275.259 7.96122 275.142 7.9349 275.021 7.91235C274.965 7.90107 274.896 7.8873 274.835 7.88855C274.55 7.89857 274.264 7.9136 273.979 7.92738C273.693 7.94117 273.693 7.94118 273.209 7.8635C273.152 7.85473 273.079 7.8447 273.018 7.84721C272.659 7.86224 272.305 7.88102 271.946 7.89606C271.807 7.90232 271.682 7.88479 271.569 7.85096C271.461 7.81713 271.331 7.79833 271.197 7.8046C270.626 7.83091 270.055 7.85597 269.484 7.8873C269.255 7.89983 269.06 7.88855 268.905 7.84345C268.723 7.79207 268.52 7.80461 268.308 7.81463C267.828 7.83969 267.823 7.83843 267.516 7.77453C267.455 7.762 267.395 7.73819 267.339 7.73944C266.841 7.75824 266.34 7.77578 265.846 7.80585C265.587 7.82214 265.448 7.77829 265.275 7.74571C265.215 7.73444 265.15 7.71063 265.098 7.71313C264.739 7.72692 264.38 7.73945 264.03 7.76451C263.679 7.78957 263.545 7.67305 263.281 7.6743C262.922 7.67555 262.567 7.70437 262.213 7.72191C261.927 7.7357 261.642 7.74947 261.356 7.76326C261.071 7.77704 260.785 7.78831 260.5 7.8046C260.348 7.81337 260.236 7.80209 260.111 7.77076C259.951 7.72942 259.76 7.69685 259.587 7.65927C259.323 7.60539 259.323 7.60538 259.003 7.62042C258.934 7.62418 258.86 7.62668 258.791 7.63043C258.268 7.658 258.268 7.6555 257.602 7.57657C257.571 7.57281 257.493 7.58659 257.463 7.59662C257.372 7.62919 257.29 7.66427 257.208 7.6981C257.091 7.67805 256.949 7.66678 256.871 7.63796C256.65 7.55652 256.304 7.66803 256.079 7.58784C255.997 7.55777 255.854 7.53145 255.724 7.52394C255.59 7.51642 255.439 7.53396 255.3 7.54148C254.941 7.56027 254.941 7.55902 254.634 7.67054C254.479 7.72567 254.254 7.71564 254.05 7.72817C253.838 7.74195 253.635 7.74947 253.458 7.6981C253.298 7.65174 253.103 7.64047 252.874 7.6555C252.593 7.6743 252.303 7.68557 252.017 7.69685C251.957 7.69935 251.883 7.69309 251.823 7.68557C251.161 7.61165 251.161 7.6104 250.841 7.62669C250.698 7.63421 250.551 7.6367 250.412 7.64798C250.179 7.66803 250.002 7.64171 249.833 7.60162C249.777 7.58909 249.712 7.5653 249.655 7.56655C249.37 7.57281 249.089 7.58409 248.808 7.59536C248.591 7.60413 248.375 7.60915 248.167 7.62669C247.821 7.65551 247.653 7.57405 247.415 7.53646C247.06 7.55275 246.701 7.56403 246.346 7.58658C246.182 7.59661 246.074 7.59286 245.948 7.56279C245.788 7.5252 245.641 7.4826 245.382 7.50139C245.036 7.52645 244.672 7.53522 244.318 7.55026C244.08 7.51142 243.907 7.43247 243.565 7.46129C243.357 7.47883 243.137 7.48259 242.925 7.49261C242.639 7.5064 242.354 7.51893 242.068 7.53397C241.761 7.54901 241.765 7.54525 241.294 7.47132C241.021 7.42747 240.74 7.47633 240.463 7.48385C240.247 7.49011 240.139 7.54775 240.191 7.62167C240.243 7.6956 240.126 7.75323 239.927 7.76326C239.43 7.78706 238.928 7.81211 238.43 7.83341C238.37 7.83592 238.296 7.82715 238.24 7.81838C237.708 7.73944 237.708 7.74071 237.47 7.75198C237.115 7.77078 236.752 7.78079 236.402 7.8046C236.159 7.82089 235.982 7.79458 235.826 7.75198C235.705 7.71941 235.593 7.71189 235.437 7.7194C233.724 7.80335 232.011 7.88103 230.302 7.96749C230.047 7.98002 229.9 7.94369 229.727 7.90986C229.667 7.89858 229.61 7.87477 229.55 7.87477C229.407 7.87477 229.264 7.88605 229.121 7.89357C228.481 7.92364 227.841 7.95997 227.197 7.98252C226.924 7.99255 226.851 8.05019 226.734 8.0978C226.643 8.13413 226.539 8.14916 226.379 8.15418C226.223 8.15919 226.111 8.15292 225.99 8.12034C225.834 8.07774 225.657 8.05143 225.414 8.06897C225.133 8.08902 224.848 8.0978 224.558 8.11158C224.411 8.11784 224.298 8.14039 224.251 8.1855C224.242 8.19302 224.333 8.21182 224.385 8.22309C224.558 8.26068 224.722 8.30453 224.917 8.33085C225.116 8.35716 225.332 8.32708 225.54 8.31956C225.613 8.31705 225.683 8.30954 225.752 8.31079C225.817 8.31205 225.895 8.31832 225.942 8.32959C226.167 8.38597 226.405 8.42482 226.716 8.39099C226.985 8.40727 227.123 8.51127 227.465 8.4837C227.672 8.46741 227.889 8.4599 228.105 8.45363C228.161 8.45238 228.222 8.47493 228.282 8.48621C228.455 8.51753 228.594 8.56765 228.853 8.54635C229.13 8.5238 229.424 8.52004 229.705 8.5025C229.861 8.49248 229.974 8.50125 230.095 8.53382C230.25 8.57517 230.428 8.60649 230.67 8.58644C230.878 8.5689 231.098 8.56514 231.31 8.55386C231.587 8.54008 231.587 8.54133 232.08 8.61902C232.137 8.62779 232.21 8.63781 232.271 8.6353C232.63 8.62027 232.984 8.60147 233.343 8.58644C233.482 8.58017 233.616 8.59646 233.711 8.6328C233.75 8.64783 233.737 8.6729 233.75 8.69421C233.036 8.72803 232.322 8.75685 231.613 8.79819C231.345 8.81448 231.224 8.76311 231.046 8.73429C230.986 8.72427 230.921 8.70297 230.865 8.70548C230.363 8.72678 229.866 8.74932 229.368 8.77689C229.212 8.78566 229.096 8.78065 228.979 8.74431C228.68 8.64783 228.317 8.70046 227.98 8.71424C227.72 8.72427 227.638 8.76311 227.668 8.84581C227.707 8.94354 227.863 8.97361 228.261 8.95607C228.403 8.9498 228.546 8.94103 228.689 8.93602C228.827 8.931 228.953 8.94729 229.065 8.98112C229.173 9.01495 229.303 9.03249 229.437 9.02748C229.723 9.0162 230.013 9.00493 230.289 8.98614C230.519 8.9711 230.709 8.98363 230.869 9.02999C231.046 9.08136 231.254 9.07008 231.462 9.0588C231.946 9.03374 231.95 9.035 232.253 9.09765C232.314 9.11018 232.374 9.13399 232.431 9.13274C232.928 9.11394 233.43 9.09765 233.919 9.06758C234.174 9.05255 234.321 9.09264 234.49 9.12521C234.55 9.13649 234.611 9.16155 234.667 9.15905C235.026 9.14526 235.385 9.13148 235.735 9.10767C235.9 9.09639 235.999 9.10391 236.133 9.13398C236.453 9.2079 236.462 9.2054 236.916 9.18159C237.055 9.17407 237.206 9.16029 237.336 9.17032C237.466 9.18034 237.57 9.21668 237.691 9.23924C237.747 9.24926 237.816 9.26303 237.877 9.26053C238.162 9.2505 238.448 9.23548 238.733 9.22169C239.001 9.20791 239.001 9.20917 239.503 9.28685C239.706 9.31943 239.918 9.29186 240.122 9.28183C240.342 9.27056 240.541 9.27056 240.71 9.31943C240.879 9.36829 241.082 9.36578 241.298 9.35575C241.502 9.34573 241.709 9.31818 241.917 9.35201C242.393 9.42969 242.393 9.43093 242.687 9.41589C243.115 9.39459 243.539 9.37455 243.972 9.35575C244.028 9.35325 244.101 9.36829 244.157 9.37831C244.279 9.40087 244.382 9.43845 244.512 9.44722C244.642 9.45724 244.793 9.44221 244.932 9.43469C245.377 9.41088 245.408 9.40212 245.706 9.48481C245.957 9.55247 246.268 9.45474 246.502 9.53242C246.636 9.57628 246.818 9.61135 247.069 9.59005C247.276 9.57251 247.493 9.5675 247.709 9.55748C248.051 9.54119 248.051 9.54245 248.483 9.61763C248.539 9.62765 248.613 9.64017 248.669 9.63767C248.955 9.62764 249.245 9.61888 249.521 9.59632C249.846 9.57001 250.053 9.61763 250.296 9.66399C250.486 9.70033 250.711 9.67025 250.914 9.65772C251.135 9.64519 251.334 9.64894 251.498 9.69781C251.671 9.74792 251.874 9.74166 252.091 9.73164C252.294 9.72287 252.502 9.69405 252.709 9.72913C253.155 9.80681 253.155 9.80681 253.479 9.79178C253.765 9.778 254.05 9.76297 254.336 9.75294C254.392 9.75044 254.461 9.76672 254.517 9.778C254.639 9.80055 254.742 9.83815 254.872 9.84692C255.002 9.85569 255.153 9.8394 255.296 9.83313C255.439 9.82687 255.59 9.80807 255.72 9.81559C255.85 9.82311 255.971 9.85444 256.075 9.882C256.196 9.91458 256.308 9.91833 256.473 9.9058C256.68 9.88951 256.897 9.88576 257.108 9.87699C257.225 9.90079 257.346 9.92459 257.459 9.95091C257.576 9.97847 257.701 9.97596 257.861 9.96719C258.393 9.93712 258.398 9.94089 258.843 10.0186C259.046 10.0537 259.258 10.0248 259.462 10.0161C259.678 10.006 259.881 10.001 260.05 10.0511C260.214 10.0988 260.418 10.105 260.634 10.09C260.772 10.08 260.919 10.0737 261.062 10.0699C261.127 10.0687 261.205 10.0737 261.253 10.0837C261.482 10.1363 261.707 10.184 262.022 10.1501C262.299 10.1602 262.438 10.2629 262.771 10.2429C263.052 10.2253 263.346 10.2215 263.623 10.199C263.878 10.1789 264.06 10.214 264.19 10.2579C264.423 10.3356 264.752 10.2303 264.986 10.3068C265.12 10.3506 265.293 10.3857 265.552 10.3669C265.838 10.3468 265.929 10.3732 266.011 10.4521C266.058 10.4972 266.05 10.5335 265.963 10.5686C265.877 10.605 265.782 10.5987 265.643 10.5573C265.483 10.511 265.293 10.5022 265.063 10.5122C264.839 10.5222 264.7 10.4571 264.514 10.4321C264.328 10.4057 264.108 10.4496 263.913 10.4158C263.454 10.3368 263.454 10.3368 263.143 10.3519C262.931 10.3619 262.71 10.3669 262.503 10.3844C262.256 10.4057 262.096 10.3669 261.927 10.3318C261.867 10.3193 261.806 10.2955 261.754 10.2967C261.257 10.3155 260.755 10.3331 260.262 10.3644C260.002 10.3807 259.864 10.3356 259.691 10.3042C259.63 10.293 259.565 10.2704 259.514 10.2729C259.085 10.2905 258.661 10.313 258.233 10.3343C258.151 10.3681 258.06 10.4007 257.982 10.4371C257.9 10.4746 257.788 10.4909 257.623 10.4897C257.351 10.4897 257.083 10.5423 256.81 10.4759C256.529 10.4082 256.507 10.412 256.235 10.4283C255.889 10.4496 255.521 10.4446 255.197 10.4934C255.14 10.5022 255.08 10.526 255.08 10.5435C255.075 10.5548 255.166 10.5711 255.223 10.5811C255.413 10.6112 255.633 10.5674 255.824 10.5987C255.949 10.6187 256.053 10.6488 256.178 10.6701C256.23 10.6789 256.308 10.6776 256.377 10.6764C256.451 10.6751 256.52 10.6664 256.589 10.6676C256.654 10.6689 256.724 10.6764 256.776 10.6876C257.013 10.7353 257.264 10.7791 257.476 10.8355C257.684 10.8906 257.878 10.853 258.086 10.8505C258.917 10.9382 258.917 10.9395 259.475 10.9119C259.613 10.9057 259.756 10.8981 259.899 10.8994C259.959 10.8994 260.015 10.9219 260.076 10.9345C260.249 10.9721 260.413 11.0059 260.656 10.9858C260.863 10.9683 261.084 10.9645 261.296 10.9533C261.581 10.9395 261.581 10.9395 262.066 11.0184C262.187 11.0385 262.317 11.036 262.472 11.0259C262.606 11.0172 262.745 11.036 262.84 11.0723C262.879 11.0873 262.866 11.1124 262.879 11.1337C262.451 11.1537 262.018 11.1675 261.603 11.1976C261.335 11.2164 261.214 11.1625 261.036 11.1337C260.976 11.1237 260.911 11.1024 260.855 11.1049C260.431 11.1237 260.007 11.145 259.583 11.17C259.531 11.1725 259.466 11.2014 259.462 11.2189C259.453 11.2515 259.561 11.2828 259.717 11.2815C259.924 11.2803 260.128 11.259 260.314 11.3104C260.47 11.3555 260.664 11.3755 260.893 11.3555C261.032 11.3442 261.179 11.3442 261.317 11.3342C261.685 11.3041 262.018 11.3104 262.295 11.3956C262.507 11.4181 262.715 11.3968 262.918 11.3855C263.069 11.3768 263.216 11.368 263.324 11.3918C263.554 11.4419 263.779 11.492 264.094 11.4582C264.436 11.4933 264.696 11.5672 264.981 11.6274C265.115 11.6562 265.219 11.6725 265.375 11.6537C265.44 11.6462 265.518 11.6462 265.587 11.6424C265.73 11.6361 265.881 11.6173 266.011 11.6248C266.141 11.6336 266.249 11.67 266.365 11.6925C266.422 11.7038 266.487 11.7226 266.543 11.7213C266.759 11.7151 266.971 11.7025 267.183 11.6925C267.395 11.6837 267.607 11.675 267.819 11.6662C267.996 11.6988 268.178 11.7314 268.355 11.7639C268.641 11.7502 268.926 11.7364 269.207 11.7238C269.523 11.7088 269.523 11.7101 269.977 11.7877C270.181 11.8228 270.397 11.8003 270.592 11.784C270.916 11.7577 271.132 11.8053 271.362 11.8554C271.409 11.8654 271.496 11.8717 271.552 11.8667C271.777 11.8491 271.971 11.8629 272.136 11.9093C272.253 11.9418 272.369 11.9569 272.512 11.9506C273.01 11.9268 273.507 11.9018 274.005 11.8805C274.065 11.8779 274.134 11.8892 274.191 11.8993C274.632 11.9757 274.636 11.9794 274.96 11.9594C275.25 11.9419 275.519 11.9343 275.748 12.0032C275.795 12.0183 275.869 12.0396 275.921 12.0383C276.275 12.0258 276.635 12.012 276.985 11.9907C277.145 11.9807 277.257 11.9845 277.383 12.0133C277.543 12.0496 277.686 12.0935 277.95 12.0772C278.681 12.0308 278.685 12.0383 279.55 12.1248C279.611 12.131 279.693 12.121 279.762 12.116C279.909 12.1035 280.017 12.121 280.147 12.1498C280.437 12.215 280.445 12.2112 280.722 12.1975C280.934 12.1862 281.155 12.1837 281.362 12.1649C281.683 12.1373 281.895 12.1862 282.132 12.2325C282.323 12.2689 282.543 12.2388 282.747 12.2275C282.967 12.215 283.166 12.2187 283.331 12.2664C283.443 12.2989 283.564 12.3165 283.707 12.3102C284.204 12.2877 284.702 12.2626 285.199 12.2401C285.26 12.2375 285.333 12.2476 285.39 12.2563C285.883 12.334 285.883 12.3378 286.372 12.309C286.527 12.3002 286.657 12.2977 286.774 12.324C286.886 12.3491 287.008 12.3729 287.124 12.3967C287.336 12.3879 287.553 12.3854 287.76 12.3704C287.92 12.3591 288.033 12.3641 288.158 12.3904C288.322 12.4242 288.461 12.4831 288.72 12.4543C288.855 12.4405 289.01 12.4443 289.144 12.4318C289.304 12.4155 289.413 12.4255 289.538 12.4581C289.694 12.4969 289.854 12.537 290.105 12.517C290.381 12.4944 290.676 12.4906 290.957 12.4731C291.112 12.4631 291.221 12.4731 291.346 12.5057C291.502 12.547 291.679 12.5733 291.921 12.5571C292.415 12.5257 292.419 12.532 292.899 12.6109C293.02 12.631 293.15 12.6285 293.306 12.6184C293.44 12.6097 293.578 12.6285 293.673 12.6648C293.764 12.7049 293.755 12.73 293.764 12.7513ZM255.218 1.45088C255.075 1.45714 254.933 1.46466 254.725 1.35565C254.712 1.33686 254.721 1.31431 254.691 1.29802C254.621 1.26419 254.513 1.24039 254.383 1.23663C254.15 1.23162 253.869 1.27421 253.873 1.30679C253.877 1.33435 253.951 1.35815 254.094 1.38071C254.154 1.38948 254.202 1.40451 254.258 1.41454C254.422 1.44336 254.552 1.49975 254.79 1.47093C254.747 1.39325 254.768 1.43209 254.79 1.47093C254.768 1.51854 254.833 1.55237 254.989 1.56616C255.032 1.56991 255.097 1.5674 255.132 1.55988C255.266 1.53232 255.287 1.49474 255.188 1.39576C255.171 1.41204 255.184 1.44085 255.223 1.44837C255.261 1.45589 255.357 1.44963 255.404 1.44086C255.525 1.41705 255.586 1.38573 255.556 1.35942C255.538 1.34563 255.456 1.32809 255.404 1.32809C255.313 1.32809 255.231 1.35565 255.218 1.45088ZM290.195 15.9814C289.88 16.0052 289.516 15.9964 289.201 16.0453C289.144 16.054 289.088 16.0766 289.084 16.0941C289.079 16.1054 289.166 16.1217 289.218 16.1305C289.335 16.1505 289.464 16.1443 289.616 16.138C289.845 16.1292 289.979 16.1869 290.157 16.2157C290.213 16.2244 290.286 16.2307 290.347 16.2282C290.697 16.2132 291.043 16.1969 291.394 16.1793C291.454 16.1756 291.519 16.1668 291.571 16.1555C291.744 16.1192 291.727 16.0954 291.558 16.0678C291.372 16.0378 291.225 15.9876 291.035 15.9638C290.762 15.93 290.485 15.9751 290.195 15.9814ZM265.63 16.896C265.418 16.9061 265.21 16.9161 264.998 16.9261C264.929 16.9299 264.856 16.9311 264.791 16.9361C264.657 16.9449 264.557 16.9712 264.492 17.0125C264.592 17.0451 264.713 17.0639 264.847 17.0602C265.059 17.0526 265.267 17.0364 265.479 17.0326C265.708 17.0276 265.842 17.084 266.019 17.1128C266.076 17.1216 266.145 17.1228 266.21 17.1241C266.53 17.1291 266.724 17.0639 266.664 16.9725C266.621 16.901 266.456 16.8584 266.257 16.8672C266.05 16.876 265.838 16.886 265.63 16.896ZM291.675 14.1295C291.727 14.1082 291.783 14.0932 291.809 14.0744C291.887 14.0105 291.857 13.9629 291.714 13.9127C291.541 13.8513 291.329 13.8927 291.134 13.899C291.087 13.9002 291.035 13.9265 291.009 13.9428C290.991 13.9541 290.991 13.9779 291.017 13.9842C291.229 14.0343 291.454 14.0806 291.675 14.1295ZM254.15 10.4283C253.942 10.4383 253.73 10.4458 253.523 10.4596C253.471 10.4634 253.423 10.4872 253.393 10.5035C253.337 10.5335 253.397 10.5749 253.574 10.5786C253.778 10.5836 253.99 10.5624 254.202 10.5523C254.47 10.5398 254.63 10.4934 254.53 10.4533C254.435 10.4145 254.306 10.407 254.15 10.4283ZM26.4514 7.75073C26.5898 7.74446 26.7325 7.73945 26.8709 7.73068C27.0007 7.72191 27.1003 7.69434 27.1652 7.65299C27.057 7.62042 26.9359 7.60288 26.8018 7.60664C26.5898 7.61415 26.3822 7.62418 26.1746 7.63671C26.0448 7.64422 25.9194 7.67179 25.8891 7.71439C25.8588 7.74696 26.1486 7.76576 26.4514 7.75073ZM235.857 7.55777C235.913 7.56905 235.969 7.5916 236.025 7.5916C236.164 7.5916 236.306 7.58408 236.436 7.57155C236.492 7.56654 236.536 7.54399 236.562 7.52645C236.579 7.51517 236.575 7.49513 236.549 7.4851C236.423 7.42496 235.921 7.44626 235.839 7.51517C235.831 7.5277 235.852 7.54399 235.857 7.55777ZM222.209 0.696598C222.222 0.716645 222.226 0.73669 222.244 0.756737C222.278 0.794326 222.373 0.821896 222.512 0.840691C222.62 0.809367 222.676 0.77429 222.672 0.736701C222.668 0.716654 222.655 0.696594 222.637 0.676547C222.603 0.638958 222.508 0.611403 222.369 0.592609C222.261 0.622679 222.209 0.657757 222.209 0.696598ZM301.671 17.114C301.633 17.1303 301.594 17.1466 301.55 17.1617C301.667 17.198 301.775 17.2093 301.858 17.1892C301.909 17.1767 301.94 17.1579 301.979 17.1416C301.862 17.1053 301.758 17.0952 301.671 17.114ZM298.981 17.2844C299.037 17.2957 299.089 17.3108 299.15 17.3183C299.249 17.3308 299.34 17.3095 299.409 17.2644C299.353 17.2531 299.301 17.2381 299.24 17.2306C299.141 17.218 299.05 17.2393 298.981 17.2844ZM300.685 17.0552C300.655 17.0852 300.716 17.1103 300.876 17.1316C300.915 17.1153 300.966 17.1003 300.992 17.0827C301.036 17.0539 300.962 17.0276 300.806 17.0075C300.763 17.0226 300.724 17.0389 300.685 17.0552ZM291.554 15.7045C291.523 15.7345 291.584 15.7596 291.744 15.7809C291.783 15.7646 291.835 15.7496 291.861 15.732C291.904 15.7032 291.831 15.6769 291.675 15.6569C291.632 15.6719 291.593 15.6882 291.554 15.7045ZM279.113 6.83858C279.074 6.85486 279.035 6.87115 278.992 6.88619C279.109 6.92252 279.217 6.9338 279.299 6.91375C279.351 6.90122 279.381 6.88242 279.42 6.86614C279.303 6.8298 279.2 6.81978 279.113 6.83858ZM267.196 2.13499C267.3 2.14376 267.386 2.12622 267.46 2.07986C267.404 2.06859 267.352 2.05355 267.291 2.04603C267.192 2.0335 267.101 2.05481 267.032 2.09991C267.088 2.11244 267.144 2.12371 267.196 2.13499ZM260.868 1.84054C260.829 1.85683 260.79 1.87312 260.746 1.88816C260.863 1.92449 260.971 1.93577 261.054 1.91572C261.105 1.90319 261.136 1.88439 261.175 1.86811C261.058 1.83177 260.954 1.823 260.868 1.84054ZM217.953 0.695344C217.914 0.711632 217.875 0.727921 217.832 0.742957C217.948 0.779292 218.057 0.790565 218.139 0.770518C218.191 0.757989 218.221 0.739194 218.26 0.722905C218.143 0.68657 218.039 0.677803 217.953 0.695344ZM4.26937 10.8894C4.21314 10.8781 4.15695 10.8668 4.10505 10.8543C3.9796 10.8881 3.94068 10.9194 4.00989 10.9432C4.05315 10.9583 4.11799 10.9671 4.17422 10.9783C4.30399 10.9445 4.33426 10.9144 4.26937 10.8894Z" fill="#4F9CF9"/>
<path d="M29.3578 6.46497C28.8603 6.48877 28.3672 6.51884 27.8698 6.53387C27.6059 6.54139 27.5108 6.59527 27.4027 6.64539C27.3162 6.68548 27.2167 6.69801 27.0566 6.70553C25.707 6.76692 24.3617 6.83208 23.0164 6.89598C22.8477 6.87969 22.7655 6.85338 22.8045 6.82206C22.8261 6.80326 22.878 6.77695 22.9299 6.77444C23.8513 6.72808 24.7683 6.68047 25.694 6.64413C25.9578 6.63411 26.0314 6.57898 26.1655 6.53387C26.2088 6.51884 26.2434 6.49628 26.2996 6.48751C26.3559 6.47749 26.438 6.47875 26.5116 6.47624C27.9996 6.40482 29.4877 6.33466 30.9757 6.26324C31.1444 6.27953 31.2266 6.30584 31.1876 6.33716C31.166 6.35596 31.1141 6.38227 31.0622 6.38478C30.4912 6.41109 29.9244 6.4374 29.3578 6.46497Z" fill="#4F9CF9"/>
<path d="M301.728 13.1372C301.503 13.1522 301.218 13.1735 300.984 13.1009C300.872 13.0658 300.751 13.0545 300.604 13.062C300.392 13.0746 300.175 13.0846 299.959 13.0921C299.903 13.0933 299.829 13.0796 299.773 13.0683C299.652 13.0457 299.548 13.0081 299.418 12.9981C299.289 12.9881 299.133 13.0157 298.999 13.0094C298.821 13.0006 298.748 12.9668 298.795 12.9355C298.821 12.9179 298.873 12.8929 298.93 12.8891C299.73 12.8428 299.734 12.8428 299.959 12.8879C300.132 12.9229 300.292 12.9618 300.539 12.9405C300.746 12.9229 300.967 12.9192 301.179 12.9079C301.473 12.8929 301.473 12.8941 301.949 12.9731C302.07 12.9931 302.2 12.9919 302.355 12.9806C302.49 12.9718 302.619 12.9919 302.727 13.0257C302.658 13.0683 302.559 13.0958 302.425 13.1034C302.208 13.1159 301.996 13.1247 301.728 13.1372Z" fill="#4F9CF9"/>
<path d="M293.766 12.7512C294.311 12.7249 294.86 12.7024 295.405 12.6723C295.63 12.6598 295.807 12.6735 295.963 12.7161C296.132 12.7625 296.322 12.7587 296.53 12.75C296.66 12.745 296.785 12.765 296.872 12.8001C296.906 12.8139 296.897 12.8389 296.91 12.859C296.435 12.8815 295.954 12.9053 295.474 12.9254C295.418 12.9279 295.349 12.9154 295.297 12.9053C295.18 12.884 295.081 12.8464 294.955 12.8389C294.687 12.8214 294.419 12.8552 294.146 12.8615C294.017 12.864 293.891 12.8452 293.805 12.8114C293.77 12.7951 293.779 12.7713 293.766 12.7512Z" fill="#4F9CF9"/>
<path d="M96.7959 1.97828C97.3626 1.95072 97.9292 1.92442 98.4959 1.89685C98.6646 1.91439 98.7425 1.93945 98.7079 1.97077C98.6862 1.98956 98.6343 2.01588 98.5824 2.01838C97.4491 2.07477 96.3158 2.12864 95.1868 2.18251C95.0181 2.16497 94.9403 2.13992 94.9749 2.10859C94.9965 2.0898 95.0484 2.06349 95.1003 2.06098C95.6627 2.03216 96.2293 2.00585 96.7959 1.97828Z" fill="#4F9CF9"/>
<path d="M9.47787 8.94133C9.22266 8.94383 8.95452 8.99019 8.66903 8.95511C8.61279 8.94884 8.53491 8.92879 8.53924 8.91751C8.54789 8.89872 8.5998 8.87491 8.65604 8.86739C8.9026 8.83607 9.20975 8.83231 9.33519 8.7446C9.39575 8.6995 9.50822 8.68447 9.65962 8.6757C9.81967 8.66568 9.9321 8.66943 10.0575 8.69574C10.2219 8.72957 10.3604 8.79222 10.6199 8.75964C10.6329 8.77969 10.6631 8.80224 10.6501 8.82103C10.6371 8.83983 10.581 8.85737 10.5291 8.87115C10.4815 8.88368 10.4166 8.89496 10.356 8.89872C10.0705 8.91375 9.78499 8.92629 9.47787 8.94133Z" fill="#4F9CF9"/>
<path d="M234.447 8.68932C234.659 8.6793 234.88 8.67429 235.087 8.65675C235.252 8.64296 235.356 8.65173 235.485 8.6818C235.706 8.73442 235.719 8.72942 236.26 8.73694C236.32 8.73819 236.394 8.75697 236.428 8.77326C236.45 8.78203 236.42 8.80585 236.394 8.81838C236.355 8.83467 236.299 8.85596 236.247 8.85596C235.905 8.85972 235.559 8.93365 235.226 8.84845C235.057 8.80585 234.871 8.78579 234.642 8.80459C234.503 8.81586 234.356 8.82088 234.214 8.82589C234.075 8.8309 233.933 8.81712 233.846 8.77953C233.721 8.7244 233.794 8.70311 234.019 8.70687C234.162 8.70937 234.305 8.69559 234.447 8.68932Z" fill="#4F9CF9"/>
<path d="M312.843 17.326C313.116 17.3134 313.388 17.2984 313.665 17.2884C313.722 17.2859 313.791 17.2997 313.843 17.3084C314.05 17.346 314.02 17.4099 314.029 17.4663C314.033 17.5252 313.553 17.5728 313.35 17.5327C313.125 17.4876 312.921 17.4362 312.61 17.4638C312.489 17.4738 312.346 17.4513 312.268 17.4149C312.151 17.3623 312.216 17.341 312.437 17.3448C312.567 17.3473 312.705 17.3335 312.843 17.326Z" fill="#4F9CF9"/>
<path d="M175.514 0.271949C175.795 0.258166 176.076 0.236876 176.357 0.235624C176.522 0.234371 176.604 0.27571 176.565 0.305781C176.543 0.324575 176.491 0.350888 176.439 0.353394C175.877 0.383465 175.315 0.408528 174.752 0.436093C174.588 0.418552 174.506 0.392244 174.545 0.362173C174.566 0.343379 174.618 0.318319 174.67 0.31456C174.951 0.297019 175.232 0.285731 175.514 0.271949Z" fill="#4F9CF9"/>
<path d="M307.45 13.2476C307.722 13.2351 307.999 13.2163 308.272 13.21C308.414 13.2075 308.527 13.2363 308.544 13.2689C308.553 13.2839 308.484 13.3102 308.427 13.3165C308.038 13.3591 307.618 13.3641 307.212 13.3854C307.082 13.3917 306.944 13.3716 306.866 13.3365C306.749 13.2827 306.814 13.2626 307.035 13.2664C307.173 13.2676 307.311 13.2539 307.45 13.2476Z" fill="#4F9CF9"/>
<path d="M241.592 8.85839C241.731 8.85213 241.873 8.83584 242.007 8.84085C242.15 8.84711 242.241 8.88345 242.284 8.91978C242.332 8.96113 242.327 8.99998 242.284 9.03506C242.215 9.0952 242.146 9.0927 241.986 9.05261C241.739 8.98996 241.722 8.99747 241.233 8.99998C241.177 8.99998 241.108 8.98118 241.064 8.96489C240.999 8.93983 241.034 8.901 241.185 8.87844C241.298 8.86215 241.454 8.86466 241.592 8.85839Z" fill="#4F9CF9"/>
<path d="M297.315 12.8366C297.518 12.8266 297.721 12.8103 297.925 12.8103C298.067 12.8091 298.18 12.8379 298.193 12.8692C298.197 12.8843 298.132 12.9093 298.08 12.9168C297.834 12.9507 297.557 12.9532 297.289 12.9645C297.163 12.9695 297.025 12.9494 296.947 12.9143C296.83 12.8617 296.9 12.8379 297.111 12.8454C297.176 12.8479 297.246 12.8404 297.315 12.8366Z" fill="#4F9CF9"/>
<path d="M265.318 11.2993C265.015 11.3144 264.73 11.2956 264.751 11.263C264.781 11.2204 264.907 11.1928 265.037 11.1853C265.244 11.1728 265.452 11.1627 265.664 11.1552C265.798 11.1502 265.919 11.169 266.027 11.2016C265.962 11.2417 265.863 11.2705 265.733 11.2793C265.599 11.288 265.456 11.2931 265.318 11.2993Z" fill="#4F9CF9"/>
<path d="M263.334 11.1388C263.538 11.1287 263.741 11.1125 263.944 11.1125C264.087 11.1112 264.199 11.14 264.212 11.1714C264.217 11.1864 264.152 11.2114 264.1 11.219C263.853 11.2528 263.576 11.2553 263.308 11.2666C263.183 11.2716 263.044 11.2515 262.967 11.2165C262.85 11.1638 262.919 11.14 263.131 11.1476C263.196 11.1501 263.265 11.1425 263.334 11.1388Z" fill="#4F9CF9"/>
<path d="M239.139 8.84854C239.342 8.83852 239.546 8.82222 239.749 8.82096C239.892 8.81971 240.004 8.84854 240.017 8.87986C240.021 8.8949 239.957 8.9187 239.905 8.92748C239.658 8.96131 239.381 8.96381 239.113 8.97509C238.988 8.9801 238.849 8.96005 238.771 8.92497C238.654 8.87234 238.724 8.84853 238.936 8.85605C239 8.85855 239.07 8.85104 239.139 8.84854Z" fill="#4F9CF9"/>
<path d="M238.002 8.77459C238.219 8.76457 238.288 8.7583 238.357 8.7583C238.487 8.7583 238.621 8.77334 238.699 8.80968C238.816 8.8623 238.746 8.87734 238.534 8.87985C238.262 8.88235 237.994 8.90867 237.721 8.91368C237.578 8.91619 237.466 8.8861 237.457 8.85478C237.453 8.83975 237.518 8.81343 237.57 8.80842C237.751 8.78963 237.95 8.77835 238.002 8.77459Z" fill="#4F9CF9"/>
<path d="M261.572 1.40325C261.434 1.40951 261.287 1.42706 261.157 1.42079C260.984 1.41202 260.915 1.37819 260.958 1.34687C260.984 1.32933 261.031 1.30427 261.083 1.30051C261.36 1.28297 261.641 1.27168 261.918 1.25916C262.083 1.27795 262.156 1.30426 262.113 1.33558C262.087 1.35312 262.039 1.37693 261.987 1.38194C261.853 1.39447 261.71 1.39698 261.572 1.40325Z" fill="#4F9CF9"/>
<path d="M93.6928 2.12592C93.8269 2.12467 93.948 2.14096 94.0518 2.17228C93.9869 2.21237 93.8918 2.23869 93.762 2.24996C93.6971 2.25497 93.6236 2.25873 93.5544 2.25998C93.4203 2.26249 93.2991 2.24495 93.1953 2.21362C93.2602 2.17353 93.3597 2.14722 93.4851 2.13594C93.55 2.13093 93.6236 2.12968 93.6928 2.12592Z" fill="#4F9CF9"/>
<path d="M305.973 13.2427C305.968 13.2063 306.232 13.165 306.47 13.1662C306.596 13.1675 306.725 13.185 306.799 13.2189C306.911 13.2702 306.846 13.2903 306.634 13.2865C306.505 13.284 306.366 13.3053 306.237 13.3015C306.089 13.3003 306.003 13.2727 305.973 13.2427Z" fill="#4F9CF9"/>
<path d="M242.845 9.01007C242.841 8.99629 242.819 8.98001 242.832 8.96748C242.914 8.89856 243.412 8.87726 243.542 8.93741C243.563 8.94868 243.572 8.96747 243.555 8.97875C243.529 8.99629 243.481 9.01884 243.429 9.02385C243.295 9.03638 243.157 9.04265 243.018 9.0439C242.958 9.0439 242.901 9.0226 242.845 9.01007Z" fill="#4F9CF9"/>
<path d="M11.0173 8.74071C10.5068 8.76702 10.4982 8.7645 10.589 8.70186C10.6712 8.64547 10.8226 8.61165 11.0433 8.61165C11.1081 8.61165 11.1773 8.60914 11.2336 8.61416C11.2941 8.62042 11.3807 8.63294 11.3937 8.64797C11.4196 8.67679 11.346 8.70812 11.2162 8.72942C11.16 8.73944 11.0865 8.73695 11.0173 8.74071Z" fill="#4F9CF9"/>
<path d="M100.083 1.94974C99.9312 1.97104 99.8015 1.96353 99.7063 1.92343C99.6112 1.88334 99.7626 1.83572 100.026 1.82445C100.096 1.82194 100.169 1.81192 100.234 1.81694C100.299 1.8207 100.364 1.83572 100.403 1.85075C100.472 1.87581 100.429 1.90965 100.29 1.93847C100.234 1.94975 100.152 1.94724 100.083 1.94974Z" fill="#4F9CF9"/>
<path d="M305.072 13.1484C305.11 13.1321 305.149 13.1158 305.193 13.1008C305.353 13.1221 305.422 13.1471 305.379 13.1759C305.353 13.1935 305.301 13.2085 305.262 13.2248C305.102 13.2035 305.037 13.1772 305.072 13.1484Z" fill="#4F9CF9"/>
<path d="M17.8691 23.004C17.8691 22.9889 17.9297 22.9651 17.9773 22.9601C18.0681 22.9514 18.1805 22.9689 18.2584 23.004C18.3665 23.0541 18.3017 23.0804 18.1027 23.0666C17.9643 23.0566 17.8691 23.0315 17.8691 23.004Z" fill="#4F9CF9"/>
<path d="M244.608 7.84349C244.664 7.85477 244.72 7.86605 244.772 7.87858C244.699 7.92494 244.608 7.94497 244.513 7.93245C244.452 7.92493 244.4 7.90989 244.344 7.89861C244.417 7.85225 244.504 7.83472 244.608 7.84349Z" fill="#4F9CF9"/>
<path d="M243.111 7.78681C243.197 7.76801 243.301 7.77805 243.422 7.81438C243.383 7.83067 243.349 7.84947 243.301 7.86199C243.219 7.88204 243.111 7.87201 242.994 7.83442C243.029 7.81938 243.068 7.80309 243.111 7.78681Z" fill="#4F9CF9"/>
<path d="M241.963 7.8421C242.019 7.85338 242.076 7.86466 242.127 7.87719C242.054 7.92355 241.967 7.94358 241.868 7.93105C241.807 7.92354 241.755 7.9085 241.699 7.89722C241.773 7.85086 241.859 7.83208 241.963 7.8421Z" fill="#4F9CF9"/>
<path d="M241.121 7.77581C241.185 7.80087 241.151 7.83093 241.025 7.86476C240.969 7.85349 240.904 7.84473 240.861 7.82969C240.792 7.80589 240.826 7.77455 240.956 7.74072C241.008 7.75325 241.064 7.76453 241.121 7.77581Z" fill="#4F9CF9"/>
</svg>
