<svg width="329" height="37" viewBox="0 0 329 37" fill="none" xmlns="http://www.w3.org/2000/svg">
<path d="M306.861 19.3197C306.413 19.3503 305.961 19.3713 305.523 19.4172C305.239 19.4459 305.117 19.3618 304.927 19.3178C304.864 19.3025 304.796 19.2719 304.737 19.2757C304.294 19.3063 303.851 19.3407 303.409 19.3751C303.273 19.4497 303.187 19.5491 302.979 19.5855C302.776 19.6199 302.537 19.6199 302.311 19.6371C302.012 19.6581 301.714 19.6792 301.416 19.6983C301.267 19.7079 301.145 19.7442 301.095 19.813C301.086 19.8245 301.185 19.8532 301.24 19.8704C301.42 19.9277 301.597 19.9927 301.795 20.0367C301.985 20.0788 302.22 20.01 302.424 20.0635C302.88 20.184 302.884 20.182 303.232 20.1591C303.531 20.1381 303.829 20.1151 304.127 20.0998C304.186 20.096 304.254 20.1247 304.317 20.14C304.507 20.182 304.629 20.2777 304.909 20.2413C305.121 20.2126 305.356 20.2069 305.577 20.1916C305.763 20.2471 305.934 20.3102 306.133 20.3541C306.318 20.3962 306.373 20.4287 306.273 20.4842C306.183 20.5358 306.056 20.5568 305.889 20.5606C305.74 20.5626 305.591 20.5798 305.442 20.5893C305.365 20.595 305.293 20.5989 305.22 20.6046C304.936 20.6257 304.936 20.6257 304.416 20.5033C304.213 20.4555 303.982 20.5224 303.788 20.4765C303.657 20.4459 303.544 20.4 303.418 20.3675C303.363 20.3541 303.278 20.3522 303.21 20.356C302.984 20.3694 302.758 20.379 302.541 20.4038C302.387 20.4211 302.297 20.4746 302.315 20.5281C302.32 20.5492 302.428 20.5798 302.491 20.5817C302.636 20.5855 302.789 20.5587 302.93 20.5721C303.065 20.5855 303.205 20.6237 303.305 20.6658C303.508 20.7538 303.738 20.6754 303.933 20.6983C304.136 20.7232 304.303 20.7997 304.497 20.8455C304.547 20.857 304.642 20.8379 304.719 20.8321C304.94 20.8188 305.162 20.8073 305.383 20.7939C305.568 20.8494 305.767 20.8991 305.934 20.9622C306.237 21.0769 306.563 21.1209 306.956 21.0654C307.177 21.0348 307.394 21.0463 307.57 21.1209C307.751 21.1974 307.959 21.1897 308.189 21.1744C308.402 21.1591 308.618 21.1171 308.835 21.1706C309.305 21.2891 309.31 21.2949 309.866 21.249C310.033 21.2356 310.159 21.2318 310.286 21.2758C310.403 21.3159 310.53 21.3503 310.652 21.3886C310.873 21.3752 311.099 21.3618 311.32 21.3465C311.605 21.3255 311.763 21.3522 311.831 21.4593C311.872 21.5243 311.89 21.5836 311.989 21.6276C312.107 21.6811 312.233 21.6792 312.405 21.6639C312.568 21.6505 312.685 21.6295 312.753 21.5607C312.78 21.532 312.834 21.5052 312.884 21.4823C312.925 21.4651 312.988 21.4383 313.024 21.4421C313.092 21.4498 313.182 21.4708 313.205 21.4956C313.426 21.727 313.426 21.7289 313.652 21.7958C313.9 21.8704 314.158 21.9373 314.384 22.0215C314.587 22.096 314.791 22.0635 315.012 22.0635C315.179 22.0635 315.288 22.1133 315.274 22.163C315.265 22.1917 315.202 22.2337 315.148 22.2375C314.705 22.2758 314.257 22.3083 313.81 22.335C313.756 22.3389 313.688 22.3044 313.625 22.2872C313.498 22.2528 313.385 22.1993 313.25 22.1878C313.114 22.1763 312.956 22.205 312.807 22.2146C312.658 22.2241 312.5 22.249 312.364 22.2337C312.229 22.2184 312.12 22.163 311.994 22.1266C311.935 22.1094 311.854 22.0846 311.804 22.0903C311.474 22.1362 311.23 22.0731 310.995 21.989C310.945 21.9718 310.86 21.9603 310.796 21.9641C310.272 21.9966 309.753 22.0348 309.228 22.0712C309.016 22.0865 308.844 22.0195 308.799 21.9067C308.777 21.8436 308.731 21.7805 308.731 21.7174C308.731 21.6027 308.483 21.5396 308.302 21.553C308.004 21.5721 307.701 21.5874 307.407 21.6161C307.168 21.639 306.965 21.6161 306.802 21.5473C306.612 21.4689 306.395 21.4842 306.178 21.5052C306.016 21.5205 305.971 21.5836 305.98 21.7423C305.989 21.8704 305.912 21.9106 305.618 21.9316C305.248 21.9584 304.873 21.9851 304.497 22.0062C304.439 22.01 304.371 21.9775 304.312 21.9603C304.186 21.9259 304.073 21.8704 303.937 21.8589C303.802 21.8455 303.643 21.8742 303.494 21.8857C303.345 21.8953 303.187 21.922 303.052 21.9086C302.916 21.8953 302.803 21.8379 302.681 21.8016C302.622 21.7844 302.55 21.7595 302.491 21.7633C302.193 21.7786 301.895 21.8016 301.597 21.8226C301.262 21.8456 301.262 21.8456 300.788 21.727C300.571 21.6735 300.354 21.7155 300.142 21.7308C299.916 21.7461 299.703 21.7538 299.527 21.6773C299.41 21.6276 299.279 21.597 299.139 21.6065C298.764 21.6295 298.393 21.6582 298.018 21.6811C297.955 21.6849 297.869 21.6754 297.819 21.6582C297.58 21.5779 297.345 21.5148 297.01 21.5549C296.721 21.5893 296.409 21.5912 296.12 21.6238C295.962 21.641 295.89 21.7022 295.921 21.75C295.939 21.7748 296.034 21.8035 296.098 21.8035C296.242 21.8054 296.4 21.7767 296.536 21.7882C296.816 21.8111 296.956 21.9717 297.322 21.9278C297.539 21.901 297.765 21.8914 297.991 21.8838C298.05 21.8819 298.113 21.9182 298.176 21.9373C298.357 21.989 298.515 22.0559 298.777 22.0215C298.994 21.9947 299.224 21.9871 299.446 21.9718C299.798 21.9469 299.798 21.9488 300.255 22.0655C300.472 22.1209 300.688 22.0769 300.901 22.0635C301.059 22.054 301.208 22.0349 301.335 22.0616C301.529 22.1018 301.669 22.1935 301.908 22.1878C302.134 22.1821 302.356 22.1553 302.582 22.1457C302.722 22.14 302.853 22.1706 302.966 22.2222C303.083 22.2739 303.21 22.2968 303.363 22.2853C303.585 22.27 303.811 22.2509 304.037 22.2413C304.1 22.2394 304.172 22.2567 304.231 22.2719C304.357 22.3064 304.479 22.3465 304.601 22.3828C304.823 22.3714 305.049 22.3676 305.266 22.3446C305.433 22.3274 305.55 22.3351 305.686 22.3733C305.858 22.4249 305.998 22.5167 306.278 22.4727C306.418 22.4517 306.581 22.4574 306.721 22.4383C306.892 22.4134 307.01 22.423 307.132 22.4804C307.362 22.5893 307.651 22.5913 307.95 22.5492C308.275 22.5033 308.519 22.5569 308.763 22.641C309.021 22.7289 309.021 22.727 309.219 22.9393C309.278 23.0004 309.445 23.0291 309.585 23.0177C309.82 22.9985 310.024 23.0081 310.195 23.0808C310.376 23.1591 310.593 23.1496 310.814 23.1286C311.108 23.0999 311.402 23.075 311.641 23.1859C311.759 23.2395 311.885 23.2528 312.043 23.2394C312.491 23.205 312.943 23.184 313.381 23.142C313.648 23.1152 313.801 23.1764 313.982 23.228C314.226 23.2987 314.492 23.3618 314.492 23.5129C314.492 23.5377 314.556 23.5664 314.61 23.5855C314.727 23.6257 314.854 23.6601 314.976 23.6984C315.157 23.7557 315.333 23.8035 315.581 23.7729C315.798 23.7481 316.029 23.7404 316.25 23.7232C316.472 23.706 316.675 23.6964 316.874 23.7691C317.104 23.8513 317.348 23.9297 317.61 23.9909C317.795 24.0349 318.039 23.9603 318.238 24.0196C318.36 24.0559 318.478 24.098 318.609 24.1286C318.663 24.142 318.749 24.1324 318.821 24.1286C318.97 24.1209 319.124 24.1152 319.269 24.0961C319.436 24.075 319.562 24.0789 319.689 24.1228C319.806 24.163 319.924 24.2184 320.059 24.2299C320.263 24.2471 320.488 24.1706 320.692 24.2586C320.796 24.3026 320.927 24.3446 321.062 24.358C321.198 24.3714 321.356 24.3427 321.501 24.3446C321.564 24.3446 321.641 24.3752 321.677 24.4001C321.699 24.4135 321.668 24.4498 321.636 24.4689C321.596 24.4919 321.537 24.5225 321.478 24.5263C321.031 24.5607 320.583 24.5894 320.136 24.6219C319.869 24.641 319.869 24.641 319.332 24.5206C319.205 24.4919 319.065 24.4976 318.907 24.511C318.695 24.5282 318.478 24.5607 318.256 24.5263C317.967 24.3963 317.61 24.3848 317.231 24.4345C317.073 24.4555 316.928 24.4555 316.81 24.4192C316.562 24.3465 316.3 24.2796 316.078 24.1936C315.907 24.1267 315.825 24.1209 315.753 24.2127C315.731 24.2414 315.708 24.272 315.712 24.2987C315.74 24.3943 315.789 24.488 315.816 24.5836C315.825 24.6104 315.789 24.641 315.767 24.6697C315.694 24.75 315.6 24.7443 315.441 24.6773C315.283 24.6104 315.093 24.5664 314.84 24.597C314.623 24.6238 314.389 24.62 314.172 24.6487C313.837 24.6907 313.602 24.6295 313.363 24.5473C313.313 24.5301 313.227 24.5206 313.164 24.5244C312.491 24.5684 311.822 24.6181 311.149 24.662C311.004 24.6716 310.873 24.6429 310.76 24.5913C310.643 24.5397 310.512 24.5129 310.367 24.5225C309.771 24.5626 309.174 24.599 308.578 24.6487C308.334 24.6697 308.139 24.6448 307.972 24.5779C307.846 24.5282 307.728 24.5129 307.57 24.5186C307.398 24.5244 307.276 24.5435 307.191 24.599C307.109 24.6525 307.168 24.685 307.349 24.727C307.543 24.7729 307.724 24.8322 307.909 24.8858C308.058 24.8781 308.207 24.8628 308.352 24.8647C308.415 24.8647 308.474 24.8991 308.537 24.9183C308.718 24.9737 308.885 25.0292 309.143 24.9986C309.359 24.9718 309.59 24.9661 309.811 24.9489C310.118 24.9278 310.119 24.9278 310.616 25.0483C310.742 25.0789 310.878 25.077 311.04 25.0597C311.18 25.0464 311.325 25.0731 311.424 25.1305C311.465 25.1534 311.452 25.1917 311.366 25.3179C311.366 25.4116 311.46 25.3695 311.492 25.3083C311.542 25.2204 311.447 25.1917 311.266 25.2395C311.14 25.2739 311.076 25.3236 311.108 25.3638C311.126 25.3848 311.212 25.4116 311.366 25.3179C311.763 25.2032 312.066 25.1898 312.355 25.1592C312.527 25.142 312.635 25.1496 312.771 25.1993C312.934 25.2586 313.096 25.3217 313.363 25.2911C313.652 25.2567 313.959 25.2529 314.253 25.2242C314.524 25.1974 314.664 25.2816 314.836 25.3313C315.044 25.3905 315.274 25.3236 315.464 25.358C315.663 25.3925 315.803 25.4766 316.033 25.4919C316.368 25.4403 316.58 25.5359 316.833 25.599C317.032 25.6468 317.267 25.6047 317.479 25.5837C317.719 25.5607 317.917 25.5818 318.085 25.6506C318.274 25.729 318.487 25.7118 318.704 25.6946C319.21 25.6563 319.228 25.6506 319.521 25.7557C319.734 25.8322 319.937 25.7978 320.15 25.7883C320.335 25.8399 320.516 25.8953 320.71 25.9412C320.76 25.9527 320.855 25.9336 320.931 25.9278C321.153 25.9125 321.379 25.8972 321.6 25.8819C321.749 25.8724 321.907 25.8437 322.043 25.8552C322.178 25.8686 322.291 25.924 322.413 25.9604C322.535 25.9967 322.662 26.033 322.779 26.0712C322.96 26.1286 323.132 26.1764 323.385 26.1477C323.602 26.1229 323.828 26.1152 324.054 26.098C324.338 26.077 324.329 26.0827 324.858 26.1974C325.143 26.2605 325.436 26.1841 325.725 26.1764C325.87 26.1726 326.01 26.1936 326.11 26.2491C326.15 26.272 326.137 26.3103 326.15 26.3428C325.405 26.3944 324.655 26.4384 323.918 26.5015C323.633 26.5263 323.484 26.4575 323.331 26.4001C323.078 26.3083 322.743 26.4422 322.504 26.3236C322.359 26.2529 322.151 26.2127 321.903 26.2472C321.758 26.2663 321.605 26.2644 321.455 26.2816C321.076 26.3236 320.728 26.3256 320.425 26.1936C320.321 26.1477 320.172 26.1229 320.064 26.0789C319.937 26.0311 319.815 26.0043 319.666 26.0139C318.993 26.0598 318.324 26.1056 317.655 26.1554C317.597 26.1592 317.538 26.1879 317.488 26.2089C317.362 26.2624 317.402 26.3045 317.606 26.3389C317.673 26.3504 317.728 26.3753 317.791 26.3944C317.913 26.4307 318.026 26.4881 318.161 26.5015C318.297 26.5148 318.455 26.4881 318.604 26.4785C318.753 26.469 318.912 26.4403 319.047 26.4517C319.183 26.4651 319.296 26.5206 319.422 26.555C319.481 26.5722 319.553 26.6009 319.612 26.599C319.91 26.5875 320.204 26.5665 320.502 26.5493C320.687 26.6009 320.845 26.6755 321.067 26.6927C321.207 26.7041 321.356 26.6831 321.501 26.6869C321.564 26.6888 321.645 26.7175 321.677 26.7424C321.695 26.7577 321.636 26.7959 321.591 26.815C321.419 26.8877 321.184 26.8743 320.972 26.8973C320.742 26.9221 320.534 26.9145 320.357 26.8399C320.24 26.7902 320.109 26.7634 319.964 26.773C319.589 26.7978 319.219 26.8265 318.844 26.8476C318.78 26.8514 318.704 26.8342 318.645 26.8208C318.17 26.7041 318.17 26.7003 317.836 26.7252C317.344 26.7615 317.344 26.7615 317.014 26.6602C316.951 26.641 316.883 26.6047 316.828 26.6066C316.304 26.6372 315.785 26.6678 315.265 26.7118C315.093 26.7252 314.976 26.7252 314.849 26.6755C314.741 26.6334 314.614 26.5856 314.479 26.5741C314.339 26.5626 314.185 26.5913 314.036 26.6009C313.887 26.6105 313.729 26.6353 313.598 26.62C313.462 26.6047 313.345 26.5512 313.227 26.5129C313.105 26.4728 312.974 26.4747 312.807 26.49C312.292 26.534 312.287 26.5282 311.777 26.4097C311.718 26.3963 311.641 26.381 311.578 26.3848C311.203 26.4078 310.832 26.4365 310.457 26.4594C310.313 26.469 310.173 26.4441 310.073 26.3887C310.033 26.3657 310.046 26.3275 310.019 26.2529C309.988 26.2357 310.024 26.2663 310.033 26.295C310.1 26.2911 310.182 26.2949 310.232 26.2797C310.358 26.2433 310.421 26.1955 310.39 26.1554C310.372 26.1343 310.286 26.1076 310.232 26.1076C310.132 26.1076 310.046 26.1496 310.019 26.2529C309.735 26.316 309.432 26.3294 309.138 26.36C308.966 26.3791 308.858 26.3695 308.722 26.3198C308.56 26.2586 308.392 26.1993 308.126 26.2299C307.837 26.2644 307.529 26.2701 307.231 26.2969C306.888 26.3275 306.739 26.1554 306.449 26.1592C306.151 26.163 305.853 26.1955 305.555 26.2185C305.293 26.2376 305.293 26.2376 304.751 26.1133C304.552 26.0674 304.317 26.1343 304.123 26.0865C303.991 26.0559 303.878 26.0101 303.752 25.9776C303.698 25.9642 303.612 25.9642 303.544 25.968C303.169 25.9909 302.79 26.0062 302.428 26.0483C302.017 26.098 301.705 26.0445 301.411 25.9317C301.041 25.9527 300.666 25.9642 300.3 26.0005C300.033 26.0273 299.88 25.9642 299.699 25.9125C299.636 25.8953 299.581 25.8667 299.514 25.859C299.446 25.8514 299.364 25.8666 299.292 25.8724C298.994 25.8934 298.687 25.903 298.397 25.9374C298.041 25.9814 297.905 25.8246 297.629 25.8055C297.444 25.8992 297.345 26.0273 296.979 26.0368C296.681 26.0445 296.382 26.0751 296.084 26.0961C295.935 26.1057 295.786 26.1171 295.637 26.1267C295.397 26.1439 295.284 26.2185 295.334 26.3332C295.361 26.3963 295.384 26.4594 295.406 26.5225C295.451 26.6353 295.338 26.7309 295.149 26.7443C294.625 26.7806 294.105 26.8189 293.581 26.8514C293.441 26.8609 293.305 26.8284 293.192 26.7768C293.075 26.7252 292.944 26.7022 292.799 26.7118C292.275 26.7481 291.755 26.7864 291.231 26.8189C291.172 26.8227 291.096 26.8036 291.037 26.7883C290.91 26.7539 290.788 26.7137 290.666 26.6774C290.368 26.6946 290.074 26.706 289.781 26.729C289.306 26.7634 289.306 26.7653 288.958 26.6602C288.895 26.641 288.832 26.6047 288.773 26.6066C288.547 26.6143 288.326 26.6334 288.1 26.6506C287.436 26.7003 287.436 26.7003 287.241 26.643C287.065 26.5894 286.907 26.5244 286.64 26.555C286.351 26.5894 286.044 26.6009 285.746 26.62C285.524 26.6334 285.303 26.6487 285.081 26.6525C285.023 26.6544 284.96 26.6181 284.896 26.599C284.716 26.5397 284.539 26.4919 284.291 26.5244C284.146 26.5435 283.993 26.5474 283.843 26.5569C283.455 26.5837 283.455 26.5837 282.818 26.4689C282.754 26.4575 282.678 26.4441 282.614 26.4498C282.09 26.4842 281.571 26.5225 281.046 26.555C280.983 26.5588 280.906 26.5473 280.843 26.5378C280.129 26.4269 280.129 26.4269 279.37 26.4804C279.081 26.4996 279.072 26.5072 278.769 26.4059C278.634 26.3619 278.521 26.3408 278.363 26.3542C277.766 26.4001 277.165 26.4307 276.573 26.4843C276.307 26.5072 276.153 26.4498 275.972 26.3982C275.909 26.381 275.841 26.3428 275.787 26.3447C275.191 26.381 274.594 26.425 273.998 26.4613C273.943 26.4651 273.876 26.4269 273.812 26.4097C273.69 26.3753 273.573 26.3236 273.437 26.3122C273.297 26.3007 273.144 26.3294 272.99 26.3389C272.615 26.3638 272.615 26.3619 272.181 26.2491C272.122 26.2338 272.046 26.2127 271.987 26.2166C271.39 26.2548 270.789 26.2873 270.198 26.3428C269.859 26.3734 269.628 26.3179 269.389 26.2376C269.339 26.2204 269.253 26.2127 269.19 26.2166C268.517 26.2605 267.848 26.3102 267.175 26.3542C267.035 26.3638 266.899 26.3313 266.786 26.2816C266.605 26.2032 266.393 26.2127 266.167 26.2299C265.647 26.2701 265.643 26.2682 265.336 26.1764C265.272 26.1573 265.218 26.1324 265.15 26.1229C265.087 26.1133 265.006 26.119 264.938 26.1229C264.64 26.142 264.342 26.163 264.043 26.184C263.745 26.2051 263.442 26.2166 263.149 26.2491C262.787 26.2892 262.615 26.1649 262.362 26.1076C261.992 26.1324 261.612 26.1477 261.246 26.1879C260.966 26.2185 260.835 26.1343 260.65 26.0904C260.587 26.0751 260.519 26.0426 260.46 26.0464C259.787 26.0885 259.114 26.1343 258.445 26.186C258.282 26.1974 258.174 26.1821 258.038 26.1362C257.736 26.033 257.722 26.0368 257.216 26.0751C256.994 26.0923 256.782 26.1076 256.592 26.0292C256.425 25.9584 256.222 25.9412 255.982 25.9642C255.689 25.9928 255.386 26.0081 255.088 26.0273C254.789 26.0483 254.491 26.077 254.193 26.0865C253.954 26.0961 253.809 26.0062 253.619 25.9604C253.56 25.947 253.479 25.945 253.411 25.9489C253.113 25.9661 252.806 25.9795 252.517 26.012C252.164 26.0521 251.97 25.947 251.721 25.8858C251.667 25.8724 251.577 25.88 251.509 25.8858C250.985 25.9202 250.465 25.9584 249.941 25.9948C249.756 25.9431 249.566 25.8934 249.381 25.8418C249.083 25.8609 248.784 25.8819 248.486 25.9011C248.26 25.9164 248.03 25.9221 247.817 25.9508C247.542 25.989 247.406 25.8992 247.221 25.8552C247.158 25.8399 247.09 25.8074 247.031 25.8112C246.656 25.8322 246.281 25.8552 245.911 25.8877C245.558 25.9202 245.418 25.7481 245.129 25.75C244.831 25.7519 244.523 25.7768 244.234 25.8112C243.9 25.8514 243.665 25.7902 243.425 25.7079C243.376 25.6907 243.29 25.6812 243.227 25.685C242.852 25.7079 242.481 25.7366 242.106 25.7596C242.043 25.7634 241.966 25.7538 241.903 25.7424C241.189 25.6296 241.189 25.6277 240.877 25.6506C240.656 25.6659 240.43 25.685 240.204 25.6946C240.14 25.6984 240.064 25.6812 240.005 25.6659C239.535 25.5492 239.535 25.5473 239.196 25.5703C238.898 25.5913 238.6 25.6123 238.301 25.6334C238.116 25.5817 237.926 25.532 237.741 25.4804C237.371 25.5053 236.991 25.5244 236.625 25.5588C236.453 25.5741 236.34 25.5684 236.209 25.5206C236.047 25.4632 235.884 25.3963 235.613 25.4288C235.324 25.4632 235.016 25.467 234.723 25.4957C234.37 25.5301 234.226 25.3561 233.941 25.358C233.643 25.36 233.336 25.3848 233.046 25.4192C232.712 25.4594 232.477 25.3982 232.238 25.316C232.188 25.2988 232.102 25.2892 232.039 25.293C231.216 25.3485 230.399 25.4039 229.576 25.4632C229.07 25.4995 229.07 25.5014 228.108 25.3963C228.04 25.3886 227.968 25.381 227.9 25.3848C227.602 25.402 227.294 25.4154 227.005 25.4479C226.653 25.4881 226.458 25.3848 226.21 25.3217C226.156 25.3083 226.07 25.316 225.997 25.3198C225.772 25.3332 225.55 25.3504 225.324 25.3657C225.026 25.3867 224.728 25.4078 224.43 25.4288C224.244 25.3791 224.055 25.3274 223.869 25.2777C223.499 25.3026 223.119 25.316 222.753 25.3561C222.473 25.3867 222.342 25.3064 222.157 25.2605C222.094 25.2452 222.026 25.2127 221.967 25.2146C221.294 25.2567 220.621 25.3007 219.952 25.3542C219.676 25.3772 219.55 25.2911 219.364 25.2471C219.301 25.2337 219.229 25.2089 219.17 25.2127C218.723 25.2395 218.275 25.272 217.828 25.3045C217.575 25.3236 217.575 25.3236 217.024 25.2051C216.961 25.1917 216.888 25.1783 216.825 25.1821C215.406 25.2777 213.992 25.3791 212.573 25.4747C212.428 25.4842 212.297 25.4556 212.185 25.4039C212.067 25.3523 211.936 25.3255 211.791 25.3351C211.195 25.3753 210.594 25.4116 210.002 25.4613C209.758 25.4823 209.564 25.4575 209.397 25.3905C209.27 25.3408 209.153 25.3217 208.994 25.3332C208.696 25.3561 208.398 25.3752 208.1 25.3963C207.802 25.4173 207.503 25.4384 207.205 25.4594C206.907 25.4804 206.604 25.4919 206.31 25.5244C205.949 25.5645 205.773 25.446 205.524 25.3867C205.077 25.4154 204.629 25.4441 204.187 25.4747C203.59 25.5148 202.994 25.5588 202.397 25.5971C202.343 25.6009 202.275 25.5665 202.212 25.5493C202.027 25.5014 201.891 25.4345 201.616 25.4556C200.278 25.5569 198.932 25.6429 197.59 25.7424C197.31 25.7634 197.188 25.6812 196.998 25.6372C196.935 25.6238 196.862 25.5971 196.803 25.6009C196.058 25.6487 195.312 25.7022 194.567 25.7538C194.264 25.7749 194.264 25.7749 193.758 25.6563C193.699 25.6429 193.622 25.6257 193.559 25.6295C192.588 25.6946 191.621 25.7634 190.649 25.8303C190.505 25.8399 190.374 25.8131 190.256 25.7615C190.143 25.7099 190.008 25.6812 189.868 25.6907C188.973 25.7519 188.074 25.8112 187.184 25.8781C186.944 25.8972 186.745 25.88 186.574 25.8112C186.452 25.7615 186.33 25.7404 186.176 25.7519C184.834 25.8456 183.492 25.9355 182.15 26.0349C181.892 26.054 181.712 26.0177 181.549 25.9546C181.418 25.9049 181.305 25.8953 181.142 25.903C180.971 25.9125 180.867 25.9336 180.772 25.9909C180.65 26.0655 180.573 26.1592 180.284 26.1649C179.986 26.1707 179.683 26.1936 179.389 26.2261C179.109 26.2586 178.978 26.1726 178.802 26.121C178.671 26.0846 178.549 26.0789 178.382 26.0961C178.228 26.1114 178.133 26.1439 178.043 26.2051C177.844 26.3351 177.826 26.3351 177.582 26.2529C177.451 26.2089 177.333 26.1745 177.189 26.1821C176.592 26.2204 175.996 26.2624 175.399 26.3064C175.056 26.3313 175.051 26.3351 174.794 26.2395C174.667 26.1917 174.545 26.1687 174.396 26.1802C172.756 26.2949 171.116 26.4059 169.476 26.5263C169.223 26.5454 169.051 26.5053 168.87 26.4479C168.811 26.4288 168.753 26.402 168.685 26.3944C168.617 26.3867 168.54 26.3944 168.468 26.3982C167.275 26.4804 166.078 26.5588 164.889 26.6506C164.618 26.6716 164.474 26.6105 164.288 26.5607C164.225 26.5435 164.171 26.5168 164.103 26.5091C164.035 26.5034 163.954 26.5168 163.882 26.5225C162.689 26.6047 161.491 26.6831 160.303 26.7749C160.018 26.7959 159.896 26.7156 159.711 26.6736C159.648 26.6583 159.58 26.6296 159.521 26.6334C159.146 26.6544 158.776 26.6831 158.401 26.708C157.506 26.7711 156.611 26.8303 155.717 26.8954C155.373 26.9202 155.224 26.75 154.935 26.7577C154.56 26.7672 154.189 26.8055 153.814 26.8322C153.516 26.8533 153.218 26.8724 152.92 26.8954C152.626 26.9164 152.626 26.9164 151.894 26.8055C151.831 26.7959 151.754 26.7825 151.691 26.7864C150.647 26.8571 149.599 26.9279 148.559 27.0043C148.32 27.0215 148.121 27.012 147.949 26.9412C147.827 26.8915 147.701 26.8667 147.552 26.8781C145.984 26.9871 144.42 27.0961 142.852 27.2032C142.794 27.207 142.717 27.1879 142.658 27.1726C142.532 27.1382 142.41 27.098 142.288 27.0617C142.197 27.1057 142.08 27.1458 142.021 27.1955C141.94 27.2625 141.831 27.2816 141.66 27.2931C141.488 27.3045 141.38 27.3007 141.244 27.251C141.081 27.1898 140.914 27.142 140.648 27.1611C139.007 27.2816 137.367 27.3906 135.727 27.5091C135.456 27.5282 135.329 27.4441 135.139 27.4001C135.076 27.3867 135.004 27.3657 134.945 27.3696C134.272 27.4135 133.603 27.4613 132.93 27.5072C131.064 27.6372 129.198 27.7615 127.336 27.8992C126.997 27.9241 126.767 27.8762 126.527 27.794C126.477 27.7768 126.392 27.7673 126.328 27.7711C123.717 27.9508 121.105 28.1325 118.498 28.3141C118.358 28.3237 118.222 28.2931 118.109 28.2434C117.992 28.1917 117.861 28.1669 117.716 28.1764C116.523 28.2587 115.33 28.3409 114.137 28.425C113.839 28.4461 113.835 28.4479 113.527 28.3562C113.464 28.337 113.396 28.3007 113.347 28.3046C113.243 28.3141 113.143 28.3619 113.071 28.4269C112.999 28.4957 112.886 28.5149 112.719 28.5283C112.547 28.5416 112.434 28.5359 112.303 28.49C112.136 28.4327 111.982 28.3772 111.711 28.3963C108.281 28.6411 104.852 28.8762 101.422 29.1191C101.147 29.1382 101.02 29.0579 100.83 29.0139C100.767 29.0005 100.704 28.9814 100.636 28.9776C100.564 28.9738 100.487 28.9853 100.415 28.991C94.8208 29.3791 89.227 29.7692 83.633 30.1573C83.2987 30.1803 83.3032 30.1803 82.9372 30.3562C82.892 30.3772 82.8332 30.4059 82.7699 30.4097C81.0574 30.5321 79.3404 30.6507 77.6234 30.7692C76.8779 30.8208 76.1323 30.8744 75.3868 30.9241C75.1202 30.9413 75.1202 30.9413 74.4831 31.1478C74.4288 31.165 74.3655 31.188 74.3023 31.1918C71.3201 31.4002 68.3378 31.6086 65.3511 31.8132C65.1161 31.8285 64.9264 31.8629 64.8179 31.9547C64.7411 32.0197 64.6417 32.058 64.4926 32.0694C62.4051 32.2147 60.3176 32.362 58.2255 32.5035C57.977 32.5207 57.8278 32.5742 57.7058 32.6545C57.6651 32.6813 57.629 32.7119 57.5702 32.731C57.516 32.7482 57.4347 32.7539 57.3669 32.7597C55.5776 32.884 53.7883 33.0121 51.9945 33.1306C51.7279 33.1478 51.6194 33.2186 51.4883 33.2932C51.4432 33.318 51.4115 33.3524 51.3528 33.3696C51.294 33.3849 51.2082 33.3849 51.1359 33.3888C49.6448 33.492 48.1537 33.5972 46.6626 33.7004C46.3734 33.6909 46.3101 33.8018 46.1701 33.8687C46.1203 33.8916 46.0843 33.9222 46.0255 33.9375C45.9623 33.9528 45.8808 33.9509 45.804 33.9547C44.6111 34.0369 43.4183 34.1249 42.2209 34.2014C41.9453 34.2186 41.891 34.3161 41.7419 34.383C41.6922 34.4041 41.6426 34.4366 41.5838 34.4423C40.8383 34.4978 40.0927 34.5494 39.3472 34.5991C39.0987 34.6163 39.0986 34.6144 38.6604 34.8037C38.6106 34.8247 38.5519 34.8477 38.4886 34.8534C37.3725 34.9337 36.252 35.0102 35.1314 35.0886C34.9868 35.0982 34.8874 35.1441 34.8151 35.2091C34.7428 35.2741 34.6389 35.3161 34.4943 35.3257C33.5996 35.3888 32.7049 35.4538 31.8102 35.5112C31.5617 35.5265 31.3991 35.5743 31.2906 35.6603C31.2093 35.7253 31.1099 35.7578 30.9518 35.7693C30.0571 35.8305 29.1625 35.8974 28.2633 35.951C28.0012 35.9662 27.8656 36.0313 27.7571 36.1116C27.6713 36.1766 27.5719 36.1995 27.4047 36.211C25.7645 36.3219 24.1198 36.4328 22.4841 36.5551C22.2085 36.5762 22.0684 36.5093 21.8876 36.4615C21.6301 36.3945 21.3906 36.3219 21.3906 36.1727C21.3906 36.1498 21.3138 36.123 21.2596 36.1039C20.8574 35.9605 20.8574 35.9605 20.7942 35.8075C20.758 35.7139 20.7174 35.6183 20.6857 35.5226C20.627 35.3659 20.4823 35.3257 20.0666 35.3544C19.9175 35.3639 19.7684 35.3773 19.6193 35.385C19.3979 35.3983 19.2307 35.3352 19.1901 35.2205C19.1675 35.1574 19.1404 35.0943 19.1178 35.0312C19.3437 35.0159 19.3392 35.014 19.7368 34.7827C19.904 34.6852 19.9041 34.6852 19.5832 34.5876C19.4612 34.5513 19.3437 34.5111 19.2127 34.4767C19.154 34.4614 19.0772 34.4519 19.0139 34.4557C18.6389 34.4786 18.2684 34.5054 17.8978 34.5322C17.3014 34.5742 17.3013 34.5742 16.6959 34.3792C16.6461 34.3639 16.5693 34.3352 16.5784 34.3199C16.6281 34.2492 16.7501 34.2186 16.9037 34.2109C17.1296 34.1995 17.351 34.1804 17.5724 34.1651C17.7215 34.1555 17.8706 34.144 18.0197 34.1345C18.1598 34.0618 18.3045 33.9911 18.4355 33.9165C18.6434 33.8018 18.6433 33.7979 18.3586 33.7176C18.1779 33.6641 17.9836 33.6163 17.7983 33.5666C17.5769 33.5819 17.351 33.5991 17.1296 33.6125C16.8495 33.6297 16.7365 33.5933 16.6642 33.4691C16.6009 33.3601 16.6778 33.2664 16.8946 33.2434C17.116 33.2205 17.324 33.2052 17.4369 33.1077C17.5454 33.014 17.7351 32.9777 17.9701 32.97C18.1192 32.9643 18.2683 32.9509 18.4174 32.9394C18.6117 32.9241 18.7157 32.8266 18.675 32.7176C18.6524 32.6469 18.6072 32.5876 18.431 32.5723C17.6493 32.5054 17.6402 32.5073 17.2516 32.3773C17.2155 32.3658 17.1884 32.3314 17.202 32.3142C17.2246 32.2855 17.2743 32.2434 17.3285 32.2377C17.8481 32.1956 18.3677 32.1574 18.8874 32.1287C19.0591 32.1192 19.1856 32.1057 19.2444 32.035C19.3257 31.9375 19.2895 31.8476 19.1314 31.7807C19.0817 31.7597 19.0003 31.7329 18.9461 31.7348C18.3496 31.7692 17.7577 31.8132 17.1613 31.8476C17.1071 31.8514 17.0077 31.819 16.9851 31.7941C16.9399 31.7482 17.0076 31.687 17.1658 31.666C17.3736 31.6373 17.586 31.6354 17.7261 31.5398C17.9204 31.404 18.1598 31.2798 18.3767 31.1497C18.4129 31.1268 18.4717 31.0828 18.4581 31.079C18.3452 31.0369 18.2141 31.0044 18.0966 30.9642C17.8978 30.8973 17.8978 30.8036 17.943 30.7138C17.9791 30.6411 18.1147 30.6124 18.2819 30.6124C18.3541 30.6124 18.4445 30.6124 18.5033 30.5952C18.6569 30.5532 18.7066 30.4996 18.6298 30.4594C18.5846 30.4365 18.5033 30.404 18.4491 30.4078C17.4821 30.4709 16.5106 30.5321 15.5481 30.6105C15.2635 30.6335 15.1325 30.5608 14.9608 30.5092C14.8298 30.469 14.7077 30.4537 14.545 30.4824C14.3914 30.5092 14.2424 30.4939 14.1475 30.4308C14.0707 30.3792 14.2062 30.3352 14.5722 30.2855C14.64 30.2759 14.7167 30.2702 14.7664 30.251C15.2906 30.0445 15.2906 30.0426 15.6521 30.0159C16.0045 29.991 16.0046 29.9891 16.1898 29.8782C16.2757 29.8266 16.3705 29.7749 16.4518 29.7214C16.4835 29.7004 16.5378 29.6621 16.5197 29.6506C16.4203 29.5914 16.2847 29.578 16.1265 29.5914C15.7741 29.6239 15.3584 29.5971 15.1732 29.7788C15.1009 29.8476 14.9879 29.8667 14.8252 29.8782C13.1895 29.9891 11.5538 30.1076 9.91357 30.2147C9.64698 30.2319 9.52505 30.3027 9.42113 30.3811C9.33076 30.4461 9.23133 30.4652 9.05962 30.4767C8.88792 30.4881 8.7523 30.4939 8.65289 30.4308C8.59415 30.3925 8.64387 30.339 8.77942 30.2855C8.97372 30.209 8.93755 30.1134 8.87429 30.0235C8.82911 29.9642 8.68904 29.9222 8.53993 29.926C8.31852 29.9336 8.10621 29.9547 7.92095 29.8782C7.81251 29.8342 7.67693 29.8036 7.55493 29.7654C7.31996 29.687 7.08499 29.6067 6.75514 29.6583C6.52922 29.6392 6.37107 29.5703 6.19033 29.5168C5.88759 29.4289 5.86048 29.4155 6.07737 29.3218C6.32137 29.2166 6.13155 29.0789 6.26711 28.9757C6.4117 28.8648 6.61058 28.7673 6.7868 28.664C6.83199 28.6373 6.87267 28.6124 6.91786 28.5856C6.81393 28.5474 6.71906 28.4996 6.59706 28.4728C6.43891 28.4384 6.35758 28.3963 6.36661 28.2778C6.33498 28.2606 6.34845 28.3045 6.38459 28.316C6.42526 28.3275 6.52474 28.3179 6.57445 28.3046C6.70096 28.2682 6.76416 28.2204 6.73253 28.1803C6.71445 28.1592 6.62867 28.1325 6.57445 28.1325C6.47504 28.1325 6.3892 28.1745 6.36209 28.2778C5.85602 28.3562 5.33179 28.3944 4.80764 28.425C4.75342 28.4288 4.68568 28.3906 4.62242 28.3715C4.41457 28.3065 4.41454 28.3084 3.80455 28.2892C3.74129 28.2873 3.65548 28.2606 3.62385 28.2338C3.49281 28.1172 3.49737 27.9891 3.43411 27.8648C3.55159 27.7845 3.66898 27.7061 3.79098 27.6277C4.03498 27.469 4.35134 27.3294 4.54112 27.1554C4.50045 27.0617 4.44622 26.968 4.64504 26.8915C5.20985 26.7959 5.20537 26.7959 5.359 26.7042C5.79729 26.4441 6.23104 26.1821 6.68741 25.9259C6.80941 25.859 6.80943 25.8227 6.59254 25.794C6.52476 25.7864 6.45237 25.7844 6.38007 25.7883C6.15415 25.8016 5.92823 25.8361 5.70682 25.8284C5.48541 25.8227 5.32275 25.7385 5.14201 25.6869C4.95675 25.6334 4.7715 25.5779 4.58624 25.5225C4.37387 25.5282 4.16154 25.5818 3.94917 25.4957C3.7865 25.4288 3.58318 25.381 3.39792 25.3255C3.538 25.1802 3.80011 25.0693 4.00344 24.9412C4.1887 24.8246 4.19312 24.8265 4.69015 24.7366C4.92512 24.6946 5.00645 24.4785 4.80764 24.4154C4.56816 24.3389 4.31518 24.2681 4.07118 24.1955C3.85881 24.2012 3.64196 24.2529 3.43863 24.1668C3.28048 24.1018 3.09971 24.0578 2.83763 24.0827C2.39482 24.1247 1.94298 24.1458 1.49565 24.1802C1.34202 24.1917 1.17479 24.184 1.10701 24.119C1.06183 24.0731 1.19287 24.01 1.34198 23.9966C1.56791 23.9775 1.77122 23.9546 1.88418 23.859C1.99263 23.7634 2.19142 23.7347 2.42638 23.7213C2.48964 23.7175 2.56199 23.6945 2.59362 23.6716C2.75628 23.5607 2.93704 23.4651 3.28496 23.4689C3.42955 23.4307 3.50632 23.3829 3.46113 23.337C3.43402 23.3121 3.33918 23.2796 3.28496 23.2834C2.90993 23.3026 2.5349 23.3217 2.1689 23.3561C1.9972 23.3714 1.86609 23.3752 1.75765 23.3178C1.68084 23.2796 1.7215 23.228 1.86609 23.1725C1.99261 23.1247 2.0288 23.0693 2.01976 23.0043C1.99717 22.8532 1.86158 22.8092 1.42781 22.8188C1.11603 22.8264 1.03921 22.8016 0.971434 22.6716C0.95336 22.641 0.908255 22.5989 0.939884 22.5779C1.13418 22.4479 1.26071 22.2872 1.62671 22.2261C1.7713 22.2031 1.92487 22.2031 2.01524 22.1534C2.10561 22.1037 2.18698 22.0463 2.28187 21.9985C2.39935 21.9411 2.4806 21.8876 2.42638 21.8513C2.33601 21.7863 2.19147 21.7806 2.02428 21.8035C1.87969 21.8226 1.72606 21.8245 1.57695 21.836C1.31036 21.857 1.09352 21.8073 1.06189 21.7232C0.976041 21.5014 0.885645 21.2815 0.80883 21.0597C0.799793 21.0329 0.822324 20.9985 0.858472 20.9756C0.98499 20.8952 1.1206 20.8188 1.25163 20.7404C1.40526 20.6505 1.6493 20.6677 1.85715 20.6505C2.15086 20.6257 2.15076 20.6276 2.54387 20.444C2.69749 20.3713 2.9641 20.4 3.12225 20.335C3.17195 20.314 3.24877 20.2796 3.23521 20.2604C3.21714 20.2356 3.12681 20.2165 3.05904 20.205C2.99578 20.1935 2.91898 20.1878 2.8512 20.1935C2.02884 20.249 1.21101 20.3082 0.38864 20.3618C0.248566 20.3713 0.0949327 20.3293 0.0452292 20.27C-0.00447438 20.2146 0.00903701 20.1476 0 20.0845C0.131037 20.0061 0.28009 19.9335 0.393053 19.8493C0.478904 19.7843 0.578329 19.7556 0.750032 19.7518C0.975957 19.7461 1.19739 19.7231 1.45042 19.7059C1.92035 19.4268 2.3812 19.1342 2.88728 18.8551C3.09061 18.7423 3.04098 18.6275 3.08165 18.5071C3.12232 18.3962 3.42504 18.4134 3.62837 18.3809C3.79104 18.3541 3.84519 18.2929 3.78193 18.2508C3.74578 18.226 3.66449 18.1973 3.60124 18.1973C3.45212 18.1973 3.30302 18.2145 3.15391 18.2241C3.0048 18.2336 2.8331 18.2279 2.7111 18.2604C2.59362 18.291 2.51676 18.356 2.43995 18.4115C2.3541 18.4726 2.24121 18.4937 2.06951 18.4975C1.8481 18.5013 1.62671 18.5185 1.4053 18.5319C1.1613 18.4573 0.908215 18.3847 0.673253 18.3063C0.628068 18.291 0.618982 18.247 0.623501 18.2184C0.632538 18.1438 0.564778 18.0979 0.415667 18.0616C0.289149 18.031 0.185215 17.987 0.0677334 17.9487C0.158104 17.8971 0.257546 17.8474 0.329842 17.7919C0.48799 17.6753 0.686826 17.5912 1.03023 17.595C1.16579 17.5204 1.2742 17.4287 1.45042 17.377C1.61761 17.3273 1.90229 17.377 2.0288 17.2642C2.09206 17.2088 2.187 17.1457 2.309 17.1227C2.5033 17.0864 2.75633 17.1055 2.86929 16.9985C2.93707 16.9373 3.03644 16.8818 3.16748 16.8665C3.31659 16.8493 3.47018 16.8455 3.57862 16.8092C3.63736 16.79 3.70063 16.7594 3.70063 16.7327C3.70063 16.7155 3.61033 16.6887 3.54707 16.6772C3.48833 16.6638 3.41143 16.6543 3.34365 16.6581C3.11772 16.6696 2.89632 16.6906 2.6704 16.7021C2.60714 16.7059 2.53486 16.6925 2.46709 16.681C2.26827 16.6504 2.2818 16.6122 2.43995 16.5434C2.5981 16.4765 2.71112 16.3904 2.84216 16.312C2.98675 16.2986 3.16746 16.3044 3.26687 16.268C3.43405 16.2088 3.55151 16.1227 3.68706 16.0481C3.83617 16.0367 3.98979 16.0328 4.12986 16.0118C4.18861 16.0042 4.21574 15.9621 4.26544 15.9372C4.35581 15.8894 4.43269 15.8206 4.55469 15.7977C4.7535 15.7632 4.9975 15.7766 5.11498 15.6715C5.18276 15.6103 5.28664 15.5453 5.41316 15.5414C5.7656 15.5338 5.91472 15.4286 6.09546 15.3292C6.23101 15.2546 6.52021 15.2929 6.66932 15.2183C6.76872 15.1705 6.84106 15.1112 6.94047 15.0653C6.98114 15.0462 7.06696 15.0367 7.13474 15.0309C7.50525 15.0022 7.88028 14.9812 8.25079 14.9506C8.30953 14.9449 8.3638 14.9162 8.40899 14.8933C8.50387 14.8435 8.56255 14.7747 8.68003 14.7422C8.79751 14.7097 8.96467 14.7097 9.10927 14.7001C9.57467 14.6715 9.61086 14.6791 9.82322 14.5166C9.99493 14.3846 10.4152 14.4783 10.5553 14.333C10.6366 14.2489 10.7857 14.18 11.0522 14.1705C11.4273 14.1571 11.7978 14.1208 12.1728 14.0959C12.5072 14.073 12.5027 14.073 12.8642 13.8951C13.0268 13.8148 13.2664 13.8263 13.4787 13.811C13.7047 13.7957 13.9125 13.7728 14.0209 13.6772C14.1294 13.5835 14.3282 13.5529 14.5586 13.5395C14.771 13.5261 15.0105 13.5357 15.1777 13.4592C15.5844 13.2756 15.5799 13.2737 15.8645 13.2546C16.3119 13.224 16.7592 13.1934 17.2065 13.1609C17.5047 13.1399 17.8165 13.136 18.0966 13.094C18.3 13.0634 18.3903 12.9563 18.5213 12.8817C18.8919 12.8531 19.2624 12.8244 19.6329 12.7976C20.1525 12.7594 20.6766 12.725 21.2008 12.6886C21.4267 12.616 21.4584 12.4553 21.838 12.4477C22.0639 12.4439 22.2853 12.419 22.5112 12.4037C22.8863 12.377 23.2568 12.3425 23.6318 12.3292C23.9165 12.3196 23.9661 12.2163 24.1152 12.1513C24.1649 12.1284 24.2101 12.0959 24.2689 12.0901C24.8563 12.0366 25.4617 12.0251 26.0356 11.9467C26.0943 11.9391 26.1485 11.8989 26.1621 11.8702C26.1711 11.855 26.0943 11.8263 26.0446 11.8129C25.9859 11.7976 25.9091 11.7823 25.8458 11.7861C23.9797 11.9142 22.1136 12.0443 20.2474 12.1724C19.9854 12.1915 19.9854 12.1896 19.3483 12.3999C19.294 12.4171 19.2307 12.4362 19.1629 12.442C18.8647 12.4649 18.562 12.4783 18.2683 12.507C18.0288 12.5299 17.8301 12.507 17.6584 12.4381C17.5364 12.3884 17.4098 12.3731 17.2561 12.377C17.0844 12.3827 16.9715 12.4037 16.8721 12.4554C16.7411 12.5261 16.6733 12.6179 16.3977 12.637C15.128 12.7192 13.8582 12.811 12.593 12.8989C12.4168 12.8722 12.331 12.832 12.3761 12.7842C12.4032 12.7555 12.4575 12.7173 12.5117 12.7135C13.0313 12.6733 13.5555 12.6389 14.0751 12.6007C14.1474 12.5949 14.2468 12.5987 14.2875 12.5796C14.4863 12.4936 14.5586 12.354 14.9337 12.3444C15.1506 12.3387 15.3719 12.31 15.5798 12.2833C15.6385 12.2756 15.6928 12.2355 15.7063 12.2068C15.7108 12.1915 15.6385 12.1628 15.5843 12.1494C15.3855 12.094 15.1551 12.1609 14.9563 12.1227C14.8885 12.1093 14.7936 12.0901 14.78 12.0672C14.771 12.0462 14.8478 12.0117 14.902 11.9907C14.9517 11.9716 15.0195 11.9544 15.0872 11.9487C15.6837 11.9047 16.2802 11.8588 16.8767 11.8244C17.1207 11.811 17.2923 11.7632 17.4008 11.6752C17.4821 11.6102 17.5815 11.5758 17.7351 11.5662C18.7789 11.4955 19.8227 11.4171 20.8709 11.3521C21.133 11.3368 21.2686 11.2737 21.3771 11.1915C21.4629 11.1265 21.5623 11.1035 21.7295 11.092C23.2252 10.9926 24.7117 10.8817 26.2073 10.7861C26.483 10.7689 26.5643 10.6867 26.7044 10.6159C26.7541 10.5911 26.7857 10.5605 26.8489 10.5452C26.9122 10.5299 26.9935 10.5318 27.0703 10.528C28.2632 10.4457 29.4562 10.3578 30.6536 10.2813C30.9337 10.2641 30.9879 10.1685 31.1325 10.1016C31.1822 10.0805 31.2274 10.0461 31.2861 10.0404C32.1808 9.97539 33.0754 9.91421 33.9701 9.85111C34.5665 9.80904 35.163 9.76697 35.7594 9.72682C36.0531 9.7077 36.0531 9.70578 36.4507 9.52413C36.4959 9.5031 36.5592 9.47823 36.618 9.4725C38.335 9.35013 40.0475 9.23351 41.7645 9.11305C41.9091 9.10349 42.013 9.05949 42.0853 8.99448C42.1576 8.92947 42.2616 8.88549 42.4017 8.87593C43.7437 8.78033 45.0856 8.68664 46.4322 8.59678C46.6762 8.58148 46.8478 8.53559 46.9563 8.44954C47.0376 8.38453 47.137 8.35012 47.2906 8.34056C48.6326 8.24878 49.9747 8.15125 51.3212 8.0633C51.5788 8.04609 51.7052 7.98109 51.8318 7.90461C51.8769 7.87784 51.9131 7.83386 51.9673 7.83003C52.6361 7.77649 53.3003 7.72104 53.9735 7.68471C54.2537 7.66942 54.3486 7.5891 54.4616 7.51262C54.5519 7.45143 54.6559 7.43041 54.8276 7.42276C55.2026 7.40555 55.5731 7.37306 55.9391 7.34055C55.9933 7.33482 56.0611 7.29275 56.0656 7.26598C56.0747 7.21626 55.9707 7.18184 55.799 7.16463C54.0097 7.28892 52.2159 7.41319 50.4266 7.53748C50.1329 7.55851 50.1328 7.55852 49.7352 7.74017C49.69 7.7612 49.6267 7.78606 49.5635 7.7918C47.8464 7.91226 46.134 8.03081 44.4169 8.15127C44.2723 8.16083 44.1684 8.20481 44.0961 8.26982C44.0238 8.33483 43.9198 8.37881 43.7797 8.38837C42.1395 8.50309 40.4994 8.61973 38.8546 8.72872C38.6106 8.74402 38.439 8.78798 38.3305 8.87593C38.2492 8.94094 38.1498 8.97537 37.9961 8.98493C36.4282 9.09201 34.8648 9.20481 33.2923 9.30806C33.1342 9.31762 33.0168 9.26217 33.0258 9.21054C33.0303 9.18378 33.098 9.13982 33.1522 9.13599C33.9701 9.0729 34.7835 9.00788 35.6058 8.96008C35.8815 8.94478 35.9627 8.86064 36.1028 8.7899C36.148 8.76504 36.1842 8.73254 36.2429 8.71915C36.3062 8.70386 36.3875 8.70577 36.4643 8.70195C38.4027 8.56619 40.3412 8.42853 42.2842 8.30042C42.5643 8.2813 42.6185 8.18759 42.7631 8.12067C42.8128 8.09773 42.858 8.06332 42.9167 8.05949C43.5132 8.0136 44.1096 7.97344 44.7061 7.93329C45.7498 7.86063 46.7936 7.78797 47.8419 7.71531C48.1446 7.69428 48.1446 7.69427 48.5332 7.51453C48.5784 7.4935 48.6417 7.46675 48.7005 7.46293C51.4613 7.26981 54.2221 7.07668 56.9829 6.88548C57.1275 6.87592 57.2314 6.83194 57.3037 6.76693C57.376 6.70383 57.4799 6.65794 57.62 6.64647C61.3523 6.38643 65.08 6.12637 68.8123 5.87015C69.0563 5.85294 69.228 5.81279 69.3364 5.72292C69.4132 5.65791 69.5172 5.6235 69.6708 5.61203C73.7736 5.32713 77.8764 5.04223 81.9837 4.75542C84.7445 4.56421 87.5054 4.36918 90.2662 4.1818C90.5192 4.16459 90.6547 4.1053 90.7812 4.02691C90.8219 4.00014 90.8626 3.95616 90.9168 3.95234C91.5087 3.90453 92.1006 3.86056 92.6926 3.81659C92.8778 3.86821 93.0631 3.91793 93.2483 3.96956C93.3884 3.8969 93.524 3.82233 93.6641 3.74967C94.5588 3.69422 95.4398 3.60817 96.3435 3.5814C96.4023 3.57949 96.4655 3.61583 96.5288 3.63495C96.949 3.75541 97.1885 3.74585 97.4551 3.58523C97.55 3.52787 97.6313 3.47624 97.7759 3.46668C98.2232 3.43227 98.6752 3.40932 99.118 3.36917C99.3574 3.34813 99.5562 3.36725 99.7279 3.43608C99.8499 3.4858 99.9765 3.50684 100.126 3.49537C100.948 3.43801 101.766 3.38255 102.588 3.32136C102.647 3.31754 102.701 3.28502 102.746 3.26208C102.841 3.21236 102.922 3.15884 103.013 3.10721C103.135 3.13972 103.27 3.16458 103.37 3.20664C103.496 3.25636 103.614 3.25635 103.786 3.24296C107.066 3.0116 110.351 2.78598 113.631 2.55271C113.911 2.53358 114.034 2.6139 114.223 2.65597C114.287 2.67126 114.35 2.69037 114.418 2.6942C114.49 2.69802 114.567 2.68656 114.639 2.68082C117.102 2.50874 119.564 2.33855 122.027 2.16646C122.352 2.14352 122.352 2.14352 122.836 2.26207C122.894 2.27736 122.971 2.29457 123.034 2.28884C124.155 2.21427 125.276 2.13397 126.392 2.05748C126.536 2.04792 126.658 2.07851 126.789 2.12249C127.047 2.20853 127.065 2.20854 127.255 2.08234C127.345 2.02307 127.44 1.98672 127.589 1.96951C127.752 1.95039 127.883 1.95615 128.009 1.99057C128.19 2.03837 128.321 2.11866 128.597 2.09763C129.79 2.00776 130.987 1.9332 132.175 1.84142C132.446 1.82039 132.591 1.88539 132.772 1.93319C132.835 1.9504 132.894 1.97717 132.962 1.98291C133.029 1.98865 133.111 1.97525 133.183 1.96951C134.674 1.86626 136.17 1.76494 137.656 1.65404C137.936 1.63301 138.058 1.71521 138.248 1.75728C138.311 1.77257 138.384 1.79935 138.442 1.79553C139.337 1.73626 140.236 1.67314 141.131 1.61004C141.452 1.5871 141.452 1.58901 141.94 1.70565C141.998 1.72094 142.075 1.73624 142.139 1.73242C143.182 1.66167 144.231 1.58901 145.274 1.51635C145.595 1.49341 145.595 1.49341 146.522 1.59284C146.589 1.60049 146.662 1.61198 146.729 1.60815C147.922 1.52593 149.12 1.44561 150.313 1.35766C150.552 1.34045 150.751 1.35574 150.923 1.42458C151.045 1.47429 151.171 1.49533 151.32 1.48386C152.662 1.39017 154.009 1.30031 155.346 1.20088C155.604 1.18176 155.771 1.22381 155.952 1.27926C156.01 1.29838 156.069 1.32515 156.137 1.3328C156.205 1.34045 156.282 1.33279 156.354 1.32706C157.696 1.23337 159.042 1.14541 160.38 1.04407C160.651 1.02304 160.796 1.08805 160.976 1.13585C161.04 1.15306 161.107 1.18748 161.161 1.18557C161.686 1.15306 162.21 1.12439 162.729 1.07659C163.01 1.04982 163.132 1.13776 163.321 1.17982C163.385 1.19321 163.457 1.2219 163.516 1.21808C164.636 1.14351 165.757 1.06512 166.873 0.984812C167.031 0.97334 167.149 0.990533 167.275 1.04025C167.442 1.10717 167.637 1.13394 167.881 1.11291C168.4 1.06893 168.924 1.03834 169.448 1.00201C169.756 0.980982 169.756 0.980988 170.696 1.08042C170.763 1.08806 170.836 1.09953 170.903 1.0957C171.798 1.03452 172.697 0.975247 173.587 0.908325C173.827 0.889204 174.026 0.906408 174.197 0.975243C174.319 1.02496 174.441 1.046 174.595 1.03453C175.417 0.977166 176.235 0.919799 177.058 0.862437C177.356 0.841404 177.654 0.805065 177.952 0.805065C178.169 0.806977 178.327 0.898753 178.522 0.944643C178.576 0.958027 178.666 0.942748 178.739 0.938924C179.782 0.866265 180.831 0.799336 181.87 0.717117C182.141 0.696084 182.286 0.761091 182.466 0.808893C182.53 0.826101 182.597 0.860521 182.652 0.858609C183.027 0.837576 183.397 0.808892 183.772 0.784035C184.219 0.753442 184.671 0.730497 185.114 0.688431C185.476 0.654014 185.611 0.820359 185.9 0.826095C186.122 0.831831 186.348 0.799331 186.569 0.784035C187.016 0.753442 187.464 0.719028 187.911 0.692259C188.069 0.682699 188.191 0.652092 188.241 0.583257C188.25 0.569873 188.173 0.541204 188.123 0.523995C187.523 0.328963 187.522 0.328954 186.917 0.37102C186.542 0.397789 186.171 0.424563 185.796 0.447508C185.733 0.451332 185.661 0.436036 185.598 0.424564C185.417 0.392058 185.435 0.35382 185.589 0.284986C185.742 0.216151 185.86 0.132027 185.991 0.053632C186.176 0.103346 186.357 0.153042 186.542 0.202756C186.691 0.193196 186.84 0.18174 186.989 0.17218C187.735 0.122466 188.48 0.070836 189.226 0.0249461C189.28 0.021122 189.348 0.0593691 189.411 0.0784899C189.592 0.13394 189.755 0.181729 190.017 0.160696C190.685 0.105246 191.359 0.0650923 192.027 0.0172904C192.321 -0.00374247 192.321 -0.0037406 192.836 0.114808C192.895 0.128193 192.972 0.14349 193.035 0.139666C193.708 0.0956883 194.377 0.047892 195.05 0.00200216C195.195 -0.00755822 195.335 0.0172978 195.439 0.0727481C195.48 0.095693 195.471 0.133927 195.642 0.447508C196.175 0.701814 196.541 0.675058 196.912 0.652113C197.07 0.642552 197.21 0.632983 197.314 0.594741C197.368 0.573708 197.436 0.54311 197.436 0.518253C197.436 0.499133 197.337 0.468534 197.273 0.46471C196.826 0.426468 196.401 0.506787 195.963 0.523995C195.76 0.531644 195.583 0.46472 195.547 0.355732C195.538 0.325138 195.525 0.292635 195.511 0.262042C195.498 0.231449 195.489 0.198945 195.475 0.168352C195.299 0.158791 195.195 0.193203 195.118 0.258214C195.055 0.311752 194.964 0.372938 194.842 0.40162C194.72 0.432213 194.553 0.426487 194.404 0.436047C194.26 0.445608 194.101 0.470462 193.966 0.457077C193.83 0.441781 193.722 0.386321 193.595 0.351904C193.537 0.334695 193.464 0.309847 193.406 0.313672C192.886 0.346177 192.371 0.37867 191.856 0.420736C191.585 0.443681 191.449 0.363386 191.277 0.313672C191.142 0.27543 191.006 0.284978 190.984 0.372934C190.925 0.583262 191.133 0.671213 191.594 0.631059C191.973 0.596642 192.317 0.590924 192.615 0.720945C192.655 0.738153 192.75 0.745799 192.809 0.741975C193.18 0.71903 193.546 0.690346 193.916 0.667401C193.984 0.663577 194.056 0.671213 194.12 0.678861C195.041 0.782113 195.041 0.784036 195.353 0.761091C195.502 0.749618 195.647 0.740057 195.633 0.449421C195.918 0.137753 196.37 0.116724 196.808 0.0708341C197.093 0.042153 197.215 0.126288 197.4 0.170266C197.463 0.185562 197.531 0.21615 197.59 0.212326C198.561 0.149227 199.528 0.0822954 200.495 0.0115485C200.658 7.60812e-05 200.775 0.0115504 200.902 0.0612644C201.064 0.124363 201.245 0.164525 201.503 0.14158C202.018 0.0956902 202.542 0.0670156 203.066 0.028774C203.333 0.00965327 203.333 0.00963367 203.87 0.128182C203.929 0.141567 204.006 0.156864 204.069 0.15304C204.593 0.120535 205.113 0.0803936 205.633 0.0459762C205.777 0.0364158 205.908 0.0631821 206.021 0.114808C206.134 0.166434 206.27 0.1932 206.41 0.18364C206.934 0.149223 207.454 0.110993 207.973 0.0765759C208.036 0.0727518 208.113 0.0861354 208.172 0.0995199C208.723 0.218069 208.723 0.218049 208.976 0.198928C209.347 0.170247 209.726 0.156878 210.092 0.118636C210.449 0.0803945 210.635 0.191286 210.879 0.252472C211.547 0.208494 212.221 0.172174 212.885 0.118636C213.156 0.0956911 213.301 0.158784 213.481 0.208498C213.545 0.225707 213.608 0.26204 213.666 0.260128C213.892 0.252479 214.114 0.23145 214.335 0.216154C214.557 0.200857 214.783 0.185562 215.004 0.170266C215.257 0.225716 215.424 0.355735 215.786 0.311758C216.003 0.284989 216.233 0.279252 216.454 0.263956C216.676 0.248659 216.902 0.233364 217.123 0.218068C217.272 0.208507 217.426 0.202763 217.571 0.185554C217.837 0.156873 217.968 0.250576 218.158 0.292641C218.221 0.306026 218.293 0.328956 218.352 0.325132C218.8 0.298363 219.251 0.27542 219.69 0.231442C220.029 0.197025 220.259 0.254394 220.499 0.334702C220.548 0.35191 220.634 0.36147 220.697 0.357646C221.221 0.32514 221.741 0.284975 222.261 0.250558C222.401 0.240998 222.536 0.27159 222.649 0.321304C222.767 0.37293 222.898 0.397806 223.042 0.388245C223.562 0.353828 224.086 0.315575 224.606 0.281158C224.669 0.277334 224.746 0.292633 224.805 0.30793C225.311 0.426478 225.311 0.428392 225.609 0.405447C225.681 0.399711 225.758 0.395872 225.83 0.390136C226.201 0.363367 226.585 0.35382 226.946 0.30793C227.362 0.256304 227.665 0.321317 227.959 0.430305C228.329 0.40736 228.709 0.393973 229.07 0.355732C229.341 0.32705 229.486 0.399706 229.667 0.447508C229.73 0.464716 229.798 0.499134 229.852 0.495309C230.376 0.462804 230.9 0.434133 231.415 0.386331C231.695 0.359562 231.817 0.44559 232.007 0.489568C232.07 0.504864 232.138 0.531647 232.197 0.527823C232.495 0.512527 232.793 0.48957 233.092 0.468538C233.44 0.443681 233.439 0.445591 233.9 0.562227C234.117 0.617678 234.334 0.573698 234.547 0.560314C234.773 0.545017 234.985 0.533548 235.166 0.611943C235.279 0.661657 235.414 0.692251 235.554 0.684603C235.852 0.667394 236.155 0.650194 236.449 0.621513C236.684 0.598568 236.887 0.613856 237.059 0.684603C237.181 0.734317 237.307 0.759189 237.456 0.747717C238.125 0.701827 238.798 0.654007 239.467 0.610029C239.526 0.606205 239.607 0.62342 239.661 0.640629C239.788 0.675046 239.91 0.71328 240.032 0.751521C240.326 0.734312 240.628 0.726684 240.918 0.699915C241.225 0.673146 241.505 0.663582 241.745 0.768747C241.794 0.791692 241.866 0.824179 241.925 0.822267C242.151 0.814619 242.373 0.795504 242.594 0.780207C242.815 0.76491 243.041 0.749616 243.263 0.734319C243.52 0.782121 243.683 0.919789 244.044 0.875811C244.261 0.849042 244.492 0.843306 244.713 0.828009C244.935 0.812712 245.161 0.795505 245.382 0.782121C245.454 0.778297 245.536 0.768731 245.599 0.776379C245.667 0.784027 245.725 0.810802 245.784 0.829923C245.965 0.885373 246.132 0.94083 246.39 0.908325C246.606 0.881555 246.837 0.875817 247.058 0.858609C247.361 0.837576 247.361 0.83758 247.863 0.95804C248.066 1.00775 248.296 0.942747 248.491 0.984812C248.622 1.01349 248.735 1.06129 248.861 1.09379C248.915 1.10717 249.001 1.1129 249.064 1.10908C249.363 1.09187 249.665 1.07467 249.959 1.04599C250.199 1.02304 250.397 1.04599 250.565 1.11482C250.687 1.16453 250.809 1.18558 250.962 1.17411C251.708 1.12057 252.453 1.07466 253.194 1.01539C253.447 0.994356 253.651 1.02687 253.791 1.0957C254.03 1.21425 254.369 1.07467 254.618 1.17028C254.771 1.22955 254.925 1.29839 255.205 1.26971C255.72 1.22 256.244 1.19321 256.764 1.15879C256.949 1.21042 257.135 1.26206 257.324 1.31368C257.623 1.29265 257.921 1.27161 258.219 1.25248C258.44 1.23719 258.666 1.21998 258.888 1.2066C258.96 1.20277 259.037 1.19512 259.105 1.20468C259.172 1.21424 259.227 1.23911 259.29 1.25823C259.602 1.35192 259.602 1.35384 260.117 1.3156C260.338 1.29839 260.551 1.28692 260.736 1.3634C260.908 1.43415 261.111 1.44752 261.346 1.42649C261.789 1.38825 262.236 1.35957 262.688 1.3328C262.828 1.32324 262.959 1.35575 263.076 1.40546C263.253 1.48385 263.47 1.47621 263.691 1.45518C263.985 1.42841 264.274 1.40164 264.522 1.50872C264.572 1.53166 264.649 1.56415 264.703 1.56224C265.074 1.54694 265.449 1.53548 265.81 1.49915C266.172 1.46282 266.348 1.58137 266.596 1.63873C266.967 1.61387 267.342 1.58901 267.712 1.56415C267.785 1.55842 267.871 1.54122 267.934 1.55078C268.2 1.59093 268.354 1.73433 268.72 1.69036C268.932 1.6655 269.163 1.65786 269.384 1.65213C269.443 1.65021 269.52 1.6827 269.56 1.70756C269.583 1.72094 269.56 1.75727 269.533 1.77639C269.452 1.82993 269.353 1.87966 269.28 1.93511C269.271 1.94276 269.357 1.97716 269.407 1.99246C269.529 2.02687 269.669 2.02115 269.832 2.00585C269.972 1.99247 270.116 2.01924 270.216 2.0766C270.256 2.09955 270.243 2.13778 270.157 2.26398C270.157 2.35767 270.252 2.3156 270.283 2.25441C270.333 2.16645 270.238 2.13778 270.057 2.18558C269.931 2.22 269.868 2.26971 269.899 2.30987C269.917 2.3309 270.003 2.35767 270.157 2.26398C270.554 2.14926 270.853 2.12823 271.151 2.1072C271.228 2.10146 271.318 2.08233 271.372 2.0938C271.567 2.13969 271.747 2.19515 271.937 2.24678C272.154 2.23531 272.357 2.20661 272.57 2.28118C272.868 2.38635 272.882 2.37679 273.171 2.35576C273.32 2.34428 273.469 2.33474 273.618 2.32518C273.767 2.31562 273.885 2.34429 274.016 2.38827C274.282 2.47814 274.305 2.47813 274.481 2.35576C274.585 2.28119 274.657 2.25633 274.788 2.29075C275.222 2.40739 275.227 2.41503 275.597 2.38061C275.904 2.35193 276.194 2.34429 276.42 2.45327C276.573 2.52976 276.623 2.51255 276.745 2.43224C277.07 2.22 277.219 2.22382 277.829 2.37679C278.114 2.44944 278.408 2.37106 278.697 2.3615C278.941 2.35385 279.113 2.39973 279.131 2.52019C279.144 2.59476 279.185 2.64831 279.348 2.67317C279.411 2.68273 279.488 2.69611 279.551 2.69228C279.926 2.66934 280.296 2.64256 280.671 2.6158C280.861 2.60241 280.965 2.51256 280.929 2.39401C280.888 2.26781 280.961 2.22191 281.232 2.18558C281.394 2.16455 281.525 2.16839 281.657 2.2028C281.801 2.24105 281.76 2.27546 281.634 2.3443C281.331 2.51256 281.367 2.61579 281.756 2.73243C281.891 2.77258 282 2.80893 282.031 2.8682C282.05 2.8988 282.032 2.93895 282.072 2.96189C282.294 3.09 282.601 3.17223 282.944 3.23342C283.274 3.18179 283.5 3.26782 283.753 3.33665C283.952 3.39019 284.187 3.34431 284.399 3.32519C284.639 3.30416 284.838 3.31945 285.009 3.3902C285.131 3.43991 285.258 3.46285 285.407 3.45329C285.705 3.43225 286.008 3.41888 286.301 3.38828C286.554 3.36151 286.744 3.39976 286.902 3.46477C287.101 3.54699 287.323 3.49153 287.531 3.503C287.811 3.51639 287.951 3.68656 288.317 3.64067C288.534 3.6139 288.76 3.60434 288.986 3.59669C289.044 3.59478 289.117 3.62729 289.166 3.65024C289.406 3.7554 289.686 3.74966 289.993 3.71907C290.206 3.69803 290.413 3.67892 290.621 3.75158C290.965 3.87395 291.344 3.98104 291.706 4.09385C291.755 4.18181 291.719 4.28504 291.977 4.33666C292.112 4.36343 292.239 4.4036 292.343 4.44758C292.469 4.49921 292.587 4.51259 292.749 4.49921C293.043 4.47244 293.35 4.46669 293.64 4.43227C293.906 4.40167 294.073 4.46479 294.236 4.52407C294.367 4.57187 294.489 4.5948 294.647 4.56039C294.81 4.52788 294.927 4.54891 295.058 4.60053C295.244 4.67128 295.257 4.66364 295.872 4.68468C295.935 4.68659 296.012 4.71525 296.048 4.74011C296.066 4.75349 296.025 4.79176 295.994 4.81088C295.953 4.83382 295.89 4.86058 295.831 4.86631C295.162 4.91603 294.489 4.96 293.82 5.00972C293.753 5.01546 293.68 5.02885 293.631 5.04797C293.576 5.06901 293.509 5.09767 293.509 5.12444C293.509 5.14356 293.599 5.16651 293.662 5.1799C293.861 5.22387 294.096 5.15695 294.29 5.20667C294.421 5.23917 294.53 5.28505 294.661 5.31565C294.715 5.32903 294.801 5.32713 294.869 5.3233C295.095 5.30992 295.316 5.2908 295.542 5.27933C295.605 5.27742 295.677 5.29655 295.736 5.31184C296.17 5.42657 296.17 5.42656 296.545 5.4017C296.694 5.39214 296.852 5.36346 296.992 5.37493C297.128 5.3864 297.245 5.43803 297.367 5.47054C297.62 5.53937 297.86 5.60629 297.878 5.75543C297.887 5.8128 298.036 5.8625 298.185 5.86633C298.33 5.87015 298.483 5.84914 298.632 5.83766C298.985 5.81472 298.985 5.81472 299.441 5.93135C299.568 5.96386 299.703 5.96768 299.866 5.94855C299.929 5.94091 300.006 5.94856 300.074 5.95812C300.295 5.98681 300.295 6.02313 300.151 6.09196C299.947 6.1933 299.965 6.20287 300.535 6.28891C300.752 6.32142 300.919 6.38261 301.1 6.43614C301.393 6.52219 301.389 6.52217 301.195 6.63498C301.149 6.65984 301.109 6.68662 301.063 6.71339C300.932 6.78796 300.828 6.86826 300.557 6.87591C300.259 6.88356 299.961 6.91416 299.663 6.93519C299.374 6.95623 299.297 7.0021 299.324 7.13212C299.355 7.28891 299.414 7.30612 299.934 7.30421C300.083 7.30421 300.214 7.3195 300.327 7.37113C300.273 7.43231 300.173 7.48012 300.029 7.49159C299.658 7.52027 299.283 7.54513 298.913 7.56999C298.614 7.59102 298.316 7.61205 298.018 7.63308C297.833 7.64647 297.715 7.7459 297.765 7.8568C297.792 7.9199 297.815 7.983 297.837 8.0461C297.887 8.17229 297.982 8.20481 298.285 8.19907C298.361 8.19716 298.434 8.18185 298.506 8.18567C298.8 8.19906 298.94 8.35776 299.292 8.32525C299.586 8.29848 299.893 8.29275 300.182 8.25833C300.449 8.22774 300.598 8.29659 300.783 8.34822C300.847 8.36543 300.914 8.40174 300.969 8.39983C301.344 8.37879 301.719 8.35778 302.085 8.32145C302.256 8.30615 302.36 8.31762 302.496 8.36351C302.821 8.47441 302.83 8.46867 303.314 8.43425C303.666 8.40749 303.671 8.41131 304.123 8.52794C304.249 8.56045 304.385 8.56044 304.547 8.54515C304.76 8.52603 304.981 8.49543 305.202 8.52412C305.27 8.53176 305.356 8.55472 305.379 8.57957C305.392 8.59678 305.329 8.63885 305.275 8.65223C304.877 8.75166 304.412 8.73446 303.978 8.77461C303.842 8.78608 303.707 8.74975 303.594 8.69812C303.476 8.6465 303.35 8.62547 303.196 8.63503C302.898 8.65606 302.595 8.66944 302.302 8.70004C302.048 8.7268 301.872 8.68282 301.696 8.62355C301.637 8.60443 301.57 8.56809 301.511 8.57C300.842 8.60825 300.169 8.6465 299.505 8.70004C299.238 8.72298 299.084 8.6618 298.904 8.61017C298.84 8.59296 298.777 8.55663 298.718 8.55854C298.492 8.56619 298.271 8.58722 298.045 8.60252C297.223 8.65988 296.405 8.71724 295.582 8.77078C295.528 8.77461 295.461 8.73445 295.397 8.71724C295.275 8.68282 295.149 8.65031 295.022 8.61781C294.796 8.6331 294.575 8.65222 294.349 8.66369C294.186 8.67134 294.042 8.69812 294.019 8.77078C294.006 8.81858 294.155 8.86255 294.313 8.85873C294.466 8.85491 294.62 8.83196 294.747 8.85682C295.375 8.97919 295.375 8.9811 295.768 8.95625C296.111 8.9333 296.075 8.91417 296.378 9.01934C296.509 9.06523 296.626 9.09201 296.775 9.08054C297.146 9.05377 297.521 9.02699 297.896 9.00405C297.955 9.00022 298.032 9.01935 298.09 9.03465C298.533 9.14937 298.533 9.15319 298.899 9.12451C299.378 9.09009 299.396 9.08053 299.717 9.19717C299.938 9.27748 300.142 9.22202 300.354 9.2182C300.598 9.29277 300.865 9.3597 301.086 9.44384C301.348 9.54326 301.624 9.52604 301.922 9.49736C302.143 9.47632 302.36 9.46868 302.541 9.54707C302.713 9.61973 302.921 9.62739 303.155 9.60827C303.368 9.59106 303.585 9.55472 303.806 9.59679C303.865 9.60826 303.955 9.63695 303.951 9.65416C303.946 9.68093 303.887 9.71918 303.829 9.73065C303.413 9.80904 302.957 9.80712 302.518 9.84345C302.46 9.84919 302.383 9.82815 302.324 9.81285C302.198 9.77844 302.076 9.73829 301.954 9.70196C301.732 9.71343 301.506 9.71725 301.289 9.74019C301.122 9.7574 300.996 9.75551 300.874 9.70962C300.761 9.66755 300.639 9.61591 300.503 9.60253C300.368 9.58915 300.209 9.61783 300.06 9.6293C299.911 9.64077 299.74 9.63503 299.622 9.66562C299.505 9.69621 299.432 9.76314 299.355 9.81668C299.27 9.87596 299.152 9.89509 298.98 9.90083C298.822 9.90656 298.696 9.89891 298.578 9.84537C298.529 9.82242 298.461 9.80521 298.393 9.78991C298.33 9.77653 298.257 9.75549 298.199 9.75931C297.525 9.80329 296.857 9.85111 296.183 9.897C295.849 9.91994 295.854 9.91992 295.158 9.80711C295.094 9.79755 295.018 9.78417 294.954 9.788C294.579 9.81094 294.209 9.83771 293.834 9.86448C293.454 9.89125 293.459 9.88743 292.813 9.76697C292.695 9.74402 292.524 9.77462 292.383 9.77079C292.09 9.76123 291.945 9.60062 291.602 9.63122C291.308 9.65798 291.001 9.66372 290.707 9.69813C290.44 9.72873 290.287 9.66181 290.106 9.61019C290.043 9.59298 289.975 9.55473 289.921 9.55856C289.248 9.60062 288.579 9.64842 287.684 9.65416C287.463 9.65416 287.562 9.69432 287.707 9.7077C287.915 9.72874 287.982 9.68858 287.869 9.6121C287.788 9.55856 287.671 9.53177 287.576 9.54516C287.526 9.55281 287.463 9.58915 287.684 9.65416C287.919 9.72682 287.906 9.76696 287.946 9.78991C288.046 9.84536 288.186 9.8683 288.33 9.86066C288.556 9.84727 288.778 9.82815 289.004 9.81668C289.067 9.81286 289.144 9.82624 289.202 9.84154C289.699 9.96009 289.704 9.96774 290.233 9.92186C290.4 9.90847 290.522 9.90847 290.653 9.9448C290.834 9.99451 290.965 10.0786 291.24 10.0519C291.606 10.0155 291.981 9.99452 292.356 9.97348C292.415 9.96966 292.478 10.0041 292.546 10.0194C292.731 10.0653 292.867 10.1513 293.143 10.115C293.355 10.0863 293.585 10.0786 293.811 10.0729C293.87 10.071 293.96 10.1016 293.987 10.1264C294.042 10.1704 293.974 10.2221 293.82 10.2584C293.757 10.2737 293.671 10.2698 293.599 10.2756C293.301 10.2966 293.002 10.3196 292.704 10.3368C292.546 10.3463 292.397 10.375 292.379 10.4458C292.365 10.4936 292.528 10.5356 292.682 10.5318C292.908 10.5261 293.133 10.5108 293.35 10.4859C293.734 10.4438 294.069 10.4553 294.381 10.5758C294.602 10.6599 294.588 10.6293 294.823 10.8779C294.882 10.941 295.058 10.9467 295.212 10.9429C295.583 10.9333 295.754 10.962 295.723 11.0213C295.682 11.094 295.551 11.1169 295.384 11.1264C295.085 11.1417 294.787 11.1666 294.489 11.1876C294.417 11.1934 294.335 11.2048 294.268 11.201C294.2 11.1972 294.137 11.1743 294.078 11.157C293.951 11.1207 293.843 11.0653 293.707 11.0519C293.572 11.0385 293.414 11.0672 293.265 11.0786C293.115 11.0882 292.957 11.1169 292.822 11.1035C292.686 11.0901 292.573 11.0328 292.451 10.9984C292.392 10.9811 292.32 10.9544 292.261 10.9563C291.963 10.9716 291.665 10.9964 291.367 11.0156C291.001 11.0404 291.001 11.0404 290.558 10.9219C290.431 10.8874 290.3 10.8894 290.133 10.9047C289.772 10.9353 289.767 10.9295 289.108 10.8186C289.044 10.8071 288.967 10.7938 288.904 10.7995C288.231 10.8435 287.562 10.8913 286.893 10.9372C286.32 10.9773 286.32 10.9773 286.003 11.1685C285.768 11.31 285.764 11.31 285.994 11.375C286.179 11.4286 286.347 11.507 286.55 11.5356C286.74 11.5624 286.975 11.4764 287.183 11.5643C287.287 11.6083 287.422 11.6561 287.553 11.6638C287.761 11.6733 287.982 11.6179 288.181 11.702C288.281 11.7441 288.43 11.788 288.556 11.79C288.778 11.7938 289.004 11.7632 289.225 11.7498C289.293 11.746 289.37 11.746 289.433 11.7555C289.501 11.767 289.559 11.79 289.618 11.8091C289.799 11.8741 289.993 11.9047 290.228 11.8722C290.612 11.8186 290.956 11.8454 291.254 11.9678C291.294 11.985 291.394 11.9869 291.457 11.9793C291.62 11.9601 291.76 11.9582 291.882 11.9945C291.932 12.0098 292.004 12.0366 291.995 12.0538C291.981 12.0825 291.927 12.1207 291.868 12.1303C291.444 12.1953 290.987 12.203 290.549 12.2374C290.49 12.2412 290.418 12.2163 290.359 12.1991C290.233 12.1647 290.124 12.1074 289.989 12.094C289.853 12.0806 289.695 12.1054 289.546 12.115C289.397 12.1246 289.239 12.1532 289.103 12.1418C288.967 12.1284 288.841 12.0806 288.732 12.0385C288.606 11.9907 288.484 11.985 288.317 12.0041C288.1 12.029 287.874 12.0328 287.653 12.0462C287.531 12.0098 287.409 11.9697 287.282 11.9353C287.223 11.918 287.151 11.897 287.088 11.8989C286.79 11.9142 286.491 11.9372 286.193 11.9582C285.895 11.9792 285.895 11.9793 285.389 11.8607C285.33 11.8473 285.253 11.832 285.19 11.8358C284.815 11.8588 284.444 11.8875 284.069 11.9104C283.925 11.92 283.794 11.8932 283.676 11.8416C283.563 11.7899 283.428 11.7613 283.288 11.7708C282.691 11.811 282.095 11.8492 281.498 11.897C281.259 11.9161 281.055 11.8989 280.893 11.8301C280.703 11.7517 280.491 11.7708 280.269 11.7861C279.768 11.8244 279.763 11.8224 279.442 11.7249C279.379 11.7058 279.316 11.6695 279.257 11.6714C278.738 11.7001 278.213 11.7268 277.698 11.7727C277.427 11.7976 277.283 11.7307 277.102 11.681C277.039 11.6637 276.971 11.6274 276.917 11.6312C276.542 11.6523 276.166 11.6714 275.8 11.7096C275.434 11.7479 275.294 11.5701 275.019 11.572C274.644 11.5739 274.273 11.6179 273.903 11.6446C273.604 11.6657 273.306 11.6867 273.008 11.7077C272.71 11.7288 272.412 11.746 272.113 11.7708C271.955 11.7842 271.838 11.767 271.707 11.7192C271.54 11.6561 271.341 11.6064 271.16 11.549C270.884 11.4668 270.884 11.4668 270.55 11.4897C270.478 11.4955 270.401 11.4993 270.329 11.505C269.782 11.5471 269.782 11.5433 269.086 11.4228C269.054 11.4171 268.973 11.4381 268.941 11.4534C268.846 11.5031 268.761 11.5567 268.675 11.6083C268.553 11.5777 268.404 11.5605 268.322 11.5165C268.092 11.3922 267.73 11.5624 267.495 11.44C267.41 11.3941 267.26 11.354 267.125 11.3425C266.985 11.331 266.827 11.3578 266.682 11.3693C266.307 11.398 266.307 11.3961 265.986 11.5662C265.824 11.6504 265.589 11.6351 265.376 11.6542C265.155 11.6752 264.942 11.6867 264.757 11.6083C264.59 11.5375 264.387 11.5203 264.147 11.5433C263.854 11.572 263.551 11.5892 263.253 11.6064C263.189 11.6102 263.112 11.6007 263.049 11.5892C262.358 11.4764 262.358 11.4745 262.024 11.4993C261.874 11.5108 261.721 11.5146 261.576 11.5318C261.332 11.5624 261.147 11.5222 260.971 11.4611C260.912 11.4419 260.844 11.4056 260.785 11.4075C260.487 11.4171 260.194 11.4343 259.9 11.4515C259.674 11.4649 259.448 11.4725 259.231 11.4993C258.87 11.5433 258.693 11.419 258.445 11.3616C258.074 11.3865 257.699 11.4037 257.329 11.4381C257.157 11.4534 257.044 11.4477 256.913 11.4018C256.746 11.3444 256.592 11.2794 256.321 11.3081C255.96 11.3464 255.58 11.3597 255.21 11.3827C254.961 11.3234 254.78 11.2029 254.423 11.2469C254.207 11.2737 253.976 11.2794 253.755 11.2947C253.457 11.3157 253.158 11.3349 252.86 11.3578C252.539 11.3808 252.544 11.375 252.051 11.2622C251.767 11.1953 251.473 11.2699 251.184 11.2813C250.958 11.2909 250.845 11.3788 250.899 11.4917C250.953 11.6045 250.831 11.6924 250.623 11.7077C250.104 11.7441 249.58 11.7823 249.06 11.8148C248.997 11.8186 248.92 11.8052 248.861 11.7918C248.305 11.6714 248.305 11.6733 248.057 11.6905C247.686 11.7192 247.307 11.7345 246.941 11.7708C246.688 11.7957 246.502 11.7555 246.34 11.6905C246.213 11.6408 246.096 11.6293 245.933 11.6408C244.144 11.7689 242.354 11.8875 240.57 12.0194C240.303 12.0385 240.15 11.9831 239.969 11.9314C239.906 11.9142 239.847 11.8779 239.783 11.8779C239.634 11.8779 239.485 11.8951 239.336 11.9066C238.667 11.9525 237.999 12.0079 237.325 12.0423C237.041 12.0576 236.964 12.1456 236.842 12.2183C236.747 12.2737 236.639 12.2966 236.471 12.3043C236.309 12.3119 236.191 12.3024 236.065 12.2527C235.902 12.1877 235.717 12.1475 235.464 12.1743C235.17 12.2049 234.872 12.2183 234.569 12.2393C234.415 12.2489 234.298 12.2833 234.248 12.3521C234.239 12.3636 234.334 12.3923 234.388 12.4095C234.569 12.4668 234.741 12.5337 234.944 12.5739C235.152 12.6141 235.378 12.5682 235.595 12.5567C235.672 12.5529 235.744 12.5414 235.816 12.5433C235.884 12.5452 235.965 12.5548 236.015 12.572C236.25 12.658 236.498 12.7173 236.824 12.6657C237.104 12.6905 237.249 12.8492 237.606 12.8072C237.823 12.7823 238.048 12.7708 238.274 12.7613C238.333 12.7594 238.396 12.7938 238.46 12.811C238.64 12.8588 238.785 12.9353 239.056 12.9028C239.345 12.8684 239.652 12.8626 239.946 12.8359C240.109 12.8206 240.226 12.8339 240.353 12.8837C240.515 12.9468 240.701 12.9945 240.954 12.964C241.171 12.9372 241.401 12.9314 241.623 12.9142C241.912 12.8932 241.912 12.8951 242.427 13.0137C242.486 13.0271 242.562 13.0423 242.626 13.0385C243.001 13.0156 243.371 12.9869 243.746 12.964C243.891 12.9544 244.031 12.9792 244.13 13.0347C244.171 13.0576 244.157 13.0959 244.171 13.1284C243.425 13.18 242.68 13.224 241.939 13.2871C241.659 13.312 241.532 13.2336 241.347 13.1896C241.284 13.1743 241.216 13.1418 241.157 13.1456C240.633 13.1781 240.113 13.2125 239.594 13.2546C239.431 13.268 239.309 13.2603 239.187 13.2049C238.875 13.0576 238.496 13.138 238.143 13.159C237.872 13.1743 237.786 13.2336 237.818 13.3598C237.859 13.5089 238.021 13.5548 238.437 13.528C238.586 13.5185 238.735 13.5051 238.884 13.4974C239.029 13.4898 239.16 13.5146 239.277 13.5663C239.39 13.6179 239.526 13.6447 239.666 13.637C239.964 13.6198 240.267 13.6026 240.556 13.5739C240.796 13.551 240.994 13.5701 241.162 13.6408C241.347 13.7192 241.564 13.702 241.781 13.6848C242.287 13.6466 242.291 13.6485 242.608 13.7441C242.671 13.7632 242.734 13.7995 242.793 13.7976C243.312 13.769 243.837 13.7441 244.347 13.6982C244.614 13.6753 244.767 13.7364 244.944 13.7862C245.007 13.8034 245.07 13.8416 245.129 13.8378C245.504 13.8168 245.879 13.7957 246.245 13.7594C246.417 13.7422 246.521 13.7536 246.661 13.7995C246.995 13.9123 247.004 13.9085 247.478 13.8722C247.623 13.8607 247.781 13.8397 247.917 13.855C248.052 13.8703 248.161 13.9257 248.287 13.9602C248.346 13.9755 248.418 13.9965 248.482 13.9926C248.78 13.9774 249.078 13.9544 249.376 13.9334C249.656 13.9124 249.656 13.9143 250.181 14.0328C250.393 14.0825 250.614 14.0405 250.827 14.0252C251.057 14.008 251.265 14.008 251.441 14.0825C251.617 14.1571 251.83 14.1533 252.056 14.138C252.268 14.1227 252.485 14.0806 252.702 14.1323C253.199 14.2508 253.199 14.2527 253.506 14.2297C253.954 14.1972 254.396 14.1666 254.848 14.138C254.907 14.1341 254.984 14.1571 255.042 14.1724C255.169 14.2068 255.277 14.2642 255.413 14.2775C255.549 14.2928 255.707 14.2699 255.851 14.2584C256.317 14.2221 256.348 14.2087 256.66 14.3349C256.922 14.4382 257.248 14.289 257.492 14.4076C257.632 14.4745 257.821 14.528 258.083 14.4955C258.3 14.4688 258.526 14.4611 258.752 14.4458C259.109 14.421 259.109 14.4229 259.561 14.5376C259.62 14.5529 259.696 14.572 259.755 14.5682C260.053 14.5529 260.356 14.5395 260.645 14.5051C260.984 14.4649 261.201 14.5376 261.454 14.6084C261.653 14.6638 261.888 14.6179 262.1 14.5988C262.331 14.5797 262.539 14.5854 262.71 14.66C262.891 14.7364 263.104 14.7269 263.329 14.7116C263.542 14.6982 263.759 14.6542 263.976 14.7078C264.441 14.8263 264.441 14.8263 264.78 14.8034C265.078 14.7823 265.376 14.7594 265.675 14.7441C265.733 14.7403 265.806 14.7651 265.864 14.7823C265.991 14.8168 266.099 14.8741 266.235 14.8875C266.37 14.9009 266.528 14.876 266.678 14.8665C266.827 14.8569 266.985 14.8282 267.12 14.8397C267.256 14.8512 267.383 14.899 267.491 14.9411C267.617 14.9908 267.735 14.9965 267.907 14.9774C268.124 14.9525 268.349 14.9468 268.571 14.9334C268.693 14.9697 268.819 15.0061 268.937 15.0462C269.059 15.0883 269.19 15.0844 269.357 15.0711C269.913 15.0252 269.917 15.0309 270.383 15.1495C270.595 15.203 270.817 15.159 271.029 15.1456C271.255 15.1303 271.467 15.1227 271.643 15.1992C271.815 15.2718 272.028 15.2814 272.253 15.2584C272.398 15.2431 272.552 15.2336 272.701 15.2279C272.769 15.226 272.85 15.2336 272.9 15.2489C273.139 15.3292 273.374 15.4019 273.704 15.3502C273.993 15.3655 274.138 15.5223 274.486 15.4917C274.779 15.465 275.087 15.4592 275.376 15.4248C275.642 15.3942 275.832 15.4478 275.968 15.5147C276.212 15.6332 276.555 15.4726 276.799 15.5893C276.939 15.6562 277.12 15.7097 277.391 15.681C277.689 15.6504 277.784 15.6906 277.87 15.811C277.92 15.8799 277.911 15.9353 277.82 15.9889C277.73 16.0443 277.631 16.0348 277.486 15.9717C277.319 15.9009 277.12 15.8875 276.88 15.9028C276.645 15.9181 276.501 15.8187 276.307 15.7805C276.112 15.7403 275.882 15.8072 275.679 15.7556C275.2 15.6351 275.2 15.6351 274.874 15.6581C274.653 15.6734 274.422 15.681 274.206 15.7078C273.948 15.7403 273.781 15.681 273.605 15.6275C273.541 15.6084 273.478 15.572 273.424 15.5739C272.904 15.6026 272.38 15.6294 271.865 15.6772C271.594 15.7021 271.449 15.6332 271.268 15.5854C271.205 15.5682 271.137 15.5338 271.083 15.5376C270.636 15.5644 270.193 15.5988 269.746 15.6313C269.66 15.6829 269.565 15.7326 269.484 15.7881C269.398 15.8455 269.28 15.8703 269.109 15.8684C268.824 15.8684 268.544 15.9487 268.259 15.8474C267.965 15.7441 267.943 15.7499 267.658 15.7747C267.297 15.8072 266.913 15.7996 266.574 15.8741C266.515 15.8875 266.452 15.9238 266.452 15.9506C266.447 15.9678 266.542 15.9927 266.601 16.008C266.8 16.0539 267.03 15.987 267.229 16.0348C267.36 16.0654 267.468 16.1112 267.599 16.1437C267.654 16.1571 267.735 16.1552 267.807 16.1533C267.884 16.1514 267.956 16.138 268.029 16.1399C268.096 16.1418 268.169 16.1533 268.223 16.1705C268.472 16.2432 268.734 16.3101 268.955 16.3961C269.172 16.4803 269.375 16.4229 269.592 16.4191C270.46 16.5529 270.46 16.5548 271.043 16.5128C271.187 16.5032 271.336 16.4917 271.485 16.4937C271.549 16.4937 271.607 16.5281 271.671 16.5472C271.851 16.6045 272.023 16.6562 272.276 16.6256C272.493 16.5988 272.723 16.5931 272.945 16.5759C273.243 16.5548 273.243 16.5548 273.749 16.6753C273.876 16.7059 274.011 16.7021 274.174 16.6868C274.314 16.6734 274.458 16.7021 274.558 16.7575C274.599 16.7805 274.585 16.8187 274.599 16.8512C274.151 16.8818 273.699 16.9028 273.266 16.9487C272.985 16.9774 272.859 16.8952 272.674 16.8512C272.61 16.8359 272.543 16.8034 272.484 16.8072C272.041 16.8359 271.598 16.8684 271.156 16.9067C271.101 16.9105 271.034 16.9545 271.029 16.9812C271.02 17.0309 271.133 17.0787 271.296 17.0768C271.512 17.0749 271.725 17.0424 271.919 17.1208C272.082 17.1896 272.285 17.2203 272.525 17.1897C272.669 17.1724 272.823 17.1724 272.967 17.1571C273.352 17.1113 273.699 17.1208 273.989 17.2508C274.21 17.2853 274.427 17.2528 274.639 17.2355C274.797 17.2222 274.951 17.2088 275.064 17.2451C275.303 17.3216 275.538 17.3981 275.868 17.3464C276.225 17.4 276.496 17.5128 276.795 17.6046C276.935 17.6485 277.043 17.6734 277.206 17.6447C277.274 17.6333 277.355 17.6332 277.427 17.6275C277.576 17.6179 277.734 17.5893 277.87 17.6007C278.006 17.6141 278.118 17.6696 278.24 17.704C278.299 17.7212 278.367 17.7499 278.426 17.748C278.652 17.7384 278.873 17.7193 279.094 17.704C279.316 17.6906 279.537 17.6772 279.759 17.6638C279.944 17.7136 280.134 17.7633 280.319 17.813C280.617 17.792 280.915 17.7709 281.209 17.7518C281.539 17.7289 281.539 17.7308 282.013 17.8493C282.226 17.9029 282.452 17.8684 282.655 17.8436C282.994 17.8034 283.22 17.8761 283.459 17.9526C283.509 17.9679 283.599 17.9774 283.658 17.9698C283.893 17.943 284.096 17.964 284.268 18.0348C284.39 18.0845 284.512 18.1075 284.661 18.0979C285.181 18.0616 285.701 18.0233 286.22 17.9908C286.283 17.987 286.356 18.0042 286.414 18.0195C286.875 18.1361 286.88 18.1419 287.219 18.1113C287.521 18.0845 287.802 18.073 288.041 18.1782C288.091 18.2011 288.168 18.2336 288.222 18.2317C288.592 18.2126 288.967 18.1916 289.333 18.1591C289.501 18.1438 289.618 18.1495 289.749 18.1935C289.916 18.2489 290.065 18.3159 290.341 18.291C291.105 18.2203 291.109 18.2317 292.013 18.3637C292.076 18.3732 292.162 18.3579 292.234 18.3503C292.388 18.3312 292.501 18.3579 292.636 18.4019C292.939 18.5013 292.948 18.4956 293.237 18.4746C293.459 18.4574 293.689 18.4535 293.906 18.4249C294.24 18.3828 294.462 18.4574 294.71 18.5281C294.909 18.5836 295.14 18.5377 295.352 18.5205C295.582 18.5013 295.79 18.5071 295.962 18.5797C296.08 18.6294 296.206 18.6562 296.355 18.6467C296.875 18.6122 297.394 18.574 297.914 18.5396C297.977 18.5357 298.054 18.551 298.113 18.5644C298.628 18.683 298.628 18.6887 299.139 18.6447C299.301 18.6314 299.437 18.6275 299.559 18.6677C299.676 18.7059 299.803 18.7423 299.925 18.7786C300.146 18.7652 300.372 18.7614 300.589 18.7384C300.756 18.7212 300.874 18.7289 301.005 18.769C301.176 18.8207 301.321 18.9105 301.592 18.8665C301.732 18.8455 301.895 18.8512 302.035 18.8321C302.202 18.8073 302.315 18.8226 302.446 18.8723C302.609 18.9315 302.776 18.9927 303.038 18.9621C303.327 18.9277 303.634 18.922 303.928 18.8952C304.091 18.8799 304.204 18.8952 304.335 18.9449C304.498 19.008 304.683 19.0482 304.936 19.0233C305.451 18.9755 305.455 18.9851 305.957 19.1055C306.083 19.1361 306.219 19.1323 306.382 19.117C306.522 19.1036 306.666 19.1323 306.766 19.1878C306.861 19.249 306.852 19.2872 306.861 19.3197ZM266.596 2.07469C266.447 2.08425 266.298 2.09572 266.081 1.92937C266.068 1.90069 266.077 1.86628 266.045 1.84142C265.973 1.78979 265.86 1.75347 265.724 1.74773C265.48 1.74008 265.186 1.80508 265.191 1.85479C265.196 1.89686 265.272 1.93318 265.421 1.9676C265.485 1.98098 265.534 2.00393 265.593 2.01923C265.765 2.06321 265.9 2.14926 266.149 2.10529C266.126 2.04601 266.104 1.98674 266.149 2.10529C266.126 2.17795 266.194 2.22957 266.357 2.25061C266.402 2.25634 266.47 2.25251 266.506 2.24104C266.646 2.19897 266.669 2.14162 266.565 1.99057C266.547 2.01542 266.56 2.05939 266.601 2.07086C266.641 2.08233 266.741 2.07278 266.791 2.0594C266.917 2.02307 266.98 1.97526 266.949 1.93511C266.931 1.91408 266.845 1.88731 266.791 1.88731C266.696 1.88731 266.61 1.92937 266.596 2.07469ZM303.133 24.249C302.803 24.2854 302.424 24.272 302.094 24.3465C302.035 24.3599 301.976 24.3944 301.972 24.4211C301.967 24.4383 302.058 24.4632 302.112 24.4766C302.234 24.5072 302.369 24.4976 302.527 24.488C302.767 24.4747 302.907 24.5626 303.092 24.6066C303.151 24.62 303.228 24.6295 303.291 24.6257C303.657 24.6028 304.019 24.5779 304.385 24.5512C304.448 24.5454 304.516 24.532 304.57 24.5148C304.751 24.4594 304.732 24.423 304.556 24.381C304.362 24.3351 304.208 24.2586 304.01 24.2223C303.725 24.1706 303.436 24.2395 303.133 24.249ZM277.472 25.6449C277.251 25.6602 277.034 25.6754 276.813 25.6907C276.74 25.6965 276.663 25.6984 276.596 25.706C276.456 25.7194 276.352 25.7596 276.284 25.8227C276.388 25.8724 276.514 25.9011 276.654 25.8953C276.876 25.8839 277.093 25.859 277.314 25.8533C277.554 25.8456 277.694 25.9317 277.879 25.9756C277.938 25.989 278.01 25.9909 278.078 25.9928C278.412 26.0005 278.616 25.9011 278.552 25.7615C278.507 25.6525 278.335 25.5875 278.128 25.6009C277.911 25.6143 277.689 25.6296 277.472 25.6449ZM304.678 21.423C304.732 21.3905 304.791 21.3675 304.818 21.3389C304.9 21.2413 304.868 21.1687 304.719 21.0922C304.538 20.9985 304.317 21.0616 304.113 21.0712C304.064 21.0731 304.01 21.1132 303.982 21.1381C303.964 21.1553 303.964 21.1916 303.991 21.2012C304.213 21.2777 304.448 21.3484 304.678 21.423ZM265.48 15.7747C265.263 15.79 265.042 15.8015 264.825 15.8225C264.771 15.8283 264.721 15.8646 264.69 15.8894C264.631 15.9353 264.694 15.9984 264.879 16.0042C265.092 16.0118 265.313 15.9793 265.534 15.964C265.815 15.9449 265.982 15.8741 265.878 15.8129C265.778 15.7537 265.643 15.7422 265.48 15.7747ZM27.6306 11.6886C27.7752 11.6791 27.9243 11.6714 28.0689 11.658C28.2044 11.6446 28.3085 11.6026 28.3762 11.5395C28.2633 11.4898 28.1367 11.463 27.9966 11.4687C27.7752 11.4802 27.5584 11.4955 27.3415 11.5146C27.2059 11.5261 27.0749 11.5681 27.0433 11.6332C27.0117 11.6829 27.3143 11.7116 27.6306 11.6886ZM246.371 11.3941C246.43 11.4114 246.489 11.4458 246.548 11.4458C246.692 11.4458 246.841 11.4343 246.977 11.4152C247.036 11.4075 247.081 11.3731 247.108 11.3463C247.126 11.3291 247.122 11.2985 247.094 11.2833C246.963 11.1915 246.439 11.224 246.353 11.3291C246.344 11.3483 246.367 11.3731 246.371 11.3941ZM232.116 0.923613C232.129 0.954206 232.134 0.984795 232.152 1.01539C232.188 1.07275 232.287 1.11483 232.432 1.14351C232.545 1.0957 232.604 1.04217 232.599 0.984812C232.595 0.954219 232.581 0.923606 232.563 0.893013C232.527 0.835651 232.427 0.7936 232.283 0.764919C232.17 0.810809 232.116 0.864338 232.116 0.923613ZM315.12 25.9776C315.08 26.0024 315.039 26.0273 314.994 26.0502C315.116 26.1057 315.229 26.1229 315.315 26.0923C315.369 26.0732 315.401 26.0445 315.441 26.0196C315.319 25.9642 315.211 25.9489 315.12 25.9776ZM312.31 26.2376C312.369 26.2548 312.423 26.2778 312.486 26.2892C312.59 26.3083 312.685 26.2758 312.757 26.207C312.699 26.1898 312.644 26.1668 312.581 26.1554C312.477 26.1362 312.382 26.1688 312.31 26.2376ZM314.09 25.8877C314.059 25.9336 314.122 25.9718 314.289 26.0043C314.33 25.9795 314.384 25.9565 314.411 25.9298C314.456 25.8858 314.379 25.8456 314.217 25.815C314.172 25.838 314.131 25.8628 314.09 25.8877ZM304.552 23.8265C304.52 23.8724 304.583 23.9106 304.751 23.9431C304.791 23.9182 304.845 23.8953 304.873 23.8685C304.918 23.8246 304.841 23.7844 304.678 23.7538C304.633 23.7768 304.592 23.8016 304.552 23.8265ZM291.557 10.2966C291.516 10.3215 291.475 10.3463 291.43 10.3693C291.552 10.4247 291.665 10.4419 291.751 10.4113C291.805 10.3922 291.837 10.3635 291.877 10.3387C291.755 10.2832 291.647 10.2679 291.557 10.2966ZM279.108 3.11867C279.216 3.13206 279.307 3.1053 279.384 3.03455C279.325 3.01734 279.271 2.9944 279.207 2.98292C279.103 2.9638 279.009 2.99632 278.936 3.06515C278.995 3.08427 279.054 3.10146 279.108 3.11867ZM272.497 2.66934C272.457 2.6942 272.416 2.71905 272.371 2.742C272.493 2.79745 272.606 2.81465 272.692 2.78406C272.746 2.76494 272.778 2.73626 272.818 2.7114C272.696 2.65595 272.588 2.64257 272.497 2.66934ZM227.669 0.921699C227.629 0.946556 227.588 0.971414 227.543 0.994359C227.665 1.04981 227.778 1.06701 227.864 1.03642C227.918 1.0173 227.95 0.988616 227.99 0.963759C227.868 0.908309 227.76 0.89493 227.669 0.921699ZM4.45971 16.4783C4.40097 16.4611 4.34228 16.4439 4.28806 16.4248C4.15702 16.4765 4.11637 16.5242 4.18866 16.5606C4.23385 16.5835 4.30157 16.5969 4.36031 16.6141C4.49587 16.5625 4.52748 16.5166 4.45971 16.4783Z" fill="#FFE492"/>
<path d="M30.6679 9.72705C30.1483 9.76338 29.6332 9.80925 29.1136 9.8322C28.838 9.84367 28.7386 9.92589 28.6257 10.0024C28.5353 10.0636 28.4314 10.0827 28.2642 10.0941C26.8544 10.1878 25.4491 10.2873 24.0439 10.3848C23.8676 10.3599 23.7818 10.3198 23.8225 10.272C23.8451 10.2433 23.8993 10.2031 23.9535 10.1993C24.916 10.1286 25.8738 10.0559 26.8408 10.0005C27.1164 9.98516 27.1933 9.90103 27.3333 9.8322C27.3785 9.80925 27.4147 9.77484 27.4734 9.76145C27.5322 9.74615 27.618 9.74807 27.6948 9.74425C29.2492 9.63526 30.8036 9.52819 32.358 9.4192C32.5342 9.44406 32.62 9.48421 32.5794 9.53201C32.5568 9.56069 32.5025 9.60085 32.4483 9.60467C31.8519 9.64482 31.2599 9.68498 30.6679 9.72705Z" fill="#FFE492"/>
<path d="M315.18 19.9086C314.945 19.9316 314.647 19.9641 314.403 19.8532C314.285 19.7996 314.159 19.7824 314.005 19.7939C313.784 19.813 313.558 19.8283 313.332 19.8398C313.273 19.8417 313.196 19.8207 313.138 19.8035C313.011 19.769 312.903 19.7117 312.767 19.6964C312.631 19.6811 312.469 19.7232 312.329 19.7136C312.143 19.7002 312.067 19.6486 312.116 19.6008C312.143 19.574 312.198 19.5358 312.256 19.53C313.092 19.4593 313.097 19.4593 313.332 19.5281C313.513 19.5817 313.68 19.6409 313.937 19.6084C314.154 19.5817 314.385 19.5759 314.606 19.5587C314.913 19.5358 314.913 19.5377 315.41 19.6581C315.537 19.6887 315.672 19.6868 315.835 19.6696C315.975 19.6562 316.111 19.6868 316.224 19.7385C316.151 19.8035 316.047 19.8455 315.907 19.857C315.681 19.8761 315.46 19.8895 315.18 19.9086Z" fill="#FFE492"/>
<path d="M306.859 19.3198C307.429 19.2797 308.003 19.2453 308.572 19.1994C308.807 19.1803 308.992 19.2013 309.155 19.2663C309.331 19.337 309.53 19.3313 309.747 19.3179C309.882 19.3103 310.013 19.3409 310.104 19.3944C310.14 19.4154 310.131 19.4537 310.144 19.4843C309.647 19.5187 309.146 19.555 308.644 19.5856C308.586 19.5894 308.513 19.5703 308.459 19.555C308.337 19.5225 308.233 19.4652 308.102 19.4537C307.822 19.4269 307.542 19.4785 307.257 19.4881C307.122 19.4919 306.99 19.4632 306.9 19.4116C306.864 19.3868 306.873 19.3504 306.859 19.3198Z" fill="#FFE492"/>
<path d="M101.11 2.87945C101.702 2.83738 102.294 2.79725 102.886 2.75518C103.062 2.78195 103.143 2.82018 103.107 2.86799C103.084 2.89667 103.03 2.93682 102.976 2.94065C101.792 3.02669 100.608 3.1089 99.429 3.19112C99.2528 3.16435 99.1715 3.12611 99.2076 3.07831C99.2302 3.04963 99.2845 3.00947 99.3387 3.00565C99.9261 2.96167 100.518 2.92151 101.11 2.87945Z" fill="#FFE492"/>
<path d="M9.89863 13.5047C9.63204 13.5086 9.35195 13.5793 9.05373 13.5258C8.99499 13.5162 8.91363 13.4856 8.91815 13.4684C8.92719 13.4397 8.98142 13.4034 9.04016 13.3919C9.29771 13.3441 9.61856 13.3384 9.74959 13.2045C9.81285 13.1357 9.93033 13.1128 10.0885 13.0994C10.2557 13.0841 10.3731 13.0898 10.5041 13.13C10.6759 13.1816 10.8205 13.2772 11.0916 13.2275C11.1051 13.2581 11.1367 13.2925 11.1231 13.3212C11.1096 13.3499 11.0509 13.3766 10.9967 13.3977C10.947 13.4168 10.8792 13.434 10.8159 13.4397C10.5177 13.4627 10.2194 13.4818 9.89863 13.5047Z" fill="#FFE492"/>
<path d="M244.899 13.1206C245.12 13.1053 245.351 13.0976 245.567 13.0709C245.739 13.0498 245.848 13.0632 245.983 13.1091C246.214 13.1894 246.227 13.1818 246.792 13.1932C246.855 13.1952 246.932 13.2238 246.968 13.2487C246.991 13.2621 246.959 13.2984 246.932 13.3175C246.891 13.3424 246.833 13.3749 246.778 13.3749C246.421 13.3806 246.06 13.4934 245.712 13.3634C245.536 13.2984 245.341 13.2678 245.102 13.2965C244.957 13.3137 244.804 13.3213 244.655 13.329C244.51 13.3366 244.361 13.3156 244.271 13.2582C244.14 13.1741 244.216 13.1416 244.451 13.1473C244.6 13.1512 244.75 13.1301 244.899 13.1206Z" fill="#FFE492"/>
<path d="M326.792 26.3009C327.076 26.2818 327.361 26.2589 327.65 26.2436C327.709 26.2397 327.781 26.2608 327.835 26.2742C328.052 26.3315 328.021 26.429 328.03 26.5151C328.034 26.6049 327.533 26.6776 327.32 26.6164C327.085 26.5476 326.873 26.4692 326.548 26.5113C326.421 26.5266 326.272 26.4921 326.191 26.4367C326.069 26.3564 326.136 26.3239 326.367 26.3296C326.502 26.3334 326.647 26.3124 326.792 26.3009Z" fill="#FFE492"/>
<path d="M183.339 0.275631C183.632 0.254598 183.926 0.222108 184.22 0.220196C184.391 0.218284 184.477 0.281371 184.436 0.32726C184.414 0.355942 184.36 0.396096 184.305 0.39992C183.718 0.44581 183.131 0.484058 182.543 0.526124C182.372 0.499355 182.286 0.459208 182.326 0.413318C182.349 0.384637 182.403 0.346394 182.457 0.340658C182.751 0.313889 183.045 0.296663 183.339 0.275631Z" fill="#FFE492"/>
<path d="M321.158 20.0769C321.443 20.0577 321.732 20.029 322.017 20.0195C322.166 20.0157 322.283 20.0596 322.301 20.1094C322.31 20.1323 322.238 20.1725 322.179 20.182C321.773 20.247 321.334 20.2547 320.91 20.2872C320.774 20.2967 320.629 20.2661 320.548 20.2126C320.426 20.1304 320.494 20.0998 320.724 20.1055C320.869 20.1075 321.013 20.0864 321.158 20.0769Z" fill="#FFE492"/>
<path d="M252.363 13.379C252.508 13.3694 252.657 13.3445 252.797 13.3522C252.946 13.3618 253.041 13.4172 253.086 13.4727C253.136 13.5358 253.131 13.595 253.086 13.6486C253.014 13.7404 252.941 13.7365 252.774 13.6753C252.517 13.5797 252.499 13.5912 251.988 13.595C251.929 13.595 251.857 13.5663 251.812 13.5415C251.744 13.5032 251.78 13.444 251.938 13.4096C252.056 13.3847 252.218 13.3885 252.363 13.379Z" fill="#FFE492"/>
<path d="M310.57 19.4495C310.782 19.4342 310.995 19.4093 311.207 19.4093C311.356 19.4074 311.474 19.4514 311.487 19.4992C311.492 19.5221 311.424 19.5604 311.37 19.5719C311.112 19.6235 310.823 19.6273 310.543 19.6445C310.412 19.6522 310.267 19.6216 310.186 19.568C310.064 19.4877 310.136 19.4514 310.358 19.4629C310.425 19.4667 310.498 19.4552 310.57 19.4495Z" fill="#FFE492"/>
<path d="M277.148 17.1038C276.832 17.1267 276.533 17.098 276.556 17.0483C276.588 16.9833 276.719 16.9412 276.854 16.9298C277.071 16.9106 277.288 16.8953 277.509 16.8839C277.649 16.8762 277.776 16.9049 277.889 16.9546C277.821 17.0158 277.717 17.0598 277.582 17.0732C277.442 17.0865 277.292 17.0942 277.148 17.1038Z" fill="#FFE492"/>
<path d="M275.072 16.8591C275.284 16.8438 275.497 16.8189 275.709 16.8189C275.858 16.817 275.976 16.861 275.989 16.9088C275.994 16.9317 275.926 16.97 275.872 16.9814C275.614 17.0331 275.325 17.0369 275.045 17.0541C274.914 17.0617 274.769 17.0311 274.688 16.9776C274.566 16.8973 274.638 16.861 274.86 16.8725C274.927 16.8763 275 16.8648 275.072 16.8591Z" fill="#FFE492"/>
<path d="M249.802 13.3635C250.015 13.3482 250.227 13.3233 250.44 13.3214C250.589 13.3195 250.706 13.3635 250.72 13.4113C250.724 13.4342 250.656 13.4706 250.602 13.4839C250.345 13.5356 250.055 13.5394 249.775 13.5566C249.644 13.5642 249.5 13.5337 249.418 13.4801C249.296 13.3998 249.369 13.3635 249.59 13.3749C249.658 13.3788 249.73 13.3673 249.802 13.3635Z" fill="#FFE492"/>
<path d="M248.613 13.2509C248.838 13.2356 248.911 13.226 248.983 13.226C249.119 13.226 249.259 13.249 249.34 13.3044C249.462 13.3847 249.39 13.4077 249.168 13.4115C248.884 13.4153 248.604 13.4555 248.319 13.4632C248.17 13.467 248.052 13.4211 248.043 13.3733C248.039 13.3503 248.106 13.3102 248.161 13.3025C248.35 13.2738 248.558 13.2566 248.613 13.2509Z" fill="#FFE492"/>
<path d="M273.233 2.0021C273.088 2.01167 272.935 2.03844 272.799 2.02888C272.618 2.01549 272.546 1.96387 272.591 1.91607C272.618 1.8893 272.668 1.85106 272.722 1.84532C273.011 1.81856 273.305 1.80133 273.594 1.78221C273.766 1.81089 273.843 1.85104 273.798 1.89885C273.771 1.92561 273.721 1.96194 273.667 1.96959C273.527 1.98871 273.377 1.99254 273.233 2.0021Z" fill="#FFE492"/>
<path d="M97.8713 3.10522C98.0113 3.10331 98.1378 3.12816 98.2462 3.17597C98.1784 3.23715 98.0791 3.27731 97.9435 3.29451C97.8757 3.30216 97.7989 3.30789 97.7266 3.3098C97.5866 3.31363 97.46 3.28686 97.3516 3.23906C97.4193 3.17787 97.5232 3.13772 97.6543 3.12051C97.722 3.11286 97.799 3.11096 97.8713 3.10522Z" fill="#FFE492"/>
<path d="M319.613 20.0695C319.609 20.014 319.884 19.9509 320.133 19.9528C320.264 19.9547 320.4 19.9815 320.476 20.0331C320.594 20.1115 320.526 20.1421 320.305 20.1364C320.169 20.1326 320.024 20.1651 319.889 20.1593C319.735 20.1574 319.645 20.1153 319.613 20.0695Z" fill="#FFE492"/>
<path d="M253.674 13.61C253.67 13.589 253.647 13.5642 253.661 13.545C253.746 13.4399 254.266 13.4074 254.402 13.4991C254.424 13.5164 254.433 13.545 254.415 13.5622C254.388 13.589 254.338 13.6234 254.284 13.6311C254.144 13.6502 253.999 13.6598 253.855 13.6617C253.792 13.6617 253.733 13.6292 253.674 13.61Z" fill="#FFE492"/>
<path d="M11.509 13.1994C10.9759 13.2395 10.9668 13.2357 11.0617 13.1401C11.1476 13.054 11.3057 13.0024 11.5362 13.0024C11.604 13.0024 11.6762 12.9986 11.735 13.0062C11.7982 13.0158 11.8886 13.0349 11.9022 13.0579C11.9293 13.1018 11.8524 13.1496 11.7169 13.1821C11.6581 13.1974 11.5813 13.1936 11.509 13.1994Z" fill="#FFE492"/>
<path d="M104.544 2.8355C104.386 2.86801 104.25 2.85654 104.151 2.79536C104.052 2.73417 104.21 2.6615 104.485 2.6443C104.558 2.64047 104.634 2.62519 104.702 2.63284C104.77 2.63857 104.838 2.6615 104.878 2.68444C104.951 2.72268 104.906 2.77432 104.761 2.8183C104.702 2.83551 104.616 2.83168 104.544 2.8355Z" fill="#FFE492"/>
<path d="M318.672 19.9255C318.712 19.9007 318.753 19.8758 318.798 19.8529C318.965 19.8854 319.038 19.9236 318.992 19.9676C318.965 19.9944 318.911 20.0173 318.87 20.0422C318.703 20.0097 318.635 19.9695 318.672 19.9255Z" fill="#FFE492"/>
<path d="M18.666 34.966C18.666 34.9431 18.7293 34.9068 18.779 34.8991C18.8739 34.8857 18.9913 34.9125 19.0726 34.966C19.1856 35.0425 19.1179 35.0827 18.91 35.0616C18.7654 35.0463 18.666 35.0081 18.666 34.966Z" fill="#FFE492"/>
<path d="M255.512 11.8302C255.571 11.8474 255.63 11.8646 255.684 11.8837C255.607 11.9544 255.512 11.985 255.413 11.9659C255.349 11.9544 255.295 11.9315 255.236 11.9143C255.313 11.8435 255.404 11.8168 255.512 11.8302Z" fill="#FFE492"/>
<path d="M253.95 11.7442C254.041 11.7155 254.149 11.7308 254.275 11.7863C254.235 11.8112 254.199 11.8398 254.149 11.859C254.063 11.8896 253.95 11.8742 253.828 11.8169C253.864 11.7939 253.905 11.7691 253.95 11.7442Z" fill="#FFE492"/>
<path d="M252.752 11.8286C252.811 11.8458 252.87 11.8631 252.924 11.8822C252.847 11.9529 252.757 11.9835 252.653 11.9644C252.589 11.9529 252.535 11.93 252.477 11.9128C252.553 11.842 252.644 11.8133 252.752 11.8286Z" fill="#FFE492"/>
<path d="M251.87 11.727C251.938 11.7653 251.902 11.8111 251.771 11.8628C251.712 11.8456 251.644 11.8322 251.599 11.8093C251.527 11.7729 251.563 11.7251 251.698 11.6735C251.753 11.6926 251.811 11.7098 251.87 11.727Z" fill="#FFE492"/>
</svg>
