<svg width="1920" height="702" viewBox="0 0 1920 702" fill="none" xmlns="http://www.w3.org/2000/svg">
<g opacity="0.3">
<path d="M720.953 701.316C713.662 701.316 706.567 700.743 699.748 699.602C685.447 697.206 672.234 692.287 660.477 684.981C647.84 677.131 636.757 666.434 627.532 653.189C608.992 626.567 599.717 594.684 590.746 563.851C588.983 557.796 587.161 551.536 585.311 545.462C572.688 504.061 556.687 467.795 536.396 434.594C495.918 368.363 438.993 311.84 371.772 271.135C294.031 224.063 210.447 200.614 136.415 205.11C92.9029 207.754 35.4111 232.894 9.71661 275.828C-5.532 301.309 -6.76159 329.586 6.16321 357.599L5.90657 357.717C-0.87028 343.026 -3.82298 328.298 -2.86695 313.943C-1.98988 300.774 2.1614 287.901 9.47408 275.682C21.1044 256.247 40.2843 239.022 64.941 225.867C87.7251 213.713 113.101 206.24 136.398 204.826C175.142 202.475 216.347 207.692 258.869 220.337C297.415 231.8 335.451 248.808 371.918 270.89C439.179 311.617 496.138 368.172 536.638 434.442C556.941 467.666 572.951 503.951 585.582 545.374C587.435 551.448 589.257 557.712 591.017 563.766C599.979 594.577 609.249 626.437 627.763 653.02C645.668 678.732 669.905 694.308 699.796 699.314C741.19 706.248 791.457 691.746 834.255 660.518C895.932 615.517 938.737 550.017 980.134 486.675C987.39 475.572 994.892 464.092 1002.32 453.006C1021.6 424.218 1047.72 386.916 1078.76 353.683C1110.49 319.715 1142.73 294.759 1177.33 277.384C1198.5 266.749 1220.94 259.584 1244.03 256.089C1265.35 252.859 1287.92 252.659 1311.11 255.489C1350.89 260.345 1393.75 274.064 1442.13 297.425C1537.39 343.429 1632.56 399.267 1724.97 463.393C1812.81 524.341 1898.96 593.309 1981.03 668.373L1980.84 668.582C1810.72 512.976 1629.43 388.187 1442.01 297.679C1336.11 246.545 1252.05 240.175 1177.45 277.635C1101.56 315.744 1048.54 384.517 1002.55 453.161C995.129 464.244 987.627 475.724 980.371 486.827C938.962 550.191 896.144 615.712 834.425 660.743C814.48 675.296 792.043 686.647 769.541 693.567C757.654 697.223 745.838 699.613 734.416 700.673C729.864 701.104 725.372 701.316 720.953 701.316Z" fill="#A1A1A1"/>
<path d="M728.08 685.528C709.489 685.528 692.269 681.991 676.88 675.009C659.719 667.224 644.91 655.16 632.863 639.155C631.797 637.737 630.739 636.272 629.718 634.795C611.376 608.288 601.689 576.82 592.323 546.386C590.428 540.236 588.47 533.874 586.485 527.701C574.66 490.946 560.421 458.55 542.95 428.669C540.798 424.991 538.571 421.304 536.323 417.713C495.25 352.052 437.863 296.244 370.365 256.323C292.063 210.054 208.242 187.575 134.343 193.03C91.1464 196.251 33.9197 221.803 8.11522 264.407C-7.33644 289.919 -9.08493 318.253 3.05304 346.347L2.79358 346.459C-3.56871 331.735 -6.18297 316.979 -4.97312 302.606C-3.86198 289.406 0.458485 276.505 7.87269 264.261C19.6215 244.86 38.745 227.615 63.1704 214.392C85.7458 202.171 111.012 194.484 134.317 192.748C173.013 189.892 214.263 194.611 256.921 206.771C295.56 217.786 333.776 234.377 370.506 256.081C438.043 296.025 495.462 351.866 536.56 417.564C538.807 421.158 541.038 424.847 543.19 428.528C560.672 458.429 574.92 490.841 586.75 527.617C588.738 533.79 590.696 540.151 592.591 546.305C601.954 576.718 611.632 608.164 629.949 634.634C630.967 636.105 632.025 637.571 633.088 638.986C657.985 672.069 692.193 685.528 728.167 685.528C728.365 685.528 728.559 685.528 728.757 685.528C728.531 685.525 728.305 685.528 728.08 685.528ZM735.753 685.331C769.198 683.614 803.708 670.77 833.314 651.662C897.177 610.275 943.075 546.353 987.464 484.536C989.291 481.988 991.119 479.445 992.946 476.903C996.959 471.322 1001.72 464.715 1006.57 458.054C1028.36 428.185 1054.72 393.43 1085.09 362.148C1117.4 328.862 1149.67 304.162 1183.76 286.633C1204.71 275.874 1226.84 268.294 1249.55 264.106C1270.59 260.224 1292.83 259.128 1315.64 260.844C1355.04 263.813 1397.4 275.065 1445.15 295.247C1491.71 314.893 1529.98 333.386 1565.59 353.447C1616.04 381.893 1664.09 414.669 1704.44 442.977C1798.26 508.98 1890.31 583.926 1978.04 665.735L1977.85 665.941C1890.13 584.143 1798.09 509.202 1704.28 443.208C1663.93 414.903 1615.89 382.133 1565.45 353.695C1529.85 333.64 1491.59 315.152 1445.05 295.512C1341.02 251.546 1258.04 248.803 1183.89 286.886C1106.93 326.455 1052.13 396.074 1006.8 458.223C1001.94 464.884 997.188 471.488 993.175 477.072C991.347 479.612 989.52 482.157 987.692 484.705C943.289 546.541 897.374 610.486 833.466 651.904C817.62 662.13 800.758 670.254 783.346 676.046C767.139 681.433 751.163 684.547 735.753 685.331Z" fill="#A1A1A1"/>
<path d="M735.938 670.102C733.701 670.102 731.479 670.054 729.274 669.956C710.7 669.135 693.511 664.876 678.187 657.291C661.426 648.996 646.905 636.709 635.03 620.769C633.975 619.349 632.923 617.88 631.908 616.403C613.771 590.026 603.681 558.978 593.926 528.956C591.892 522.699 589.789 516.227 587.657 509.947C575.248 473.315 560.634 441.179 542.974 411.701C540.788 408.057 538.527 404.401 536.245 400.838C494.577 335.749 436.727 280.658 368.953 241.52C290.093 196.055 206.035 174.542 132.266 180.955C90.7302 184.622 33.6699 208.716 6.54 252.947C-9.13445 278.501 -11.416 306.911 -0.0591834 335.103L-0.321439 335.208C-6.27198 320.438 -8.54223 305.648 -7.07574 291.25C-5.72771 278.008 -1.22672 265.073 6.30029 252.801C18.1732 233.445 37.2346 216.194 61.426 202.91C83.7898 190.629 108.94 182.734 132.24 180.676C170.89 177.319 212.186 181.536 254.976 193.211C293.711 203.781 332.105 219.951 369.094 241.278C436.908 280.441 494.789 335.563 536.482 400.689C538.763 404.254 541.028 407.91 543.214 411.56C560.882 441.055 575.504 473.211 587.919 509.862C590.051 516.145 592.155 522.617 594.188 528.874C603.94 558.879 614.022 589.905 632.136 616.251C633.151 617.728 634.198 619.194 635.252 620.609C683.508 685.377 769.027 678.423 832.37 642.803C898.898 605.064 948.338 542.339 996.151 481.681L996.642 481.058C1001.27 475.178 1006.06 469.101 1010.83 463.1C1061.12 399.792 1116.4 334.731 1190.2 295.876C1210.92 284.99 1232.75 276.996 1255.08 272.117C1275.85 267.579 1297.75 265.586 1320.17 266.195C1359.25 267.255 1401.13 276.043 1448.18 293.063C1497.64 310.885 1534.85 327.268 1568.85 346.184C1617.29 373.19 1664.22 407.316 1705.62 437.425C1797.8 504.822 1888.44 580.747 1975.05 663.084L1974.85 663.287C1888.26 580.958 1797.62 505.042 1705.45 437.65C1664.06 407.547 1617.14 373.426 1568.71 346.429C1534.73 327.518 1497.52 311.142 1448.09 293.325C1346.09 256.434 1264.18 257.322 1190.33 296.121C1116.57 334.951 1061.32 399.984 1011.05 463.269C1006.28 469.27 1001.49 475.35 996.862 481.227L996.371 481.85C972.544 512.078 947.907 543.334 921.301 571.253C891.402 602.628 862.357 626.111 832.506 643.043C801.275 660.603 767.256 670.102 735.938 670.102Z" fill="#A1A1A1"/>
<path d="M1971.87 660.628C1886.4 577.77 1797.16 500.879 1706.63 432.092C1702.8 429.2 1698.96 426.294 1695.1 423.379C1655.89 393.721 1615.34 363.053 1571.99 339.162C1529.92 316.049 1487.3 301.916 1451.14 291.14C1351.34 261.211 1270.52 265.73 1196.78 305.355C1121.09 346.153 1062.43 413.889 1015.3 468.317C1012.48 471.584 1009.65 474.857 1006.82 478.132C1004.74 480.551 1002.65 482.969 1000.56 485.385C973.724 516.407 949.316 544.143 922.347 569.452C891.537 598.363 861.84 619.537 831.555 634.186C803.172 647.916 772.853 655.18 744.651 655.183C739.513 655.183 734.451 654.943 729.476 654.455C711.314 652.677 694.5 647.679 679.503 639.601C663.137 630.787 648.904 618.266 637.192 602.386C636.146 600.962 635.102 599.491 634.092 598.011C616.17 571.772 605.688 541.161 595.552 511.559C593.369 505.183 591.11 498.587 588.826 492.186C575.825 455.67 560.833 423.791 542.998 394.724C540.779 391.108 538.481 387.486 536.168 383.954C493.902 319.437 435.593 265.062 367.545 226.705C288.127 182.043 203.835 161.503 130.195 168.865C79.852 173.998 28.3728 203.837 5.00498 241.424C-10.9148 267.032 -13.7378 295.532 -3.16505 323.843L-3.43013 323.941C-8.9661 309.118 -10.8951 294.283 -9.16353 279.848C-7.57014 266.558 -2.88303 253.581 4.76524 241.275C16.7622 221.975 35.7616 204.725 59.7104 191.392C81.86 179.06 106.88 170.96 130.167 168.586C168.772 164.725 210.11 168.442 253.032 179.633C291.86 189.757 330.437 205.511 367.686 226.457C435.776 264.836 494.117 319.242 536.408 383.799C538.723 387.334 541.022 390.958 543.241 394.575C561.087 423.658 576.085 455.554 589.094 492.087C591.378 498.492 593.637 505.084 595.82 511.463C605.95 541.048 616.427 571.639 634.327 597.848C635.336 599.325 636.377 600.793 637.42 602.214C687.797 670.522 773.42 661.99 831.433 633.93C900.648 600.449 953.614 539.222 1000.35 485.199C1002.44 482.78 1004.52 480.362 1006.61 477.946C1009.44 474.671 1012.26 471.398 1015.09 468.131C1041.99 437.064 1068.56 406.873 1097.77 379.052C1131.35 347.057 1163.7 322.87 1196.65 305.107C1217.16 294.088 1238.68 285.68 1260.62 280.119C1281.13 274.919 1302.69 272.032 1324.71 271.536C1363.54 270.662 1404.93 276.987 1451.23 290.87C1487.39 301.651 1530.04 315.79 1572.13 338.917C1615.5 362.817 1656.06 393.492 1695.28 423.156C1699.13 426.071 1702.97 428.977 1706.81 431.869C1797.34 500.662 1886.59 577.561 1972.07 660.428L1971.87 660.628Z" fill="#A1A1A1"/>
<path d="M1968.88 657.973C1882.92 573.001 1795.09 495.132 1707.81 426.533C1702.59 422.429 1697.24 418.198 1692.08 414.108C1655.07 384.817 1616.81 354.527 1575.26 331.896C1533.76 309.377 1490.77 297.55 1454.19 288.953C1356.82 265.848 1277.07 273.994 1203.23 314.589C1132.79 353.45 1077.61 411.887 1024.24 468.399L1018.38 474.603C1013.76 479.505 1008.97 484.57 1004.25 489.539C950.832 545.727 897.356 598.389 830.6 625.324C814.401 631.861 797.768 636.39 781.157 638.795C763.32 641.374 745.993 641.411 729.656 638.902C711.911 636.176 695.478 630.451 680.813 621.885C664.854 612.564 650.906 599.815 639.36 583.997C638.319 582.565 637.284 581.091 636.283 579.614C618.581 553.529 607.72 523.369 597.218 494.202C594.875 487.693 592.449 480.962 590.001 474.426C576.397 438.022 561.033 406.399 543.029 377.75C540.778 374.17 538.446 370.577 536.097 367.073C493.236 303.128 434.467 249.469 366.14 211.893C286.16 168.039 201.631 148.466 128.118 156.784C78.2353 162.549 26.9902 192.596 3.50393 229.856C-12.681 255.529 -16.0623 284.139 -6.27637 312.593L-6.5443 312.686C-11.6657 297.798 -13.2478 282.907 -11.2483 268.43C-9.40393 255.083 -4.52224 242.055 3.2614 229.71C15.3881 210.475 34.3198 193.241 58.0148 179.869C79.9444 167.493 104.829 159.197 128.084 156.508C166.645 152.145 208.025 155.361 251.083 166.066C290.007 175.746 328.761 191.079 366.272 211.647C434.639 249.243 493.442 302.936 536.328 366.918C538.677 370.424 541.012 374.021 543.263 377.601C561.278 406.264 576.651 437.904 590.261 474.327C592.709 480.863 595.134 487.597 597.478 494.106C607.974 523.257 618.829 553.403 636.511 579.456C637.51 580.927 638.545 582.398 639.583 583.83C688.746 651.189 770.435 649.297 830.491 625.065C897.193 598.152 950.646 545.51 1004.04 489.348C1008.76 484.378 1013.55 479.313 1018.17 474.411L1024.04 468.208C1050.23 440.469 1077.32 411.783 1106.73 385.098C1140.05 354.876 1171.57 331.732 1203.09 314.341C1223.38 303.184 1244.6 294.362 1266.14 288.121C1286.4 282.253 1307.63 278.47 1329.24 276.878C1367.9 274.028 1408.79 277.889 1454.25 288.677C1490.85 297.279 1533.86 309.109 1575.38 331.648C1616.97 354.287 1655.24 384.585 1692.25 413.886C1697.42 417.976 1702.76 422.204 1707.98 426.311C1795.27 494.915 1883.11 572.789 1969.07 657.77L1968.88 657.973Z" fill="#A1A1A1"/>
<path d="M1965.89 655.318C1880.67 569.401 1794.24 490.557 1708.98 420.977C1702.58 415.749 1696.01 410.311 1689.66 405.054C1654.65 376.078 1618.45 346.116 1578.52 324.634C1537.22 302.502 1494.04 293.073 1457.24 286.771C1362.57 270.307 1283.9 282.083 1209.67 323.828C1144.89 360.412 1091.71 412.259 1040.27 462.398C1034.86 467.674 1029.26 473.129 1023.81 478.414C1017.4 484.62 1012.51 489.336 1007.94 493.7C983.49 517.055 954.375 543.948 923.821 566.317C891.443 590.02 860.638 606.425 829.645 616.47C813.347 621.753 796.784 625.084 780.413 626.37C762.835 627.751 745.815 626.736 729.831 623.351C712.512 619.684 696.463 613.232 682.122 604.175C666.572 594.355 652.914 581.378 641.526 565.61C640.499 564.181 639.47 562.704 638.472 561.221C621.004 535.312 609.779 505.617 598.922 476.9C596.403 470.24 593.8 463.353 591.175 456.665C576.958 420.363 561.219 388.999 543.054 360.776C540.77 357.227 538.404 353.667 536.021 350.191C492.565 286.819 433.333 233.875 364.73 197.08C284.195 154.033 199.429 135.433 126.046 144.7C84.2905 150.09 29.7542 174.917 2.04331 218.229C-14.4321 243.98 -18.3859 272.72 -9.3868 301.338L-9.65474 301.422C-14.3616 286.458 -15.5912 271.502 -13.3125 256.969C-11.2086 243.555 -6.1239 230.47 1.8064 218.077C14.0628 198.921 32.9241 181.715 56.3568 168.315C78.0664 155.902 102.802 147.418 126.012 144.421C164.527 139.556 205.952 142.271 249.14 152.491C288.157 161.725 327.092 176.642 364.863 196.832C433.505 233.647 492.771 286.622 536.252 350.031C538.635 353.506 541.004 357.072 543.288 360.623C561.462 388.861 577.209 420.242 591.434 456.56C594.063 463.252 596.666 470.138 599.184 476.799C610.033 505.501 621.255 535.179 638.703 561.061C639.701 562.54 640.728 564.015 641.754 565.441C682.655 622.08 752.863 641.055 829.557 616.197C899.012 593.687 955.669 543.235 1007.75 493.491C1012.32 489.128 1017.21 484.412 1023.61 478.205C1029.06 472.92 1034.66 467.466 1040.07 462.189C1065.4 437.506 1091.58 411.983 1119.51 388.083C1151.09 361.055 1180.54 339.954 1209.54 323.577C1229.64 312.274 1250.54 303.038 1271.68 296.126C1291.7 289.578 1312.59 284.902 1333.77 282.222C1372.34 277.345 1412.74 278.74 1457.29 286.486C1494.1 292.794 1537.32 302.226 1578.65 324.378C1618.61 345.873 1654.82 375.844 1689.84 404.829C1696.19 410.086 1702.76 415.523 1709.16 420.752C1794.42 490.34 1880.86 569.19 1966.09 655.112L1965.89 655.318Z" fill="#A1A1A1"/>
<path d="M1962.89 652.663C1878.42 565.796 1793.39 485.974 1710.16 415.419C1703.08 409.418 1695.81 403.118 1688.77 397.027C1655.27 368.012 1620.63 338.01 1581.79 317.368C1540.45 295.501 1497.17 288.525 1460.29 284.584C1369.91 274.671 1290.04 290.529 1216.12 333.063C1157.26 367.084 1106.8 412.598 1058.01 456.614C1048.15 465.505 1037.96 474.699 1028.05 483.462C1021.99 488.826 1016.62 493.536 1011.63 497.86C988.419 517.946 957.541 543.701 924.545 564.748C891.392 585.894 860.034 599.917 828.682 607.615C794.488 616.011 760.361 616.073 729.994 607.798C713.11 603.195 697.441 596.018 683.422 586.466C668.286 576.152 654.918 562.95 643.686 547.23C642.668 545.798 641.647 544.318 640.654 542.835C623.434 517.123 611.86 487.916 600.67 459.673C597.962 452.84 595.165 445.777 592.342 438.913C577.502 402.707 561.388 371.597 543.076 343.81C540.758 340.293 538.358 336.764 535.941 333.319C491.891 270.519 432.199 218.288 363.319 182.28C282.229 140.042 197.226 122.411 123.97 132.628C74.3236 139.703 24.7536 169.412 0.624306 206.551C-16.1669 232.396 -20.7046 261.285 -12.4979 290.095L-12.7686 290.171C-17.0581 275.116 -17.9324 260.081 -15.3688 245.486C-12.9999 231.996 -7.69798 218.844 0.387422 206.396C12.7736 187.331 31.5614 170.165 54.7206 156.754C76.2018 144.315 100.782 135.644 123.93 132.346C162.4 126.98 203.87 129.195 247.191 138.928C286.304 147.717 325.419 162.216 363.449 182.026C432.368 218.057 492.094 270.316 536.173 333.156C538.59 336.6 540.99 340.132 543.311 343.653C561.63 371.456 577.753 402.58 592.601 438.803C595.424 445.667 598.222 452.733 600.929 459.566C612.114 487.795 623.682 516.988 640.885 542.675C641.878 544.157 642.896 545.632 643.914 547.063C684.113 603.336 753.159 625.868 828.615 607.341C897.404 590.449 957.141 544.636 1011.45 497.649C1016.43 493.325 1021.81 488.618 1027.86 483.254C1037.77 474.491 1047.96 465.299 1057.81 456.409C1106.62 412.383 1157.08 366.859 1215.97 332.823C1235.89 321.359 1256.5 311.711 1277.2 304.14C1297.01 296.902 1317.57 291.329 1338.3 287.577C1376.86 280.601 1416.77 279.533 1460.31 284.308C1497.22 288.251 1540.54 295.23 1581.92 317.123C1620.79 337.778 1655.44 367.792 1688.96 396.819C1695.99 402.91 1703.26 409.207 1710.34 415.208C1793.57 485.768 1878.62 565.596 1963.1 652.468L1962.89 652.663Z" fill="#A1A1A1"/>
<path d="M1959.91 650.007C1876.18 562.182 1792.55 481.387 1711.33 409.863C1703.87 403.29 1696.19 396.331 1688.77 389.6C1656.49 360.339 1623.11 330.08 1585.05 310.104C1543.55 288.423 1500.23 283.933 1463.33 282.399C1376.37 278.521 1297.61 298.113 1222.56 342.299C1169.93 373.434 1123.01 412.84 1077.63 450.946C1062.03 464.05 1047.29 476.427 1032.3 488.51C1026.21 493.429 1020.65 497.849 1015.32 502.017C980.932 528.894 952.318 548.326 925.273 563.169C891.344 581.792 859.436 593.433 827.726 598.755C815.425 600.818 803.169 601.847 791.135 601.847C769.803 601.847 749.162 598.623 730.16 592.235C695.771 580.676 667.406 559.347 645.852 528.84C644.836 527.394 643.824 525.914 642.842 524.437C625.885 498.948 613.987 470.259 602.48 442.512C599.564 435.482 596.552 428.216 593.515 421.149C578.041 385.028 561.548 354.177 543.105 326.833C540.753 323.346 538.319 319.848 535.868 316.435C491.222 254.207 431.068 202.692 361.912 167.464C280.266 126.038 195.029 109.374 121.9 120.541C72.0476 128.313 23.9074 157.458 -0.737963 194.794C-17.8704 220.746 -23.0088 249.807 -15.603 278.836L-15.8766 278.907C-19.743 263.748 -20.2563 248.623 -17.3995 233.951C-14.7541 220.371 -9.22945 207.146 -0.972024 194.639C11.5438 175.678 30.25 158.568 53.1271 145.157C74.377 132.698 98.7855 123.859 121.857 120.262C160.282 114.394 201.798 116.108 245.248 125.356C284.456 133.702 323.75 147.784 362.042 167.211C431.237 202.461 491.425 254.004 536.099 316.269C538.55 319.685 540.984 323.183 543.339 326.672C561.794 354.031 578.295 384.898 593.774 421.034C596.812 428.1 599.827 435.37 602.74 442.399C614.24 470.132 626.133 498.81 643.076 524.277C644.058 525.751 645.067 527.231 646.083 528.674C686.332 585.645 752.521 611.087 827.679 598.473C899.223 586.466 962.592 542.863 1015.15 501.792C1020.48 497.623 1026.03 493.206 1032.13 488.288C1047.11 476.204 1061.85 463.83 1077.45 450.726C1122.83 412.611 1169.76 373.2 1222.42 342.054C1242.19 330.413 1262.48 320.35 1282.74 312.142C1302.35 304.193 1322.57 297.724 1342.83 292.919C1381.47 283.755 1420.89 280.22 1463.34 282.114C1500.27 283.648 1543.63 288.144 1585.18 309.85C1623.27 329.841 1656.66 360.113 1688.96 389.385C1696.38 396.116 1704.06 403.076 1711.52 409.646C1792.74 481.176 1876.37 561.98 1960.11 649.81L1959.91 650.007Z" fill="#A1A1A1"/>
<path d="M1956.92 647.352C1872.78 557.312 1792.83 477.811 1712.51 404.305C1704.85 397.292 1697.3 390.13 1689.31 382.548C1658.08 352.906 1625.79 322.259 1588.32 302.841C1546.29 281.168 1501.08 279.364 1466.38 280.215C1383.38 281.985 1305.73 305.316 1229.01 351.539C1182.97 379.408 1140.47 412.874 1099.37 445.241C1077.76 462.252 1057.36 478.316 1036.55 493.562C1030.38 498.091 1024.64 502.218 1019.01 506.178C984.153 530.69 954.598 548.295 925.996 561.588C891.28 577.722 858.822 586.982 826.768 589.896C810.299 591.393 793.942 591.111 778.152 589.059C761.434 586.886 745.342 582.717 730.325 576.671C697.038 563.268 669.347 540.992 648.018 510.457C647.011 509.008 646.007 507.526 645.032 506.049C628.359 480.821 616.162 452.68 604.365 425.465C601.218 418.204 597.963 410.695 594.689 403.395C578.566 367.352 561.702 336.758 543.131 309.865C540.742 306.409 538.274 302.942 535.796 299.56C490.555 237.904 429.941 187.105 360.508 152.658C296.423 120.996 230.335 104.475 169.733 104.475C152.601 104.475 135.919 105.794 119.83 108.464C70.5791 116.796 22.7407 146.045 -2.04852 182.982C-19.5448 209.054 -25.3064 238.312 -18.71 267.59L-18.9864 267.652C-22.4298 252.375 -22.5737 237.145 -19.4151 222.39C-16.4878 208.711 -10.7234 195.398 -2.28543 182.824C10.3602 163.981 28.9789 146.942 51.5627 133.544C72.8803 120.897 96.4709 112.128 119.78 108.188C158.159 101.817 199.72 103.032 243.303 111.793C282.604 119.691 322.081 133.353 360.633 152.402C430.104 186.868 490.755 237.695 536.024 299.388C538.506 302.77 540.976 306.24 543.365 309.699C561.944 336.606 578.817 367.214 594.948 403.274C598.223 410.574 601.48 418.083 604.627 425.347C616.418 452.55 628.61 480.68 645.269 505.888C646.244 507.362 647.248 508.845 648.252 510.291C688.138 567.389 753.193 596.297 826.746 589.612C901.173 582.844 968.507 541.341 1018.86 505.942C1024.48 501.981 1030.21 497.855 1036.39 493.328C1057.2 478.087 1077.6 462.021 1099.2 445.013C1140.31 412.643 1182.81 379.168 1228.86 351.291C1268.37 327.493 1307.13 310.15 1347.37 298.266C1386.18 286.805 1425.11 280.807 1466.38 279.928C1489.92 279.35 1509.13 280.353 1526.83 283.082C1549.68 286.605 1569.84 292.984 1588.45 302.584C1625.96 322.019 1658.27 352.684 1689.51 382.339C1697.5 389.921 1705.05 397.081 1712.7 404.094C1793.03 477.602 1872.98 557.109 1957.13 647.155L1956.92 647.352Z" fill="#A1A1A1"/>
<path d="M1953.92 644.697C1870.55 553.67 1791.97 473.222 1713.68 398.746C1705.94 391.378 1698.3 383.787 1690.22 375.751C1659.92 345.642 1628.6 314.504 1591.58 295.574C1549.21 274.002 1504.04 274.865 1469.43 278.024C1391.1 284.927 1314.56 311.995 1235.45 360.77C1196.47 384.918 1159.36 412.552 1123.46 439.279C1095.09 460.405 1068.29 480.361 1040.8 498.601C1034.59 502.728 1028.5 506.674 1022.7 510.327C987.774 532.324 956.377 548.568 926.717 559.989C891.203 573.666 858.196 580.549 825.809 581.028C809.331 581.27 793.039 579.782 777.395 576.6C760.996 573.263 745.215 568.045 730.488 561.089C698.344 545.904 671.324 522.681 650.181 492.062C649.188 490.616 648.19 489.13 647.217 487.645C630.857 462.725 618.395 435.178 606.341 408.538C602.932 401.001 599.404 393.205 595.859 385.625C579.076 349.65 561.837 319.315 543.156 292.882C540.733 289.457 538.232 286.021 535.719 282.67C489.883 221.586 428.807 171.503 359.098 137.837C276.343 98.0368 190.63 83.3119 117.754 96.3737C69.1405 105.239 21.6208 134.564 -3.30655 171.08C-21.1976 197.291 -27.5994 226.769 -21.8237 256.332L-22.1001 256.385C-25.112 240.975 -24.8808 225.628 -21.4091 210.77C-18.1857 196.978 -12.1759 183.57 -3.54061 170.92C9.22908 152.212 27.7547 135.258 50.034 121.889C71.1062 109.244 94.5051 100.326 117.704 96.0947C156.041 89.2255 197.644 89.9358 241.356 98.2115C280.754 105.67 320.408 118.915 359.219 137.58C428.97 171.264 490.08 221.377 535.942 282.498C538.457 285.849 540.962 289.288 543.384 292.715C562.076 319.163 579.322 349.512 596.113 385.501C599.661 393.081 603.186 400.877 606.598 408.417C618.646 435.045 631.103 462.581 647.451 487.484C648.424 488.967 649.422 490.452 650.412 491.895C690.718 550.265 753.007 581.823 825.804 580.741C884.872 579.867 947.389 557.413 1022.55 510.082C1028.34 506.429 1034.43 502.485 1040.64 498.359C1068.13 480.122 1094.92 460.171 1123.29 439.045C1159.19 412.315 1196.31 384.675 1235.3 360.522C1275.19 335.929 1313.33 317.314 1351.9 303.607C1390.97 289.722 1429.41 281.257 1469.4 277.734C1504.05 274.569 1549.28 273.709 1591.71 295.314C1628.77 314.267 1660.11 345.419 1690.42 375.543C1698.5 383.579 1706.14 391.167 1713.88 398.532C1792.17 473.01 1870.76 553.464 1954.13 644.497L1953.92 644.697Z" fill="#A1A1A1"/>
<path d="M1950.93 642.041C1868.34 550.025 1791.12 468.624 1714.86 393.191C1707.12 385.532 1699.48 377.575 1691.38 369.15C1661.95 338.502 1631.51 306.812 1594.86 288.31C1552.08 266.817 1506.99 270.355 1472.48 275.837C1398.78 287.323 1325.51 317.247 1241.9 370.007C1210.54 389.884 1179.89 411.69 1150.25 432.776C1114.26 458.387 1080.26 482.58 1045.05 503.649C1038.71 507.449 1032.43 511.096 1026.39 514.484C990.839 534.424 958.472 548.788 927.442 558.394C910.061 563.775 892.904 567.673 876.445 569.982C858.89 572.442 841.532 573.178 824.853 572.169C791.014 570.12 759.321 561.151 730.657 545.513C699.7 528.623 673.354 504.456 652.352 473.675C651.365 472.218 650.375 470.73 649.408 469.253C633.398 444.699 620.713 417.806 608.448 391.801C604.734 383.928 600.896 375.788 597.035 367.867C579.575 331.952 561.961 301.873 543.184 275.91C540.728 272.514 538.189 269.109 535.646 265.791C489.215 205.277 427.679 155.91 357.694 123.03C274.386 84.0449 188.439 70.2897 115.684 84.2957C37.783 99.5251 -38.1273 165.327 -24.9289 245.082L-25.2081 245.127C-28.5105 225.177 -26.5759 205.522 -19.4606 186.704C-12.963 169.519 -2.29995 153.345 12.2323 138.637C25.7437 124.961 41.954 113.154 60.4091 103.542C77.9618 94.4008 97.0571 87.6472 115.628 84.0167C153.92 76.6458 195.568 76.8572 239.413 84.6481C278.907 91.6638 318.741 104.492 357.812 122.777C427.837 155.679 489.409 205.074 535.868 265.622C538.415 268.943 540.953 272.348 543.412 275.747C562.197 301.721 579.821 331.816 597.289 367.746C601.149 375.667 604.988 383.807 608.702 391.682C620.964 417.679 633.643 444.561 649.645 469.101C650.609 470.578 651.597 472.066 652.584 473.52C692.949 532.673 754.135 567.605 824.87 571.89C884.753 575.512 950.627 556.658 1026.25 514.242C1032.29 510.854 1038.56 507.209 1044.91 503.41C1080.1 482.346 1114.1 458.156 1150.09 432.548C1179.73 411.458 1210.38 389.65 1241.74 369.77C1325.39 316.987 1398.7 287.053 1472.44 275.558C1495.62 271.874 1514.82 270.696 1532.85 271.854C1555.91 273.334 1576.23 278.633 1594.98 288.056C1631.67 306.578 1662.13 338.288 1691.58 368.953C1699.68 377.375 1707.32 385.332 1715.06 392.988C1791.32 468.427 1868.55 549.831 1951.14 641.853L1950.93 642.041Z" fill="#A1A1A1"/>
<path d="M1947.95 639.387C1866.14 546.367 1790.28 464.019 1716.04 387.632C1708.36 379.729 1700.76 371.45 1692.73 362.681C1664.09 331.447 1634.47 299.148 1598.12 281.044C1554.42 259.371 1507.23 266.443 1475.53 273.647C1389.5 292.961 1312.41 337.863 1248.34 379.244C1225.32 394.177 1202.35 409.996 1180.13 425.293C1135.57 455.98 1093.49 484.965 1049.3 508.698C1042.81 512.19 1036.34 515.536 1030.09 518.645C993.84 536.626 960.503 549.107 928.173 556.796C891.522 565.514 856.442 567.707 823.9 563.31C790.47 558.792 759.155 547.562 730.829 529.931C701.119 511.441 675.447 486.329 654.521 455.292C653.546 453.835 652.561 452.344 651.6 450.861C635.987 426.759 623.144 400.604 610.722 375.309C606.652 367.019 602.442 358.45 598.211 350.11C579.81 313.743 562.333 284.775 543.215 258.939C540.725 255.574 538.156 252.203 535.576 248.913C488.544 188.974 426.545 140.323 356.284 108.221C272.424 70.0532 186.239 57.2648 113.609 72.2151C35.4285 88.5212 -38.9307 153.43 -28.0392 233.833L-28.3184 233.87C-31.0201 213.922 -28.6822 194.287 -21.3724 175.512C-14.6717 158.309 -3.94661 142.119 10.5095 127.394C23.9899 113.661 40.1156 101.766 58.441 92.0333C75.8893 82.7655 94.948 75.8174 113.553 71.9361C151.802 64.0635 193.493 63.776 237.468 71.0792C277.057 77.6524 317.072 90.0631 356.402 107.965C426.706 140.084 488.738 188.762 535.793 248.739C538.373 252.031 540.945 255.405 543.438 258.77C562.567 284.618 580.049 313.602 598.459 349.983C602.69 358.324 606.9 366.895 610.97 375.185C623.39 400.472 636.23 426.618 651.831 450.709C652.793 452.192 653.774 453.68 654.75 455.137C695.428 515.468 755.511 553.786 823.934 563.031C885.301 571.324 952.691 556.72 1029.96 518.391C1036.21 515.285 1042.68 511.942 1049.17 508.45C1093.34 484.722 1135.42 455.743 1179.97 425.059C1202.19 409.762 1225.16 393.941 1248.19 379.004C1291.27 351.181 1327.11 330.624 1360.97 314.313C1400.83 295.112 1438.28 281.72 1475.46 273.371C1498.13 268.218 1517.89 265.885 1535.87 266.24C1559.02 266.696 1579.42 271.454 1598.25 280.79C1634.65 298.917 1664.28 331.236 1692.93 362.49C1700.97 371.256 1708.56 379.534 1716.24 387.432C1790.48 463.822 1866.34 546.175 1948.16 639.198L1947.95 639.387Z" fill="#A1A1A1"/>
<path d="M1944.96 636.728C1863.94 542.702 1789.44 459.404 1717.21 382.071C1709.64 373.961 1702.14 365.395 1694.21 356.325C1666.32 324.462 1637.49 291.514 1601.39 273.776C1557.21 252.154 1510.14 262.096 1478.58 271.457C1400.64 294.375 1331.11 338.014 1254.79 388.477C1241.02 397.613 1227.1 407.041 1213.64 416.163C1161.85 451.238 1108.3 487.507 1053.55 513.743C1046.9 516.934 1040.25 519.981 1033.78 522.799C997.284 538.674 961.998 549.571 928.898 555.189C891.401 561.554 855.754 561.303 822.939 554.448C789.977 547.562 759.042 534.069 730.993 514.343C702.608 494.381 677.605 468.328 656.679 436.908C655.712 435.448 654.736 433.954 653.78 432.472C638.638 408.933 625.714 383.629 613.215 359.16C608.711 350.343 604.055 341.228 599.376 332.357C580.255 296.027 562.415 267.308 543.232 241.973C540.714 238.647 538.108 235.304 535.491 232.04C487.873 172.664 425.417 124.73 354.874 93.4112C270.464 56.0607 184.045 44.2419 111.534 60.1337C35.8348 76.9049 -39.8978 139.536 -31.1525 222.581L-31.4317 222.609C-33.5327 202.661 -30.7915 183.048 -23.2871 164.315C-16.3861 147.093 -5.5962 130.888 8.78097 116.147C35.3074 88.952 72.7366 68.4348 111.471 59.8547C149.676 51.4831 191.412 50.6939 235.519 57.5095C275.204 63.643 315.397 75.6337 354.987 93.1519C425.57 124.487 488.062 172.453 535.711 231.857C538.331 235.124 540.937 238.467 543.458 241.796C562.649 267.144 580.498 295.875 599.624 332.219C604.303 341.092 608.962 350.208 613.466 359.025C625.962 383.488 638.884 408.786 654.017 432.314C654.97 433.796 655.946 435.287 656.913 436.748C698.778 499.61 756.208 540.213 822.992 554.169C884.833 567.089 955.709 556.449 1033.66 522.54C1040.13 519.721 1046.78 516.677 1053.42 513.489C1108.15 487.261 1161.69 450.999 1213.47 415.929C1226.94 406.807 1240.86 397.379 1254.63 388.243C1288.04 366.153 1326.91 340.816 1365.5 319.662C1405.85 297.535 1442.82 281.68 1478.49 271.189C1500.95 264.528 1520.71 261.073 1538.88 260.627C1561.8 260.063 1582.87 264.404 1601.51 273.526C1617.68 281.471 1633.96 293.33 1651.27 309.78C1666.56 324.304 1680.72 340.489 1694.41 356.139C1702.35 365.206 1709.84 373.772 1717.41 381.879C1789.65 459.215 1864.14 542.516 1945.17 636.545L1944.96 636.728Z" fill="#A1A1A1"/>
<path d="M1941.96 634.073C1861.74 539.032 1788.61 454.785 1718.39 376.515C1710.95 368.228 1703.59 359.403 1695.79 350.062C1668.63 317.537 1640.55 283.904 1604.66 266.516C1571.11 250.317 1530.87 251.219 1481.63 269.272C1412.78 294.373 1351.24 336.357 1286.08 380.811C1277.97 386.347 1269.58 392.069 1261.23 397.72C1257.97 399.938 1254.69 402.162 1251.43 404.384C1189.34 446.577 1125.15 490.207 1057.81 518.794C1051 521.686 1044.16 524.434 1037.47 526.96C1000.18 541.034 963.894 549.992 929.634 553.583C891.272 557.602 855.052 554.913 821.989 545.589C789.54 536.436 758.986 520.68 731.177 498.756C704.222 477.506 679.889 450.514 658.854 418.525C657.895 417.062 656.928 415.565 655.977 414.08C641.411 391.279 628.529 366.996 616.066 343.514C611.021 334.004 605.801 324.169 600.558 314.597C580.699 278.292 562.497 249.821 543.27 224.999C540.714 221.701 538.078 218.392 535.427 215.159C487.205 156.358 424.287 109.137 353.467 78.602C268.51 42.0718 181.852 31.2198 109.461 48.053C35.1527 65.4754 -40.4727 128.62 -34.2599 211.331L-34.5419 211.354C-36.0394 191.403 -32.8977 171.813 -25.1987 153.128C-18.0947 135.886 -7.24274 119.662 7.05829 104.909C33.4719 77.6577 70.7714 56.8361 109.396 47.7796C147.559 38.9064 189.337 37.6154 233.574 43.9462C273.355 49.6343 313.731 61.2079 353.58 78.3427C424.439 108.897 487.397 156.144 535.638 214.976C538.289 218.209 540.932 221.524 543.487 224.822C562.723 249.657 580.936 278.137 600.801 314.456C606.046 324.028 611.264 333.866 616.312 343.376C628.768 366.853 641.651 391.13 656.211 413.922C657.162 415.407 658.126 416.901 659.085 418.364C701.858 483.408 758.214 527.304 822.062 545.31C885.09 563.084 957.529 556.818 1037.37 526.689C1044.05 524.164 1050.89 521.418 1057.69 518.529C1125.01 489.953 1189.2 446.331 1251.27 404.144C1254.54 401.92 1257.81 399.699 1261.07 397.481C1269.42 391.829 1277.81 386.107 1285.92 380.574C1351.09 336.112 1412.65 294.116 1481.53 269.005C1503.77 260.847 1523.52 256.273 1541.9 255.013C1564.91 253.437 1586.06 257.222 1604.78 266.259C1620.86 274.047 1636.93 285.959 1653.92 302.677C1668.91 317.427 1682.69 333.925 1696 349.879C1703.8 359.217 1711.17 368.039 1718.6 376.323C1788.82 454.596 1861.96 538.846 1942.18 633.89L1941.96 634.073Z" fill="#A1A1A1"/>
<path d="M1938.98 631.418C1865.76 542.855 1791.94 455.222 1719.56 370.957C1712.2 362.427 1704.89 353.264 1697.16 343.565C1672.02 312.012 1643.52 276.252 1607.92 259.252C1573.98 243.081 1533.67 245.643 1484.67 267.082C1426.41 292.49 1374.86 329.849 1320.27 369.401C1303.18 381.786 1285.5 394.597 1267.68 406.954C1236.56 428.571 1202.89 451.444 1167.6 472.277C1129.81 494.59 1095.28 511.454 1062.05 523.84C1055.06 526.441 1048.04 528.891 1041.15 531.115C1003.07 543.413 965.8 550.412 930.382 551.917C891.173 553.58 854.381 548.472 821.024 536.724C759.427 514.761 705.59 468.808 661.011 400.139C660.061 398.673 659.102 397.173 658.157 395.688C644.33 373.894 631.673 350.902 619.434 328.665C613.672 318.199 607.716 307.375 601.723 296.842C581.108 260.546 562.54 232.325 543.289 208.031C540.698 204.761 538.027 201.483 535.345 198.284C486.537 140.05 423.156 93.5468 352.06 63.7926C266.553 28.0798 179.661 18.2003 107.389 35.9722C32.6289 54.46 -41.1014 116.767 -37.3703 200.082L-37.6523 200.093C-38.5463 180.137 -34.9985 160.57 -27.1105 141.932C-19.8007 124.668 -8.88669 108.427 5.33256 93.6623C18.7283 79.7521 34.6058 67.5894 52.5223 57.5098C69.9171 47.7261 88.3524 40.3862 107.318 35.6959C145.438 26.3238 187.261 24.5311 231.628 30.3742C271.505 35.6255 312.059 46.779 352.167 63.5305C423.306 93.3015 486.723 139.832 535.559 198.095C538.241 201.297 540.918 204.578 543.509 207.848C562.768 232.156 581.345 260.388 601.969 296.695C607.961 307.232 613.918 318.056 619.679 328.524C631.919 350.758 644.573 373.747 658.394 395.533C659.336 397.021 660.298 398.518 661.246 399.984C705.79 468.599 759.579 514.516 821.118 536.456C884.506 558.78 960.563 556.841 1041.06 530.844C1047.94 528.62 1054.97 526.174 1061.95 523.575C1136.26 495.887 1204.24 450.667 1267.51 406.72C1285.34 394.363 1303.02 381.555 1320.11 369.17C1374.7 329.609 1426.27 292.242 1484.56 266.823C1533.63 245.35 1574.02 242.788 1608.04 258.995C1623.99 266.609 1639.82 278.543 1656.44 295.475C1671.1 310.406 1684.46 327.174 1697.38 343.387C1705.11 353.086 1712.41 362.247 1719.78 370.771C1792.15 455.038 1865.97 542.671 1939.19 631.238L1938.98 631.418Z" fill="#A1A1A1"/>
<path d="M1935.99 628.763C1863.89 539.709 1791.47 451.1 1720.74 365.398C1713.6 356.776 1706.52 347.452 1699.02 337.58C1674.5 305.292 1646.7 268.694 1611.19 251.982C1576.84 235.84 1536.46 240.062 1487.72 264.886C1436.65 290.858 1389.74 327.529 1344.37 362.997C1321.62 380.78 1298.09 399.169 1274.12 416.185C1236.28 443.07 1204.45 463.579 1173.93 480.731C1136.3 501.879 1101.09 517.63 1066.3 528.882C1059.15 531.194 1051.93 533.341 1044.84 535.267C1007.89 545.293 971.595 550.366 936.879 550.369C934.95 550.369 933.032 550.352 931.115 550.321C890.978 549.667 853.617 542.108 820.068 527.856C803.875 520.939 788.017 512.159 772.938 501.758C758.763 491.983 744.835 480.468 731.538 467.536C707.614 444.271 685.25 416.208 663.174 381.749C662.226 380.267 661.282 378.781 660.343 377.29C647.533 356.959 635.415 335.706 623.697 315.152C616.932 303.288 609.938 291.018 602.893 279.076C581.203 242.28 562.83 215.131 543.312 191.051C540.686 187.812 537.982 184.565 535.266 181.397C485.865 123.74 422.025 77.9536 350.652 48.9803C264.598 14.0877 177.469 5.17782 105.315 23.8883C31.9574 42.9652 -41.677 105.746 -40.4784 188.827L-40.7604 188.83C-41.3188 150.132 -25.9743 113.334 3.61196 82.4156C16.9852 68.4405 32.7781 56.1905 50.5564 45.9981C67.8552 36.0819 86.2539 28.5504 105.245 23.6121C143.32 13.7382 185.188 11.4466 229.684 16.8021C269.657 21.6136 310.392 32.35 350.757 48.7153C422.174 77.7084 486.051 123.523 535.483 181.214C538.199 184.385 540.909 187.635 543.534 190.873C563.061 214.967 581.443 242.125 603.139 278.935C610.183 290.88 617.18 303.15 623.943 315.014C635.661 335.565 647.776 356.815 660.582 377.141C661.521 378.632 662.463 380.117 663.411 381.597C710.322 454.821 761.6 502.578 820.178 527.597C901.311 562.064 987.092 550.645 1044.77 534.996C1051.85 533.071 1059.07 530.926 1066.21 528.614C1146.24 502.733 1219.27 454.813 1273.96 415.957C1297.92 398.946 1321.45 380.557 1344.19 362.777C1389.58 327.304 1436.5 290.621 1487.59 264.638C1509.4 253.53 1529.14 246.709 1547.93 243.788C1571.11 240.186 1592.43 242.858 1611.31 251.732C1627.21 259.215 1642.89 271.245 1659.24 288.507C1673.65 303.717 1686.66 320.846 1699.25 337.414C1706.74 347.282 1713.82 356.604 1720.96 365.221C1791.68 450.923 1864.1 539.531 1936.21 628.585L1935.99 628.763Z" fill="#A1A1A1"/>
<path d="M1933 626.108L1721.92 359.843C1715.02 351.147 1708.18 341.685 1700.93 331.67C1677.01 298.618 1649.9 261.158 1614.46 244.722C1580.18 228.83 1538.57 234.879 1490.77 262.702C1444.82 289.449 1402.91 325.018 1362.37 359.417C1335.96 381.84 1308.64 405.023 1280.57 425.428C1196.2 486.757 1122.47 522.98 1048.54 539.427C1017.86 546.248 987.606 549.682 958.262 549.682C949.367 549.682 940.563 549.366 931.851 548.734C890.767 545.758 852.836 535.752 819.116 518.997C787.862 503.466 759.272 481.542 731.719 451.969C709.716 428.354 688.624 400.201 665.343 363.369C653.056 343.931 641.158 323.735 629.651 304.205C603.61 260.007 576.683 214.305 543.346 174.082C492.211 112.39 425.091 64.0098 349.243 34.1711C262.644 0.101581 175.278 -7.84149 103.243 11.8076C33.5005 30.831 -42.1954 90.8183 -43.5886 177.578L-43.8706 177.572C-43.2473 138.792 -27.4234 102 1.88932 71.1721C28.3932 43.298 64.3615 22.1184 103.17 11.5342C141.202 1.16141 183.116 -1.63191 227.739 3.23597C267.808 7.60494 308.723 17.927 349.347 33.909C386.878 48.6733 422.522 68.1082 455.292 91.6752C488.336 115.44 518.035 143.102 543.56 173.896C576.912 214.133 603.847 259.847 629.894 304.055C641.4 323.583 653.298 343.776 665.583 363.211C699.549 416.952 747.712 483.194 819.242 518.738C901.275 559.499 989.177 552.334 1048.47 539.145C1122.37 522.71 1196.07 486.501 1280.4 425.194C1308.46 404.798 1335.77 381.614 1362.19 359.197C1402.73 324.792 1444.65 289.215 1490.63 262.454C1538.51 234.583 1580.21 228.528 1614.58 244.462C1630.44 251.822 1645.98 263.956 1662.07 281.565C1676.24 297.065 1688.91 314.572 1701.16 331.501C1708.41 341.516 1715.25 350.972 1722.14 359.665L1933.22 625.93L1933 626.108Z" fill="#A1A1A1"/>
<path d="M1931.29 605.639C1877.55 531.501 1831.43 471.342 1786.16 416.318C1764.19 389.589 1741.75 363.279 1719.47 338.119C1712.73 330.509 1706.05 322.414 1698.98 313.842C1681.21 292.299 1662.84 270.023 1641.7 253.491C1630.34 244.598 1619.42 238.231 1608.29 234.025C1574.13 220.989 1534.05 229.608 1489.16 259.647C1465.93 275.17 1444.78 292.834 1427.16 308.067C1408.5 324.192 1390.09 341.975 1372.29 359.172C1346.7 383.892 1320.24 409.452 1291.8 431.404C1274.49 444.801 1256.94 456.772 1239.65 466.987C1205.04 487.423 1167.9 504.261 1129.26 517.036C1105.38 524.841 1081.38 530.74 1057.94 534.568C1037.74 537.855 1017.51 539.752 997.791 540.205C968.283 540.888 939.535 538.286 912.343 532.465C883.43 526.275 856.069 516.396 831.021 503.097C808.685 491.239 787.587 476.309 766.524 457.449C727.273 422.333 695.966 381.73 673.078 350.279C661.834 334.757 650.855 318.927 640.237 303.619C609.663 259.531 580.785 217.891 544.647 180.8C515.174 150.747 481.546 124.812 444.69 103.711C416.367 87.4954 385.562 74.2335 353.133 64.292C345.409 61.9271 337.538 59.7229 329.746 57.747C296.197 49.2542 258.429 43.724 217.495 41.3084C176.224 38.8166 140.518 40.9729 108.343 47.9069C90.1532 51.7967 72.53 57.8992 55.9559 66.0424C-2.55676 94.793 -40.1298 143.057 -44.5518 195.153L-44.9043 195.122C-43.7255 181.234 -40.2651 167.555 -34.622 154.459C-29.2608 142.02 -21.8974 130.024 -12.7375 118.803C4.56979 97.6061 28.2704 79.2508 55.8008 65.7239C72.4003 57.5666 90.0517 51.4556 108.27 47.5602C140.479 40.6206 176.213 38.4615 217.517 40.956C258.474 43.3716 296.262 48.9075 329.833 57.4059C337.634 59.3846 345.507 61.5888 353.237 63.9565C385.692 73.9037 416.522 87.1769 444.867 103.407C481.749 124.522 515.405 150.479 544.893 180.552C581.053 217.665 609.937 259.317 640.522 303.416C651.137 318.724 662.116 334.551 673.357 350.071C696.234 381.507 727.526 422.091 766.755 457.184C787.796 476.024 808.871 490.94 831.181 502.785C880.204 528.81 936.255 541.282 997.78 539.853C1017.48 539.399 1037.7 537.502 1057.89 534.219C1081.31 530.391 1105.28 524.497 1129.14 516.698C1167.77 503.932 1204.89 487.104 1239.47 466.68C1256.75 456.473 1274.29 444.508 1291.58 431.122C1320.01 409.181 1346.46 383.627 1372.04 358.916C1389.84 341.716 1408.25 323.927 1426.92 307.796C1444.56 292.555 1465.72 274.885 1488.97 259.351C1508.95 245.976 1528.3 236.737 1546.48 231.886C1568.81 225.927 1589.65 226.536 1608.41 233.695C1619.57 237.915 1630.53 244.299 1641.91 253.212C1663.09 269.769 1681.47 292.059 1699.25 313.616C1706.32 322.185 1713 330.281 1719.73 337.885C1742.02 363.048 1764.47 389.36 1786.44 416.096C1831.71 471.125 1877.83 531.29 1931.58 605.433L1931.29 605.639Z" fill="#A1A1A1"/>
<path d="M1929.59 585.163C1879.76 509.772 1832.99 446.684 1786.6 392.297C1763.98 365.731 1740.57 340.194 1717.02 316.396C1710.77 310.082 1704.61 303.52 1698.07 296.574C1678.51 275.775 1658.29 254.269 1635.63 239.389C1624.19 231.843 1613.23 226.589 1602.12 223.325C1559.56 210.821 1516.34 234.51 1487.56 256.583C1467.18 272.176 1448.56 289.807 1429.7 308.007C1413.19 323.938 1397.66 341.076 1381.22 359.217C1356.82 386.147 1331.58 413.993 1303.03 437.374C1286.08 451.324 1268.39 463.385 1250.46 473.222C1217.06 491.549 1180.48 505.781 1138.63 516.734C1115.21 522.862 1091.23 527.228 1067.35 529.706C1047.2 531.772 1027.08 532.51 1007.56 531.893C978.521 530.985 950.133 526.904 923.184 519.764C894.881 512.264 867.875 501.305 842.919 487.191C821.054 474.829 799.943 459.489 778.377 440.3C739.211 405.497 705.659 366.915 680.808 337.189C671.608 326.185 662.556 315.113 653.799 304.402C618.928 261.75 585.991 221.459 545.951 187.516C516.026 162.148 482.429 140.698 446.1 123.763C418.612 110.95 389.477 101.349 357.034 94.4123C349.546 92.8141 341.929 91.3737 334.396 90.1307C301.31 84.6991 265.999 82.6443 223.276 80.519C192.48 78.9095 152.166 77.8496 113.437 84C95.0943 86.8582 77.3639 91.8219 60.7335 98.7474C2.18128 123.138 -37.5378 165.745 -45.5189 212.727L-45.9363 212.656C-43.8212 200.198 -39.5345 187.979 -33.2033 176.335C-27.1681 165.24 -19.2378 154.603 -9.63518 144.709C8.61408 125.914 32.89 109.884 60.5699 98.3556C77.2314 91.416 94.9956 86.4438 113.369 83.5801C152.135 77.4212 192.48 78.4839 223.296 80.0933C266.033 82.2186 301.355 84.2734 334.464 89.7079C342.002 90.9537 349.625 92.3941 357.121 93.9923C389.595 100.938 418.759 110.546 446.278 123.374C482.644 140.326 516.268 161.793 546.224 187.187C586.293 221.155 619.244 261.456 654.126 304.126C662.88 314.834 671.933 325.906 681.132 336.907C705.978 366.622 739.515 405.19 778.659 439.975C800.199 459.145 821.288 474.468 843.128 486.816C892.199 514.566 947.53 529.587 1007.58 531.465C1027.08 532.079 1047.17 531.343 1067.31 529.277C1091.16 526.802 1115.13 522.442 1138.52 516.317C1180.33 505.375 1216.88 491.154 1250.26 472.844C1268.17 463.018 1285.83 450.974 1302.76 437.038C1331.29 413.677 1356.52 385.842 1380.91 358.927C1397.36 340.777 1412.89 323.637 1429.41 307.697C1448.28 289.485 1466.9 271.849 1487.31 256.239C1505.96 241.929 1524.36 231.635 1541.99 225.636C1563.38 218.364 1583.65 217.448 1602.24 222.911C1613.4 226.189 1624.4 231.46 1635.87 239.028C1658.56 253.936 1678.81 275.462 1698.38 296.279C1704.91 303.221 1711.08 309.78 1717.33 316.091C1740.89 339.898 1764.3 365.444 1786.93 392.018C1833.32 446.419 1880.11 509.518 1929.95 584.927L1929.59 585.163Z" fill="#A1A1A1"/>
<path d="M1927.89 564.688C1881.25 487.019 1835.18 422.773 1787.04 368.279C1763.77 341.876 1739.39 317.114 1714.58 294.674C1709.28 289.877 1703.82 284.786 1698.54 279.865C1676.73 259.531 1654.19 238.506 1629.58 225.289C1618.02 219.043 1607.03 214.9 1595.96 212.625C1553.5 203.89 1512.7 230.042 1485.96 253.516C1467.84 269.362 1451.27 287.323 1435.25 304.695L1432.25 307.947C1417.7 323.707 1404.05 340.991 1389.6 359.293C1366.59 388.435 1342.8 418.567 1314.26 443.343C1297.65 457.865 1279.82 470.017 1261.27 479.459C1228.93 495.923 1192.93 507.672 1148 516.432C1124.76 520.962 1100.79 523.792 1076.74 524.84C1056.65 525.683 1036.66 525.26 1017.33 523.577C958.808 518.507 904.131 500.912 854.812 471.285C833.492 458.477 812.366 442.735 790.231 423.15C752.77 390.079 719.453 356.085 688.541 324.101C684.396 319.814 680.295 315.555 676.226 311.33C634.005 267.502 594.128 226.104 547.263 194.241C516.667 173.44 483.104 156.477 447.511 143.821C421.379 134.53 393.059 128.222 360.937 124.535C353.698 123.709 346.335 123.03 339.05 122.517C320.725 121.249 301.288 121.043 280.709 120.826C264.18 120.651 247.09 120.471 229.055 119.735C194.224 118.193 154.747 116.448 118.525 120.101C99.8357 121.987 81.9981 125.809 65.5059 131.464C6.97625 151.533 -34.8919 188.488 -46.4912 230.321L-46.9678 230.188C-43.9107 219.159 -38.8006 208.4 -31.7812 198.21C-25.0692 188.466 -16.5749 179.181 -6.53514 170.615C12.6673 154.233 37.5242 140.534 65.3423 130.996C81.8712 125.327 99.7454 121.497 118.471 119.608C154.73 115.952 194.226 117.7 229.072 119.242C247.096 119.975 264.186 120.158 280.709 120.333C301.297 120.55 320.739 120.755 339.081 122.027C346.371 122.542 353.743 123.222 360.988 124.048C393.149 127.737 421.503 134.054 447.671 143.358C483.307 156.028 516.906 173.011 547.536 193.836C594.444 225.726 634.341 267.144 676.578 310.992C680.648 315.217 684.751 319.473 688.894 323.763C719.8 355.741 753.106 389.726 790.555 422.787C812.668 442.348 833.771 458.077 855.066 470.868C904.32 500.459 958.927 518.027 1017.37 523.093C1036.68 524.773 1056.65 525.195 1076.72 524.353C1100.74 523.304 1124.69 520.477 1147.9 515.953C1192.79 507.201 1228.74 495.467 1261.05 479.025C1279.56 469.602 1297.35 457.473 1313.93 442.977C1342.43 418.232 1366.21 388.117 1389.21 358.991C1403.66 340.681 1417.32 323.388 1431.88 307.618L1434.88 304.365C1450.91 286.985 1467.49 269.013 1485.63 253.149C1512.46 229.599 1553.39 203.371 1596.06 212.146C1607.17 214.432 1618.21 218.589 1629.81 224.861C1654.47 238.106 1677.04 259.153 1698.87 279.51C1704.15 284.431 1709.61 289.522 1714.9 294.316C1739.73 316.767 1764.12 341.543 1787.41 367.96C1835.57 422.477 1881.65 486.746 1928.31 564.44L1927.89 564.688Z" fill="#A1A1A1"/>
<path d="M1926.19 544.21C1883.37 465.369 1836.7 398.095 1787.49 344.264C1763.56 318.027 1738.21 294.037 1712.14 272.959C1708.38 269.915 1704.52 266.755 1700.79 263.7C1676.15 243.515 1650.67 222.64 1623.53 211.196C1611.88 206.232 1600.85 203.202 1589.81 201.928C1547.47 197.046 1509.1 225.619 1484.37 250.449C1469.01 265.788 1455.15 282.847 1441.75 299.345C1439.43 302.2 1437.11 305.05 1434.79 307.888C1422.04 323.481 1410.12 340.901 1397.5 359.341C1376.05 390.69 1353.86 423.105 1325.49 449.319C1308.83 464.712 1291.36 476.612 1272.08 485.705C1231.76 504.723 1191.46 511.761 1157.36 516.142C1134.3 519.101 1110.34 520.398 1086.14 519.986C1066.1 519.606 1046.24 518.019 1027.09 515.274C970.332 507.153 916.371 487.005 866.71 455.388C846.047 442.236 824.91 426.085 802.086 406.013C779.032 385.786 757.548 366.323 736.769 347.499C722.648 334.705 709.309 322.622 696.283 311.028C647.043 267.203 601.94 228.672 548.585 200.975C517.332 184.754 483.803 172.273 448.929 163.881C423.934 157.866 397.216 154.938 364.849 154.659C357.866 154.608 350.754 154.69 343.712 154.904C333.015 155.251 321.948 155.975 310.236 156.744C287.76 158.219 262.28 159.89 234.834 158.954C224.382 158.596 213.719 158.092 203.406 157.601C176.879 156.341 149.451 155.039 123.609 156.203C104.633 157.06 86.6851 159.744 70.2717 164.18C11.8408 179.979 -32.1734 211.286 -47.47 247.926L-47.9917 247.709C-43.9871 238.114 -38.0534 228.818 -30.3572 220.078C-22.9656 211.684 -13.9072 203.755 -3.43881 196.513C16.7338 182.561 42.1688 171.193 70.1194 163.636C86.5723 159.188 104.559 156.496 123.578 155.64C149.448 154.473 176.888 155.778 203.428 157.038C213.739 157.528 224.402 158.033 234.851 158.391C262.271 159.326 287.731 157.658 310.197 156.184C321.915 155.414 332.984 154.69 343.692 154.343C350.742 154.129 357.86 154.047 364.852 154.098C397.264 154.374 424.021 157.311 449.059 163.335C483.975 171.737 517.549 184.232 548.842 200.476C572.943 212.986 597.365 228.835 623.505 248.927C646.907 266.913 669.671 286.593 696.655 310.608C709.681 322.204 723.02 334.288 737.144 347.082C757.92 365.903 779.404 385.366 802.453 405.59C825.254 425.642 846.369 441.776 867.007 454.914C916.599 486.489 970.484 506.609 1027.17 514.718C1046.29 517.461 1066.13 519.045 1086.14 519.425C1110.31 519.837 1134.25 518.543 1157.28 515.584C1191.34 511.212 1231.58 504.182 1271.83 485.198C1291.06 476.13 1308.48 464.261 1325.1 448.907C1353.42 422.739 1375.59 390.349 1397.03 359.025C1409.66 340.574 1421.59 323.146 1434.35 307.536C1436.67 304.698 1438.99 301.848 1441.3 298.995C1454.72 282.486 1468.59 265.416 1483.96 250.057C1500.05 233.903 1516.56 221.476 1533.02 213.121C1552.52 203.225 1571.65 199.273 1589.87 201.376C1600.96 202.655 1612.04 205.7 1623.74 210.683C1650.95 222.158 1676.46 243.058 1701.13 263.268C1704.86 266.324 1708.72 269.484 1712.48 272.525C1738.57 293.62 1763.94 317.633 1787.89 343.889C1814.02 372.473 1839.61 405.04 1863.95 440.685C1885.46 472.19 1906.56 506.933 1926.67 543.945L1926.19 544.21Z" fill="#A1A1A1"/>
<path d="M1924.49 523.727C1884.85 442.625 1838.91 374.164 1787.93 320.246C1763.35 294.176 1737.03 270.961 1709.71 251.241C1708.41 250.303 1707.11 249.364 1705.8 248.423C1677.39 227.891 1648.01 206.661 1617.5 197.103C1605.68 193.399 1594.61 191.479 1583.68 191.231C1541.5 190.279 1505.53 221.239 1482.79 247.377C1469.4 262.668 1457.52 279.428 1446.03 295.636C1443.19 299.644 1440.25 303.787 1437.35 307.824C1426.31 323.197 1416.04 340.676 1405.17 359.183C1385.4 392.847 1364.95 427.655 1336.73 455.289C1320.4 471.277 1302.79 483.268 1282.9 491.949C1243.7 509.05 1203.9 513.54 1166.73 515.846C1143.81 517.267 1119.86 517.024 1095.54 515.127C1075.57 513.521 1055.83 510.772 1036.86 506.961C982.03 495.969 928.786 473.267 878.612 439.485C858.519 425.958 837.971 409.874 813.952 388.87C768.302 349.058 734.403 321.018 704.042 297.953C643.653 252.078 597.563 225.09 549.934 207.709C518.046 196.074 484.551 188.077 450.374 183.939C426.662 181.07 401.497 181.327 368.784 184.779C362.08 185.495 355.221 186.338 348.397 187.288C341.95 188.198 335.401 189.241 328.467 190.344C302.862 194.417 273.84 199.034 240.624 198.171C223.117 197.717 205.234 196.474 187.941 195.273C168.287 193.909 147.965 192.497 128.698 192.305C109.38 192.114 91.3221 193.658 75.0413 196.9C16.805 208.487 -29.361 234.152 -48.4507 265.549L-48.9922 265.219C-44.0343 257.062 -37.2772 249.229 -28.9098 241.937C-20.8329 234.896 -11.2161 228.325 -0.324655 222.403C20.8322 210.897 46.851 201.861 74.9172 196.277C91.2431 193.03 109.34 191.479 128.703 191.671C147.988 191.863 168.321 193.275 187.983 194.642C205.271 195.843 223.145 197.086 240.638 197.54C273.795 198.399 302.786 193.788 328.362 189.721C335.3 188.616 341.854 187.576 348.304 186.662C355.137 185.712 362.001 184.87 368.71 184.151C401.475 180.695 426.682 180.436 450.444 183.314C484.67 187.457 518.213 195.465 550.145 207.118C597.84 224.52 643.978 251.537 704.419 297.451C734.793 320.525 768.702 348.574 814.363 388.396C838.366 409.384 858.891 425.451 878.962 438.963C929.068 472.697 982.233 495.368 1036.98 506.344C1055.92 510.149 1075.64 512.892 1095.58 514.499C1119.87 516.393 1143.79 516.635 1166.69 515.217C1203.8 512.915 1243.53 508.436 1282.64 491.374C1302.46 482.726 1320.01 470.775 1336.28 454.844C1364.44 427.269 1384.87 392.497 1404.62 358.87C1415.49 340.351 1425.77 322.859 1436.83 307.463C1439.73 303.429 1442.67 299.286 1445.51 295.278C1457.01 279.056 1468.9 262.285 1482.3 246.968C1497.15 229.909 1512.71 216.416 1528.55 206.861C1547.12 195.668 1565.67 190.203 1583.69 190.606C1594.68 190.854 1605.8 192.784 1617.68 196.505C1648.3 206.097 1677.72 227.356 1706.17 247.918C1707.48 248.86 1708.78 249.801 1710.08 250.737C1737.43 270.479 1763.78 293.722 1788.39 319.82C1839.41 373.787 1885.39 442.301 1925.05 523.459L1924.49 523.727Z" fill="#A1A1A1"/>
<path d="M1180.76 515.553C1179.18 515.553 1177.62 515.55 1176.08 515.542C1153.28 515.446 1129.34 513.67 1104.93 510.259C1085.03 507.427 1065.41 503.517 1046.62 498.643C1019.77 491.693 992.827 481.703 966.529 468.954C941.134 456.642 915.558 441.376 890.509 423.576C865.965 406.137 843.04 386.705 825.809 371.723C785.492 336.766 747.132 307.547 711.796 284.877C654.563 248.16 603.561 225.777 551.283 214.438C519.746 207.597 485.909 203.989 453.331 203.989C452.826 203.989 452.324 203.989 451.819 203.992C423.832 204.087 397.26 209.285 372.719 214.889C366.332 216.357 359.724 217.961 353.08 219.661C349.439 220.602 345.792 221.572 341.935 222.598C314.723 229.845 283.879 238.055 246.407 237.382C223.587 236.97 200.278 234.608 177.736 232.322C163.181 230.845 148.133 229.32 133.778 228.399C114.046 227.133 95.8868 227.539 79.8006 229.611C21.8745 237.063 -26.4433 257.087 -49.453 283.177L-49.9832 282.712C-38.1808 269.332 -20.4278 257.747 2.78207 248.276C24.9485 239.234 51.5511 232.536 79.7104 228.914C95.8389 226.84 114.046 226.428 133.824 227.7C148.192 228.621 163.249 230.149 177.81 231.626C200.337 233.912 223.632 236.274 246.421 236.683C283.797 237.356 314.587 229.157 341.754 221.924C345.615 220.895 349.261 219.926 352.905 218.984C359.555 217.284 366.168 215.678 372.561 214.209C397.145 208.597 423.761 203.391 451.816 203.292C484.914 203.177 519.356 206.796 551.433 213.755C578.413 219.61 604.57 228.227 631.393 240.099C657.226 251.534 683.65 265.989 712.174 284.29C747.538 306.978 785.926 336.219 826.269 371.199C843.486 386.172 866.394 405.59 890.913 423.009C941.74 459.128 994.187 484.347 1046.79 497.97C1065.56 502.838 1085.15 506.742 1105.02 509.571C1129.4 512.976 1153.31 514.752 1176.08 514.845C1211.71 514.992 1253.09 513.791 1293.44 497.541C1313.86 489.316 1331.53 477.289 1347.45 460.774C1375.42 431.77 1393.96 394.543 1411.89 358.54C1421.12 340.022 1429.83 322.529 1439.3 307.387C1442.34 302.536 1445.4 297.538 1448.36 292.704C1458.37 276.373 1468.71 259.489 1480.63 243.882C1494.25 225.927 1508.87 211.362 1524.07 200.595C1541.7 188.111 1559.67 181.126 1577.49 179.835C1588.48 179.038 1599.64 179.852 1611.6 182.327C1643.59 188.94 1675.29 208.152 1707.65 228.945C1735.87 247.075 1763.96 270.174 1788.87 295.748C1816.55 324.073 1842.55 357.303 1866.16 394.512C1887.19 427.663 1906.46 464.154 1923.42 502.973L1922.78 503.255C1886.35 419.889 1841.13 350.239 1788.37 296.242C1763.49 270.704 1735.45 247.639 1707.27 229.54C1674.96 208.783 1643.33 189.608 1611.46 183.018C1599.56 180.557 1588.47 179.748 1577.54 180.54C1544.8 182.916 1510.59 205.562 1481.19 244.31C1469.3 259.889 1458.96 276.759 1448.96 293.073C1446 297.91 1442.94 302.911 1439.9 307.762C1430.45 322.875 1421.74 340.354 1412.53 358.856C1403.73 376.521 1394.63 394.789 1384.19 412.349C1372.35 432.258 1360.51 448.256 1347.96 461.265C1331.97 477.853 1314.22 489.934 1293.7 498.198C1275.6 505.487 1256.15 510.304 1234.24 512.931C1215.68 515.144 1197.04 515.553 1180.76 515.553Z" fill="#A1A1A1"/>
<path d="M1225.99 516.965C1211.61 516.965 1197.79 516.108 1185.43 515.24C1162.71 513.645 1138.78 510.333 1114.31 505.394C1094.49 501.338 1075 496.27 1056.37 490.326C1005.36 474.081 954.99 447.042 902.397 407.667C879.461 390.499 857.838 372.025 837.663 354.577C797.831 320.232 758.095 292.383 719.552 271.801C662.867 241.531 609.831 225.439 552.644 221.16C520.059 218.722 485.699 219.717 453.272 224.035C426.131 227.649 400.544 236.37 376.657 244.989C370.681 247.157 364.324 249.525 357.768 252.025C356.129 252.653 354.476 253.293 352.801 253.939C325.291 264.571 294.162 276.601 254.211 276.601C253.537 276.601 252.866 276.598 252.186 276.59C225.158 276.316 197.563 272.46 170.873 268.728C160.292 267.249 149.349 265.721 138.85 264.484C118.342 262.071 100.58 261.358 84.5476 262.31C26.2352 265.777 -22.9851 279.803 -50.4873 300.8L-50.9583 300.182C-37.3623 289.804 -17.7029 280.792 5.88774 274.123C29.092 267.564 56.2755 263.212 84.4997 261.535C100.577 260.58 118.384 261.293 138.937 263.711C149.448 264.949 160.393 266.479 170.977 267.956C197.642 271.682 225.212 275.536 252.189 275.809C292.972 276.226 324.608 263.996 352.516 253.209C354.189 252.563 355.844 251.923 357.483 251.292C364.045 248.789 370.405 246.421 376.386 244.254C400.313 235.617 425.948 226.885 453.162 223.26C485.639 218.936 520.057 217.938 552.694 220.379C581.034 222.499 608.054 227.505 635.297 235.679C663.355 244.099 691.032 255.686 719.91 271.11C758.501 291.721 798.288 319.603 838.162 353.983C858.329 371.425 879.937 389.887 902.854 407.039C955.377 446.36 1005.67 473.36 1056.6 489.579C1075.2 495.512 1094.67 500.574 1114.45 504.625C1138.89 509.557 1162.79 512.867 1185.48 514.456C1223.66 517.134 1264.27 518.51 1304.23 503.692C1325.25 495.893 1343.05 483.789 1358.62 466.688C1386.36 436.226 1403.63 394.676 1418.87 358.016C1426.54 339.571 1433.78 322.148 1441.77 307.297C1444.65 301.938 1447.55 296.4 1450.36 291.044C1459.13 274.287 1468.21 256.96 1478.95 240.778C1491.38 221.927 1505.05 206.292 1519.59 194.307C1536.28 180.543 1553.67 172.042 1571.27 169.045C1582.28 167.171 1593.48 166.872 1605.51 168.124C1639.14 171.627 1673.31 188.94 1705.22 207.129C1734.69 223.923 1763.78 246.235 1789.35 271.654C1817.8 299.847 1844.01 333.409 1867.26 371.402C1888.04 405.379 1906.39 442.743 1921.79 482.464L1921.07 482.743C1888.33 398.312 1842.6 325.508 1788.81 272.201C1763.29 246.83 1734.25 224.56 1704.84 207.8C1673.01 189.653 1638.93 172.383 1605.44 168.893C1593.47 167.647 1582.34 167.946 1571.41 169.807C1538.91 175.34 1506.31 200.694 1479.6 241.201C1468.88 257.349 1459.82 274.659 1451.05 291.399C1448.24 296.758 1445.34 302.296 1442.45 307.66C1434.48 322.478 1427.25 339.884 1419.59 358.309C1404.33 395.026 1387.03 436.644 1359.2 467.207C1343.53 484.401 1325.64 496.572 1304.5 504.416C1286.15 511.221 1266.36 515.161 1243.99 516.455C1237.94 516.821 1231.92 516.965 1225.99 516.965Z" fill="#A1A1A1"/>
<path d="M1254.37 520.017C1254.16 520.017 1253.96 520.017 1253.75 520.017C1233.43 519.967 1213.48 517.481 1194.78 514.938C1172.09 511.854 1148.18 507.004 1123.69 500.526C1103.96 495.252 1084.6 489.02 1066.12 482.007C1017.15 463.441 968.905 434.766 914.292 391.761C894.624 376.278 875.27 359.606 856.549 343.486C854.209 341.467 851.865 339.452 849.522 337.437C809.484 303.099 768.369 276.618 727.321 258.73C671.113 234.239 614.425 224.148 554.017 227.883C520.894 229.932 486.564 235.533 454.739 244.079C429.628 250.824 407.253 261.645 380.608 275.09C375.207 277.827 369.44 280.781 362.463 284.389L362.074 284.592C348.613 291.599 333.356 299.539 316.243 305.577C296.59 312.511 277.523 315.848 257.97 315.809C227.482 315.733 196.367 310.062 166.279 304.574C158.907 303.229 151.281 301.839 143.92 300.582C122.811 296.983 104.943 295.165 89.2938 295.027C31.6723 294.519 -19.6603 303.054 -51.5394 318.439L-51.906 317.678C-36.2908 310.14 -15.227 304.024 9.00664 299.988C33.2854 295.943 61.0527 293.936 89.3023 294.184C104.996 294.322 122.91 296.143 144.064 299.751C151.43 301.008 159.056 302.397 166.431 303.742C196.482 309.222 227.558 314.887 257.973 314.963C258.109 314.963 258.247 314.963 258.382 314.963C301.889 314.963 335.034 297.713 361.685 283.842L362.077 283.639C369.056 280.028 374.824 277.074 380.227 274.337C406.917 260.87 429.332 250.029 454.521 243.264C486.401 234.701 520.787 229.092 553.966 227.04C583.527 225.213 611.41 226.606 639.214 231.302C669.175 236.361 698.107 245.079 727.66 257.958C768.786 275.879 809.972 302.403 850.074 336.797C852.418 338.812 854.761 340.83 857.102 342.849C875.814 358.963 895.163 375.63 914.814 391.102C969.356 434.053 1017.53 462.688 1066.42 481.224C1084.87 488.228 1104.21 494.449 1123.91 499.717C1148.36 506.186 1172.24 511.029 1194.9 514.107C1235.47 519.626 1275.19 523.453 1315.04 509.879C1336.66 502.51 1354.58 490.331 1369.8 472.641C1397.3 440.685 1412.32 396.406 1425.57 357.337C1431.77 339.046 1437.64 321.768 1444.25 307.248C1446.79 301.662 1449.34 295.884 1451.81 290.294C1459.53 272.818 1467.5 254.75 1477.29 237.714C1488.55 217.958 1501.27 201.249 1515.11 188.052C1530.88 173.011 1547.69 162.999 1565.07 158.298C1575.85 155.383 1586.84 153.962 1598.66 153.962C1598.91 153.962 1599.17 153.962 1599.43 153.965C1636.17 154.157 1673.97 170.838 1702.8 185.349C1733.52 200.809 1763.62 222.333 1789.85 247.594C1819.07 275.657 1845.49 309.549 1868.36 348.331C1888.89 383.133 1906.32 421.375 1920.17 461.997L1919.37 462.271C1898.77 401.827 1859.47 315.626 1789.26 248.205C1763.09 223.001 1733.06 201.528 1702.42 186.104C1673.67 171.633 1635.99 155 1599.43 154.811C1587.39 154.74 1576.23 156.155 1565.29 159.115C1533.09 167.828 1502.1 195.89 1478.02 238.134C1468.26 255.131 1460.29 273.179 1452.58 290.635C1450.11 296.227 1447.56 302.009 1445.02 307.598C1438.42 322.08 1432.57 339.336 1426.37 357.607C1413.09 396.748 1398.05 441.111 1370.44 473.19C1355.12 490.999 1337.09 503.26 1315.31 510.676C1296.86 516.959 1276.92 520.017 1254.37 520.017Z" fill="#A1A1A1"/>
<path d="M1276.94 523.987C1272.56 523.987 1268.09 523.846 1263.51 523.564C1243.46 522.332 1223.98 518.637 1204.13 514.634C1181.11 509.995 1157.87 503.788 1133.07 495.659C1113.45 489.17 1094.2 481.78 1075.88 473.687C1029.38 453.19 983.214 423.016 926.187 375.853C912.025 364.142 897.867 351.858 884.175 339.977C876.722 333.511 869.017 326.822 861.383 320.291C820.869 285.723 778.38 260.614 735.096 245.658C677.906 225.896 619.128 222.277 555.398 234.594C521.728 241.103 487.43 251.309 456.213 264.109C431.136 274.392 409.291 288.832 386.163 304.12L384.564 305.177C380.952 307.573 377.3 310.003 373.602 312.461C371.473 313.879 369.33 315.305 367.167 316.742C353.681 325.754 339.115 335.154 322.411 342.39C303.016 350.789 283.834 354.922 263.76 355.023C230.341 355.187 196.254 347.424 163.292 339.909C158.588 338.835 153.72 337.728 148.996 336.676C126.85 331.744 109.39 328.905 94.0426 327.738C37.4081 323.434 -16.0396 326.467 -52.6001 336.062L-52.8342 335.177C-16.1778 325.556 37.3799 322.512 94.1131 326.825C109.503 327.995 127.007 330.842 149.196 335.783C153.923 336.837 158.791 337.945 163.497 339.019C196.056 346.44 229.712 354.11 262.688 354.11C263.044 354.11 263.399 354.11 263.757 354.107C306.409 353.893 336.771 335.949 366.662 315.981C368.825 314.544 370.968 313.118 373.097 311.7C376.795 309.239 380.444 306.812 384.059 304.413L385.658 303.356C408.826 288.042 430.708 273.577 455.866 263.261C487.139 250.436 521.497 240.212 555.226 233.693C619.117 221.344 678.053 224.974 735.398 244.79C778.789 259.785 821.376 284.95 861.981 319.595C869.615 326.129 877.322 332.815 884.776 339.284C898.462 351.161 912.617 363.443 926.771 375.146C983.73 422.255 1029.83 452.386 1076.25 472.85C1094.55 480.928 1113.76 488.311 1133.36 494.788C1158.12 502.906 1181.33 509.104 1204.31 513.735C1239.2 520.768 1282.61 529.523 1325.85 516.038C1348.08 509.107 1366.11 496.851 1380.97 478.569C1408.21 445.083 1420.83 397.986 1431.97 356.435C1436.81 338.384 1441.39 321.334 1446.72 307.184C1448.8 301.671 1450.88 295.969 1452.9 290.453C1459.65 271.953 1466.64 252.826 1475.62 234.634C1485.74 213.959 1497.52 196.176 1510.63 181.778C1525.49 165.463 1541.71 153.943 1558.86 147.536C1569.86 143.424 1581.14 140.89 1593.34 139.788C1609.67 138.311 1627.06 139.889 1646.49 144.602C1662.93 148.593 1680.56 154.789 1700.38 163.547C1732.34 177.671 1763.45 198.408 1790.34 223.514C1820.34 251.445 1846.96 285.672 1869.47 325.241C1889.73 360.872 1906.25 399.99 1918.54 441.512L1917.66 441.771C1891.7 354.11 1846.26 276.835 1789.71 224.185C1762.9 199.147 1731.88 178.469 1700.01 164.387C1657.3 145.518 1623.44 137.989 1593.42 140.701C1581.31 141.795 1570.11 144.312 1559.18 148.393C1518.38 163.634 1491.67 203.924 1476.44 235.037C1467.49 253.184 1460.51 272.289 1453.76 290.765C1451.74 296.284 1449.66 301.989 1447.58 307.506C1442.26 321.613 1437.69 338.644 1432.86 356.672C1421.7 398.313 1409.04 445.509 1381.69 479.147C1366.7 497.573 1348.53 509.927 1326.12 516.915C1310.93 521.65 1294.74 523.987 1276.94 523.987Z" fill="#A1A1A1"/>
<path d="M1296.49 528.536C1266.67 528.536 1238 520.877 1213.47 514.327C1190.39 508.165 1167.16 500.464 1142.44 490.788C1122.93 483.093 1103.81 474.541 1085.62 465.366C1031.1 437.895 982.484 398.464 938.078 359.944C929.011 352.08 919.851 343.973 910.996 336.135C898.7 325.249 885.984 313.994 873.242 303.147C832.121 268.238 788.26 244.496 742.878 232.582C684.17 217.172 623.297 220.021 556.781 241.297C522.533 252.25 488.268 267.063 457.689 284.133C434.104 297.296 414.148 313.915 393.023 331.509C391.525 332.755 390.025 334.007 388.516 335.258L387.698 335.94C382.563 340.222 377.252 344.647 371.869 349.089C358.969 359.781 344.764 370.838 328.334 379.286C309.261 389.092 290.033 393.983 269.545 394.236C233.582 394.684 196.928 384.579 161.485 374.807C159 374.122 156.527 373.44 154.065 372.766C130.691 366.357 113.641 362.557 98.7839 360.443C43.5708 352.59 -11.9976 350.121 -53.674 353.67L-53.7585 352.686C-12.0145 349.129 43.6357 351.601 98.9221 359.465C113.821 361.585 130.908 365.393 154.324 371.814C156.786 372.487 159.259 373.169 161.747 373.857C197.123 383.61 233.706 393.69 269.531 393.25C314.024 392.697 345.359 369.773 371.237 348.328C376.62 343.886 381.931 339.461 387.066 335.182L387.884 334.5C389.393 333.245 390.893 331.997 392.391 330.751C413.553 313.126 433.543 296.478 457.207 283.27C487.842 266.169 522.172 251.331 556.479 240.358C588.014 230.273 617.634 224.45 647.029 222.555C679.819 220.444 712.149 223.497 743.126 231.629C788.652 243.58 832.643 267.39 873.88 302.395C886.63 313.247 899.348 324.505 911.647 335.393C920.503 343.232 929.657 351.336 938.721 359.197C983.082 397.675 1031.63 437.063 1086.06 464.484C1104.23 473.644 1123.32 482.185 1142.8 489.869C1167.48 499.531 1190.68 507.221 1213.72 513.374C1249.1 522.822 1293.14 534.582 1336.65 522.208C1359.48 515.713 1377.63 503.382 1392.14 484.508C1419.09 449.446 1429.17 399.451 1438.07 355.338C1441.65 337.614 1445.02 320.874 1449.18 307.127C1450.72 302.043 1452.27 296.789 1453.76 291.706C1459.61 271.829 1465.66 251.272 1473.93 231.561C1482.93 209.95 1493.76 191.088 1506.13 175.503C1520.08 157.917 1535.72 144.889 1552.63 136.78C1563.61 131.515 1574.93 127.864 1587.23 125.618C1603.8 122.593 1622.19 122.695 1641.88 125.919C1659.13 128.744 1677.99 134.068 1697.93 141.749C1731.14 154.538 1763.26 174.486 1790.81 199.437C1821.59 227.237 1848.42 261.795 1870.56 302.153C1890.56 338.612 1906.15 378.61 1916.91 421.031L1915.95 421.273C1893.17 331.385 1848.49 252.862 1790.15 200.169C1762.69 175.3 1730.68 155.417 1697.58 142.671C1654.68 126.151 1618.64 120.888 1587.41 126.59C1575.2 128.82 1563.96 132.445 1553.06 137.671C1512.83 156.965 1488.32 199.583 1474.84 231.942C1466.59 251.602 1460.55 272.131 1454.71 291.983C1453.22 297.065 1451.67 302.322 1450.13 307.412C1445.98 321.114 1442.61 337.831 1439.04 355.533C1434.76 376.755 1429.91 400.807 1422.86 423.356C1414.79 449.192 1405 469.391 1392.92 485.108C1385.94 494.196 1377.91 501.93 1369.06 508.097C1359.55 514.73 1348.73 519.798 1336.92 523.158C1323.4 527.005 1309.83 528.536 1296.49 528.536Z" fill="#A1A1A1"/>
<path d="M1314.12 533.527C1304.26 533.527 1293.93 532.569 1283.02 530.655C1261.53 526.887 1240.96 520.048 1222.81 514.019C1199.93 506.417 1176.05 496.961 1151.82 485.914C1132.43 477.024 1113.43 467.311 1095.37 457.039C1043.51 427.593 998.841 388.438 949.967 344.032C945.624 340.086 941.213 336.061 936.949 332.166C920.155 316.835 902.792 300.983 885.101 286.004C843.297 250.686 798.065 228.314 750.658 219.508C690.859 208.4 626.091 217.983 558.162 247.997C523.305 263.398 489.071 282.813 459.163 304.148C436.644 320.212 418.107 339.15 398.482 359.203C396.488 361.241 394.486 363.284 392.472 365.336C387.461 370.449 382.063 375.937 376.572 381.431C365.057 392.99 351.024 406.162 334.258 416.177C315.49 427.39 296.214 433.041 275.334 433.45C237.11 434.202 198.2 421.552 160.57 409.319L159.138 408.854C140.714 402.867 121.224 396.818 103.53 393.145C49.5971 381.952 -6.61151 374.181 -54.7375 371.264L-54.6727 370.21C-6.49589 373.13 49.7635 380.907 103.744 392.111C121.489 395.795 141.013 401.852 159.465 407.848L160.898 408.313C198.445 420.518 237.276 433.137 275.314 432.39C319.244 431.527 349.583 407.027 375.825 380.678C381.316 375.187 386.708 369.699 391.719 364.589C393.733 362.54 395.735 360.494 397.729 358.458C417.388 338.372 435.959 319.4 458.551 303.283C488.516 281.906 522.814 262.454 557.736 247.024C589.607 232.945 620.97 223.243 650.948 218.192C685.202 212.422 718.816 212.512 750.855 218.463C798.443 227.302 843.842 249.753 885.786 285.192C903.491 300.185 920.863 316.043 937.666 331.382C941.93 335.275 946.34 339.3 950.684 343.246C999.509 387.609 1044.14 426.722 1095.9 456.118C1113.94 466.372 1132.9 476.071 1152.26 484.95C1176.46 495.98 1200.3 505.422 1223.15 513.013C1258.96 524.913 1303.52 539.72 1347.46 528.375C1370.9 522.323 1389.17 509.918 1403.32 490.447C1429.97 453.761 1437.68 398.467 1443.88 354.036C1446.3 336.729 1448.57 320.384 1451.67 307.079C1452.64 302.885 1453.62 298.564 1454.57 294.384C1459.51 272.669 1464.62 250.212 1472.27 228.497C1484.1 194.704 1506.56 149.498 1546.42 126.038C1557.43 119.56 1568.79 114.791 1581.14 111.459C1613.46 102.617 1651.94 105.478 1695.51 119.958C1729.96 131.41 1763.09 150.569 1791.3 175.365C1822.86 203.033 1849.9 237.923 1871.67 279.073C1881.66 297.947 1890.48 318.106 1897.9 338.99C1904.99 358.938 1910.84 379.652 1915.29 400.558L1914.25 400.778C1894.66 308.658 1850.75 228.886 1790.6 176.157C1762.49 151.454 1729.5 132.368 1695.17 120.958C1651.81 106.544 1613.53 103.691 1581.42 112.477C1569.15 115.783 1557.88 120.516 1546.96 126.945C1507.37 150.242 1485.04 195.217 1473.27 228.844C1465.63 250.503 1460.53 272.928 1455.6 294.615C1454.65 298.795 1453.67 303.119 1452.69 307.316C1449.62 320.575 1447.34 336.898 1444.93 354.18C1441.81 376.538 1438.28 401.878 1432.23 425.794C1425.29 453.276 1416.11 474.628 1404.17 491.067C1397.36 500.444 1389.39 508.354 1380.49 514.572C1370.9 521.272 1359.87 526.261 1347.73 529.395C1337.06 532.152 1325.93 533.527 1314.12 533.527Z" fill="#A1A1A1"/>
<path d="M1330.36 538.799C1318.55 538.799 1306.08 537.268 1292.77 534.199C1271.2 529.229 1250.45 520.982 1232.15 513.704C1209.1 504.543 1185.22 493.553 1161.19 481.035C1141.93 470.959 1123.06 460.084 1105.11 448.711C1055.73 417.437 1013.37 377.13 968.523 334.461C966.303 332.349 964.084 330.235 961.859 328.121C941.004 308.3 919.441 287.803 896.961 268.861C854.43 233.095 807.827 212.09 758.446 206.43C696.42 199.318 629.5 215.557 559.543 254.689C524.55 274.262 489.425 298.934 460.637 324.158C438.899 343.204 421.465 364.635 403.007 387.325C400.822 390.011 398.63 392.706 396.422 395.406C392.011 400.81 386.763 407.217 381.269 413.77C371.094 425.938 357.23 441.402 340.18 453.034C321.71 465.637 302.392 472.061 281.12 472.667C263.635 473.104 244.339 470.406 222.128 464.416C203.058 459.275 184.611 452.555 164.199 444.945C145.566 437.912 125.901 430.648 108.258 425.851C55.9978 411.639 0.795957 399.195 -55.8103 388.856L-55.6073 387.748C1.03284 398.09 56.2657 410.546 108.554 424.763C126.245 429.575 145.938 436.85 164.594 443.888C198.808 456.648 241.389 472.534 281.089 471.539C326.477 470.243 355.645 442.659 380.404 413.043C385.895 406.495 391.14 400.091 395.548 394.69C397.756 391.99 399.947 389.295 402.13 386.612C420.619 363.885 438.084 342.418 459.893 323.31C488.74 298.035 523.933 273.315 558.993 253.705C629.162 214.455 696.312 198.174 758.576 205.311C782.449 208.048 805.898 214.404 828.268 224.202C852.27 234.713 875.627 249.452 897.689 268.001C920.194 286.963 941.771 307.472 962.637 327.307C964.862 329.424 967.084 331.535 969.304 333.646C1014.11 376.279 1056.43 416.547 1105.72 447.761C1123.64 459.117 1142.48 469.978 1161.71 480.038C1185.71 492.536 1209.55 503.512 1232.57 512.658C1268.74 527.034 1313.76 544.924 1358.27 534.548C1382.38 528.928 1400.77 516.447 1414.48 496.394C1440.9 458.094 1445.6 399.586 1449.39 352.576C1450.74 335.763 1452.02 319.882 1454.13 307.04C1454.57 304.391 1455.01 301.727 1455.45 299.049C1459.4 274.862 1463.49 249.849 1470.6 225.439C1480.75 190.33 1501.06 142.722 1540.2 115.302C1551.12 107.652 1562.51 101.766 1575.03 97.3071C1592.44 91.0525 1611.83 88.1126 1632.68 88.5636C1651.71 88.9751 1672.03 92.2081 1693.07 98.1697C1728.76 108.28 1762.9 126.65 1791.78 151.291C1824.12 178.824 1851.37 214.052 1872.76 255.991C1882.58 275.234 1891.09 295.808 1898.04 317.14C1904.69 337.57 1909.95 358.749 1913.65 380.09L1912.54 380.281C1896.39 287.29 1852.11 204.138 1791.05 152.148C1762.29 127.614 1728.3 109.32 1692.76 99.2492C1648.93 86.8301 1608.35 86.5257 1575.41 98.3642C1562.98 102.79 1551.68 108.63 1540.84 116.221C1501.97 143.452 1481.78 190.814 1471.68 225.749C1464.59 250.094 1460.51 275.071 1456.56 299.227C1456.12 301.905 1455.68 304.571 1455.25 307.221C1453.13 320.015 1451.86 335.876 1450.51 352.664C1446.71 399.809 1442 458.486 1415.41 497.031C1408.8 506.697 1400.9 514.786 1391.92 521.069C1382.26 527.828 1371.02 532.733 1358.53 535.647C1349.5 537.745 1340.15 538.799 1330.36 538.799Z" fill="#A1A1A1"/>
<path d="M1345.63 544.287C1332.16 544.287 1317.9 542.111 1302.53 537.742C1280.78 531.56 1259.9 521.906 1241.48 513.391C1218.2 502.629 1194.34 490.1 1170.56 476.159C1151.43 464.912 1132.69 452.874 1114.85 440.384C1070.92 409.638 1033.38 371.972 993.629 332.093C987.131 325.573 980.411 318.834 973.744 312.207C950.308 288.925 930.296 269.727 908.815 251.718C865.526 215.478 817.555 195.84 766.231 193.348C701.739 190.217 632.659 213.105 560.915 261.375C525.273 285.356 490.179 314.755 462.099 344.16C440.945 366.312 424.407 390.426 406.9 415.955C404.731 419.117 402.554 422.291 400.363 425.468C396.46 431.136 391.293 438.606 385.96 446.095C363.517 477.687 334.196 510.212 286.899 511.875C285.424 511.923 283.944 511.945 282.466 511.945C245.533 511.945 207.828 497.336 169.253 481.024L166.845 479.998C147.738 471.846 129.689 464.149 112.983 458.545C50.0227 437.427 -10.8674 419.602 -56.8811 406.433L-56.5511 405.28C-10.5261 418.455 50.3809 436.283 113.364 457.409C130.115 463.027 148.184 470.736 167.316 478.896L169.722 479.922C209.709 496.831 248.759 511.914 286.857 510.68C333.629 509.033 362.705 476.759 384.982 445.404C390.312 437.921 395.473 430.457 399.376 424.791C401.567 421.612 403.741 418.441 405.91 415.278C423.446 389.71 440.009 365.556 461.23 343.334C489.367 313.867 524.532 284.409 560.243 260.38C593.389 238.078 626.545 220.955 658.791 209.48C695.789 196.314 731.957 190.485 766.287 192.151C817.876 194.654 866.09 214.387 909.582 250.796C931.094 268.833 951.126 288.051 974.584 311.353C981.254 317.98 987.974 324.722 994.475 331.242C1034.19 371.081 1071.69 408.711 1115.54 439.395C1133.35 451.87 1152.07 463.889 1171.16 475.119C1194.91 489.043 1218.73 501.553 1241.98 512.298C1278.46 529.167 1323.88 550.161 1369.07 540.71C1393.78 535.543 1412.28 522.989 1425.64 502.331C1451.73 462.285 1453.3 400.486 1454.56 350.829C1454.97 334.627 1455.36 319.321 1456.6 306.99L1456.63 306.708C1459.42 279.093 1462.3 250.54 1468.92 222.367C1474.64 197.794 1482.62 175.701 1492.62 156.697C1503.91 135.272 1517.81 117.729 1533.97 104.551C1544.78 95.7344 1556.21 88.7299 1568.92 83.1404C1603.26 67.9505 1645.34 65.6054 1690.62 76.3643C1708.84 80.6938 1726.81 87.2529 1744.04 95.8555C1761.37 104.509 1777.59 115.059 1792.26 127.208C1825.38 154.608 1852.84 190.169 1873.86 232.903C1892.76 271.313 1905.96 315.13 1912.02 359.612L1910.84 359.772C1897.86 264.568 1854.36 180.137 1791.49 128.13C1762.09 103.77 1727.11 86.272 1690.34 77.5369C1645.33 66.8399 1603.51 69.1597 1569.41 84.2454C1556.8 89.7925 1545.46 96.7406 1534.73 105.487C1504.57 130.091 1482.22 170.604 1470.09 222.646C1463.49 250.745 1460.61 279.259 1457.82 306.835L1457.8 307.117C1456.56 319.403 1456.17 334.686 1455.75 350.865C1454.49 400.675 1452.91 462.66 1426.65 502.987C1420.21 512.949 1412.36 521.213 1403.33 527.549C1393.59 534.382 1382.15 539.205 1369.32 541.891C1361.67 543.486 1353.8 544.287 1345.63 544.287Z" fill="#A1A1A1"/>
<path d="M287.777 551.19C271.262 551.19 253.278 547.974 232.981 541.406C212.814 534.881 192.87 525.872 174.319 517.112C170.96 515.517 167.627 513.924 164.316 512.343C147.835 504.47 132.267 497.034 117.718 491.242C59.7047 468.154 4.40704 447.403 -49.0717 427.339L-57.9326 424.013L-57.487 422.827L-48.6261 426.153C4.85543 446.222 60.1616 466.973 118.186 490.067C132.775 495.873 148.362 503.317 164.863 511.201C168.171 512.782 171.504 514.375 174.86 515.968C212.941 533.951 253.399 551.379 292.639 549.826C340.875 547.819 369.781 510.262 389.573 477.771C394.644 469.462 399.528 461.181 403.217 454.895C405.253 451.431 407.275 447.969 409.292 444.516C426.015 415.893 441.811 388.856 462.584 363.364C490.005 329.72 525.136 295.518 561.51 267.063C595.256 240.663 629.309 219.805 662.728 205.069C701.06 188.165 738.5 179.393 774.009 178.996C827.44 178.201 877.066 196.573 921.489 233.597C946.115 254.145 968.194 276.373 986.548 295.408C996.534 305.766 1006.52 316.384 1016.18 326.653C1050.37 363.006 1085.72 400.593 1125.37 431.038C1143.08 444.641 1161.67 457.821 1180.62 470.209C1204.07 485.506 1227.88 499.549 1251.4 511.945C1288.17 531.321 1333.92 555.435 1379.88 546.877C1405.18 542.167 1423.8 529.54 1436.81 508.273C1462.55 466.412 1460.81 401.227 1459.42 348.85C1459 333.361 1458.61 318.73 1459.08 306.95C1460.14 280.395 1461.73 249.534 1467.25 219.306C1471.9 193.692 1478.93 170.52 1488.12 150.434C1498.53 127.712 1511.86 108.664 1527.75 93.8149C1538.28 83.9748 1550.08 75.623 1562.82 68.9878C1581 59.4888 1601.4 53.516 1623.45 51.2385C1644.11 49.1048 1665.88 50.2266 1688.18 54.5702C1706.98 58.2345 1725.51 64.2609 1743.26 72.4858C1761.12 80.7615 1777.77 91.0723 1792.74 103.131C1810.01 117.016 1825.88 133.412 1839.92 151.866C1853.23 169.35 1865.02 188.85 1874.97 209.821C1893.59 249.054 1905.84 293.776 1910.4 339.143L1909.13 339.269C1899.35 241.847 1856.63 156.139 1791.95 104.12C1762.32 80.2682 1725.38 63.1137 1687.94 55.8161C1641.63 46.7935 1598.57 51.7374 1563.41 70.1125C1550.77 76.6941 1539.06 84.9811 1528.62 94.7422C1498.68 122.721 1478.45 164.705 1468.5 219.534C1462.99 249.68 1461.4 280.488 1460.35 307.001C1459.88 318.738 1460.27 333.347 1460.68 348.816C1461.37 374.655 1462.15 403.944 1459.54 432.258C1456.5 465.113 1449.42 490.193 1437.9 508.935C1431.63 519.189 1423.84 527.631 1414.75 534.024C1404.94 540.93 1393.28 545.674 1380.12 548.123C1373.48 549.361 1366.84 549.921 1360.24 549.921C1320.74 549.921 1282.46 529.745 1250.81 513.064C1227.26 500.648 1203.41 486.585 1179.93 471.266C1160.95 458.861 1142.34 445.661 1124.6 432.038C1084.87 401.531 1049.48 363.905 1015.26 327.518C1005.6 317.253 995.617 306.637 985.637 296.284C967.308 277.272 945.26 255.075 920.68 234.566C876.497 197.74 827.161 179.475 774.029 180.259C690.589 181.194 612.831 228.517 562.294 268.055C525.993 296.453 490.933 330.582 463.571 364.158C442.86 389.575 427.087 416.569 410.389 445.148C408.372 448.601 406.348 452.062 404.311 455.529C400.62 461.818 395.732 470.105 390.659 478.423C382.351 492.062 369.308 511.917 352.031 526.8C343.641 534.027 334.713 539.707 325.494 543.684C315.214 548.117 304.176 550.609 292.692 551.086C291.065 551.156 289.427 551.19 287.777 551.19Z" fill="#A1A1A1"/>
<path d="M293.078 590.431C276.544 590.431 258.596 586.967 238.407 579.898C217.504 572.581 196.838 562.292 179.381 553.191C174.017 550.389 168.664 547.548 163.486 544.8C149.013 537.119 135.341 529.86 122.45 523.936C76.1573 502.654 30.1662 481.878 -14.3134 461.783C-29.0262 455.137 -44.2381 448.265 -58.9819 441.59L-58.4292 440.37C-43.6854 447.045 -28.4734 453.916 -13.7607 460.563C30.7189 480.657 76.7157 501.437 123.011 522.721C135.936 528.663 149.625 535.926 164.115 543.618C169.29 546.367 174.643 549.205 180.001 552.007C216.207 570.875 258.202 590.849 298.414 588.968C347.787 586.606 375.517 545.597 394.164 510.135C398.944 501.051 403.567 491.929 407.058 484.998C408.852 481.441 410.634 477.887 412.414 474.341C428.41 442.447 443.517 412.324 463.941 383.396C490.504 345.772 525.606 306.832 562.776 273.749C614.54 227.874 694.545 171.918 781.728 165.849C837.172 161.886 888.203 178.894 933.396 216.405C953.701 233.266 973.781 252.715 998.508 279.473C1011 292.995 1023.4 307.009 1035.4 320.559C1066.59 355.812 1098.85 392.266 1135.2 422.694C1152.81 437.438 1171.27 451.777 1190.08 465.312C1212.85 481.686 1236.65 497.262 1260.83 511.609C1297.96 533.513 1344.17 560.779 1390.69 553.061C1416.2 548.918 1435.47 535.853 1447.98 514.234C1473.36 470.479 1467.92 398.896 1463.94 346.629C1462.82 331.96 1461.77 318.106 1461.56 306.93C1461.1 282.092 1461.14 249.341 1465.59 216.264C1473.26 158.946 1492.09 114.14 1521.54 83.0979C1531.86 72.1613 1543.7 62.6595 1556.72 54.8546C1575.24 43.7377 1596.14 36.2597 1618.84 32.632C1640.23 29.2158 1662.73 29.2693 1685.74 32.7927C1705.15 35.8312 1724.23 41.339 1742.47 49.158C1760.88 57.056 1777.96 67.1187 1793.23 79.0671C1810.88 92.8731 1827 109.326 1841.15 127.971C1854.56 145.642 1866.31 165.418 1876.08 186.755C1894.41 226.814 1905.71 272.438 1908.77 318.693L1907.44 318.78C1900.85 219.134 1858.92 132.146 1792.4 80.1241C1762.24 56.5232 1724.29 40.1833 1685.54 34.1175C1637.76 26.803 1593.45 34.3712 1557.41 56.0046C1544.5 63.7447 1532.76 73.1704 1522.52 84.0196C1493.26 114.856 1474.55 159.408 1466.92 216.445C1462.48 249.432 1462.44 282.117 1462.9 306.908C1463.11 318.044 1464.16 331.881 1465.28 346.53C1467.33 373.547 1469.66 404.172 1468.33 434.07C1466.78 468.884 1460.5 495.326 1449.14 514.907C1443.03 525.469 1435.31 534.094 1426.17 540.543C1416.27 547.536 1404.41 552.193 1390.92 554.386C1369.99 557.856 1347.47 554.738 1322.06 544.853C1299.98 536.259 1278.82 523.778 1260.15 512.768C1235.94 498.401 1212.1 482.802 1189.3 466.406C1170.47 452.851 1151.98 438.493 1134.34 423.728C1097.92 393.238 1065.62 356.745 1034.39 321.455C1022.41 307.908 1010.01 293.902 997.526 280.392C972.842 253.682 952.799 234.27 932.541 217.448C887.616 180.151 836.91 163.245 781.818 167.182C695.011 173.228 615.271 229.013 563.662 274.749C526.565 307.764 491.536 346.623 465.029 384.168C444.662 413.014 429.577 443.095 413.606 474.941C411.827 478.49 410.045 482.044 408.251 485.601C404.757 492.538 400.132 501.668 395.346 510.761C376.535 546.539 348.526 587.914 298.473 590.307C296.694 590.389 294.892 590.431 293.078 590.431Z" fill="#A1A1A1"/>
<path d="M298.487 629.676C253.308 629.676 205.904 601.943 163.881 577.356C150.967 569.802 138.77 562.665 127.179 556.63L-60.0312 459.168L-59.3798 457.919L127.831 555.381C139.453 561.43 151.664 568.576 164.595 576.141C208.242 601.678 257.716 630.623 304.19 628.115C354.651 625.395 381.234 580.933 398.755 542.505C404.486 529.937 410.019 517.149 415.372 504.78C430.011 470.956 445.147 435.979 465.291 403.426C481.287 377.578 501.158 350.471 522.755 325.038C546.447 297.136 571.814 271.536 598.146 248.953C627.18 224.055 656.701 203.459 685.887 187.739C718.169 170.354 749.972 159.003 780.419 154C841.41 143.979 896.883 159.186 945.291 199.203C985.521 232.455 1019.71 273.574 1052.78 313.34C1081.56 347.954 1111.32 383.743 1145.02 414.337C1183.95 449.672 1226.08 482.281 1270.25 511.255C1307.46 535.667 1353.77 566.053 1401.5 559.223C1441.81 553.456 1465.12 526.498 1472.75 476.805C1479.25 434.536 1473.07 384.394 1468.11 344.106C1466.42 330.376 1464.82 317.408 1464.04 306.891C1459.71 248.916 1462.47 201.058 1472.47 160.584C1478.7 135.331 1487.91 112.821 1499.82 93.6797C1513.13 72.2971 1530.22 54.4717 1550.61 40.6995C1568.25 28.7849 1588.13 20.1316 1609.7 14.979C1630.23 10.0745 1651.85 8.43117 1673.96 10.0942C1717.43 13.3639 1759.96 29.3064 1793.7 54.9819C1811.73 68.7061 1828.11 85.218 1842.37 104.055C1855.88 121.909 1867.59 141.964 1877.17 163.668C1895.21 204.553 1905.57 251.081 1907.13 298.218L1905.72 298.266C1902.4 197.887 1860.2 107.359 1792.84 56.1065C1721.31 1.67759 1619.77 -4.31212 1551.39 41.8693C1483.67 87.6167 1455.55 174.272 1465.44 306.787C1466.22 317.27 1467.82 330.221 1469.51 343.934C1474.48 384.309 1480.67 434.558 1474.14 477.019C1470.59 500.146 1463.45 518.733 1452.92 532.265C1447 539.873 1439.86 546.091 1431.7 550.742C1423.02 555.691 1412.93 559.015 1401.7 560.621C1397.11 561.278 1392.44 561.608 1387.7 561.608C1370.4 561.608 1351.98 557.236 1331.79 548.38C1309.05 538.402 1287.1 524.004 1269.47 512.436C1225.24 483.42 1183.05 450.768 1144.07 415.383C1110.29 384.724 1080.5 348.892 1051.69 314.242C1018.66 274.527 984.514 233.459 944.386 200.291C896.302 160.547 841.21 145.439 780.639 155.392C658.114 175.523 531.901 298.463 466.481 404.17C446.391 436.633 431.274 471.562 416.655 505.341C411.299 517.715 405.763 530.512 400.027 543.092C388.394 568.604 376.905 586.872 363.87 600.576C355.734 609.128 346.907 615.87 337.634 620.614C327.323 625.888 316.094 628.887 304.254 629.527C302.342 629.626 300.416 629.676 298.487 629.676Z" fill="#A1A1A1"/>
</g>
</svg>
