<?xml version="1.0" encoding="UTF-8"?>
<svg id="Calque_2" data-name="Calque 2" xmlns="http://www.w3.org/2000/svg" viewBox="0 0 130.43 129.77">
  <defs>
    <style>
      .cls-1 {
        fill: #6484c5;
      }

      .cls-2 {
        fill: #6383c5;
      }
    </style>
  </defs>
  <g id="Calque_1-2" data-name="Calque 1">
    <g>
      <path class="cls-2" d="M88.4,25.15c-.6,6.84-4.37,10.97-8.11,14.93-11.9,12.61-25.67,23.1-39.2,33.84-8.98,7.13-18.03,14.17-27.09,21.19-4.49,3.49-4.95,3.4-7.48-1.88C-6.74,65.43-.04,30.71,28.89,10.82c6.38-4.39,13.18-7.69,20.65-9.65,2.99-.78,5.3-.52,7.3,2.41,2.99,4.4,8.32,5.27,12.8,7.31,5.48,2.49,10.59,5.54,15.53,8.92,2.25,1.54,3.62,3.41,3.23,5.34Z"/>
      <path class="cls-1" d="M77.1,0c6.99,1.05,13.19,3.67,18.94,6.98,11.22,6.47,20.27,15.11,26.75,26.64,15.82,28.14,6.2,67.4-21.01,84.75-13.38,8.53-27.88,12.21-43.64,11.23-.66-.04-1.37,.06-1.98-.14-1.66-.53-4.2,.02-4.71-1.95-.42-1.62,1.68-2.69,2.93-3.69,12.21-9.77,24.12-19.88,35.4-30.71,4.84-4.65,8.43-10.21,11.61-16.08,2.96-5.46,2.23-10.69-1.17-15.49-1.81-2.55-2.99-5.01-2.8-8.16,.06-.95-.18-2.11-.71-2.87-3.2-4.52-2.71-9.1-.93-14.01,1.11-3.06,.68-6.63-1.17-9.14-2.37-3.22-3.4-6.66-4.16-10.4-1.18-5.85-4.37-10.29-9.47-13.45-1.34-.83-3.08-1.37-3.87-3.55Z"/>
      <path class="cls-1" d="M96.33,61.01c-.96,5.07-3.13,9.33-6.21,13.13-8.36,10.3-19.27,17.77-29.38,26.13-7.68,6.35-15.64,12.37-23.31,18.73-2.68,2.22-4.99,2.24-7.58,.25-2.5-1.92-4.93-3.96-7.51-5.77-3.15-2.21-2.58-4.08,.08-6.25,14.82-12.07,29.67-24.11,44.35-36.34,5.87-4.89,11.34-10.26,16.99-15.41,1.69-1.54,3.15-3.69,5.94-1.91,2.95,1.89,5.79,3.85,6.64,7.44Z"/>
    </g>
  </g>
</svg>