<svg width="513" height="449" viewBox="0 0 513 449" fill="none" xmlns="http://www.w3.org/2000/svg">
<path fill-rule="evenodd" clip-rule="evenodd" d="M255.504 371C355.192 371 436.004 290.187 436.004 190.5C436.004 90.8126 355.192 10 255.504 10C155.817 10 75.0042 90.8126 75.0042 190.5C75.0042 290.187 155.817 371 255.504 371ZM255.504 381C360.714 381 446.004 295.71 446.004 190.5C446.004 85.2898 360.714 0 255.504 0C150.294 0 65.0042 85.2898 65.0042 190.5C65.0042 295.71 150.294 381 255.504 381Z" fill="url(#paint0_linear_137707_390)" fill-opacity="0.3"/>
<path fill-rule="evenodd" clip-rule="evenodd" d="M177.311 97.313C125.845 140.498 119.132 217.227 162.317 268.693C205.502 320.159 282.232 326.872 333.698 283.687C385.163 240.502 391.876 163.773 348.691 112.307C305.506 60.841 228.777 54.128 177.311 97.313ZM174.097 93.4827C120.516 138.443 113.527 218.326 158.487 271.907C203.447 325.488 283.33 332.477 336.911 287.517C390.493 242.557 397.481 162.674 352.522 109.093C307.562 55.5117 227.678 48.5228 174.097 93.4827Z" fill="url(#paint1_linear_137707_390)" fill-opacity="0.3"/>
<path fill-rule="evenodd" clip-rule="evenodd" d="M218.663 146.593C194.414 166.941 191.251 203.093 211.598 227.342C231.945 251.591 268.097 254.753 292.346 234.406C316.595 214.059 319.758 177.907 299.411 153.658C279.064 129.409 242.911 126.246 218.663 146.593ZM215.449 142.763C189.084 164.885 185.646 204.191 207.768 230.556C229.89 256.92 269.196 260.359 295.56 238.236C321.924 216.114 325.363 176.808 303.241 150.444C281.119 124.08 241.813 120.641 215.449 142.763Z" fill="url(#paint2_linear_137707_390)" fill-opacity="0.3"/>
<g filter="url(#filter0_b_137707_390)">
<rect y="78" width="191" height="158" rx="20" fill="url(#paint3_linear_137707_390)"/>
</g>
<rect x="79" y="98" width="34" height="34" rx="10" fill="#00030C"/>
<path d="M64.2026 164.872H59.7546L59.0186 167H56.6666L60.6826 155.816H63.2906L67.3066 167H64.9386L64.2026 164.872ZM63.5946 163.08L61.9786 158.408L60.3626 163.08H63.5946ZM71.5758 159.976V164.264C71.5758 164.563 71.6451 164.781 71.7838 164.92C71.9331 165.048 72.1784 165.112 72.5198 165.112H73.5598V167H72.1518C70.2638 167 69.3198 166.083 69.3198 164.248V159.976H68.2638V158.136H69.3198V155.944H71.5758V158.136H73.5598V159.976H71.5758ZM77.9389 159.976V164.264C77.9389 164.563 78.0082 164.781 78.1469 164.92C78.2962 165.048 78.5415 165.112 78.8829 165.112H79.9229V167H78.5149C76.6269 167 75.6829 166.083 75.6829 164.248V159.976H74.6269V158.136H75.6829V155.944H77.9389V158.136H79.9229V159.976H77.9389ZM89.934 162.376C89.934 162.696 89.9127 162.984 89.87 163.24H83.39C83.4433 163.88 83.6673 164.381 84.062 164.744C84.4567 165.107 84.942 165.288 85.518 165.288C86.35 165.288 86.942 164.931 87.294 164.216H89.71C89.454 165.069 88.9633 165.773 88.238 166.328C87.5127 166.872 86.622 167.144 85.566 167.144C84.7127 167.144 83.9447 166.957 83.262 166.584C82.59 166.2 82.062 165.661 81.678 164.968C81.3047 164.275 81.118 163.475 81.118 162.568C81.118 161.651 81.3047 160.845 81.678 160.152C82.0513 159.459 82.574 158.925 83.246 158.552C83.918 158.179 84.6913 157.992 85.566 157.992C86.4087 157.992 87.1607 158.173 87.822 158.536C88.494 158.899 89.0113 159.416 89.374 160.088C89.7473 160.749 89.934 161.512 89.934 162.376ZM87.614 161.736C87.6033 161.16 87.3953 160.701 86.99 160.36C86.5847 160.008 86.0887 159.832 85.502 159.832C84.9473 159.832 84.478 160.003 84.094 160.344C83.7207 160.675 83.4913 161.139 83.406 161.736H87.614ZM92.865 157.08C92.4703 157.08 92.1397 156.957 91.873 156.712C91.617 156.456 91.489 156.141 91.489 155.768C91.489 155.395 91.617 155.085 91.873 154.84C92.1397 154.584 92.4703 154.456 92.865 154.456C93.2597 154.456 93.585 154.584 93.841 154.84C94.1077 155.085 94.241 155.395 94.241 155.768C94.241 156.141 94.1077 156.456 93.841 156.712C93.585 156.957 93.2597 157.08 92.865 157.08ZM93.969 158.136V167H91.729V158.136H93.969ZM99.8141 157.992C100.475 157.992 101.057 158.125 101.558 158.392C102.059 158.648 102.454 158.984 102.742 159.4V158.136H104.998V167.064C104.998 167.885 104.833 168.616 104.502 169.256C104.171 169.907 103.675 170.419 103.014 170.792C102.353 171.176 101.553 171.368 100.614 171.368C99.3555 171.368 98.3208 171.075 97.5101 170.488C96.7101 169.901 96.2568 169.101 96.1501 168.088H98.3741C98.4915 168.493 98.7421 168.813 99.1261 169.048C99.5208 169.293 99.9955 169.416 100.55 169.416C101.201 169.416 101.729 169.219 102.134 168.824C102.539 168.44 102.742 167.853 102.742 167.064V165.688C102.454 166.104 102.054 166.451 101.542 166.728C101.041 167.005 100.465 167.144 99.8141 167.144C99.0675 167.144 98.3848 166.952 97.7661 166.568C97.1475 166.184 96.6568 165.645 96.2941 164.952C95.9421 164.248 95.7661 163.443 95.7661 162.536C95.7661 161.64 95.9421 160.845 96.2941 160.152C96.6568 159.459 97.1421 158.925 97.7501 158.552C98.3688 158.179 99.0568 157.992 99.8141 157.992ZM102.742 162.568C102.742 162.024 102.635 161.56 102.422 161.176C102.209 160.781 101.921 160.483 101.558 160.28C101.195 160.067 100.806 159.96 100.39 159.96C99.9741 159.96 99.5901 160.061 99.2381 160.264C98.8861 160.467 98.5981 160.765 98.3741 161.16C98.1608 161.544 98.0541 162.003 98.0541 162.536C98.0541 163.069 98.1608 163.539 98.3741 163.944C98.5981 164.339 98.8861 164.643 99.2381 164.856C99.6008 165.069 99.9848 165.176 100.39 165.176C100.806 165.176 101.195 165.075 101.558 164.872C101.921 164.659 102.209 164.36 102.422 163.976C102.635 163.581 102.742 163.112 102.742 162.568ZM112.258 158.008C113.314 158.008 114.167 158.344 114.818 159.016C115.469 159.677 115.794 160.605 115.794 161.8V167H113.554V162.104C113.554 161.4 113.378 160.861 113.026 160.488C112.674 160.104 112.194 159.912 111.586 159.912C110.967 159.912 110.477 160.104 110.114 160.488C109.762 160.861 109.586 161.4 109.586 162.104V167H107.346V158.136H109.586V159.24C109.885 158.856 110.263 158.557 110.722 158.344C111.191 158.12 111.703 158.008 112.258 158.008ZM126.324 162.376C126.324 162.696 126.303 162.984 126.26 163.24H119.78C119.833 163.88 120.057 164.381 120.452 164.744C120.847 165.107 121.332 165.288 121.908 165.288C122.74 165.288 123.332 164.931 123.684 164.216H126.1C125.844 165.069 125.353 165.773 124.628 166.328C123.903 166.872 123.012 167.144 121.956 167.144C121.103 167.144 120.335 166.957 119.652 166.584C118.98 166.2 118.452 165.661 118.068 164.968C117.695 164.275 117.508 163.475 117.508 162.568C117.508 161.651 117.695 160.845 118.068 160.152C118.441 159.459 118.964 158.925 119.636 158.552C120.308 158.179 121.081 157.992 121.956 157.992C122.799 157.992 123.551 158.173 124.212 158.536C124.884 158.899 125.401 159.416 125.764 160.088C126.137 160.749 126.324 161.512 126.324 162.376ZM124.004 161.736C123.993 161.16 123.785 160.701 123.38 160.36C122.975 160.008 122.479 159.832 121.892 159.832C121.337 159.832 120.868 160.003 120.484 160.344C120.111 160.675 119.881 161.139 119.796 161.736H124.004ZM130.167 165.16H134.119V167H127.623V165.192L131.495 159.976H127.639V158.136H134.071V159.944L130.167 165.16Z" fill="white"/>
<path d="M77.0762 183.636L73.9202 192H72.6602L69.5042 183.636H70.6682L73.2962 190.848L75.9242 183.636H77.0762ZM81.2615 192.108C80.6455 192.108 80.0855 191.968 79.5815 191.688C79.0855 191.408 78.6935 191.012 78.4055 190.5C78.1255 189.98 77.9855 189.38 77.9855 188.7C77.9855 188.028 78.1295 187.436 78.4175 186.924C78.7135 186.404 79.1135 186.008 79.6175 185.736C80.1215 185.456 80.6855 185.316 81.3095 185.316C81.9335 185.316 82.4975 185.456 83.0015 185.736C83.5055 186.008 83.9015 186.4 84.1895 186.912C84.4855 187.424 84.6335 188.02 84.6335 188.7C84.6335 189.38 84.4815 189.98 84.1775 190.5C83.8815 191.012 83.4775 191.408 82.9655 191.688C82.4535 191.968 81.8855 192.108 81.2615 192.108ZM81.2615 191.148C81.6535 191.148 82.0215 191.056 82.3655 190.872C82.7095 190.688 82.9855 190.412 83.1935 190.044C83.4095 189.676 83.5175 189.228 83.5175 188.7C83.5175 188.172 83.4135 187.724 83.2055 187.356C82.9975 186.988 82.7255 186.716 82.3895 186.54C82.0535 186.356 81.6895 186.264 81.2975 186.264C80.8975 186.264 80.5295 186.356 80.1935 186.54C79.8655 186.716 79.6015 186.988 79.4015 187.356C79.2015 187.724 79.1015 188.172 79.1015 188.7C79.1015 189.236 79.1975 189.688 79.3895 190.056C79.5895 190.424 79.8535 190.7 80.1815 190.884C80.5095 191.06 80.8695 191.148 81.2615 191.148ZM88.5173 192.108C88.0133 192.108 87.5613 192.024 87.1613 191.856C86.7613 191.68 86.4453 191.44 86.2133 191.136C85.9813 190.824 85.8533 190.468 85.8293 190.068H86.9573C86.9893 190.396 87.1413 190.664 87.4133 190.872C87.6933 191.08 88.0573 191.184 88.5053 191.184C88.9213 191.184 89.2493 191.092 89.4893 190.908C89.7293 190.724 89.8493 190.492 89.8493 190.212C89.8493 189.924 89.7213 189.712 89.4653 189.576C89.2093 189.432 88.8133 189.292 88.2773 189.156C87.7893 189.028 87.3893 188.9 87.0773 188.772C86.7733 188.636 86.5093 188.44 86.2853 188.184C86.0693 187.92 85.9613 187.576 85.9613 187.152C85.9613 186.816 86.0613 186.508 86.2613 186.228C86.4613 185.948 86.7453 185.728 87.1133 185.568C87.4813 185.4 87.9013 185.316 88.3733 185.316C89.1013 185.316 89.6893 185.5 90.1373 185.868C90.5853 186.236 90.8253 186.74 90.8573 187.38H89.7653C89.7413 187.036 89.6013 186.76 89.3453 186.552C89.0973 186.344 88.7613 186.24 88.3373 186.24C87.9453 186.24 87.6333 186.324 87.4013 186.492C87.1693 186.66 87.0533 186.88 87.0533 187.152C87.0533 187.368 87.1213 187.548 87.2573 187.692C87.4013 187.828 87.5773 187.94 87.7853 188.028C88.0013 188.108 88.2973 188.2 88.6733 188.304C89.1453 188.432 89.5293 188.56 89.8253 188.688C90.1213 188.808 90.3733 188.992 90.5813 189.24C90.7973 189.488 90.9093 189.812 90.9173 190.212C90.9173 190.572 90.8173 190.896 90.6173 191.184C90.4173 191.472 90.1333 191.7 89.7653 191.868C89.4053 192.028 88.9893 192.108 88.5173 192.108ZM96.9901 186.648C97.2141 186.256 97.5421 185.936 97.9741 185.688C98.4061 185.44 98.8981 185.316 99.4501 185.316C100.042 185.316 100.574 185.456 101.046 185.736C101.518 186.016 101.89 186.412 102.162 186.924C102.434 187.428 102.57 188.016 102.57 188.688C102.57 189.352 102.434 189.944 102.162 190.464C101.89 190.984 101.514 191.388 101.034 191.676C100.562 191.964 100.034 192.108 99.4501 192.108C98.8821 192.108 98.3821 191.984 97.9501 191.736C97.5261 191.488 97.2061 191.172 96.9901 190.788V192H95.8981V183.12H96.9901V186.648ZM101.454 188.688C101.454 188.192 101.354 187.76 101.154 187.392C100.954 187.024 100.682 186.744 100.338 186.552C100.002 186.36 99.6301 186.264 99.2221 186.264C98.8221 186.264 98.4501 186.364 98.1061 186.564C97.7701 186.756 97.4981 187.04 97.2901 187.416C97.0901 187.784 96.9901 188.212 96.9901 188.7C96.9901 189.196 97.0901 189.632 97.2901 190.008C97.4981 190.376 97.7701 190.66 98.1061 190.86C98.4501 191.052 98.8221 191.148 99.2221 191.148C99.6301 191.148 100.002 191.052 100.338 190.86C100.682 190.66 100.954 190.376 101.154 190.008C101.354 189.632 101.454 189.192 101.454 188.688ZM109.959 185.424V192H108.867V191.028C108.659 191.364 108.367 191.628 107.991 191.82C107.623 192.004 107.215 192.096 106.767 192.096C106.255 192.096 105.795 191.992 105.387 191.784C104.979 191.568 104.655 191.248 104.415 190.824C104.183 190.4 104.067 189.884 104.067 189.276V185.424H105.147V189.132C105.147 189.78 105.311 190.28 105.639 190.632C105.967 190.976 106.415 191.148 106.983 191.148C107.567 191.148 108.027 190.968 108.363 190.608C108.699 190.248 108.867 189.724 108.867 189.036V185.424H109.959ZM113.255 186.324V190.2C113.255 190.52 113.323 190.748 113.459 190.884C113.595 191.012 113.831 191.076 114.167 191.076H114.971V192H113.987C113.379 192 112.923 191.86 112.619 191.58C112.315 191.3 112.163 190.84 112.163 190.2V186.324H111.311V185.424H112.163V183.768H113.255V185.424H114.971V186.324H113.255ZM118.742 192.108C118.238 192.108 117.786 192.024 117.386 191.856C116.986 191.68 116.67 191.44 116.438 191.136C116.206 190.824 116.078 190.468 116.054 190.068H117.182C117.214 190.396 117.366 190.664 117.638 190.872C117.918 191.08 118.282 191.184 118.73 191.184C119.146 191.184 119.474 191.092 119.714 190.908C119.954 190.724 120.074 190.492 120.074 190.212C120.074 189.924 119.946 189.712 119.69 189.576C119.434 189.432 119.038 189.292 118.502 189.156C118.014 189.028 117.614 188.9 117.302 188.772C116.998 188.636 116.734 188.44 116.51 188.184C116.294 187.92 116.186 187.576 116.186 187.152C116.186 186.816 116.286 186.508 116.486 186.228C116.686 185.948 116.97 185.728 117.338 185.568C117.706 185.4 118.126 185.316 118.598 185.316C119.326 185.316 119.914 185.5 120.362 185.868C120.81 186.236 121.05 186.74 121.082 187.38H119.99C119.966 187.036 119.826 186.76 119.57 186.552C119.322 186.344 118.986 186.24 118.562 186.24C118.17 186.24 117.858 186.324 117.626 186.492C117.394 186.66 117.278 186.88 117.278 187.152C117.278 187.368 117.346 187.548 117.482 187.692C117.626 187.828 117.802 187.94 118.01 188.028C118.226 188.108 118.522 188.2 118.898 188.304C119.37 188.432 119.754 188.56 120.05 188.688C120.346 188.808 120.598 188.992 120.806 189.24C121.022 189.488 121.134 189.812 121.142 190.212C121.142 190.572 121.042 190.896 120.842 191.184C120.642 191.472 120.358 191.7 119.99 191.868C119.63 192.028 119.214 192.108 118.742 192.108Z" fill="white" fill-opacity="0.7"/>
<g filter="url(#filter1_b_137707_390)">
<rect x="101" y="309" width="262" height="140" rx="20" fill="url(#paint4_linear_137707_390)"/>
</g>
<path d="M126.973 342.4C126.973 341.301 127.218 340.32 127.709 339.456C128.21 338.581 128.887 337.904 129.741 337.424C130.605 336.933 131.57 336.688 132.637 336.688C133.885 336.688 134.978 337.008 135.917 337.648C136.855 338.288 137.511 339.173 137.885 340.304H135.309C135.053 339.771 134.69 339.371 134.221 339.104C133.762 338.837 133.229 338.704 132.621 338.704C131.97 338.704 131.389 338.859 130.877 339.168C130.375 339.467 129.981 339.893 129.693 340.448C129.415 341.003 129.277 341.653 129.277 342.4C129.277 343.136 129.415 343.787 129.693 344.352C129.981 344.907 130.375 345.339 130.877 345.648C131.389 345.947 131.97 346.096 132.621 346.096C133.229 346.096 133.762 345.963 134.221 345.696C134.69 345.419 135.053 345.013 135.309 344.48H137.885C137.511 345.621 136.855 346.512 135.917 347.152C134.989 347.781 133.895 348.096 132.637 348.096C131.57 348.096 130.605 347.856 129.741 347.376C128.887 346.885 128.21 346.208 127.709 345.344C127.218 344.48 126.973 343.499 126.973 342.4ZM144.95 339.008C145.622 339.008 146.219 339.157 146.742 339.456C147.265 339.744 147.67 340.176 147.958 340.752C148.257 341.317 148.406 342 148.406 342.8V348H146.166V343.104C146.166 342.4 145.99 341.861 145.638 341.488C145.286 341.104 144.806 340.912 144.198 340.912C143.579 340.912 143.089 341.104 142.726 341.488C142.374 341.861 142.198 342.4 142.198 343.104V348H139.958V336.16H142.198V340.24C142.486 339.856 142.87 339.557 143.35 339.344C143.83 339.12 144.363 339.008 144.95 339.008ZM154.632 348.144C153.779 348.144 153.011 347.957 152.328 347.584C151.646 347.2 151.107 346.661 150.712 345.968C150.328 345.275 150.136 344.475 150.136 343.568C150.136 342.661 150.334 341.861 150.728 341.168C151.134 340.475 151.683 339.941 152.376 339.568C153.07 339.184 153.843 338.992 154.696 338.992C155.55 338.992 156.323 339.184 157.016 339.568C157.71 339.941 158.254 340.475 158.648 341.168C159.054 341.861 159.256 342.661 159.256 343.568C159.256 344.475 159.048 345.275 158.632 345.968C158.227 346.661 157.672 347.2 156.968 347.584C156.275 347.957 155.496 348.144 154.632 348.144ZM154.632 346.192C155.038 346.192 155.416 346.096 155.768 345.904C156.131 345.701 156.419 345.403 156.632 345.008C156.846 344.613 156.952 344.133 156.952 343.568C156.952 342.725 156.728 342.08 156.28 341.632C155.843 341.173 155.304 340.944 154.664 340.944C154.024 340.944 153.486 341.173 153.048 341.632C152.622 342.08 152.408 342.725 152.408 343.568C152.408 344.411 152.616 345.061 153.032 345.52C153.459 345.968 153.992 346.192 154.632 346.192ZM162.195 338.08C161.801 338.08 161.47 337.957 161.203 337.712C160.947 337.456 160.819 337.141 160.819 336.768C160.819 336.395 160.947 336.085 161.203 335.84C161.47 335.584 161.801 335.456 162.195 335.456C162.59 335.456 162.915 335.584 163.171 335.84C163.438 336.085 163.571 336.395 163.571 336.768C163.571 337.141 163.438 337.456 163.171 337.712C162.915 337.957 162.59 338.08 162.195 338.08ZM163.299 339.136V348H161.059V339.136H163.299ZM169.064 348.144C168.339 348.144 167.688 348.016 167.112 347.76C166.536 347.493 166.078 347.136 165.736 346.688C165.406 346.24 165.224 345.744 165.192 345.2H167.448C167.491 345.541 167.656 345.824 167.944 346.048C168.243 346.272 168.611 346.384 169.048 346.384C169.475 346.384 169.806 346.299 170.04 346.128C170.286 345.957 170.408 345.739 170.408 345.472C170.408 345.184 170.259 344.971 169.96 344.832C169.672 344.683 169.208 344.523 168.568 344.352C167.907 344.192 167.363 344.027 166.936 343.856C166.52 343.685 166.158 343.424 165.848 343.072C165.55 342.72 165.4 342.245 165.4 341.648C165.4 341.157 165.539 340.709 165.816 340.304C166.104 339.899 166.51 339.579 167.032 339.344C167.566 339.109 168.19 338.992 168.904 338.992C169.96 338.992 170.803 339.259 171.432 339.792C172.062 340.315 172.408 341.024 172.472 341.92H170.328C170.296 341.568 170.147 341.291 169.88 341.088C169.624 340.875 169.278 340.768 168.84 340.768C168.435 340.768 168.12 340.843 167.896 340.992C167.683 341.141 167.576 341.349 167.576 341.616C167.576 341.915 167.726 342.144 168.024 342.304C168.323 342.453 168.787 342.608 169.416 342.768C170.056 342.928 170.584 343.093 171 343.264C171.416 343.435 171.774 343.701 172.072 344.064C172.382 344.416 172.542 344.885 172.552 345.472C172.552 345.984 172.408 346.443 172.12 346.848C171.843 347.253 171.438 347.573 170.904 347.808C170.382 348.032 169.768 348.144 169.064 348.144ZM175.687 338.08C175.293 338.08 174.962 337.957 174.695 337.712C174.439 337.456 174.311 337.141 174.311 336.768C174.311 336.395 174.439 336.085 174.695 335.84C174.962 335.584 175.293 335.456 175.687 335.456C176.082 335.456 176.407 335.584 176.663 335.84C176.93 336.085 177.063 336.395 177.063 336.768C177.063 337.141 176.93 337.456 176.663 337.712C176.407 337.957 176.082 338.08 175.687 338.08ZM176.791 339.136V348H174.551V339.136H176.791ZM182.556 348.144C181.831 348.144 181.18 348.016 180.604 347.76C180.028 347.493 179.57 347.136 179.228 346.688C178.898 346.24 178.716 345.744 178.684 345.2H180.94C180.983 345.541 181.148 345.824 181.436 346.048C181.735 346.272 182.103 346.384 182.54 346.384C182.967 346.384 183.298 346.299 183.532 346.128C183.778 345.957 183.9 345.739 183.9 345.472C183.9 345.184 183.751 344.971 183.452 344.832C183.164 344.683 182.7 344.523 182.06 344.352C181.399 344.192 180.855 344.027 180.428 343.856C180.012 343.685 179.65 343.424 179.34 343.072C179.042 342.72 178.892 342.245 178.892 341.648C178.892 341.157 179.031 340.709 179.308 340.304C179.596 339.899 180.002 339.579 180.524 339.344C181.058 339.109 181.682 338.992 182.396 338.992C183.452 338.992 184.295 339.259 184.924 339.792C185.554 340.315 185.9 341.024 185.964 341.92H183.82C183.788 341.568 183.639 341.291 183.372 341.088C183.116 340.875 182.77 340.768 182.332 340.768C181.927 340.768 181.612 340.843 181.388 340.992C181.175 341.141 181.068 341.349 181.068 341.616C181.068 341.915 181.218 342.144 181.516 342.304C181.815 342.453 182.279 342.608 182.908 342.768C183.548 342.928 184.076 343.093 184.492 343.264C184.908 343.435 185.266 343.701 185.564 344.064C185.874 344.416 186.034 344.885 186.044 345.472C186.044 345.984 185.9 346.443 185.612 346.848C185.335 347.253 184.93 347.573 184.396 347.808C183.874 348.032 183.26 348.144 182.556 348.144ZM191.435 348.144C190.71 348.144 190.059 348.016 189.483 347.76C188.907 347.493 188.448 347.136 188.107 346.688C187.776 346.24 187.595 345.744 187.563 345.2H189.819C189.862 345.541 190.027 345.824 190.315 346.048C190.614 346.272 190.982 346.384 191.419 346.384C191.846 346.384 192.176 346.299 192.411 346.128C192.656 345.957 192.779 345.739 192.779 345.472C192.779 345.184 192.63 344.971 192.331 344.832C192.043 344.683 191.579 344.523 190.939 344.352C190.278 344.192 189.734 344.027 189.307 343.856C188.891 343.685 188.528 343.424 188.219 343.072C187.92 342.72 187.771 342.245 187.771 341.648C187.771 341.157 187.91 340.709 188.187 340.304C188.475 339.899 188.88 339.579 189.403 339.344C189.936 339.109 190.56 338.992 191.275 338.992C192.331 338.992 193.174 339.259 193.803 339.792C194.432 340.315 194.779 341.024 194.843 341.92H192.699C192.667 341.568 192.518 341.291 192.251 341.088C191.995 340.875 191.648 340.768 191.211 340.768C190.806 340.768 190.491 340.843 190.267 340.992C190.054 341.141 189.947 341.349 189.947 341.616C189.947 341.915 190.096 342.144 190.395 342.304C190.694 342.453 191.158 342.608 191.787 342.768C192.427 342.928 192.955 343.093 193.371 343.264C193.787 343.435 194.144 343.701 194.443 344.064C194.752 344.416 194.912 344.885 194.923 345.472C194.923 345.984 194.779 346.443 194.491 346.848C194.214 347.253 193.808 347.573 193.275 347.808C192.752 348.032 192.139 348.144 191.435 348.144ZM205.162 343.376C205.162 343.696 205.14 343.984 205.098 344.24H198.618C198.671 344.88 198.895 345.381 199.29 345.744C199.684 346.107 200.17 346.288 200.746 346.288C201.578 346.288 202.17 345.931 202.522 345.216H204.938C204.682 346.069 204.191 346.773 203.466 347.328C202.74 347.872 201.85 348.144 200.794 348.144C199.94 348.144 199.172 347.957 198.49 347.584C197.818 347.2 197.29 346.661 196.906 345.968C196.532 345.275 196.346 344.475 196.346 343.568C196.346 342.651 196.532 341.845 196.906 341.152C197.279 340.459 197.802 339.925 198.474 339.552C199.146 339.179 199.919 338.992 200.794 338.992C201.636 338.992 202.388 339.173 203.05 339.536C203.722 339.899 204.239 340.416 204.602 341.088C204.975 341.749 205.162 342.512 205.162 343.376ZM202.842 342.736C202.831 342.16 202.623 341.701 202.218 341.36C201.812 341.008 201.316 340.832 200.73 340.832C200.175 340.832 199.706 341.003 199.322 341.344C198.948 341.675 198.719 342.139 198.634 342.736H202.842ZM209.005 346.16H212.957V348H206.461V346.192L210.333 340.976H206.477V339.136H212.909V340.944L209.005 346.16Z" fill="white"/>
<rect x="121" y="371" width="48" height="48" rx="10" fill="url(#paint5_linear_137707_390)"/>
<rect x="121" y="371" width="48" height="48" rx="10" fill="white"/>
<rect x="179" y="371" width="48" height="48" rx="10" fill="url(#paint6_linear_137707_390)"/>
<rect x="179" y="371" width="48" height="48" rx="10" fill="white"/>
<rect x="237" y="371" width="48" height="48" rx="10" fill="url(#paint7_linear_137707_390)"/>
<rect x="237" y="371" width="48" height="48" rx="10" fill="white"/>
<rect x="295" y="371" width="48" height="48" rx="10" fill="url(#paint8_linear_137707_390)"/>
<rect x="295" y="371" width="48" height="48" rx="10" fill="white"/>
<rect x="257" y="38" width="256" height="238" rx="20" fill="#C4C4C4" fill-opacity="0.4"/>
<rect x="257" y="38" width="256" height="238" rx="20" fill="url(#paint9_linear_137707_390)"/>
<rect x="342" y="235" width="28" height="21" rx="5" fill="url(#paint10_linear_137707_390)"/>
<path d="M353.84 242.08V249H352.93V243.84L350.63 249H349.99L347.68 243.83V249H346.77V242.08H347.75L350.31 247.8L352.87 242.08H353.84ZM355.043 246.24C355.043 245.68 355.157 245.19 355.383 244.77C355.61 244.343 355.92 244.013 356.313 243.78C356.713 243.547 357.157 243.43 357.643 243.43C358.123 243.43 358.54 243.533 358.893 243.74C359.247 243.947 359.51 244.207 359.683 244.52V243.52H360.603V249H359.683V247.98C359.503 248.3 359.233 248.567 358.873 248.78C358.52 248.987 358.107 249.09 357.633 249.09C357.147 249.09 356.707 248.97 356.313 248.73C355.92 248.49 355.61 248.153 355.383 247.72C355.157 247.287 355.043 246.793 355.043 246.24ZM359.683 246.25C359.683 245.837 359.6 245.477 359.433 245.17C359.267 244.863 359.04 244.63 358.753 244.47C358.473 244.303 358.163 244.22 357.823 244.22C357.483 244.22 357.173 244.3 356.893 244.46C356.613 244.62 356.39 244.853 356.223 245.16C356.057 245.467 355.973 245.827 355.973 246.24C355.973 246.66 356.057 247.027 356.223 247.34C356.39 247.647 356.613 247.883 356.893 248.05C357.173 248.21 357.483 248.29 357.823 248.29C358.163 248.29 358.473 248.21 358.753 248.05C359.04 247.883 359.267 247.647 359.433 247.34C359.6 247.027 359.683 246.663 359.683 246.25ZM363.051 244.41C363.211 244.097 363.438 243.853 363.731 243.68C364.031 243.507 364.394 243.42 364.821 243.42V244.36H364.581C363.561 244.36 363.051 244.913 363.051 246.02V249H362.141V243.52H363.051V244.41Z" fill="#14101D"/>
<path d="M291.28 242.03V247.18C291.28 247.753 291.103 248.213 290.75 248.56C290.397 248.9 289.93 249.07 289.35 249.07C288.763 249.07 288.293 248.897 287.94 248.55C287.587 248.197 287.41 247.717 287.41 247.11H288.32C288.327 247.45 288.413 247.727 288.58 247.94C288.753 248.153 289.01 248.26 289.35 248.26C289.69 248.26 289.943 248.16 290.11 247.96C290.277 247.753 290.36 247.493 290.36 247.18V242.03H291.28ZM292.733 246.24C292.733 245.68 292.846 245.19 293.073 244.77C293.299 244.343 293.609 244.013 294.003 243.78C294.403 243.547 294.846 243.43 295.333 243.43C295.813 243.43 296.229 243.533 296.583 243.74C296.936 243.947 297.199 244.207 297.373 244.52V243.52H298.293V249H297.373V247.98C297.193 248.3 296.923 248.567 296.563 248.78C296.209 248.987 295.796 249.09 295.323 249.09C294.836 249.09 294.396 248.97 294.003 248.73C293.609 248.49 293.299 248.153 293.073 247.72C292.846 247.287 292.733 246.793 292.733 246.24ZM297.373 246.25C297.373 245.837 297.289 245.477 297.123 245.17C296.956 244.863 296.729 244.63 296.443 244.47C296.163 244.303 295.853 244.22 295.513 244.22C295.173 244.22 294.863 244.3 294.583 244.46C294.303 244.62 294.079 244.853 293.913 245.16C293.746 245.467 293.663 245.827 293.663 246.24C293.663 246.66 293.746 247.027 293.913 247.34C294.079 247.647 294.303 247.883 294.583 248.05C294.863 248.21 295.173 248.29 295.513 248.29C295.853 248.29 296.163 248.21 296.443 248.05C296.729 247.883 296.956 247.647 297.123 247.34C297.289 247.027 297.373 246.663 297.373 246.25ZM302.501 243.42C303.167 243.42 303.707 243.623 304.121 244.03C304.534 244.43 304.741 245.01 304.741 245.77V249H303.841V245.9C303.841 245.353 303.704 244.937 303.431 244.65C303.157 244.357 302.784 244.21 302.311 244.21C301.831 244.21 301.447 244.36 301.161 244.66C300.881 244.96 300.741 245.397 300.741 245.97V249H299.831V243.52H300.741V244.3C300.921 244.02 301.164 243.803 301.471 243.65C301.784 243.497 302.127 243.42 302.501 243.42Z" fill="white" fill-opacity="0.7"/>
<path d="M321.71 242.03V242.77H318.68V245.12H321.14V245.86H318.68V249H317.77V242.03H321.71ZM327.809 246.05C327.809 246.223 327.799 246.407 327.779 246.6H323.399C323.432 247.14 323.616 247.563 323.949 247.87C324.289 248.17 324.699 248.32 325.179 248.32C325.572 248.32 325.899 248.23 326.159 248.05C326.426 247.863 326.612 247.617 326.719 247.31H327.699C327.552 247.837 327.259 248.267 326.819 248.6C326.379 248.927 325.832 249.09 325.179 249.09C324.659 249.09 324.192 248.973 323.779 248.74C323.372 248.507 323.052 248.177 322.819 247.75C322.586 247.317 322.469 246.817 322.469 246.25C322.469 245.683 322.582 245.187 322.809 244.76C323.036 244.333 323.352 244.007 323.759 243.78C324.172 243.547 324.646 243.43 325.179 243.43C325.699 243.43 326.159 243.543 326.559 243.77C326.959 243.997 327.266 244.31 327.479 244.71C327.699 245.103 327.809 245.55 327.809 246.05ZM326.869 245.86C326.869 245.513 326.792 245.217 326.639 244.97C326.486 244.717 326.276 244.527 326.009 244.4C325.749 244.267 325.459 244.2 325.139 244.2C324.679 244.2 324.286 244.347 323.959 244.64C323.639 244.933 323.456 245.34 323.409 245.86H326.869ZM329.92 244.54C330.107 244.213 330.38 243.947 330.74 243.74C331.1 243.533 331.51 243.43 331.97 243.43C332.464 243.43 332.907 243.547 333.3 243.78C333.694 244.013 334.004 244.343 334.23 244.77C334.457 245.19 334.57 245.68 334.57 246.24C334.57 246.793 334.457 247.287 334.23 247.72C334.004 248.153 333.69 248.49 333.29 248.73C332.897 248.97 332.457 249.09 331.97 249.09C331.497 249.09 331.08 248.987 330.72 248.78C330.367 248.573 330.1 248.31 329.92 247.99V249H329.01V241.6H329.92V244.54ZM333.64 246.24C333.64 245.827 333.557 245.467 333.39 245.16C333.224 244.853 332.997 244.62 332.71 244.46C332.43 244.3 332.12 244.22 331.78 244.22C331.447 244.22 331.137 244.303 330.85 244.47C330.57 244.63 330.344 244.867 330.17 245.18C330.004 245.487 329.92 245.843 329.92 246.25C329.92 246.663 330.004 247.027 330.17 247.34C330.344 247.647 330.57 247.883 330.85 248.05C331.137 248.21 331.447 248.29 331.78 248.29C332.12 248.29 332.43 248.21 332.71 248.05C332.997 247.883 333.224 247.647 333.39 247.34C333.557 247.027 333.64 246.66 333.64 246.24Z" fill="white" fill-opacity="0.7"/>
<path d="M381.89 247.45H378.85L378.29 249H377.33L379.85 242.07H380.9L383.41 249H382.45L381.89 247.45ZM381.63 246.71L380.37 243.19L379.11 246.71H381.63ZM385.418 244.53C385.598 244.217 385.865 243.957 386.218 243.75C386.578 243.537 386.995 243.43 387.468 243.43C387.955 243.43 388.395 243.547 388.788 243.78C389.188 244.013 389.502 244.343 389.728 244.77C389.955 245.19 390.068 245.68 390.068 246.24C390.068 246.793 389.955 247.287 389.728 247.72C389.502 248.153 389.188 248.49 388.788 248.73C388.395 248.97 387.955 249.09 387.468 249.09C387.002 249.09 386.588 248.987 386.228 248.78C385.875 248.567 385.605 248.303 385.418 247.99V251.6H384.508V243.52H385.418V244.53ZM389.138 246.24C389.138 245.827 389.055 245.467 388.888 245.16C388.722 244.853 388.495 244.62 388.208 244.46C387.928 244.3 387.618 244.22 387.278 244.22C386.945 244.22 386.635 244.303 386.348 244.47C386.068 244.63 385.842 244.867 385.668 245.18C385.502 245.487 385.418 245.843 385.418 246.25C385.418 246.663 385.502 247.027 385.668 247.34C385.842 247.647 386.068 247.883 386.348 248.05C386.635 248.21 386.945 248.29 387.278 248.29C387.618 248.29 387.928 248.21 388.208 248.05C388.495 247.883 388.722 247.647 388.888 247.34C389.055 247.027 389.138 246.66 389.138 246.24ZM392.176 244.41C392.336 244.097 392.563 243.853 392.856 243.68C393.156 243.507 393.519 243.42 393.946 243.42V244.36H393.706C392.686 244.36 392.176 244.913 392.176 246.02V249H391.266V243.52H392.176V244.41Z" fill="white" fill-opacity="0.7"/>
<path d="M412.84 242.08V249H411.93V243.84L409.63 249H408.99L406.68 243.83V249H405.77V242.08H406.75L409.31 247.8L411.87 242.08H412.84ZM414.043 246.24C414.043 245.68 414.157 245.19 414.383 244.77C414.61 244.343 414.92 244.013 415.313 243.78C415.713 243.547 416.157 243.43 416.643 243.43C417.123 243.43 417.54 243.533 417.893 243.74C418.247 243.947 418.51 244.207 418.683 244.52V243.52H419.603V249H418.683V247.98C418.503 248.3 418.233 248.567 417.873 248.78C417.52 248.987 417.107 249.09 416.633 249.09C416.147 249.09 415.707 248.97 415.313 248.73C414.92 248.49 414.61 248.153 414.383 247.72C414.157 247.287 414.043 246.793 414.043 246.24ZM418.683 246.25C418.683 245.837 418.6 245.477 418.433 245.17C418.267 244.863 418.04 244.63 417.753 244.47C417.473 244.303 417.163 244.22 416.823 244.22C416.483 244.22 416.173 244.3 415.893 244.46C415.613 244.62 415.39 244.853 415.223 245.16C415.057 245.467 414.973 245.827 414.973 246.24C414.973 246.66 415.057 247.027 415.223 247.34C415.39 247.647 415.613 247.883 415.893 248.05C416.173 248.21 416.483 248.29 416.823 248.29C417.163 248.29 417.473 248.21 417.753 248.05C418.04 247.883 418.267 247.647 418.433 247.34C418.6 247.027 418.683 246.663 418.683 246.25ZM425.861 243.52L422.561 251.58H421.621L422.701 248.94L420.491 243.52H421.501L423.221 247.96L424.921 243.52H425.861Z" fill="white" fill-opacity="0.7"/>
<path d="M442.28 242.03V247.18C442.28 247.753 442.103 248.213 441.75 248.56C441.397 248.9 440.93 249.07 440.35 249.07C439.763 249.07 439.293 248.897 438.94 248.55C438.587 248.197 438.41 247.717 438.41 247.11H439.32C439.327 247.45 439.413 247.727 439.58 247.94C439.753 248.153 440.01 248.26 440.35 248.26C440.69 248.26 440.943 248.16 441.11 247.96C441.277 247.753 441.36 247.493 441.36 247.18V242.03H442.28ZM448.933 243.52V249H448.023V248.19C447.849 248.47 447.606 248.69 447.293 248.85C446.986 249.003 446.646 249.08 446.273 249.08C445.846 249.08 445.463 248.993 445.123 248.82C444.783 248.64 444.513 248.373 444.313 248.02C444.119 247.667 444.023 247.237 444.023 246.73V243.52H444.923V246.61C444.923 247.15 445.059 247.567 445.333 247.86C445.606 248.147 445.979 248.29 446.453 248.29C446.939 248.29 447.323 248.14 447.603 247.84C447.883 247.54 448.023 247.103 448.023 246.53V243.52H448.933ZM453.139 243.42C453.806 243.42 454.346 243.623 454.759 244.03C455.173 244.43 455.379 245.01 455.379 245.77V249H454.479V245.9C454.479 245.353 454.343 244.937 454.069 244.65C453.796 244.357 453.423 244.21 452.949 244.21C452.469 244.21 452.086 244.36 451.799 244.66C451.519 244.96 451.379 245.397 451.379 245.97V249H450.469V243.52H451.379V244.3C451.559 244.02 451.803 243.803 452.109 243.65C452.423 243.497 452.766 243.42 453.139 243.42Z" fill="white" fill-opacity="0.7"/>
<path d="M473.28 242.03V247.18C473.28 247.753 473.103 248.213 472.75 248.56C472.397 248.9 471.93 249.07 471.35 249.07C470.763 249.07 470.293 248.897 469.94 248.55C469.587 248.197 469.41 247.717 469.41 247.11H470.32C470.327 247.45 470.413 247.727 470.58 247.94C470.753 248.153 471.01 248.26 471.35 248.26C471.69 248.26 471.943 248.16 472.11 247.96C472.277 247.753 472.36 247.493 472.36 247.18V242.03H473.28ZM479.933 243.52V249H479.023V248.19C478.849 248.47 478.606 248.69 478.293 248.85C477.986 249.003 477.646 249.08 477.273 249.08C476.846 249.08 476.463 248.993 476.123 248.82C475.783 248.64 475.513 248.373 475.313 248.02C475.119 247.667 475.023 247.237 475.023 246.73V243.52H475.923V246.61C475.923 247.15 476.059 247.567 476.333 247.86C476.606 248.147 476.979 248.29 477.453 248.29C477.939 248.29 478.323 248.14 478.603 247.84C478.883 247.54 479.023 247.103 479.023 246.53V243.52H479.933ZM482.379 241.6V249H481.469V241.6H482.379Z" fill="white" fill-opacity="0.7"/>
<path d="M277 148.408C280.796 148.408 283.073 147.49 286.721 148.408C293.093 150.01 292.602 156.673 298.729 158.888C304.303 160.903 308.329 158.061 314.168 159.387C327.313 162.373 326.039 177.89 339.327 180.348C344.57 181.318 347.851 179.214 353.051 180.348C364.08 182.755 362.761 201.209 373.636 198.315C378.78 196.946 378.884 191.957 383.928 190.33C396.373 186.315 395.656 213.638 408.516 210.792C416.017 209.131 415.459 200.922 422.811 198.814C428.115 197.293 431.572 199.451 437.106 198.814C462.469 195.896 458.491 160.635 483.995 158.888C487.111 158.675 492 158.888 492 158.888" stroke="url(#paint11_linear_137707_390)" stroke-opacity="0.2"/>
<path d="M353 180.057C364.022 182.487 362.704 201.116 373.571 198.194C378.712 196.813 378.816 191.776 383.857 190.134C396.294 186.081 395.577 213.663 408.429 210.79C415.925 209.113 415.367 200.827 422.714 198.698C428.014 197.163 431.469 199.341 437 198.698C450.164 197.168 455.419 186.831 461 177" stroke="url(#paint12_linear_137707_390)" stroke-width="2" stroke-linecap="round"/>
<path d="M282.373 122.057H280.456V124.001H279.691V122.057H277.783V121.364H279.691V119.411H280.456V121.364H282.373V122.057ZM283.603 124.343C284.365 123.731 284.962 123.23 285.394 122.84C285.826 122.444 286.189 122.033 286.483 121.607C286.783 121.175 286.933 120.752 286.933 120.338C286.933 119.948 286.837 119.642 286.645 119.42C286.459 119.192 286.156 119.078 285.736 119.078C285.328 119.078 285.01 119.207 284.782 119.465C284.56 119.717 284.44 120.056 284.422 120.482H283.63C283.654 119.81 283.858 119.291 284.242 118.925C284.626 118.559 285.121 118.376 285.727 118.376C286.345 118.376 286.834 118.547 287.194 118.889C287.56 119.231 287.743 119.702 287.743 120.302C287.743 120.8 287.593 121.286 287.293 121.76C286.999 122.228 286.663 122.642 286.285 123.002C285.907 123.356 285.424 123.77 284.836 124.244H287.932V124.928H283.603V124.343ZM288.86 120.131C288.902 119.579 289.115 119.147 289.499 118.835C289.883 118.523 290.381 118.367 290.993 118.367C291.401 118.367 291.752 118.442 292.046 118.592C292.346 118.736 292.571 118.934 292.721 119.186C292.877 119.438 292.955 119.723 292.955 120.041C292.955 120.413 292.847 120.734 292.631 121.004C292.421 121.274 292.145 121.448 291.803 121.526V121.571C292.193 121.667 292.502 121.856 292.73 122.138C292.958 122.42 293.072 122.789 293.072 123.245C293.072 123.587 292.994 123.896 292.838 124.172C292.682 124.442 292.448 124.655 292.136 124.811C291.824 124.967 291.449 125.045 291.011 125.045C290.375 125.045 289.853 124.88 289.445 124.55C289.037 124.214 288.809 123.74 288.761 123.128H289.553C289.595 123.488 289.742 123.782 289.994 124.01C290.246 124.238 290.582 124.352 291.002 124.352C291.422 124.352 291.74 124.244 291.956 124.028C292.178 123.806 292.289 123.521 292.289 123.173C292.289 122.723 292.139 122.399 291.839 122.201C291.539 122.003 291.086 121.904 290.48 121.904H290.273V121.22H290.489C291.041 121.214 291.458 121.124 291.74 120.95C292.022 120.77 292.163 120.494 292.163 120.122C292.163 119.804 292.058 119.549 291.848 119.357C291.644 119.165 291.35 119.069 290.966 119.069C290.594 119.069 290.294 119.165 290.066 119.357C289.838 119.549 289.703 119.807 289.661 120.131H288.86Z" fill="#00D2AA" fill-opacity="0.7"/>
<path d="M452.743 112.084C451.967 112.084 451.251 111.904 450.595 111.544C449.947 111.176 449.431 110.668 449.047 110.02C448.671 109.364 448.483 108.628 448.483 107.812C448.483 106.996 448.671 106.264 449.047 105.616C449.431 104.968 449.947 104.464 450.595 104.104C451.251 103.736 451.967 103.552 452.743 103.552C453.527 103.552 454.243 103.736 454.891 104.104C455.547 104.464 456.063 104.968 456.439 105.616C456.815 106.264 457.003 106.996 457.003 107.812C457.003 108.628 456.815 109.364 456.439 110.02C456.063 110.668 455.547 111.176 454.891 111.544C454.243 111.904 453.527 112.084 452.743 112.084ZM452.743 110.896C453.295 110.896 453.787 110.772 454.219 110.524C454.651 110.268 454.987 109.908 455.227 109.444C455.475 108.972 455.599 108.428 455.599 107.812C455.599 107.196 455.475 106.656 455.227 106.192C454.987 105.728 454.651 105.372 454.219 105.124C453.787 104.876 453.295 104.752 452.743 104.752C452.191 104.752 451.699 104.876 451.267 105.124C450.835 105.372 450.495 105.728 450.247 106.192C450.007 106.656 449.887 107.196 449.887 107.812C449.887 108.428 450.007 108.972 450.247 109.444C450.495 109.908 450.835 110.268 451.267 110.524C451.699 110.772 452.191 110.896 452.743 110.896ZM459.717 106.372C459.949 106.052 460.265 105.792 460.665 105.592C461.073 105.384 461.525 105.28 462.021 105.28C462.605 105.28 463.133 105.42 463.605 105.7C464.077 105.98 464.449 106.38 464.721 106.9C464.993 107.412 465.129 108 465.129 108.664C465.129 109.328 464.993 109.924 464.721 110.452C464.449 110.972 464.073 111.38 463.593 111.676C463.121 111.964 462.597 112.108 462.021 112.108C461.509 112.108 461.053 112.008 460.653 111.808C460.261 111.608 459.949 111.352 459.717 111.04V112H458.349V103.12H459.717V106.372ZM463.737 108.664C463.737 108.208 463.641 107.816 463.449 107.488C463.265 107.152 463.017 106.9 462.705 106.732C462.401 106.556 462.073 106.468 461.721 106.468C461.377 106.468 461.049 106.556 460.737 106.732C460.433 106.908 460.185 107.164 459.993 107.5C459.809 107.836 459.717 108.232 459.717 108.688C459.717 109.144 459.809 109.544 459.993 109.888C460.185 110.224 460.433 110.48 460.737 110.656C461.049 110.832 461.377 110.92 461.721 110.92C462.073 110.92 462.401 110.832 462.705 110.656C463.017 110.472 463.265 110.208 463.449 109.864C463.641 109.52 463.737 109.12 463.737 108.664ZM467.178 104.512C466.93 104.512 466.722 104.428 466.554 104.26C466.386 104.092 466.302 103.884 466.302 103.636C466.302 103.388 466.386 103.18 466.554 103.012C466.722 102.844 466.93 102.76 467.178 102.76C467.418 102.76 467.622 102.844 467.79 103.012C467.958 103.18 468.042 103.388 468.042 103.636C468.042 103.884 467.958 104.092 467.79 104.26C467.622 104.428 467.418 104.512 467.178 104.512ZM467.85 113.296C467.85 113.944 467.686 114.412 467.358 114.7C467.038 114.996 466.57 115.144 465.954 115.144H465.246V113.992H465.714C465.994 113.992 466.19 113.936 466.302 113.824C466.422 113.72 466.482 113.544 466.482 113.296V105.388H467.85V113.296ZM475.706 108.532C475.706 108.78 475.69 109.004 475.658 109.204H470.606C470.646 109.732 470.842 110.156 471.194 110.476C471.546 110.796 471.978 110.956 472.49 110.956C473.226 110.956 473.746 110.648 474.05 110.032H475.526C475.326 110.64 474.962 111.14 474.434 111.532C473.914 111.916 473.266 112.108 472.49 112.108C471.858 112.108 471.29 111.968 470.786 111.688C470.29 111.4 469.898 111 469.61 110.488C469.33 109.968 469.19 109.368 469.19 108.688C469.19 108.008 469.326 107.412 469.598 106.9C469.878 106.38 470.266 105.98 470.762 105.7C471.266 105.42 471.842 105.28 472.49 105.28C473.114 105.28 473.67 105.416 474.158 105.688C474.646 105.96 475.026 106.344 475.298 106.84C475.57 107.328 475.706 107.892 475.706 108.532ZM474.278 108.1C474.27 107.596 474.09 107.192 473.738 106.888C473.386 106.584 472.95 106.432 472.43 106.432C471.958 106.432 471.554 106.584 471.218 106.888C470.882 107.184 470.682 107.588 470.618 108.1H474.278ZM476.596 108.688C476.596 108.008 476.732 107.412 477.004 106.9C477.284 106.38 477.668 105.98 478.156 105.7C478.644 105.42 479.204 105.28 479.836 105.28C480.636 105.28 481.296 105.472 481.816 105.856C482.344 106.232 482.7 106.772 482.884 107.476H481.408C481.288 107.148 481.096 106.892 480.832 106.708C480.568 106.524 480.236 106.432 479.836 106.432C479.276 106.432 478.828 106.632 478.492 107.032C478.164 107.424 478 107.976 478 108.688C478 109.4 478.164 109.956 478.492 110.356C478.828 110.756 479.276 110.956 479.836 110.956C480.628 110.956 481.152 110.608 481.408 109.912H482.884C482.692 110.584 482.332 111.12 481.804 111.52C481.276 111.912 480.62 112.108 479.836 112.108C479.204 112.108 478.644 111.968 478.156 111.688C477.668 111.4 477.284 111 477.004 110.488C476.732 109.968 476.596 109.368 476.596 108.688ZM485.844 106.504V110.164C485.844 110.412 485.9 110.592 486.012 110.704C486.132 110.808 486.332 110.86 486.612 110.86H487.452V112H486.372C485.756 112 485.284 111.856 484.956 111.568C484.628 111.28 484.464 110.812 484.464 110.164V106.504H483.684V105.388H484.464V103.744H485.844V105.388H487.452V106.504H485.844ZM489.409 104.512C489.161 104.512 488.953 104.428 488.785 104.26C488.617 104.092 488.533 103.884 488.533 103.636C488.533 103.388 488.617 103.18 488.785 103.012C488.953 102.844 489.161 102.76 489.409 102.76C489.649 102.76 489.853 102.844 490.021 103.012C490.189 103.18 490.273 103.388 490.273 103.636C490.273 103.884 490.189 104.092 490.021 104.26C489.853 104.428 489.649 104.512 489.409 104.512ZM490.081 105.388V112H488.713V105.388H490.081ZM494.649 106.504H493.425V112H492.045V106.504H491.265V105.388H492.045V104.92C492.045 104.16 492.245 103.608 492.645 103.264C493.053 102.912 493.689 102.736 494.553 102.736V103.876C494.137 103.876 493.845 103.956 493.677 104.116C493.509 104.268 493.425 104.536 493.425 104.92V105.388H494.649V106.504ZM466.34 121.428H462.32V123.816C462.488 123.592 462.736 123.404 463.064 123.252C463.4 123.1 463.756 123.024 464.132 123.024C464.804 123.024 465.348 123.168 465.764 123.456C466.188 123.744 466.488 124.108 466.664 124.548C466.848 124.988 466.94 125.452 466.94 125.94C466.94 126.532 466.824 127.06 466.592 127.524C466.368 127.98 466.028 128.34 465.572 128.604C465.124 128.868 464.572 129 463.916 129C463.044 129 462.344 128.784 461.816 128.352C461.288 127.92 460.972 127.348 460.868 126.636H462.2C462.288 127.012 462.484 127.312 462.788 127.536C463.092 127.752 463.472 127.86 463.928 127.86C464.496 127.86 464.92 127.688 465.2 127.344C465.488 127 465.632 126.544 465.632 125.976C465.632 125.4 465.488 124.96 465.2 124.656C464.912 124.344 464.488 124.188 463.928 124.188C463.536 124.188 463.204 124.288 462.932 124.488C462.668 124.68 462.476 124.944 462.356 125.28H461.06V120.228H466.34V121.428ZM468.365 124.512C468.365 123.128 468.597 122.048 469.061 121.272C469.533 120.488 470.341 120.096 471.485 120.096C472.629 120.096 473.433 120.488 473.897 121.272C474.369 122.048 474.605 123.128 474.605 124.512C474.605 125.912 474.369 127.008 473.897 127.8C473.433 128.584 472.629 128.976 471.485 128.976C470.341 128.976 469.533 128.584 469.061 127.8C468.597 127.008 468.365 125.912 468.365 124.512ZM473.261 124.512C473.261 123.864 473.217 123.316 473.129 122.868C473.049 122.42 472.881 122.056 472.625 121.776C472.369 121.488 471.989 121.344 471.485 121.344C470.981 121.344 470.601 121.488 470.345 121.776C470.089 122.056 469.917 122.42 469.829 122.868C469.749 123.316 469.709 123.864 469.709 124.512C469.709 125.184 469.749 125.748 469.829 126.204C469.909 126.66 470.077 127.028 470.333 127.308C470.597 127.588 470.981 127.728 471.485 127.728C471.989 127.728 472.369 127.588 472.625 127.308C472.889 127.028 473.061 126.66 473.141 126.204C473.221 125.748 473.261 125.184 473.261 124.512ZM476.052 124.512C476.052 123.128 476.284 122.048 476.748 121.272C477.22 120.488 478.028 120.096 479.172 120.096C480.316 120.096 481.12 120.488 481.584 121.272C482.056 122.048 482.292 123.128 482.292 124.512C482.292 125.912 482.056 127.008 481.584 127.8C481.12 128.584 480.316 128.976 479.172 128.976C478.028 128.976 477.22 128.584 476.748 127.8C476.284 127.008 476.052 125.912 476.052 124.512ZM480.948 124.512C480.948 123.864 480.904 123.316 480.816 122.868C480.736 122.42 480.568 122.056 480.312 121.776C480.056 121.488 479.676 121.344 479.172 121.344C478.668 121.344 478.288 121.488 478.032 121.776C477.776 122.056 477.604 122.42 477.516 122.868C477.436 123.316 477.396 123.864 477.396 124.512C477.396 125.184 477.436 125.748 477.516 126.204C477.596 126.66 477.764 127.028 478.02 127.308C478.284 127.588 478.668 127.728 479.172 127.728C479.676 127.728 480.056 127.588 480.312 127.308C480.576 127.028 480.748 126.66 480.828 126.204C480.908 125.748 480.948 125.184 480.948 124.512Z" fill="#00D9F5"/>
<path d="M280.344 62.832V74H278.104V62.832H280.344ZM287.469 65.008C288.525 65.008 289.378 65.344 290.029 66.016C290.68 66.6773 291.005 67.6053 291.005 68.8V74H288.765V69.104C288.765 68.4 288.589 67.8613 288.237 67.488C287.885 67.104 287.405 66.912 286.797 66.912C286.178 66.912 285.688 67.104 285.325 67.488C284.973 67.8613 284.797 68.4 284.797 69.104V74H282.557V65.136H284.797V66.24C285.096 65.856 285.474 65.5573 285.933 65.344C286.402 65.12 286.914 65.008 287.469 65.008ZM292.559 69.568C292.559 68.6507 292.746 67.8507 293.119 67.168C293.493 66.4747 294.01 65.9413 294.671 65.568C295.333 65.184 296.09 64.992 296.943 64.992C298.042 64.992 298.949 65.2693 299.663 65.824C300.389 66.368 300.874 67.136 301.119 68.128H298.703C298.575 67.744 298.357 67.4453 298.047 67.232C297.749 67.008 297.375 66.896 296.927 66.896C296.287 66.896 295.781 67.1307 295.407 67.6C295.034 68.0587 294.847 68.7147 294.847 69.568C294.847 70.4107 295.034 71.0667 295.407 71.536C295.781 71.9947 296.287 72.224 296.927 72.224C297.834 72.224 298.426 71.8187 298.703 71.008H301.119C300.874 71.968 300.389 72.7307 299.663 73.296C298.938 73.8613 298.031 74.144 296.943 74.144C296.09 74.144 295.333 73.9573 294.671 73.584C294.01 73.2 293.493 72.6667 293.119 71.984C292.746 71.2907 292.559 70.4853 292.559 69.568ZM305 62.16V74H302.76V62.16H305ZM315.581 65.136V74H313.325V72.88C313.037 73.264 312.659 73.568 312.189 73.792C311.731 74.0053 311.229 74.112 310.685 74.112C309.992 74.112 309.379 73.968 308.845 73.68C308.312 73.3813 307.891 72.9493 307.581 72.384C307.283 71.808 307.133 71.1253 307.133 70.336V65.136H309.373V70.016C309.373 70.72 309.549 71.264 309.901 71.648C310.253 72.0213 310.733 72.208 311.341 72.208C311.96 72.208 312.445 72.0213 312.797 71.648C313.149 71.264 313.325 70.72 313.325 70.016V65.136H315.581ZM321.184 74.144C320.458 74.144 319.808 74.016 319.232 73.76C318.656 73.4933 318.197 73.136 317.856 72.688C317.525 72.24 317.344 71.744 317.312 71.2H319.568C319.61 71.5413 319.776 71.824 320.064 72.048C320.362 72.272 320.73 72.384 321.168 72.384C321.594 72.384 321.925 72.2987 322.16 72.128C322.405 71.9573 322.528 71.7387 322.528 71.472C322.528 71.184 322.378 70.9707 322.08 70.832C321.792 70.6827 321.328 70.5227 320.688 70.352C320.026 70.192 319.482 70.0267 319.056 69.856C318.64 69.6853 318.277 69.424 317.968 69.072C317.669 68.72 317.52 68.2453 317.52 67.648C317.52 67.1573 317.658 66.7093 317.936 66.304C318.224 65.8987 318.629 65.5787 319.152 65.344C319.685 65.1093 320.309 64.992 321.024 64.992C322.08 64.992 322.922 65.2587 323.552 65.792C324.181 66.3147 324.528 67.024 324.592 67.92H322.448C322.416 67.568 322.266 67.2907 322 67.088C321.744 66.8747 321.397 66.768 320.96 66.768C320.554 66.768 320.24 66.8427 320.016 66.992C319.802 67.1413 319.696 67.3493 319.696 67.616C319.696 67.9147 319.845 68.144 320.144 68.304C320.442 68.4533 320.906 68.608 321.536 68.768C322.176 68.928 322.704 69.0933 323.12 69.264C323.536 69.4347 323.893 69.7013 324.192 70.064C324.501 70.416 324.661 70.8853 324.672 71.472C324.672 71.984 324.528 72.4427 324.24 72.848C323.962 73.2533 323.557 73.5733 323.024 73.808C322.501 74.032 321.888 74.144 321.184 74.144ZM327.646 64.08C327.252 64.08 326.921 63.9573 326.654 63.712C326.398 63.456 326.27 63.1413 326.27 62.768C326.27 62.3947 326.398 62.0853 326.654 61.84C326.921 61.584 327.252 61.456 327.646 61.456C328.041 61.456 328.366 61.584 328.622 61.84C328.889 62.0853 329.022 62.3947 329.022 62.768C329.022 63.1413 328.889 63.456 328.622 63.712C328.366 63.9573 328.041 64.08 327.646 64.08ZM328.75 65.136V74H326.51V65.136H328.75ZM334.899 74.144C334.046 74.144 333.278 73.9573 332.595 73.584C331.913 73.2 331.374 72.6613 330.979 71.968C330.595 71.2747 330.403 70.4747 330.403 69.568C330.403 68.6613 330.601 67.8613 330.995 67.168C331.401 66.4747 331.95 65.9413 332.643 65.568C333.337 65.184 334.11 64.992 334.963 64.992C335.817 64.992 336.59 65.184 337.283 65.568C337.977 65.9413 338.521 66.4747 338.915 67.168C339.321 67.8613 339.523 68.6613 339.523 69.568C339.523 70.4747 339.315 71.2747 338.899 71.968C338.494 72.6613 337.939 73.2 337.235 73.584C336.542 73.9573 335.763 74.144 334.899 74.144ZM334.899 72.192C335.305 72.192 335.683 72.096 336.035 71.904C336.398 71.7013 336.686 71.4027 336.899 71.008C337.113 70.6133 337.219 70.1333 337.219 69.568C337.219 68.7253 336.995 68.08 336.547 67.632C336.11 67.1733 335.571 66.944 334.931 66.944C334.291 66.944 333.753 67.1733 333.315 67.632C332.889 68.08 332.675 68.7253 332.675 69.568C332.675 70.4107 332.883 71.0613 333.299 71.52C333.726 71.968 334.259 72.192 334.899 72.192ZM346.079 65.008C347.135 65.008 347.988 65.344 348.639 66.016C349.289 66.6773 349.615 67.6053 349.615 68.8V74H347.375V69.104C347.375 68.4 347.199 67.8613 346.847 67.488C346.495 67.104 346.015 66.912 345.407 66.912C344.788 66.912 344.297 67.104 343.935 67.488C343.583 67.8613 343.407 68.4 343.407 69.104V74H341.167V65.136H343.407V66.24C343.705 65.856 344.084 65.5573 344.543 65.344C345.012 65.12 345.524 65.008 346.079 65.008ZM355.137 74.144C354.411 74.144 353.761 74.016 353.185 73.76C352.609 73.4933 352.15 73.136 351.809 72.688C351.478 72.24 351.297 71.744 351.265 71.2H353.521C353.563 71.5413 353.729 71.824 354.017 72.048C354.315 72.272 354.683 72.384 355.121 72.384C355.547 72.384 355.878 72.2987 356.113 72.128C356.358 71.9573 356.481 71.7387 356.481 71.472C356.481 71.184 356.331 70.9707 356.033 70.832C355.745 70.6827 355.281 70.5227 354.641 70.352C353.979 70.192 353.435 70.0267 353.009 69.856C352.593 69.6853 352.23 69.424 351.921 69.072C351.622 68.72 351.473 68.2453 351.473 67.648C351.473 67.1573 351.611 66.7093 351.889 66.304C352.177 65.8987 352.582 65.5787 353.105 65.344C353.638 65.1093 354.262 64.992 354.977 64.992C356.033 64.992 356.875 65.2587 357.505 65.792C358.134 66.3147 358.481 67.024 358.545 67.92H356.401C356.369 67.568 356.219 67.2907 355.953 67.088C355.697 66.8747 355.35 66.768 354.913 66.768C354.507 66.768 354.193 66.8427 353.969 66.992C353.755 67.1413 353.649 67.3493 353.649 67.616C353.649 67.9147 353.798 68.144 354.097 68.304C354.395 68.4533 354.859 68.608 355.489 68.768C356.129 68.928 356.657 69.0933 357.073 69.264C357.489 69.4347 357.846 69.7013 358.145 70.064C358.454 70.416 358.614 70.8853 358.625 71.472C358.625 71.984 358.481 72.4427 358.193 72.848C357.915 73.2533 357.51 73.5733 356.977 73.808C356.454 74.032 355.841 74.144 355.137 74.144Z" fill="white"/>
<path d="M440.38 66.6V65.77H442.26V73H441.34V66.6H440.38ZM453.709 66.08V73H452.799V67.84L450.499 73H449.859L447.549 67.83V73H446.639V66.08H447.619L450.179 71.8L452.739 66.08H453.709ZM457.642 73.09C457.129 73.09 456.662 72.9733 456.242 72.74C455.829 72.5067 455.502 72.1767 455.262 71.75C455.029 71.3167 454.912 70.8167 454.912 70.25C454.912 69.69 455.032 69.1967 455.272 68.77C455.519 68.3367 455.852 68.0067 456.272 67.78C456.692 67.5467 457.162 67.43 457.682 67.43C458.202 67.43 458.672 67.5467 459.092 67.78C459.512 68.0067 459.842 68.3333 460.082 68.76C460.329 69.1867 460.452 69.6833 460.452 70.25C460.452 70.8167 460.326 71.3167 460.072 71.75C459.826 72.1767 459.489 72.5067 459.062 72.74C458.636 72.9733 458.162 73.09 457.642 73.09ZM457.642 72.29C457.969 72.29 458.276 72.2133 458.562 72.06C458.849 71.9067 459.079 71.6767 459.252 71.37C459.432 71.0633 459.522 70.69 459.522 70.25C459.522 69.81 459.436 69.4367 459.262 69.13C459.089 68.8233 458.862 68.5967 458.582 68.45C458.302 68.2967 457.999 68.22 457.672 68.22C457.339 68.22 457.032 68.2967 456.752 68.45C456.479 68.5967 456.259 68.8233 456.092 69.13C455.926 69.4367 455.842 69.81 455.842 70.25C455.842 70.6967 455.922 71.0733 456.082 71.38C456.249 71.6867 456.469 71.9167 456.742 72.07C457.016 72.2167 457.316 72.29 457.642 72.29ZM462.119 66.63C461.946 66.63 461.799 66.57 461.679 66.45C461.559 66.33 461.499 66.1833 461.499 66.01C461.499 65.8367 461.559 65.69 461.679 65.57C461.799 65.45 461.946 65.39 462.119 65.39C462.286 65.39 462.426 65.45 462.539 65.57C462.659 65.69 462.719 65.8367 462.719 66.01C462.719 66.1833 462.659 66.33 462.539 66.45C462.426 66.57 462.286 66.63 462.119 66.63ZM462.559 67.52V73H461.649V67.52H462.559ZM466.05 73.09C465.63 73.09 465.253 73.02 464.92 72.88C464.587 72.7333 464.323 72.5333 464.13 72.28C463.937 72.02 463.83 71.7233 463.81 71.39H464.75C464.777 71.6633 464.903 71.8867 465.13 72.06C465.363 72.2333 465.667 72.32 466.04 72.32C466.387 72.32 466.66 72.2433 466.86 72.09C467.06 71.9367 467.16 71.7433 467.16 71.51C467.16 71.27 467.053 71.0933 466.84 70.98C466.627 70.86 466.297 70.7433 465.85 70.63C465.443 70.5233 465.11 70.4167 464.85 70.31C464.597 70.1967 464.377 70.0333 464.19 69.82C464.01 69.6 463.92 69.3133 463.92 68.96C463.92 68.68 464.003 68.4233 464.17 68.19C464.337 67.9567 464.573 67.7733 464.88 67.64C465.187 67.5 465.537 67.43 465.93 67.43C466.537 67.43 467.027 67.5833 467.4 67.89C467.773 68.1967 467.973 68.6167 468 69.15H467.09C467.07 68.8633 466.953 68.6333 466.74 68.46C466.533 68.2867 466.253 68.2 465.9 68.2C465.573 68.2 465.313 68.27 465.12 68.41C464.927 68.55 464.83 68.7333 464.83 68.96C464.83 69.14 464.887 69.29 465 69.41C465.12 69.5233 465.267 69.6167 465.44 69.69C465.62 69.7567 465.867 69.8333 466.18 69.92C466.573 70.0267 466.893 70.1333 467.14 70.24C467.387 70.34 467.597 70.4933 467.77 70.7C467.95 70.9067 468.043 71.1767 468.05 71.51C468.05 71.81 467.967 72.08 467.8 72.32C467.633 72.56 467.397 72.75 467.09 72.89C466.79 73.0233 466.443 73.09 466.05 73.09Z" fill="white"/>
<g clip-path="url(#clip0_137707_390)">
<path d="M483.083 68.8333L486 71.75L488.917 68.8333H483.083Z" fill="white"/>
</g>
<g clip-path="url(#clip1_137707_390)">
<path d="M326 341L331 346L336 341H326Z" fill="white"/>
</g>
<path d="M93.7632 116.06H88.2944C87.2495 116.06 86.7271 117.32 87.4644 118.062L89.0708 119.576L84.2271 124.424C83.9243 124.727 83.9243 125.225 84.2271 125.528L85.4673 126.768C85.77 127.071 86.2681 127.071 86.5708 126.768L91.4194 121.919L92.938 123.531C93.6753 124.268 94.9351 123.746 94.9351 122.701V117.232C94.9351 116.583 94.4126 116.06 93.7632 116.06ZM99.2319 112.935H104.701C105.746 112.935 106.268 111.67 105.531 110.933L103.919 109.419L108.768 104.571C109.071 104.268 109.071 103.77 108.768 103.467L107.528 102.227C107.225 101.924 106.727 101.924 106.424 102.227L101.576 107.076L100.057 105.464C99.3198 104.727 98.0601 105.25 98.0601 106.294V111.763C98.0601 112.413 98.5825 112.935 99.2319 112.935ZM103.919 119.576L105.531 118.057C106.268 117.32 105.746 116.06 104.701 116.06H99.2319C98.5825 116.06 98.0601 116.583 98.0601 117.232V122.701C98.0601 123.746 99.3247 124.268 100.062 123.531L101.576 121.924L106.424 126.773C106.727 127.076 107.225 127.076 107.528 126.773L108.768 125.533C109.071 125.23 109.071 124.732 108.768 124.429L103.919 119.576ZM92.9331 105.469L91.4194 107.076L86.5708 102.227C86.2681 101.924 85.77 101.924 85.4673 102.227L84.2271 103.467C83.9243 103.77 83.9243 104.268 84.2271 104.571L89.0757 109.419L87.4644 110.938C86.7271 111.675 87.2495 112.935 88.2944 112.935H93.7632C94.4126 112.935 94.9351 112.413 94.9351 111.763V106.294C94.9351 105.254 93.6704 104.732 92.9331 105.469Z" fill="#00D9F5"/>
<path d="M140.859 385.516C140.859 383.574 142.433 382 144.375 382C146.317 382 147.891 383.574 147.891 385.516C147.891 387.457 146.317 389.031 144.375 389.031C142.433 389.031 140.859 387.457 140.859 385.516ZM153.292 385.583C152.682 384.972 151.693 384.972 151.083 385.583L146.853 389.812H141.897L137.667 385.583C137.057 384.972 136.068 384.972 135.458 385.583C134.847 386.193 134.847 387.182 135.458 387.792L140.078 392.413V405.438C140.078 406.3 140.778 407 141.641 407H142.422C143.285 407 143.984 406.3 143.984 405.438V399.969H144.766V405.438C144.766 406.3 145.465 407 146.328 407H147.109C147.972 407 148.672 406.3 148.672 405.438V392.413L153.292 387.792C153.903 387.182 153.903 386.193 153.292 385.583Z" fill="#00D9F5"/>
<path d="M215.314 395.814C216.229 394.898 216.229 393.414 215.314 392.499L207.501 384.686C206.586 383.771 205.102 383.771 204.186 384.686L191.686 397.186C190.771 398.102 190.771 399.586 191.686 400.501L196.374 405.189C196.814 405.628 197.41 405.875 198.031 405.875H215.414C215.738 405.875 216 405.613 216 405.289V403.336C216 403.012 215.738 402.75 215.414 402.75H208.377L215.314 395.814ZM200.537 392.756L207.245 399.463L203.958 402.75H198.355L194.449 398.844L200.537 392.756Z" fill="#00D9F5"/>
<path d="M270.656 387.688H266.75V385.344C266.75 384.05 265.7 383 264.406 383H256.594C255.3 383 254.25 384.05 254.25 385.344V387.688H250.344C249.05 387.688 248 388.737 248 390.031V404.094C248 405.388 249.05 406.438 250.344 406.438H270.656C271.95 406.438 273 405.388 273 404.094V390.031C273 388.737 271.95 387.688 270.656 387.688ZM257.375 386.125H263.625V387.688H257.375V386.125ZM265.188 398.234C265.188 398.449 265.012 398.625 264.797 398.625H262.062V401.359C262.062 401.574 261.887 401.75 261.672 401.75H259.328C259.113 401.75 258.938 401.574 258.938 401.359V398.625H256.203C255.988 398.625 255.812 398.449 255.812 398.234V395.891C255.812 395.676 255.988 395.5 256.203 395.5H258.938V392.766C258.938 392.551 259.113 392.375 259.328 392.375H261.672C261.887 392.375 262.062 392.551 262.062 392.766V395.5H264.797C265.012 395.5 265.188 395.676 265.188 395.891V398.234Z" fill="#00D9F5"/>
<path d="M328.526 396.49L327.896 404.171C327.735 406.158 324.776 405.885 324.937 403.932L325.426 397.95L323.419 398.062C323.912 399.073 324.19 400.206 324.19 401.407C324.19 403.419 323.404 405.25 322.125 406.607L320.206 404.688C323.033 401.578 320.846 396.524 316.593 396.524C315.328 396.524 314.176 397.008 313.312 397.794L311.393 395.875C312.467 394.864 313.839 394.161 315.367 393.912L319.044 389.728L316.964 388.517L314.444 390.763C312.979 392.071 310.997 389.859 312.467 388.546L315.787 385.582C316.266 385.152 316.964 385.084 317.521 385.406C317.521 385.406 324.322 389.356 324.332 389.366C325.123 389.859 325.343 391.124 324.63 391.935L321.778 395.182L326.959 394.894C327.862 394.84 328.6 395.597 328.526 396.49ZM325.357 388.971C326.729 388.971 327.843 387.857 327.843 386.485C327.843 385.113 326.729 384 325.357 384C323.985 384 322.872 385.113 322.872 386.485C322.872 387.857 323.985 388.971 325.357 388.971ZM316.598 406.29C312.662 406.29 310.377 401.866 312.56 398.668L310.621 396.729C309.605 398.014 309 399.64 309 401.402C309 407.784 316.358 411.236 321.275 407.384L319.337 405.445C318.556 405.978 317.613 406.29 316.598 406.29Z" fill="#00D9F5"/>
<defs>
<filter id="filter0_b_137707_390" x="-10" y="68" width="211" height="178" filterUnits="userSpaceOnUse" color-interpolation-filters="sRGB">
<feFlood flood-opacity="0" result="BackgroundImageFix"/>
<feGaussianBlur in="BackgroundImageFix" stdDeviation="5"/>
<feComposite in2="SourceAlpha" operator="in" result="effect1_backgroundBlur_137707_390"/>
<feBlend mode="normal" in="SourceGraphic" in2="effect1_backgroundBlur_137707_390" result="shape"/>
</filter>
<filter id="filter1_b_137707_390" x="91" y="299" width="282" height="160" filterUnits="userSpaceOnUse" color-interpolation-filters="sRGB">
<feFlood flood-opacity="0" result="BackgroundImageFix"/>
<feGaussianBlur in="BackgroundImageFix" stdDeviation="5"/>
<feComposite in2="SourceAlpha" operator="in" result="effect1_backgroundBlur_137707_390"/>
<feBlend mode="normal" in="SourceGraphic" in2="effect1_backgroundBlur_137707_390" result="shape"/>
</filter>
<linearGradient id="paint0_linear_137707_390" x1="319.568" y1="-342.305" x2="572.315" y2="277.428" gradientUnits="userSpaceOnUse">
<stop offset="0.00887753" stop-color="#DEF9FA"/>
<stop offset="0.1723" stop-color="#BEF3F5"/>
<stop offset="0.4204" stop-color="#9DEDF0"/>
<stop offset="0.5512" stop-color="#7DE7EB"/>
<stop offset="0.7154" stop-color="#5CE1E6"/>
<stop offset="1" stop-color="#33BBCF"/>
</linearGradient>
<linearGradient id="paint1_linear_137707_390" x1="450.564" y1="489.222" x2="57.0125" y2="281.614" gradientUnits="userSpaceOnUse">
<stop offset="0.00887753" stop-color="#DEF9FA"/>
<stop offset="0.1723" stop-color="#BEF3F5"/>
<stop offset="0.4204" stop-color="#9DEDF0"/>
<stop offset="0.5512" stop-color="#7DE7EB"/>
<stop offset="0.7154" stop-color="#5CE1E6"/>
<stop offset="1" stop-color="#33BBCF"/>
</linearGradient>
<linearGradient id="paint2_linear_137707_390" x1="351.482" y1="337.484" x2="157.838" y2="235.332" gradientUnits="userSpaceOnUse">
<stop offset="0.00887753" stop-color="#DEF9FA"/>
<stop offset="0.1723" stop-color="#BEF3F5"/>
<stop offset="0.4204" stop-color="#9DEDF0"/>
<stop offset="0.5512" stop-color="#7DE7EB"/>
<stop offset="0.7154" stop-color="#5CE1E6"/>
<stop offset="1" stop-color="#33BBCF"/>
</linearGradient>
<linearGradient id="paint3_linear_137707_390" x1="-708" y1="-369" x2="184.238" y2="292.125" gradientUnits="userSpaceOnUse">
<stop offset="0.161458" stop-color="white"/>
<stop offset="0.578125" stop-color="#6D6D6D"/>
<stop offset="0.932292" stop-color="#11101D"/>
</linearGradient>
<linearGradient id="paint4_linear_137707_390" x1="-380.5" y1="-187.5" x2="-20.7124" y2="623.987" gradientUnits="userSpaceOnUse">
<stop stop-color="white"/>
<stop offset="0.906032" stop-color="#14101D"/>
</linearGradient>
<linearGradient id="paint5_linear_137707_390" x1="121" y1="395" x2="169" y2="395" gradientUnits="userSpaceOnUse">
<stop stop-color="#00F5A0"/>
<stop offset="1" stop-color="#00D9F5"/>
</linearGradient>
<linearGradient id="paint6_linear_137707_390" x1="179" y1="395" x2="227" y2="395" gradientUnits="userSpaceOnUse">
<stop stop-color="#00F5A0"/>
<stop offset="1" stop-color="#00D9F5"/>
</linearGradient>
<linearGradient id="paint7_linear_137707_390" x1="237" y1="395" x2="285" y2="395" gradientUnits="userSpaceOnUse">
<stop stop-color="#00F5A0"/>
<stop offset="1" stop-color="#00D9F5"/>
</linearGradient>
<linearGradient id="paint8_linear_137707_390" x1="295" y1="395" x2="343" y2="395" gradientUnits="userSpaceOnUse">
<stop stop-color="#00F5A0"/>
<stop offset="1" stop-color="#00D9F5"/>
</linearGradient>
<linearGradient id="paint9_linear_137707_390" x1="-209.326" y1="-700.792" x2="551.859" y2="177.786" gradientUnits="userSpaceOnUse">
<stop stop-color="white"/>
<stop offset="0.939091" stop-color="#14101D"/>
</linearGradient>
<linearGradient id="paint10_linear_137707_390" x1="342" y1="245.5" x2="370" y2="245.5" gradientUnits="userSpaceOnUse">
<stop stop-color="#00F5A0"/>
<stop offset="1" stop-color="#00D9F5"/>
</linearGradient>
<linearGradient id="paint11_linear_137707_390" x1="277" y1="179.5" x2="492" y2="179.5" gradientUnits="userSpaceOnUse">
<stop stop-color="#00F5A0"/>
<stop offset="1" stop-color="#00D9F5"/>
</linearGradient>
<linearGradient id="paint12_linear_137707_390" x1="353" y1="194" x2="461" y2="194" gradientUnits="userSpaceOnUse">
<stop stop-color="#00F5A0"/>
<stop offset="1" stop-color="#00D9F5"/>
</linearGradient>
<clipPath id="clip0_137707_390">
<rect width="14" height="14" fill="white" transform="translate(479 63)"/>
</clipPath>
<clipPath id="clip1_137707_390">
<rect width="24" height="24" fill="white" transform="translate(319 331)"/>
</clipPath>
</defs>
</svg>
