<svg width="259" height="196" viewBox="0 0 259 196" fill="none" xmlns="http://www.w3.org/2000/svg">
<rect width="259" height="195" transform="translate(0 0.5)" fill="white"/>
<path d="M132.014 40.0529C120.192 35.8108 115.811 24.4837 96.841 9.64875C74.8772 -7.55203 40.2937 -0.0592446 23.3188 28.4309C2.44692 63.4475 16.7108 122.505 60.8769 146.565C156.35 198.562 230.312 147.726 244.03 110.205C256.9 74.9628 233.449 35.7857 198.985 36.4759C166.159 37.1223 148.393 45.9204 132.014 40.0529Z" fill="#407BFF"/>
<path opacity="0.9" d="M132.014 40.0529C120.192 35.8108 115.811 24.4837 96.841 9.64875C74.8772 -7.55203 40.2937 -0.0592446 23.3188 28.4309C2.44692 63.4475 16.7108 122.505 60.8769 146.565C156.35 198.562 230.312 147.726 244.03 110.205C256.9 74.9628 233.449 35.7857 198.985 36.4759C166.159 37.1223 148.393 45.9204 132.014 40.0529Z" fill="white"/>
<path d="M128.619 195.5C195.818 195.5 250.292 192.319 250.292 188.396C250.292 184.473 195.818 181.292 128.619 181.292C61.4212 181.292 6.94629 184.473 6.94629 188.396C6.94629 192.319 61.4212 195.5 128.619 195.5Z" fill="#F5F5F5"/>
<path d="M131.286 102.054H119.526L125.174 84.175H136.934L131.286 102.054Z" fill="#407BFF"/>
<path opacity="0.2" d="M123.523 89.3962H135.283L136.934 84.175H125.174L123.523 89.3962Z" fill="black"/>
<path d="M140.592 100.918H118.089V103.635H140.592V100.918Z" fill="#407BFF"/>
<path opacity="0.5" d="M140.592 100.918H118.089V103.635H140.592V100.918Z" fill="white"/>
<path opacity="0.6" d="M129.341 100.918H118.089V103.635H129.341V100.918Z" fill="white"/>
<path d="M227.789 80.2905L223.691 33.4512L159.551 39.1053H94.9144L29.7824 33.4512L28.5273 34.7062L32.6252 81.5456L97.7572 87.1997H162.393L226.534 81.5456L227.789 80.2905Z" fill="#407BFF"/>
<path opacity="0.2" d="M227.789 80.2905L223.691 33.4512L159.551 39.1053H94.9143L29.7822 33.4512L33.88 80.2905L99.0121 85.9446H163.648L227.789 80.2905Z" fill="white"/>
<path opacity="0.8" d="M221.986 35.5148L161.578 40.7998L165.347 83.8725L225.755 78.5875L221.986 35.5148Z" fill="white"/>
<path opacity="0.5" d="M172.917 45.1611C172.829 45.1689 172.74 45.1593 172.655 45.1328C172.571 45.1063 172.492 45.0634 172.425 45.0066C172.357 44.9498 172.301 44.8801 172.26 44.8017C172.219 44.7232 172.194 44.6374 172.186 44.5492C172.178 44.4611 172.188 44.3722 172.214 44.2877C172.241 44.2033 172.283 44.1249 172.34 44.057C172.397 43.9891 172.467 43.9331 172.545 43.8921C172.624 43.8511 172.709 43.826 172.798 43.8182L187.99 42.4815C188.078 42.4729 188.167 42.4816 188.251 42.5072C188.335 42.5328 188.414 42.5747 188.482 42.6307C188.55 42.6866 188.607 42.7554 188.648 42.8332C188.69 42.911 188.716 42.9962 188.724 43.084C188.733 43.1717 188.724 43.2603 188.699 43.3447C188.673 43.4291 188.631 43.5076 188.575 43.5758C188.519 43.644 188.451 43.7005 188.373 43.7421C188.295 43.7837 188.21 43.8095 188.122 43.8182L172.917 45.1611Z" fill="#263238"/>
<g opacity="0.5">
<path opacity="0.5" d="M172.917 45.1611C172.829 45.1689 172.74 45.1593 172.655 45.1328C172.571 45.1063 172.492 45.0634 172.425 45.0066C172.357 44.9498 172.301 44.8801 172.26 44.8017C172.219 44.7232 172.194 44.6374 172.186 44.5492C172.178 44.4611 172.188 44.3722 172.214 44.2877C172.241 44.2033 172.283 44.1249 172.34 44.057C172.397 43.9891 172.467 43.9331 172.545 43.8921C172.624 43.8511 172.709 43.826 172.798 43.8182L187.99 42.4815C188.078 42.4729 188.167 42.4816 188.251 42.5072C188.335 42.5328 188.414 42.5747 188.482 42.6307C188.55 42.6866 188.607 42.7554 188.648 42.8332C188.69 42.911 188.716 42.9962 188.724 43.084C188.733 43.1717 188.724 43.2603 188.699 43.3447C188.673 43.4291 188.631 43.5076 188.575 43.5758C188.519 43.644 188.451 43.7005 188.373 43.7421C188.295 43.7837 188.21 43.8095 188.122 43.8182L172.917 45.1611Z" fill="white"/>
</g>
<path opacity="0.5" d="M197.636 42.9835C197.547 42.9913 197.459 42.9817 197.374 42.9552C197.29 42.9287 197.211 42.8858 197.143 42.829C197.075 42.7722 197.019 42.7026 196.978 42.6241C196.937 42.5456 196.912 42.4598 196.904 42.3717C196.897 42.2835 196.906 42.1946 196.933 42.1102C196.959 42.0257 197.002 41.9473 197.059 41.8794C197.116 41.8115 197.185 41.7555 197.264 41.7145C197.342 41.6735 197.428 41.6484 197.516 41.6406L212.709 40.3039C212.881 40.2976 213.05 40.3578 213.179 40.4723C213.308 40.5867 213.388 40.7464 213.403 40.9184C213.417 41.0903 213.365 41.2613 213.257 41.3958C213.149 41.5302 212.993 41.6179 212.822 41.6406L197.636 42.9835Z" fill="#263238"/>
<g opacity="0.5">
<path opacity="0.5" d="M197.636 42.9835C197.547 42.9913 197.459 42.9817 197.374 42.9552C197.29 42.9287 197.211 42.8858 197.143 42.829C197.075 42.7722 197.019 42.7026 196.978 42.6241C196.937 42.5456 196.912 42.4598 196.904 42.3717C196.897 42.2835 196.906 42.1946 196.933 42.1102C196.959 42.0257 197.002 41.9473 197.059 41.8794C197.116 41.8115 197.185 41.7555 197.264 41.7145C197.342 41.6735 197.428 41.6484 197.516 41.6406L212.709 40.3039C212.881 40.2976 213.05 40.3578 213.179 40.4723C213.308 40.5867 213.388 40.7464 213.403 40.9184C213.417 41.0903 213.365 41.2613 213.257 41.3958C213.149 41.5302 212.993 41.6179 212.822 41.6406L197.636 42.9835Z" fill="white"/>
</g>
<path d="M181.677 61.804C185.943 61.617 189.249 57.982 189.06 53.6851C188.872 49.3882 185.261 46.0565 180.995 46.2435C176.73 46.4304 173.424 50.0654 173.613 54.3623C173.801 58.6592 177.412 61.991 181.677 61.804Z" fill="#407BFF"/>
<g opacity="0.9">
<path opacity="0.9" d="M178 58.0382L177.121 58.1135C177.012 58.1222 176.904 58.0875 176.821 58.0169C176.737 57.9464 176.685 57.8458 176.675 57.7369L176.311 53.5826C176.306 53.529 176.312 53.4749 176.328 53.4235C176.343 53.372 176.369 53.3242 176.404 53.2827C176.438 53.2413 176.48 53.2071 176.528 53.1821C176.576 53.1571 176.628 53.1418 176.682 53.1371L177.56 53.0555C177.669 53.0468 177.777 53.0815 177.861 53.152C177.944 53.2225 177.996 53.3232 178.006 53.432L178.37 57.5863C178.38 57.6953 178.347 57.804 178.278 57.8886C178.208 57.9733 178.108 58.0271 178 58.0382Z" fill="white"/>
<path opacity="0.9" d="M179.148 52.748C179.713 52.1895 181.131 50.6081 181.125 48.9074C181.126 48.7248 181.185 48.5472 181.295 48.4009C181.404 48.2546 181.557 48.1472 181.732 48.0945C181.907 48.0418 182.094 48.0466 182.266 48.1083C182.438 48.1699 182.586 48.285 182.688 48.4368C183.001 48.9828 183.077 50.0182 182.512 51.951L184.683 51.7627C184.968 51.7378 185.253 51.7971 185.504 51.9332C185.755 52.0693 185.961 52.2763 186.095 52.5283C186.258 52.8295 186.311 53.1776 186.246 53.5136L185.618 56.7893C185.55 57.1403 185.356 57.4544 185.073 57.6727C184.79 57.8911 184.437 57.9987 184.081 57.9754L179.933 57.6804C179.772 57.6639 179.622 57.5925 179.507 57.4782C179.393 57.3639 179.322 57.2137 179.305 57.0529L178.979 53.319C178.963 53.2172 178.969 53.1131 178.999 53.0143C179.028 52.9155 179.079 52.8245 179.148 52.748Z" fill="white"/>
</g>
<path opacity="0.9" d="M206.404 59.6154C210.67 59.4276 213.975 55.7921 213.786 51.4952C213.596 47.1984 209.985 43.8672 205.719 44.055C201.454 44.2427 198.149 47.8782 198.338 52.1751C198.527 56.472 202.138 59.8031 206.404 59.6154Z" fill="white"/>
<path d="M202.066 48.4557L201.187 48.531C201.133 48.5357 201.08 48.5512 201.032 48.5765C200.983 48.6018 200.94 48.6365 200.905 48.6785C200.87 48.7205 200.844 48.769 200.828 48.8212C200.811 48.8735 200.806 48.9284 200.811 48.9828L201.175 53.1308C201.179 53.1853 201.194 53.2384 201.218 53.2872C201.243 53.3359 201.277 53.3793 201.318 53.4149C201.359 53.4505 201.408 53.4775 201.459 53.4945C201.511 53.5114 201.566 53.5179 201.62 53.5136L202.499 53.4321C202.553 53.4273 202.606 53.4119 202.655 53.3866C202.703 53.3613 202.746 53.3266 202.781 53.2846C202.816 53.2426 202.843 53.1941 202.859 53.1418C202.875 53.0896 202.881 53.0347 202.876 52.9802L202.512 48.8322C202.508 48.778 202.493 48.7252 202.468 48.6767C202.444 48.6283 202.41 48.5853 202.368 48.5502C202.327 48.5151 202.278 48.4887 202.227 48.4725C202.175 48.4562 202.12 48.4505 202.066 48.4557Z" fill="#407BFF"/>
<path d="M204.119 53.4571C204.746 53.9152 206.441 55.2205 206.729 56.896C206.761 57.0772 206.85 57.2432 206.984 57.3694C207.118 57.4957 207.289 57.5753 207.472 57.5964C207.654 57.6176 207.839 57.5792 207.998 57.4869C208.157 57.3946 208.282 57.2534 208.355 57.0843C208.568 56.4944 208.461 55.459 207.57 53.6579L209.735 53.4634C210.019 53.4366 210.288 53.3281 210.511 53.1509C210.734 52.9738 210.9 52.7357 210.99 52.4656C211.106 52.1431 211.106 51.7903 210.99 51.4678L209.798 48.3301C209.67 47.9963 209.425 47.7207 209.108 47.5553C208.792 47.39 208.425 47.3464 208.078 47.4328L204.043 48.4494C203.881 48.4906 203.738 48.5884 203.642 48.7254C203.545 48.8623 203.501 49.0293 203.516 49.1961L203.843 52.9237C203.846 53.0275 203.873 53.1292 203.921 53.2214C203.969 53.3136 204.036 53.3941 204.119 53.4571Z" fill="#407BFF"/>
<path d="M179.349 73.5678L174.767 73.9719L175.234 79.2729L179.816 78.8688L179.349 73.5678Z" fill="#407BFF"/>
<path opacity="0.9" d="M184.035 74.3184L179.453 74.7225L179.818 78.867L184.4 78.4629L184.035 74.3184Z" fill="white"/>
<path opacity="0.9" d="M192.724 68.124L188.142 68.5281L188.982 78.0548L193.564 77.6507L192.724 68.124Z" fill="white"/>
<path opacity="0.9" d="M201.793 66.1821L197.21 66.5862L198.151 77.2506L202.733 76.8465L201.793 66.1821Z" fill="white"/>
<path opacity="0.9" d="M211.164 67.7526L206.582 68.1567L207.313 76.4457L211.895 76.0416L211.164 67.7526Z" fill="white"/>
<path d="M188.221 69.3844L183.639 69.7885L184.404 78.4587L188.986 78.0546L188.221 69.3844Z" fill="#407BFF"/>
<path d="M197.108 65.4497L192.526 65.8538L193.567 77.6558L198.149 77.2517L197.108 65.4497Z" fill="#407BFF"/>
<path d="M206.471 66.9146L201.889 67.3187L202.729 76.8454L207.311 76.4413L206.471 66.9146Z" fill="#407BFF"/>
<path d="M215.17 60.832L210.588 61.2361L211.893 76.0387L216.475 75.6346L215.17 60.832Z" fill="#407BFF"/>
<path opacity="0.8" d="M31.8403 35.4969L35.6118 78.5711L96.9473 83.8988L93.182 40.8247L31.8403 35.4969Z" fill="white"/>
<path d="M75.6493 55.44L42.735 52.6035C42.0436 52.5188 41.4001 52.2064 40.9059 51.7155C40.4116 51.2247 40.0948 50.5834 40.0052 49.8926L39.591 45.1484C39.5503 44.8388 39.5817 44.524 39.6827 44.2285C39.7837 43.933 39.9516 43.6649 40.1733 43.445C40.3951 43.2251 40.6646 43.0594 40.9609 42.9608C41.2572 42.8622 41.5723 42.8335 41.8815 42.8767L74.8021 45.7006C75.4956 45.7782 76.1424 46.0885 76.637 46.5808C77.1316 47.0731 77.4449 47.7184 77.5256 48.4116L77.9461 53.1558C77.9865 53.4664 77.9548 53.7822 77.8535 54.0787C77.7522 54.3751 77.584 54.6442 77.3618 54.8651C77.1397 55.0861 76.8697 55.2528 76.5727 55.3525C76.2757 55.4522 75.9597 55.4822 75.6493 55.44Z" fill="white"/>
<path d="M48.1817 48.2109C48.2284 48.581 48.1893 48.957 48.0676 49.3096C47.9459 49.6623 47.7448 49.9823 47.4797 50.2449C47.2147 50.5075 46.8929 50.7056 46.5391 50.8241C46.1854 50.9426 45.8091 50.9782 45.4394 50.9281C44.6094 50.8353 43.8351 50.4651 43.2417 49.8774C42.6484 49.2898 42.2707 48.519 42.1699 47.69C42.1233 47.319 42.1625 46.9423 42.2846 46.5889C42.4066 46.2355 42.6082 45.9148 42.8738 45.6517C43.1394 45.3885 43.4619 45.1899 43.8164 45.0711C44.1709 44.9523 44.548 44.9165 44.9185 44.9665C45.7483 45.0609 46.5219 45.4326 47.1141 46.0214C47.7063 46.6102 48.0825 47.3817 48.1817 48.2109Z" fill="#407BFF"/>
<path d="M52.0155 46.8869C51.8358 46.8659 51.6682 46.7852 51.5397 46.6578C51.4112 46.5304 51.329 46.3636 51.3064 46.1841C51.2947 46.1005 51.3031 46.0153 51.3311 45.9357C51.3592 45.8561 51.4059 45.7843 51.4674 45.7265C51.5289 45.6687 51.6033 45.6265 51.6845 45.6035C51.7657 45.5805 51.8513 45.5773 51.9339 45.5942L72.1093 47.345C72.2894 47.365 72.4575 47.4453 72.5863 47.5729C72.715 47.7005 72.7968 47.8679 72.8184 48.0478C72.8301 48.1314 72.8216 48.2166 72.7936 48.2962C72.7656 48.3758 72.7189 48.4475 72.6574 48.5053C72.5959 48.5632 72.5214 48.6053 72.4402 48.6284C72.3591 48.6514 72.2735 48.6546 72.1908 48.6377L52.0155 46.8869Z" fill="#263238"/>
<path d="M52.4237 51.5556C52.244 51.5346 52.0765 51.4539 51.9479 51.3265C51.8194 51.1991 51.7372 51.0323 51.7146 50.8528C51.7029 50.7692 51.7113 50.684 51.7393 50.6044C51.7674 50.5248 51.8141 50.453 51.8756 50.3952C51.9371 50.3374 52.0115 50.2952 52.0927 50.2722C52.1739 50.2492 52.2595 50.246 52.3421 50.2629L64.1587 51.2858C64.3388 51.3057 64.5069 51.386 64.6357 51.5136C64.7644 51.6412 64.8462 51.8086 64.8678 51.9886C64.8782 52.0691 64.87 52.1509 64.8436 52.2277C64.8172 52.3045 64.7735 52.3741 64.7158 52.4312C64.6581 52.4883 64.588 52.5313 64.511 52.5568C64.4339 52.5824 64.352 52.5898 64.2716 52.5785L52.4237 51.5556Z" fill="#263238"/>
<path d="M52.223 49.2212C52.0429 49.2013 51.8748 49.121 51.746 48.9934C51.6173 48.8658 51.5355 48.6984 51.5139 48.5184C51.5022 48.4348 51.5107 48.3497 51.5387 48.27C51.5667 48.1904 51.6134 48.1187 51.6749 48.0609C51.7364 48.0031 51.8109 47.9609 51.892 47.9379C51.9732 47.9148 52.0588 47.9116 52.1415 47.9285L69.2544 49.4158C69.4341 49.4368 69.6017 49.5175 69.7302 49.6449C69.8587 49.7723 69.9409 49.9391 69.9635 50.1186C69.974 50.1991 69.9657 50.2809 69.9393 50.3577C69.913 50.4345 69.8692 50.5041 69.8115 50.5612C69.7538 50.6183 69.6837 50.6613 69.6067 50.6869C69.5296 50.7124 69.4477 50.7198 69.3673 50.7085L52.223 49.2212Z" fill="#263238"/>
<g opacity="0.5">
<path opacity="0.5" d="M52.0155 46.8869C51.8358 46.8659 51.6682 46.7852 51.5397 46.6578C51.4112 46.5304 51.329 46.3636 51.3064 46.1841C51.2947 46.1005 51.3031 46.0153 51.3311 45.9357C51.3592 45.8561 51.4059 45.7843 51.4674 45.7265C51.5289 45.6687 51.6033 45.6265 51.6845 45.6035C51.7657 45.5805 51.8513 45.5773 51.9339 45.5942L72.1093 47.345C72.2894 47.365 72.4575 47.4453 72.5863 47.5729C72.715 47.7005 72.7968 47.8679 72.8184 48.0478C72.8301 48.1314 72.8216 48.2166 72.7936 48.2962C72.7656 48.3758 72.7189 48.4475 72.6574 48.5053C72.5959 48.5632 72.5214 48.6053 72.4402 48.6284C72.3591 48.6514 72.2735 48.6546 72.1908 48.6377L52.0155 46.8869Z" fill="white"/>
<path opacity="0.5" d="M52.4237 51.5557C52.244 51.5347 52.0765 51.454 51.9479 51.3266C51.8194 51.1992 51.7372 51.0324 51.7146 50.8529C51.7029 50.7693 51.7113 50.6841 51.7393 50.6045C51.7674 50.5249 51.8141 50.4532 51.8756 50.3954C51.9371 50.3376 52.0115 50.2954 52.0927 50.2723C52.1739 50.2493 52.2595 50.2461 52.3421 50.263L64.1587 51.2859C64.3388 51.3058 64.5069 51.3861 64.6357 51.5137C64.7644 51.6413 64.8462 51.8087 64.8678 51.9887C64.8782 52.0692 64.87 52.151 64.8436 52.2278C64.8172 52.3046 64.7735 52.3742 64.7158 52.4313C64.6581 52.4884 64.588 52.5314 64.511 52.5569C64.4339 52.5825 64.352 52.5899 64.2716 52.5786L52.4237 51.5557Z" fill="white"/>
<path opacity="0.5" d="M52.223 49.2212C52.0429 49.2013 51.8748 49.121 51.746 48.9934C51.6173 48.8658 51.5355 48.6984 51.5139 48.5184C51.5022 48.4348 51.5107 48.3497 51.5387 48.27C51.5667 48.1904 51.6134 48.1187 51.6749 48.0609C51.7364 48.0031 51.8109 47.9609 51.892 47.9379C51.9732 47.9148 52.0588 47.9116 52.1415 47.9285L69.2544 49.4158C69.4341 49.4368 69.6017 49.5175 69.7302 49.6449C69.8587 49.7723 69.9409 49.9391 69.9635 50.1186C69.974 50.1991 69.9657 50.2809 69.9393 50.3577C69.913 50.4345 69.8692 50.5041 69.8115 50.5612C69.7538 50.6183 69.6837 50.6613 69.6067 50.6869C69.5296 50.7124 69.4477 50.7198 69.3673 50.7085L52.223 49.2212Z" fill="white"/>
</g>
<path d="M77.368 41.2138L73.5212 40.9189C73.4032 40.9056 73.2836 40.9193 73.1716 40.9589C73.0596 40.9985 72.9581 41.0631 72.8747 41.1477C72.7913 41.2323 72.7282 41.3347 72.6902 41.4473C72.6522 41.5599 72.6402 41.6796 72.6552 41.7974L72.969 45.0041C73.005 45.2669 73.1276 45.5102 73.3174 45.6954C73.5072 45.8807 73.7534 45.9974 74.017 46.027L75.134 46.1149L75.6799 46.8993C75.7128 46.9602 75.7606 47.0116 75.8189 47.0489C75.8771 47.0862 75.9439 47.1081 76.0129 47.1125C76.0819 47.1169 76.1509 47.1037 76.2134 47.0741C76.2759 47.0444 76.3299 46.9994 76.3702 46.9432L76.7593 46.2278L77.87 46.3157C77.9883 46.3303 78.1084 46.3175 78.221 46.2783C78.3336 46.2391 78.4357 46.1745 78.5194 46.0896C78.603 46.0047 78.6661 45.9017 78.7037 45.7886C78.7412 45.6755 78.7523 45.5552 78.736 45.4371L78.4223 42.2367C78.386 41.973 78.2624 41.729 78.0714 41.5436C77.8803 41.3583 77.6327 41.2422 77.368 41.2138Z" fill="#407BFF"/>
<g opacity="0.9">
<path opacity="0.9" d="M74.4067 43.8182C74.129 43.5727 73.9468 43.2372 73.8921 42.8706C73.8659 42.7651 73.8674 42.6546 73.8967 42.5499C73.926 42.4453 73.982 42.35 74.0592 42.2734C74.1364 42.1969 74.2321 42.1417 74.337 42.1133C74.4419 42.0848 74.5525 42.0842 74.6577 42.1113C75.1347 42.1552 75.2853 42.3811 75.6179 42.7388C75.8689 42.4502 76.0069 42.2494 76.4839 42.287C76.7193 42.3017 76.9414 42.4014 77.1088 42.5676C77.2762 42.7339 77.3775 42.9553 77.3938 43.1907C77.406 43.3548 77.38 43.5195 77.318 43.6719C77.2559 43.8243 77.1594 43.9603 77.0361 44.0692L75.8375 45.249L74.4067 43.8182Z" fill="white"/>
</g>
<path d="M84.6477 67.6268L51.7271 64.7653C51.0333 64.6868 50.3862 64.3765 49.8908 63.8845C49.3954 63.3924 49.0805 62.7476 48.9973 62.0543L48.5831 57.3164C48.5438 57.0062 48.5762 56.6911 48.678 56.3955C48.7798 56.0999 48.9482 55.8316 49.1702 55.6115C49.3922 55.3913 49.6618 55.2251 49.9583 55.1257C50.2548 55.0264 50.5701 54.9965 50.8799 55.0384L83.7942 57.9C84.4875 57.9771 85.1344 58.2862 85.63 58.7771C86.1255 59.2681 86.4406 59.9121 86.524 60.6047L86.9382 65.3489C86.9786 65.6587 86.9472 65.9737 86.8462 66.2694C86.7452 66.5651 86.5774 66.8335 86.3558 67.0539C86.1343 67.2742 85.8649 67.4405 85.5687 67.5399C85.2724 67.6392 84.9573 67.669 84.6477 67.6268Z" fill="white"/>
<path d="M57.1677 60.4101C57.2154 60.7808 57.1771 61.1574 57.0559 61.5109C56.9347 61.8644 56.7337 62.1852 56.4685 62.4485C56.2034 62.7118 55.8812 62.9106 55.5269 63.0294C55.1726 63.1482 54.7957 63.1839 54.4254 63.1336C53.5956 63.0392 52.822 62.6675 52.2298 62.0787C51.6375 61.4899 51.2614 60.7185 51.1622 59.8893C51.1155 59.5191 51.1546 59.1432 51.2763 58.7905C51.398 58.4379 51.5991 58.1179 51.8642 57.8553C52.1292 57.5927 52.451 57.3945 52.8048 57.276C53.1585 57.1576 53.5348 57.122 53.9045 57.172C54.7342 57.264 55.5082 57.6341 56.1008 58.222C56.6933 58.81 57.0693 59.5812 57.1677 60.4101Z" fill="#407BFF"/>
<path d="M61.0145 59.0735C60.8348 59.0525 60.6673 58.9719 60.5387 58.8445C60.4102 58.7171 60.3281 58.5503 60.3054 58.3707C60.2937 58.2871 60.3022 58.202 60.3302 58.1223C60.3582 58.0427 60.4049 57.971 60.4664 57.9132C60.5279 57.8554 60.6024 57.8132 60.6835 57.7902C60.7647 57.7671 60.8503 57.7639 60.933 57.7808L81.0769 59.5065C81.2566 59.5276 81.4242 59.6082 81.5527 59.7356C81.6812 59.863 81.7634 60.0298 81.786 60.2094C81.7978 60.293 81.7893 60.3781 81.7613 60.4577C81.7333 60.5374 81.6866 60.6091 81.6251 60.6669C81.5636 60.7247 81.4891 60.7669 81.4079 60.7899C81.3267 60.813 81.2412 60.8162 81.1585 60.7993L61.0145 59.0735Z" fill="#263238"/>
<path d="M61.4225 63.7425C61.2423 63.7201 61.0746 63.6382 60.9461 63.5097C60.8177 63.3813 60.7358 63.2136 60.7134 63.0333C60.7042 62.9531 60.7134 62.8718 60.7402 62.7957C60.767 62.7195 60.8108 62.6504 60.8682 62.5936C60.9256 62.5368 60.9952 62.4937 61.0716 62.4677C61.1481 62.4417 61.2294 62.4334 61.3096 62.4435L73.1261 63.4726C73.3063 63.4926 73.4744 63.5729 73.6031 63.7005C73.7319 63.8281 73.8137 63.9955 73.8352 64.1755C73.8457 64.256 73.8374 64.3378 73.811 64.4146C73.7847 64.4913 73.7409 64.561 73.6832 64.6181C73.6255 64.6752 73.5554 64.7181 73.4784 64.7437C73.4013 64.7692 73.3194 64.7767 73.239 64.7653L61.4225 63.7425Z" fill="#263238"/>
<path d="M61.2218 61.3892C61.0416 61.3692 60.8735 61.2889 60.7448 61.1613C60.616 61.0337 60.5342 60.8663 60.5127 60.6863C60.5022 60.6058 60.5105 60.524 60.5369 60.4472C60.5632 60.3705 60.607 60.3008 60.6647 60.2437C60.7224 60.1866 60.7925 60.1436 60.8695 60.1181C60.9466 60.0925 61.0285 60.0851 61.1089 60.0964L78.2218 61.5774C78.4008 61.5987 78.5675 61.6796 78.695 61.8071C78.8225 61.9346 78.9033 62.1012 78.9246 62.2803C78.9415 62.363 78.9383 62.4485 78.9153 62.5297C78.8922 62.6109 78.85 62.6854 78.7922 62.7469C78.7344 62.8083 78.6627 62.8551 78.5831 62.8831C78.5035 62.9111 78.4183 62.9196 78.3347 62.9078L61.2218 61.3892Z" fill="#263238"/>
<g opacity="0.5">
<path opacity="0.5" d="M61.0145 59.0735C60.8348 59.0525 60.6673 58.9719 60.5387 58.8445C60.4102 58.7171 60.3281 58.5503 60.3054 58.3707C60.2937 58.2871 60.3022 58.202 60.3302 58.1223C60.3582 58.0427 60.4049 57.971 60.4664 57.9132C60.5279 57.8554 60.6024 57.8132 60.6835 57.7902C60.7647 57.7671 60.8503 57.7639 60.933 57.7808L81.0769 59.5065C81.2566 59.5276 81.4242 59.6082 81.5527 59.7356C81.6812 59.863 81.7634 60.0298 81.786 60.2094C81.7978 60.293 81.7893 60.3781 81.7613 60.4577C81.7333 60.5374 81.6866 60.6091 81.6251 60.6669C81.5636 60.7247 81.4891 60.7669 81.4079 60.7899C81.3267 60.813 81.2412 60.8162 81.1585 60.7993L61.0145 59.0735Z" fill="white"/>
<path opacity="0.5" d="M61.4225 63.7425C61.2423 63.7201 61.0746 63.6382 60.9461 63.5097C60.8177 63.3813 60.7358 63.2136 60.7134 63.0333C60.7042 62.9531 60.7134 62.8718 60.7402 62.7957C60.767 62.7195 60.8108 62.6504 60.8682 62.5936C60.9256 62.5368 60.9952 62.4937 61.0716 62.4677C61.1481 62.4417 61.2294 62.4334 61.3096 62.4435L73.1261 63.4726C73.3063 63.4926 73.4744 63.5729 73.6031 63.7005C73.7319 63.8281 73.8137 63.9955 73.8352 64.1755C73.8457 64.256 73.8374 64.3378 73.811 64.4146C73.7847 64.4913 73.7409 64.561 73.6832 64.6181C73.6255 64.6752 73.5554 64.7181 73.4784 64.7437C73.4013 64.7692 73.3194 64.7767 73.239 64.7653L61.4225 63.7425Z" fill="white"/>
<path opacity="0.5" d="M61.2218 61.3892C61.0416 61.3692 60.8735 61.2889 60.7448 61.1613C60.616 61.0337 60.5342 60.8663 60.5127 60.6863C60.5022 60.6058 60.5105 60.524 60.5369 60.4472C60.5632 60.3705 60.607 60.3008 60.6647 60.2437C60.7224 60.1866 60.7925 60.1436 60.8695 60.1181C60.9466 60.0925 61.0285 60.0851 61.1089 60.0964L78.2218 61.5774C78.4008 61.5987 78.5675 61.6796 78.695 61.8071C78.8225 61.9346 78.9033 62.1012 78.9246 62.2803C78.9415 62.363 78.9383 62.4485 78.9153 62.5297C78.8922 62.6109 78.85 62.6854 78.7922 62.7469C78.7344 62.8083 78.6627 62.8551 78.5831 62.8831C78.5035 62.9111 78.4183 62.9196 78.3347 62.9078L61.2218 61.3892Z" fill="white"/>
</g>
<path d="M86.3671 53.4006L82.5203 53.1057C82.4019 53.0911 82.2819 53.1039 82.1693 53.1431C82.0567 53.1823 81.9546 53.2468 81.8709 53.3317C81.7873 53.4166 81.7242 53.5196 81.6866 53.6328C81.6491 53.7459 81.638 53.8661 81.6543 53.9842L81.968 57.1847C82.0017 57.449 82.1234 57.6943 82.3135 57.881C82.5037 58.0677 82.7511 58.185 83.016 58.2138L84.133 58.3017L84.679 59.0798C84.7104 59.1411 84.7571 59.1933 84.8145 59.2313C84.872 59.2693 84.9382 59.292 85.0069 59.297C85.0756 59.302 85.1444 59.2893 85.2068 59.2601C85.2692 59.2309 85.3229 59.1861 85.363 59.13L85.7584 58.4084L86.8628 58.4962C86.9796 58.5085 87.0976 58.4943 87.208 58.4545C87.3185 58.4147 87.4185 58.3505 87.5006 58.2666C87.5827 58.1827 87.6447 58.0813 87.6821 57.97C87.7194 57.8587 87.7311 57.7404 87.7163 57.624L87.3962 54.4298C87.3655 54.1675 87.2472 53.9232 87.0605 53.7364C86.8737 53.5496 86.6294 53.4313 86.3671 53.4006Z" fill="#407BFF"/>
<g opacity="0.9">
<path opacity="0.9" d="M83.4056 55.9986C83.1244 55.7533 82.9416 55.4144 82.891 55.0447C82.8661 54.9396 82.8686 54.8299 82.8985 54.7262C82.9284 54.6224 82.9845 54.5281 83.0615 54.4524C83.1385 54.3766 83.2337 54.3221 83.338 54.2939C83.4422 54.2658 83.552 54.265 83.6566 54.2917C84.1272 54.3293 84.2841 54.5615 84.6167 54.9192C84.8615 54.6305 85.0058 54.4234 85.4764 54.4674C85.7135 54.4792 85.9379 54.5779 86.1068 54.7445C86.2758 54.9112 86.3775 55.1342 86.3927 55.371C86.4024 55.534 86.3754 55.697 86.3134 55.848C86.2515 55.999 86.1563 56.1342 86.035 56.2433L84.8364 57.4294L83.4056 55.9986Z" fill="white"/>
</g>
<path d="M80.3487 79.4308L47.4282 76.5693C46.7339 76.4919 46.0863 76.1819 45.5907 75.6897C45.095 75.1975 44.7805 74.552 44.6984 73.8583L44.2842 69.1204C44.2437 68.8106 44.2752 68.4956 44.3762 68.1999C44.4772 67.9042 44.645 67.6358 44.8666 67.4154C45.0881 67.1951 45.3575 67.0288 45.6537 66.9294C45.95 66.83 46.2651 66.8003 46.5747 66.8425L79.4953 69.704C80.1895 69.7814 80.8372 70.0914 81.3328 70.5836C81.8285 71.0758 82.1429 71.7213 82.2251 72.415L82.6393 77.1529C82.6797 77.4627 82.6482 77.7777 82.5472 78.0734C82.4462 78.3691 82.2785 78.6375 82.0569 78.8579C81.8354 79.0782 81.566 79.2445 81.2698 79.3439C80.9735 79.4433 80.6583 79.473 80.3487 79.4308Z" fill="white"/>
<path d="M52.8689 72.2142C52.9166 72.5848 52.8783 72.9615 52.7571 73.315C52.6358 73.6684 52.4348 73.9893 52.1697 74.2526C51.9045 74.5159 51.5823 74.7147 51.228 74.8335C50.8737 74.9523 50.4968 74.988 50.1265 74.9377C49.2968 74.8433 48.5232 74.4716 47.9309 73.8828C47.3387 73.294 46.9626 72.5225 46.8633 71.6933C46.8167 71.3232 46.8557 70.9473 46.9775 70.5946C47.0992 70.2419 47.3003 69.9219 47.5653 69.6594C47.8303 69.3968 48.1522 69.1986 48.5059 69.0801C48.8597 68.9616 49.236 68.9261 49.6057 68.9761C50.4345 69.0702 51.2074 69.441 51.7995 70.0286C52.3916 70.6161 52.7683 71.3861 52.8689 72.2142Z" fill="#407BFF"/>
<path d="M56.716 70.8775C56.5358 70.8575 56.3677 70.7772 56.2389 70.6496C56.1102 70.522 56.0284 70.3546 56.0068 70.1746C55.9964 70.0941 56.0047 70.0123 56.031 69.9355C56.0574 69.8588 56.1011 69.7891 56.1588 69.732C56.2165 69.6749 56.2866 69.6319 56.3637 69.6064C56.4407 69.5808 56.5226 69.5734 56.603 69.5847L76.7783 71.3356C76.9609 71.3574 77.1306 71.4408 77.2595 71.572C77.3884 71.7031 77.4688 71.8743 77.4874 72.0572C77.4979 72.1377 77.4896 72.2195 77.4632 72.2963C77.4369 72.3731 77.3931 72.4427 77.3354 72.4998C77.2777 72.5569 77.2076 72.5999 77.1306 72.6255C77.0535 72.651 76.9716 72.6584 76.8913 72.6471L56.716 70.8775Z" fill="#263238"/>
<path d="M57.1235 75.5463C56.9437 75.5252 56.7762 75.4446 56.6477 75.3172C56.5191 75.1898 56.437 75.023 56.4144 74.8434C56.4042 74.7627 56.4126 74.6807 56.4389 74.6037C56.4652 74.5267 56.5089 74.4568 56.5664 74.3993C56.6239 74.3417 56.6939 74.2981 56.7708 74.2718C56.8478 74.2454 56.9298 74.237 57.0105 74.2473L73.2826 75.6592C73.4623 75.6802 73.6298 75.7609 73.7584 75.8883C73.8869 76.0157 73.9691 76.1825 73.9917 76.3621C74.0034 76.4456 73.9949 76.5308 73.9669 76.6104C73.9389 76.69 73.8922 76.7618 73.8307 76.8196C73.7692 76.8774 73.6948 76.9196 73.6136 76.9426C73.5324 76.9656 73.4468 76.9688 73.3641 76.9519L57.1235 75.5463Z" fill="#263238"/>
<path d="M56.9169 73.2118C56.7371 73.1908 56.5696 73.1102 56.4411 72.9828C56.3125 72.8554 56.2304 72.6886 56.2078 72.509C56.196 72.4254 56.2045 72.3403 56.2325 72.2606C56.2605 72.181 56.3072 72.1093 56.3687 72.0515C56.4302 71.9937 56.5047 71.9515 56.5859 71.9285C56.6671 71.9054 56.7526 71.9022 56.8353 71.9191L71.4193 73.1742C71.5986 73.1963 71.7656 73.2773 71.8939 73.4045C72.0222 73.5317 72.1047 73.6979 72.1284 73.877C72.1456 73.9631 72.1413 74.0521 72.1158 74.1361C72.0904 74.2202 72.0446 74.2966 71.9825 74.3587C71.9204 74.4207 71.844 74.4665 71.76 74.492C71.6759 74.5174 71.5869 74.5218 71.5008 74.5046L56.9169 73.2118Z" fill="#263238"/>
<g opacity="0.5">
<path opacity="0.5" d="M56.716 70.8775C56.5358 70.8575 56.3677 70.7772 56.2389 70.6496C56.1102 70.522 56.0284 70.3546 56.0068 70.1746C55.9964 70.0941 56.0047 70.0123 56.031 69.9355C56.0574 69.8588 56.1011 69.7891 56.1588 69.732C56.2165 69.6749 56.2866 69.6319 56.3637 69.6064C56.4407 69.5808 56.5226 69.5734 56.603 69.5847L76.7783 71.3356C76.9609 71.3574 77.1306 71.4408 77.2595 71.572C77.3884 71.7031 77.4688 71.8743 77.4874 72.0572C77.4979 72.1377 77.4896 72.2195 77.4632 72.2963C77.4369 72.3731 77.3931 72.4427 77.3354 72.4998C77.2777 72.5569 77.2076 72.5999 77.1306 72.6255C77.0535 72.651 76.9716 72.6584 76.8913 72.6471L56.716 70.8775Z" fill="white"/>
<path opacity="0.5" d="M57.1235 75.5463C56.9437 75.5252 56.7762 75.4446 56.6477 75.3172C56.5191 75.1898 56.437 75.023 56.4144 74.8434C56.4042 74.7627 56.4126 74.6807 56.4389 74.6037C56.4652 74.5267 56.5089 74.4568 56.5664 74.3993C56.6239 74.3417 56.6939 74.2981 56.7708 74.2718C56.8478 74.2454 56.9298 74.237 57.0105 74.2473L73.2826 75.6592C73.4623 75.6802 73.6298 75.7609 73.7584 75.8883C73.8869 76.0157 73.9691 76.1825 73.9917 76.3621C74.0034 76.4456 73.9949 76.5308 73.9669 76.6104C73.9389 76.69 73.8922 76.7618 73.8307 76.8196C73.7692 76.8774 73.6948 76.9196 73.6136 76.9426C73.5324 76.9656 73.4468 76.9688 73.3641 76.9519L57.1235 75.5463Z" fill="white"/>
<path opacity="0.5" d="M56.9169 73.2118C56.7371 73.1908 56.5696 73.1102 56.4411 72.9828C56.3125 72.8554 56.2304 72.6886 56.2078 72.509C56.196 72.4254 56.2045 72.3403 56.2325 72.2606C56.2605 72.181 56.3072 72.1093 56.3687 72.0515C56.4302 71.9937 56.5047 71.9515 56.5859 71.9285C56.6671 71.9054 56.7526 71.9022 56.8353 71.9191L71.4193 73.1742C71.5986 73.1963 71.7656 73.2773 71.8939 73.4045C72.0222 73.5317 72.1047 73.6979 72.1284 73.877C72.1456 73.9631 72.1413 74.0521 72.1158 74.1361C72.0904 74.2202 72.0446 74.2966 71.9825 74.3587C71.9204 74.4207 71.844 74.4665 71.76 74.492C71.6759 74.5174 71.5869 74.5218 71.5008 74.5046L56.9169 73.2118Z" fill="white"/>
</g>
<path d="M82.1757 66.4659L78.3288 66.1772C78.2105 66.1626 78.0905 66.1755 77.9779 66.2146C77.8653 66.2538 77.7632 66.3184 77.6795 66.4033C77.5959 66.4882 77.5328 66.5912 77.4952 66.7043C77.4576 66.8174 77.4466 66.9377 77.4629 67.0558L77.7766 70.2562C77.8095 70.5203 77.9311 70.7653 78.1215 70.9512C78.3119 71.137 78.5598 71.2527 78.8246 71.2791L79.9416 71.3669L80.4876 72.1514C80.521 72.2113 80.5688 72.262 80.6267 72.2988C80.6846 72.3357 80.7507 72.3576 80.8192 72.3626C80.8876 72.3676 80.9562 72.3555 81.0189 72.3274C81.0815 72.2992 81.1361 72.256 81.1779 72.2016L81.5669 71.4799L82.6777 71.5678C82.796 71.5823 82.9161 71.5695 83.0287 71.5303C83.1412 71.4911 83.2433 71.4266 83.327 71.3417C83.4107 71.2568 83.4737 71.1538 83.5113 71.0407C83.5489 70.9276 83.56 70.8073 83.5437 70.6892L83.2299 67.495C83.1938 67.2306 83.0706 66.9858 82.8796 66.7994C82.6886 66.6129 82.4409 66.4956 82.1757 66.4659Z" fill="#407BFF"/>
<path opacity="0.9" d="M79.2381 70.0554C79.1603 70.0475 79.0875 70.0133 79.0317 69.9586C78.9758 69.9039 78.9402 69.8318 78.9306 69.7542L78.8365 68.6748C78.8325 68.6401 78.8364 68.6049 78.8479 68.5718C78.8594 68.5388 78.8782 68.5088 78.903 68.484C78.9277 68.4593 78.9577 68.4405 78.9908 68.4289C79.0238 68.4174 79.059 68.4135 79.0938 68.4175C79.1728 68.4266 79.2466 68.4618 79.3034 68.5174C79.3603 68.5731 79.3969 68.6462 79.4075 68.725L79.5017 69.7981C79.5059 69.8335 79.5019 69.8693 79.4901 69.9029C79.4782 69.9365 79.4588 69.9669 79.4333 69.9917C79.4078 70.0166 79.377 70.0353 79.3431 70.0463C79.3093 70.0574 79.2734 70.0605 79.2381 70.0554Z" fill="white"/>
<path opacity="0.9" d="M79.7722 68.4175C79.958 68.2883 80.1136 68.1205 80.2285 67.9255C80.3433 67.7306 80.4145 67.5131 80.4374 67.2879C80.4374 67.0181 80.8202 66.9679 80.9645 67.2252C81.088 67.596 81.0655 67.9999 80.9018 68.3548L81.6297 68.4175C81.729 68.4313 81.8236 68.4687 81.9055 68.5266C81.9874 68.5845 82.0542 68.6611 82.1004 68.7501C82.1565 68.8491 82.1744 68.9652 82.1506 69.0764L81.9372 70.1056C81.9251 70.1601 81.9017 70.2114 81.8686 70.2563C81.8355 70.3012 81.7934 70.3388 81.745 70.3665C81.6965 70.3943 81.6429 70.4116 81.5874 70.4175C81.5319 70.4233 81.4758 70.4176 81.4226 70.4005L80.0295 70.0679C79.9735 70.0532 79.9232 70.0221 79.8852 69.9784C79.8471 69.9348 79.8231 69.8807 79.8162 69.8232L79.7095 68.5681C79.7103 68.5117 79.7327 68.4578 79.7722 68.4175Z" fill="white"/>
<path opacity="0.8" d="M96.9595 40.9878L100.731 84.0619H161.602L157.831 40.9878H96.9595Z" fill="white"/>
<g opacity="0.2">
<path opacity="0.2" d="M98.8299 83.8611C98.7019 83.8575 98.5795 83.8079 98.485 83.7215C98.3905 83.6351 98.3303 83.5176 98.3153 83.3904L97.1292 69.8294C97.123 69.7692 97.1296 69.7084 97.1486 69.651C97.1677 69.5937 97.1987 69.541 97.2396 69.4965C97.2806 69.4519 97.3305 69.4167 97.3861 69.3929C97.4417 69.3692 97.5018 69.3575 97.5622 69.3587C97.6903 69.3598 97.8134 69.4087 97.9074 69.4957C98.0015 69.5828 98.0596 69.7017 98.0705 69.8294L99.2566 83.3904C99.2627 83.4501 99.2563 83.5103 99.2376 83.5673C99.219 83.6242 99.1885 83.6766 99.1483 83.721C99.108 83.7654 99.0588 83.8008 99.004 83.825C98.9491 83.8491 98.8898 83.8614 98.8299 83.8611Z" fill="black"/>
</g>
<g opacity="0.2">
<path opacity="0.2" d="M97.4244 67.79C97.2961 67.7877 97.173 67.7386 97.0782 67.652C96.9835 67.5653 96.9236 67.447 96.9099 67.3194L95.2469 48.0728C95.2407 48.0132 95.2472 47.953 95.2658 47.896C95.2845 47.8391 95.315 47.7867 95.3552 47.7423C95.3955 47.6979 95.4446 47.6624 95.4995 47.6383C95.5544 47.6142 95.6137 47.6019 95.6736 47.6022C95.802 47.6045 95.9251 47.6536 96.0199 47.7403C96.1146 47.8269 96.1745 47.9452 96.1882 48.0728L97.87 67.3194C97.8764 67.3806 97.8695 67.4425 97.8497 67.5008C97.83 67.5591 97.7978 67.6125 97.7555 67.6572C97.7132 67.7019 97.6617 67.7369 97.6045 67.7599C97.5474 67.7828 97.4859 67.7931 97.4244 67.79Z" fill="black"/>
</g>
<g opacity="0.2">
<path opacity="0.2" d="M95.5292 46.14C95.4013 46.1363 95.2789 46.0868 95.1844 46.0004C95.0899 45.914 95.0297 45.7965 95.0147 45.6693L94.6695 41.6594C94.6623 41.5995 94.668 41.5389 94.6863 41.4815C94.7046 41.4241 94.735 41.3713 94.7755 41.3266C94.8159 41.282 94.8655 41.2466 94.9209 41.2228C94.9762 41.199 95.036 41.1874 95.0962 41.1887C95.2246 41.191 95.3477 41.2401 95.4425 41.3268C95.5372 41.4134 95.5971 41.5317 95.6108 41.6594L95.956 45.6693C95.9621 45.7289 95.9557 45.7892 95.937 45.8461C95.9184 45.9031 95.8879 45.9555 95.8477 45.9999C95.8074 46.0443 95.7582 46.0797 95.7034 46.1038C95.6485 46.128 95.5892 46.1403 95.5292 46.14Z" fill="black"/>
</g>
<g opacity="0.2">
<path opacity="0.2" d="M163.466 83.8613C163.338 83.8589 163.215 83.8098 163.12 83.7232C163.025 83.6365 162.965 83.5183 162.952 83.3906L161.226 63.6546C161.22 63.5944 161.226 63.5336 161.245 63.4762C161.264 63.4188 161.295 63.3661 161.336 63.3216C161.377 63.2771 161.427 63.2419 161.483 63.2181C161.538 63.1944 161.598 63.1827 161.659 63.1839C161.786 63.1877 161.908 63.2375 162.001 63.324C162.095 63.4105 162.154 63.528 162.167 63.6546L163.893 83.3906C163.899 83.4502 163.893 83.5105 163.874 83.5674C163.855 83.6244 163.825 83.6768 163.785 83.7212C163.744 83.7656 163.695 83.801 163.64 83.8251C163.585 83.8493 163.526 83.8616 163.466 83.8613Z" fill="black"/>
</g>
<g opacity="0.2">
<path opacity="0.2" d="M161.54 61.8284C161.411 61.8261 161.288 61.777 161.193 61.6903C161.099 61.6037 161.039 61.4854 161.025 61.3577L159.682 45.9831C159.675 45.9233 159.681 45.8626 159.699 45.8052C159.717 45.7478 159.748 45.695 159.788 45.6504C159.829 45.6057 159.878 45.5703 159.934 45.5465C159.989 45.5227 160.049 45.5111 160.109 45.5124C160.238 45.5134 160.362 45.562 160.457 45.6489C160.552 45.7359 160.611 45.8549 160.624 45.9831L161.966 61.3577C161.973 61.4173 161.966 61.4776 161.947 61.5346C161.929 61.5915 161.898 61.6439 161.858 61.6883C161.818 61.7327 161.769 61.7681 161.714 61.7923C161.659 61.8164 161.6 61.8287 161.54 61.8284Z" fill="black"/>
</g>
<g opacity="0.2">
<path opacity="0.2" d="M159.946 43.6612C159.817 43.6601 159.694 43.6112 159.6 43.5242C159.506 43.4372 159.448 43.3182 159.437 43.1905L159.299 41.6593C159.293 41.5992 159.3 41.5384 159.319 41.481C159.338 41.4236 159.369 41.3709 159.41 41.3264C159.45 41.2819 159.5 41.2466 159.556 41.2229C159.612 41.1991 159.672 41.1875 159.732 41.1887C159.86 41.1898 159.983 41.2386 160.077 41.3257C160.171 41.4127 160.23 41.5317 160.24 41.6593L160.379 43.1905C160.385 43.2507 160.378 43.3115 160.359 43.3689C160.34 43.4263 160.309 43.479 160.268 43.5235C160.227 43.568 160.177 43.6033 160.122 43.627C160.066 43.6507 160.006 43.6624 159.946 43.6612Z" fill="black"/>
</g>
<path d="M150.734 59.9521C150.727 59.8713 150.738 59.7901 150.765 59.7137C150.792 59.6373 150.835 59.5674 150.89 59.5083C150.946 59.4493 151.013 59.4025 151.088 59.3708C151.162 59.3392 151.242 59.3234 151.323 59.3245C151.497 59.3262 151.664 59.3908 151.793 59.5062C151.922 59.6216 152.005 59.7801 152.026 59.9521L152.773 68.4614C152.779 68.5422 152.768 68.6234 152.741 68.6998C152.714 68.7762 152.672 68.8461 152.616 68.9051C152.561 68.9642 152.494 69.011 152.419 69.0427C152.345 69.0743 152.264 69.0901 152.183 69.089C152.01 69.0873 151.843 69.0227 151.714 68.9073C151.585 68.7918 151.502 68.6334 151.48 68.4614L150.734 59.9521Z" fill="#407BFF"/>
<path d="M101.522 44.6089C101.349 44.6072 101.182 44.5426 101.053 44.4272C100.924 44.3118 100.841 44.1533 100.82 43.9814C100.813 43.9006 100.824 43.8194 100.851 43.743C100.878 43.6666 100.921 43.5967 100.976 43.5377C101.032 43.4786 101.099 43.4318 101.173 43.4001C101.248 43.3685 101.328 43.3527 101.409 43.3538H116.194C116.367 43.3555 116.534 43.4201 116.664 43.5355C116.793 43.651 116.876 43.8094 116.897 43.9814C116.903 44.0621 116.892 44.1433 116.865 44.2197C116.838 44.2961 116.796 44.366 116.74 44.4251C116.685 44.4841 116.618 44.5309 116.543 44.5626C116.468 44.5942 116.388 44.61 116.307 44.6089H101.522Z" fill="#263238"/>
<path d="M101.949 49.2776C101.775 49.2759 101.609 49.2113 101.479 49.0959C101.35 48.9805 101.267 48.822 101.246 48.6501C101.24 48.5693 101.25 48.4881 101.277 48.4117C101.304 48.3353 101.347 48.2654 101.403 48.2064C101.458 48.1473 101.525 48.1005 101.6 48.0688C101.674 48.0372 101.755 48.0214 101.836 48.0225H114.11C114.284 48.0242 114.45 48.0888 114.58 48.2042C114.709 48.3197 114.792 48.4781 114.813 48.6501C114.819 48.7308 114.808 48.812 114.781 48.8884C114.755 48.9648 114.712 49.0347 114.656 49.0938C114.601 49.1528 114.534 49.1996 114.459 49.2313C114.385 49.2629 114.304 49.2787 114.223 49.2776H101.949Z" fill="#263238"/>
<path d="M101.742 46.9558C101.568 46.9541 101.402 46.8895 101.272 46.7741C101.143 46.6587 101.06 46.5003 101.039 46.3283C101.033 46.2475 101.043 46.1663 101.07 46.0899C101.097 46.0135 101.14 45.9436 101.195 45.8846C101.251 45.8255 101.318 45.7787 101.393 45.7471C101.467 45.7154 101.548 45.6996 101.629 45.7007H111.399C111.573 45.7025 111.739 45.767 111.869 45.8825C111.998 45.9979 112.081 46.1563 112.102 46.3283C112.108 46.4091 112.098 46.4902 112.071 46.5666C112.044 46.643 112.001 46.7129 111.946 46.772C111.89 46.831 111.823 46.8778 111.748 46.9095C111.674 46.9411 111.593 46.9569 111.512 46.9558H101.742Z" fill="#263238"/>
<g opacity="0.5">
<path opacity="0.5" d="M101.522 44.6089C101.349 44.6072 101.182 44.5426 101.053 44.4272C100.924 44.3118 100.841 44.1533 100.82 43.9814C100.813 43.9006 100.824 43.8194 100.851 43.743C100.878 43.6666 100.921 43.5967 100.976 43.5377C101.032 43.4786 101.099 43.4318 101.173 43.4001C101.248 43.3685 101.328 43.3527 101.409 43.3538H116.194C116.367 43.3555 116.534 43.4201 116.664 43.5355C116.793 43.651 116.876 43.8094 116.897 43.9814C116.903 44.0621 116.892 44.1433 116.865 44.2197C116.838 44.2961 116.796 44.366 116.74 44.4251C116.685 44.4841 116.618 44.5309 116.543 44.5626C116.468 44.5942 116.388 44.61 116.307 44.6089H101.522Z" fill="white"/>
<path opacity="0.5" d="M101.949 49.2777C101.775 49.276 101.609 49.2114 101.479 49.096C101.35 48.9806 101.267 48.8222 101.246 48.6502C101.24 48.5694 101.25 48.4882 101.277 48.4118C101.304 48.3354 101.347 48.2655 101.403 48.2065C101.458 48.1474 101.525 48.1006 101.6 48.069C101.674 48.0373 101.755 48.0215 101.836 48.0226H114.11C114.284 48.0244 114.45 48.0889 114.58 48.2044C114.709 48.3198 114.792 48.4782 114.813 48.6502C114.819 48.731 114.808 48.8121 114.781 48.8885C114.755 48.9649 114.712 49.0349 114.656 49.0939C114.601 49.1529 114.534 49.1997 114.459 49.2314C114.385 49.263 114.304 49.2788 114.223 49.2777H101.949Z" fill="white"/>
<path opacity="0.5" d="M101.742 46.9558C101.568 46.9541 101.402 46.8895 101.272 46.7741C101.143 46.6587 101.06 46.5003 101.039 46.3283C101.033 46.2475 101.043 46.1663 101.07 46.0899C101.097 46.0135 101.14 45.9436 101.195 45.8846C101.251 45.8255 101.318 45.7787 101.393 45.7471C101.467 45.7154 101.548 45.6996 101.629 45.7007H111.399C111.573 45.7025 111.739 45.767 111.869 45.8825C111.998 45.9979 112.081 46.1563 112.102 46.3283C112.108 46.4091 112.098 46.4902 112.071 46.5666C112.044 46.643 112.001 46.7129 111.946 46.772C111.89 46.831 111.823 46.8778 111.748 46.9095C111.674 46.9411 111.593 46.9569 111.512 46.9558H101.742Z" fill="white"/>
</g>
<path d="M154.266 54.6494C154.313 55.0755 154.268 55.5066 154.135 55.9141C154.002 56.3215 153.783 56.6959 153.494 57.0123C153.205 57.3287 152.852 57.58 152.458 57.7493C152.064 57.9186 151.639 58.0021 151.21 57.9942C150.299 57.9789 149.426 57.6299 148.755 57.0135C148.084 56.397 147.663 55.5558 147.571 54.6494C147.523 54.2228 147.567 53.791 147.7 53.3828C147.833 52.9747 148.051 52.5995 148.34 52.2823C148.63 51.9652 148.983 51.7134 149.377 51.5437C149.772 51.374 150.198 51.2904 150.627 51.2984C151.536 51.3232 152.405 51.6762 153.074 52.2922C153.743 52.9082 154.167 53.7455 154.266 54.6494Z" fill="#407BFF"/>
<path d="M149.271 56.2433C149.17 56.2436 149.072 56.2057 148.998 56.137C148.924 56.0683 148.878 55.9741 148.87 55.8731L148.744 54.4674C148.739 54.4201 148.744 54.3723 148.758 54.327C148.773 54.2818 148.797 54.2402 148.829 54.2051C148.862 54.17 148.901 54.1422 148.945 54.1236C148.988 54.105 149.036 54.0959 149.083 54.0972C149.184 54.0996 149.28 54.1386 149.354 54.2067C149.428 54.2748 149.474 54.3675 149.485 54.4674L149.604 55.8731C149.609 55.9198 149.605 55.9671 149.59 56.0119C149.576 56.0567 149.552 56.098 149.521 56.133C149.49 56.168 149.451 56.1959 149.408 56.2149C149.365 56.234 149.319 56.2436 149.271 56.2433Z" fill="white"/>
<path d="M149.961 54.0218C150.443 53.6325 150.752 53.0687 150.821 52.453C150.828 52.3749 150.86 52.3011 150.912 52.2427C150.965 52.1842 151.035 52.1443 151.111 52.1288C151.188 52.1133 151.268 52.123 151.339 52.1565C151.41 52.1901 151.468 52.2456 151.505 52.3149C151.667 52.8053 151.637 53.3386 151.423 53.8085H152.352C152.482 53.8074 152.61 53.8427 152.72 53.9104C152.831 53.978 152.921 54.0753 152.98 54.1913C153.049 54.3222 153.073 54.472 153.049 54.618L152.773 55.9986C152.742 56.1469 152.655 56.2773 152.529 56.3618C152.404 56.4464 152.25 56.4782 152.101 56.4504L150.3 56.168C150.226 56.1559 150.159 56.1198 150.108 56.0654C150.057 56.0109 150.025 55.9411 150.018 55.8668L149.873 54.254C149.87 54.2113 149.876 54.1683 149.892 54.1282C149.907 54.0881 149.931 54.0518 149.961 54.0218Z" fill="white"/>
<path d="M155.936 73.7642C155.845 72.8566 155.425 72.014 154.754 71.3962C154.083 70.7784 153.208 70.4286 152.296 70.4131C151.867 70.4051 151.441 70.4888 151.047 70.6585C150.653 70.8281 150.299 71.0799 150.01 71.3971C149.721 71.7142 149.502 72.0894 149.37 72.4976C149.237 72.9058 149.193 73.3376 149.24 73.7642C149.34 74.6681 149.763 75.5054 150.432 76.1214C151.101 76.7374 151.971 77.0904 152.88 77.1152C153.309 77.1232 153.735 77.0395 154.129 76.8699C154.523 76.7002 154.877 76.4484 155.166 76.1312C155.455 75.8141 155.674 75.4389 155.806 75.0307C155.939 74.6226 155.983 74.1908 155.936 73.7642Z" fill="#407BFF"/>
<path d="M150.665 72.1639C150.617 72.1627 150.57 72.1717 150.526 72.1904C150.482 72.209 150.443 72.2368 150.411 72.2719C150.379 72.307 150.355 72.3485 150.34 72.3938C150.325 72.439 150.32 72.4869 150.326 72.5342L150.47 73.9399C150.48 74.0403 150.526 74.1338 150.6 74.2021C150.674 74.2705 150.771 74.309 150.872 74.3101C150.919 74.3104 150.965 74.3007 151.008 74.2817C151.051 74.2627 151.09 74.2348 151.121 74.1998C151.153 74.1648 151.176 74.1235 151.191 74.0787C151.205 74.0339 151.21 73.9866 151.204 73.9399L151.085 72.5279C151.071 72.4264 151.021 72.3335 150.944 72.2665C150.866 72.1995 150.767 72.163 150.665 72.1639Z" fill="white"/>
<path d="M151.726 74.3855C152.27 74.7687 152.67 75.3233 152.861 75.9606C152.918 76.3183 153.439 76.425 153.564 76.0986C153.69 75.7723 153.614 75.4084 153.225 74.5988H154.167C154.287 74.602 154.404 74.5674 154.504 74.4998C154.603 74.4322 154.678 74.3351 154.719 74.2223C154.766 74.0839 154.766 73.934 154.719 73.7956L154.198 72.415C154.144 72.2659 154.04 72.1398 153.904 72.0576C153.768 71.9755 153.609 71.9421 153.451 71.9632L151.7 72.2456C151.631 72.2565 151.567 72.2938 151.524 72.3498C151.481 72.4059 151.461 72.4764 151.468 72.5468L151.613 74.1533C151.613 74.1979 151.624 74.2417 151.644 74.2818C151.663 74.3219 151.691 74.3573 151.726 74.3855Z" fill="white"/>
<path d="M142.381 76.7504C148.708 70.141 147.988 59.1837 140.773 52.2766C133.558 45.3695 122.579 45.1282 116.252 51.7376C109.925 58.347 110.645 69.3043 117.86 76.2114C125.076 83.1185 136.054 83.3598 142.381 76.7504Z" fill="#407BFF"/>
<path opacity="0.6" d="M140.486 51.9761C137.035 48.7762 132.51 46.9851 127.804 46.9558C118.247 46.9558 111.174 54.7059 112.009 64.2633H129.316L140.486 51.9761Z" fill="white"/>
<path opacity="0.2" d="M116.006 51.9761L129.316 64.2131L127.804 46.9558C125.595 46.921 123.404 47.3498 121.372 48.2145C119.34 49.0793 117.512 50.3607 116.006 51.9761Z" fill="black"/>
<path d="M116.006 51.9761L129.316 64.2131L127.804 46.9558C125.595 46.921 123.404 47.3498 121.372 48.2145C119.34 49.0793 117.512 50.3607 116.006 51.9761Z" fill="#407BFF"/>
<path opacity="0.3" d="M116.006 51.9761L129.316 64.2131L127.804 46.9558C125.595 46.921 123.404 47.3498 121.372 48.2145C119.34 49.0793 117.512 50.3607 116.006 51.9761Z" fill="black"/>
<path opacity="0.3" d="M130.834 81.5457C140.392 81.5457 147.464 73.7956 146.629 64.2319H129.316L118.146 76.4501C121.587 79.6789 126.116 81.4975 130.834 81.5457Z" fill="white"/>
<path d="M142.161 78.5837C142.219 79.1194 142.163 79.6614 141.995 80.1736C141.828 80.6858 141.553 81.1566 141.19 81.5547C140.827 81.9528 140.383 82.2693 139.889 82.483C139.394 82.6967 138.86 82.8029 138.321 82.7944C137.176 82.7728 136.078 82.3324 135.235 81.5566C134.392 80.7809 133.862 79.7233 133.746 78.5837C133.683 78.0472 133.736 77.5034 133.901 76.9892C134.067 76.475 134.341 76.0025 134.705 75.6037C135.07 75.2048 135.516 74.8891 136.013 74.6778C136.51 74.4665 137.047 74.3647 137.587 74.3792C138.731 74.4007 139.828 74.8401 140.671 75.6146C141.513 76.3891 142.044 77.4452 142.161 78.5837Z" fill="#263238"/>
<path d="M136.489 79.2865C136.149 79.0234 135.924 78.6388 135.861 78.2134C135.84 78.0887 135.847 77.9608 135.883 77.8394C135.918 77.718 135.981 77.6064 136.067 77.5131C136.152 77.4198 136.258 77.3473 136.375 77.3012C136.493 77.2551 136.62 77.2365 136.746 77.247C137.298 77.247 137.505 77.5043 137.857 77.8745C138.145 77.5105 138.309 77.247 138.861 77.247C139.128 77.2367 139.389 77.3325 139.587 77.5134C139.784 77.6944 139.902 77.9459 139.915 78.2134C139.927 78.4115 139.897 78.6099 139.825 78.7951C139.754 78.9803 139.643 79.1479 139.501 79.2865L138.114 80.7988L136.489 79.2865Z" fill="#407BFF"/>
<path d="M118.422 57.4983C118.486 58.0353 118.434 58.5797 118.268 59.0947C118.103 59.6097 117.829 60.083 117.465 60.4826C117.1 60.8821 116.654 61.1985 116.157 61.4101C115.659 61.6218 115.122 61.7237 114.581 61.7091C113.436 61.6874 112.338 61.2471 111.495 60.4713C110.652 59.6955 110.123 58.6379 110.006 57.4983C109.943 56.9619 109.996 56.4181 110.162 55.9039C110.327 55.3897 110.601 54.9172 110.966 54.5183C111.33 54.1195 111.776 53.8037 112.273 53.5924C112.77 53.3812 113.307 53.2793 113.847 53.2938C114.992 53.314 116.089 53.753 116.932 54.5277C117.775 55.3025 118.305 56.3593 118.422 57.4983Z" fill="#263238"/>
<path d="M116.865 57.4985C116.9 57.8346 116.863 58.1741 116.757 58.4948C116.651 58.8155 116.478 59.1101 116.25 59.3591C116.021 59.6082 115.743 59.806 115.433 59.9396C115.122 60.0732 114.787 60.1395 114.449 60.1342C113.727 60.121 113.034 59.8437 112.502 59.3546C111.971 58.8655 111.636 58.1985 111.563 57.4797C111.526 57.1421 111.562 56.8006 111.668 56.478C111.773 56.1553 111.946 55.8588 112.176 55.6083C112.405 55.3577 112.685 55.1589 112.997 55.0249C113.309 54.891 113.646 54.825 113.985 54.8315C114.709 54.8451 115.402 55.1244 115.933 55.6162C116.465 56.108 116.796 56.778 116.865 57.4985Z" fill="#407BFF"/>
<path opacity="0.5" d="M116.865 57.4985C116.9 57.8346 116.863 58.1741 116.757 58.4948C116.651 58.8155 116.478 59.1101 116.25 59.3591C116.021 59.6082 115.743 59.806 115.433 59.9396C115.122 60.0732 114.787 60.1395 114.449 60.1342C113.727 60.121 113.034 59.8437 112.502 59.3546C111.971 58.8655 111.636 58.1985 111.563 57.4797C111.526 57.1421 111.562 56.8006 111.668 56.478C111.773 56.1553 111.946 55.8588 112.176 55.6083C112.405 55.3577 112.685 55.1589 112.997 55.0249C113.309 54.891 113.646 54.825 113.985 54.8315C114.709 54.8451 115.402 55.1244 115.933 55.6162C116.465 56.108 116.796 56.778 116.865 57.4985Z" fill="white"/>
<path d="M115.184 58.0633C114.937 58.3014 114.607 58.4345 114.264 58.4345C113.921 58.4345 113.592 58.3014 113.345 58.0633C113.325 58.0391 113.3 58.0195 113.272 58.0058C113.244 57.992 113.213 57.9845 113.182 57.9836C113.15 57.9827 113.119 57.9886 113.09 58.0008C113.061 58.013 113.035 58.0313 113.014 58.0543C112.993 58.0774 112.977 58.1047 112.967 58.1345C112.957 58.1643 112.954 58.1958 112.957 58.227C112.961 58.2582 112.971 58.2883 112.987 58.3152C113.003 58.3422 113.024 58.3654 113.05 58.3834C113.384 58.7145 113.835 58.9002 114.305 58.9002C114.775 58.9002 115.226 58.7145 115.56 58.3834C115.761 58.1825 115.41 57.8625 115.209 58.0633H115.184Z" fill="#407BFF"/>
<path d="M113.508 56.6388C113.508 56.9274 113.452 57.1596 113.326 57.1596C113.201 57.1596 113.081 56.9274 113.056 56.6388C113.031 56.3501 113.113 56.1179 113.238 56.1179C113.364 56.1179 113.483 56.3689 113.508 56.6388Z" fill="#407BFF"/>
<path d="M115.221 56.6388C115.221 56.9274 115.165 57.1596 115.046 57.1596C114.926 57.1596 114.801 56.9274 114.77 56.6388C114.738 56.3501 114.826 56.1179 114.952 56.1179C115.077 56.1179 115.196 56.3689 115.221 56.6388Z" fill="#407BFF"/>
<path d="M144.113 53.6767C144.176 54.2132 144.123 54.7569 143.958 55.2711C143.792 55.7853 143.518 56.2579 143.154 56.6567C142.789 57.0555 142.344 57.3713 141.846 57.5826C141.349 57.7939 140.812 57.8957 140.273 57.8812C139.128 57.8597 138.031 57.4203 137.188 56.6457C136.346 55.8712 135.816 54.8152 135.698 53.6767C135.64 53.1409 135.697 52.599 135.864 52.0868C136.031 51.5746 136.306 51.1038 136.669 50.7057C137.032 50.3075 137.476 49.9911 137.97 49.7774C138.465 49.5636 138.999 49.4575 139.538 49.4659C140.684 49.4876 141.781 49.9279 142.624 50.7037C143.467 51.4795 143.997 52.5371 144.113 53.6767Z" fill="#263238"/>
<path d="M142.557 53.6767C142.593 54.0137 142.558 54.3546 142.452 54.6768C142.347 54.9991 142.175 55.2952 141.946 55.5457C141.718 55.7961 141.439 55.9951 141.127 56.1294C140.816 56.2638 140.48 56.3304 140.141 56.3249C139.419 56.3119 138.727 56.0355 138.196 55.5476C137.664 55.0598 137.329 54.3944 137.254 53.6767C137.218 53.3388 137.253 52.997 137.359 52.674C137.465 52.3511 137.638 52.0542 137.867 51.8032C138.096 51.5522 138.376 51.3527 138.688 51.2181C139 51.0834 139.337 51.0166 139.676 51.0222C140.398 51.0368 141.089 51.3148 141.619 51.8038C142.15 52.2927 142.483 52.9589 142.557 53.6767Z" fill="#407BFF"/>
<path opacity="0.5" d="M142.557 53.6767C142.593 54.0137 142.558 54.3546 142.452 54.6768C142.347 54.9991 142.175 55.2952 141.946 55.5457C141.718 55.7961 141.439 55.9951 141.127 56.1294C140.816 56.2638 140.48 56.3304 140.141 56.3249C139.419 56.3119 138.727 56.0355 138.196 55.5476C137.664 55.0598 137.329 54.3944 137.254 53.6767C137.218 53.3388 137.253 52.997 137.359 52.674C137.465 52.3511 137.638 52.0542 137.867 51.8032C138.096 51.5522 138.376 51.3527 138.688 51.2181C139 51.0834 139.337 51.0166 139.676 51.0222C140.398 51.0368 141.089 51.3148 141.619 51.8038C142.15 52.2927 142.483 52.9589 142.557 53.6767Z" fill="white"/>
<path d="M139.099 55.0008C139.346 54.7593 139.677 54.6241 140.022 54.6241C140.367 54.6241 140.698 54.7593 140.944 55.0008C140.966 55.0202 140.991 55.0351 141.018 55.0448C141.045 55.0545 141.074 55.0588 141.103 55.0573C141.132 55.0558 141.16 55.0487 141.186 55.0363C141.212 55.0239 141.236 55.0065 141.255 54.9851C141.274 54.9637 141.289 54.9387 141.299 54.9115C141.309 54.8842 141.313 54.8554 141.312 54.8266C141.31 54.7977 141.303 54.7694 141.291 54.7433C141.278 54.7173 141.261 54.6939 141.239 54.6745C140.903 54.3479 140.453 54.1652 139.984 54.1652C139.516 54.1652 139.065 54.3479 138.729 54.6745C138.535 54.8753 138.886 55.1953 139.081 55.0008H139.099Z" fill="#407BFF"/>
<path d="M139.175 52.8107C139.175 53.0993 139.118 53.3315 138.993 53.3315C138.867 53.3315 138.748 53.0993 138.723 52.8107C138.698 52.522 138.779 52.2898 138.905 52.2898C139.03 52.2898 139.175 52.522 139.175 52.8107Z" fill="#407BFF"/>
<path d="M140.913 52.8107C140.913 53.0993 140.856 53.3315 140.737 53.3315C140.618 53.3315 140.492 53.0993 140.467 52.8107C140.442 52.522 140.517 52.2898 140.643 52.2898C140.768 52.2898 140.888 52.522 140.913 52.8107Z" fill="#407BFF"/>
<path d="M117.735 73.4718C119.273 71.8645 119.1 69.2016 117.348 67.5239C115.595 65.8463 112.927 65.7892 111.388 67.3965C109.85 69.0038 110.023 71.6668 111.776 73.3444C113.528 75.0221 116.196 75.0791 117.735 73.4718Z" fill="#263238"/>
<path d="M116.561 72.3227C117.529 71.3113 117.419 69.6346 116.315 68.5776C115.211 67.5207 113.531 67.4839 112.563 68.4953C111.594 69.5067 111.705 71.1835 112.809 72.2404C113.913 73.2973 115.593 73.3342 116.561 72.3227Z" fill="#407BFF"/>
<path opacity="0.5" d="M116.561 72.3227C117.529 71.3113 117.419 69.6346 116.315 68.5776C115.211 67.5207 113.531 67.4839 112.563 68.4953C111.594 69.5067 111.705 71.1835 112.809 72.2404C113.913 73.2973 115.593 73.3342 116.561 72.3227Z" fill="white"/>
<path d="M113.326 71.2541C113.678 71.5972 114.15 71.7892 114.641 71.7892C115.132 71.7892 115.604 71.5972 115.956 71.2541L115.918 70.8148H113.282L113.326 71.2541Z" fill="#407BFF"/>
<path d="M114.217 69.6224C114.062 69.4736 113.855 69.3905 113.64 69.3905C113.424 69.3905 113.218 69.4736 113.062 69.6224C112.905 69.7604 113.169 70.0052 113.326 69.8609C113.414 69.7727 113.534 69.7232 113.658 69.7232C113.783 69.7232 113.903 69.7727 113.991 69.8609C114.173 70.0052 114.393 69.7604 114.217 69.6224Z" fill="#407BFF"/>
<path d="M115.956 69.6224C115.8 69.4736 115.594 69.3905 115.378 69.3905C115.163 69.3905 114.956 69.4736 114.801 69.6224C114.644 69.7604 114.908 70.0052 115.065 69.8609C115.155 69.7738 115.275 69.7252 115.4 69.7252C115.526 69.7252 115.646 69.7738 115.736 69.8609C115.912 70.0052 116.138 69.7604 115.956 69.6224Z" fill="#407BFF"/>
<path d="M162.318 100.472H142.858V103.635H181.778V102.336L162.318 100.472Z" fill="#407BFF"/>
<path opacity="0.6" d="M162.318 100.472H142.858V103.635H181.778V102.336L162.318 100.472Z" fill="white"/>
<path opacity="0.6" d="M162.318 103.635H142.858V100.472L162.318 102.336V103.635Z" fill="white"/>
<g opacity="0.5">
<path opacity="0.5" d="M224.669 66.1019L221.99 35.4969L218.363 35.817L202.844 80.5917L220.17 79.0605L224.669 66.1019Z" fill="white"/>
</g>
<g opacity="0.5">
<path opacity="0.5" d="M142.256 84.0619L157.191 40.9878H140.392L125.457 84.0619H142.256Z" fill="white"/>
</g>
<path opacity="0.5" d="M81.485 82.5559L93.7408 47.2068L93.1823 40.8247L79.5647 39.6387L65.1753 81.1377L81.485 82.5559Z" fill="white"/>
<path d="M69.042 106.076H194.085V108.743C194.085 108.885 194.057 109.025 194.003 109.156C193.949 109.287 193.869 109.406 193.769 109.506C193.669 109.606 193.55 109.686 193.419 109.74C193.288 109.794 193.147 109.822 193.006 109.822H70.1465C69.8602 109.822 69.5857 109.709 69.3832 109.506C69.1808 109.304 69.0671 109.029 69.0671 108.743V106.076H69.042Z" fill="#407BFF"/>
<path opacity="0.2" d="M69.042 106.076H194.085V108.743C194.085 108.885 194.057 109.025 194.003 109.156C193.949 109.287 193.869 109.406 193.769 109.506C193.669 109.606 193.55 109.686 193.419 109.74C193.288 109.794 193.147 109.822 193.006 109.822H70.1465C69.8602 109.822 69.5857 109.709 69.3832 109.506C69.1808 109.304 69.0671 109.029 69.0671 108.743V106.076H69.042Z" fill="black"/>
<path opacity="0.3" d="M69.042 106.076H125.646V109.841H70.1465C70.0047 109.841 69.8644 109.813 69.7334 109.759C69.6024 109.705 69.4835 109.625 69.3832 109.525C69.283 109.425 69.2035 109.306 69.1493 109.175C69.095 109.044 69.0671 108.904 69.0671 108.762V106.095L69.042 106.076Z" fill="white"/>
<path d="M196.632 103.641H66.4936C65.7901 103.641 65.2197 104.211 65.2197 104.915V105.505C65.2197 106.208 65.7901 106.779 66.4936 106.779H196.632C197.336 106.779 197.906 106.208 197.906 105.505V104.915C197.906 104.211 197.336 103.641 196.632 103.641Z" fill="#407BFF"/>
<path opacity="0.4" d="M66.4939 103.641H125.646V106.779H66.4939C66.1611 106.779 65.8418 106.647 65.6065 106.411C65.3711 106.176 65.2388 105.857 65.2388 105.524V104.934C65.2338 104.766 65.2625 104.599 65.3234 104.442C65.3842 104.285 65.4758 104.142 65.5929 104.022C65.7099 103.901 65.85 103.806 66.0048 103.74C66.1595 103.675 66.3259 103.641 66.4939 103.641Z" fill="white"/>
<path d="M119.044 185.271H75.6434C74.3918 185.271 73.1915 184.774 72.3065 183.889C71.4215 183.004 70.9243 181.804 70.9243 180.552V114.554C70.9243 113.302 71.4215 112.102 72.3065 111.217C73.1915 110.332 74.3918 109.835 75.6434 109.835H119.044C120.295 109.835 121.496 110.332 122.381 111.217C123.266 112.102 123.763 113.302 123.763 114.554V180.552C123.763 181.804 123.266 183.004 122.381 183.889C121.496 184.774 120.295 185.271 119.044 185.271ZM75.6434 112.345C75.058 112.347 74.4972 112.58 74.0833 112.994C73.6694 113.408 73.4361 113.969 73.4345 114.554V180.552C73.4361 181.137 73.6694 181.698 74.0833 182.112C74.4972 182.526 75.058 182.759 75.6434 182.761H119.044C119.629 182.759 120.19 182.526 120.604 182.112C121.018 181.698 121.251 181.137 121.253 180.552V114.554C121.251 113.969 121.018 113.408 120.604 112.994C120.19 112.58 119.629 112.347 119.044 112.345H75.6434Z" fill="#263238"/>
<g opacity="0.4">
<path opacity="0.2" d="M119.044 185.271H75.6434C74.3918 185.271 73.1915 184.774 72.3065 183.889C71.4215 183.004 70.9243 181.804 70.9243 180.552V114.554C70.9243 113.302 71.4215 112.102 72.3065 111.217C73.1915 110.332 74.3918 109.835 75.6434 109.835H119.044C120.295 109.835 121.496 110.332 122.381 111.217C123.266 112.102 123.763 113.302 123.763 114.554V180.552C123.763 181.804 123.266 183.004 122.381 183.889C121.496 184.774 120.295 185.271 119.044 185.271ZM75.6434 112.345C75.058 112.347 74.4972 112.58 74.0833 112.994C73.6694 113.408 73.4361 113.969 73.4345 114.554V180.552C73.4361 181.137 73.6694 181.698 74.0833 182.112C74.4972 182.526 75.058 182.759 75.6434 182.761H119.044C119.629 182.759 120.19 182.526 120.604 182.112C121.018 181.698 121.251 181.137 121.253 180.552V114.554C121.251 113.969 121.018 113.408 120.604 112.994C120.19 112.58 119.629 112.347 119.044 112.345H75.6434Z" fill="white"/>
</g>
<path opacity="0.2" d="M119.044 109.835H75.6432C74.4747 109.837 73.3483 110.271 72.4815 111.055C71.6146 111.838 71.0687 112.915 70.9492 114.077H73.4907C73.5992 113.587 73.8715 113.148 74.2628 112.833C74.6541 112.518 75.141 112.346 75.6432 112.345H119.044C119.546 112.346 120.033 112.518 120.424 112.833C120.815 113.148 121.088 113.587 121.196 114.077H123.738C123.618 112.915 123.072 111.838 122.205 111.055C121.338 110.271 120.212 109.837 119.044 109.835Z" fill="black"/>
<path d="M186.604 185.271H143.203C141.952 185.271 140.752 184.774 139.867 183.889C138.982 183.004 138.484 181.804 138.484 180.552V114.554C138.484 113.302 138.982 112.102 139.867 111.217C140.752 110.332 141.952 109.835 143.203 109.835H186.604C187.855 109.837 189.054 110.334 189.939 111.219C190.824 112.104 191.321 113.303 191.323 114.554V180.552C191.321 181.803 190.824 183.002 189.939 183.887C189.054 184.772 187.855 185.269 186.604 185.271ZM143.203 112.345C142.618 112.347 142.057 112.58 141.643 112.994C141.229 113.408 140.996 113.969 140.995 114.554V180.552C140.996 181.137 141.229 181.698 141.643 182.112C142.057 182.526 142.618 182.759 143.203 182.761H186.604C187.189 182.759 187.75 182.526 188.164 182.112C188.578 181.698 188.811 181.137 188.813 180.552V114.554C188.811 113.969 188.578 113.408 188.164 112.994C187.75 112.58 187.189 112.347 186.604 112.345H143.203Z" fill="#263238"/>
<path opacity="0.1" d="M186.604 185.271H143.203C141.952 185.271 140.752 184.774 139.867 183.889C138.982 183.004 138.484 181.804 138.484 180.552V114.554C138.484 113.302 138.982 112.102 139.867 111.217C140.752 110.332 141.952 109.835 143.203 109.835H186.604C187.855 109.837 189.054 110.334 189.939 111.219C190.824 112.104 191.321 113.303 191.323 114.554V180.552C191.321 181.803 190.824 183.002 189.939 183.887C189.054 184.772 187.855 185.269 186.604 185.271ZM143.203 112.345C142.618 112.347 142.057 112.58 141.643 112.994C141.229 113.408 140.996 113.969 140.995 114.554V180.552C140.996 181.137 141.229 181.698 141.643 182.112C142.057 182.526 142.618 182.759 143.203 182.761H186.604C187.189 182.759 187.75 182.526 188.164 182.112C188.578 181.698 188.811 181.137 188.813 180.552V114.554C188.811 113.969 188.578 113.408 188.164 112.994C187.75 112.58 187.189 112.347 186.604 112.345H143.203Z" fill="white"/>
<path opacity="0.2" d="M186.605 109.835H143.204C142.036 109.837 140.909 110.271 140.042 111.055C139.176 111.838 138.63 112.915 138.51 114.077H141.02C141.13 113.586 141.404 113.147 141.796 112.832C142.188 112.518 142.676 112.346 143.179 112.345H186.58C187.089 112.343 187.583 112.517 187.978 112.837C188.374 113.157 188.647 113.604 188.751 114.102H191.292C191.179 112.936 190.636 111.854 189.77 111.066C188.904 110.277 187.776 109.839 186.605 109.835Z" fill="black"/>
<path d="M108.557 125.341H60.0168C57.0986 125.341 54.7329 127.707 54.7329 130.625V180.232C54.7329 183.15 57.0986 185.516 60.0168 185.516H108.557C111.475 185.516 113.841 183.15 113.841 180.232V130.625C113.841 127.707 111.475 125.341 108.557 125.341Z" fill="#407BFF"/>
<path opacity="0.4" d="M108.557 125.341H60.0168C57.0986 125.341 54.7329 127.707 54.7329 130.625V180.232C54.7329 183.15 57.0986 185.516 60.0168 185.516H108.557C111.475 185.516 113.841 183.15 113.841 180.232V130.625C113.841 127.707 111.475 125.341 108.557 125.341Z" fill="white"/>
<path opacity="0.1" d="M54.7329 180.188V180.226C54.7321 180.92 54.8682 181.608 55.1333 182.25C55.3985 182.892 55.7876 183.475 56.2783 183.966C56.769 184.458 57.3518 184.847 57.9933 185.113C58.6348 185.379 59.3224 185.516 60.0168 185.516H108.557C109.251 185.516 109.939 185.379 110.58 185.113C111.222 184.847 111.804 184.458 112.295 183.966C112.786 183.475 113.175 182.892 113.44 182.25C113.705 181.608 113.841 180.92 113.841 180.226V180.188H54.7329Z" fill="black"/>
<path d="M108.557 125.341H95.0964C92.1782 125.341 89.8125 127.707 89.8125 130.625V180.232C89.8125 183.15 92.1782 185.516 95.0964 185.516H108.557C111.475 185.516 113.841 183.15 113.841 180.232V130.625C113.841 127.707 111.475 125.341 108.557 125.341Z" fill="#407BFF"/>
<path opacity="0.3" d="M108.557 128.165H95.0962C93.7376 128.165 92.6362 129.267 92.6362 130.625V180.232C92.6362 181.591 93.7376 182.692 95.0962 182.692H108.557C109.915 182.692 111.017 181.591 111.017 180.232V130.625C111.017 129.267 109.915 128.165 108.557 128.165Z" fill="white"/>
<path opacity="0.7" d="M109.203 132.088H94.4561V136.01H109.203V132.088Z" fill="white"/>
<path opacity="0.7" d="M109.203 136.794H94.4561V140.716H109.203V136.794Z" fill="white"/>
<path d="M101.829 158.494C103.524 158.494 104.898 157.12 104.898 155.426C104.898 153.731 103.524 152.357 101.829 152.357C100.135 152.357 98.7607 153.731 98.7607 155.426C98.7607 157.12 100.135 158.494 101.829 158.494Z" fill="#407BFF"/>
<g opacity="0.9">
<path opacity="0.9" d="M102.539 154.817C102.68 154.958 102.777 155.138 102.817 155.334C102.856 155.53 102.837 155.734 102.76 155.919C102.684 156.104 102.555 156.262 102.388 156.373C102.222 156.484 102.026 156.544 101.826 156.544C101.626 156.544 101.431 156.484 101.264 156.373C101.098 156.262 100.969 156.104 100.892 155.919C100.816 155.734 100.796 155.53 100.836 155.334C100.875 155.138 100.972 154.958 101.114 154.817C101.403 154.503 100.932 154.026 100.637 154.346C100.402 154.581 100.242 154.881 100.177 155.207C100.112 155.534 100.145 155.872 100.273 156.179C100.4 156.486 100.615 156.749 100.892 156.934C101.169 157.119 101.494 157.217 101.826 157.217C102.159 157.217 102.484 157.119 102.761 156.934C103.037 156.749 103.253 156.486 103.38 156.179C103.507 155.872 103.541 155.534 103.476 155.207C103.411 154.881 103.251 154.581 103.016 154.346C102.721 154.026 102.25 154.503 102.539 154.817Z" fill="white"/>
<path opacity="0.9" d="M101.522 153.637V155.168C101.534 155.249 101.574 155.324 101.635 155.378C101.697 155.431 101.776 155.461 101.858 155.461C101.94 155.461 102.019 155.431 102.081 155.378C102.143 155.324 102.183 155.249 102.194 155.168V153.637C102.183 153.556 102.143 153.482 102.081 153.428C102.019 153.374 101.94 153.344 101.858 153.344C101.776 153.344 101.697 153.374 101.635 153.428C101.574 153.482 101.534 153.556 101.522 153.637Z" fill="white"/>
</g>
<path d="M96.0121 165.454C96.532 165.454 96.9534 165.032 96.9534 164.512C96.9534 163.992 96.532 163.571 96.0121 163.571C95.4922 163.571 95.0708 163.992 95.0708 164.512C95.0708 165.032 95.4922 165.454 96.0121 165.454Z" fill="#407BFF"/>
<path d="M99.8905 165.454C100.41 165.454 100.832 165.032 100.832 164.512C100.832 163.992 100.41 163.571 99.8905 163.571C99.3707 163.571 98.9492 163.992 98.9492 164.512C98.9492 165.032 99.3707 165.454 99.8905 165.454Z" fill="#407BFF"/>
<path d="M103.769 165.454C104.289 165.454 104.71 165.032 104.71 164.512C104.71 163.992 104.289 163.571 103.769 163.571C103.249 163.571 102.828 163.992 102.828 164.512C102.828 165.032 103.249 165.454 103.769 165.454Z" fill="#407BFF"/>
<path d="M107.647 165.454C108.167 165.454 108.589 165.032 108.589 164.512C108.589 163.992 108.167 163.571 107.647 163.571C107.127 163.571 106.706 163.992 106.706 164.512C106.706 165.032 107.127 165.454 107.647 165.454Z" fill="#407BFF"/>
<path d="M97.9516 168.798C98.4714 168.798 98.8929 168.377 98.8929 167.857C98.8929 167.337 98.4714 166.916 97.9516 166.916C97.4317 166.916 97.0103 167.337 97.0103 167.857C97.0103 168.377 97.4317 168.798 97.9516 168.798Z" fill="#407BFF"/>
<path d="M101.829 168.798C102.349 168.798 102.771 168.377 102.771 167.857C102.771 167.337 102.349 166.916 101.829 166.916C101.31 166.916 100.888 167.337 100.888 167.857C100.888 168.377 101.31 168.798 101.829 168.798Z" fill="#407BFF"/>
<path d="M105.708 168.798C106.228 168.798 106.649 168.377 106.649 167.857C106.649 167.337 106.228 166.916 105.708 166.916C105.188 166.916 104.767 167.337 104.767 167.857C104.767 168.377 105.188 168.798 105.708 168.798Z" fill="#407BFF"/>
<path d="M96.0121 172.507C96.532 172.507 96.9534 172.086 96.9534 171.566C96.9534 171.046 96.532 170.625 96.0121 170.625C95.4922 170.625 95.0708 171.046 95.0708 171.566C95.0708 172.086 95.4922 172.507 96.0121 172.507Z" fill="#407BFF"/>
<path d="M99.8905 172.507C100.41 172.507 100.832 172.086 100.832 171.566C100.832 171.046 100.41 170.625 99.8905 170.625C99.3707 170.625 98.9492 171.046 98.9492 171.566C98.9492 172.086 99.3707 172.507 99.8905 172.507Z" fill="#407BFF"/>
<path d="M103.769 172.507C104.289 172.507 104.71 172.086 104.71 171.566C104.71 171.046 104.289 170.625 103.769 170.625C103.249 170.625 102.828 171.046 102.828 171.566C102.828 172.086 103.249 172.507 103.769 172.507Z" fill="#407BFF"/>
<path d="M107.647 172.507C108.167 172.507 108.589 172.086 108.589 171.566C108.589 171.046 108.167 170.625 107.647 170.625C107.127 170.625 106.706 171.046 106.706 171.566C106.706 172.086 107.127 172.507 107.647 172.507Z" fill="#407BFF"/>
<path d="M97.9516 175.852C98.4714 175.852 98.8929 175.431 98.8929 174.911C98.8929 174.391 98.4714 173.969 97.9516 173.969C97.4317 173.969 97.0103 174.391 97.0103 174.911C97.0103 175.431 97.4317 175.852 97.9516 175.852Z" fill="#407BFF"/>
<path d="M101.829 175.852C102.349 175.852 102.771 175.431 102.771 174.911C102.771 174.391 102.349 173.969 101.829 173.969C101.31 173.969 100.888 174.391 100.888 174.911C100.888 175.431 101.31 175.852 101.829 175.852Z" fill="#407BFF"/>
<path d="M105.708 175.852C106.228 175.852 106.649 175.431 106.649 174.911C106.649 174.391 106.228 173.969 105.708 173.969C105.188 173.969 104.767 174.391 104.767 174.911C104.767 175.431 105.188 175.852 105.708 175.852Z" fill="#407BFF"/>
<path d="M96.0121 179.561C96.532 179.561 96.9534 179.139 96.9534 178.619C96.9534 178.099 96.532 177.678 96.0121 177.678C95.4922 177.678 95.0708 178.099 95.0708 178.619C95.0708 179.139 95.4922 179.561 96.0121 179.561Z" fill="#407BFF"/>
<path d="M99.8905 179.561C100.41 179.561 100.832 179.139 100.832 178.619C100.832 178.099 100.41 177.678 99.8905 177.678C99.3707 177.678 98.9492 178.099 98.9492 178.619C98.9492 179.139 99.3707 179.561 99.8905 179.561Z" fill="#407BFF"/>
<path d="M103.769 179.561C104.289 179.561 104.71 179.139 104.71 178.619C104.71 178.099 104.289 177.678 103.769 177.678C103.249 177.678 102.828 178.099 102.828 178.619C102.828 179.139 103.249 179.561 103.769 179.561Z" fill="#407BFF"/>
<path d="M107.647 179.561C108.167 179.561 108.589 179.139 108.589 178.619C108.589 178.099 108.167 177.678 107.647 177.678C107.127 177.678 106.706 178.099 106.706 178.619C106.706 179.139 107.127 179.561 107.647 179.561Z" fill="#407BFF"/>
<path d="M181.928 97.5543L178.163 95.8474L172.848 98.0626V100.711C172.848 100.711 181.1 100.435 181.093 100.447C181.087 100.46 190.4 103.547 193.839 103.07C197.278 102.593 208.203 87.338 208.203 87.338L202.7 82.5248L192.232 97.4413L181.928 97.5543Z" fill="#FCC1BB"/>
<path opacity="0.1" d="M181.928 97.5543L178.163 95.8474L172.848 98.0626V100.711C172.848 100.711 181.1 100.435 181.093 100.447L181.721 100.654L184.382 97.5167L181.928 97.5543Z" fill="black"/>
<path d="M198.997 86.8612C198.997 86.8612 202.8 80.0963 205.235 77.9501C206.709 76.6449 208.768 76.2432 210.155 76.124C210.362 76.1067 210.57 76.1324 210.767 76.1995C210.963 76.2666 211.144 76.3737 211.297 76.5139C211.45 76.6542 211.573 76.8247 211.657 77.0146C211.741 77.2045 211.785 77.4098 211.786 77.6176C211.786 80.2971 211.109 86.1144 205.605 92.1074L198.997 86.8612Z" fill="#263238"/>
<path d="M198.997 85.5872C201.945 87.0922 204.464 89.3177 206.321 92.0571L204.84 93.1992C202.913 90.8478 200.617 88.824 198.043 87.2062L198.997 85.5872Z" fill="#407BFF"/>
<path d="M189.691 61.1509L187.808 64.1003C188.153 64.3209 188.546 64.457 188.954 64.4973C189.362 64.5376 189.773 64.4812 190.155 64.3325L189.691 61.1509Z" fill="#EB827E"/>
<path d="M189.377 63.0208C188.928 63.051 188.481 62.9458 188.094 62.7187C187.706 62.4916 187.396 62.1532 187.203 61.7474C187.01 61.3416 186.943 60.8872 187.012 60.4432C187.081 59.9991 187.281 59.586 187.588 59.2575C187.894 58.9289 188.293 58.7001 188.731 58.6008C189.169 58.5014 189.627 58.5361 190.045 58.7003C190.463 58.8645 190.822 59.1507 191.076 59.5217C191.329 59.8926 191.465 60.3312 191.466 60.7805C191.485 61.3544 191.276 61.9122 190.884 62.3321C190.492 62.7519 189.95 62.9996 189.377 63.0208ZM189.377 59.0171C189.02 58.9855 188.662 59.0625 188.35 59.238C188.037 59.4135 187.786 59.6793 187.627 60.0005C187.469 60.3217 187.411 60.6834 187.462 61.0379C187.513 61.3925 187.669 61.7234 187.912 61.9872C188.154 62.2511 188.47 62.4355 188.819 62.5163C189.168 62.5971 189.533 62.5705 189.867 62.44C190.201 62.3095 190.487 62.0811 190.688 61.785C190.89 61.4888 190.997 61.1387 190.996 60.7805C191.013 60.3325 190.852 59.8959 190.549 59.5657C190.246 59.2355 189.825 59.0383 189.377 59.0171Z" fill="#407BFF"/>
<path d="M188.561 60.7618C188.561 61.1446 188.749 61.4583 189 61.4583C189.251 61.4583 189.47 61.1446 189.464 60.7743C189.458 60.4041 189.276 60.0778 189.025 60.0778C188.774 60.0778 188.567 60.3601 188.561 60.7618Z" fill="#1A2E35"/>
<path d="M203.258 58.3583C203.428 63.4225 203.61 65.5687 201.313 68.3989C197.673 71.3985 191.592 71.7499 189.911 66.8363C188.404 62.4436 188.379 54.9131 193.124 52.403C194.166 51.8504 195.333 51.5742 196.513 51.6009C197.692 51.6276 198.845 51.9562 199.862 52.5554C200.878 53.1546 201.724 54.0044 202.319 55.0236C202.914 56.0428 203.237 57.1974 203.258 58.3771V58.3583Z" fill="#FCC1BB"/>
<path opacity="0.2" d="M196.148 70.5513L196.11 70.3003C196.092 70.1711 196.046 70.0473 195.976 69.9372C195.906 69.8271 195.813 69.7333 195.704 69.662C195.595 69.5907 195.471 69.5435 195.342 69.5238C195.213 69.504 195.081 69.512 194.956 69.5473L192.897 70.1058C193.927 70.5213 195.044 70.6744 196.148 70.5513Z" fill="#1A2E35"/>
<path d="M189.93 59.0109C189.897 59.0166 189.863 59.0131 189.832 59.001C189.801 58.9888 189.774 58.9684 189.754 58.9419C189.598 58.7485 189.398 58.5949 189.171 58.4934C188.944 58.392 188.697 58.3457 188.449 58.3583C188.421 58.3654 188.392 58.3664 188.363 58.3613C188.335 58.3562 188.308 58.3451 188.285 58.3288C188.261 58.3124 188.241 58.2912 188.227 58.2666C188.212 58.2419 188.203 58.2144 188.199 58.1858C188.196 58.1573 188.199 58.1284 188.208 58.1011C188.217 58.0739 188.232 58.0488 188.251 58.0277C188.271 58.0065 188.294 57.9898 188.321 57.9787C188.347 57.9675 188.376 57.9621 188.405 57.9629C188.718 57.9418 189.033 57.9964 189.321 58.1219C189.609 58.2475 189.863 58.4405 190.061 58.6846C190.097 58.7229 190.117 58.7734 190.117 58.8258C190.117 58.8782 190.097 58.9287 190.061 58.967C190.043 58.9829 190.023 58.995 190 59.0025C189.977 59.0101 189.953 59.0129 189.93 59.0109Z" fill="#1A2E35"/>
<path d="M195.96 69.2711L197.071 76.789L203.352 75.49L201.338 67.7902L195.96 69.2711Z" fill="#FCC1BB"/>
<path d="M189.666 54.2542C191.806 58.3207 193.287 54.5994 192.891 57.8814C192.496 61.1634 193.676 62.2239 193.676 62.2239L197.981 68.6436C198.093 68.8054 198.26 68.9224 198.45 68.974C198.641 69.0256 198.843 69.0086 199.022 68.926C199.36 68.739 199.732 68.623 200.117 68.5852C200.501 68.5475 200.889 68.5887 201.256 68.7064C201.391 68.7655 201.539 68.7856 201.684 68.7645C201.83 68.7434 201.966 68.682 202.078 68.5872C204.274 66.5117 205.682 63.7397 206.063 60.7429C207.45 51.8947 200.648 50.5392 200.648 50.5392C196.882 49.7548 197.836 45.7511 195.59 45.7511C193.876 45.7511 194.378 48.5687 194.378 48.5687C194.378 48.5687 192.546 47.1944 191.479 47.6651C190.105 48.2926 191.322 51.0852 191.322 51.0852C191.322 51.0852 187.57 50.2631 189.666 54.2542Z" fill="#1A2E35"/>
<path d="M194.09 59.8392H187.814L188.116 59.2117H194.09V59.8392Z" fill="#407BFF"/>
<path d="M192.803 60.6174C192.618 61.6328 192.844 62.6799 193.431 63.5291C194.228 64.6524 195.495 64.1567 196.004 62.9581C196.462 61.8724 196.593 59.9961 195.439 59.2995C195.186 59.153 194.901 59.0715 194.609 59.0625C194.317 59.0535 194.027 59.1171 193.766 59.2478C193.504 59.3785 193.28 59.572 193.112 59.8111C192.944 60.0502 192.838 60.3272 192.803 60.6174Z" fill="#FFC3BD"/>
<path d="M194.265 74.0405C194.265 74.0405 198.3 70.2251 202.53 70.5389C205.404 70.7459 206.295 74.3543 206.295 74.3543L194.265 74.0405Z" fill="#263238"/>
<path opacity="0.2" d="M194.265 74.0405C194.265 74.0405 198.3 70.2251 202.53 70.5389C205.404 70.7459 206.295 74.3543 206.295 74.3543L194.265 74.0405Z" fill="white"/>
<path d="M196.99 120.165L188.154 77.0151C188.063 76.6177 188.06 76.2055 188.143 75.8065C188.226 75.4074 188.394 75.0311 188.636 74.7029C188.878 74.3748 189.187 74.1026 189.544 73.9049C189.9 73.7073 190.295 73.5887 190.702 73.5574C196.243 73.093 207.419 72.6475 211.159 76.0676C219.869 84.0624 220.572 120.78 220.572 120.78L196.99 120.165Z" fill="#263238"/>
<path opacity="0.5" d="M190.632 76.3436C189.769 76.6867 188.976 77.1843 188.292 77.812L191.197 92.0069C193.795 86.1896 193.613 76.3185 193.613 76.3185L190.632 76.3436Z" fill="black"/>
<path d="M164.313 97.0145L160.548 95.1319L155.295 97.5668V100.466C155.295 100.466 163.453 100.165 163.453 100.184C163.453 100.202 172.653 103.579 176.054 103.058C179.456 102.537 190.281 85.8005 190.281 85.8005L184.84 80.5166L174.485 96.889L164.313 97.0145Z" fill="#FCC1BB"/>
<path d="M181.219 85.2859C181.219 85.2859 184.984 77.8558 187.387 75.5026C189.791 73.1493 193.769 73.4693 193.769 73.4693C193.769 73.4693 195.181 82.0791 187.758 91.0404L181.219 85.2859Z" fill="#263238"/>
<path d="M181.219 83.8866C184.211 85.589 186.713 88.0333 188.486 90.984L187.024 92.2391C187.024 92.2391 184.037 88.0597 180.303 85.6625L181.219 83.8866Z" fill="#263238"/>
<path opacity="0.2" d="M181.219 83.8866C184.211 85.589 186.713 88.0333 188.486 90.984L187.024 92.2391C187.024 92.2391 184.037 88.0597 180.303 85.6625L181.219 83.8866Z" fill="white"/>
<path d="M194.448 167.267L196.6 177.685L200.842 177.057L199.819 166.916L194.448 167.267Z" fill="#FCC1BB"/>
<path opacity="0.2" d="M200.491 173.599L199.819 166.916L194.448 167.267L195.791 173.781L200.491 173.599Z" fill="black"/>
<path d="M219.618 119.851C219.618 119.851 221.777 131.146 214.403 131.146C207.03 131.146 197.221 133.556 197.221 133.556C197.221 133.556 200.045 136.236 200.673 170.417L194.554 170.681C194.554 170.681 184.388 132.1 186.396 127.858C189.22 121.89 203.842 119.851 203.842 119.851H219.618Z" fill="#407BFF"/>
<path opacity="0.2" d="M219.618 119.851C219.618 119.851 221.777 131.146 214.403 131.146C207.03 131.146 197.221 133.556 197.221 133.556C197.221 133.556 200.045 136.236 200.673 170.417L194.554 170.681C194.554 170.681 184.388 132.1 186.396 127.858C189.22 121.89 203.842 119.851 203.842 119.851H219.618Z" fill="black"/>
<path d="M193.255 168.849L201.577 168.641L201.307 172.093L194.328 172.388L193.255 168.849Z" fill="#407BFF"/>
<path opacity="0.5" d="M193.255 168.849L201.577 168.641L201.307 172.093L194.328 172.388L193.255 168.849Z" fill="white"/>
<path d="M194.692 178.343C194.238 178.447 193.76 178.383 193.349 178.161C193.297 178.098 193.265 178.021 193.257 177.939C193.249 177.857 193.266 177.775 193.306 177.703C193.334 177.638 193.376 177.58 193.428 177.532C193.479 177.483 193.54 177.445 193.607 177.421C194.316 177.132 195.966 177.822 196.035 177.854C196.056 177.861 196.074 177.875 196.087 177.893C196.099 177.911 196.106 177.932 196.106 177.954C196.106 177.976 196.099 177.998 196.087 178.016C196.074 178.034 196.056 178.047 196.035 178.055C195.597 178.191 195.148 178.288 194.692 178.343ZM193.883 177.565C193.816 177.572 193.75 177.589 193.688 177.615C193.645 177.627 193.605 177.649 193.572 177.68C193.54 177.71 193.515 177.749 193.5 177.791C193.437 177.929 193.5 177.986 193.5 178.017C193.739 178.28 194.856 178.155 195.665 177.954C195.1 177.717 194.496 177.585 193.883 177.565Z" fill="#407BFF"/>
<path d="M196.01 178.055H195.966C195.407 177.885 194.234 177.057 194.265 176.549C194.265 176.423 194.334 176.273 194.623 176.203C194.73 176.178 194.841 176.174 194.949 176.194C195.057 176.213 195.159 176.255 195.25 176.316C195.71 176.752 196.021 177.32 196.142 177.942C196.145 177.96 196.143 177.979 196.136 177.997C196.13 178.015 196.119 178.03 196.104 178.042C196.091 178.053 196.075 178.06 196.059 178.062C196.042 178.064 196.025 178.062 196.01 178.055ZM194.717 176.398H194.654C194.466 176.436 194.466 176.511 194.46 176.542C194.46 176.844 195.257 177.509 195.84 177.766C195.724 177.282 195.464 176.844 195.094 176.511C194.983 176.436 194.849 176.405 194.717 176.423V176.398Z" fill="#407BFF"/>
<path d="M196.405 177.383L201.225 176.806C201.313 176.793 201.403 176.811 201.479 176.858C201.555 176.906 201.612 176.978 201.639 177.063L202.982 180.879C203.015 180.959 203.03 181.045 203.028 181.131C203.026 181.217 203.006 181.303 202.97 181.381C202.933 181.459 202.881 181.529 202.816 181.586C202.751 181.644 202.675 181.687 202.593 181.713L202.461 181.745C200.717 181.927 199.16 182.014 196.995 182.278C194.441 182.586 195.113 182.811 192.126 183.213C190.318 183.458 189.741 181.437 190.5 181.249C193.958 180.383 194.197 179.278 195.395 177.86C195.663 177.584 196.022 177.415 196.405 177.383Z" fill="#407BFF"/>
<path d="M182.035 170.06L186.038 179.774L189.935 178.996L187.256 168.604L182.035 170.06Z" fill="#FCC1BB"/>
<path opacity="0.2" d="M189.038 175.532L187.256 168.604L182.035 170.06L184.639 176.373L189.038 175.532Z" fill="black"/>
<path d="M219.617 119.851C219.617 119.851 224.173 131.629 209.119 131.146C203.352 130.958 178.369 136.794 178.369 136.794C178.369 136.794 182.869 139.147 188.517 170.681L182.128 172.131C182.128 172.131 164.005 136.323 166.007 132.088C168.831 126.113 198.551 119.851 198.551 119.851H219.617Z" fill="#407BFF"/>
<path d="M181.351 171.723L188.931 170.104L189.716 173.242L182.449 174.917L181.351 171.723Z" fill="#407BFF"/>
<path opacity="0.5" d="M181.351 171.723L188.931 170.104L189.716 173.242L182.449 174.917L181.351 171.723Z" fill="white"/>
<path d="M183.629 180.22C183.177 180.326 182.7 180.261 182.293 180.038C182.238 179.976 182.204 179.898 182.195 179.816C182.186 179.735 182.203 179.652 182.242 179.579C182.303 179.45 182.41 179.349 182.544 179.297C183.259 179.002 184.903 179.699 184.978 179.73C184.997 179.739 185.013 179.754 185.024 179.771C185.035 179.789 185.041 179.81 185.041 179.831C185.039 179.852 185.03 179.873 185.017 179.891C185.004 179.908 184.986 179.922 184.966 179.931C184.529 180.065 184.082 180.161 183.629 180.22ZM182.826 179.441C182.757 179.449 182.689 179.465 182.625 179.492C182.584 179.505 182.546 179.527 182.513 179.557C182.481 179.586 182.455 179.621 182.437 179.661C182.374 179.799 182.437 179.862 182.437 179.893C182.682 180.157 183.792 180.031 184.602 179.831C184.04 179.59 183.437 179.458 182.826 179.441Z" fill="#407BFF"/>
<path d="M184.947 179.931C184.94 179.934 184.932 179.936 184.925 179.936C184.917 179.936 184.91 179.934 184.903 179.931C184.351 179.762 183.171 178.927 183.208 178.419C183.208 178.299 183.277 178.143 183.56 178.08C183.666 178.054 183.777 178.05 183.885 178.069C183.992 178.087 184.095 178.127 184.187 178.186C184.65 178.622 184.962 179.194 185.078 179.818C185.083 179.836 185.083 179.855 185.077 179.873C185.071 179.89 185.061 179.906 185.047 179.918C185.033 179.929 185.016 179.935 184.998 179.937C184.981 179.94 184.963 179.937 184.947 179.931ZM183.654 178.268H183.591C183.409 178.306 183.403 178.381 183.397 178.412C183.397 178.714 184.194 179.379 184.784 179.636C184.669 179.141 184.406 178.692 184.03 178.35C183.917 178.281 183.786 178.251 183.654 178.262V178.268Z" fill="#407BFF"/>
<path d="M185.342 179.26L190.168 178.676C190.256 178.666 190.345 178.687 190.42 178.733C190.495 178.78 190.552 178.85 190.582 178.933L191.925 182.755C191.958 182.835 191.973 182.922 191.971 183.009C191.968 183.095 191.948 183.181 191.911 183.259C191.873 183.338 191.82 183.407 191.755 183.464C191.689 183.521 191.613 183.564 191.53 183.59H191.398C189.654 183.765 188.097 183.859 185.932 184.117C183.378 184.424 184.05 184.656 181.069 185.058C179.262 185.297 178.684 183.282 179.437 183.088C182.895 182.228 183.133 181.123 184.338 179.699C184.607 179.433 184.965 179.277 185.342 179.26Z" fill="#407BFF"/>
<path d="M233.405 173.172C229.571 172.545 223.879 171.654 221.344 171.466C220.792 171.422 220.089 171.39 219.323 171.371V151.698H214.51V171.371C213.738 171.371 213.042 171.422 212.483 171.466C209.973 171.654 204.262 172.545 200.428 173.172C199.359 173.349 198.387 173.9 197.686 174.726C196.985 175.553 196.6 176.601 196.6 177.684V178.682H201.3L201.928 177.283C201.928 177.283 210.713 175.764 213.675 175.545C215.855 175.425 218.04 175.425 220.221 175.545C223.183 175.764 231.962 177.283 231.962 177.283L232.589 178.682H237.264V177.684C237.263 176.596 236.874 175.544 236.166 174.717C235.459 173.89 234.48 173.343 233.405 173.172Z" fill="#263238"/>
<path opacity="0.1" d="M233.405 173.172C229.571 172.545 223.879 171.654 221.344 171.466C220.792 171.422 220.089 171.39 219.323 171.371V151.698H214.51V171.371C213.738 171.371 213.042 171.422 212.483 171.466C209.973 171.654 204.262 172.545 200.428 173.172C199.359 173.349 198.387 173.9 197.686 174.726C196.985 175.553 196.6 176.601 196.6 177.684V178.682H201.3L201.928 177.283C201.928 177.283 210.713 175.764 213.675 175.545C215.855 175.425 218.04 175.425 220.221 175.545C223.183 175.764 231.962 177.283 231.962 177.283L232.589 178.682H237.264V177.684C237.263 176.596 236.874 175.544 236.166 174.717C235.459 173.89 234.48 173.343 233.405 173.172Z" fill="white"/>
<path d="M213.047 135.652H220.754V152.282C220.754 152.876 220.518 153.446 220.097 153.866C219.677 154.286 219.107 154.522 218.513 154.522H215.256C214.662 154.522 214.092 154.286 213.672 153.866C213.252 153.446 213.016 152.876 213.016 152.282V135.652H213.047Z" fill="#263238"/>
<path opacity="0.2" d="M220.785 135.652H213.048V140.246H220.785V135.652Z" fill="black"/>
<path d="M235.275 185.272C237.095 185.272 238.57 183.796 238.57 181.977C238.57 180.157 237.095 178.682 235.275 178.682C233.455 178.682 231.98 180.157 231.98 181.977C231.98 183.796 233.455 185.272 235.275 185.272Z" fill="#263238"/>
<path d="M198.558 185.272C200.377 185.272 201.852 183.796 201.852 181.977C201.852 180.157 200.377 178.682 198.558 178.682C196.738 178.682 195.263 180.157 195.263 181.977C195.263 183.796 196.738 185.272 198.558 185.272Z" fill="#263238"/>
<path d="M243.069 131.736C238.452 130.563 233.718 129.911 228.956 129.791C224.054 129.672 205.737 129.791 201.344 129.791C196.039 129.783 190.754 130.437 185.612 131.736C182.38 132.558 183.378 137.227 186.296 137.284C186.553 137.284 242.002 137.284 242.209 137.284C245.259 137.415 246.37 132.577 243.069 131.736Z" fill="#407BFF"/>
<path opacity="0.3" d="M243.069 131.736C238.452 130.563 233.718 129.911 228.956 129.791C224.054 129.672 205.737 129.791 201.344 129.791C196.039 129.783 190.754 130.437 185.612 131.736C182.38 132.558 183.378 137.227 186.296 137.284C186.553 137.284 242.002 137.284 242.209 137.284C245.259 137.415 246.37 132.577 243.069 131.736Z" fill="black"/>
<path d="M187.105 137.183C196.455 134.805 206.252 134.805 215.602 137.183C219.128 138.081 220.622 132.634 217.101 131.736C206.767 129.113 195.94 129.113 185.605 131.736C182.085 132.634 183.578 138.081 187.105 137.183Z" fill="#407BFF"/>
<g opacity="0.4">
<path opacity="0.4" d="M187.105 137.183C196.455 134.805 206.252 134.805 215.602 137.183C219.128 138.081 220.622 132.634 217.101 131.736C206.767 129.113 195.94 129.113 185.605 131.736C182.085 132.634 183.578 138.081 187.105 137.183Z" fill="white"/>
</g>
<path d="M228.234 91.3229C227.917 91.3159 227.605 91.3958 227.33 91.554C227.056 91.7123 226.83 91.9427 226.678 92.2203C219.223 104.724 216.548 119.503 219.147 133.826C219.187 134.188 219.356 134.523 219.621 134.772C219.887 135.02 220.233 135.166 220.597 135.181C221.733 135.263 241.864 135.181 242.561 135.181C242.859 135.188 243.155 135.129 243.428 135.008C243.7 134.888 243.943 134.708 244.139 134.483C244.334 134.257 244.477 133.992 244.558 133.705C244.639 133.418 244.655 133.116 244.606 132.822C242.258 119.478 244.803 105.734 251.773 94.1154C252.633 92.6847 251.365 91.3417 250.085 91.3166C249.514 91.3104 229.539 91.348 228.234 91.3229Z" fill="#407BFF"/>
<path opacity="0.2" d="M228.234 91.3229C227.917 91.3159 227.605 91.3958 227.33 91.554C227.056 91.7123 226.83 91.9427 226.678 92.2203C219.223 104.724 216.548 119.503 219.147 133.826C219.187 134.188 219.356 134.523 219.621 134.772C219.887 135.02 220.233 135.166 220.597 135.181C221.733 135.263 241.864 135.181 242.561 135.181C242.859 135.188 243.155 135.129 243.428 135.008C243.7 134.888 243.943 134.708 244.139 134.483C244.334 134.257 244.477 133.992 244.558 133.705C244.639 133.418 244.655 133.116 244.606 132.822C242.258 119.478 244.803 105.734 251.773 94.1154C252.633 92.6847 251.365 91.3417 250.085 91.3166C249.514 91.3104 229.539 91.348 228.234 91.3229Z" fill="black"/>
<path d="M222.762 132.828C220.41 119.484 222.955 105.739 229.928 94.1217C231.183 92.0383 227.927 90.1431 226.678 92.2391C219.223 104.742 216.548 119.522 219.147 133.845C219.58 136.229 223.207 135.219 222.781 132.847L222.762 132.828Z" fill="#407BFF"/>
<g opacity="0.4">
<path opacity="0.4" d="M222.762 132.828C220.41 119.484 222.955 105.739 229.928 94.1217C231.183 92.0383 227.927 90.1431 226.678 92.2391C219.223 104.742 216.548 119.522 219.147 133.845C219.58 136.229 223.207 135.219 222.781 132.847L222.762 132.828Z" fill="white"/>
</g>
<path d="M198.106 116.456L217.503 134.184C218.84 135.439 220.848 133.418 219.499 132.188L200.102 114.447C198.765 113.224 196.763 115.213 198.106 116.443V116.456Z" fill="#263238"/>
<g opacity="0.5">
<path opacity="0.5" d="M198.106 116.456L217.503 134.184C218.84 135.439 220.848 133.418 219.499 132.188L200.102 114.447C198.765 113.224 196.763 115.213 198.106 116.443V116.456Z" fill="white"/>
</g>
<path opacity="0.2" d="M200.102 114.46C198.765 113.236 196.763 115.226 198.106 116.456L201.815 119.851H205.994L200.102 114.46Z" fill="black"/>
<path d="M187.99 117.341H214.611C217.033 117.341 217.033 113.575 214.611 113.575H187.99C185.568 113.575 185.562 117.341 187.99 117.341Z" fill="#407BFF"/>
<g opacity="0.3">
<path opacity="0.3" d="M187.99 117.341H214.611C217.033 117.341 217.033 113.575 214.611 113.575H187.99C185.568 113.575 185.562 117.341 187.99 117.341Z" fill="white"/>
</g>
</svg>
