<svg xmlns="http://www.w3.org/2000/svg" viewBox="0 0 383.14 225.68"><defs><style>.cls-1{fill:#1da8fe;}.cls-2{fill:#60b9fd;}.cls-3{fill:#fefefe;}</style></defs><g id="Calque_2" data-name="Calque 2"><g id="Calque_1-2" data-name="Calque 1"><path class="cls-1" d="M0,150.16c1.45-2,1.22-4.45,1.77-6.68C9.59,111.76,37.89,91,71.38,92.65c4.13.2,8-.05,11-3.28A11.5,11.5,0,0,0,85.51,82C87,61.68,94.34,43.81,108,28.67,134.53-.67,176.24-7.36,208.76,8c-.36,1.08-1.36,1.39-2.22,1.86a90.23,90.23,0,0,0-23.19,17.78A84.29,84.29,0,0,0,160,80.29c-.21,2.75-.53,5.62-2.61,8-2.74,3.11-5.82,4.66-10.11,4.36-13.14-.92-25.8,1.12-37.44,7.54-4.9,2.7-10.32,5-13.39,10.15-14.34,5.88-19,13.08-18.06,27.81-1.35.14-1.38,1.31-1.63,2.21a65.21,65.21,0,0,0-1.58,30.1c3,15.25,10,28.09,21.84,38.3a66.39,66.39,0,0,0,29.12,14.93c1.32.3,3.45-.3,4,1.92-21.43,0-42.86.3-64.28-.15-32-.67-57.9-22.57-64.68-54-.24-1.12.14-2.57-1.18-3.34Z"/><path class="cls-2" d="M130.14,225.59c-.53-2.22-2.66-1.62-4-1.92A66.39,66.39,0,0,1,97,208.74c-11.83-10.21-18.88-23.05-21.84-38.3a65.21,65.21,0,0,1,1.58-30.1c.25-.9.28-2.07,1.63-2.21,3,9,8.81,15.24,18.25,17.49,2.77.67,5.67.73,8.5,1.13a12.19,12.19,0,0,1,10,7.46c1.93,4.38.86,8.48-2.28,11.74-4.06,4.22-9.19,5.37-14.77,3.44-4.84-1.67-8-4.89-8.49-10.27-.43-4.66-2.95-6.84-7-6.2-3.31.52-5.11,3.7-4.42,7.8,2.41,14.39,14.79,23.15,29.53,20.39,9.4-1.77,16.15-7.34,18.73-16.75,2.39-8.73.16-16.56-6.63-22.76-5-4.58-11-6.5-17.77-6.64-6.23-.13-11.65-4.67-12.35-10a11.59,11.59,0,0,1,8.34-13c9-2.9,17.72,2.73,18,11.2a5.55,5.55,0,0,0,5.79,5.59c3.08-.14,5.23-2.57,5.32-6a20.46,20.46,0,0,0-5.59-14.63c-6.82-7.58-15.48-9.39-25.16-7.84,3.07-5.2,8.49-7.45,13.39-10.15,11.64-6.42,24.3-8.46,37.44-7.54,4.29.3,7.37-1.25,10.11-4.36,2.08-2.36,2.4-5.23,2.61-8a84.29,84.29,0,0,1,23.33-52.65A90.23,90.23,0,0,1,206.54,9.86c.86-.47,1.86-.78,2.22-1.86,20.44,9.25,34.88,24.42,44,44.78,3.55,7.94,7.79,10.19,16.29,8.1,33.28-8.19,64.08,18.41,63.31,49.6-.21,8.63,2.83,12.26,11.14,14.22,24.73,5.82,41.11,28,39.57,53.52-1.46,24-21.43,44.27-46.14,46.9a94.11,94.11,0,0,1-10.06.49H144.34ZM283.2,109.83c-10.58,0-20.1,6.19-23.47,15.38s-.74,18.8,6.83,25.33c5.31,4.57,11.73,5.63,18.39,6.2,6.28.54,11.31,5.76,11.33,11.44,0,5.87-5.49,11.49-11.76,12-7.93.62-13.26-3.52-14.75-11.48-.82-4.37-3-6.22-6.69-5.78-3.23.38-5.05,3.1-4.78,7.23a15.09,15.09,0,0,0,.32,2.21c3.43,16,21.18,24,36.08,16.41,13.13-6.74,16.95-22.62,8-34.24-5-6.55-12-9.27-20.21-9.55-5.52-.2-9.95-2.64-12-8-1.61-4.26-.93-8.46,2.47-11.72A13.54,13.54,0,0,1,287.48,122c5.28,1.74,8.09,5.53,8.83,11,.53,3.83,2.76,6,5.89,5.85,3.3-.19,5.32-2.82,5.27-6.86C307.35,120.09,296.16,109.9,283.2,109.83Zm-94.77,53.48c0-7,0-14,0-20.93a18.21,18.21,0,0,0-.42-3.68,5,5,0,0,0-4.41-4c-2.47-.42-4.9.62-5.6,2.79-1.22,3.84-3,2.59-5.41,1.5a26.46,26.46,0,0,0-22.52,47.88,25.37,25.37,0,0,0,23.35.06c1.32-.64,2.92-2.16,3.85.53,1.1,3.15,3.28,4.68,6.6,3.92,3.51-.8,4.59-3.43,4.58-6.75C188.42,177.51,188.43,170.41,188.43,163.31Zm60.66-.06c0-7.59,0-15.19,0-22.78,0-3.16-1.74-5.27-4.81-5.76a5,5,0,0,0-6.07,3.76c-.69,2.63-1.77,2.09-3.4,1.21a26.39,26.39,0,0,0-37.33,15.14c-3.49,10.52,0,22.57,8.43,28.91q13.86,10.38,29.43,2.7c.89-.44,2.17-2.16,2.61.41.59,3.44,2.76,4.92,6,4.66s5.1-2.67,5.12-6.59C249.12,177.69,249.09,170.47,249.09,163.25Z"/><path class="cls-3" d="M96.47,110.32c9.68-1.55,18.34.26,25.16,7.84a20.46,20.46,0,0,1,5.59,14.63c-.09,3.44-2.24,5.87-5.32,6a5.55,5.55,0,0,1-5.79-5.59c-.33-8.47-9.07-14.1-18-11.2a11.59,11.59,0,0,0-8.34,13c.7,5.31,6.12,9.85,12.35,10,6.75.14,12.78,2.06,17.77,6.64,6.79,6.2,9,14,6.63,22.76-2.58,9.41-9.33,15-18.73,16.75-14.74,2.76-27.12-6-29.53-20.39-.69-4.1,1.11-7.28,4.42-7.8,4.05-.64,6.57,1.54,7,6.2.5,5.38,3.65,8.6,8.49,10.27,5.58,1.93,10.71.78,14.77-3.44,3.14-3.26,4.21-7.36,2.28-11.74a12.19,12.19,0,0,0-10-7.46c-2.83-.4-5.73-.46-8.5-1.13-9.44-2.25-15.24-8.45-18.25-17.49C77.46,123.4,82.13,116.2,96.47,110.32Z"/><path class="cls-3" d="M283.2,109.83c13,.07,24.15,10.26,24.27,22.11,0,4-2,6.67-5.27,6.86-3.13.19-5.36-2-5.89-5.85-.74-5.43-3.55-9.22-8.83-11A13.54,13.54,0,0,0,273,125.24c-3.4,3.26-4.08,7.46-2.47,11.72,2,5.36,6.45,7.8,12,8,8.17.28,15.19,3,20.21,9.55,8.93,11.62,5.11,27.5-8,34.24-14.9,7.64-32.65-.44-36.08-16.41a15.09,15.09,0,0,1-.32-2.21c-.27-4.13,1.55-6.85,4.78-7.23,3.73-.44,5.87,1.41,6.69,5.78,1.49,8,6.82,12.1,14.75,11.48,6.27-.49,11.78-6.11,11.76-12,0-5.68-5-10.9-11.33-11.44-6.66-.57-13.08-1.63-18.39-6.2-7.57-6.53-10.19-16.13-6.83-25.33S272.62,109.78,283.2,109.83Z"/><path class="cls-3" d="M188.43,163.31c0,7.1,0,14.2,0,21.3,0,3.32-1.07,5.95-4.58,6.75-3.32.76-5.5-.77-6.6-3.92-.93-2.69-2.53-1.17-3.85-.53a25.37,25.37,0,0,1-23.35-.06A26.46,26.46,0,0,1,172.58,139c2.42,1.09,4.19,2.34,5.41-1.5.7-2.17,3.13-3.21,5.6-2.79a5,5,0,0,1,4.41,4,18.21,18.21,0,0,1,.42,3.68C188.45,149.35,188.43,156.33,188.43,163.31Zm-11.64-.16a15,15,0,0,0-15-15.24c-8-.07-15.18,7.14-15.15,15.33a15,15,0,0,0,15,14.83C170.46,178.12,176.78,171.88,176.79,163.15Z"/><path class="cls-3" d="M249.09,163.25c0,7.22,0,14.44,0,21.66,0,3.92-1.8,6.33-5.12,6.59s-5.44-1.22-6-4.66c-.44-2.57-1.72-.85-2.61-.41q-15.56,7.71-29.43-2.7c-8.44-6.34-11.92-18.39-8.43-28.91a26.39,26.39,0,0,1,37.33-15.14c1.63.88,2.71,1.42,3.4-1.21a5,5,0,0,1,6.07-3.76c3.07.49,4.78,2.6,4.81,5.76C249.13,148.06,249.09,155.66,249.09,163.25Zm-26.61,14.82a15,15,0,0,0,15.34-15,15.26,15.26,0,1,0-30.52.2A15.06,15.06,0,0,0,222.48,178.07Z"/><path class="cls-2" d="M176.79,163.15c0,8.73-6.33,15-15.12,14.92a15,15,0,0,1-15-14.83c0-8.19,7.1-15.4,15.15-15.33A15,15,0,0,1,176.79,163.15Z"/><path class="cls-2" d="M222.48,178.07a15.06,15.06,0,0,1-15.18-14.76,15.26,15.26,0,1,1,30.52-.2A15,15,0,0,1,222.48,178.07Z"/></g></g></svg>