<svg width="555" height="539" viewBox="0 0 555 539" fill="none" xmlns="http://www.w3.org/2000/svg">
<g clip-path="url(#clip0_139373_148)">
<path d="M182.671 267.279C181.867 267.279 181.458 266.311 181.003 265.047C180.608 263.94 180.198 262.798 179.022 262.798C177.788 262.798 177.305 263.979 176.839 265.121C176.471 266.021 176.014 267.141 175.348 267.141C174.348 267.141 173.954 266.603 173.572 266.084C173.291 265.699 172.971 265.265 172.355 265.265C171.566 265.265 171.224 265.74 170.997 266.054C170.685 266.487 170.391 266.894 168.891 266.894C167.199 266.894 166.356 267.122 165.797 267.272C165.347 267.395 165.265 267.412 164.993 267.321C164.791 267.251 164.474 266.995 164.199 266.768C163.604 266.281 162.904 265.724 162.063 265.766C161.563 265.786 161.104 266.001 160.698 266.404C159.091 268.003 158.012 267.512 157.656 267.347C157.018 267.058 156.637 266.558 156.271 266.076C155.751 265.398 155.166 264.631 153.891 264.631C152.867 264.631 152.325 265.406 151.802 266.156C151.31 266.862 150.801 267.59 149.974 267.656C149.192 267.718 148.546 267.541 147.924 267.367C147.017 267.118 145.987 266.834 144.864 267.529C144.126 267.986 143.83 269.286 143.43 271.373C143.395 271.562 143.355 271.768 143.315 271.975C143.213 271.366 143.098 270.518 142.974 269.34L142.948 269.099C142.948 269.099 142.299 262.797 141.611 256.494C140.179 243.384 140.179 243.384 139.37 243.384C138.561 243.384 138.562 243.384 137.083 256.493C136.372 262.785 135.7 269.077 135.701 269.077C135.682 269.203 135.666 269.328 135.651 269.452C135.463 268.97 135.101 268.544 134.33 268.544L134.227 268.551C133.582 268.635 132.861 268.676 132.63 268.644C132.391 268.499 132.052 268.052 131.775 267.69C131.159 266.883 130.461 265.969 129.395 265.969C128.02 265.969 127.205 267.129 126.418 268.252C126.277 268.451 126.135 268.654 125.988 268.853C125.001 270.191 123.932 270.968 122.898 271.1C122.178 271.19 121.455 270.979 120.746 270.465C120.006 269.929 119.677 268.681 119.387 267.579C119.015 266.162 118.63 264.696 117.166 264.696C115.939 264.696 115.535 265.841 115.146 266.949C114.556 268.621 114.013 269.805 112.405 269.805C111.019 269.805 110.619 268.959 110.163 267.668C109.86 266.807 109.514 265.831 108.373 265.831C107.015 265.831 106.55 267.255 106.101 268.631C105.97 269.031 105.79 269.582 105.622 269.905C105.355 269.402 105.045 268.357 104.83 267.616C104.218 265.541 103.777 264.041 102.597 264.041C101.581 264.041 101.15 265.004 100.732 265.934C100.541 266.361 100.093 267.36 99.8081 267.36C99.4202 267.36 99.2885 267.229 98.9964 266.537C98.7487 265.954 98.3729 265.074 97.1212 265.074C95.8863 265.074 95.6877 266.544 95.4123 268.579C95.279 269.569 94.9655 271.887 94.4649 272.034C94.2057 271.937 93.7438 270.894 93.7433 269.129C93.7433 269.06 93.4783 262.147 93.0787 255.326C92.2387 241 91.7284 241 90.8849 241C89.9294 241 89.8243 241.499 89.2793 248.631C88.9843 252.491 88.6171 257.294 87.978 261.093C86.9555 267.105 85.7939 267.279 85.6663 267.279C84.8621 267.279 84.4539 266.311 83.9996 265.047C83.6041 263.939 83.1942 262.798 82.0182 262.798C80.785 262.798 80.3018 263.979 79.8353 265.121C79.4485 266.068 79.0103 267.141 78.3434 267.141C77.3447 267.141 76.9503 266.604 76.5681 266.084C76.287 265.699 75.9677 265.265 75.3517 265.265C74.5613 265.265 74.219 265.74 73.9927 266.054C73.6809 266.487 73.3876 266.894 71.8871 266.894C70.1955 266.894 69.352 267.122 68.7943 267.272C68.3429 267.395 68.2609 267.412 67.989 267.321C67.7863 267.251 67.4694 266.995 67.1957 266.768C66.5999 266.282 65.9059 265.724 65.0549 265.766C64.5556 265.786 64.0971 266.001 63.6913 266.404C62.0834 268.004 61.0038 267.512 60.6487 267.347C60.0102 267.058 59.6303 266.558 59.2631 266.076C58.7435 265.398 58.1587 264.631 56.8828 264.631C55.8592 264.631 55.3176 265.406 54.794 266.156C54.3015 266.862 53.7923 267.59 52.9656 267.656C52.1787 267.718 51.5378 267.541 50.916 267.367C50.009 267.118 49.6113 268.186 50.4952 268.431C51.1776 268.619 52.0262 268.853 53.0932 268.768C54.6058 268.648 55.3534 267.577 55.9538 266.717C56.2564 266.284 56.6311 265.748 56.8834 265.748C57.3764 265.748 57.6166 266.003 58.131 266.677C58.5472 267.221 59.0645 267.9 60.0056 268.329C60.9028 268.738 62.7075 269.126 64.7212 267.125C64.8084 267.039 64.9764 266.892 65.1219 266.884C65.4164 266.875 65.8984 267.275 66.257 267.568C66.6576 267.895 67.0352 268.204 67.4797 268.356C68.2141 268.608 68.6973 268.477 69.2089 268.34C69.7204 268.202 70.4086 268.016 71.8883 268.016C74.1474 268.016 74.7715 267.149 75.1444 266.633C75.1831 266.58 75.2293 266.514 75.2709 266.465C75.3217 266.529 75.3777 266.606 75.425 266.67C75.8626 267.264 76.5941 268.259 78.3446 268.259C79.9721 268.259 80.6014 266.718 81.1071 265.481C81.2988 265.012 81.7462 263.916 81.9962 263.912C82.2312 264.016 82.5343 264.861 82.7144 265.366C83.1982 266.714 83.7998 268.397 85.6675 268.397C88.5894 268.397 89.5888 262.046 90.6089 248.701C90.7117 247.352 90.8162 245.988 90.9236 244.833C91.5211 250.183 92.1065 261.531 92.394 269.145C92.394 270.084 92.5424 273.149 94.4441 273.149C96.1386 273.149 96.4302 270.989 96.7396 268.703C96.8551 267.85 97.0237 266.597 97.2592 266.21C97.4099 266.258 97.515 266.417 97.7251 266.91C97.9913 267.536 98.3931 268.477 99.8035 268.477C101.022 268.477 101.536 267.334 101.988 266.325C102.137 265.993 102.367 265.479 102.555 265.248C102.884 265.704 103.277 267.044 103.524 267.882C104.117 269.897 104.509 271.228 105.598 271.228C106.641 271.228 106.99 270.16 107.394 268.923C107.553 268.435 108.039 266.949 108.371 266.949C108.536 267.028 108.747 267.627 108.873 267.985C109.287 269.156 109.913 270.923 112.403 270.923C115.139 270.923 115.916 268.721 116.431 267.263C116.584 266.829 116.943 265.812 117.166 265.812C117.55 265.812 117.867 267.016 118.077 267.816C118.411 269.088 118.79 270.529 119.866 271.309C120.873 272.036 121.989 272.345 123.1 272.204C124.555 272.018 125.911 271.087 127.128 269.438C127.28 269.231 127.428 269.021 127.573 268.814C128.17 267.964 128.786 267.086 129.392 267.086C129.722 267.086 130.296 267.839 130.64 268.29C131.065 268.846 131.466 269.372 131.982 269.627C132.116 269.693 132.518 269.891 134.315 269.67C134.421 269.809 134.488 270.251 134.524 270.471C134.614 271.052 134.717 271.71 135.436 271.859C135.575 271.891 135.721 271.896 135.864 271.875C136.006 271.854 136.141 271.807 136.259 271.738C136.782 271.427 136.85 270.796 136.943 269.923C136.968 269.695 136.994 269.454 137.032 269.195C137.73 262.65 138.712 253.78 139.358 248.528C139.987 253.78 140.934 262.65 141.61 269.196L141.636 269.437C142.091 273.743 142.433 274.431 143.3 274.431C144.205 274.431 144.378 273.528 144.757 271.548C144.947 270.555 145.301 268.707 145.665 268.426C146.204 268.092 146.618 268.185 147.502 268.429C148.185 268.618 149.037 268.85 150.1 268.766C151.613 268.646 152.361 267.576 152.962 266.716C153.263 266.282 153.638 265.746 153.89 265.746C154.383 265.746 154.624 266.001 155.139 266.675C155.555 267.22 156.073 267.899 157.013 268.328C157.909 268.737 159.714 269.124 161.729 267.124C161.816 267.037 161.984 266.891 162.128 266.883H162.141C162.43 266.883 162.91 267.277 163.264 267.567C163.664 267.894 164.042 268.203 164.487 268.355C165.221 268.607 165.703 268.476 166.215 268.339C166.728 268.201 167.415 268.015 168.895 268.015C171.154 268.015 171.779 267.148 172.151 266.632C172.19 266.579 172.236 266.514 172.277 266.464C172.329 266.528 172.385 266.605 172.432 266.669C172.869 267.263 173.601 268.258 175.352 268.258C176.979 268.258 177.608 266.717 178.114 265.48C178.305 265.012 178.753 263.915 179.003 263.911C179.238 264.015 179.541 264.86 179.722 265.365C180.205 266.713 180.807 268.396 182.675 268.396C185.593 268.399 182.801 267.279 182.671 267.279Z" fill="url(#paint0_radial_139373_148)"/>
<path d="M477.671 262.279C476.867 262.279 476.458 261.311 476.003 260.047C475.608 258.94 475.198 257.798 474.022 257.798C472.788 257.798 472.305 258.979 471.839 260.121C471.471 261.021 471.014 262.141 470.348 262.141C469.348 262.141 468.954 261.603 468.572 261.084C468.291 260.699 467.971 260.265 467.355 260.265C466.566 260.265 466.224 260.74 465.997 261.054C465.685 261.487 465.391 261.894 463.891 261.894C462.199 261.894 461.356 262.122 460.797 262.272C460.347 262.395 460.265 262.412 459.993 262.321C459.791 262.251 459.474 261.995 459.199 261.768C458.604 261.281 457.904 260.724 457.063 260.766C456.563 260.786 456.104 261.001 455.698 261.404C454.091 263.003 453.012 262.512 452.656 262.347C452.018 262.058 451.637 261.558 451.271 261.076C450.751 260.398 450.166 259.631 448.891 259.631C447.867 259.631 447.325 260.406 446.802 261.156C446.31 261.862 445.801 262.59 444.974 262.656C444.192 262.718 443.546 262.541 442.924 262.367C442.017 262.118 440.987 261.834 439.864 262.529C439.126 262.986 438.83 264.286 438.43 266.373C438.395 266.562 438.355 266.768 438.315 266.975C438.213 266.366 438.098 265.518 437.974 264.34L437.948 264.099C437.948 264.099 437.299 257.797 436.611 251.494C435.179 238.384 435.179 238.384 434.37 238.384C433.561 238.384 433.562 238.384 432.083 251.493C431.372 257.785 430.7 264.077 430.701 264.077C430.682 264.203 430.666 264.328 430.651 264.452C430.463 263.97 430.101 263.544 429.33 263.544L429.227 263.551C428.582 263.635 427.861 263.676 427.63 263.644C427.391 263.499 427.052 263.052 426.775 262.69C426.159 261.883 425.461 260.969 424.395 260.969C423.02 260.969 422.205 262.129 421.418 263.252C421.277 263.451 421.135 263.654 420.988 263.853C420.001 265.191 418.932 265.968 417.898 266.1C417.178 266.19 416.455 265.979 415.746 265.465C415.006 264.929 414.677 263.681 414.387 262.579C414.015 261.162 413.63 259.696 412.166 259.696C410.939 259.696 410.535 260.841 410.146 261.949C409.556 263.621 409.013 264.805 407.405 264.805C406.019 264.805 405.619 263.959 405.163 262.668C404.86 261.807 404.514 260.831 403.373 260.831C402.015 260.831 401.55 262.255 401.101 263.631C400.97 264.031 400.79 264.582 400.622 264.905C400.355 264.402 400.045 263.357 399.83 262.616C399.218 260.541 398.777 259.041 397.597 259.041C396.581 259.041 396.15 260.004 395.732 260.934C395.541 261.361 395.093 262.36 394.808 262.36C394.42 262.36 394.289 262.229 393.996 261.537C393.749 260.954 393.373 260.074 392.121 260.074C390.886 260.074 390.688 261.544 390.412 263.579C390.279 264.569 389.965 266.887 389.465 267.034C389.206 266.937 388.744 265.894 388.743 264.129C388.743 264.06 388.478 257.147 388.079 250.326C387.239 236 386.728 236 385.885 236C384.929 236 384.824 236.499 384.279 243.631C383.984 247.491 383.617 252.294 382.978 256.093C381.956 262.105 380.794 262.279 380.666 262.279C379.862 262.279 379.454 261.311 379 260.047C378.604 258.939 378.194 257.798 377.018 257.798C375.785 257.798 375.302 258.979 374.835 260.121C374.448 261.068 374.01 262.141 373.343 262.141C372.345 262.141 371.95 261.604 371.568 261.084C371.287 260.699 370.968 260.265 370.352 260.265C369.561 260.265 369.219 260.74 368.993 261.054C368.681 261.487 368.388 261.894 366.887 261.894C365.196 261.894 364.352 262.122 363.794 262.272C363.343 262.395 363.261 262.412 362.989 262.321C362.786 262.251 362.469 261.995 362.196 261.768C361.6 261.282 360.906 260.724 360.055 260.766C359.556 260.786 359.097 261.001 358.691 261.404C357.083 263.004 356.004 262.512 355.649 262.347C355.01 262.058 354.63 261.558 354.263 261.076C353.744 260.398 353.159 259.631 351.883 259.631C350.859 259.631 350.318 260.406 349.794 261.156C349.302 261.862 348.792 262.59 347.966 262.656C347.179 262.718 346.538 262.541 345.916 262.367C345.009 262.118 344.611 263.186 345.495 263.431C346.178 263.619 347.026 263.853 348.093 263.768C349.606 263.648 350.353 262.577 350.954 261.717C351.256 261.284 351.631 260.748 351.883 260.748C352.376 260.748 352.617 261.003 353.131 261.677C353.547 262.221 354.065 262.9 355.006 263.329C355.903 263.738 357.708 264.126 359.721 262.125C359.808 262.039 359.976 261.892 360.122 261.884C360.416 261.875 360.898 262.275 361.257 262.568C361.658 262.895 362.035 263.204 362.48 263.356C363.214 263.608 363.697 263.477 364.209 263.34C364.72 263.202 365.409 263.016 366.888 263.016C369.147 263.016 369.771 262.149 370.144 261.633C370.183 261.58 370.229 261.514 370.271 261.465C370.322 261.529 370.378 261.606 370.425 261.67C370.863 262.264 371.594 263.259 373.345 263.259C374.972 263.259 375.601 261.718 376.107 260.481C376.299 260.012 376.746 258.916 376.996 258.912C377.231 259.016 377.534 259.861 377.714 260.366C378.198 261.714 378.8 263.397 380.668 263.397C383.589 263.397 384.589 257.046 385.609 243.701C385.712 242.352 385.816 240.988 385.924 239.833C386.521 245.183 387.107 256.531 387.394 264.145C387.394 265.084 387.542 268.149 389.444 268.149C391.139 268.149 391.43 265.989 391.74 263.703C391.855 262.85 392.024 261.597 392.259 261.21C392.41 261.258 392.515 261.417 392.725 261.91C392.991 262.536 393.393 263.477 394.804 263.477C396.022 263.477 396.536 262.334 396.988 261.325C397.137 260.993 397.367 260.479 397.555 260.248C397.884 260.704 398.277 262.044 398.524 262.882C399.117 264.897 399.509 266.228 400.598 266.228C401.641 266.228 401.99 265.16 402.394 263.923C402.553 263.435 403.039 261.949 403.371 261.949C403.536 262.028 403.747 262.627 403.873 262.985C404.287 264.156 404.913 265.923 407.403 265.923C410.139 265.923 410.916 263.721 411.431 262.263C411.584 261.829 411.943 260.812 412.166 260.812C412.55 260.812 412.867 262.016 413.077 262.816C413.411 264.088 413.79 265.529 414.866 266.309C415.873 267.036 416.989 267.345 418.1 267.204C419.555 267.018 420.911 266.087 422.128 264.438C422.28 264.231 422.428 264.021 422.573 263.814C423.17 262.964 423.786 262.086 424.392 262.086C424.722 262.086 425.296 262.839 425.64 263.29C426.065 263.846 426.466 264.372 426.982 264.627C427.116 264.693 427.518 264.891 429.315 264.67C429.421 264.809 429.488 265.251 429.524 265.471C429.614 266.052 429.717 266.71 430.436 266.859C430.575 266.891 430.721 266.896 430.864 266.875C431.006 266.854 431.141 266.807 431.259 266.738C431.782 266.427 431.85 265.796 431.943 264.923C431.968 264.695 431.994 264.454 432.032 264.195C432.73 257.65 433.712 248.78 434.358 243.528C434.987 248.78 435.934 257.65 436.61 264.196L436.636 264.437C437.091 268.743 437.433 269.431 438.3 269.431C439.205 269.431 439.378 268.528 439.757 266.548C439.947 265.555 440.301 263.707 440.665 263.426C441.204 263.092 441.618 263.185 442.502 263.429C443.185 263.618 444.037 263.85 445.1 263.766C446.613 263.646 447.361 262.576 447.962 261.716C448.263 261.282 448.638 260.746 448.89 260.746C449.383 260.746 449.624 261.001 450.139 261.675C450.555 262.22 451.073 262.899 452.013 263.328C452.909 263.737 454.714 264.124 456.729 262.124C456.816 262.037 456.984 261.891 457.128 261.883H457.141C457.43 261.883 457.91 262.277 458.264 262.567C458.664 262.894 459.042 263.203 459.487 263.355C460.221 263.607 460.703 263.476 461.215 263.339C461.728 263.201 462.415 263.015 463.895 263.015C466.154 263.015 466.779 262.148 467.151 261.632C467.19 261.579 467.236 261.514 467.277 261.464C467.329 261.528 467.385 261.605 467.432 261.669C467.869 262.263 468.601 263.258 470.352 263.258C471.979 263.258 472.608 261.717 473.114 260.48C473.305 260.012 473.753 258.915 474.003 258.911C474.238 259.015 474.541 259.86 474.722 260.365C475.205 261.713 475.807 263.396 477.675 263.396C480.593 263.399 477.801 262.279 477.671 262.279Z" fill="url(#paint1_radial_139373_148)"/>
<path d="M408.154 0H143.421C128.78 0 116.912 11.8683 116.912 26.5087V512.149C116.912 526.79 128.78 538.658 143.421 538.658H408.154C422.795 538.658 434.663 526.79 434.663 512.149V26.5087C434.663 11.8683 422.795 0 408.154 0Z" fill="url(#paint2_linear_139373_148)"/>
<path d="M417.117 47H139.655C136.532 47 134 49.5319 134 52.6551V485.277C134 488.401 136.532 490.932 139.655 490.932H417.117C420.24 490.932 422.772 488.401 422.772 485.277V52.6551C422.772 49.5319 420.24 47 417.117 47Z" fill="#C7D8E6"/>
<path d="M185.292 36.3168C191.104 35.6011 195.235 30.3096 194.52 24.4979C193.804 18.6862 188.512 14.555 182.701 15.2706C176.889 15.9863 172.758 21.2777 173.473 27.0895C174.189 32.9012 179.481 37.0324 185.292 36.3168Z" fill="#C7D8E6"/>
<path d="M433.961 37.9633C425.125 37.3693 418.443 29.7218 419.037 20.9605C419.705 12.125 427.278 5.44274 436.114 6.03672C444.875 6.70495 451.557 14.2782 450.963 23.1137C450.369 31.875 442.722 38.5573 433.961 37.9633Z" fill="url(#paint3_radial_139373_148)"/>
<path d="M130.219 527.884C102.332 526.009 81.2411 501.872 83.1159 474.219C85.225 446.332 109.128 425.241 137.015 427.116C164.668 429.225 185.759 453.128 183.884 481.015C182.009 508.668 157.872 529.759 130.219 527.884Z" fill="url(#paint4_radial_139373_148)"/>
<g filter="url(#filter0_d_139373_148)">
<rect x="80" y="89" width="290" height="54" rx="10" fill="white"/>
<rect x="80" y="89" width="290" height="54" rx="10" fill="#293688"/>
</g>
<g filter="url(#filter1_d_139373_148)">
<rect x="255" y="194" width="206" height="54" rx="10" fill="#293688"/>
</g>
<g filter="url(#filter2_d_139373_148)">
<rect x="27" y="345" width="290" height="54" rx="10" fill="#293688"/>
</g>
<path d="M116.088 126L111.772 118.59H108.912V126H106.546V107.878H112.396C113.765 107.878 114.918 108.112 115.854 108.58C116.807 109.048 117.518 109.681 117.986 110.478C118.454 111.275 118.688 112.185 118.688 113.208C118.688 114.456 118.324 115.557 117.596 116.51C116.885 117.463 115.811 118.096 114.372 118.408L118.922 126H116.088ZM108.912 116.692H112.396C113.679 116.692 114.641 116.38 115.282 115.756C115.923 115.115 116.244 114.265 116.244 113.208C116.244 112.133 115.923 111.301 115.282 110.712C114.658 110.123 113.696 109.828 112.396 109.828H108.912V116.692ZM135.364 118.33C135.364 118.781 135.338 119.257 135.286 119.76H123.898C123.985 121.164 124.462 122.265 125.328 123.062C126.212 123.842 127.278 124.232 128.526 124.232C129.549 124.232 130.398 123.998 131.074 123.53C131.768 123.045 132.253 122.403 132.53 121.606H135.078C134.697 122.975 133.934 124.093 132.79 124.96C131.646 125.809 130.225 126.234 128.526 126.234C127.174 126.234 125.961 125.931 124.886 125.324C123.829 124.717 122.997 123.859 122.39 122.75C121.784 121.623 121.48 120.323 121.48 118.85C121.48 117.377 121.775 116.085 122.364 114.976C122.954 113.867 123.777 113.017 124.834 112.428C125.909 111.821 127.14 111.518 128.526 111.518C129.878 111.518 131.074 111.813 132.114 112.402C133.154 112.991 133.952 113.806 134.506 114.846C135.078 115.869 135.364 117.03 135.364 118.33ZM132.92 117.836C132.92 116.935 132.721 116.163 132.322 115.522C131.924 114.863 131.378 114.369 130.684 114.04C130.008 113.693 129.254 113.52 128.422 113.52C127.226 113.52 126.204 113.901 125.354 114.664C124.522 115.427 124.046 116.484 123.924 117.836H132.92ZM140.853 106.76V126H138.487V106.76H140.853ZM144.002 118.824C144.002 117.368 144.296 116.094 144.886 115.002C145.475 113.893 146.281 113.035 147.304 112.428C148.344 111.821 149.496 111.518 150.762 111.518C152.01 111.518 153.093 111.787 154.012 112.324C154.93 112.861 155.615 113.537 156.066 114.352V111.752H158.458V126H156.066V123.348C155.598 124.18 154.896 124.873 153.96 125.428C153.041 125.965 151.966 126.234 150.736 126.234C149.47 126.234 148.326 125.922 147.304 125.298C146.281 124.674 145.475 123.799 144.886 122.672C144.296 121.545 144.002 120.263 144.002 118.824ZM156.066 118.85C156.066 117.775 155.849 116.839 155.416 116.042C154.982 115.245 154.393 114.638 153.648 114.222C152.92 113.789 152.114 113.572 151.23 113.572C150.346 113.572 149.54 113.78 148.812 114.196C148.084 114.612 147.503 115.219 147.07 116.016C146.636 116.813 146.42 117.749 146.42 118.824C146.42 119.916 146.636 120.869 147.07 121.684C147.503 122.481 148.084 123.097 148.812 123.53C149.54 123.946 150.346 124.154 151.23 124.154C152.114 124.154 152.92 123.946 153.648 123.53C154.393 123.097 154.982 122.481 155.416 121.684C155.849 120.869 156.066 119.925 156.066 118.85ZM165.342 113.702V122.1C165.342 122.793 165.489 123.287 165.784 123.582C166.079 123.859 166.59 123.998 167.318 123.998H169.06V126H166.928C165.611 126 164.623 125.697 163.964 125.09C163.305 124.483 162.976 123.487 162.976 122.1V113.702H161.13V111.752H162.976V108.164H165.342V111.752H169.06V113.702H165.342ZM173.149 109.438C172.698 109.438 172.317 109.282 172.005 108.97C171.693 108.658 171.537 108.277 171.537 107.826C171.537 107.375 171.693 106.994 172.005 106.682C172.317 106.37 172.698 106.214 173.149 106.214C173.582 106.214 173.946 106.37 174.241 106.682C174.553 106.994 174.709 107.375 174.709 107.826C174.709 108.277 174.553 108.658 174.241 108.97C173.946 109.282 173.582 109.438 173.149 109.438ZM174.293 111.752V126H171.927V111.752H174.293ZM184.539 126.234C183.205 126.234 181.991 125.931 180.899 125.324C179.825 124.717 178.975 123.859 178.351 122.75C177.745 121.623 177.441 120.323 177.441 118.85C177.441 117.394 177.753 116.111 178.377 115.002C179.019 113.875 179.885 113.017 180.977 112.428C182.069 111.821 183.291 111.518 184.643 111.518C185.995 111.518 187.217 111.821 188.309 112.428C189.401 113.017 190.259 113.867 190.883 114.976C191.525 116.085 191.845 117.377 191.845 118.85C191.845 120.323 191.516 121.623 190.857 122.75C190.216 123.859 189.341 124.717 188.231 125.324C187.122 125.931 185.891 126.234 184.539 126.234ZM184.539 124.154C185.389 124.154 186.186 123.955 186.931 123.556C187.677 123.157 188.275 122.559 188.725 121.762C189.193 120.965 189.427 119.994 189.427 118.85C189.427 117.706 189.202 116.735 188.751 115.938C188.301 115.141 187.711 114.551 186.983 114.17C186.255 113.771 185.467 113.572 184.617 113.572C183.751 113.572 182.953 113.771 182.225 114.17C181.515 114.551 180.943 115.141 180.509 115.938C180.076 116.735 179.859 117.706 179.859 118.85C179.859 120.011 180.067 120.991 180.483 121.788C180.917 122.585 181.489 123.183 182.199 123.582C182.91 123.963 183.69 124.154 184.539 124.154ZM201.898 111.492C203.631 111.492 205.035 112.021 206.11 113.078C207.185 114.118 207.722 115.626 207.722 117.602V126H205.382V117.94C205.382 116.519 205.027 115.435 204.316 114.69C203.605 113.927 202.635 113.546 201.404 113.546C200.156 113.546 199.159 113.936 198.414 114.716C197.686 115.496 197.322 116.631 197.322 118.122V126H194.956V111.752H197.322V113.78C197.79 113.052 198.423 112.489 199.22 112.09C200.035 111.691 200.927 111.492 201.898 111.492ZM216.631 126.234C215.539 126.234 214.56 126.052 213.693 125.688C212.826 125.307 212.142 124.787 211.639 124.128C211.136 123.452 210.859 122.681 210.807 121.814H213.251C213.32 122.525 213.65 123.105 214.239 123.556C214.846 124.007 215.634 124.232 216.605 124.232C217.506 124.232 218.217 124.033 218.737 123.634C219.257 123.235 219.517 122.733 219.517 122.126C219.517 121.502 219.24 121.043 218.685 120.748C218.13 120.436 217.272 120.133 216.111 119.838C215.054 119.561 214.187 119.283 213.511 119.006C212.852 118.711 212.28 118.287 211.795 117.732C211.327 117.16 211.093 116.415 211.093 115.496C211.093 114.768 211.31 114.101 211.743 113.494C212.176 112.887 212.792 112.411 213.589 112.064C214.386 111.7 215.296 111.518 216.319 111.518C217.896 111.518 219.17 111.917 220.141 112.714C221.112 113.511 221.632 114.603 221.701 115.99H219.335C219.283 115.245 218.98 114.647 218.425 114.196C217.888 113.745 217.16 113.52 216.241 113.52C215.392 113.52 214.716 113.702 214.213 114.066C213.71 114.43 213.459 114.907 213.459 115.496C213.459 115.964 213.606 116.354 213.901 116.666C214.213 116.961 214.594 117.203 215.045 117.394C215.513 117.567 216.154 117.767 216.969 117.992C217.992 118.269 218.824 118.547 219.465 118.824C220.106 119.084 220.652 119.483 221.103 120.02C221.571 120.557 221.814 121.259 221.831 122.126C221.831 122.906 221.614 123.608 221.181 124.232C220.748 124.856 220.132 125.35 219.335 125.714C218.555 126.061 217.654 126.234 216.631 126.234ZM239.175 111.492C240.249 111.492 241.22 111.726 242.087 112.194C242.953 112.645 243.629 113.329 244.115 114.248C244.617 115.167 244.869 116.285 244.869 117.602V126H242.529V117.94C242.529 116.519 242.173 115.435 241.463 114.69C240.752 113.927 239.781 113.546 238.551 113.546C237.303 113.546 236.306 113.936 235.561 114.716C234.833 115.496 234.469 116.631 234.469 118.122V126H232.103V106.76H234.469V113.78C234.937 113.052 235.578 112.489 236.393 112.09C237.225 111.691 238.152 111.492 239.175 111.492ZM261.369 111.752V126H259.003V123.894C258.553 124.622 257.92 125.194 257.105 125.61C256.308 126.009 255.424 126.208 254.453 126.208C253.344 126.208 252.347 125.983 251.463 125.532C250.579 125.064 249.877 124.371 249.357 123.452C248.855 122.533 248.603 121.415 248.603 120.098V111.752H250.943V119.786C250.943 121.19 251.299 122.273 252.009 123.036C252.72 123.781 253.691 124.154 254.921 124.154C256.187 124.154 257.183 123.764 257.911 122.984C258.639 122.204 259.003 121.069 259.003 119.578V111.752H261.369ZM282.498 111.492C283.608 111.492 284.596 111.726 285.462 112.194C286.329 112.645 287.014 113.329 287.516 114.248C288.019 115.167 288.27 116.285 288.27 117.602V126H285.93V117.94C285.93 116.519 285.575 115.435 284.864 114.69C284.171 113.927 283.226 113.546 282.03 113.546C280.8 113.546 279.82 113.945 279.092 114.742C278.364 115.522 278 116.657 278 118.148V126H275.66V117.94C275.66 116.519 275.305 115.435 274.594 114.69C273.901 113.927 272.956 113.546 271.76 113.546C270.53 113.546 269.55 113.945 268.822 114.742C268.094 115.522 267.73 116.657 267.73 118.148V126H265.364V111.752H267.73V113.806C268.198 113.061 268.822 112.489 269.602 112.09C270.4 111.691 271.275 111.492 272.228 111.492C273.424 111.492 274.482 111.761 275.4 112.298C276.319 112.835 277.004 113.624 277.454 114.664C277.853 113.659 278.512 112.879 279.43 112.324C280.349 111.769 281.372 111.492 282.498 111.492ZM291.267 118.824C291.267 117.368 291.562 116.094 292.151 115.002C292.741 113.893 293.547 113.035 294.569 112.428C295.609 111.821 296.762 111.518 298.027 111.518C299.275 111.518 300.359 111.787 301.277 112.324C302.196 112.861 302.881 113.537 303.331 114.352V111.752H305.723V126H303.331V123.348C302.863 124.18 302.161 124.873 301.225 125.428C300.307 125.965 299.232 126.234 298.001 126.234C296.736 126.234 295.592 125.922 294.569 125.298C293.547 124.674 292.741 123.799 292.151 122.672C291.562 121.545 291.267 120.263 291.267 118.824ZM303.331 118.85C303.331 117.775 303.115 116.839 302.681 116.042C302.248 115.245 301.659 114.638 300.913 114.222C300.185 113.789 299.379 113.572 298.495 113.572C297.611 113.572 296.805 113.78 296.077 114.196C295.349 114.612 294.769 115.219 294.335 116.016C293.902 116.813 293.685 117.749 293.685 118.824C293.685 119.916 293.902 120.869 294.335 121.684C294.769 122.481 295.349 123.097 296.077 123.53C296.805 123.946 297.611 124.154 298.495 124.154C299.379 124.154 300.185 123.946 300.913 123.53C301.659 123.097 302.248 122.481 302.681 121.684C303.115 120.869 303.331 119.925 303.331 118.85ZM310.944 109.438C310.493 109.438 310.112 109.282 309.8 108.97C309.488 108.658 309.332 108.277 309.332 107.826C309.332 107.375 309.488 106.994 309.8 106.682C310.112 106.37 310.493 106.214 310.944 106.214C311.377 106.214 311.741 106.37 312.036 106.682C312.348 106.994 312.504 107.375 312.504 107.826C312.504 108.277 312.348 108.658 312.036 108.97C311.741 109.282 311.377 109.438 310.944 109.438ZM312.088 111.752V126H309.722V111.752H312.088ZM323.062 111.492C324.795 111.492 326.199 112.021 327.274 113.078C328.349 114.118 328.886 115.626 328.886 117.602V126H326.546V117.94C326.546 116.519 326.191 115.435 325.48 114.69C324.769 113.927 323.799 113.546 322.568 113.546C321.32 113.546 320.323 113.936 319.578 114.716C318.85 115.496 318.486 116.631 318.486 118.122V126H316.12V111.752H318.486V113.78C318.954 113.052 319.587 112.489 320.384 112.09C321.199 111.691 322.091 111.492 323.062 111.492ZM345.751 118.33C345.751 118.781 345.725 119.257 345.673 119.76H334.285C334.372 121.164 334.848 122.265 335.715 123.062C336.599 123.842 337.665 124.232 338.913 124.232C339.936 124.232 340.785 123.998 341.461 123.53C342.154 123.045 342.64 122.403 342.917 121.606H345.465C345.084 122.975 344.321 124.093 343.177 124.96C342.033 125.809 340.612 126.234 338.913 126.234C337.561 126.234 336.348 125.931 335.273 125.324C334.216 124.717 333.384 123.859 332.777 122.75C332.17 121.623 331.867 120.323 331.867 118.85C331.867 117.377 332.162 116.085 332.751 114.976C333.34 113.867 334.164 113.017 335.221 112.428C336.296 111.821 337.526 111.518 338.913 111.518C340.265 111.518 341.461 111.813 342.501 112.402C343.541 112.991 344.338 113.806 344.893 114.846C345.465 115.869 345.751 117.03 345.751 118.33ZM343.307 117.836C343.307 116.935 343.108 116.163 342.709 115.522C342.31 114.863 341.764 114.369 341.071 114.04C340.395 113.693 339.641 113.52 338.809 113.52C337.613 113.52 336.59 113.901 335.741 114.664C334.909 115.427 334.432 116.484 334.311 117.836H343.307ZM353.918 126.234C352.826 126.234 351.847 126.052 350.98 125.688C350.113 125.307 349.429 124.787 348.926 124.128C348.423 123.452 348.146 122.681 348.094 121.814H350.538C350.607 122.525 350.937 123.105 351.526 123.556C352.133 124.007 352.921 124.232 353.892 124.232C354.793 124.232 355.504 124.033 356.024 123.634C356.544 123.235 356.804 122.733 356.804 122.126C356.804 121.502 356.527 121.043 355.972 120.748C355.417 120.436 354.559 120.133 353.398 119.838C352.341 119.561 351.474 119.283 350.798 119.006C350.139 118.711 349.567 118.287 349.082 117.732C348.614 117.16 348.38 116.415 348.38 115.496C348.38 114.768 348.597 114.101 349.03 113.494C349.463 112.887 350.079 112.411 350.876 112.064C351.673 111.7 352.583 111.518 353.606 111.518C355.183 111.518 356.457 111.917 357.428 112.714C358.399 113.511 358.919 114.603 358.988 115.99H356.622C356.57 115.245 356.267 114.647 355.712 114.196C355.175 113.745 354.447 113.52 353.528 113.52C352.679 113.52 352.003 113.702 351.5 114.066C350.997 114.43 350.746 114.907 350.746 115.496C350.746 115.964 350.893 116.354 351.188 116.666C351.5 116.961 351.881 117.203 352.332 117.394C352.8 117.567 353.441 117.767 354.256 117.992C355.279 118.269 356.111 118.547 356.752 118.824C357.393 119.084 357.939 119.483 358.39 120.02C358.858 120.557 359.101 121.259 359.118 122.126C359.118 122.906 358.901 123.608 358.468 124.232C358.035 124.856 357.419 125.35 356.622 125.714C355.842 126.061 354.941 126.234 353.918 126.234Z" fill="url(#paint5_radial_139373_148)"/>
<path d="M336.4 212.878C338.376 212.878 340.083 213.251 341.522 213.996C342.978 214.724 344.087 215.773 344.85 217.142C345.63 218.511 346.02 220.123 346.02 221.978C346.02 223.833 345.63 225.445 344.85 226.814C344.087 228.166 342.978 229.206 341.522 229.934C340.083 230.645 338.376 231 336.4 231H330.758V212.878H336.4ZM336.4 229.05C338.74 229.05 340.525 228.435 341.756 227.204C342.987 225.956 343.602 224.214 343.602 221.978C343.602 219.725 342.978 217.965 341.73 216.7C340.499 215.435 338.723 214.802 336.4 214.802H333.124V229.05H336.4ZM359.853 226.97H351.949L350.493 231H347.997L354.549 212.982H357.279L363.805 231H361.309L359.853 226.97ZM359.177 225.046L355.901 215.894L352.625 225.046H359.177ZM377.814 212.878V214.802H372.874V231H370.508V214.802H365.542V212.878H377.814ZM391.439 226.97H383.535L382.079 231H379.583L386.135 212.982H388.865L395.391 231H392.895L391.439 226.97ZM390.763 225.046L387.487 215.894L384.211 225.046H390.763Z" fill="url(#paint6_radial_139373_148)"/>
<path d="M50.8145 382L46.4985 374.59H43.6385V382H41.2725V363.878H47.1225C48.4918 363.878 49.6445 364.112 50.5805 364.58C51.5338 365.048 52.2445 365.681 52.7125 366.478C53.1805 367.275 53.4145 368.185 53.4145 369.208C53.4145 370.456 53.0505 371.557 52.3225 372.51C51.6118 373.463 50.5372 374.096 49.0985 374.408L53.6485 382H50.8145ZM43.6385 372.692H47.1225C48.4052 372.692 49.3672 372.38 50.0085 371.756C50.6498 371.115 50.9705 370.265 50.9705 369.208C50.9705 368.133 50.6498 367.301 50.0085 366.712C49.3845 366.123 48.4225 365.828 47.1225 365.828H43.6385V372.692ZM70.0909 374.33C70.0909 374.781 70.0649 375.257 70.0129 375.76H58.6249C58.7115 377.164 59.1882 378.265 60.0549 379.062C60.9389 379.842 62.0049 380.232 63.2529 380.232C64.2755 380.232 65.1249 379.998 65.8009 379.53C66.4942 379.045 66.9795 378.403 67.2569 377.606H69.8049C69.4235 378.975 68.6609 380.093 67.5169 380.96C66.3729 381.809 64.9515 382.234 63.2529 382.234C61.9009 382.234 60.6875 381.931 59.6129 381.324C58.5555 380.717 57.7235 379.859 57.1169 378.75C56.5102 377.623 56.2069 376.323 56.2069 374.85C56.2069 373.377 56.5015 372.085 57.0909 370.976C57.6802 369.867 58.5035 369.017 59.5609 368.428C60.6355 367.821 61.8662 367.518 63.2529 367.518C64.6049 367.518 65.8009 367.813 66.8409 368.402C67.8809 368.991 68.6782 369.806 69.2329 370.846C69.8049 371.869 70.0909 373.03 70.0909 374.33ZM67.6469 373.836C67.6469 372.935 67.4475 372.163 67.0489 371.522C66.6502 370.863 66.1042 370.369 65.4109 370.04C64.7349 369.693 63.9809 369.52 63.1489 369.52C61.9529 369.52 60.9302 369.901 60.0809 370.664C59.2489 371.427 58.7722 372.484 58.6509 373.836H67.6469ZM65.6969 363.722L60.1589 366.686V364.918L65.6969 361.668V363.722ZM78.2579 382.234C77.1659 382.234 76.1866 382.052 75.3199 381.688C74.4532 381.307 73.7686 380.787 73.2659 380.128C72.7632 379.452 72.4859 378.681 72.4339 377.814H74.8779C74.9472 378.525 75.2766 379.105 75.8659 379.556C76.4726 380.007 77.2612 380.232 78.2319 380.232C79.1332 380.232 79.8439 380.033 80.3639 379.634C80.8839 379.235 81.1439 378.733 81.1439 378.126C81.1439 377.502 80.8666 377.043 80.3119 376.748C79.7572 376.436 78.8992 376.133 77.7379 375.838C76.6806 375.561 75.8139 375.283 75.1379 375.006C74.4792 374.711 73.9072 374.287 73.4219 373.732C72.9539 373.16 72.7199 372.415 72.7199 371.496C72.7199 370.768 72.9366 370.101 73.3699 369.494C73.8032 368.887 74.4186 368.411 75.2159 368.064C76.0132 367.7 76.9232 367.518 77.9459 367.518C79.5232 367.518 80.7972 367.917 81.7679 368.714C82.7386 369.511 83.2586 370.603 83.3279 371.99H80.9619C80.9099 371.245 80.6066 370.647 80.0519 370.196C79.5146 369.745 78.7866 369.52 77.8679 369.52C77.0186 369.52 76.3426 369.702 75.8399 370.066C75.3372 370.43 75.0859 370.907 75.0859 371.496C75.0859 371.964 75.2332 372.354 75.5279 372.666C75.8399 372.961 76.2212 373.203 76.6719 373.394C77.1399 373.567 77.7812 373.767 78.5959 373.992C79.6186 374.269 80.4506 374.547 81.0919 374.824C81.7332 375.084 82.2792 375.483 82.7299 376.02C83.1979 376.557 83.4406 377.259 83.4579 378.126C83.4579 378.906 83.2412 379.608 82.8079 380.232C82.3746 380.856 81.7592 381.35 80.9619 381.714C80.1819 382.061 79.2806 382.234 78.2579 382.234ZM99.7979 374.33C99.7979 374.781 99.7719 375.257 99.7199 375.76H88.3319C88.4186 377.164 88.8952 378.265 89.7619 379.062C90.6459 379.842 91.7119 380.232 92.9599 380.232C93.9826 380.232 94.8319 379.998 95.5079 379.53C96.2012 379.045 96.6866 378.403 96.9639 377.606H99.5119C99.1306 378.975 98.3679 380.093 97.2239 380.96C96.0799 381.809 94.6586 382.234 92.9599 382.234C91.6079 382.234 90.3946 381.931 89.3199 381.324C88.2626 380.717 87.4306 379.859 86.8239 378.75C86.2172 377.623 85.9139 376.323 85.9139 374.85C85.9139 373.377 86.2086 372.085 86.7979 370.976C87.3872 369.867 88.2106 369.017 89.2679 368.428C90.3426 367.821 91.5732 367.518 92.9599 367.518C94.3119 367.518 95.5079 367.813 96.5479 368.402C97.5879 368.991 98.3852 369.806 98.9399 370.846C99.5119 371.869 99.7979 373.03 99.7979 374.33ZM97.3539 373.836C97.3539 372.935 97.1546 372.163 96.7559 371.522C96.3572 370.863 95.8112 370.369 95.1179 370.04C94.4419 369.693 93.6879 369.52 92.8559 369.52C91.6599 369.52 90.6372 369.901 89.7879 370.664C88.9559 371.427 88.4792 372.484 88.3579 373.836H97.3539ZM102.037 374.824C102.037 373.368 102.332 372.094 102.921 371.002C103.51 369.893 104.316 369.035 105.339 368.428C106.379 367.821 107.532 367.518 108.797 367.518C110.045 367.518 111.128 367.787 112.047 368.324C112.966 368.861 113.65 369.537 114.101 370.352V367.752H116.493V382H114.101V379.348C113.633 380.18 112.931 380.873 111.995 381.428C111.076 381.965 110.002 382.234 108.771 382.234C107.506 382.234 106.362 381.922 105.339 381.298C104.316 380.674 103.51 379.799 102.921 378.672C102.332 377.545 102.037 376.263 102.037 374.824ZM114.101 374.85C114.101 373.775 113.884 372.839 113.451 372.042C113.018 371.245 112.428 370.638 111.683 370.222C110.955 369.789 110.149 369.572 109.265 369.572C108.381 369.572 107.575 369.78 106.847 370.196C106.119 370.612 105.538 371.219 105.105 372.016C104.672 372.813 104.455 373.749 104.455 374.824C104.455 375.916 104.672 376.869 105.105 377.684C105.538 378.481 106.119 379.097 106.847 379.53C107.575 379.946 108.381 380.154 109.265 380.154C110.149 380.154 110.955 379.946 111.683 379.53C112.428 379.097 113.018 378.481 113.451 377.684C113.884 376.869 114.101 375.925 114.101 374.85ZM133.127 367.752V382H130.761V379.894C130.311 380.622 129.678 381.194 128.863 381.61C128.066 382.009 127.182 382.208 126.211 382.208C125.102 382.208 124.105 381.983 123.221 381.532C122.337 381.064 121.635 380.371 121.115 379.452C120.613 378.533 120.361 377.415 120.361 376.098V367.752H122.701V375.786C122.701 377.19 123.057 378.273 123.767 379.036C124.478 379.781 125.449 380.154 126.679 380.154C127.945 380.154 128.941 379.764 129.669 378.984C130.397 378.204 130.761 377.069 130.761 375.578V367.752H133.127ZM143.17 374.824C143.17 373.368 143.464 372.094 144.054 371.002C144.643 369.893 145.449 369.035 146.472 368.428C147.512 367.821 148.673 367.518 149.956 367.518C151.065 367.518 152.096 367.778 153.05 368.298C154.003 368.801 154.731 369.468 155.234 370.3V362.76H157.626V382H155.234V379.322C154.766 380.171 154.072 380.873 153.154 381.428C152.235 381.965 151.16 382.234 149.93 382.234C148.664 382.234 147.512 381.922 146.472 381.298C145.449 380.674 144.643 379.799 144.054 378.672C143.464 377.545 143.17 376.263 143.17 374.824ZM155.234 374.85C155.234 373.775 155.017 372.839 154.584 372.042C154.15 371.245 153.561 370.638 152.816 370.222C152.088 369.789 151.282 369.572 150.398 369.572C149.514 369.572 148.708 369.78 147.98 370.196C147.252 370.612 146.671 371.219 146.238 372.016C145.804 372.813 145.588 373.749 145.588 374.824C145.588 375.916 145.804 376.869 146.238 377.684C146.671 378.481 147.252 379.097 147.98 379.53C148.708 379.946 149.514 380.154 150.398 380.154C151.282 380.154 152.088 379.946 152.816 379.53C153.561 379.097 154.15 378.481 154.584 377.684C155.017 376.869 155.234 375.925 155.234 374.85ZM174.624 374.33C174.624 374.781 174.598 375.257 174.546 375.76H163.158C163.245 377.164 163.721 378.265 164.588 379.062C165.472 379.842 166.538 380.232 167.786 380.232C168.809 380.232 169.658 379.998 170.334 379.53C171.027 379.045 171.513 378.403 171.79 377.606H174.338C173.957 378.975 173.194 380.093 172.05 380.96C170.906 381.809 169.485 382.234 167.786 382.234C166.434 382.234 165.221 381.931 164.146 381.324C163.089 380.717 162.257 379.859 161.65 378.75C161.043 377.623 160.74 376.323 160.74 374.85C160.74 373.377 161.035 372.085 161.624 370.976C162.213 369.867 163.037 369.017 164.094 368.428C165.169 367.821 166.399 367.518 167.786 367.518C169.138 367.518 170.334 367.813 171.374 368.402C172.414 368.991 173.211 369.806 173.766 370.846C174.338 371.869 174.624 373.03 174.624 374.33ZM172.18 373.836C172.18 372.935 171.981 372.163 171.582 371.522C171.183 370.863 170.637 370.369 169.944 370.04C169.268 369.693 168.514 369.52 167.682 369.52C166.486 369.52 165.463 369.901 164.614 370.664C163.782 371.427 163.305 372.484 163.184 373.836H172.18ZM191.621 367.492C193.354 367.492 194.758 368.021 195.833 369.078C196.907 370.118 197.445 371.626 197.445 373.602V382H195.105V373.94C195.105 372.519 194.749 371.435 194.039 370.69C193.328 369.927 192.357 369.546 191.127 369.546C189.879 369.546 188.882 369.936 188.137 370.716C187.409 371.496 187.045 372.631 187.045 374.122V382H184.679V367.752H187.045V369.78C187.513 369.052 188.145 368.489 188.943 368.09C189.757 367.691 190.65 367.492 191.621 367.492ZM214.31 374.33C214.31 374.781 214.284 375.257 214.232 375.76H202.844C202.93 377.164 203.407 378.265 204.274 379.062C205.158 379.842 206.224 380.232 207.472 380.232C208.494 380.232 209.344 379.998 210.02 379.53C210.713 379.045 211.198 378.403 211.476 377.606H214.024C213.642 378.975 212.88 380.093 211.736 380.96C210.592 381.809 209.17 382.234 207.472 382.234C206.12 382.234 204.906 381.931 203.832 381.324C202.774 380.717 201.942 379.859 201.336 378.75C200.729 377.623 200.426 376.323 200.426 374.85C200.426 373.377 200.72 372.085 201.31 370.976C201.899 369.867 202.722 369.017 203.78 368.428C204.854 367.821 206.085 367.518 207.472 367.518C208.824 367.518 210.02 367.813 211.06 368.402C212.1 368.991 212.897 369.806 213.452 370.846C214.024 371.869 214.31 373.03 214.31 374.33ZM211.866 373.836C211.866 372.935 211.666 372.163 211.268 371.522C210.869 370.863 210.323 370.369 209.63 370.04C208.954 369.693 208.2 369.52 207.368 369.52C206.172 369.52 205.149 369.901 204.3 370.664C203.468 371.427 202.991 372.484 202.87 373.836H211.866ZM230.069 367.752V382H227.703V379.894C227.252 380.622 226.619 381.194 225.805 381.61C225.007 382.009 224.123 382.208 223.153 382.208C222.043 382.208 221.047 381.983 220.163 381.532C219.279 381.064 218.577 380.371 218.057 379.452C217.554 378.533 217.303 377.415 217.303 376.098V367.752H219.643V375.786C219.643 377.19 219.998 378.273 220.709 379.036C221.419 379.781 222.39 380.154 223.621 380.154C224.886 380.154 225.883 379.764 226.611 378.984C227.339 378.204 227.703 377.069 227.703 375.578V367.752H230.069ZM236.43 370.066C236.846 369.251 237.435 368.619 238.198 368.168C238.978 367.717 239.922 367.492 241.032 367.492V369.936H240.408C237.756 369.936 236.43 371.375 236.43 374.252V382H234.064V367.752H236.43V370.066ZM249.977 382.234C248.642 382.234 247.429 381.931 246.337 381.324C245.262 380.717 244.413 379.859 243.789 378.75C243.182 377.623 242.879 376.323 242.879 374.85C242.879 373.394 243.191 372.111 243.815 371.002C244.456 369.875 245.323 369.017 246.415 368.428C247.507 367.821 248.729 367.518 250.081 367.518C251.433 367.518 252.655 367.821 253.747 368.428C254.839 369.017 255.697 369.867 256.321 370.976C256.962 372.085 257.283 373.377 257.283 374.85C257.283 376.323 256.953 377.623 256.295 378.75C255.653 379.859 254.778 380.717 253.669 381.324C252.559 381.931 251.329 382.234 249.977 382.234ZM249.977 380.154C250.826 380.154 251.623 379.955 252.369 379.556C253.114 379.157 253.712 378.559 254.163 377.762C254.631 376.965 254.865 375.994 254.865 374.85C254.865 373.706 254.639 372.735 254.189 371.938C253.738 371.141 253.149 370.551 252.421 370.17C251.693 369.771 250.904 369.572 250.055 369.572C249.188 369.572 248.391 369.771 247.663 370.17C246.952 370.551 246.38 371.141 245.947 371.938C245.513 372.735 245.297 373.706 245.297 374.85C245.297 376.011 245.505 376.991 245.921 377.788C246.354 378.585 246.926 379.183 247.637 379.582C248.347 379.963 249.127 380.154 249.977 380.154ZM267.336 367.492C269.069 367.492 270.473 368.021 271.548 369.078C272.622 370.118 273.16 371.626 273.16 373.602V382H270.82V373.94C270.82 372.519 270.464 371.435 269.754 370.69C269.043 369.927 268.072 369.546 266.842 369.546C265.594 369.546 264.597 369.936 263.852 370.716C263.124 371.496 262.76 372.631 262.76 374.122V382H260.394V367.752H262.76V369.78C263.228 369.052 263.86 368.489 264.658 368.09C265.472 367.691 266.365 367.492 267.336 367.492ZM290.024 374.33C290.024 374.781 289.998 375.257 289.946 375.76H278.558C278.645 377.164 279.122 378.265 279.988 379.062C280.872 379.842 281.938 380.232 283.186 380.232C284.209 380.232 285.058 379.998 285.734 379.53C286.428 379.045 286.913 378.403 287.19 377.606H289.738C289.357 378.975 288.594 380.093 287.45 380.96C286.306 381.809 284.885 382.234 283.186 382.234C281.834 382.234 280.621 381.931 279.546 381.324C278.489 380.717 277.657 379.859 277.05 378.75C276.444 377.623 276.14 376.323 276.14 374.85C276.14 373.377 276.435 372.085 277.024 370.976C277.614 369.867 278.437 369.017 279.494 368.428C280.569 367.821 281.8 367.518 283.186 367.518C284.538 367.518 285.734 367.813 286.774 368.402C287.814 368.991 288.612 369.806 289.166 370.846C289.738 371.869 290.024 373.03 290.024 374.33ZM287.58 373.836C287.58 372.935 287.381 372.163 286.982 371.522C286.584 370.863 286.038 370.369 285.344 370.04C284.668 369.693 283.914 369.52 283.082 369.52C281.886 369.52 280.864 369.901 280.014 370.664C279.182 371.427 278.706 372.484 278.584 373.836H287.58ZM298.192 382.234C297.1 382.234 296.12 382.052 295.254 381.688C294.387 381.307 293.702 380.787 293.2 380.128C292.697 379.452 292.42 378.681 292.368 377.814H294.812C294.881 378.525 295.21 379.105 295.8 379.556C296.406 380.007 297.195 380.232 298.166 380.232C299.067 380.232 299.778 380.033 300.298 379.634C300.818 379.235 301.078 378.733 301.078 378.126C301.078 377.502 300.8 377.043 300.246 376.748C299.691 376.436 298.833 376.133 297.672 375.838C296.614 375.561 295.748 375.283 295.072 375.006C294.413 374.711 293.841 374.287 293.356 373.732C292.888 373.16 292.654 372.415 292.654 371.496C292.654 370.768 292.87 370.101 293.304 369.494C293.737 368.887 294.352 368.411 295.15 368.064C295.947 367.7 296.857 367.518 297.88 367.518C299.457 367.518 300.731 367.917 301.702 368.714C302.672 369.511 303.192 370.603 303.262 371.99H300.896C300.844 371.245 300.54 370.647 299.986 370.196C299.448 369.745 298.72 369.52 297.802 369.52C296.952 369.52 296.276 369.702 295.774 370.066C295.271 370.43 295.02 370.907 295.02 371.496C295.02 371.964 295.167 372.354 295.462 372.666C295.774 372.961 296.155 373.203 296.606 373.394C297.074 373.567 297.715 373.767 298.53 373.992C299.552 374.269 300.384 374.547 301.026 374.824C301.667 375.084 302.213 375.483 302.664 376.02C303.132 376.557 303.374 377.259 303.392 378.126C303.392 378.906 303.175 379.608 302.742 380.232C302.308 380.856 301.693 381.35 300.896 381.714C300.116 382.061 299.214 382.234 298.192 382.234Z" fill="url(#paint7_radial_139373_148)"/>
<g style="mix-blend-mode:color-burn" filter="url(#filter3_d_139373_148)">
<path d="M402.954 314.729C396.492 314.788 391.173 319.257 389.693 325.244C389.52 325.245 389.39 325.203 389.217 325.205C381.588 325.275 375.442 331.52 375.511 339.131C375.521 340.166 375.66 341.178 375.906 342.147C369.619 344.792 365.245 350.999 365.311 358.201C365.336 360.917 366.051 363.434 367.174 365.709C362.014 368.732 358.542 374.284 358.601 380.688C358.666 387.868 363.132 393.994 369.423 396.524C369.238 397.518 369.139 398.532 369.148 399.567C369.227 408.149 376.25 415.028 384.852 414.949C385.738 414.941 386.601 414.825 387.443 414.667C389.574 420.793 395.364 425.203 402.237 425.14C410.839 425.061 417.734 418.055 417.656 409.473L416.913 328.401C416.843 320.79 410.584 314.659 402.954 314.729ZM483.089 379.547C483.031 373.144 479.457 367.656 474.243 364.728C475.346 362.432 475.993 359.903 475.968 357.187C475.902 349.985 471.415 343.859 465.08 341.329C465.287 340.357 465.429 339.342 465.42 338.307C465.35 330.696 459.091 324.565 451.461 324.635C451.288 324.636 451.138 324.681 450.986 324.682C449.397 318.724 443.997 314.353 437.534 314.412C429.905 314.482 423.759 320.705 423.829 328.338L424.572 409.41C424.65 417.991 431.673 424.871 440.275 424.792C447.148 424.729 452.856 420.213 454.874 414.049C455.719 414.192 456.584 414.292 457.47 414.284C466.072 414.205 472.968 407.198 472.889 398.617C472.88 397.582 472.762 396.569 472.559 395.579C478.803 392.935 483.155 386.727 483.089 379.547Z" fill="#4F4F4F"/>
</g>
<g style="mix-blend-mode:color-burn" filter="url(#filter4_d_139373_148)">
<path d="M212.281 176.349L212.237 187.555C212.197 197.431 188.683 205.391 159.739 205.276C130.796 205.16 107.346 197.012 107.385 187.136L107.43 175.93C107.469 166.054 130.984 158.094 159.927 158.209C188.871 158.325 212.321 166.473 212.281 176.349ZM212.181 201.563L212.08 226.777C212.04 236.653 188.526 244.614 159.582 244.498C130.639 244.382 107.189 236.234 107.228 226.358L107.329 201.144C118.56 209.314 139.16 213.178 159.707 213.26C180.254 213.343 200.885 209.643 212.181 201.563ZM212.024 240.785L211.923 265.999C211.884 275.875 188.369 283.836 159.426 283.72C130.482 283.604 107.032 275.456 107.072 265.58L107.172 240.366C118.403 248.536 139.003 252.4 159.551 252.483C180.098 252.565 200.728 248.865 212.024 240.785Z" fill="#4F4F4F"/>
</g>
<g style="mix-blend-mode:color-burn" filter="url(#filter5_d_139373_148)">
<path d="M438.786 114.774L429.662 132.967C428.56 135.181 425.366 135.108 424.356 132.857L413.911 109.741L408.403 122.864L391.128 122.864L424.632 156.998C425.935 158.334 428.046 158.334 429.35 156.998L462.872 122.864L442.843 122.864L438.786 114.774ZM466.966 83.6779L466.525 83.2204C457.071 73.5932 441.595 73.5932 432.122 83.2204L427 88.4549L421.878 83.2387C412.424 73.5932 396.929 73.5932 387.475 83.2387L387.034 83.6779C378.093 92.7926 377.708 107.307 385.694 117.007L404.493 117.007L411.083 101.23C412.075 98.869 415.416 98.8141 416.481 101.157L427.165 124.822L436.161 106.904C437.244 104.744 440.328 104.744 441.411 106.904L446.478 117.007L468.306 117.007C476.292 107.307 475.907 92.7926 466.966 83.6779Z" fill="#4F4F4F"/>
</g>
</g>
<defs>
<filter id="filter0_d_139373_148" x="50" y="69" width="350" height="114" filterUnits="userSpaceOnUse" color-interpolation-filters="sRGB">
<feFlood flood-opacity="0" result="BackgroundImageFix"/>
<feColorMatrix in="SourceAlpha" type="matrix" values="0 0 0 0 0 0 0 0 0 0 0 0 0 0 0 0 0 0 127 0" result="hardAlpha"/>
<feOffset dy="10"/>
<feGaussianBlur stdDeviation="15"/>
<feComposite in2="hardAlpha" operator="out"/>
<feColorMatrix type="matrix" values="0 0 0 0 0.156719 0 0 0 0 0.187018 0 0 0 0 0.245833 0 0 0 0.25 0"/>
<feBlend mode="normal" in2="BackgroundImageFix" result="effect1_dropShadow_139373_148"/>
<feBlend mode="normal" in="SourceGraphic" in2="effect1_dropShadow_139373_148" result="shape"/>
</filter>
<filter id="filter1_d_139373_148" x="225" y="174" width="266" height="114" filterUnits="userSpaceOnUse" color-interpolation-filters="sRGB">
<feFlood flood-opacity="0" result="BackgroundImageFix"/>
<feColorMatrix in="SourceAlpha" type="matrix" values="0 0 0 0 0 0 0 0 0 0 0 0 0 0 0 0 0 0 127 0" result="hardAlpha"/>
<feOffset dy="10"/>
<feGaussianBlur stdDeviation="15"/>
<feComposite in2="hardAlpha" operator="out"/>
<feColorMatrix type="matrix" values="0 0 0 0 0.156719 0 0 0 0 0.187018 0 0 0 0 0.245833 0 0 0 0.25 0"/>
<feBlend mode="normal" in2="BackgroundImageFix" result="effect1_dropShadow_139373_148"/>
<feBlend mode="normal" in="SourceGraphic" in2="effect1_dropShadow_139373_148" result="shape"/>
</filter>
<filter id="filter2_d_139373_148" x="-3" y="325" width="350" height="114" filterUnits="userSpaceOnUse" color-interpolation-filters="sRGB">
<feFlood flood-opacity="0" result="BackgroundImageFix"/>
<feColorMatrix in="SourceAlpha" type="matrix" values="0 0 0 0 0 0 0 0 0 0 0 0 0 0 0 0 0 0 127 0" result="hardAlpha"/>
<feOffset dy="10"/>
<feGaussianBlur stdDeviation="15"/>
<feComposite in2="hardAlpha" operator="out"/>
<feColorMatrix type="matrix" values="0 0 0 0 0.156719 0 0 0 0 0.187018 0 0 0 0 0.245833 0 0 0 0.25 0"/>
<feBlend mode="normal" in2="BackgroundImageFix" result="effect1_dropShadow_139373_148"/>
<feBlend mode="normal" in="SourceGraphic" in2="effect1_dropShadow_139373_148" result="shape"/>
</filter>
<filter id="filter3_d_139373_148" x="354.6" y="310.411" width="128.49" height="114.73" filterUnits="userSpaceOnUse" color-interpolation-filters="sRGB">
<feFlood flood-opacity="0" result="BackgroundImageFix"/>
<feColorMatrix in="SourceAlpha" type="matrix" values="0 0 0 0 0 0 0 0 0 0 0 0 0 0 0 0 0 0 127 0" result="hardAlpha"/>
<feOffset dx="-2" dy="-2"/>
<feGaussianBlur stdDeviation="1"/>
<feColorMatrix type="matrix" values="0 0 0 0 0 0 0 0 0 0 0 0 0 0 0 0 0 0 0.25 0"/>
<feBlend mode="normal" in2="BackgroundImageFix" result="effect1_dropShadow_139373_148"/>
<feBlend mode="normal" in="SourceGraphic" in2="effect1_dropShadow_139373_148" result="shape"/>
</filter>
<filter id="filter4_d_139373_148" x="103.072" y="154.208" width="109.21" height="129.513" filterUnits="userSpaceOnUse" color-interpolation-filters="sRGB">
<feFlood flood-opacity="0" result="BackgroundImageFix"/>
<feColorMatrix in="SourceAlpha" type="matrix" values="0 0 0 0 0 0 0 0 0 0 0 0 0 0 0 0 0 0 127 0" result="hardAlpha"/>
<feOffset dx="-2" dy="-2"/>
<feGaussianBlur stdDeviation="1"/>
<feColorMatrix type="matrix" values="0 0 0 0 0 0 0 0 0 0 0 0 0 0 0 0 0 0 0.25 0"/>
<feBlend mode="normal" in2="BackgroundImageFix" result="effect1_dropShadow_139373_148"/>
<feBlend mode="normal" in="SourceGraphic" in2="effect1_dropShadow_139373_148" result="shape"/>
</filter>
<filter id="filter5_d_139373_148" x="376" y="72" width="98" height="86" filterUnits="userSpaceOnUse" color-interpolation-filters="sRGB">
<feFlood flood-opacity="0" result="BackgroundImageFix"/>
<feColorMatrix in="SourceAlpha" type="matrix" values="0 0 0 0 0 0 0 0 0 0 0 0 0 0 0 0 0 0 127 0" result="hardAlpha"/>
<feOffset dx="-2" dy="-2"/>
<feGaussianBlur stdDeviation="1"/>
<feColorMatrix type="matrix" values="0 0 0 0 0 0 0 0 0 0 0 0 0 0 0 0 0 0 0.25 0"/>
<feBlend mode="normal" in2="BackgroundImageFix" result="effect1_dropShadow_139373_148"/>
<feBlend mode="normal" in="SourceGraphic" in2="effect1_dropShadow_139373_148" result="shape"/>
</filter>
<radialGradient id="paint0_radial_139373_148" cx="0" cy="0" r="1" gradientUnits="userSpaceOnUse" gradientTransform="translate(145.35 252.932) rotate(105.172) scale(22.2307 83.3814)">
<stop offset="0.00887753" stop-color="#DEF9FA"/>
<stop offset="0.1723" stop-color="#BEF3F5"/>
<stop offset="0.4204" stop-color="#9DEDF0"/>
<stop offset="0.5512" stop-color="#7DE7EB"/>
<stop offset="0.7154" stop-color="#5CE1E6"/>
<stop offset="1" stop-color="#33BBCF"/>
</radialGradient>
<radialGradient id="paint1_radial_139373_148" cx="0" cy="0" r="1" gradientUnits="userSpaceOnUse" gradientTransform="translate(440.35 247.932) rotate(105.172) scale(22.2307 83.3814)">
<stop offset="0.00887753" stop-color="#DEF9FA"/>
<stop offset="0.1723" stop-color="#BEF3F5"/>
<stop offset="0.4204" stop-color="#9DEDF0"/>
<stop offset="0.5512" stop-color="#7DE7EB"/>
<stop offset="0.7154" stop-color="#5CE1E6"/>
<stop offset="1" stop-color="#33BBCF"/>
</radialGradient>
<linearGradient id="paint2_linear_139373_148" x1="-431.378" y1="-2297.49" x2="1309.22" y2="-241.068" gradientUnits="userSpaceOnUse">
<stop stop-color="white" stop-opacity="0"/>
<stop offset="1" stop-color="#14101D"/>
</linearGradient>
<radialGradient id="paint3_radial_139373_148" cx="0" cy="0" r="1" gradientUnits="userSpaceOnUse" gradientTransform="translate(441.77 17.4214) rotate(93.8705) scale(20.5841)">
<stop offset="0.00887753" stop-color="#DEF9FA"/>
<stop offset="0.1723" stop-color="#BEF3F5"/>
<stop offset="0.4204" stop-color="#9DEDF0"/>
<stop offset="0.5512" stop-color="#7DE7EB"/>
<stop offset="0.7154" stop-color="#5CE1E6"/>
<stop offset="1" stop-color="#33BBCF"/>
</radialGradient>
<radialGradient id="paint4_radial_139373_148" cx="0" cy="0" r="1" gradientUnits="userSpaceOnUse" gradientTransform="translate(154.868 463.049) rotate(93.8705) scale(64.9684)">
<stop offset="0.00887753" stop-color="#DEF9FA"/>
<stop offset="0.1723" stop-color="#BEF3F5"/>
<stop offset="0.4204" stop-color="#9DEDF0"/>
<stop offset="0.5512" stop-color="#7DE7EB"/>
<stop offset="0.7154" stop-color="#5CE1E6"/>
<stop offset="1" stop-color="#33BBCF"/>
</radialGradient>
<radialGradient id="paint5_radial_139373_148" cx="0" cy="0" r="1" gradientUnits="userSpaceOnUse" gradientTransform="translate(288.565 110.92) rotate(114.689) scale(27.5477 155.234)">
<stop offset="0.00887753" stop-color="#DEF9FA"/>
<stop offset="0.1723" stop-color="#BEF3F5"/>
<stop offset="0.4204" stop-color="#9DEDF0"/>
<stop offset="0.5512" stop-color="#7DE7EB"/>
<stop offset="0.7154" stop-color="#5CE1E6"/>
<stop offset="1" stop-color="#33BBCF"/>
</radialGradient>
<radialGradient id="paint6_radial_139373_148" cx="0" cy="0" r="1" gradientUnits="userSpaceOnUse" gradientTransform="translate(418.565 215.92) rotate(114.689) scale(27.5477 155.234)">
<stop offset="0.00887753" stop-color="#DEF9FA"/>
<stop offset="0.1723" stop-color="#BEF3F5"/>
<stop offset="0.4204" stop-color="#9DEDF0"/>
<stop offset="0.5512" stop-color="#7DE7EB"/>
<stop offset="0.7154" stop-color="#5CE1E6"/>
<stop offset="1" stop-color="#33BBCF"/>
</radialGradient>
<radialGradient id="paint7_radial_139373_148" cx="0" cy="0" r="1" gradientUnits="userSpaceOnUse" gradientTransform="translate(233.354 366.92) rotate(116.706) scale(28.0185 167.024)">
<stop offset="0.00887753" stop-color="#DEF9FA"/>
<stop offset="0.1723" stop-color="#BEF3F5"/>
<stop offset="0.4204" stop-color="#9DEDF0"/>
<stop offset="0.5512" stop-color="#7DE7EB"/>
<stop offset="0.7154" stop-color="#5CE1E6"/>
<stop offset="1" stop-color="#33BBCF"/>
</radialGradient>
<clipPath id="clip0_139373_148">
<rect width="555" height="538.658" fill="white"/>
</clipPath>
</defs>
</svg>
