<svg width="179" height="167" viewBox="0 0 179 167" fill="none" xmlns="http://www.w3.org/2000/svg">
<path d="M30 93.2521L36.1735 115.829L36.409 116.691L37.2072 117.09L55.5332 126.267L37.2072 135.444L36.409 135.843L36.1735 136.705L30 159.282L23.8265 136.705L23.591 135.843L22.7928 135.444L4.46678 126.267L22.7928 117.09L23.591 116.691L23.8265 115.829L30 93.2521Z" stroke="white" stroke-width="4"/>
<path d="M64 6.79118L68.8598 21.0094L69.1566 21.8778L70.0085 22.2191L83.6218 27.6726L70.0085 33.126L69.1566 33.4673L68.8598 34.3358L64 48.554L59.1402 34.3358L58.8434 33.4673L57.9915 33.126L44.3782 27.6726L57.9915 22.2191L58.8434 21.8778L59.1402 21.0094L64 6.79118Z" stroke="white" stroke-width="4"/>
<path d="M130.5 40.849L141.739 69.3005L142.077 70.1547L142.944 70.4554L172.893 80.8362L142.944 91.2169L142.077 91.5177L141.739 92.3718L130.5 120.823L119.261 92.3718L118.923 91.5177L118.056 91.2169L88.1069 80.8362L118.056 70.4554L118.923 70.1547L119.261 69.3005L130.5 40.849Z" stroke="white" stroke-width="4"/>
</svg>
