<svg width="26" height="26" viewBox="0 0 26 26" fill="none" xmlns="http://www.w3.org/2000/svg">
<path d="M22.5866 12.9955L24.832 10.798C25.5013 10.1644 25.1892 9.03828 24.3113 8.82832L21.2522 8.04756L22.1146 5.01948C22.3583 4.14848 21.537 3.32695 20.6663 3.5707L17.6392 4.43335L16.8588 1.37324C16.6522 0.509031 15.5135 0.192966 14.8898 0.852341L12.693 3.11513L10.4963 0.85239C9.87956 0.200486 8.73616 0.499167 8.52727 1.37329L7.7468 4.4334L4.7197 3.57075C3.84875 3.3269 3.02776 4.14873 3.27141 5.01953L4.13376 8.0476L1.07468 8.82837C0.196361 9.03838 -0.115114 10.1646 0.553929 10.798L2.79929 12.9955L0.553929 15.193C-0.115407 15.8266 0.196703 16.9527 1.07463 17.1626L4.13371 17.9434L3.27136 20.9715C3.02766 21.8425 3.84895 22.664 4.71965 22.4203L7.7467 21.5576L8.52717 24.6177C8.74392 25.5247 9.87952 25.7905 10.4962 25.1386L12.693 22.8925L14.8897 25.1386C15.5001 25.7972 16.6469 25.5041 16.8587 24.6177L17.6392 21.5576L20.6662 22.4203C21.5371 22.6641 22.3582 21.8423 22.1145 20.9715L21.2522 17.9434L24.3113 17.1626C25.1895 16.9526 25.501 15.8264 24.832 15.193L22.5866 12.9955Z" fill="#a6691f"/>
<text x="0" y="15" fill="primary">Certificate</text>
</svg>
