<svg width="56" height="39" viewBox="0 0 56 39" fill="none" xmlns="http://www.w3.org/2000/svg">
<path opacity="0.45" d="M28.085 38.4017C43.1597 38.4017 55.38 37.6067 55.38 36.626C55.38 35.6452 43.1597 34.8502 28.085 34.8502C13.0104 34.8502 0.790039 35.6452 0.790039 36.626C0.790039 37.6067 13.0104 38.4017 28.085 38.4017Z" fill="#E6E6E6"/>
<path d="M23.7482 23.7555L21.7834 34.5417H31.37L29.4051 23.7555H23.7482Z" fill="#C9C9C9"/>
<path d="M8.38315 0.900269H45.8042V26.547H8.38315V0.900269Z" fill="#E6E6E6"/>
<path d="M20.474 33.4751H32.6202V35.6515H20.474V33.4751Z" fill="#E6E6E6"/>
<path opacity="0.56" d="M8.38315 0.900269H45.8042V23.5994H8.38315V0.900269Z" fill="white"/>
<path d="M11.2554 4.0362C11.6904 4.0362 12.0431 3.66479 12.0431 3.20664C12.0431 2.74848 11.6904 2.37708 11.2554 2.37708C10.8203 2.37708 10.4677 2.74848 10.4677 3.20664C10.4677 3.66479 10.8203 4.0362 11.2554 4.0362Z" fill="#24285B"/>
<path d="M13.5989 4.0362C14.0339 4.0362 14.3866 3.66479 14.3866 3.20664C14.3866 2.74848 14.0339 2.37708 13.5989 2.37708C13.1638 2.37708 12.8112 2.74848 12.8112 3.20664C12.8112 3.66479 13.1638 4.0362 13.5989 4.0362Z" fill="#68E1FD"/>
<path d="M15.8049 4.0362C16.2399 4.0362 16.5926 3.66479 16.5926 3.20664C16.5926 2.74848 16.2399 2.37708 15.8049 2.37708C15.3698 2.37708 15.0172 2.74848 15.0172 3.20664C15.0172 3.66479 15.3698 4.0362 15.8049 4.0362Z" fill="#FFD200"/>
<path d="M37.5769 18.6051H42.5783V20.2021H37.5769V18.6051Z" fill="#C9C9C9"/>
<path opacity="0.3" d="M37.5769 4.88263H42.5783V16.1804H37.5769V4.88263Z" fill="#C9C9C9"/>
<path opacity="0.58" d="M6.57374 34.6922C6.57374 34.6922 5.08762 34.2652 4.76431 32.8111C4.76431 32.8111 7.06673 32.3201 7.13282 34.822L6.57374 34.6922Z" fill="#68E1FD"/>
<path opacity="0.73" d="M6.75598 34.5379C6.75598 34.5379 5.7182 32.8092 6.63095 31.1934C6.63095 31.1934 8.38143 32.3634 7.60443 34.5417L6.75598 34.5379Z" fill="#68E1FD"/>
<path d="M7.0239 34.5378C7.0239 34.5378 7.57226 32.7132 9.22986 32.3671C9.22986 32.3671 9.54066 33.5522 8.15814 34.5435L7.0239 34.5378Z" fill="#68E1FD"/>
<path opacity="0.08" d="M41.4155 13.9927C41.4155 13.9927 38.7522 15.7139 39.9472 17.7417C41.1422 19.7695 41.6245 21.4945 40.467 21.7352C39.3095 21.976 37.4304 23.2213 38.1449 26.5471H43.8715L44.2877 21.0185L41.9853 16.2744L41.4155 13.9927Z" fill="black"/>
<path d="M5.94501 34.4965L6.24688 36.6672L8.14383 36.6748L8.42247 34.5077L5.94501 34.4965Z" fill="#24285B"/>
<path d="M42.0086 15.5427L43.25 17.4219L42.3962 18.2778L41.8514 16.4645L42.0086 15.5427Z" fill="#F4A28C"/>
<path opacity="0.31" d="M41.9531 16.8199C42.0843 16.7043 42.1804 16.5506 42.2294 16.3778C42.3349 16.73 42.3094 17.1113 42.1581 17.4444L41.9531 16.8199Z" fill="#CE8172"/>
<path d="M40.7456 16.0749C40.9149 16.47 41.1336 16.8394 41.3958 17.1735C41.4292 17.211 41.4693 17.2412 41.5139 17.2623C41.5585 17.2833 41.6065 17.2949 41.6554 17.2963C41.7042 17.2977 41.7528 17.2889 41.7984 17.2704C41.844 17.2519 41.8856 17.2241 41.9209 17.1885C42.0421 17.0815 42.1312 16.9398 42.1775 16.7806C42.2238 16.6213 42.2252 16.4514 42.1817 16.2913L42.062 15.584C42.0247 15.4435 41.9465 15.3189 41.8386 15.2275C41.7307 15.1361 41.5983 15.0825 41.4601 15.0742C40.951 15.0178 40.542 15.6517 40.7456 16.0749Z" fill="#F4A28C"/>
<path d="M40.9581 16.5133L40.9171 16.8895C40.9148 16.9104 40.9176 16.9315 40.9251 16.9509C40.9327 16.9703 40.9447 16.9874 40.9602 17.0005C40.9757 17.0137 40.9941 17.0225 41.0137 17.0261C41.0333 17.0297 41.0534 17.028 41.0722 17.0212L41.3449 16.9253L40.9581 16.5133Z" fill="#F4A28C"/>
<path d="M40.6207 15.7176C40.6207 15.7176 40.685 16.5697 41.7371 16.2556L42.4926 16.28C42.4926 16.28 42.5534 15.537 42.2193 15.0291C41.8853 14.5212 40.4528 14.4949 40.6207 15.7176Z" fill="#24285B"/>
<path d="M42.0675 15.1985C42.6998 15.1985 43.2125 14.6586 43.2125 13.9927C43.2125 13.3268 42.6998 12.7869 42.0675 12.7869C41.4352 12.7869 40.9225 13.3268 40.9225 13.9927C40.9225 14.6586 41.4352 15.1985 42.0675 15.1985Z" fill="#24285B"/>
<path d="M41.7405 16.2556C41.7405 16.2556 41.6068 15.9922 41.8047 15.9019C42.0026 15.8116 42.1969 16.1935 41.9616 16.3778L41.7405 16.2556Z" fill="#F4A28C"/>
<path d="M42.1406 18.4301C42.1406 18.4301 39.2238 21.0467 39.2702 22.9202C39.3014 24.06 39.5575 25.1804 40.0222 26.2102L40.9403 25.8547C40.9403 25.8547 39.8686 22.6794 42.2514 21.3119C44.6342 19.9443 42.1406 18.4301 42.1406 18.4301Z" fill="#68E1FD"/>
<path opacity="0.08" d="M42.1406 18.4301C42.1406 18.4301 39.2238 21.0467 39.2702 22.9202C39.3014 24.06 39.5575 25.1804 40.0222 26.2102L40.9403 25.8547C40.9403 25.8547 39.8686 22.6794 42.2514 21.3119C44.6342 19.9443 42.1406 18.4301 42.1406 18.4301Z" fill="black"/>
<path d="M41.1708 14.7411C41.1708 14.7411 41.1708 14.5382 41.7205 14.5382C42.2703 14.5382 42.3863 15.0022 42.306 15.1788C42.306 15.1788 41.9919 14.51 41.1708 14.7411Z" fill="#FFD200"/>
<path d="M42.1407 18.4301L42.0782 17.6381L43.2142 16.6769L43.6268 17.292C43.6268 17.292 45.5399 16.6769 46.3615 18.7668C47.1832 20.8567 46.2472 23.7554 46.2472 23.7554L42.782 24.2652C42.782 24.2652 43.0034 23.6407 42.3783 22.7754C41.7531 21.9101 40.6314 20.567 42.1407 18.4301Z" fill="#68E1FD"/>
<path d="M51.024 18.1279L51.2347 18.4411L34.9357 30.5989L34.7251 30.2858L51.024 18.1279Z" fill="#24285B"/>
<path d="M33.5083 28.48L36.1616 32.425L34.5247 33.646L31.8714 29.701L33.5083 28.48Z" fill="#FFD200"/>
<path d="M33.5089 28.4789L36.1622 32.4239L35.4713 32.9393L32.818 28.9942L33.5089 28.4789Z" fill="#24285B"/>
<path d="M43.6268 17.2922C43.6268 17.2922 45.0165 15.4769 46.9081 15.2606C48.7997 15.0443 49.5535 17.0138 49.1212 19.8467L48.2156 20.1778C48.2156 20.1778 48.2995 17.2527 47.3225 16.9178C46.3454 16.583 45.0183 21.2199 43.6268 17.2922Z" fill="#68E1FD"/>
<path d="M48.3227 19.9425C48.3227 19.9425 47.9565 20.8304 48.5728 20.9508C49.189 21.0712 49.498 19.9425 49.498 19.9425C49.498 19.9425 49.4177 19.4873 49.1408 19.4027C48.8639 19.318 48.3227 19.9425 48.3227 19.9425Z" fill="#FFD200"/>
<path d="M39.3613 24.5776L40.7617 24.4327L41.0011 26.2818L39.9508 26.5941L39.3613 24.5776Z" fill="#FFD200"/>
<path d="M43.3482 29.3575L41.328 36.1783H40.8582L41.2958 29.1487L43.3482 29.3575Z" fill="#F4A28C"/>
<path opacity="0.08" d="M26.1327 16.0016C28.7183 16.0016 30.8143 15.6732 30.8143 15.268C30.8143 14.8628 28.7183 14.5344 26.1327 14.5344C23.5471 14.5344 21.451 14.8628 21.451 15.268C21.451 15.6732 23.5471 16.0016 26.1327 16.0016Z" fill="black"/>
<path d="M40.8921 36.1781C40.8921 36.1781 40.6331 36.5242 40.3009 36.5073C39.9687 36.4904 39.9204 36.9851 40.4545 36.9343C40.6204 36.9188 40.7847 36.8885 40.9457 36.844C41.0946 36.8082 41.2498 36.814 41.3958 36.8609C41.4243 36.8682 41.4543 36.8659 41.4815 36.8545C41.5087 36.843 41.5318 36.8229 41.5477 36.797C41.6995 36.6089 41.328 36.1781 41.328 36.1781H40.8921Z" fill="#68E1FD"/>
<path d="M45.104 28.7178L46.7312 35.6552L46.3293 35.9129L43.2463 29.6583L45.104 28.7178Z" fill="#F4A28C"/>
<path d="M46.3579 35.8942C46.3579 35.8942 46.3061 36.3306 46.015 36.498C45.7238 36.6654 45.9239 37.1131 46.3544 36.7783C46.4897 36.6758 46.6158 36.5606 46.7312 36.434C46.8413 36.3218 46.9774 36.242 47.126 36.2027C47.1536 36.1929 47.1777 36.1745 47.1953 36.15C47.2128 36.1255 47.2229 36.096 47.2242 36.0653C47.2618 35.8227 46.7312 35.6553 46.7312 35.6553L46.3579 35.8942Z" fill="#68E1FD"/>
<path opacity="0.08" d="M39.3613 24.5776L40.7617 24.4327L41.0011 26.2818L39.9508 26.5941L39.3613 24.5776Z" fill="black"/>
<path d="M40.9403 25.8547C40.9403 25.8547 39.7489 25.6102 39.4757 26.2103C39.2024 26.8103 39.8454 27.2674 40.4009 27.0022C40.9564 26.737 41.1761 26.293 40.9403 25.8547Z" fill="#FFD200"/>
<path d="M46.2472 23.7555V28.0293C46.2474 28.7747 46.2862 29.5194 46.3633 30.2603L46.6937 33.4751L40.1758 33.0989C40.1758 33.0989 40.6099 27.3841 42.7766 24.2577C42.7819 24.2653 44.5931 23.9154 46.2472 23.7555Z" fill="#24285B"/>
<path d="M49.8607 32.7904H53.2366L53.0079 36.5582H50.2715L49.8607 32.7904Z" fill="#C9C9C9"/>
<path d="M50.1357 32.7904V31.6279C50.1355 31.4339 50.1716 31.2418 50.242 31.0625C50.3124 30.8833 50.4157 30.7204 50.5459 30.5832C50.6762 30.446 50.8308 30.3373 51.0011 30.2632C51.1713 30.189 51.3537 30.151 51.5379 30.1513C51.7225 30.1505 51.9054 30.1882 52.0761 30.262C52.2469 30.3359 52.4021 30.4446 52.5329 30.5818C52.6636 30.719 52.7674 30.882 52.8382 31.0615C52.909 31.241 52.9454 31.4335 52.9454 31.6279V32.7923" stroke="#E6E6E6" stroke-width="0.503782" stroke-miterlimit="10"/>
<path d="M35.1316 36.6748C35.1316 36.6748 35.4889 34.4476 33.6258 34.2558C31.7628 34.0639 33.7634 33.6425 32.4398 32.3145C31.1162 30.9864 30.2053 31.8517 29.9391 32.6625C29.673 33.4732 29.7498 34.9762 28.1797 33.9661C26.6096 32.9559 25.3325 31.8047 24.3751 33.1986C23.4177 34.5925 21.41 34.0526 22.0941 36.6748H35.1316Z" fill="#68E1FD"/>
<path opacity="0.44" d="M35.1316 36.6748C35.1316 36.6748 35.4889 34.4476 33.6258 34.2558C31.7628 34.0639 33.7634 33.6425 32.4398 32.3145C31.1162 30.9864 30.2053 31.8517 29.9391 32.6625C29.673 33.4732 29.7498 34.9762 28.1797 33.9661C26.6096 32.9559 25.3325 31.8047 24.3751 33.1986C23.4177 34.5925 21.41 34.0526 22.0941 36.6748H35.1316Z" fill="white"/>
<path d="M22.5211 8.15192L23.1141 15.2436H29.0657L29.5891 8.15192H22.5211Z" fill="#24285B"/>
<path d="M25.8737 36.6747C25.8737 36.6747 26.3524 35.3109 25.5076 34.7824C24.6627 34.2538 23.9125 35.0476 23.9125 35.0476C23.9125 35.0476 23.8214 33.7026 22.2924 33.9189C20.7634 34.1353 21.6887 35.2357 20.474 35.0946C19.2594 34.9535 18.5306 35.7342 18.8272 36.6747H25.8737Z" fill="#68E1FD"/>
<path opacity="0.64" d="M25.8737 36.6747C25.8737 36.6747 26.3524 35.3109 25.5076 34.7824C24.6627 34.2538 23.9125 35.0476 23.9125 35.0476C23.9125 35.0476 23.8214 33.7026 22.2924 33.9189C20.7634 34.1353 21.6887 35.2357 20.474 35.0946C19.2594 34.9535 18.5306 35.7342 18.8272 36.6747H25.8737Z" fill="white"/>
<path d="M26.5096 6.13534C26.5096 6.13534 26.281 4.95026 27.76 4.88254C29.2389 4.81482 28.2851 7.07212 28.9228 7.13984C29.5605 7.20756 26.1238 8.39265 26.5096 6.13534Z" fill="#68E1FD"/>
<path opacity="0.44" d="M26.5096 6.13534C26.5096 6.13534 26.281 4.95026 27.76 4.88254C29.2389 4.81482 28.2851 7.07212 28.9228 7.13984C29.5605 7.20756 26.1238 8.39265 26.5096 6.13534Z" fill="white"/>
<path d="M29.8069 7.64771H22.2816C22.0172 7.64771 21.8029 7.87341 21.8029 8.15184C21.8029 8.43026 22.0172 8.65597 22.2816 8.65597H29.8069C30.0713 8.65597 30.2856 8.43026 30.2856 8.15184C30.2856 7.87341 30.0713 7.64771 29.8069 7.64771Z" fill="#FFD200"/>
<path d="M22.6586 7.6477C22.6586 7.6477 22.2013 6.25382 23.0908 5.91898C23.9804 5.58415 23.7071 6.7824 24.5055 6.15788C25.304 5.53336 24.3912 5.24555 25.3022 4.62103C26.2131 3.99651 26.9455 4.06987 27.0884 5.14962C27.2313 6.22936 27.2134 6.59053 28.0333 6.30272C28.8531 6.01492 29.9981 6.63944 29.5837 7.6477H22.6586Z" fill="#68E1FD"/>
<path d="M20.0971 18.2778H32.1665V19.6905H20.0971V18.2778Z" fill="white"/>
<path d="M20.0971 18.2778H29.0085V19.6905H20.0971V18.2778Z" fill="#C9C9C9"/>
<path d="M5.06262 8.84235H15.6173V20.6424H5.06262V8.84235Z" fill="#C9C9C9"/>
<path d="M7.86518 13.0163L8.57966 11.5228V11.5115H7.74371V11.1465H9.02621V11.5134L8.31173 13.0182L7.86518 13.0163Z" fill="#8E8E8E"/>
<path d="M9.95863 13.0616C9.8177 13.0686 9.67827 13.0287 9.56001 12.9477C9.44175 12.8667 9.35063 12.7486 9.29952 12.6102C9.23487 12.4438 9.20384 12.2651 9.20842 12.0853C9.20367 11.9062 9.23471 11.7281 9.29952 11.5624C9.35273 11.4284 9.44297 11.3144 9.55852 11.2351C9.68016 11.1611 9.81816 11.1222 9.95863 11.1222C10.0991 11.1222 10.2371 11.1611 10.3587 11.2351C10.4748 11.3143 10.5656 11.4283 10.6195 11.5624C10.6837 11.7282 10.7141 11.9064 10.7088 12.0853C10.713 12.2656 10.682 12.4449 10.6177 12.6121C10.5652 12.7484 10.4749 12.8651 10.3587 12.9469C10.2391 13.026 10.0998 13.0659 9.95863 13.0616ZM9.95863 12.6854C10.0054 12.6847 10.0511 12.6702 10.0906 12.6436C10.13 12.617 10.1616 12.5794 10.1819 12.5349C10.2489 12.3934 10.2785 12.2355 10.2676 12.0778C10.2705 11.9648 10.2573 11.8519 10.2283 11.743C10.2086 11.6716 10.1717 11.6068 10.1212 11.5549C10.0765 11.5129 10.0185 11.4901 9.95863 11.4909C9.91223 11.4915 9.86687 11.5055 9.8275 11.5314C9.78814 11.5573 9.75626 11.594 9.73535 11.6377C9.66932 11.7768 9.63972 11.932 9.64961 12.0872C9.64713 12.202 9.65975 12.3166 9.68712 12.4277C9.70604 12.5037 9.74362 12.5731 9.79608 12.629C9.84085 12.6708 9.89879 12.6936 9.95863 12.6929V12.6854Z" fill="#8E8E8E"/>
<path d="M11.0286 11.5962V11.5002C11.0285 11.4257 11.045 11.3523 11.0768 11.2858C11.1086 11.2211 11.1568 11.167 11.2161 11.1296C11.282 11.0886 11.3576 11.0683 11.4341 11.0713C11.5122 11.0684 11.5896 11.0886 11.6573 11.1296C11.7165 11.1667 11.7643 11.2209 11.7949 11.2858C11.827 11.3521 11.8429 11.4258 11.8413 11.5002V11.598C11.8425 11.6724 11.8266 11.746 11.7949 11.8125C11.7626 11.8762 11.7144 11.9296 11.6556 11.9667C11.5879 12.0062 11.5114 12.0257 11.4341 12.0232C11.3565 12.0261 11.2797 12.0058 11.2126 11.9649C11.1543 11.9281 11.1072 11.8746 11.0768 11.8106C11.0443 11.7444 11.0278 11.6707 11.0286 11.5962ZM11.1197 13.0164L12.3397 11.1466H12.5772L11.3573 13.0164H11.1197ZM11.2983 11.4983V11.5962C11.2993 11.6356 11.3091 11.6743 11.3269 11.709C11.3366 11.727 11.351 11.7415 11.3685 11.7509C11.386 11.7603 11.4057 11.764 11.4251 11.7617C11.4451 11.7643 11.4654 11.7607 11.4835 11.7513C11.5016 11.742 11.5167 11.7273 11.5269 11.709C11.5452 11.6746 11.5539 11.6355 11.552 11.5962V11.5002C11.5534 11.4599 11.5454 11.4199 11.5287 11.3836C11.5186 11.3647 11.5033 11.3494 11.4848 11.3396C11.4664 11.3299 11.4456 11.3262 11.4251 11.329C11.4053 11.3268 11.3852 11.331 11.3676 11.3411C11.3501 11.3512 11.3359 11.3667 11.3269 11.3855C11.3128 11.4219 11.3061 11.461 11.3072 11.5002L11.2983 11.4983ZM11.9413 12.6665V12.5668C11.9404 12.493 11.9563 12.4201 11.9878 12.3542C12.0193 12.29 12.0669 12.2361 12.1253 12.1981C12.1917 12.1567 12.2679 12.1358 12.345 12.1379C12.4234 12.1353 12.5008 12.1562 12.5683 12.1981C12.6279 12.2345 12.6758 12.2889 12.7058 12.3542C12.7377 12.42 12.7537 12.493 12.7523 12.5668V12.6665C12.7532 12.7403 12.7373 12.8132 12.7058 12.8791C12.6752 12.944 12.6275 12.9982 12.5683 13.0352C12.5007 13.0769 12.4233 13.0978 12.345 13.0954C12.2673 13.0977 12.1905 13.0768 12.1235 13.0352C12.0656 12.9972 12.0186 12.9432 11.9878 12.8791C11.9594 12.8124 11.9465 12.7395 11.9503 12.6665H11.9413ZM12.2164 12.5668V12.6665C12.2181 12.7052 12.2279 12.7431 12.245 12.7775C12.2545 12.7961 12.2692 12.8113 12.287 12.821C12.3049 12.8307 12.3251 12.8346 12.345 12.832C12.365 12.8346 12.3853 12.831 12.4034 12.8217C12.4215 12.8123 12.4366 12.7976 12.4468 12.7794C12.4649 12.7449 12.4736 12.7058 12.4718 12.6665V12.5668C12.474 12.5271 12.466 12.4874 12.4486 12.4521C12.4368 12.4353 12.4215 12.4217 12.4038 12.4124C12.3861 12.403 12.3666 12.3981 12.3468 12.3981C12.327 12.3981 12.3075 12.403 12.2898 12.4124C12.2722 12.4217 12.2568 12.4353 12.245 12.4521C12.2289 12.488 12.2204 12.5271 12.22 12.5668H12.2164Z" fill="#8E8E8E"/>
<path opacity="0.24" d="M6.88995 14.7413H13.5275V18.7142H6.88995V14.7413Z" fill="white"/>
<path opacity="0.08" d="M41.6924 26.3401L46.2436 23.7555C46.4181 23.1399 46.5471 22.5109 46.6295 21.8744L42.9802 24.5963L42.214 25.1607C42.214 25.1607 41.7781 26.1332 41.6924 26.3401Z" fill="black"/>
</svg>
