<svg width="759" height="401" viewBox="0 0 759 401" fill="none" xmlns="http://www.w3.org/2000/svg">
<path d="M679.368 316.87C679.368 151.258 545.112 17.0029 379.5 17.0029C213.888 17.0029 79.6326 151.258 79.6326 316.87" stroke="#A7CEFC" stroke-width="2" stroke-dasharray="15 15"/>
<line x1="78.0071" y1="315.37" x2="679.367" y2="315.37" stroke="#A7CEFC" stroke-width="3" stroke-dasharray="15 15"/>
<line x1="200.31" y1="75.4517" x2="326.271" y2="250.984" stroke="#A7CEFC" stroke-width="3" stroke-dasharray="15 15"/>
<line x1="580.97" y1="94.4173" x2="456.252" y2="251.977" stroke="#A7CEFC" stroke-width="3" stroke-dasharray="15 15"/>
<rect x="324.115" y="250.108" width="133.525" height="133.525" rx="8.5" stroke="#A7CEFC" stroke-width="3" stroke-dasharray="15 15"/>
<g filter="url(#filter0_d_5_36722)">
<rect x="350.245" y="276.238" width="81.2649" height="81.2649" rx="10" fill="white"/>
</g>
<g filter="url(#filter1_d_5_36722)">
<rect x="39" y="276.238" width="81.2649" height="81.2649" rx="10" fill="white"/>
</g>
<path d="M77.8097 319.999C77.4196 319.999 77.0295 319.851 76.7324 319.553C76.1374 318.958 76.1374 317.993 76.7324 317.398L86.6068 307.524C87.2011 306.929 88.1671 306.929 88.7614 307.524C89.3564 308.119 89.3564 309.083 88.7614 309.678L78.8869 319.553C78.5898 319.851 78.1997 319.999 77.8097 319.999V319.999Z" fill="#FFE492"/>
<path d="M77.8091 320C77.4191 320 77.0297 319.851 76.7319 319.553L71.7539 314.576C71.1589 313.981 71.1589 313.016 71.7539 312.421C72.3481 311.826 73.3134 311.826 73.9084 312.421L78.8864 317.399C79.4814 317.994 79.4814 318.958 78.8864 319.553C78.5893 319.851 78.1992 320 77.8091 320V320Z" fill="#FFE492"/>
<path d="M79.631 335.866C79.4725 335.866 79.3118 335.841 79.1533 335.789C69.4137 332.576 62.8701 323.527 62.8701 313.27C62.8701 312.429 63.5527 311.746 64.3938 311.746C65.2349 311.746 65.9175 312.429 65.9175 313.27C65.9175 322.208 71.6201 330.095 80.1079 332.895C80.9071 333.158 81.3414 334.02 81.0778 334.819C80.8667 335.46 80.271 335.866 79.631 335.866V335.866Z" fill="#FFE492"/>
<path d="M64.3938 314.794C63.5527 314.794 62.8701 314.111 62.8701 313.27V302.491C62.8701 301.649 63.5527 300.967 64.3938 300.967C65.2349 300.967 65.9176 301.649 65.9176 302.491V313.27C65.9176 314.112 65.2349 314.794 64.3938 314.794Z" fill="#FFE492"/>
<path d="M64.3945 304.015C63.6463 304.015 62.9934 303.463 62.8868 302.7C62.771 301.867 63.3523 301.097 64.1865 300.982C69.3336 300.266 74.3017 298.728 78.9536 296.41C79.7071 296.035 80.6221 296.34 80.9969 297.094C81.3725 297.847 81.0655 298.762 80.3128 299.137C75.3645 301.603 70.0802 303.238 64.6055 304C64.5347 304.01 64.4638 304.015 64.3945 304.015V304.015Z" fill="#FFE492"/>
<path d="M79.6325 335.866C78.9933 335.866 78.3968 335.46 78.1857 334.819C77.9221 334.02 78.3564 333.158 79.1556 332.895C87.6434 330.096 93.346 322.209 93.346 313.27C93.346 312.429 94.0286 311.746 94.8697 311.746C95.7108 311.746 96.3934 312.429 96.3934 313.27C96.3934 323.526 89.8498 332.576 80.1094 335.789C79.951 335.842 79.791 335.866 79.6325 335.866V335.866Z" fill="#FFE492"/>
<path d="M94.8704 314.794C94.0293 314.794 93.3467 314.111 93.3467 313.27V302.491C93.3467 301.649 94.0293 300.967 94.8704 300.967C95.7115 300.967 96.3941 301.649 96.3941 302.491V313.27C96.3941 314.112 95.7115 314.794 94.8704 314.794Z" fill="#FFE492"/>
<path d="M94.8719 304.015C94.8018 304.015 94.7309 304.01 94.6601 304C89.1854 303.238 83.9011 301.603 78.9529 299.137C78.2002 298.762 77.8931 297.847 78.2687 297.094C78.6436 296.34 79.5585 296.035 80.312 296.41C84.9639 298.727 89.932 300.266 95.0791 300.982C95.9126 301.097 96.4947 301.868 96.3788 302.7C96.2737 303.463 95.6208 304.015 94.8719 304.015V304.015Z" fill="#FFE492"/>
<g filter="url(#filter2_d_5_36722)">
<rect x="638.735" y="276.238" width="81.2649" height="81.2649" rx="10" fill="white"/>
</g>
<g clip-path="url(#clip0_5_36722)">
<path d="M693.08 310.395H689.648V302.564C689.648 297.01 685.034 292.491 679.363 292.491C673.692 292.491 669.078 297.01 669.078 302.564V310.395H665.653C662.502 310.395 659.939 312.958 659.939 316.109V335.536C659.939 338.687 662.502 341.25 665.653 341.25H693.08C696.231 341.25 698.794 338.687 698.794 335.536V316.109C698.794 312.958 696.231 310.395 693.08 310.395ZM672.887 302.564C672.887 299.11 675.792 296.3 679.363 296.3C682.934 296.3 685.839 299.11 685.839 302.564V310.395H672.887V302.564V302.564ZM694.985 335.536C694.985 336.586 694.13 337.441 693.08 337.441H665.653C664.603 337.441 663.749 336.586 663.749 335.536V316.109C663.749 315.058 664.603 314.204 665.653 314.204H693.08C694.13 314.204 694.985 315.058 694.985 316.109V335.536Z" fill="#4F9CF9"/>
<path d="M679.367 319.727C677.421 319.727 675.844 321.305 675.844 323.251C675.844 324.493 676.487 325.585 677.459 326.212V330.393C677.459 331.445 678.312 332.298 679.364 332.298C680.415 332.298 681.268 331.445 681.268 330.393V326.217C682.244 325.59 682.891 324.496 682.891 323.251C682.891 321.305 681.313 319.727 679.367 319.727Z" fill="#4F9CF9"/>
</g>
<g filter="url(#filter3_d_5_36722)">
<rect x="538.779" y="35.6938" width="81.2649" height="81.2649" rx="10" fill="white"/>
</g>
<g clip-path="url(#clip1_5_36722)">
<path d="M571.708 51.9468C561.881 51.9468 555.032 55.3594 555.032 58.4223C555.032 61.4851 561.881 64.8977 571.708 64.8977C581.535 64.8977 588.384 61.485 588.384 58.4223C588.384 55.3595 581.536 51.9468 571.708 51.9468Z" fill="#FFE492"/>
<path d="M555.032 88.1737V94.2302C555.032 97.2931 561.881 100.706 571.708 100.706C576.113 100.706 580.27 100.012 583.414 98.7522C585.464 97.9312 586.981 96.9129 587.77 95.8547C586.283 94.6911 584.566 93.0181 583.07 90.7099C579.777 91.7642 575.885 92.3175 571.708 92.3175C566.453 92.3175 561.537 91.4122 557.866 89.7683C556.795 89.2888 555.848 88.7544 555.032 88.1737V88.1737Z" fill="#FFE492"/>
<path d="M555.032 76.2651L555.032 82.239C555.032 85.3018 561.881 88.7144 571.708 88.7144C575.193 88.7144 578.537 88.2773 581.339 87.4686C580.323 85.1199 579.666 82.5271 579.377 79.7214C576.98 80.1721 574.369 80.4073 571.708 80.4073C566.419 80.4073 561.48 79.4917 557.801 77.8292C556.757 77.3573 555.831 76.8332 555.032 76.2651V76.2651Z" fill="#FFE492"/>
<path d="M555.032 64.3514V70.3293C555.032 73.3921 561.881 76.8048 571.708 76.8048C574.337 76.8048 576.899 76.5571 579.205 76.0838C579.209 75.5177 579.378 74.0444 580.742 73.67C582.891 73.0798 584.395 71.6633 584.528 69.7203C584.583 68.9203 585.584 67.7994 586.33 67.8106H588.384V64.3514C587.585 64.9195 586.66 65.4437 585.616 65.9161C581.932 67.5827 576.993 68.5006 571.708 68.5006C566.424 68.5006 561.485 67.5827 557.801 65.9161C556.756 65.4437 555.831 64.9195 555.032 64.3514V64.3514Z" fill="#FFE492"/>
<path d="M598.683 71.4136H587.935C587.334 73.9123 585.412 75.9621 582.813 76.8559C583.016 88.8499 589.91 93.4234 592.949 94.8573C593.123 94.9392 593.329 94.9304 593.5 94.8341C596.552 93.1146 603.47 87.9964 603.792 76.8518C601.199 75.9559 599.283 73.9085 598.683 71.4136V71.4136ZM592.665 87.0328C591.935 87.7831 590.68 87.7419 590.001 86.9455L586.576 82.9267L589.319 80.59L591.46 83.1025L597.434 76.9586L600.018 79.4698L592.665 87.0328Z" fill="#FFE492"/>
</g>
<g filter="url(#filter4_d_5_36722)">
<rect x="158.459" y="35.6938" width="81.2649" height="81.2649" rx="10" fill="white"/>
</g>
<g clip-path="url(#clip2_5_36722)">
<path d="M217.25 56.5425C211.123 50.415 201.153 50.4151 195.025 56.5425C190.84 60.7276 189.387 66.8967 191.198 72.4923L173.506 90.185C173.238 90.4529 173.087 90.8163 173.087 91.1952V99.2772C173.087 100.066 173.727 100.706 174.516 100.706H182.598C182.977 100.706 183.34 100.555 183.608 100.287L185.629 98.2665C185.938 97.9577 186.088 97.5249 186.038 97.0912L185.786 94.9215L188.793 94.638C189.476 94.5737 190.017 94.0328 190.082 93.3498L190.365 90.3416L192.535 90.5938C192.94 90.6411 193.346 90.5128 193.65 90.2416C193.955 89.9706 194.129 89.5823 194.129 89.1746V86.514H196.741C197.117 86.514 197.478 86.3658 197.746 86.1014L201.295 82.5929C206.892 84.4071 213.064 82.9542 217.251 78.7678C223.378 72.6403 223.378 62.67 217.25 56.5425ZM215.23 76.7474C211.624 80.3534 206.215 81.4789 201.45 79.6152C200.924 79.4096 200.326 79.5329 199.925 79.9297L196.154 83.6567H192.7C191.911 83.6567 191.272 84.2964 191.272 85.0854V87.5703L189.245 87.3348C188.863 87.2905 188.48 87.4017 188.181 87.6434C187.882 87.8852 187.694 88.2371 187.658 88.6197L187.348 91.9042L184.064 92.2137C183.681 92.2498 183.329 92.4384 183.087 92.7372C182.845 93.0358 182.734 93.4194 182.778 93.8011L183.12 96.7347L182.006 97.8486H175.944V91.7872L193.857 73.8742C194.259 73.4729 194.384 72.8721 194.178 72.3436C192.314 67.5783 193.44 62.1693 197.046 58.5632C202.059 53.5498 210.217 53.5498 215.23 58.5632C220.243 63.5765 220.243 71.734 215.23 76.7474Z" fill="#4F9CF9"/>
<path d="M213.209 60.5835C211.537 58.9122 208.818 58.9123 207.147 60.5835C205.476 62.2546 205.476 64.9738 207.147 66.6449C208.818 68.3161 211.537 68.3162 213.209 66.6449C214.88 64.9738 214.88 62.2546 213.209 60.5835ZM211.188 64.6245C210.631 65.1815 209.725 65.1816 209.168 64.6245C208.611 64.0675 208.611 63.1611 209.168 62.604C209.726 62.0456 210.63 62.0456 211.188 62.604C211.747 63.1625 211.746 64.066 211.188 64.6245Z" fill="#4F9CF9"/>
</g>
<circle cx="381.938" cy="17.0029" r="13.0024" fill="#A7CEFC"/>
<circle cx="283.607" cy="194.16" r="13.0024" fill="#A7CEFC"/>
<circle cx="562.346" cy="316.87" r="13.0024" fill="#A7CEFC"/>
<g clip-path="url(#clip3_5_36722)">
<path d="M415.031 332.77L415.014 323.689C415.009 320.923 411.551 319.454 409.444 321.394L399.386 330.495C397.183 332.482 398.629 335.983 401.652 335.977L411.727 335.957C413.55 335.954 415.035 334.522 415.031 332.77Z" fill="#5986EF"/>
<path d="M367.348 336.043L377.423 336.023C380.398 336.017 381.878 332.511 379.668 330.533L369.575 321.471C367.46 319.585 364.009 321.021 364.014 323.786L364.031 332.868C364.035 334.62 365.525 336.046 367.348 336.043Z" fill="#5986EF"/>
<path d="M387.216 313.831L369.53 297.914C367.415 296.028 363.963 297.464 363.969 300.23L363.986 309.404C363.988 310.279 364.373 311.108 365.046 311.706L387.25 331.717C388.548 332.867 390.515 332.863 391.808 331.708L413.935 311.613C414.606 311.012 414.988 310.182 414.986 309.306L414.969 300.132C414.963 297.366 411.506 295.897 409.399 297.838L391.774 313.822C390.481 314.977 388.514 314.981 387.216 313.831Z" fill="#5986EF"/>
</g>
<defs>
<filter id="filter0_d_5_36722" x="311.245" y="241.238" width="159.265" height="159.265" filterUnits="userSpaceOnUse" color-interpolation-filters="sRGB">
<feFlood flood-opacity="0" result="BackgroundImageFix"/>
<feColorMatrix in="SourceAlpha" type="matrix" values="0 0 0 0 0 0 0 0 0 0 0 0 0 0 0 0 0 0 127 0" result="hardAlpha"/>
<feMorphology radius="11" operator="erode" in="SourceAlpha" result="effect1_dropShadow_5_36722"/>
<feOffset dy="4"/>
<feGaussianBlur stdDeviation="25"/>
<feComposite in2="hardAlpha" operator="out"/>
<feColorMatrix type="matrix" values="0 0 0 0 0 0 0 0 0 0 0 0 0 0 0 0 0 0 0.2 0"/>
<feBlend mode="normal" in2="BackgroundImageFix" result="effect1_dropShadow_5_36722"/>
<feBlend mode="normal" in="SourceGraphic" in2="effect1_dropShadow_5_36722" result="shape"/>
</filter>
<filter id="filter1_d_5_36722" x="0" y="241.238" width="159.265" height="159.265" filterUnits="userSpaceOnUse" color-interpolation-filters="sRGB">
<feFlood flood-opacity="0" result="BackgroundImageFix"/>
<feColorMatrix in="SourceAlpha" type="matrix" values="0 0 0 0 0 0 0 0 0 0 0 0 0 0 0 0 0 0 127 0" result="hardAlpha"/>
<feMorphology radius="11" operator="erode" in="SourceAlpha" result="effect1_dropShadow_5_36722"/>
<feOffset dy="4"/>
<feGaussianBlur stdDeviation="25"/>
<feComposite in2="hardAlpha" operator="out"/>
<feColorMatrix type="matrix" values="0 0 0 0 0 0 0 0 0 0 0 0 0 0 0 0 0 0 0.2 0"/>
<feBlend mode="normal" in2="BackgroundImageFix" result="effect1_dropShadow_5_36722"/>
<feBlend mode="normal" in="SourceGraphic" in2="effect1_dropShadow_5_36722" result="shape"/>
</filter>
<filter id="filter2_d_5_36722" x="599.735" y="241.238" width="159.265" height="159.265" filterUnits="userSpaceOnUse" color-interpolation-filters="sRGB">
<feFlood flood-opacity="0" result="BackgroundImageFix"/>
<feColorMatrix in="SourceAlpha" type="matrix" values="0 0 0 0 0 0 0 0 0 0 0 0 0 0 0 0 0 0 127 0" result="hardAlpha"/>
<feMorphology radius="11" operator="erode" in="SourceAlpha" result="effect1_dropShadow_5_36722"/>
<feOffset dy="4"/>
<feGaussianBlur stdDeviation="25"/>
<feComposite in2="hardAlpha" operator="out"/>
<feColorMatrix type="matrix" values="0 0 0 0 0 0 0 0 0 0 0 0 0 0 0 0 0 0 0.2 0"/>
<feBlend mode="normal" in2="BackgroundImageFix" result="effect1_dropShadow_5_36722"/>
<feBlend mode="normal" in="SourceGraphic" in2="effect1_dropShadow_5_36722" result="shape"/>
</filter>
<filter id="filter3_d_5_36722" x="499.779" y="0.693802" width="159.265" height="159.265" filterUnits="userSpaceOnUse" color-interpolation-filters="sRGB">
<feFlood flood-opacity="0" result="BackgroundImageFix"/>
<feColorMatrix in="SourceAlpha" type="matrix" values="0 0 0 0 0 0 0 0 0 0 0 0 0 0 0 0 0 0 127 0" result="hardAlpha"/>
<feMorphology radius="11" operator="erode" in="SourceAlpha" result="effect1_dropShadow_5_36722"/>
<feOffset dy="4"/>
<feGaussianBlur stdDeviation="25"/>
<feComposite in2="hardAlpha" operator="out"/>
<feColorMatrix type="matrix" values="0 0 0 0 0 0 0 0 0 0 0 0 0 0 0 0 0 0 0.2 0"/>
<feBlend mode="normal" in2="BackgroundImageFix" result="effect1_dropShadow_5_36722"/>
<feBlend mode="normal" in="SourceGraphic" in2="effect1_dropShadow_5_36722" result="shape"/>
</filter>
<filter id="filter4_d_5_36722" x="119.459" y="0.693802" width="159.265" height="159.265" filterUnits="userSpaceOnUse" color-interpolation-filters="sRGB">
<feFlood flood-opacity="0" result="BackgroundImageFix"/>
<feColorMatrix in="SourceAlpha" type="matrix" values="0 0 0 0 0 0 0 0 0 0 0 0 0 0 0 0 0 0 127 0" result="hardAlpha"/>
<feMorphology radius="11" operator="erode" in="SourceAlpha" result="effect1_dropShadow_5_36722"/>
<feOffset dy="4"/>
<feGaussianBlur stdDeviation="25"/>
<feComposite in2="hardAlpha" operator="out"/>
<feColorMatrix type="matrix" values="0 0 0 0 0 0 0 0 0 0 0 0 0 0 0 0 0 0 0.2 0"/>
<feBlend mode="normal" in2="BackgroundImageFix" result="effect1_dropShadow_5_36722"/>
<feBlend mode="normal" in="SourceGraphic" in2="effect1_dropShadow_5_36722" result="shape"/>
</filter>
<clipPath id="clip0_5_36722">
<rect width="48.7589" height="48.7589" fill="white" transform="translate(654.988 292.491)"/>
</clipPath>
<clipPath id="clip1_5_36722">
<rect width="48.7589" height="48.7589" fill="white" transform="translate(555.032 51.9468)"/>
</clipPath>
<clipPath id="clip2_5_36722">
<rect width="48.7589" height="48.7589" fill="white" transform="translate(173.087 51.9468)"/>
</clipPath>
<clipPath id="clip3_5_36722">
<rect width="51" height="39" fill="white" transform="translate(415.037 335.951) rotate(179.89)"/>
</clipPath>
</defs>
</svg>
