<svg width="710" height="661" viewBox="0 0 710 661" fill="none" xmlns="http://www.w3.org/2000/svg">
<circle cx="365.5" cy="330.5" r="329.5" stroke="#A7CEFC" stroke-width="2" stroke-dasharray="15 15"/>
<circle cx="365.5" cy="330.5" r="192.5" stroke="#A7CEFC" stroke-width="2" stroke-dasharray="15 15"/>
<circle cx="35" cy="331" r="35" fill="#FF5758"/>
<circle cx="559" cy="331" r="35" fill="#37A3FF"/>
<circle cx="366" cy="524" r="35" fill="#FFBF60"/>
<circle cx="172" cy="331" r="35" fill="#37A3FF"/>
<circle cx="172" cy="603" r="35" fill="#37A3FF"/>
<circle cx="599" cy="106" r="35" fill="#37A3FF"/>
<circle cx="675" cy="436" r="35" fill="#00CA75"/>
<mask id="mask0_5_34925" style="mask-type:alpha" maskUnits="userSpaceOnUse" x="640" y="401" width="70" height="70">
<circle cx="675" cy="436" r="35" fill="#C4C4C4"/>
</mask>
<g mask="url(#mask0_5_34925)">
</g>
<circle cx="367" cy="137" r="35" fill="#00CA75"/>
<mask id="mask1_5_34925" style="mask-type:alpha" maskUnits="userSpaceOnUse" x="332" y="102" width="70" height="70">
<circle cx="367" cy="137" r="35" fill="#C4C4C4"/>
</mask>
<g mask="url(#mask1_5_34925)">
</g>
<circle cx="175" cy="58" r="35" fill="#FFDC4D"/>
<g filter="url(#filter0_d_5_34925)">
<rect x="415.628" y="381.369" width="100" height="100" rx="10" transform="rotate(-179.576 415.628 381.369)" fill="white"/>
</g>
<g clip-path="url(#clip0_5_34925)">
<path d="M393.863 349.618L393.939 339.372C393.962 336.252 390.113 334.559 387.738 336.726L376.402 346.888C373.919 349.106 375.498 353.071 378.876 353.096L390.136 353.179C392.174 353.194 393.848 351.594 393.863 349.618Z" fill="#5986EF"/>
<path d="M340.538 352.812L351.798 352.895C355.122 352.92 356.814 348.98 354.364 346.725L343.179 336.396C340.836 334.246 336.963 335.83 336.94 338.951L336.864 349.196C336.85 351.172 338.5 352.797 340.538 352.812Z" fill="#5986EF"/>
<path d="M362.975 327.961L343.376 309.82C341.033 307.67 337.16 309.254 337.137 312.374L337.06 322.724C337.053 323.712 337.475 324.651 338.221 325.333L362.826 348.14C364.264 349.451 366.462 349.467 367.92 348.178L392.86 325.738C393.615 325.067 394.051 324.134 394.059 323.146L394.135 312.796C394.158 309.676 390.31 307.983 387.935 310.15L368.069 327.999C366.612 329.288 364.413 329.272 362.975 327.961Z" fill="#5986EF"/>
</g>
<defs>
<filter id="filter0_d_5_34925" x="276.76" y="245.76" width="178.48" height="178.48" filterUnits="userSpaceOnUse" color-interpolation-filters="sRGB">
<feFlood flood-opacity="0" result="BackgroundImageFix"/>
<feColorMatrix in="SourceAlpha" type="matrix" values="0 0 0 0 0 0 0 0 0 0 0 0 0 0 0 0 0 0 127 0" result="hardAlpha"/>
<feMorphology radius="11" operator="erode" in="SourceAlpha" result="effect1_dropShadow_5_34925"/>
<feOffset dy="4"/>
<feGaussianBlur stdDeviation="25"/>
<feComposite in2="hardAlpha" operator="out"/>
<feColorMatrix type="matrix" values="0 0 0 0 0 0 0 0 0 0 0 0 0 0 0 0 0 0 0.25 0"/>
<feBlend mode="normal" in2="BackgroundImageFix" result="effect1_dropShadow_5_34925"/>
<feBlend mode="normal" in="SourceGraphic" in2="effect1_dropShadow_5_34925" result="shape"/>
</filter>
<clipPath id="clip0_5_34925">
<rect width="57" height="44" fill="white" transform="translate(393.836 353.207) rotate(-179.576)"/>
</clipPath>
</defs>
</svg>
